<svg class="main-svg" xmlns="http://www.w3.org/2000/svg" xmlns:xlink="http://www.w3.org/1999/xlink" width="500" height="300" style="" viewBox="0 0 500 300"><rect x="0" y="0" width="500" height="300" style="fill: rgb(255, 255, 255); fill-opacity: 1;"/><defs id="defs-68d3fb"><g class="clips"><clipPath id="clip68d3fbxyplot" class="plotclip"><rect width="402" height="201"/></clipPath><clipPath class="axesclip" id="clip68d3fbx"><rect x="53" y="0" width="402" height="300"/></clipPath><clipPath class="axesclip" id="clip68d3fby"><rect x="0" y="20" width="500" height="201"/></clipPath><clipPath class="axesclip" id="clip68d3fbxy"><rect x="53" y="20" width="402" height="201"/></clipPath></g><g class="gradients"/><g class="patterns"/></defs><g class="bglayer"><rect class="bg" x="53" y="20" width="402" height="201" style="fill: rgb(0, 0, 0); fill-opacity: 0; stroke-width: 0;"/></g><g class="layer-below"><g class="imagelayer"/><g class="shapelayer"/></g><g class="cartesianlayer"><g class="subplot xy"><g class="layer-subplot"><g class="shapelayer"/><g class="imagelayer"/></g><g class="minor-gridlayer"><g class="x"/><g class="y"/></g><g class="gridlayer"><g class="x"/><g class="y"/></g><g class="zerolinelayer"/><path class="xlines-below"/><path class="ylines-below"/><g class="overlines-below"/><g class="xaxislayer-below"/><g class="yaxislayer-below"/><g class="overaxes-below"/><g class="plot" transform="translate(53,20)" clip-path="url(#clip68d3fbxyplot)"><g class="violinlayer mlayer"><g class="trace violins" style="opacity: 1;"><path class="violin" d="M28.72,192.61Q28.72,191.38 28.72,190.76C28.72,190.14 28.73,189.53 28.73,188.91C28.73,188.29 28.74,187.68 28.74,187.06C28.74,186.44 28.74,185.83 28.74,185.21C28.74,184.59 28.75,183.98 28.75,183.36C28.75,182.74 28.76,182.13 28.76,181.51C28.76,180.89 28.76,180.28 28.76,179.66C28.76,179.04 28.77,178.43 28.77,177.81C28.77,177.19 28.77,176.58 28.77,175.96C28.77,175.34 28.78,174.73 28.78,174.11C28.78,173.49 28.79,172.88 28.79,172.26C28.79,171.64 28.8,171.03 28.8,170.41C28.81,169.79 28.82,169.18 28.82,168.56C28.83,167.94 28.83,167.32 28.83,166.7C28.83,166.08 28.84,165.47 28.84,164.85C28.85,164.23 28.85,163.62 28.86,163C28.86,162.38 28.87,161.77 28.87,161.15C28.88,160.53 28.88,159.92 28.89,159.3C28.9,158.68 28.91,158.07 28.92,157.45C28.93,156.83 28.94,156.22 28.95,155.6C28.96,154.98 28.98,154.37 29,153.75C29.01,153.13 29.03,152.52 29.04,151.9C29.06,151.28 29.07,150.67 29.09,150.05C29.11,149.43 29.13,148.82 29.14,148.2C29.15,147.58 29.16,146.97 29.17,146.35C29.18,145.73 29.19,145.12 29.2,144.5C29.21,143.88 29.21,143.27 29.21,142.65C29.21,142.03 29.21,141.42 29.21,140.8C29.21,140.18 29.2,139.57 29.2,138.95C29.2,138.33 29.19,137.72 29.19,137.1C29.19,136.48 29.18,135.87 29.18,135.25C29.18,134.63 29.18,134.02 29.18,133.4C29.18,132.78 29.19,132.17 29.2,131.55C29.21,130.93 29.22,130.32 29.23,129.7C29.24,129.08 29.26,128.47 29.28,127.85C29.3,127.23 29.32,126.61 29.34,125.99C29.36,125.37 29.39,124.76 29.41,124.14C29.43,123.52 29.46,122.91 29.48,122.29C29.51,121.67 29.53,121.06 29.56,120.44C29.58,119.82 29.61,119.21 29.63,118.59C29.65,117.97 29.67,117.36 29.69,116.74C29.71,116.12 29.73,115.51 29.75,114.89C29.77,114.27 29.79,113.66 29.81,113.04C29.83,112.42 29.84,111.81 29.86,111.19C29.88,110.57 29.9,109.96 29.92,109.34C29.94,108.72 29.96,108.11 29.99,107.49C30.02,106.87 30.05,106.26 30.09,105.64C30.13,105.02 30.16,104.41 30.21,103.79C30.26,103.17 30.32,102.56 30.37,101.94C30.43,101.32 30.48,100.71 30.54,100.09C30.6,99.47 30.67,98.86 30.73,98.24C30.79,97.62 30.85,97.01 30.91,96.39C30.97,95.77 31.02,95.16 31.07,94.54C31.12,93.92 31.17,93.31 31.21,92.69C31.25,92.07 31.28,91.46 31.31,90.84C31.34,90.22 31.35,89.61 31.37,88.99C31.38,88.37 31.39,87.76 31.4,87.14C31.41,86.52 31.4,85.9 31.41,85.28C31.42,84.66 31.43,84.05 31.44,83.43C31.46,82.81 31.47,82.2 31.5,81.58C31.53,80.96 31.57,80.35 31.62,79.73C31.67,79.11 31.74,78.5 31.81,77.88C31.88,77.26 31.97,76.65 32.06,76.03C32.15,75.41 32.25,74.8 32.35,74.18C32.45,73.56 32.54,72.95 32.64,72.33C32.74,71.71 32.84,71.1 32.93,70.48C33.02,69.86 33.11,69.25 33.19,68.63C33.27,68.01 33.34,67.4 33.42,66.78C33.5,66.16 33.57,65.55 33.65,64.93C33.73,64.31 33.8,63.7 33.88,63.08C33.96,62.46 34.04,61.85 34.13,61.23C34.22,60.61 34.31,60 34.41,59.38C34.51,58.76 34.62,58.15 34.73,57.53C34.85,56.91 34.97,56.3 35.1,55.68C35.23,55.06 35.36,54.45 35.5,53.83C35.64,53.21 35.78,52.6 35.93,51.98C36.08,51.36 36.23,50.75 36.39,50.13C36.55,49.51 36.71,48.9 36.89,48.28C37.07,47.66 37.25,47.05 37.45,46.43C37.65,45.81 37.87,45.19 38.09,44.57C38.31,43.95 38.54,43.34 38.78,42.72C39.02,42.1 39.27,41.49 39.52,40.87C39.77,40.25 40.02,39.64 40.26,39.02C40.5,38.4 40.73,37.79 40.95,37.17C41.17,36.56 41.38,35.94 41.57,35.32C41.76,34.71 41.94,34.09 42.09,33.47C42.24,32.86 42.36,32.24 42.47,31.62C42.57,31.01 42.67,30.39 42.72,29.77C42.77,29.15 42.79,28.54 42.78,27.92C42.77,27.3 42.73,26.68 42.64,26.07C42.55,25.45 42.43,24.83 42.26,24.22C42.09,23.6 41.86,22.98 41.6,22.37C41.33,21.75 41.02,21.13 40.68,20.52C40.33,19.9 39.94,19.28 39.54,18.67C39.13,18.05 38.67,17.43 38.22,16.82C37.76,16.2 37.29,15.59 36.82,14.97C36.35,14.35 35.87,13.74 35.41,13.12C34.95,12.51 34.49,11.89 34.06,11.27C33.63,10.66 33.21,10.04 32.82,9.42C32.44,8.81 32.08,8.19 31.75,7.57C31.43,6.96 31.12,6.34 30.85,5.72C30.59,5.11 30.35,4.48 30.15,3.86C29.95,3.25 29.78,2.63 29.63,2.01C29.48,1.4 29.37,0.78 29.27,0.16C29.17,-0.46 29.1,-1.07 29.03,-1.69C28.97,-2.31 28.92,-2.92 28.88,-3.54C28.84,-4.16 28.82,-4.77 28.8,-5.39C28.78,-6.01 28.76,-6.62 28.75,-7.24Q28.74,-7.86 28.73,-9.09L28.7,-9.09Q28.69,-7.86 28.68,-7.24C28.67,-6.62 28.65,-6.01 28.63,-5.39C28.61,-4.77 28.59,-4.16 28.55,-3.54C28.51,-2.92 28.46,-2.31 28.4,-1.69C28.33,-1.07 28.26,-0.46 28.16,0.16C28.06,0.78 27.95,1.4 27.8,2.01C27.65,2.63 27.48,3.25 27.28,3.86C27.07,4.48 26.83,5.11 26.57,5.72C26.3,6.34 26,6.96 25.68,7.57C25.35,8.19 24.99,8.81 24.61,9.42C24.22,10.04 23.8,10.66 23.37,11.27C22.94,11.89 22.48,12.51 22.02,13.12C21.56,13.74 21.08,14.35 20.61,14.97C20.14,15.59 19.67,16.2 19.21,16.82C18.76,17.43 18.31,18.05 17.89,18.67C17.48,19.28 17.09,19.89 16.74,20.52C16.4,21.13 16.09,21.75 15.83,22.37C15.57,22.98 15.35,23.6 15.17,24.22C15,24.83 14.87,25.45 14.78,26.07C14.69,26.68 14.65,27.3 14.64,27.92C14.63,28.54 14.66,29.15 14.71,29.77C14.76,30.39 14.86,31.01 14.96,31.62C15.07,32.24 15.19,32.86 15.34,33.47C15.49,34.09 15.67,34.71 15.86,35.32C16.05,35.94 16.25,36.56 16.47,37.17C16.69,37.79 16.93,38.4 17.17,39.02C17.41,39.64 17.66,40.25 17.91,40.87C18.16,41.49 18.41,42.1 18.65,42.72C18.89,43.34 19.12,43.95 19.34,44.57C19.56,45.19 19.77,45.81 19.97,46.43C20.17,47.05 20.36,47.66 20.54,48.28C20.72,48.9 20.88,49.51 21.04,50.13C21.2,50.75 21.35,51.36 21.5,51.98C21.65,52.6 21.79,53.21 21.93,53.83C22.07,54.45 22.2,55.06 22.33,55.68C22.46,56.3 22.57,56.91 22.69,57.53C22.8,58.15 22.92,58.76 23.02,59.38C23.12,60 23.21,60.61 23.3,61.23C23.39,61.85 23.47,62.46 23.55,63.08C23.63,63.7 23.7,64.31 23.78,64.93C23.86,65.55 23.93,66.16 24.01,66.78C24.09,67.4 24.16,68.01 24.24,68.63C24.32,69.25 24.41,69.86 24.5,70.48C24.59,71.1 24.68,71.71 24.78,72.33C24.88,72.95 24.98,73.56 25.08,74.18C25.18,74.8 25.28,75.41 25.37,76.03C25.46,76.65 25.55,77.26 25.62,77.88C25.69,78.5 25.76,79.11 25.81,79.73C25.86,80.35 25.9,80.96 25.93,81.58C25.96,82.2 25.98,82.81 25.99,83.43C26,84.05 26,84.66 26.01,85.28C26.02,85.9 26.02,86.52 26.03,87.14C26.04,87.76 26.05,88.37 26.06,88.99C26.08,89.61 26.09,90.22 26.12,90.84C26.15,91.46 26.18,92.07 26.22,92.69C26.26,93.31 26.31,93.92 26.36,94.54C26.41,95.16 26.46,95.77 26.52,96.39C26.58,97.01 26.64,97.62 26.7,98.24C26.76,98.86 26.83,99.47 26.89,100.09C26.95,100.71 27.01,101.32 27.06,101.94C27.11,102.56 27.16,103.17 27.21,103.79C27.26,104.41 27.3,105.02 27.34,105.64C27.38,106.26 27.41,106.87 27.44,107.49C27.47,108.11 27.49,108.72 27.51,109.34C27.53,109.96 27.55,110.57 27.57,111.19C27.59,111.81 27.6,112.42 27.62,113.04C27.64,113.66 27.66,114.27 27.68,114.89C27.7,115.51 27.72,116.12 27.74,116.74C27.76,117.36 27.78,117.97 27.8,118.59C27.82,119.21 27.85,119.82 27.87,120.44C27.9,121.06 27.92,121.67 27.95,122.29C27.97,122.91 28,123.52 28.02,124.14C28.04,124.76 28.06,125.37 28.08,125.99C28.1,126.61 28.13,127.23 28.15,127.85C28.17,128.47 28.18,129.08 28.19,129.7C28.2,130.32 28.22,130.93 28.23,131.55C28.24,132.17 28.24,132.78 28.24,133.4C28.24,134.02 28.25,134.63 28.25,135.25C28.25,135.87 28.24,136.48 28.24,137.1C28.24,137.72 28.23,138.33 28.23,138.95C28.23,139.57 28.22,140.18 28.22,140.8C28.22,141.42 28.22,142.03 28.22,142.65C28.22,143.27 28.22,143.88 28.23,144.5C28.24,145.12 28.25,145.73 28.26,146.35C28.27,146.97 28.28,147.58 28.29,148.2C28.3,148.82 28.32,149.43 28.34,150.05C28.35,150.67 28.37,151.28 28.38,151.9C28.4,152.52 28.41,153.13 28.43,153.75C28.44,154.37 28.46,154.98 28.47,155.6C28.48,156.22 28.5,156.83 28.51,157.45C28.52,158.07 28.53,158.68 28.54,159.3C28.55,159.92 28.55,160.53 28.56,161.15C28.56,161.77 28.57,162.38 28.57,163C28.58,163.62 28.58,164.23 28.59,164.85C28.59,165.47 28.6,166.08 28.6,166.7C28.6,167.32 28.6,167.94 28.61,168.56C28.61,169.18 28.62,169.79 28.63,170.41C28.63,171.03 28.64,171.64 28.64,172.26C28.64,172.88 28.65,173.49 28.65,174.11C28.65,174.73 28.66,175.34 28.66,175.96C28.66,176.58 28.66,177.19 28.66,177.81C28.66,178.43 28.67,179.04 28.67,179.66C28.67,180.28 28.67,180.89 28.67,181.51C28.67,182.13 28.68,182.74 28.68,183.36C28.68,183.98 28.68,184.59 28.68,185.21C28.68,185.83 28.69,186.44 28.69,187.06C28.69,187.68 28.7,188.29 28.7,188.91C28.7,189.53 28.71,190.14 28.71,190.76Q28.71,191.38 28.71,192.61Z" style="vector-effect: none; stroke-width: 0.5px; stroke: rgb(0, 0, 0); stroke-opacity: 1; fill: rgb(244, 191, 145); fill-opacity: 1;"/><path class="meanline" d="M37.354339599609375,46.73H20.065660400390627" style="fill: none; vector-effect: none; stroke-width: 0.5px; stroke-dasharray: 1px, 0.5px; stroke: rgb(0, 0, 0); stroke-opacity: 1;"/></g><g class="trace violins" style="opacity: 1;"><path class="violin" d="M86.15,172.92Q86.15,172.16 86.15,171.78C86.15,171.4 86.15,171.02 86.15,170.64C86.15,170.26 86.15,169.88 86.15,169.5C86.15,169.12 86.16,168.74 86.16,168.36C86.16,167.98 86.17,167.6 86.17,167.22C86.17,166.84 86.17,166.46 86.17,166.08C86.17,165.7 86.18,165.33 86.18,164.95C86.18,164.57 86.19,164.19 86.19,163.81C86.19,163.43 86.2,163.05 86.2,162.67C86.2,162.29 86.2,161.91 86.2,161.53C86.2,161.15 86.21,160.77 86.21,160.39C86.21,160.01 86.22,159.63 86.22,159.25C86.22,158.87 86.23,158.49 86.23,158.11C86.24,157.73 86.24,157.35 86.25,156.97C86.26,156.59 86.26,156.21 86.27,155.83C86.28,155.45 86.28,155.07 86.29,154.69C86.29,154.31 86.3,153.93 86.3,153.55C86.3,153.17 86.31,152.79 86.31,152.41C86.31,152.03 86.31,151.65 86.31,151.27C86.31,150.89 86.3,150.52 86.3,150.14C86.3,149.76 86.3,149.38 86.3,149C86.3,148.62 86.3,148.24 86.3,147.86C86.3,147.48 86.31,147.1 86.31,146.72C86.31,146.34 86.31,145.96 86.31,145.58C86.31,145.2 86.32,144.82 86.32,144.44C86.32,144.06 86.32,143.68 86.32,143.3C86.32,142.92 86.32,142.54 86.32,142.16C86.32,141.78 86.32,141.4 86.32,141.02C86.32,140.64 86.33,140.26 86.33,139.88C86.33,139.5 86.33,139.12 86.33,138.74C86.33,138.36 86.34,137.98 86.34,137.6C86.34,137.22 86.35,136.84 86.35,136.46C86.35,136.08 86.35,135.7 86.36,135.32C86.36,134.94 86.38,134.57 86.38,134.19C86.39,133.81 86.39,133.43 86.39,133.05C86.39,132.67 86.4,132.29 86.4,131.91C86.4,131.53 86.41,131.15 86.41,130.77C86.41,130.39 86.42,130.01 86.42,129.63C86.42,129.25 86.43,128.87 86.43,128.49C86.43,128.11 86.44,127.73 86.44,127.35C86.45,126.97 86.45,126.59 86.46,126.21C86.46,125.83 86.47,125.45 86.47,125.07C86.47,124.69 86.48,124.31 86.48,123.93C86.48,123.55 86.49,123.17 86.49,122.79C86.49,122.41 86.49,122.03 86.49,121.65C86.49,121.27 86.49,120.89 86.49,120.51C86.49,120.13 86.48,119.76 86.48,119.38C86.48,119 86.47,118.62 86.47,118.24C86.47,117.86 86.46,117.48 86.46,117.1C86.46,116.72 86.45,116.34 86.45,115.96C86.45,115.58 86.45,115.2 86.45,114.82C86.45,114.44 86.46,114.06 86.46,113.68C86.47,113.3 86.47,112.92 86.48,112.54C86.48,112.16 86.49,111.78 86.49,111.4C86.5,111.02 86.5,110.64 86.51,110.26C86.51,109.88 86.52,109.5 86.52,109.12C86.53,108.74 86.53,108.36 86.54,107.98C86.55,107.6 86.56,107.22 86.57,106.84C86.58,106.46 86.58,106.08 86.59,105.7C86.6,105.32 86.61,104.94 86.62,104.56C86.63,104.18 86.63,103.81 86.63,103.43C86.63,103.05 86.64,102.67 86.64,102.29C86.64,101.91 86.65,101.53 86.65,101.15C86.66,100.77 86.66,100.39 86.67,100.01C86.68,99.63 86.68,99.25 86.69,98.87C86.7,98.49 86.72,98.11 86.73,97.73C86.75,97.35 86.76,96.97 86.78,96.59C86.8,96.21 86.81,95.83 86.83,95.45C86.84,95.07 86.86,94.69 86.87,94.31C86.88,93.93 86.89,93.55 86.9,93.17C86.91,92.79 86.91,92.41 86.92,92.03C86.92,91.65 86.93,91.27 86.93,90.89C86.93,90.51 86.94,90.13 86.94,89.75C86.94,89.37 86.94,89 86.94,88.62C86.94,88.24 86.95,87.86 86.95,87.48C86.96,87.1 86.96,86.72 86.97,86.34C86.98,85.96 86.98,85.58 86.99,85.2C87,84.82 87.01,84.44 87.02,84.06C87.03,83.68 87.03,83.3 87.04,82.92C87.05,82.54 87.06,82.16 87.07,81.78C87.08,81.4 87.09,81.02 87.1,80.64C87.11,80.26 87.12,79.88 87.14,79.5C87.16,79.12 87.18,78.74 87.2,78.36C87.22,77.98 87.24,77.6 87.26,77.22C87.28,76.84 87.3,76.46 87.32,76.08C87.34,75.7 87.36,75.32 87.37,74.94C87.38,74.56 87.4,74.18 87.4,73.8C87.4,73.42 87.4,73.05 87.4,72.67C87.4,72.29 87.39,71.91 87.39,71.53C87.38,71.15 87.38,70.77 87.37,70.39C87.37,70.01 87.36,69.63 87.36,69.25C87.36,68.87 87.36,68.49 87.37,68.11C87.38,67.73 87.39,67.35 87.41,66.97C87.43,66.59 87.45,66.21 87.47,65.83C87.49,65.45 87.52,65.07 87.55,64.69C87.58,64.31 87.61,63.93 87.64,63.55C87.67,63.17 87.7,62.79 87.73,62.41C87.76,62.03 87.78,61.65 87.81,61.27C87.84,60.89 87.86,60.51 87.89,60.13C87.92,59.75 87.94,59.37 87.97,58.99C88,58.61 88.03,58.24 88.06,57.86C88.1,57.48 88.13,57.1 88.18,56.72C88.23,56.34 88.28,55.96 88.34,55.58C88.4,55.2 88.47,54.82 88.54,54.44C88.61,54.06 88.69,53.68 88.77,53.3C88.85,52.92 88.94,52.54 89.03,52.16C89.12,51.78 89.22,51.4 89.31,51.02C89.41,50.64 89.5,50.26 89.6,49.88C89.7,49.5 89.79,49.12 89.89,48.74C89.99,48.36 90.09,47.98 90.2,47.6C90.31,47.22 90.42,46.84 90.53,46.46C90.64,46.08 90.76,45.7 90.87,45.32C90.99,44.94 91.1,44.56 91.22,44.18C91.34,43.8 91.46,43.43 91.58,43.05C91.7,42.67 91.82,42.29 91.94,41.91C92.06,41.53 92.18,41.15 92.3,40.77C92.42,40.39 92.55,40.01 92.68,39.63C92.81,39.25 92.94,38.87 93.08,38.49C93.22,38.11 93.36,37.73 93.5,37.35C93.65,36.97 93.8,36.59 93.95,36.21C94.11,35.83 94.27,35.45 94.43,35.07C94.6,34.69 94.76,34.31 94.94,33.93C95.12,33.55 95.31,33.17 95.5,32.79C95.7,32.41 95.9,32.03 96.11,31.65C96.32,31.27 96.55,30.89 96.78,30.51C97.01,30.13 97.25,29.75 97.49,29.37C97.73,28.99 97.97,28.61 98.2,28.23C98.42,27.85 98.65,27.48 98.85,27.1C99.05,26.72 99.25,26.34 99.42,25.96C99.58,25.58 99.72,25.2 99.84,24.82C99.95,24.44 100.05,24.06 100.11,23.68C100.17,23.3 100.2,22.92 100.21,22.54C100.22,22.16 100.19,21.78 100.15,21.4C100.11,21.02 100.04,20.64 99.94,20.26C99.84,19.88 99.71,19.5 99.57,19.12C99.42,18.74 99.25,18.36 99.06,17.98C98.87,17.6 98.65,17.22 98.42,16.84C98.18,16.46 97.92,16.08 97.65,15.7C97.37,15.32 97.08,14.94 96.77,14.56C96.46,14.18 96.14,13.8 95.8,13.42C95.46,13.04 95.1,12.67 94.74,12.29C94.37,11.91 93.99,11.53 93.61,11.15C93.23,10.77 92.84,10.39 92.46,10.01C92.07,9.63 91.68,9.25 91.3,8.87C90.93,8.49 90.56,8.11 90.21,7.73C89.87,7.35 89.52,6.98 89.21,6.59C88.91,6.22 88.62,5.84 88.36,5.45C88.11,5.08 87.87,4.7 87.66,4.31C87.46,3.94 87.28,3.55 87.13,3.17C86.98,2.79 86.86,2.41 86.75,2.03C86.64,1.65 86.56,1.27 86.49,0.89C86.42,0.51 86.37,0.13 86.33,-0.25C86.29,-0.63 86.26,-1.01 86.24,-1.39C86.22,-1.77 86.2,-2.15 86.19,-2.53Q86.18,-2.91 86.16,-3.66L86.12,-3.66Q86.11,-2.91 86.1,-2.53C86.09,-2.15 86.07,-1.77 86.05,-1.39C86.02,-1.01 85.99,-0.63 85.95,-0.25C85.91,0.13 85.86,0.51 85.79,0.89C85.72,1.27 85.65,1.65 85.54,2.03C85.43,2.41 85.3,2.79 85.15,3.17C85,3.55 84.82,3.94 84.62,4.31C84.41,4.7 84.18,5.08 83.93,5.45C83.67,5.84 83.38,6.22 83.08,6.59C82.77,6.98 82.43,7.35 82.08,7.73C81.73,8.11 81.35,8.49 80.98,8.87C80.6,9.25 80.21,9.63 79.83,10.01C79.44,10.39 79.05,10.77 78.67,11.15C78.29,11.53 77.92,11.91 77.55,12.29C77.19,12.67 76.83,13.04 76.49,13.42C76.15,13.8 75.82,14.18 75.51,14.56C75.2,14.94 74.91,15.32 74.63,15.7C74.36,16.08 74.1,16.46 73.86,16.84C73.63,17.22 73.41,17.6 73.22,17.98C73.03,18.36 72.86,18.74 72.71,19.12C72.57,19.5 72.45,19.88 72.35,20.26C72.25,20.64 72.18,21.02 72.13,21.4C72.08,21.78 72.06,22.16 72.07,22.54C72.08,22.92 72.12,23.3 72.18,23.68C72.24,24.06 72.33,24.44 72.44,24.82C72.56,25.2 72.71,25.58 72.87,25.96C73.04,26.34 73.23,26.72 73.43,27.1C73.63,27.48 73.86,27.85 74.09,28.23C74.32,28.61 74.56,28.99 74.8,29.37C75.03,29.75 75.27,30.13 75.5,30.51C75.73,30.89 75.96,31.27 76.18,31.65C76.39,32.03 76.59,32.41 76.79,32.79C76.98,33.17 77.17,33.55 77.35,33.93C77.53,34.31 77.7,34.69 77.86,35.07C78.02,35.45 78.18,35.83 78.33,36.21C78.48,36.59 78.63,36.97 78.78,37.35C78.93,37.73 79.07,38.11 79.21,38.49C79.35,38.87 79.47,39.25 79.6,39.63C79.73,40.01 79.85,40.39 79.98,40.77C80.1,41.15 80.23,41.53 80.35,41.91C80.47,42.29 80.59,42.67 80.71,43.05C80.83,43.43 80.95,43.8 81.07,44.18C81.19,44.56 81.3,44.94 81.42,45.32C81.53,45.7 81.65,46.08 81.76,46.46C81.87,46.84 81.97,47.22 82.08,47.6C82.18,47.98 82.29,48.36 82.39,48.74C82.49,49.12 82.59,49.5 82.69,49.88C82.79,50.26 82.88,50.64 82.98,51.02C83.07,51.4 83.17,51.78 83.26,52.16C83.35,52.54 83.44,52.92 83.52,53.3C83.6,53.68 83.68,54.06 83.75,54.44C83.82,54.82 83.88,55.2 83.94,55.58C84,55.96 84.05,56.34 84.1,56.72C84.15,57.1 84.18,57.48 84.22,57.86C84.26,58.24 84.29,58.61 84.32,58.99C84.35,59.37 84.37,59.75 84.4,60.13C84.42,60.51 84.45,60.89 84.47,61.27C84.5,61.65 84.52,62.03 84.55,62.41C84.58,62.79 84.61,63.17 84.64,63.55C84.67,63.93 84.7,64.31 84.73,64.69C84.76,65.07 84.78,65.45 84.81,65.83C84.83,66.21 84.86,66.59 84.88,66.97C84.9,67.35 84.9,67.73 84.91,68.11C84.92,68.49 84.92,68.87 84.92,69.25C84.92,69.63 84.91,70.01 84.91,70.39C84.91,70.77 84.9,71.15 84.9,71.53C84.89,71.91 84.88,72.29 84.88,72.67C84.88,73.05 84.88,73.42 84.89,73.8C84.9,74.18 84.91,74.56 84.92,74.94C84.93,75.32 84.95,75.7 84.97,76.08C84.99,76.46 85.01,76.84 85.03,77.22C85.05,77.6 85.07,77.98 85.09,78.36C85.11,78.74 85.12,79.12 85.14,79.5C85.15,79.88 85.17,80.26 85.18,80.64C85.19,81.02 85.21,81.4 85.22,81.78C85.23,82.16 85.23,82.54 85.24,82.92C85.25,83.3 85.26,83.68 85.27,84.06C85.28,84.44 85.28,84.82 85.29,85.2C85.3,85.58 85.31,85.96 85.32,86.34C85.33,86.72 85.33,87.1 85.33,87.48C85.34,87.86 85.35,88.24 85.35,88.62C85.35,89 85.35,89.37 85.35,89.75C85.35,90.13 85.36,90.51 85.36,90.89C85.36,91.27 85.37,91.65 85.37,92.03C85.37,92.41 85.37,92.79 85.38,93.17C85.39,93.55 85.41,93.93 85.42,94.31C85.43,94.69 85.45,95.07 85.46,95.45C85.48,95.83 85.49,96.21 85.51,96.59C85.53,96.97 85.54,97.35 85.56,97.73C85.57,98.11 85.59,98.49 85.6,98.87C85.61,99.25 85.61,99.63 85.62,100.01C85.62,100.39 85.63,100.77 85.63,101.15C85.63,101.53 85.64,101.91 85.64,102.29C85.64,102.67 85.64,103.05 85.65,103.43C85.65,103.81 85.66,104.18 85.67,104.56C85.68,104.94 85.68,105.32 85.69,105.7C85.7,106.08 85.71,106.46 85.72,106.84C85.73,107.22 85.73,107.6 85.74,107.98C85.75,108.36 85.75,108.74 85.76,109.12C85.77,109.5 85.77,109.88 85.78,110.26C85.78,110.64 85.79,111.02 85.79,111.4C85.8,111.78 85.8,112.16 85.81,112.54C85.81,112.92 85.82,113.3 85.82,113.68C85.82,114.06 85.83,114.44 85.83,114.82C85.83,115.2 85.83,115.58 85.83,115.96C85.83,116.34 85.83,116.72 85.83,117.1C85.83,117.48 85.82,117.86 85.82,118.24C85.81,118.62 85.8,119 85.8,119.38C85.8,119.76 85.8,120.13 85.8,120.51C85.8,120.89 85.79,121.27 85.79,121.65C85.79,122.03 85.8,122.41 85.8,122.79C85.8,123.17 85.81,123.55 85.81,123.93C85.81,124.31 85.82,124.69 85.82,125.07C85.82,125.45 85.83,125.83 85.83,126.21C85.83,126.59 85.84,126.97 85.84,127.35C85.85,127.73 85.85,128.11 85.86,128.49C85.86,128.87 85.87,129.25 85.87,129.63C85.87,130.01 85.88,130.39 85.88,130.77C85.88,131.15 85.89,131.53 85.89,131.91C85.89,132.29 85.9,132.67 85.9,133.05C85.9,133.43 85.91,133.81 85.91,134.19C85.91,134.57 85.92,134.94 85.92,135.32C85.92,135.7 85.93,136.08 85.93,136.46C85.93,136.84 85.94,137.22 85.94,137.6C85.94,137.98 85.95,138.36 85.95,138.74C85.95,139.12 85.96,139.5 85.96,139.88C85.96,140.26 85.96,140.64 85.96,141.02C85.96,141.4 85.96,141.78 85.96,142.16C85.96,142.54 85.97,142.92 85.97,143.3C85.97,143.68 85.97,144.06 85.97,144.44C85.97,144.82 85.97,145.2 85.97,145.58C85.97,145.96 85.98,146.34 85.98,146.72C85.98,147.1 85.98,147.48 85.98,147.86C85.98,148.24 85.98,148.62 85.98,149C85.98,149.38 85.98,149.76 85.98,150.14C85.98,150.52 85.98,150.89 85.98,151.27C85.98,151.65 85.98,152.03 85.98,152.41C85.98,152.79 85.99,153.17 85.99,153.55C85.99,153.93 86,154.31 86,154.69C86.01,155.07 86.01,155.45 86.02,155.83C86.03,156.21 86.03,156.59 86.04,156.97C86.04,157.35 86.05,157.73 86.05,158.11C86.06,158.49 86.07,158.87 86.07,159.25C86.07,159.63 86.07,160.01 86.07,160.39C86.07,160.77 86.08,161.15 86.08,161.53C86.08,161.91 86.09,162.29 86.09,162.67C86.09,163.05 86.1,163.43 86.1,163.81C86.1,164.19 86.1,164.57 86.1,164.95C86.1,165.33 86.11,165.7 86.11,166.08C86.11,166.46 86.12,166.84 86.12,167.22C86.12,167.6 86.13,167.98 86.13,168.36C86.13,168.74 86.13,169.12 86.13,169.5C86.13,169.88 86.14,170.26 86.14,170.64C86.14,171.02 86.14,171.4 86.14,171.78Q86.14,172.16 86.14,172.92Z" style="vector-effect: none; stroke-width: 0.5px; stroke: rgb(0, 0, 0); stroke-opacity: 1; fill: rgb(236, 154, 86); fill-opacity: 1;"/><path class="meanline" d="M94.45232391357422,35.02H77.82767608642578" style="fill: none; vector-effect: none; stroke-width: 0.5px; stroke-dasharray: 1px, 0.5px; stroke: rgb(0, 0, 0); stroke-opacity: 1;"/></g><g class="trace violins" style="opacity: 1;"><path class="violin" d="M143.63,142.25Q143.66,139.94 143.68,138.78C143.7,137.62 143.72,136.47 143.75,135.31C143.78,134.15 143.81,133 143.84,131.84C143.87,130.68 143.9,129.53 143.93,128.37C143.96,127.21 143.99,126.06 144.01,124.9C144.03,123.74 144.05,122.59 144.06,121.43C144.07,120.27 144.08,119.12 144.09,117.96C144.1,116.8 144.1,115.65 144.11,114.49C144.12,113.33 144.12,112.18 144.13,111.02C144.14,109.87 144.16,108.71 144.18,107.56C144.2,106.4 144.23,105.25 144.26,104.09C144.29,102.93 144.33,101.78 144.37,100.62C144.41,99.46 144.45,98.31 144.49,97.15C144.53,95.99 144.58,94.84 144.62,93.68C144.67,92.52 144.71,91.37 144.76,90.21C144.81,89.05 144.86,87.9 144.91,86.74C144.97,85.58 145.02,84.43 145.09,83.27C145.16,82.11 145.24,80.96 145.33,79.8C145.42,78.64 145.53,77.49 145.65,76.33C145.78,75.17 145.91,74.01 146.08,72.86C146.25,71.7 146.45,70.54 146.68,69.39C146.91,68.23 147.17,67.07 147.45,65.92C147.74,64.76 148.06,63.6 148.39,62.45C148.73,61.29 149.1,60.14 149.46,58.98C149.82,57.82 150.21,56.67 150.56,55.51C150.91,54.36 151.26,53.2 151.56,52.04C151.86,50.89 152.13,49.74 152.37,48.58C152.61,47.43 152.8,46.27 152.98,45.11C153.16,43.95 153.3,42.8 153.46,41.64C153.62,40.48 153.75,39.32 153.93,38.17C154.12,37.01 154.32,35.85 154.57,34.7C154.82,33.54 155.12,32.38 155.42,31.23C155.73,30.07 156.09,28.92 156.4,27.76C156.7,26.61 157.04,25.45 157.25,24.29C157.45,23.14 157.64,21.98 157.64,20.82C157.64,19.66 157.54,18.49 157.28,17.35C157.02,16.18 156.57,15.01 156.05,13.88C155.51,12.7 154.81,11.55 154.1,10.41C153.37,9.24 152.53,8.1 151.74,6.94C150.95,5.78 150.12,4.64 149.38,3.47C148.66,2.33 147.94,1.17 147.34,0C146.75,-1.14 146.22,-2.3 145.79,-3.47C145.37,-4.61 145.03,-5.78 144.76,-6.94Q144.49,-8.09 144.15,-10.4L142.99,-10.4Q142.65,-8.09 142.38,-6.94C142.11,-5.78 141.77,-4.61 141.35,-3.47C140.92,-2.3 140.4,-1.14 139.81,0C139.21,1.17 138.5,2.33 137.77,3.47C137.03,4.64 136.19,5.78 135.4,6.94C134.61,8.1 133.78,9.24 133.05,10.41C132.34,11.55 131.63,12.7 131.09,13.88C130.58,15.01 130.13,16.18 129.87,17.35C129.61,18.49 129.5,19.66 129.5,20.82C129.5,21.98 129.69,23.14 129.89,24.29C130.1,25.45 130.44,26.61 130.74,27.76C131.05,28.92 131.41,30.07 131.72,31.23C132.02,32.38 132.32,33.54 132.57,34.7C132.82,35.85 133.02,37.01 133.21,38.17C133.4,39.32 133.53,40.48 133.69,41.64C133.85,42.8 133.98,43.96 134.16,45.11C134.34,46.27 134.53,47.43 134.77,48.58C135.01,49.74 135.28,50.89 135.58,52.04C135.88,53.2 136.24,54.36 136.59,55.51C136.94,56.67 137.32,57.82 137.68,58.98C138.04,60.14 138.41,61.29 138.75,62.45C139.09,63.6 139.41,64.76 139.7,65.92C139.99,67.07 140.24,68.23 140.47,69.39C140.7,70.54 140.89,71.7 141.06,72.86C141.23,74.01 141.36,75.17 141.49,76.33C141.61,77.49 141.72,78.64 141.81,79.8C141.9,80.96 141.98,82.11 142.05,83.27C142.12,84.43 142.17,85.58 142.23,86.74C142.28,87.9 142.33,89.05 142.38,90.21C142.43,91.37 142.47,92.52 142.52,93.68C142.56,94.84 142.61,95.99 142.65,97.15C142.69,98.31 142.73,99.46 142.77,100.62C142.81,101.78 142.85,102.93 142.88,104.09C142.91,105.25 142.94,106.4 142.96,107.56C142.98,108.71 143,109.87 143.01,111.02C143.02,112.18 143.03,113.33 143.04,114.49C143.05,115.65 143.04,116.8 143.05,117.96C143.06,119.12 143.07,120.27 143.08,121.43C143.09,122.59 143.11,123.74 143.13,124.9C143.15,126.06 143.18,127.21 143.21,128.37C143.24,129.53 143.27,130.68 143.3,131.84C143.33,133 143.36,134.15 143.39,135.31C143.42,136.47 143.44,137.62 143.46,138.78Q143.48,139.94 143.51,142.25Z" style="vector-effect: none; stroke-width: 0.5px; stroke: rgb(0, 0, 0); stroke-opacity: 1; fill: rgb(155, 191, 229); fill-opacity: 1;"/><path class="meanline" d="M154.35523986816406,35.75H132.78476013183592" style="fill: none; vector-effect: none; stroke-width: 0.5px; stroke-dasharray: 1px, 0.5px; stroke: rgb(0, 0, 0); stroke-opacity: 1;"/></g><g class="trace violins" style="opacity: 1;"><path class="violin" d="M201.34,71.32Q201.52,69.62 201.64,68.78C201.76,67.93 201.91,67.09 202.08,66.25C202.25,65.4 202.44,64.55 202.64,63.71C202.84,62.86 203.06,62.02 203.26,61.18C203.46,60.33 203.67,59.49 203.85,58.64C204.03,57.8 204.19,56.96 204.32,56.11C204.45,55.27 204.55,54.42 204.63,53.57C204.71,52.73 204.75,51.88 204.8,51.04C204.85,50.19 204.88,49.35 204.93,48.5C204.98,47.66 205.03,46.81 205.12,45.97C205.21,45.12 205.31,44.27 205.46,43.43C205.61,42.58 205.79,41.74 206,40.9C206.22,40.05 206.47,39.2 206.75,38.36C207.04,37.51 207.37,36.67 207.72,35.83C208.08,34.98 208.46,34.13 208.88,33.29C209.3,32.44 209.77,31.6 210.24,30.76C210.72,29.91 211.24,29.07 211.73,28.22C212.22,27.38 212.75,26.54 213.2,25.69C213.64,24.85 214.1,24.01 214.41,23.15C214.71,22.32 214.98,21.47 215.07,20.62C215.16,19.78 215.13,18.91 214.96,18.08C214.79,17.22 214.43,16.37 214.02,15.55C213.58,14.68 212.98,13.84 212.38,13.01C211.75,12.15 211.02,11.32 210.32,10.48C209.62,9.63 208.87,8.79 208.18,7.94C207.5,7.1 206.82,6.27 206.21,5.41C205.62,4.58 205.07,3.73 204.58,2.87C204.11,2.04 203.69,1.2 203.33,0.34C202.98,-0.5 202.69,-1.35 202.44,-2.2C202.19,-3.04 202,-3.88 201.83,-4.73C201.67,-5.57 201.55,-6.42 201.45,-7.27Q201.35,-8.11 201.23,-9.8L200.77,-9.8Q200.65,-8.11 200.55,-7.27C200.45,-6.42 200.33,-5.57 200.17,-4.73C200,-3.88 199.81,-3.04 199.56,-2.2C199.31,-1.35 199.02,-0.5 198.67,0.34C198.31,1.2 197.89,2.04 197.42,2.87C196.93,3.73 196.38,4.58 195.79,5.41C195.18,6.27 194.5,7.1 193.82,7.94C193.13,8.79 192.38,9.63 191.68,10.48C190.98,11.32 190.25,12.15 189.62,13.01C189.02,13.84 188.42,14.68 187.98,15.55C187.57,16.37 187.21,17.22 187.04,18.08C186.87,18.91 186.84,19.78 186.93,20.62C187.02,21.47 187.29,22.32 187.59,23.15C187.9,24.01 188.36,24.85 188.8,25.69C189.25,26.54 189.78,27.38 190.27,28.22C190.76,29.07 191.28,29.91 191.76,30.76C192.23,31.6 192.7,32.44 193.12,33.29C193.54,34.13 193.92,34.98 194.28,35.83C194.63,36.67 194.96,37.51 195.25,38.36C195.53,39.2 195.78,40.05 196,40.9C196.21,41.74 196.39,42.58 196.54,43.43C196.69,44.27 196.79,45.12 196.88,45.97C196.97,46.81 197.02,47.66 197.07,48.5C197.12,49.35 197.15,50.19 197.2,51.04C197.25,51.88 197.29,52.73 197.37,53.57C197.45,54.42 197.55,55.27 197.68,56.11C197.81,56.96 197.97,57.8 198.15,58.64C198.33,59.49 198.54,60.33 198.74,61.18C198.94,62.02 199.16,62.86 199.36,63.71C199.56,64.55 199.75,65.4 199.92,66.25C200.09,67.09 200.24,67.93 200.36,68.78Q200.48,69.62 200.66,71.32Z" style="vector-effect: none; stroke-width: 0.5px; stroke: rgb(0, 0, 0); stroke-opacity: 1; fill: rgb(138, 165, 61); fill-opacity: 1;"/><path class="meanline" d="M212.78363037109375,26.44H189.21636962890625" style="fill: none; vector-effect: none; stroke-width: 0.5px; stroke-dasharray: 1px, 0.5px; stroke: rgb(0, 0, 0); stroke-opacity: 1;"/></g><g class="trace violins" style="opacity: 1;"><path class="violin" d="M258.57,122.08Q258.64,120.15 258.69,119.18C258.74,118.21 258.8,117.24 258.88,116.27C258.95,115.3 259.05,114.34 259.14,113.37C259.23,112.4 259.34,111.44 259.44,110.47C259.54,109.5 259.64,108.54 259.73,107.57C259.82,106.6 259.9,105.64 259.96,104.67C260.02,103.7 260.06,102.74 260.07,101.77C260.08,100.8 260.06,99.84 260.03,98.87C260,97.9 259.93,96.94 259.86,95.97C259.79,95 259.69,94.03 259.59,93.06C259.5,92.09 259.39,91.13 259.29,90.16C259.19,89.19 259.09,88.23 259.01,87.26C258.93,86.29 258.86,85.33 258.8,84.36C258.74,83.39 258.69,82.43 258.66,81.46C258.63,80.49 258.61,79.53 258.61,78.56C258.61,77.59 258.63,76.63 258.66,75.66C258.69,74.69 258.73,73.72 258.8,72.75C258.87,71.78 258.96,70.82 259.07,69.85C259.18,68.88 259.32,67.92 259.47,66.95C259.62,65.98 259.8,65.02 259.99,64.05C260.18,63.08 260.39,62.12 260.61,61.15C260.83,60.18 261.06,59.21 261.31,58.25C261.56,57.28 261.81,56.31 262.1,55.35C262.39,54.38 262.69,53.4 263.03,52.44C263.37,51.47 263.74,50.5 264.15,49.54C264.56,48.57 265.02,47.6 265.5,46.64C265.98,45.67 266.52,44.7 267.04,43.74C267.56,42.77 268.12,41.81 268.64,40.84C269.15,39.88 269.68,38.92 270.13,37.94C270.57,36.98 270.99,36.02 271.33,35.04C271.66,34.08 271.93,33.11 272.13,32.14C272.32,31.18 272.45,30.2 272.5,29.23C272.55,28.26 272.54,27.29 272.46,26.33C272.38,25.36 272.24,24.39 272.04,23.43C271.83,22.46 271.55,21.49 271.22,20.53C270.88,19.55 270.48,18.59 270.03,17.63C269.57,16.65 269.03,15.69 268.48,14.73C267.92,13.75 267.28,12.79 266.67,11.83C266.05,10.86 265.4,9.89 264.78,8.92C264.17,7.96 263.55,7 262.99,6.02C262.44,5.06 261.92,4.1 261.47,3.12C261.03,2.16 260.63,1.2 260.3,0.22C259.97,-0.74 259.71,-1.71 259.49,-2.68C259.27,-3.64 259.11,-4.61 258.98,-5.58Q258.85,-6.54 258.69,-8.48L258.17,-8.48Q258.01,-6.54 257.88,-5.58C257.75,-4.61 257.59,-3.64 257.37,-2.68C257.15,-1.71 256.89,-0.74 256.56,0.22C256.23,1.2 255.83,2.16 255.39,3.12C254.94,4.1 254.41,5.06 253.86,6.02C253.3,7 252.68,7.96 252.07,8.92C251.45,9.89 250.8,10.86 250.18,11.83C249.57,12.79 248.94,13.75 248.38,14.73C247.83,15.69 247.29,16.65 246.83,17.63C246.38,18.59 245.97,19.55 245.63,20.53C245.3,21.49 245.03,22.46 244.82,23.43C244.62,24.39 244.48,25.36 244.4,26.33C244.32,27.29 244.31,28.26 244.36,29.23C244.41,30.2 244.54,31.18 244.73,32.14C244.93,33.11 245.2,34.08 245.53,35.04C245.87,36.02 246.29,36.98 246.73,37.94C247.18,38.92 247.7,39.88 248.21,40.84C248.73,41.81 249.29,42.77 249.82,43.74C250.34,44.7 250.88,45.67 251.36,46.64C251.84,47.6 252.3,48.57 252.71,49.54C253.12,50.5 253.49,51.47 253.83,52.44C254.17,53.4 254.47,54.38 254.76,55.35C255.05,56.31 255.3,57.28 255.55,58.25C255.8,59.21 256.03,60.18 256.25,61.15C256.47,62.12 256.68,63.08 256.87,64.05C257.06,65.02 257.24,65.98 257.39,66.95C257.54,67.92 257.67,68.88 257.78,69.85C257.89,70.82 257.98,71.78 258.05,72.75C258.12,73.72 258.17,74.69 258.2,75.66C258.23,76.63 258.25,77.59 258.25,78.56C258.25,79.53 258.23,80.49 258.2,81.46C258.17,82.43 258.12,83.39 258.06,84.36C258,85.33 257.92,86.29 257.84,87.26C257.76,88.23 257.66,89.19 257.56,90.16C257.46,91.13 257.35,92.09 257.26,93.06C257.17,94.03 257.07,95 257,95.97C256.93,96.94 256.85,97.9 256.82,98.87C256.79,99.84 256.78,100.8 256.79,101.77C256.8,102.74 256.84,103.7 256.9,104.67C256.96,105.64 257.04,106.6 257.13,107.57C257.22,108.54 257.32,109.5 257.42,110.47C257.52,111.44 257.63,112.4 257.72,113.37C257.81,114.34 257.9,115.3 257.97,116.27C258.04,117.24 258.11,118.21 258.16,119.18Q258.21,120.15 258.29,122.08Z" style="vector-effect: none; stroke-width: 0.5px; stroke: rgb(0, 0, 0); stroke-opacity: 1; fill: rgb(186, 105, 190); fill-opacity: 1;"/><path class="meanline" d="M271.4894714355469,34.56H245.37052856445314" style="fill: none; vector-effect: none; stroke-width: 0.5px; stroke-dasharray: 1px, 0.5px; stroke: rgb(0, 0, 0); stroke-opacity: 1;"/></g><g class="trace violins" style="opacity: 1;"><path class="violin" d="M315.98,81.28Q316.05,79.79 316.09,79.05C316.13,78.3 316.18,77.56 316.24,76.81C316.3,76.07 316.37,75.32 316.44,74.58C316.51,73.83 316.58,73.09 316.65,72.34C316.72,71.6 316.79,70.85 316.86,70.11C316.93,69.36 316.99,68.62 317.06,67.87C317.13,67.13 317.19,66.38 317.26,65.64C317.33,64.9 317.4,64.15 317.5,63.41C317.6,62.66 317.72,61.91 317.85,61.17C317.98,60.42 318.13,59.68 318.3,58.94C318.47,58.19 318.67,57.45 318.85,56.7C319.03,55.96 319.23,55.22 319.4,54.47C319.57,53.73 319.74,52.98 319.87,52.23C320,51.49 320.1,50.75 320.17,50C320.24,49.26 320.28,48.51 320.31,47.76C320.34,47.02 320.32,46.27 320.34,45.53C320.36,44.79 320.36,44.04 320.42,43.3C320.48,42.55 320.54,41.8 320.68,41.06C320.82,40.31 321,39.57 321.24,38.83C321.49,38.08 321.81,37.33 322.16,36.59C322.52,35.84 322.94,35.1 323.38,34.36C323.83,33.61 324.33,32.86 324.83,32.12C325.33,31.37 325.87,30.64 326.37,29.89C326.87,29.15 327.38,28.41 327.83,27.66C328.27,26.92 328.71,26.18 329.04,25.42C329.36,24.69 329.65,23.94 329.8,23.19C329.94,22.45 330.01,21.69 329.93,20.95C329.85,20.2 329.62,19.44 329.31,18.72C328.98,17.95 328.5,17.2 327.98,16.48C327.43,15.71 326.75,14.98 326.09,14.25C325.41,13.49 324.66,12.76 323.95,12.01C323.25,11.27 322.51,10.54 321.85,9.78C321.21,9.05 320.58,8.31 320.03,7.55C319.5,6.82 319.02,6.07 318.61,5.31C318.21,4.58 317.87,3.83 317.58,3.08C317.3,2.34 317.07,1.59 316.88,0.84C316.69,0.1 316.56,-0.64 316.44,-1.39C316.32,-2.13 316.24,-2.88 316.17,-3.63Q316.1,-4.37 316.01,-5.86L315.7,-5.86Q315.62,-4.37 315.55,-3.63C315.48,-2.88 315.4,-2.13 315.28,-1.39C315.16,-0.64 315.02,0.1 314.83,0.84C314.64,1.59 314.42,2.34 314.14,3.08C313.85,3.83 313.51,4.58 313.11,5.31C312.69,6.07 312.21,6.82 311.68,7.55C311.13,8.31 310.51,9.05 309.87,9.78C309.21,10.54 308.48,11.27 307.77,12.01C307.06,12.76 306.3,13.49 305.62,14.25C304.96,14.98 304.29,15.71 303.74,16.48C303.22,17.21 302.73,17.95 302.4,18.72C302.09,19.44 301.87,20.2 301.79,20.95C301.71,21.69 301.78,22.45 301.92,23.19C302.07,23.94 302.36,24.69 302.68,25.42C303.01,26.18 303.44,26.92 303.88,27.66C304.33,28.41 304.85,29.15 305.35,29.89C305.85,30.64 306.38,31.37 306.88,32.12C307.37,32.86 307.88,33.61 308.33,34.36C308.77,35.1 309.2,35.84 309.56,36.59C309.91,37.33 310.22,38.08 310.47,38.83C310.71,39.57 310.9,40.31 311.04,41.06C311.18,41.8 311.25,42.55 311.3,43.3C311.35,44.04 311.35,44.79 311.37,45.53C311.39,46.27 311.38,47.02 311.41,47.76C311.44,48.51 311.47,49.26 311.54,50C311.61,50.75 311.72,51.49 311.85,52.23C311.98,52.98 312.14,53.73 312.31,54.47C312.48,55.22 312.69,55.96 312.87,56.7C313.05,57.45 313.24,58.19 313.41,58.94C313.58,59.68 313.74,60.42 313.87,61.17C314,61.91 314.11,62.66 314.21,63.41C314.31,64.15 314.38,64.9 314.46,65.64C314.53,66.38 314.6,67.13 314.66,67.87C314.73,68.62 314.78,69.36 314.85,70.11C314.92,70.85 314.99,71.6 315.06,72.34C315.13,73.09 315.21,73.83 315.28,74.58C315.35,75.32 315.41,76.07 315.47,76.81C315.53,77.56 315.58,78.3 315.62,79.05Q315.66,79.79 315.73,81.28Z" style="vector-effect: none; stroke-width: 0.5px; stroke: rgb(0, 0, 0); stroke-opacity: 1; fill: rgb(185, 178, 194); fill-opacity: 1;"/><path class="meanline" d="M326.8505554199219,29.18H304.86944458007815" style="fill: none; vector-effect: none; stroke-width: 0.5px; stroke-dasharray: 1px, 0.5px; stroke: rgb(0, 0, 0); stroke-opacity: 1;"/></g><g class="trace violins" style="opacity: 1;"><path class="violin" d="M373.5,59.14Q373.62,57.98 373.71,57.4C373.8,56.82 373.9,56.24 374.02,55.67C374.14,55.09 374.29,54.52 374.44,53.94C374.59,53.36 374.77,52.78 374.93,52.2C375.09,51.62 375.27,51.05 375.42,50.47C375.57,49.89 375.72,49.32 375.84,48.74C375.96,48.16 376.06,47.58 376.14,47C376.22,46.42 376.27,45.85 376.33,45.27C376.39,44.69 376.42,44.12 376.48,43.54C376.54,42.96 376.59,42.38 376.67,41.8C376.75,41.22 376.85,40.64 376.97,40.07C377.09,39.49 377.23,38.91 377.4,38.34C377.57,37.76 377.76,37.18 377.97,36.61C378.19,36.03 378.43,35.44 378.69,34.87C378.96,34.29 379.25,33.71 379.57,33.14C379.9,32.56 380.26,31.98 380.64,31.41C381.03,30.82 381.45,30.25 381.88,29.67C382.31,29.09 382.77,28.52 383.21,27.94C383.65,27.36 384.1,26.79 384.51,26.21C384.91,25.64 385.29,25.06 385.63,24.47C385.95,23.9 386.26,23.33 386.5,22.74C386.73,22.17 386.93,21.59 387.07,21.01C387.21,20.44 387.31,19.85 387.36,19.27C387.41,18.69 387.4,18.11 387.35,17.54C387.3,16.96 387.19,16.38 387.03,15.81C386.86,15.22 386.62,14.65 386.34,14.08C386.05,13.49 385.69,12.91 385.29,12.34C384.88,11.75 384.39,11.18 383.9,10.61C383.39,10.02 382.83,9.45 382.27,8.88C381.7,8.3 381.11,7.72 380.53,7.14C379.96,6.56 379.37,5.99 378.82,5.41C378.28,4.84 377.74,4.27 377.26,3.68C376.79,3.11 376.35,2.53 375.96,1.94C375.59,1.37 375.25,0.8 374.96,0.21C374.68,-0.36 374.44,-0.94 374.25,-1.52C374.06,-2.09 373.92,-2.68 373.8,-3.26Q373.68,-3.83 373.53,-4.99L373.04,-4.99Q372.89,-3.83 372.77,-3.26C372.65,-2.68 372.51,-2.09 372.32,-1.52C372.13,-0.94 371.89,-0.36 371.61,0.21C371.32,0.8 370.98,1.37 370.61,1.94C370.22,2.53 369.78,3.11 369.31,3.68C368.83,4.27 368.29,4.84 367.75,5.41C367.2,5.99 366.61,6.56 366.04,7.14C365.46,7.72 364.87,8.3 364.3,8.88C363.74,9.45 363.18,10.02 362.67,10.61C362.18,11.18 361.69,11.75 361.28,12.34C360.88,12.91 360.52,13.49 360.23,14.08C359.95,14.65 359.72,15.23 359.55,15.81C359.39,16.38 359.27,16.96 359.22,17.54C359.17,18.11 359.17,18.69 359.22,19.27C359.27,19.85 359.36,20.44 359.5,21.01C359.64,21.59 359.84,22.17 360.07,22.74C360.31,23.33 360.62,23.9 360.94,24.47C361.28,25.06 361.66,25.64 362.06,26.21C362.47,26.79 362.92,27.36 363.36,27.94C363.8,28.52 364.26,29.09 364.69,29.67C365.12,30.25 365.55,30.82 365.94,31.41C366.32,31.98 366.67,32.56 367,33.14C367.32,33.71 367.61,34.29 367.88,34.87C368.14,35.44 368.38,36.03 368.6,36.61C368.81,37.18 369,37.76 369.17,38.34C369.34,38.91 369.49,39.49 369.61,40.07C369.73,40.64 369.82,41.22 369.9,41.8C369.98,42.38 370.03,42.96 370.09,43.54C370.15,44.12 370.18,44.69 370.24,45.27C370.3,45.85 370.35,46.42 370.43,47C370.51,47.58 370.61,48.16 370.73,48.74C370.85,49.32 371,49.89 371.15,50.47C371.3,51.05 371.48,51.62 371.64,52.2C371.8,52.78 371.98,53.36 372.13,53.94C372.28,54.52 372.43,55.09 372.55,55.67C372.67,56.24 372.77,56.82 372.86,57.4Q372.95,57.98 373.07,59.14Z" style="vector-effect: none; stroke-width: 0.5px; stroke: rgb(0, 0, 0); stroke-opacity: 1; fill: rgb(181, 174, 112); fill-opacity: 1;"/><path class="meanline" d="M386.61419677734375,22.45H359.9658032226563" style="fill: none; vector-effect: none; stroke-width: 0.5px; stroke-dasharray: 1px, 0.5px; stroke: rgb(0, 0, 0); stroke-opacity: 1;"/></g></g></g><g class="overplot"/><path class="xlines-above crisp" d="M52.5,221.25H455" style="fill: none; stroke-width: 0.5px; stroke: rgb(0, 0, 0); stroke-opacity: 1;"/><path class="ylines-above crisp" d="M52.75,20V221" style="fill: none; stroke-width: 0.5px; stroke: rgb(0, 0, 0); stroke-opacity: 1;"/><g class="overlines-above"/><g class="xaxislayer-above"><path class="xtick ticks crisp" d="M0,221.5v5" transform="translate(81.71000000000001,0)" style="stroke: rgb(68, 68, 68); stroke-opacity: 1; stroke-width: 0.5px;"/><path class="xtick ticks crisp" d="M0,221.5v5" transform="translate(139.14,0)" style="stroke: rgb(68, 68, 68); stroke-opacity: 1; stroke-width: 0.5px;"/><path class="xtick ticks crisp" d="M0,221.5v5" transform="translate(196.57,0)" style="stroke: rgb(68, 68, 68); stroke-opacity: 1; stroke-width: 0.5px;"/><path class="xtick ticks crisp" d="M0,221.5v5" transform="translate(254,0)" style="stroke: rgb(68, 68, 68); stroke-opacity: 1; stroke-width: 0.5px;"/><path class="xtick ticks crisp" d="M0,221.5v5" transform="translate(311.43,0)" style="stroke: rgb(68, 68, 68); stroke-opacity: 1; stroke-width: 0.5px;"/><path class="xtick ticks crisp" d="M0,221.5v5" transform="translate(368.86,0)" style="stroke: rgb(68, 68, 68); stroke-opacity: 1; stroke-width: 0.5px;"/><path class="xtick ticks crisp" d="M0,221.5v5" transform="translate(426.29,0)" style="stroke: rgb(68, 68, 68); stroke-opacity: 1; stroke-width: 0.5px;"/><g class="xtick"><text text-anchor="start" x="0" y="240.9" transform="translate(81.71000000000001,0) rotate(30,0,234.9)" style="font-family: Helvetica; font-size: 12px; fill: rgb(0, 0, 0); fill-opacity: 1; white-space: pre; opacity: 1;">canonical (t/d)</text></g><g class="xtick"><text text-anchor="start" x="0" y="240.9" transform="translate(139.14,0) rotate(30,0,234.9)" style="font-family: Helvetica; font-size: 12px; fill: rgb(0, 0, 0); fill-opacity: 1; white-space: pre; opacity: 1;">canonical (PISCES)</text></g><g class="xtick"><text text-anchor="start" x="0" y="240.9" transform="translate(196.57,0) rotate(30,0,234.9)" style="font-family: Helvetica; font-size: 12px; fill: rgb(0, 0, 0); fill-opacity: 1; white-space: pre; opacity: 1;">spliced</text></g><g class="xtick"><text text-anchor="start" x="0" y="240.9" transform="translate(254,0) rotate(30,0,234.9)" style="font-family: Helvetica; font-size: 12px; fill: rgb(0, 0, 0); fill-opacity: 1; white-space: pre; opacity: 1;">multimapped</text></g><g class="xtick"><text text-anchor="start" x="0" y="240.9" transform="translate(311.43,0) rotate(30,0,234.9)" style="font-family: Helvetica; font-size: 12px; fill: rgb(0, 0, 0); fill-opacity: 1; white-space: pre; opacity: 1;">cryptic</text></g><g class="xtick"><text text-anchor="start" x="0" y="240.9" transform="translate(368.86,0) rotate(30,0,234.9)" style="font-family: Helvetica; font-size: 12px; fill: rgb(0, 0, 0); fill-opacity: 1; white-space: pre; opacity: 1;">unmapped</text></g><g class="xtick"><text text-anchor="start" x="0" y="240.9" transform="translate(426.29,0) rotate(30,0,234.9)" style="font-family: Helvetica; font-size: 12px; fill: rgb(0, 0, 0); fill-opacity: 1; white-space: pre; opacity: 1;">contaminants</text></g></g><g class="yaxislayer-above"><path class="ytick ticks crisp" d="M52.5,0h-5" transform="translate(0,221)" style="stroke: rgb(68, 68, 68); stroke-opacity: 1; stroke-width: 0.5px;"/><path class="ytick ticks crisp" d="M52.5,0h-5" transform="translate(0,180.8)" style="stroke: rgb(68, 68, 68); stroke-opacity: 1; stroke-width: 0.5px;"/><path class="ytick ticks crisp" d="M52.5,0h-5" transform="translate(0,140.6)" style="stroke: rgb(68, 68, 68); stroke-opacity: 1; stroke-width: 0.5px;"/><path class="ytick ticks crisp" d="M52.5,0h-5" transform="translate(0,100.4)" style="stroke: rgb(68, 68, 68); stroke-opacity: 1; stroke-width: 0.5px;"/><path class="ytick ticks crisp" d="M52.5,0h-5" transform="translate(0,60.2)" style="stroke: rgb(68, 68, 68); stroke-opacity: 1; stroke-width: 0.5px;"/><path class="ytick ticks crisp" d="M52.5,0h-5" transform="translate(0,20)" style="stroke: rgb(68, 68, 68); stroke-opacity: 1; stroke-width: 0.5px;"/><g class="ytick"><text text-anchor="end" x="45.1" y="4.199999999999999" transform="translate(0,221)" style="font-family: Helvetica; font-size: 12px; fill: rgb(0, 0, 0); fill-opacity: 1; white-space: pre; opacity: 1;">0</text></g><g class="ytick"><text text-anchor="end" x="45.1" y="4.199999999999999" style="font-family: Helvetica; font-size: 12px; fill: rgb(0, 0, 0); fill-opacity: 1; white-space: pre; opacity: 1;" transform="translate(0,180.8)">0.2</text></g><g class="ytick"><text text-anchor="end" x="45.1" y="4.199999999999999" style="font-family: Helvetica; font-size: 12px; fill: rgb(0, 0, 0); fill-opacity: 1; white-space: pre; opacity: 1;" transform="translate(0,140.6)">0.4</text></g><g class="ytick"><text text-anchor="end" x="45.1" y="4.199999999999999" style="font-family: Helvetica; font-size: 12px; fill: rgb(0, 0, 0); fill-opacity: 1; white-space: pre; opacity: 1;" transform="translate(0,100.4)">0.6</text></g><g class="ytick"><text text-anchor="end" x="45.1" y="4.199999999999999" style="font-family: Helvetica; font-size: 12px; fill: rgb(0, 0, 0); fill-opacity: 1; white-space: pre; opacity: 1;" transform="translate(0,60.2)">0.8</text></g><g class="ytick"><text text-anchor="end" x="45.1" y="4.199999999999999" style="font-family: Helvetica; font-size: 12px; fill: rgb(0, 0, 0); fill-opacity: 1; white-space: pre; opacity: 1;" transform="translate(0,20)">1</text></g></g><g class="overaxes-above"/></g></g><g class="polarlayer"/><g class="smithlayer"/><g class="ternarylayer"/><g class="geolayer"/><g class="funnelarealayer"/><g class="pielayer"/><g class="iciclelayer"/><g class="treemaplayer"/><g class="sunburstlayer"/><g class="glimages"/><defs id="topdefs-68d3fb"><g class="clips"/></defs><g class="layer-above"><g class="imagelayer"/><g class="shapelayer"/></g><g class="infolayer"><g class="g-gtitle"/><g class="g-xtitle"/><g class="g-ytitle" transform="translate(12.4560546875,0)"><text class="ytitle" transform="rotate(-90,0.5437500000000028,120.5)" x="0.5437500000000028" y="120.5" text-anchor="middle" style="font-family: Helvetica; font-size: 14px; fill: rgb(0, 0, 0); opacity: 1; font-weight: normal; white-space: pre;">Spectral Angle</text></g></g></svg>