<svg class="main-svg" xmlns="http://www.w3.org/2000/svg" xmlns:xlink="http://www.w3.org/1999/xlink" width="500" height="300" style="" viewBox="0 0 500 300"><rect x="0" y="0" width="500" height="300" style="fill: rgb(255, 255, 255); fill-opacity: 1;"/><defs id="defs-265028"><g class="clips"><clipPath id="clip265028xyplot" class="plotclip"><rect width="402" height="201"/></clipPath><clipPath class="axesclip" id="clip265028x"><rect x="53" y="0" width="402" height="300"/></clipPath><clipPath class="axesclip" id="clip265028y"><rect x="0" y="20" width="500" height="201"/></clipPath><clipPath class="axesclip" id="clip265028xy"><rect x="53" y="20" width="402" height="201"/></clipPath></g><g class="gradients"/><g class="patterns"/></defs><g class="bglayer"><rect class="bg" x="53" y="20" width="402" height="201" style="fill: rgb(0, 0, 0); fill-opacity: 0; stroke-width: 0;"/></g><g class="layer-below"><g class="imagelayer"/><g class="shapelayer"/></g><g class="cartesianlayer"><g class="subplot xy"><g class="layer-subplot"><g class="shapelayer"/><g class="imagelayer"/></g><g class="minor-gridlayer"><g class="x"/><g class="y"/></g><g class="gridlayer"><g class="x"/><g class="y"/></g><g class="zerolinelayer"/><path class="xlines-below"/><path class="ylines-below"/><g class="overlines-below"/><g class="xaxislayer-below"/><g class="yaxislayer-below"/><g class="overaxes-below"/><g class="plot" transform="translate(53,20)" clip-path="url(#clip265028xyplot)"><g class="violinlayer mlayer"><g class="trace violins" style="opacity: 1;"><path class="violin" d="M28.72,186.46Q28.72,185.49 28.72,185.01C28.72,184.53 28.73,184.05 28.73,183.57C28.73,183.09 28.74,182.6 28.74,182.12C28.74,181.64 28.75,181.16 28.75,180.68C28.75,180.2 28.76,179.72 28.76,179.24C28.77,178.76 28.77,178.27 28.78,177.79C28.79,177.31 28.79,176.83 28.8,176.35C28.81,175.87 28.81,175.38 28.82,174.9C28.83,174.42 28.84,173.94 28.84,173.46C28.85,172.98 28.85,172.49 28.85,172.01C28.85,171.53 28.86,171.05 28.86,170.57C28.87,170.09 28.87,169.6 28.88,169.12C28.89,168.64 28.89,168.16 28.9,167.68C28.91,167.2 28.91,166.72 28.92,166.24C28.93,165.76 28.93,165.27 28.94,164.79C28.95,164.31 28.96,163.83 28.97,163.35C28.98,162.87 28.98,162.38 28.99,161.9C29,161.42 29.01,160.94 29.02,160.46C29.03,159.98 29.03,159.49 29.04,159.01C29.05,158.53 29.05,158.05 29.06,157.57C29.07,157.09 29.08,156.6 29.09,156.12C29.1,155.64 29.1,155.16 29.11,154.68C29.12,154.2 29.12,153.72 29.13,153.24C29.14,152.76 29.14,152.27 29.15,151.79C29.15,151.31 29.16,150.83 29.16,150.35C29.16,149.87 29.16,149.38 29.16,148.9C29.16,148.42 29.17,147.94 29.17,147.46C29.18,146.98 29.18,146.49 29.19,146.01C29.19,145.53 29.2,145.05 29.2,144.57C29.21,144.09 29.21,143.6 29.22,143.12C29.23,142.64 29.23,142.16 29.24,141.68C29.25,141.2 29.25,140.71 29.26,140.23C29.27,139.75 29.27,139.27 29.28,138.79C29.28,138.31 29.29,137.83 29.29,137.35C29.29,136.87 29.29,136.38 29.3,135.9C29.3,135.42 29.31,134.94 29.32,134.46C29.33,133.98 29.33,133.49 29.34,133.01C29.35,132.53 29.35,132.05 29.36,131.57C29.37,131.09 29.38,130.6 29.39,130.12C29.4,129.64 29.41,129.16 29.42,128.68C29.43,128.2 29.45,127.71 29.46,127.23C29.47,126.75 29.48,126.27 29.49,125.79C29.5,125.31 29.51,124.83 29.52,124.35C29.53,123.87 29.53,123.38 29.54,122.9C29.54,122.42 29.55,121.94 29.55,121.46C29.55,120.98 29.55,120.49 29.56,120.01C29.56,119.53 29.57,119.05 29.58,118.57C29.59,118.09 29.59,117.6 29.6,117.12C29.61,116.64 29.62,116.16 29.63,115.68C29.64,115.2 29.65,114.71 29.67,114.23C29.69,113.75 29.71,113.27 29.73,112.79C29.75,112.31 29.76,111.83 29.78,111.35C29.8,110.87 29.82,110.38 29.84,109.9C29.86,109.42 29.87,108.94 29.89,108.46C29.91,107.98 29.92,107.49 29.94,107.01C29.95,106.53 29.97,106.05 29.98,105.57C29.99,105.09 30,104.6 30.01,104.12C30.02,103.64 30.03,103.16 30.04,102.68C30.05,102.2 30.05,101.71 30.06,101.23C30.07,100.75 30.07,100.27 30.08,99.79C30.08,99.31 30.08,98.83 30.09,98.35C30.1,97.87 30.11,97.38 30.12,96.9C30.13,96.42 30.15,95.94 30.17,95.46C30.19,94.98 30.21,94.49 30.24,94.01C30.27,93.53 30.3,93.05 30.33,92.57C30.36,92.09 30.39,91.6 30.43,91.12C30.47,90.64 30.51,90.16 30.55,89.68C30.59,89.2 30.63,88.71 30.67,88.23C30.71,87.75 30.76,87.27 30.8,86.79C30.85,86.31 30.89,85.83 30.94,85.35C30.99,84.87 31.04,84.38 31.1,83.9C31.16,83.42 31.22,82.94 31.28,82.46C31.34,81.98 31.4,81.49 31.46,81.01C31.52,80.53 31.59,80.05 31.65,79.57C31.71,79.09 31.78,78.6 31.84,78.12C31.9,77.64 31.96,77.16 32.02,76.68C32.08,76.2 32.13,75.71 32.19,75.23C32.25,74.75 32.31,74.27 32.37,73.79C32.43,73.31 32.49,72.83 32.56,72.35C32.63,71.87 32.7,71.38 32.78,70.9C32.86,70.42 32.95,69.94 33.03,69.46C33.12,68.98 33.2,68.49 33.29,68.01C33.38,67.53 33.48,67.05 33.57,66.57C33.66,66.09 33.74,65.6 33.83,65.12C33.91,64.64 34,64.16 34.08,63.68C34.16,63.2 34.23,62.71 34.3,62.23C34.37,61.75 34.43,61.27 34.5,60.79C34.57,60.31 34.63,59.83 34.7,59.35C34.77,58.87 34.84,58.38 34.92,57.9C35,57.42 35.08,56.94 35.17,56.46C35.26,55.98 35.35,55.49 35.45,55.01C35.55,54.53 35.65,54.05 35.76,53.57C35.87,53.09 35.98,52.6 36.1,52.12C36.22,51.64 36.34,51.16 36.46,50.68C36.59,50.2 36.72,49.71 36.85,49.23C36.98,48.75 37.12,48.27 37.26,47.79C37.4,47.31 37.55,46.83 37.71,46.35C37.87,45.87 38.03,45.38 38.2,44.9C38.37,44.42 38.54,43.94 38.72,43.46C38.9,42.98 39.09,42.49 39.27,42.01C39.45,41.53 39.63,41.05 39.81,40.57C39.99,40.09 40.17,39.6 40.34,39.12C40.51,38.64 40.67,38.16 40.83,37.68C40.99,37.2 41.14,36.71 41.28,36.23C41.42,35.75 41.56,35.27 41.69,34.79C41.82,34.31 41.93,33.83 42.04,33.35C42.15,32.87 42.24,32.38 42.33,31.9C42.41,31.42 42.49,30.94 42.55,30.46C42.61,29.98 42.66,29.49 42.7,29.01C42.74,28.53 42.77,28.05 42.78,27.57C42.79,27.09 42.79,26.6 42.78,26.12C42.77,25.64 42.74,25.16 42.7,24.68C42.66,24.2 42.6,23.71 42.52,23.23C42.44,22.75 42.33,22.27 42.21,21.79C42.09,21.31 41.95,20.83 41.78,20.35C41.61,19.86 41.42,19.38 41.2,18.9C40.98,18.41 40.73,17.94 40.46,17.46C40.18,16.97 39.88,16.49 39.56,16.01C39.23,15.52 38.86,15.05 38.49,14.57C38.11,14.08 37.71,13.6 37.3,13.12C36.89,12.64 36.45,12.16 36.03,11.68C35.6,11.2 35.17,10.71 34.75,10.23C34.33,9.75 33.91,9.28 33.51,8.79C33.12,8.31 32.73,7.83 32.37,7.34C32.02,6.87 31.69,6.39 31.39,5.9C31.1,5.43 30.82,4.95 30.58,4.46C30.34,3.98 30.12,3.5 29.94,3.01C29.76,2.53 29.61,2.05 29.48,1.57C29.35,1.09 29.25,0.6 29.16,0.12C29.07,-0.36 29.01,-0.84 28.96,-1.32C28.91,-1.8 28.87,-2.29 28.84,-2.77C28.81,-3.25 28.79,-3.73 28.77,-4.21Q28.75,-4.69 28.74,-5.66L28.69,-5.66Q28.68,-4.69 28.66,-4.21C28.64,-3.73 28.62,-3.25 28.59,-2.77C28.56,-2.29 28.52,-1.8 28.47,-1.32C28.42,-0.84 28.36,-0.36 28.27,0.12C28.18,0.6 28.08,1.09 27.95,1.57C27.82,2.05 27.67,2.53 27.49,3.01C27.31,3.5 27.09,3.98 26.85,4.46C26.61,4.95 26.34,5.43 26.04,5.9C25.74,6.39 25.4,6.86 25.05,7.34C24.69,7.83 24.31,8.31 23.92,8.79C23.52,9.28 23.1,9.75 22.68,10.23C22.26,10.71 21.82,11.2 21.39,11.68C20.97,12.16 20.54,12.64 20.13,13.12C19.72,13.6 19.32,14.08 18.94,14.57C18.57,15.05 18.2,15.52 17.87,16.01C17.55,16.49 17.25,16.97 16.97,17.46C16.7,17.94 16.45,18.41 16.23,18.9C16.01,19.38 15.82,19.86 15.65,20.35C15.48,20.83 15.33,21.31 15.21,21.79C15.09,22.27 14.99,22.75 14.91,23.23C14.83,23.71 14.78,24.2 14.73,24.68C14.69,25.16 14.65,25.64 14.64,26.12C14.63,26.6 14.64,27.09 14.65,27.57C14.66,28.05 14.68,28.53 14.72,29.01C14.76,29.49 14.82,29.98 14.88,30.46C14.94,30.94 15.02,31.42 15.1,31.9C15.19,32.38 15.28,32.87 15.39,33.35C15.5,33.83 15.61,34.31 15.74,34.79C15.87,35.27 16.01,35.75 16.15,36.23C16.29,36.71 16.44,37.2 16.6,37.68C16.76,38.16 16.92,38.64 17.09,39.12C17.26,39.6 17.44,40.09 17.62,40.57C17.8,41.05 17.98,41.53 18.16,42.01C18.34,42.49 18.52,42.98 18.7,43.46C18.88,43.94 19.06,44.42 19.23,44.9C19.4,45.38 19.56,45.87 19.72,46.35C19.88,46.83 20.03,47.31 20.17,47.79C20.31,48.27 20.45,48.75 20.58,49.23C20.71,49.71 20.84,50.2 20.97,50.68C21.09,51.16 21.21,51.64 21.33,52.12C21.45,52.6 21.56,53.09 21.67,53.57C21.78,54.05 21.88,54.53 21.98,55.01C22.08,55.49 22.17,55.98 22.26,56.46C22.35,56.94 22.43,57.42 22.51,57.9C22.59,58.38 22.66,58.87 22.73,59.35C22.8,59.83 22.86,60.31 22.93,60.79C23,61.27 23.06,61.75 23.13,62.23C23.2,62.71 23.27,63.2 23.35,63.68C23.43,64.16 23.51,64.64 23.59,65.12C23.68,65.6 23.77,66.09 23.86,66.57C23.95,67.05 24.04,67.53 24.13,68.01C24.22,68.49 24.31,68.98 24.4,69.46C24.49,69.94 24.57,70.42 24.65,70.9C24.73,71.38 24.79,71.87 24.86,72.35C24.93,72.83 25,73.31 25.06,73.79C25.12,74.27 25.18,74.75 25.24,75.23C25.3,75.71 25.35,76.2 25.41,76.68C25.47,77.16 25.53,77.64 25.59,78.12C25.65,78.6 25.72,79.09 25.78,79.57C25.84,80.05 25.9,80.53 25.96,81.01C26.02,81.49 26.09,81.98 26.15,82.46C26.21,82.94 26.27,83.42 26.33,83.9C26.39,84.38 26.44,84.87 26.49,85.35C26.54,85.83 26.58,86.31 26.63,86.79C26.67,87.27 26.72,87.75 26.76,88.23C26.8,88.71 26.84,89.2 26.88,89.68C26.92,90.16 26.95,90.64 26.99,91.12C27.03,91.6 27.07,92.09 27.1,92.57C27.13,93.05 27.16,93.53 27.19,94.01C27.22,94.49 27.24,94.98 27.26,95.46C27.28,95.94 27.29,96.42 27.3,96.9C27.31,97.38 27.32,97.87 27.33,98.35C27.34,98.83 27.34,99.31 27.35,99.79C27.36,100.27 27.36,100.75 27.37,101.23C27.38,101.71 27.38,102.2 27.39,102.68C27.4,103.16 27.41,103.64 27.42,104.12C27.43,104.6 27.44,105.09 27.45,105.57C27.46,106.05 27.48,106.53 27.49,107.01C27.51,107.49 27.52,107.98 27.54,108.46C27.56,108.94 27.57,109.42 27.59,109.9C27.61,110.38 27.63,110.87 27.65,111.35C27.67,111.83 27.68,112.31 27.7,112.79C27.72,113.27 27.73,113.75 27.75,114.23C27.77,114.71 27.79,115.2 27.8,115.68C27.81,116.16 27.82,116.64 27.83,117.12C27.84,117.6 27.84,118.09 27.85,118.57C27.86,119.05 27.87,119.53 27.87,120.01C27.88,120.49 27.88,120.98 27.88,121.46C27.88,121.94 27.89,122.42 27.89,122.9C27.9,123.38 27.9,123.87 27.91,124.35C27.92,124.83 27.93,125.31 27.94,125.79C27.95,126.27 27.96,126.75 27.97,127.23C27.98,127.71 27.99,128.2 28,128.68C28.01,129.16 28.03,129.64 28.04,130.12C28.05,130.6 28.06,131.09 28.07,131.57C28.08,132.05 28.08,132.53 28.09,133.01C28.1,133.49 28.1,133.98 28.11,134.46C28.11,134.94 28.12,135.42 28.12,135.9C28.13,136.38 28.13,136.87 28.14,137.35C28.14,137.83 28.15,138.31 28.15,138.79C28.16,139.27 28.16,139.75 28.17,140.23C28.18,140.71 28.18,141.2 28.19,141.68C28.2,142.16 28.2,142.64 28.21,143.12C28.22,143.6 28.22,144.09 28.23,144.57C28.23,145.05 28.24,145.53 28.24,146.01C28.25,146.49 28.26,146.98 28.26,147.46C28.26,147.94 28.26,148.42 28.26,148.9C28.26,149.38 28.27,149.87 28.27,150.35C28.27,150.83 28.28,151.31 28.28,151.79C28.29,152.27 28.29,152.76 28.3,153.24C28.31,153.72 28.31,154.2 28.32,154.68C28.33,155.16 28.33,155.64 28.34,156.12C28.35,156.6 28.35,157.09 28.36,157.57C28.37,158.05 28.38,158.53 28.39,159.01C28.4,159.49 28.4,159.98 28.41,160.46C28.42,160.94 28.43,161.42 28.44,161.9C28.45,162.38 28.45,162.87 28.46,163.35C28.47,163.83 28.48,164.31 28.49,164.79C28.5,165.27 28.5,165.76 28.51,166.24C28.52,166.72 28.52,167.2 28.53,167.68C28.54,168.16 28.55,168.64 28.55,169.12C28.56,169.6 28.55,170.09 28.56,170.57C28.56,171.05 28.58,171.53 28.58,172.01C28.59,172.49 28.58,172.98 28.59,173.46C28.59,173.94 28.6,174.42 28.61,174.9C28.62,175.38 28.62,175.87 28.63,176.35C28.64,176.83 28.65,177.31 28.65,177.79C28.66,178.27 28.65,178.76 28.66,179.24C28.66,179.72 28.67,180.2 28.68,180.68C28.68,181.16 28.69,181.64 28.69,182.12C28.69,182.6 28.7,183.09 28.7,183.57C28.7,184.05 28.71,184.53 28.71,185.01Q28.71,185.49 28.71,186.46Z" style="vector-effect: none; stroke-width: 0.5px; stroke: rgb(0, 0, 0); stroke-opacity: 1; fill: rgb(244, 191, 145); fill-opacity: 1;"/><path class="meanline" d="M38.013790130615234,45.44H19.406209869384767" style="fill: none; vector-effect: none; stroke-width: 0.5px; stroke-dasharray: 1px, 0.5px; stroke: rgb(0, 0, 0); stroke-opacity: 1;"/></g><g class="trace violins" style="opacity: 1;"><path class="violin" d="M86.14,180.67Q86.14,180.13 86.14,179.86C86.14,179.59 86.15,179.31 86.15,179.04C86.15,178.77 86.15,178.5 86.15,178.23C86.15,177.96 86.15,177.69 86.15,177.42C86.15,177.15 86.15,176.87 86.15,176.6C86.15,176.33 86.16,176.06 86.16,175.79C86.16,175.52 86.16,175.25 86.16,174.98C86.16,174.71 86.16,174.44 86.16,174.17C86.16,173.9 86.16,173.62 86.16,173.35C86.16,173.08 86.16,172.81 86.16,172.54C86.16,172.27 86.16,172 86.16,171.73C86.16,171.46 86.16,171.19 86.16,170.92C86.16,170.65 86.16,170.37 86.16,170.1C86.16,169.83 86.16,169.56 86.16,169.29C86.16,169.02 86.17,168.75 86.17,168.48C86.17,168.21 86.17,167.93 86.17,167.66C86.17,167.39 86.17,167.12 86.17,166.85C86.17,166.58 86.17,166.31 86.17,166.04C86.17,165.77 86.18,165.5 86.18,165.23C86.18,164.96 86.18,164.68 86.18,164.41C86.18,164.14 86.18,163.87 86.18,163.6C86.18,163.33 86.18,163.06 86.18,162.79C86.18,162.52 86.18,162.25 86.18,161.98C86.18,161.71 86.19,161.43 86.19,161.16C86.19,160.89 86.19,160.62 86.19,160.35C86.19,160.08 86.19,159.81 86.19,159.54C86.19,159.27 86.2,158.99 86.2,158.72C86.2,158.45 86.2,158.18 86.2,157.91C86.2,157.64 86.21,157.37 86.21,157.1C86.21,156.83 86.21,156.56 86.21,156.29C86.21,156.02 86.21,155.74 86.21,155.47C86.21,155.2 86.21,154.93 86.21,154.66C86.21,154.39 86.21,154.12 86.21,153.85C86.21,153.58 86.2,153.3 86.2,153.03C86.2,152.76 86.2,152.49 86.2,152.22C86.2,151.95 86.19,151.68 86.19,151.41C86.19,151.14 86.19,150.87 86.19,150.6C86.19,150.33 86.19,150.05 86.19,149.78C86.19,149.51 86.2,149.24 86.2,148.97C86.2,148.7 86.21,148.43 86.21,148.16C86.21,147.89 86.21,147.62 86.21,147.35C86.21,147.08 86.22,146.8 86.22,146.53C86.22,146.26 86.22,145.99 86.22,145.72C86.22,145.45 86.22,145.18 86.22,144.91C86.22,144.64 86.22,144.36 86.22,144.09C86.22,143.82 86.22,143.55 86.22,143.28C86.22,143.01 86.21,142.74 86.21,142.47C86.21,142.2 86.21,141.93 86.21,141.66C86.21,141.39 86.21,141.11 86.21,140.84C86.21,140.57 86.21,140.3 86.21,140.03C86.21,139.76 86.21,139.49 86.21,139.22C86.21,138.95 86.21,138.68 86.21,138.41C86.21,138.14 86.21,137.86 86.21,137.59C86.21,137.32 86.22,137.05 86.22,136.78C86.22,136.51 86.22,136.24 86.22,135.97C86.22,135.7 86.23,135.42 86.23,135.15C86.23,134.88 86.23,134.61 86.23,134.34C86.23,134.07 86.24,133.8 86.24,133.53C86.24,133.26 86.25,132.99 86.25,132.72C86.25,132.45 86.25,132.17 86.25,131.9C86.25,131.63 86.26,131.36 86.26,131.09C86.26,130.82 86.27,130.55 86.27,130.28C86.27,130.01 86.27,129.73 86.27,129.46C86.27,129.19 86.27,128.92 86.27,128.65C86.27,128.38 86.28,128.11 86.28,127.84C86.28,127.57 86.28,127.3 86.28,127.03C86.28,126.76 86.29,126.48 86.29,126.21C86.29,125.94 86.29,125.67 86.29,125.4C86.29,125.13 86.3,124.86 86.3,124.59C86.3,124.32 86.3,124.05 86.3,123.78C86.3,123.51 86.3,123.23 86.3,122.96C86.3,122.69 86.3,122.42 86.3,122.15C86.3,121.88 86.3,121.61 86.3,121.34C86.3,121.07 86.29,120.79 86.29,120.52C86.29,120.25 86.29,119.98 86.29,119.71C86.29,119.44 86.29,119.17 86.29,118.9C86.29,118.63 86.29,118.36 86.29,118.09C86.29,117.82 86.3,117.54 86.3,117.27C86.3,117 86.31,116.73 86.31,116.46C86.31,116.19 86.32,115.92 86.32,115.65C86.32,115.38 86.33,115.11 86.33,114.84C86.33,114.57 86.34,114.29 86.34,114.02C86.34,113.75 86.34,113.48 86.34,113.21C86.34,112.94 86.35,112.67 86.35,112.4C86.35,112.13 86.35,111.85 86.35,111.58C86.35,111.31 86.35,111.04 86.35,110.77C86.35,110.5 86.35,110.23 86.35,109.96C86.35,109.69 86.35,109.42 86.35,109.15C86.35,108.88 86.35,108.6 86.35,108.33C86.35,108.06 86.36,107.79 86.36,107.52C86.36,107.25 86.37,106.98 86.37,106.71C86.37,106.44 86.37,106.16 86.38,105.89C86.38,105.62 86.39,105.35 86.4,105.08C86.4,104.81 86.41,104.54 86.41,104.27C86.41,104 86.42,103.73 86.42,103.46C86.42,103.19 86.43,102.91 86.43,102.64C86.43,102.37 86.43,102.1 86.43,101.83C86.43,101.56 86.44,101.29 86.44,101.02C86.44,100.75 86.44,100.48 86.44,100.21C86.44,99.94 86.45,99.66 86.45,99.39C86.45,99.12 86.46,98.85 86.46,98.58C86.47,98.31 86.48,98.04 86.48,97.77C86.49,97.5 86.48,97.22 86.49,96.95C86.49,96.68 86.5,96.41 86.51,96.14C86.51,95.87 86.52,95.6 86.52,95.33C86.52,95.06 86.53,94.79 86.53,94.52C86.53,94.25 86.54,93.97 86.54,93.7C86.54,93.43 86.54,93.16 86.54,92.89C86.54,92.62 86.55,92.35 86.55,92.08C86.55,91.81 86.56,91.54 86.56,91.27C86.56,91 86.57,90.72 86.57,90.45C86.57,90.18 86.57,89.91 86.57,89.64C86.57,89.37 86.58,89.1 86.58,88.83C86.58,88.56 86.58,88.28 86.59,88.01C86.59,87.74 86.6,87.47 86.61,87.2C86.61,86.93 86.62,86.66 86.62,86.39C86.63,86.12 86.63,85.85 86.64,85.58C86.65,85.31 86.66,85.03 86.67,84.76C86.68,84.49 86.69,84.22 86.7,83.95C86.71,83.68 86.73,83.41 86.74,83.14C86.75,82.87 86.77,82.59 86.78,82.32C86.79,82.05 86.81,81.78 86.82,81.51C86.84,81.24 86.85,80.97 86.87,80.7C86.89,80.43 86.9,80.16 86.92,79.89C86.94,79.62 86.95,79.34 86.97,79.07C86.99,78.8 87,78.53 87.02,78.26C87.04,77.99 87.05,77.72 87.07,77.45C87.09,77.18 87.11,76.91 87.12,76.64C87.13,76.37 87.14,76.09 87.15,75.82C87.16,75.55 87.16,75.28 87.17,75.01C87.17,74.74 87.18,74.47 87.18,74.2C87.18,73.93 87.18,73.65 87.19,73.38C87.19,73.11 87.2,72.84 87.21,72.57C87.22,72.3 87.23,72.03 87.24,71.76C87.25,71.49 87.27,71.22 87.28,70.95C87.3,70.68 87.31,70.4 87.33,70.13C87.35,69.86 87.36,69.59 87.38,69.32C87.4,69.05 87.41,68.78 87.43,68.51C87.45,68.24 87.46,67.97 87.48,67.7C87.5,67.43 87.52,67.15 87.55,66.88C87.58,66.61 87.61,66.34 87.64,66.07C87.67,65.8 87.71,65.53 87.75,65.26C87.79,64.99 87.83,64.71 87.87,64.44C87.91,64.17 87.96,63.9 88,63.63C88.04,63.36 88.07,63.09 88.11,62.82C88.14,62.55 88.18,62.28 88.21,62.01C88.24,61.74 88.26,61.46 88.29,61.19C88.31,60.92 88.34,60.65 88.36,60.38C88.38,60.11 88.41,59.84 88.43,59.57C88.46,59.3 88.48,59.02 88.51,58.75C88.54,58.48 88.57,58.21 88.6,57.94C88.63,57.67 88.66,57.4 88.7,57.13C88.74,56.86 88.78,56.59 88.82,56.32C88.86,56.05 88.9,55.77 88.94,55.5C88.98,55.23 89.03,54.96 89.08,54.69C89.13,54.42 89.19,54.15 89.24,53.88C89.29,53.61 89.34,53.34 89.4,53.07C89.46,52.8 89.52,52.52 89.58,52.25C89.64,51.98 89.7,51.71 89.76,51.44C89.82,51.17 89.88,50.9 89.94,50.63C90,50.36 90.06,50.08 90.12,49.81C90.18,49.54 90.25,49.27 90.31,49C90.37,48.73 90.43,48.46 90.49,48.19C90.55,47.92 90.62,47.65 90.68,47.38C90.74,47.11 90.8,46.83 90.86,46.56C90.92,46.29 90.97,46.02 91.03,45.75C91.09,45.48 91.15,45.21 91.21,44.94C91.27,44.67 91.33,44.4 91.39,44.13C91.45,43.86 91.52,43.58 91.59,43.31C91.66,43.04 91.73,42.77 91.8,42.5C91.87,42.23 91.95,41.96 92.03,41.69C92.11,41.42 92.18,41.14 92.26,40.87C92.34,40.6 92.42,40.33 92.5,40.06C92.58,39.79 92.67,39.52 92.75,39.25C92.84,38.98 92.92,38.71 93.01,38.44C93.1,38.17 93.2,37.89 93.3,37.62C93.4,37.35 93.5,37.08 93.61,36.81C93.72,36.54 93.84,36.27 93.97,36C94.1,35.73 94.23,35.46 94.37,35.19C94.51,34.92 94.66,34.64 94.81,34.37C94.96,34.1 95.13,33.83 95.29,33.56C95.45,33.29 95.63,33.02 95.79,32.75C95.96,32.48 96.12,32.2 96.28,31.93C96.44,31.66 96.6,31.39 96.75,31.12C96.9,30.85 97.05,30.58 97.2,30.31C97.35,30.04 97.49,29.77 97.63,29.5C97.77,29.23 97.9,28.95 98.04,28.68C98.17,28.41 98.31,28.14 98.44,27.87C98.57,27.6 98.7,27.33 98.83,27.06C98.95,26.79 99.08,26.51 99.19,26.24C99.3,25.97 99.41,25.7 99.51,25.43C99.61,25.16 99.7,24.89 99.78,24.62C99.86,24.35 99.93,24.08 99.99,23.81C100.05,23.54 100.1,23.26 100.14,22.99C100.18,22.72 100.2,22.45 100.21,22.18C100.22,21.91 100.22,21.64 100.21,21.37C100.2,21.1 100.18,20.83 100.15,20.56C100.12,20.29 100.09,20.01 100.04,19.74C100,19.47 99.94,19.2 99.88,18.93C99.82,18.66 99.74,18.39 99.66,18.12C99.58,17.85 99.5,17.57 99.4,17.3C99.3,17.03 99.19,16.76 99.07,16.49C98.95,16.22 98.81,15.95 98.66,15.68C98.51,15.41 98.33,15.14 98.15,14.87C97.96,14.59 97.76,14.32 97.54,14.05C97.32,13.77 97.08,13.51 96.83,13.24C96.58,12.97 96.31,12.7 96.03,12.43C95.75,12.16 95.45,11.89 95.15,11.62C94.85,11.35 94.54,11.07 94.22,10.8C93.9,10.53 93.56,10.26 93.23,9.99C92.9,9.72 92.56,9.45 92.23,9.18C91.9,8.91 91.56,8.63 91.23,8.36C90.91,8.09 90.59,7.82 90.28,7.55C89.98,7.28 89.68,7.01 89.4,6.74C89.13,6.47 88.86,6.21 88.62,5.93C88.38,5.66 88.16,5.39 87.96,5.11C87.76,4.84 87.58,4.57 87.42,4.3C87.26,4.03 87.12,3.76 87,3.49C86.88,3.22 86.78,2.94 86.69,2.67C86.6,2.4 86.53,2.13 86.47,1.86C86.41,1.59 86.37,1.32 86.33,1.05C86.29,0.78 86.26,0.51 86.24,0.24C86.22,-0.03 86.2,-0.31 86.19,-0.58C86.18,-0.85 86.17,-1.12 86.16,-1.39Q86.15,-1.66 86.15,-2.2L86.13,-2.2Q86.12,-1.66 86.12,-1.39C86.11,-1.12 86.11,-0.85 86.1,-0.58C86.09,-0.31 86.07,-0.03 86.05,0.24C86.03,0.51 86,0.78 85.96,1.05C85.92,1.32 85.88,1.59 85.82,1.86C85.76,2.13 85.69,2.4 85.6,2.67C85.51,2.94 85.41,3.22 85.29,3.49C85.17,3.76 85.03,4.03 84.87,4.3C84.71,4.57 84.53,4.84 84.33,5.11C84.13,5.39 83.91,5.66 83.67,5.93C83.43,6.21 83.16,6.47 82.89,6.74C82.61,7.01 82.31,7.28 82.01,7.55C81.7,7.82 81.37,8.09 81.05,8.36C80.72,8.63 80.39,8.91 80.06,9.18C79.73,9.45 79.38,9.72 79.05,9.99C78.72,10.26 78.39,10.53 78.07,10.8C77.75,11.07 77.44,11.35 77.13,11.62C76.83,11.89 76.53,12.16 76.25,12.43C75.97,12.7 75.7,12.97 75.45,13.24C75.2,13.51 74.96,13.77 74.74,14.05C74.52,14.32 74.32,14.59 74.13,14.87C73.95,15.14 73.77,15.41 73.62,15.68C73.47,15.95 73.33,16.22 73.21,16.49C73.09,16.76 72.99,17.03 72.89,17.3C72.79,17.57 72.7,17.85 72.62,18.12C72.54,18.39 72.47,18.66 72.41,18.93C72.35,19.2 72.3,19.47 72.25,19.74C72.2,20.01 72.16,20.29 72.13,20.56C72.1,20.83 72.08,21.1 72.07,21.37C72.06,21.64 72.07,21.91 72.08,22.18C72.09,22.45 72.12,22.72 72.15,22.99C72.19,23.26 72.23,23.54 72.29,23.81C72.35,24.08 72.42,24.35 72.5,24.62C72.58,24.89 72.67,25.16 72.77,25.43C72.87,25.7 72.99,25.97 73.1,26.24C73.22,26.51 73.34,26.79 73.46,27.06C73.58,27.33 73.71,27.6 73.84,27.87C73.97,28.14 74.11,28.41 74.25,28.68C74.39,28.95 74.52,29.23 74.66,29.5C74.8,29.77 74.94,30.04 75.09,30.31C75.24,30.58 75.39,30.85 75.54,31.12C75.69,31.39 75.85,31.66 76.01,31.93C76.17,32.2 76.34,32.48 76.5,32.75C76.66,33.02 76.83,33.29 76.99,33.56C77.15,33.83 77.31,34.1 77.47,34.37C77.62,34.64 77.78,34.92 77.92,35.19C78.06,35.46 78.19,35.73 78.32,36C78.44,36.27 78.56,36.54 78.67,36.81C78.78,37.08 78.89,37.35 78.99,37.62C79.09,37.89 79.18,38.17 79.27,38.44C79.36,38.71 79.44,38.98 79.53,39.25C79.61,39.52 79.7,39.79 79.78,40.06C79.86,40.33 79.95,40.6 80.03,40.87C80.11,41.14 80.18,41.42 80.26,41.69C80.34,41.96 80.42,42.23 80.49,42.5C80.56,42.77 80.63,43.04 80.7,43.31C80.77,43.58 80.83,43.86 80.89,44.13C80.95,44.4 81.02,44.67 81.08,44.94C81.14,45.21 81.19,45.48 81.25,45.75C81.31,46.02 81.37,46.29 81.43,46.56C81.49,46.83 81.55,47.11 81.61,47.38C81.67,47.65 81.73,47.92 81.79,48.19C81.85,48.46 81.92,48.73 81.98,49C82.04,49.27 82.11,49.54 82.17,49.81C82.23,50.08 82.29,50.36 82.35,50.63C82.41,50.9 82.47,51.17 82.53,51.44C82.59,51.71 82.65,51.98 82.71,52.25C82.77,52.52 82.82,52.8 82.88,53.07C82.94,53.34 83,53.61 83.05,53.88C83.1,54.15 83.15,54.42 83.2,54.69C83.25,54.96 83.3,55.23 83.34,55.5C83.39,55.77 83.43,56.05 83.47,56.32C83.51,56.59 83.54,56.86 83.58,57.13C83.62,57.4 83.66,57.67 83.69,57.94C83.72,58.21 83.75,58.48 83.78,58.75C83.81,59.02 83.83,59.3 83.85,59.57C83.87,59.84 83.9,60.11 83.92,60.38C83.94,60.65 83.97,60.92 83.99,61.19C84.02,61.46 84.04,61.74 84.07,62.01C84.1,62.28 84.13,62.55 84.17,62.82C84.21,63.09 84.25,63.36 84.29,63.63C84.33,63.9 84.37,64.17 84.41,64.44C84.45,64.71 84.5,64.99 84.54,65.26C84.58,65.53 84.62,65.8 84.65,66.07C84.68,66.34 84.71,66.61 84.73,66.88C84.76,67.15 84.78,67.43 84.8,67.7C84.82,67.97 84.84,68.24 84.86,68.51C84.88,68.78 84.89,69.05 84.91,69.32C84.93,69.59 84.95,69.86 84.96,70.13C84.98,70.4 84.99,70.68 85,70.95C85.01,71.22 85.03,71.49 85.04,71.76C85.05,72.03 85.07,72.3 85.08,72.57C85.09,72.84 85.09,73.11 85.09,73.38C85.1,73.65 85.1,73.93 85.11,74.2C85.11,74.47 85.12,74.74 85.12,75.01C85.13,75.28 85.13,75.55 85.14,75.82C85.15,76.09 85.16,76.37 85.17,76.64C85.18,76.91 85.2,77.18 85.21,77.45C85.23,77.72 85.24,77.99 85.26,78.26C85.28,78.53 85.3,78.8 85.32,79.07C85.34,79.34 85.35,79.62 85.37,79.89C85.39,80.16 85.4,80.43 85.42,80.7C85.43,80.97 85.45,81.24 85.46,81.51C85.48,81.78 85.5,82.05 85.51,82.32C85.53,82.59 85.54,82.87 85.55,83.14C85.56,83.41 85.57,83.68 85.58,83.95C85.59,84.22 85.6,84.49 85.61,84.76C85.62,85.03 85.63,85.31 85.64,85.58C85.65,85.85 85.65,86.12 85.66,86.39C85.67,86.66 85.67,86.93 85.68,87.2C85.68,87.47 85.69,87.74 85.69,88.01C85.69,88.28 85.7,88.56 85.7,88.83C85.7,89.1 85.71,89.37 85.71,89.64C85.71,89.91 85.72,90.18 85.72,90.45C85.72,90.72 85.73,91 85.73,91.27C85.73,91.54 85.74,91.81 85.74,92.08C85.74,92.35 85.74,92.62 85.74,92.89C85.74,93.16 85.75,93.43 85.75,93.7C85.75,93.97 85.76,94.25 85.76,94.52C85.76,94.79 85.77,95.06 85.77,95.33C85.77,95.6 85.78,95.87 85.78,96.14C85.78,96.41 85.79,96.68 85.79,96.95C85.8,97.22 85.8,97.5 85.81,97.77C85.81,98.04 85.82,98.31 85.82,98.58C85.82,98.85 85.83,99.12 85.83,99.39C85.83,99.66 85.84,99.94 85.84,100.21C85.84,100.48 85.85,100.75 85.85,101.02C85.85,101.29 85.85,101.56 85.85,101.83C85.85,102.1 85.86,102.37 85.86,102.64C85.86,102.91 85.87,103.19 85.87,103.46C85.87,103.73 85.88,104 85.88,104.27C85.88,104.54 85.89,104.81 85.89,105.08C85.89,105.35 85.9,105.62 85.9,105.89C85.91,106.16 85.91,106.44 85.92,106.71C85.92,106.98 85.93,107.25 85.93,107.52C85.93,107.79 85.93,108.06 85.93,108.33C85.93,108.6 85.94,108.88 85.94,109.15C85.94,109.42 85.94,109.69 85.94,109.96C85.94,110.23 85.94,110.5 85.94,110.77C85.94,111.04 85.94,111.31 85.94,111.58C85.94,111.85 85.94,112.13 85.94,112.4C85.94,112.67 85.94,112.94 85.94,113.21C85.94,113.48 85.95,113.75 85.95,114.02C85.95,114.29 85.96,114.57 85.96,114.84C85.96,115.11 85.97,115.38 85.97,115.65C85.97,115.92 85.98,116.19 85.98,116.46C85.98,116.73 85.98,117 85.98,117.27C85.98,117.54 85.99,117.82 85.99,118.09C85.99,118.36 85.99,118.63 85.99,118.9C85.99,119.17 85.99,119.44 85.99,119.71C85.99,119.98 85.99,120.25 85.99,120.52C85.99,120.79 85.99,121.07 85.99,121.34C85.99,121.61 85.99,121.88 85.99,122.15C85.99,122.42 85.98,122.69 85.98,122.96C85.98,123.23 85.98,123.51 85.98,123.78C85.98,124.05 85.99,124.32 85.99,124.59C85.99,124.86 85.99,125.13 85.99,125.4C85.99,125.67 86,125.94 86,126.21C86,126.48 86,126.76 86,127.03C86,127.3 86.01,127.57 86.01,127.84C86.01,128.11 86.01,128.38 86.01,128.65C86.01,128.92 86.02,129.19 86.02,129.46C86.02,129.73 86.02,130.01 86.02,130.28C86.02,130.55 86.03,130.82 86.03,131.09C86.03,131.36 86.03,131.63 86.03,131.9C86.03,132.17 86.04,132.45 86.04,132.72C86.04,132.99 86.04,133.26 86.04,133.53C86.04,133.8 86.05,134.07 86.05,134.34C86.05,134.61 86.06,134.88 86.06,135.15C86.06,135.42 86.06,135.7 86.06,135.97C86.06,136.24 86.07,136.51 86.07,136.78C86.07,137.05 86.08,137.32 86.08,137.59C86.08,137.86 86.08,138.14 86.08,138.41C86.08,138.68 86.08,138.95 86.08,139.22C86.08,139.49 86.08,139.76 86.08,140.03C86.08,140.3 86.08,140.57 86.08,140.84C86.08,141.11 86.08,141.39 86.08,141.66C86.08,141.93 86.07,142.2 86.07,142.47C86.07,142.74 86.07,143.01 86.07,143.28C86.07,143.55 86.06,143.82 86.06,144.09C86.06,144.36 86.06,144.64 86.06,144.91C86.06,145.18 86.06,145.45 86.06,145.72C86.06,145.99 86.07,146.26 86.07,146.53C86.07,146.8 86.07,147.08 86.07,147.35C86.07,147.62 86.08,147.89 86.08,148.16C86.08,148.43 86.09,148.7 86.09,148.97C86.09,149.24 86.09,149.51 86.09,149.78C86.09,150.05 86.09,150.33 86.09,150.6C86.09,150.87 86.09,151.14 86.09,151.41C86.09,151.68 86.09,151.95 86.09,152.22C86.09,152.49 86.08,152.76 86.08,153.03C86.08,153.3 86.08,153.58 86.08,153.85C86.08,154.12 86.08,154.39 86.08,154.66C86.08,154.93 86.08,155.2 86.08,155.47C86.08,155.74 86.08,156.02 86.08,156.29C86.08,156.56 86.08,156.83 86.08,157.1C86.08,157.37 86.08,157.64 86.08,157.91C86.08,158.18 86.09,158.45 86.09,158.72C86.09,158.99 86.09,159.27 86.09,159.54C86.09,159.81 86.1,160.08 86.1,160.35C86.1,160.62 86.1,160.89 86.1,161.16C86.1,161.43 86.1,161.71 86.1,161.98C86.1,162.25 86.1,162.52 86.1,162.79C86.1,163.06 86.1,163.33 86.1,163.6C86.1,163.87 86.11,164.14 86.11,164.41C86.11,164.68 86.11,164.96 86.11,165.23C86.11,165.5 86.11,165.77 86.11,166.04C86.11,166.31 86.12,166.58 86.12,166.85C86.12,167.12 86.12,167.39 86.12,167.66C86.12,167.93 86.12,168.21 86.12,168.48C86.12,168.75 86.12,169.02 86.12,169.29C86.12,169.56 86.12,169.83 86.12,170.1C86.12,170.37 86.12,170.65 86.12,170.92C86.12,171.19 86.12,171.46 86.12,171.73C86.12,172 86.13,172.27 86.13,172.54C86.13,172.81 86.13,173.08 86.13,173.35C86.13,173.62 86.13,173.9 86.13,174.17C86.13,174.44 86.13,174.71 86.13,174.98C86.13,175.25 86.13,175.52 86.13,175.79C86.13,176.06 86.13,176.33 86.13,176.6C86.13,176.87 86.13,177.15 86.13,177.42C86.13,177.69 86.14,177.96 86.14,178.23C86.14,178.5 86.14,178.77 86.14,179.04C86.14,179.31 86.14,179.59 86.14,179.86Q86.14,180.13 86.14,180.67Z" style="vector-effect: none; stroke-width: 0.5px; stroke: rgb(0, 0, 0); stroke-opacity: 1; fill: rgb(236, 154, 86); fill-opacity: 1;"/><path class="meanline" d="M95.82109069824219,32.7H76.45890930175781" style="fill: none; vector-effect: none; stroke-width: 0.5px; stroke-dasharray: 1px, 0.5px; stroke: rgb(0, 0, 0); stroke-opacity: 1;"/></g><g class="trace violins" style="opacity: 1;"><path class="violin" d="M143.62,135.49Q143.65,134.3 143.67,133.71C143.69,133.11 143.71,132.52 143.73,131.92C143.75,131.33 143.78,130.73 143.8,130.14C143.82,129.55 143.85,128.95 143.87,128.36C143.89,127.77 143.92,127.17 143.93,126.58C143.94,125.99 143.95,125.39 143.95,124.8C143.95,124.21 143.94,123.61 143.93,123.02C143.92,122.42 143.9,121.83 143.88,121.23C143.86,120.64 143.83,120.04 143.81,119.45C143.78,118.86 143.75,118.26 143.73,117.67C143.71,117.08 143.7,116.48 143.68,115.89C143.67,115.3 143.65,114.7 143.64,114.11C143.63,113.51 143.63,112.92 143.63,112.32C143.63,111.73 143.64,111.13 143.65,110.54C143.66,109.95 143.68,109.35 143.7,108.76C143.72,108.17 143.76,107.57 143.79,106.98C143.83,106.39 143.87,105.79 143.91,105.2C143.95,104.61 144.01,104.01 144.05,103.42C144.1,102.82 144.14,102.23 144.18,101.63C144.22,101.04 144.26,100.44 144.29,99.85C144.32,99.26 144.35,98.66 144.36,98.07C144.37,97.48 144.38,96.88 144.38,96.29C144.38,95.7 144.36,95.1 144.35,94.51C144.34,93.92 144.32,93.32 144.3,92.73C144.28,92.13 144.25,91.54 144.23,90.94C144.21,90.35 144.18,89.75 144.16,89.16C144.13,88.57 144.11,87.97 144.08,87.38C144.05,86.79 144.02,86.19 144,85.6C143.98,85.01 143.96,84.41 143.94,83.82C143.92,83.23 143.91,82.63 143.9,82.04C143.89,81.44 143.9,80.85 143.91,80.25C143.92,79.66 143.95,79.06 143.98,78.47C144.01,77.88 144.06,77.28 144.11,76.69C144.16,76.1 144.22,75.5 144.29,74.91C144.36,74.32 144.44,73.72 144.53,73.13C144.62,72.53 144.71,71.94 144.81,71.34C144.91,70.75 145.03,70.15 145.14,69.56C145.25,68.97 145.36,68.37 145.47,67.78C145.57,67.19 145.68,66.59 145.77,66C145.86,65.41 145.95,64.81 146.01,64.22C146.07,63.63 146.12,63.03 146.15,62.44C146.18,61.84 146.2,61.25 146.2,60.65C146.2,60.06 146.18,59.46 146.16,58.87C146.14,58.28 146.11,57.68 146.09,57.09C146.07,56.5 146.04,55.9 146.02,55.31C146,54.72 145.99,54.12 145.99,53.53C145.99,52.94 146.01,52.34 146.04,51.75C146.07,51.15 146.11,50.56 146.16,49.96C146.21,49.37 146.27,48.77 146.35,48.18C146.43,47.59 146.51,46.99 146.62,46.4C146.73,45.8 146.85,45.21 147.01,44.62C147.17,44.02 147.36,43.43 147.59,42.84C147.83,42.24 148.1,41.63 148.42,41.05C148.75,40.44 149.15,39.85 149.57,39.27C150.01,38.66 150.5,38.07 151.01,37.49C151.53,36.89 152.11,36.3 152.67,35.71C153.23,35.12 153.81,34.53 154.35,33.93C154.87,33.34 155.4,32.76 155.85,32.15C156.28,31.57 156.69,30.97 156.98,30.36C157.26,29.78 157.47,29.18 157.58,28.58C157.69,27.99 157.69,27.39 157.64,26.8C157.59,26.2 157.42,25.61 157.25,25.02C157.07,24.42 156.81,23.83 156.58,23.24C156.34,22.64 156.08,22.06 155.84,21.46C155.6,20.87 155.37,20.27 155.16,19.67C154.95,19.08 154.77,18.48 154.58,17.89C154.39,17.3 154.24,16.7 154.04,16.11C153.84,15.51 153.64,14.92 153.4,14.33C153.15,13.73 152.88,13.13 152.57,12.55C152.25,11.95 151.87,11.36 151.48,10.77C151.08,10.17 150.64,9.57 150.19,8.98C149.74,8.38 149.25,7.79 148.79,7.2C148.33,6.61 147.85,6.02 147.42,5.42C147,4.83 146.59,4.24 146.22,3.64C145.86,3.05 145.53,2.46 145.25,1.86C144.98,1.27 144.74,0.67 144.55,0.07C144.36,-0.52 144.22,-1.11 144.1,-1.71Q143.98,-2.3 143.83,-3.49L143.32,-3.49Q143.17,-2.3 143.05,-1.71C142.93,-1.11 142.78,-0.52 142.59,0.07C142.4,0.67 142.16,1.27 141.89,1.86C141.61,2.46 141.28,3.06 140.93,3.64C140.56,4.24 140.14,4.83 139.72,5.42C139.29,6.02 138.81,6.61 138.35,7.2C137.89,7.79 137.4,8.38 136.95,8.98C136.5,9.57 136.06,10.17 135.66,10.77C135.27,11.36 134.9,11.95 134.58,12.55C134.27,13.14 133.99,13.73 133.74,14.33C133.5,14.92 133.3,15.51 133.1,16.11C132.9,16.7 132.75,17.3 132.56,17.89C132.37,18.48 132.19,19.08 131.98,19.67C131.77,20.27 131.55,20.87 131.31,21.46C131.07,22.06 130.8,22.64 130.56,23.24C130.33,23.83 130.08,24.42 129.9,25.02C129.73,25.61 129.56,26.2 129.5,26.8C129.44,27.39 129.45,27.99 129.56,28.58C129.67,29.18 129.89,29.78 130.17,30.36C130.46,30.97 130.87,31.57 131.29,32.15C131.73,32.76 132.27,33.34 132.79,33.93C133.33,34.53 133.92,35.11 134.48,35.71C135.04,36.3 135.61,36.89 136.13,37.49C136.64,38.08 137.14,38.66 137.58,39.27C138,39.85 138.39,40.44 138.72,41.05C139.04,41.64 139.32,42.24 139.56,42.84C139.79,43.43 139.97,44.02 140.13,44.62C140.29,45.21 140.41,45.8 140.52,46.4C140.63,46.99 140.71,47.59 140.79,48.18C140.87,48.77 140.94,49.37 140.99,49.96C141.04,50.56 141.08,51.15 141.11,51.75C141.14,52.34 141.15,52.94 141.15,53.53C141.15,54.12 141.14,54.72 141.13,55.31C141.12,55.9 141.08,56.5 141.06,57.09C141.03,57.68 141,58.28 140.98,58.87C140.96,59.46 140.95,60.06 140.95,60.65C140.95,61.25 140.96,61.84 140.99,62.44C141.02,63.03 141.07,63.63 141.13,64.22C141.19,64.81 141.28,65.41 141.37,66C141.46,66.59 141.57,67.19 141.68,67.78C141.79,68.37 141.9,68.97 142.01,69.56C142.12,70.15 142.23,70.75 142.33,71.34C142.43,71.94 142.53,72.53 142.62,73.13C142.71,73.72 142.78,74.32 142.85,74.91C142.92,75.5 142.99,76.1 143.04,76.69C143.09,77.28 143.13,77.88 143.16,78.47C143.19,79.06 143.22,79.66 143.23,80.25C143.24,80.85 143.24,81.44 143.24,82.04C143.24,82.63 143.23,83.23 143.21,83.82C143.19,84.41 143.16,85.01 143.14,85.6C143.11,86.19 143.09,86.79 143.06,87.38C143.03,87.97 143.01,88.57 142.98,89.16C142.96,89.75 142.93,90.35 142.91,90.94C142.89,91.54 142.86,92.13 142.84,92.73C142.82,93.32 142.8,93.92 142.79,94.51C142.78,95.1 142.77,95.7 142.77,96.29C142.77,96.88 142.77,97.48 142.78,98.07C142.79,98.66 142.82,99.26 142.85,99.85C142.88,100.44 142.92,101.04 142.96,101.63C143,102.23 143.05,102.82 143.1,103.42C143.15,104.01 143.2,104.61 143.24,105.2C143.28,105.79 143.32,106.39 143.35,106.98C143.38,107.57 143.42,108.17 143.44,108.76C143.46,109.35 143.48,109.95 143.49,110.54C143.5,111.13 143.51,111.73 143.51,112.32C143.51,112.92 143.51,113.51 143.5,114.11C143.49,114.7 143.48,115.3 143.47,115.89C143.45,116.48 143.43,117.08 143.41,117.67C143.39,118.26 143.36,118.86 143.34,119.45C143.31,120.04 143.28,120.64 143.26,121.23C143.24,121.83 143.22,122.42 143.21,123.02C143.2,123.61 143.19,124.21 143.19,124.8C143.19,125.39 143.2,125.99 143.21,126.58C143.22,127.17 143.25,127.77 143.27,128.36C143.29,128.95 143.32,129.55 143.34,130.14C143.37,130.73 143.4,131.33 143.42,131.92C143.44,132.52 143.46,133.11 143.48,133.71Q143.5,134.3 143.52,135.49Z" style="vector-effect: none; stroke-width: 0.5px; stroke: rgb(0, 0, 0); stroke-opacity: 1; fill: rgb(155, 191, 229); fill-opacity: 1;"/><path class="meanline" d="M155.74526977539062,32.29H131.39473022460936" style="fill: none; vector-effect: none; stroke-width: 0.5px; stroke-dasharray: 1px, 0.5px; stroke: rgb(0, 0, 0); stroke-opacity: 1;"/></g><g class="trace violins" style="opacity: 1;"><path class="violin" d="M201.06,92.42Q201.09,90.89 201.11,90.13C201.13,89.36 201.16,88.6 201.19,87.83C201.22,87.07 201.26,86.3 201.3,85.54C201.34,84.78 201.38,84.01 201.42,83.25C201.46,82.48 201.5,81.72 201.54,80.95C201.58,80.19 201.62,79.42 201.65,78.66C201.68,77.89 201.7,77.13 201.72,76.36C201.74,75.6 201.74,74.83 201.75,74.07C201.76,73.3 201.75,72.54 201.75,71.77C201.75,71.01 201.75,70.24 201.77,69.48C201.79,68.71 201.81,67.95 201.86,67.18C201.91,66.42 201.97,65.65 202.08,64.89C202.19,64.12 202.33,63.35 202.5,62.59C202.68,61.82 202.89,61.06 203.13,60.3C203.37,59.53 203.66,58.76 203.94,58C204.23,57.23 204.54,56.47 204.84,55.71C205.14,54.94 205.44,54.18 205.72,53.41C206,52.65 206.26,51.89 206.5,51.12C206.74,50.36 206.94,49.59 207.14,48.82C207.33,48.06 207.5,47.29 207.67,46.53C207.84,45.77 207.99,45 208.14,44.24C208.29,43.47 208.43,42.71 208.58,41.94C208.73,41.18 208.88,40.41 209.03,39.65C209.18,38.88 209.34,38.12 209.5,37.35C209.66,36.59 209.82,35.82 210,35.06C210.18,34.29 210.36,33.52 210.58,32.76C210.8,31.99 211.04,31.23 211.31,30.47C211.58,29.7 211.89,28.93 212.2,28.17C212.51,27.4 212.87,26.65 213.19,25.88C213.51,25.12 213.86,24.35 214.14,23.58C214.41,22.82 214.67,22.06 214.83,21.29C214.98,20.53 215.08,19.75 215.07,18.99C215.06,18.22 214.94,17.45 214.74,16.7C214.53,15.92 214.2,15.15 213.82,14.4C213.43,13.62 212.93,12.86 212.42,12.11C211.89,11.33 211.29,10.57 210.69,9.81C210.08,9.04 209.42,8.29 208.79,7.52C208.16,6.76 207.52,5.99 206.92,5.22C206.33,4.46 205.75,3.7 205.22,2.93C204.71,2.18 204.22,1.42 203.8,0.64C203.39,-0.11 203.04,-0.88 202.73,-1.66C202.43,-2.42 202.18,-3.18 201.98,-3.95C201.78,-4.71 201.63,-5.48 201.51,-6.25Q201.39,-7.01 201.24,-8.54L200.76,-8.54Q200.61,-7.01 200.49,-6.25C200.37,-5.48 200.22,-4.71 200.02,-3.95C199.82,-3.18 199.57,-2.42 199.27,-1.66C198.96,-0.88 198.61,-0.11 198.2,0.64C197.78,1.42 197.29,2.18 196.78,2.93C196.25,3.7 195.67,4.46 195.08,5.22C194.48,5.99 193.84,6.76 193.21,7.52C192.58,8.29 191.92,9.04 191.31,9.81C190.71,10.57 190.11,11.33 189.58,12.11C189.07,12.86 188.57,13.62 188.18,14.4C187.8,15.15 187.47,15.92 187.26,16.7C187.06,17.45 186.94,18.22 186.93,18.99C186.92,19.75 187.02,20.53 187.17,21.29C187.33,22.06 187.59,22.82 187.86,23.58C188.14,24.35 188.49,25.12 188.81,25.88C189.13,26.65 189.49,27.4 189.8,28.17C190.11,28.93 190.42,29.7 190.69,30.47C190.96,31.23 191.2,31.99 191.42,32.76C191.64,33.52 191.82,34.29 192,35.06C192.18,35.82 192.34,36.59 192.5,37.35C192.66,38.12 192.82,38.88 192.97,39.65C193.12,40.41 193.27,41.18 193.42,41.94C193.57,42.71 193.71,43.47 193.86,44.24C194.01,45 194.16,45.77 194.33,46.53C194.5,47.29 194.67,48.06 194.86,48.82C195.06,49.59 195.26,50.36 195.5,51.12C195.74,51.89 196,52.65 196.28,53.41C196.56,54.18 196.86,54.94 197.16,55.71C197.46,56.47 197.77,57.23 198.06,58C198.34,58.76 198.63,59.53 198.87,60.3C199.11,61.06 199.32,61.82 199.5,62.59C199.67,63.35 199.81,64.12 199.92,64.89C200.03,65.65 200.09,66.42 200.14,67.18C200.19,67.95 200.21,68.71 200.23,69.48C200.25,70.24 200.25,71.01 200.25,71.77C200.25,72.54 200.24,73.3 200.25,74.07C200.26,74.83 200.26,75.6 200.28,76.36C200.3,77.13 200.32,77.89 200.35,78.66C200.38,79.42 200.42,80.19 200.46,80.95C200.5,81.72 200.54,82.48 200.58,83.25C200.62,84.01 200.66,84.78 200.7,85.54C200.74,86.3 200.78,87.07 200.81,87.83C200.84,88.6 200.87,89.36 200.89,90.13Q200.91,90.89 200.94,92.42Z" style="vector-effect: none; stroke-width: 0.5px; stroke: rgb(0, 0, 0); stroke-opacity: 1; fill: rgb(138, 165, 61); fill-opacity: 1;"/><path class="meanline" d="M212.10227966308594,28.41H189.89772033691406" style="fill: none; vector-effect: none; stroke-width: 0.5px; stroke-dasharray: 1px, 0.5px; stroke: rgb(0, 0, 0); stroke-opacity: 1;"/></g><g class="trace violins" style="opacity: 1;"><path class="violin" d="M258.53,150.43Q258.58,148.66 258.61,147.78C258.64,146.89 258.69,146.01 258.73,145.12C258.77,144.23 258.82,143.35 258.87,142.46C258.92,141.57 258.97,140.69 259.01,139.8C259.05,138.92 259.1,138.03 259.12,137.15C259.15,136.26 259.16,135.38 259.16,134.49C259.16,133.6 259.14,132.72 259.12,131.83C259.1,130.95 259.06,130.06 259.02,129.18C258.98,128.29 258.93,127.41 258.88,126.52C258.83,125.63 258.77,124.75 258.73,123.86C258.69,122.97 258.65,122.09 258.62,121.2C258.59,120.32 258.56,119.43 258.54,118.55C258.52,117.66 258.5,116.78 258.49,115.89C258.48,115 258.48,114.12 258.48,113.23C258.48,112.35 258.5,111.46 258.51,110.58C258.53,109.69 258.54,108.81 258.57,107.92C258.6,107.03 258.63,106.15 258.67,105.26C258.71,104.37 258.75,103.49 258.8,102.6C258.85,101.72 258.91,100.83 258.95,99.95C259,99.06 259.04,98.18 259.07,97.29C259.1,96.4 259.14,95.52 259.15,94.63C259.16,93.75 259.16,92.86 259.15,91.98C259.14,91.09 259.11,90.21 259.08,89.32C259.05,88.43 259.01,87.55 258.97,86.66C258.93,85.77 258.88,84.89 258.85,84C258.82,83.12 258.78,82.23 258.77,81.35C258.76,80.46 258.76,79.58 258.77,78.69C258.78,77.8 258.81,76.92 258.85,76.03C258.89,75.15 258.96,74.26 259.03,73.38C259.11,72.49 259.2,71.61 259.3,70.72C259.41,69.83 259.53,68.95 259.66,68.06C259.79,67.17 259.94,66.28 260.1,65.4C260.26,64.51 260.44,63.63 260.63,62.75C260.82,61.86 261.03,60.98 261.24,60.09C261.45,59.2 261.67,58.32 261.88,57.43C262.09,56.55 262.31,55.67 262.5,54.78C262.69,53.9 262.87,53.01 263.03,52.12C263.18,51.24 263.31,50.35 263.43,49.46C263.55,48.57 263.64,47.69 263.76,46.8C263.88,45.92 263.99,45.03 264.14,44.15C264.3,43.26 264.46,42.37 264.69,41.49C264.92,40.6 265.19,39.71 265.51,38.83C265.83,37.94 266.21,37.06 266.6,36.18C267,35.29 267.44,34.4 267.87,33.52C268.3,32.63 268.77,31.75 269.2,30.86C269.63,29.98 270.06,29.09 270.44,28.2C270.82,27.32 271.19,26.44 271.48,25.55C271.77,24.67 272.03,23.78 272.2,22.89C272.37,22.01 272.49,21.12 272.5,20.23C272.51,19.35 272.44,18.46 272.27,17.58C272.1,16.69 271.82,15.79 271.47,14.92C271.11,14.02 270.62,13.13 270.11,12.26C269.58,11.36 268.94,10.48 268.31,9.6C267.67,8.71 266.96,7.83 266.28,6.95C265.6,6.06 264.89,5.19 264.24,4.29C263.6,3.41 262.97,2.53 262.41,1.63C261.87,0.76 261.37,-0.12 260.95,-1.02C260.54,-1.89 260.18,-2.78 259.89,-3.68C259.6,-4.56 259.38,-5.45 259.2,-6.34Q259.02,-7.22 258.8,-9L258.05,-9Q257.83,-7.22 257.65,-6.34C257.47,-5.45 257.26,-4.56 256.97,-3.68C256.68,-2.78 256.32,-1.89 255.91,-1.02C255.48,-0.12 254.98,0.76 254.44,1.63C253.88,2.53 253.26,3.41 252.62,4.29C251.97,5.19 251.26,6.06 250.58,6.95C249.9,7.83 249.19,8.71 248.55,9.6C247.92,10.48 247.28,11.36 246.75,12.26C246.24,13.13 245.75,14.02 245.39,14.92C245.04,15.79 244.76,16.69 244.59,17.58C244.42,18.46 244.35,19.35 244.36,20.23C244.37,21.12 244.49,22.01 244.66,22.89C244.83,23.78 245.09,24.67 245.38,25.55C245.67,26.44 246.04,27.32 246.42,28.2C246.8,29.09 247.23,29.98 247.66,30.86C248.09,31.75 248.56,32.63 248.99,33.52C249.42,34.4 249.86,35.29 250.26,36.18C250.65,37.06 251.03,37.94 251.35,38.83C251.67,39.71 251.94,40.6 252.17,41.49C252.4,42.37 252.57,43.26 252.72,44.15C252.87,45.03 252.97,45.92 253.09,46.8C253.21,47.69 253.31,48.57 253.43,49.46C253.55,50.35 253.68,51.24 253.83,52.12C253.99,53.01 254.17,53.9 254.36,54.78C254.55,55.67 254.77,56.55 254.98,57.43C255.19,58.32 255.41,59.2 255.62,60.09C255.83,60.98 256.04,61.86 256.23,62.75C256.42,63.63 256.6,64.51 256.76,65.4C256.92,66.28 257.07,67.17 257.2,68.06C257.33,68.95 257.44,69.83 257.55,70.72C257.65,71.61 257.75,72.49 257.83,73.38C257.9,74.26 257.96,75.15 258,76.03C258.04,76.92 258.08,77.8 258.09,78.69C258.1,79.58 258.09,80.46 258.08,81.35C258.07,82.23 258.04,83.12 258.01,84C257.98,84.89 257.93,85.77 257.89,86.66C257.85,87.55 257.8,88.43 257.77,89.32C257.74,90.21 257.71,91.09 257.7,91.98C257.69,92.86 257.7,93.75 257.71,94.63C257.72,95.52 257.75,96.4 257.78,97.29C257.81,98.18 257.86,99.06 257.91,99.95C257.96,100.83 258.01,101.72 258.06,102.6C258.11,103.49 258.15,104.37 258.19,105.26C258.23,106.15 258.26,107.03 258.29,107.92C258.32,108.81 258.34,109.69 258.35,110.58C258.36,111.46 258.37,112.35 258.37,113.23C258.37,114.12 258.38,115 258.37,115.89C258.36,116.78 258.34,117.66 258.32,118.55C258.3,119.43 258.27,120.32 258.24,121.2C258.21,122.09 258.16,122.97 258.12,123.86C258.08,124.75 258.03,125.63 257.98,126.52C257.93,127.41 257.88,128.29 257.84,129.18C257.8,130.06 257.75,130.95 257.73,131.83C257.71,132.72 257.7,133.6 257.7,134.49C257.7,135.38 257.72,136.26 257.74,137.15C257.76,138.03 257.8,138.92 257.84,139.8C257.88,140.69 257.94,141.57 257.99,142.46C258.04,143.35 258.09,144.23 258.13,145.12C258.17,146.01 258.22,146.89 258.25,147.78Q258.28,148.66 258.33,150.43Z" style="vector-effect: none; stroke-width: 0.5px; stroke: rgb(0, 0, 0); stroke-opacity: 1; fill: rgb(186, 105, 190); fill-opacity: 1;"/><path class="meanline" d="M268.7989807128906,31.67H248.0610192871094" style="fill: none; vector-effect: none; stroke-width: 0.5px; stroke-dasharray: 1px, 0.5px; stroke: rgb(0, 0, 0); stroke-opacity: 1;"/></g><g class="trace violins" style="opacity: 1;"><path class="violin" d="M315.93,105.16Q315.97,103.31 315.99,102.39C316.02,101.47 316.05,100.54 316.08,99.62C316.11,98.7 316.15,97.78 316.18,96.86C316.22,95.94 316.26,95.01 316.29,94.09C316.32,93.17 316.35,92.24 316.37,91.32C316.39,90.4 316.41,89.47 316.41,88.55C316.41,87.63 316.41,86.7 316.4,85.78C316.39,84.86 316.38,83.93 316.37,83.01C316.36,82.09 316.33,81.16 316.33,80.24C316.33,79.32 316.33,78.39 316.34,77.47C316.35,76.55 316.38,75.62 316.42,74.7C316.46,73.78 316.52,72.86 316.59,71.94C316.66,71.02 316.75,70.09 316.86,69.17C316.97,68.25 317.1,67.32 317.24,66.4C317.38,65.48 317.54,64.55 317.71,63.63C317.88,62.71 318.07,61.78 318.26,60.86C318.45,59.94 318.64,59.01 318.83,58.09C319.02,57.17 319.2,56.24 319.38,55.32C319.56,54.4 319.74,53.47 319.92,52.55C320.1,51.63 320.27,50.71 320.45,49.79C320.64,48.87 320.82,47.94 321.03,47.02C321.24,46.1 321.47,45.17 321.7,44.25C321.94,43.33 322.19,42.4 322.44,41.48C322.69,40.56 322.95,39.63 323.21,38.71C323.47,37.79 323.74,36.86 324.01,35.94C324.28,35.02 324.54,34.09 324.83,33.17C325.12,32.24 325.41,31.32 325.74,30.4C326.07,29.47 326.43,28.55 326.79,27.63C327.16,26.71 327.56,25.79 327.93,24.87C328.3,23.95 328.7,23.03 329.01,22.1C329.31,21.18 329.62,20.26 329.77,19.33C329.92,18.41 330.01,17.48 329.93,16.56C329.85,15.63 329.62,14.69 329.29,13.79C328.94,12.84 328.43,11.92 327.87,11.02C327.29,10.07 326.55,9.16 325.84,8.25C325.11,7.32 324.3,6.41 323.54,5.48C322.79,4.56 322.01,3.65 321.32,2.71C320.65,1.8 320,0.89 319.44,-0.05C318.9,-0.96 318.42,-1.88 318.02,-2.82C317.63,-3.73 317.32,-4.66 317.06,-5.59C316.8,-6.51 316.62,-7.43 316.47,-8.36Q316.32,-9.28 316.14,-11.13L315.57,-11.13Q315.39,-9.28 315.24,-8.36C315.09,-7.43 314.91,-6.51 314.66,-5.59C314.4,-4.66 314.09,-3.73 313.7,-2.82C313.3,-1.88 312.82,-0.96 312.28,-0.05C311.72,0.89 311.07,1.8 310.4,2.71C309.71,3.65 308.93,4.56 308.18,5.48C307.42,6.41 306.61,7.32 305.88,8.25C305.17,9.16 304.44,10.07 303.85,11.02C303.29,11.92 302.77,12.84 302.42,13.79C302.09,14.69 301.87,15.63 301.79,16.56C301.71,17.48 301.79,18.41 301.94,19.33C302.09,20.26 302.4,21.18 302.7,22.1C303.01,23.03 303.41,23.95 303.78,24.87C304.15,25.79 304.56,26.71 304.93,27.63C305.29,28.55 305.64,29.47 305.97,30.4C306.3,31.32 306.6,32.24 306.89,33.17C307.18,34.09 307.44,35.02 307.71,35.94C307.98,36.86 308.24,37.79 308.5,38.71C308.76,39.63 309.03,40.56 309.28,41.48C309.53,42.4 309.79,43.33 310.02,44.25C310.25,45.17 310.47,46.1 310.68,47.02C310.89,47.94 311.08,48.87 311.27,49.79C311.46,50.71 311.62,51.63 311.8,52.55C311.98,53.47 312.15,54.4 312.33,55.32C312.51,56.24 312.7,57.17 312.89,58.09C313.08,59.01 313.27,59.94 313.46,60.86C313.64,61.78 313.83,62.71 314,63.63C314.17,64.55 314.34,65.48 314.48,66.4C314.62,67.32 314.74,68.25 314.85,69.17C314.96,70.09 315.05,71.02 315.13,71.94C315.2,72.86 315.26,73.78 315.3,74.7C315.34,75.62 315.36,76.55 315.37,77.47C315.38,78.39 315.38,79.32 315.38,80.24C315.38,81.16 315.36,82.09 315.35,83.01C315.34,83.93 315.32,84.86 315.31,85.78C315.3,86.7 315.3,87.63 315.3,88.55C315.3,89.47 315.32,90.4 315.34,91.32C315.36,92.24 315.4,93.17 315.43,94.09C315.46,95.01 315.49,95.94 315.53,96.86C315.56,97.78 315.61,98.7 315.64,99.62C315.67,100.54 315.7,101.47 315.72,102.39Q315.74,103.31 315.78,105.16Z" style="vector-effect: none; stroke-width: 0.5px; stroke: rgb(0, 0, 0); stroke-opacity: 1; fill: rgb(185, 178, 194); fill-opacity: 1;"/><path class="meanline" d="M326.8711242675781,27.43H304.8488757324219" style="fill: none; vector-effect: none; stroke-width: 0.5px; stroke-dasharray: 1px, 0.5px; stroke: rgb(0, 0, 0); stroke-opacity: 1;"/></g><g class="trace violins" style="opacity: 1;"><path class="violin" d="M373.32,139.86Q373.34,138.95 373.35,138.49C373.36,138.03 373.37,137.58 373.39,137.12C373.4,136.67 373.42,136.21 373.44,135.76C373.46,135.3 373.48,134.85 373.49,134.39C373.5,133.93 373.51,133.48 373.52,133.02C373.53,132.56 373.54,132.11 373.54,131.65C373.54,131.2 373.53,130.74 373.52,130.29C373.51,129.83 373.5,129.38 373.49,128.92C373.48,128.46 373.46,128.01 373.44,127.55C373.42,127.09 373.41,126.64 373.39,126.18C373.38,125.73 373.36,125.27 373.35,124.82C373.34,124.36 373.33,123.91 373.32,123.45C373.31,122.99 373.31,122.54 373.3,122.08C373.3,121.62 373.29,121.17 373.29,120.71C373.29,120.26 373.29,119.8 373.29,119.35C373.29,118.89 373.29,118.44 373.29,117.98C373.29,117.52 373.29,117.07 373.29,116.61C373.29,116.15 373.29,115.7 373.29,115.24C373.29,114.78 373.29,114.33 373.29,113.87C373.29,113.42 373.29,112.96 373.29,112.51C373.29,112.05 373.29,111.6 373.29,111.14C373.29,110.68 373.29,110.23 373.29,109.77C373.29,109.31 373.29,108.86 373.29,108.4C373.29,107.95 373.29,107.49 373.29,107.04C373.29,106.58 373.29,106.13 373.29,105.67C373.29,105.21 373.29,104.76 373.29,104.3C373.29,103.84 373.29,103.39 373.29,102.93C373.29,102.48 373.29,102.02 373.29,101.57C373.29,101.11 373.29,100.66 373.29,100.2C373.29,99.74 373.29,99.29 373.29,98.83C373.29,98.37 373.29,97.92 373.29,97.46C373.29,97 373.29,96.55 373.29,96.09C373.29,95.64 373.3,95.18 373.3,94.73C373.3,94.27 373.31,93.82 373.31,93.36C373.32,92.9 373.32,92.45 373.33,91.99C373.34,91.53 373.35,91.08 373.37,90.62C373.38,90.17 373.4,89.71 373.42,89.26C373.44,88.8 373.45,88.35 373.47,87.89C373.48,87.43 373.5,86.98 373.51,86.52C373.52,86.06 373.53,85.61 373.53,85.15C373.53,84.7 373.53,84.24 373.53,83.79C373.53,83.33 373.51,82.88 373.5,82.42C373.49,81.96 373.47,81.51 373.46,81.05C373.44,80.59 373.43,80.14 373.41,79.68C373.39,79.23 373.37,78.77 373.36,78.32C373.35,77.86 373.34,77.41 373.33,76.95C373.32,76.49 373.32,76.04 373.31,75.58C373.31,75.12 373.3,74.67 373.3,74.21C373.3,73.75 373.29,73.3 373.29,72.84C373.29,72.39 373.29,71.93 373.29,71.48C373.29,71.02 373.29,70.57 373.29,70.11C373.29,69.65 373.29,69.2 373.29,68.74C373.29,68.28 373.29,67.83 373.3,67.37C373.3,66.92 373.31,66.46 373.32,66.01C373.33,65.55 373.35,65.1 373.37,64.64C373.39,64.18 373.42,63.73 373.45,63.27C373.49,62.81 373.53,62.36 373.58,61.9C373.63,61.45 373.69,60.99 373.76,60.54C373.83,60.08 373.9,59.63 373.98,59.17C374.06,58.71 374.14,58.26 374.22,57.8C374.29,57.34 374.37,56.89 374.43,56.43C374.49,55.97 374.54,55.52 374.57,55.06C374.6,54.61 374.61,54.15 374.61,53.7C374.61,53.24 374.58,52.79 374.55,52.33C374.52,51.87 374.46,51.42 374.41,50.96C374.36,50.5 374.29,50.05 374.24,49.59C374.19,49.14 374.12,48.68 374.09,48.23C374.05,47.77 374.03,47.32 374.03,46.86C374.03,46.4 374.04,45.95 374.08,45.49C374.12,45.03 374.19,44.57 374.27,44.12C374.36,43.66 374.47,43.21 374.59,42.76C374.72,42.3 374.86,41.84 375.02,41.39C375.18,40.93 375.36,40.47 375.54,40.02C375.73,39.56 375.92,39.1 376.13,38.65C376.34,38.19 376.56,37.74 376.79,37.29C377.03,36.83 377.28,36.37 377.54,35.92C377.8,35.46 378.08,35 378.37,34.55C378.66,34.09 378.96,33.64 379.26,33.18C379.56,32.72 379.87,32.27 380.17,31.81C380.47,31.36 380.78,30.91 381.08,30.45C381.38,30 381.67,29.54 381.96,29.08C382.25,28.62 382.54,28.17 382.84,27.71C383.14,27.25 383.44,26.79 383.75,26.34C384.06,25.88 384.37,25.43 384.68,24.98C384.99,24.52 385.31,24.07 385.6,23.61C385.89,23.16 386.19,22.7 386.43,22.24C386.67,21.79 386.89,21.33 387.05,20.87C387.2,20.42 387.32,19.97 387.36,19.51C387.4,19.06 387.37,18.59 387.29,18.14C387.21,17.68 387.05,17.22 386.86,16.77C386.66,16.3 386.4,15.85 386.13,15.4C385.85,14.93 385.52,14.48 385.18,14.03C384.83,13.57 384.44,13.12 384.04,12.67C383.63,12.21 383.2,11.75 382.76,11.3C382.31,10.84 381.85,10.38 381.39,9.93C380.92,9.47 380.44,9.02 379.97,8.56C379.5,8.11 379.02,7.66 378.57,7.2C378.12,6.75 377.68,6.29 377.27,5.83C376.87,5.38 376.49,4.92 376.14,4.46C375.8,4.01 375.49,3.55 375.21,3.09C374.95,2.64 374.71,2.19 374.51,1.73C374.31,1.28 374.15,0.82 374.01,0.36C373.87,-0.09 373.77,-0.55 373.68,-1.01C373.59,-1.46 373.54,-1.92 373.49,-2.38Q373.44,-2.83 373.38,-3.74L373.19,-3.74Q373.14,-2.83 373.09,-2.38C373.04,-1.92 372.98,-1.46 372.89,-1.01C372.8,-0.55 372.7,-0.09 372.56,0.36C372.42,0.82 372.26,1.28 372.06,1.73C371.86,2.19 371.62,2.64 371.36,3.09C371.08,3.55 370.77,4.01 370.43,4.46C370.08,4.92 369.7,5.38 369.3,5.83C368.89,6.29 368.44,6.75 368,7.2C367.55,7.66 367.08,8.11 366.61,8.56C366.14,9.02 365.65,9.47 365.18,9.93C364.72,10.38 364.26,10.84 363.81,11.3C363.37,11.75 362.94,12.21 362.53,12.67C362.13,13.12 361.75,13.57 361.4,14.03C361.06,14.48 360.73,14.93 360.44,15.4C360.16,15.85 359.91,16.3 359.71,16.77C359.52,17.22 359.36,17.68 359.28,18.14C359.2,18.59 359.18,19.06 359.22,19.51C359.26,19.97 359.37,20.42 359.52,20.87C359.67,21.33 359.9,21.79 360.14,22.24C360.38,22.7 360.68,23.16 360.97,23.61C361.26,24.07 361.58,24.52 361.89,24.98C362.2,25.43 362.51,25.88 362.82,26.34C363.13,26.79 363.43,27.25 363.73,27.71C364.03,28.17 364.32,28.62 364.61,29.08C364.91,29.54 365.2,29.99 365.5,30.45C365.8,30.9 366.1,31.36 366.4,31.81C366.7,32.27 367.01,32.72 367.31,33.18C367.61,33.64 367.91,34.09 368.2,34.55C368.49,35 368.77,35.46 369.03,35.92C369.29,36.37 369.54,36.83 369.78,37.29C370.01,37.74 370.24,38.19 370.45,38.65C370.66,39.1 370.85,39.56 371.03,40.02C371.21,40.47 371.39,40.93 371.55,41.39C371.71,41.84 371.85,42.3 371.98,42.76C372.1,43.21 372.21,43.66 372.3,44.12C372.38,44.57 372.45,45.03 372.49,45.49C372.53,45.95 372.55,46.4 372.55,46.86C372.55,47.32 372.52,47.77 372.48,48.23C372.44,48.68 372.38,49.14 372.33,49.59C372.28,50.05 372.21,50.5 372.16,50.96C372.11,51.42 372.05,51.87 372.02,52.33C371.99,52.79 371.96,53.24 371.96,53.7C371.96,54.15 371.98,54.61 372.01,55.06C372.04,55.52 372.09,55.97 372.15,56.43C372.21,56.89 372.28,57.34 372.35,57.8C372.42,58.26 372.51,58.71 372.59,59.17C372.67,59.63 372.74,60.08 372.81,60.54C372.88,60.99 372.94,61.45 372.99,61.9C373.04,62.36 373.08,62.81 373.12,63.27C373.15,63.73 373.18,64.18 373.2,64.64C373.22,65.1 373.24,65.55 373.25,66.01C373.26,66.46 373.27,66.92 373.27,67.37C373.28,67.83 373.28,68.28 373.28,68.74C373.28,69.2 373.28,69.65 373.28,70.11C373.28,70.57 373.28,71.02 373.28,71.48C373.28,71.93 373.28,72.39 373.28,72.84C373.28,73.3 373.28,73.75 373.28,74.21C373.28,74.67 373.27,75.12 373.26,75.58C373.25,76.04 373.25,76.49 373.24,76.95C373.23,77.41 373.22,77.86 373.21,78.32C373.2,78.77 373.18,79.23 373.16,79.68C373.14,80.14 373.13,80.59 373.11,81.05C373.1,81.51 373.08,81.96 373.07,82.42C373.06,82.88 373.04,83.33 373.04,83.79C373.04,84.24 373.04,84.7 373.04,85.15C373.04,85.61 373.05,86.06 373.06,86.52C373.07,86.98 373.09,87.43 373.1,87.89C373.12,88.35 373.13,88.8 373.15,89.26C373.17,89.71 373.19,90.17 373.2,90.62C373.22,91.08 373.23,91.53 373.24,91.99C373.25,92.45 373.25,92.9 373.26,93.36C373.26,93.82 373.27,94.27 373.27,94.73C373.27,95.18 373.28,95.64 373.28,96.09C373.28,96.55 373.28,97 373.28,97.46C373.28,97.92 373.29,98.37 373.29,98.83C373.29,99.29 373.29,99.74 373.29,100.2C373.29,100.66 373.29,101.11 373.29,101.57C373.29,102.02 373.29,102.48 373.29,102.93C373.29,103.39 373.29,103.84 373.29,104.3C373.29,104.76 373.29,105.21 373.29,105.67C373.29,106.13 373.29,106.58 373.29,107.04C373.29,107.49 373.29,107.95 373.29,108.4C373.29,108.86 373.29,109.31 373.29,109.77C373.29,110.23 373.29,110.68 373.29,111.14C373.29,111.6 373.29,112.05 373.29,112.51C373.29,112.96 373.29,113.42 373.29,113.87C373.29,114.33 373.29,114.78 373.29,115.24C373.29,115.7 373.29,116.15 373.29,116.61C373.29,117.07 373.28,117.52 373.28,117.98C373.28,118.44 373.28,118.89 373.28,119.35C373.28,119.8 373.28,120.26 373.28,120.71C373.28,121.17 373.27,121.62 373.27,122.08C373.26,122.54 373.26,122.99 373.25,123.45C373.24,123.91 373.23,124.36 373.22,124.82C373.21,125.27 373.19,125.73 373.18,126.18C373.16,126.64 373.15,127.09 373.13,127.55C373.12,128.01 373.1,128.46 373.09,128.92C373.08,129.38 373.06,129.83 373.05,130.29C373.04,130.74 373.04,131.2 373.04,131.65C373.04,132.11 373.04,132.56 373.05,133.02C373.06,133.48 373.08,133.93 373.09,134.39C373.1,134.85 373.11,135.3 373.13,135.76C373.14,136.21 373.17,136.67 373.18,137.12C373.2,137.58 373.21,138.03 373.22,138.49Q373.23,138.95 373.25,139.86Z" style="vector-effect: none; stroke-width: 0.5px; stroke: rgb(0, 0, 0); stroke-opacity: 1; fill: rgb(181, 174, 112); fill-opacity: 1;"/><path class="meanline" d="M385.53631591796875,23.71H361.0436840820313" style="fill: none; vector-effect: none; stroke-width: 0.5px; stroke-dasharray: 1px, 0.5px; stroke: rgb(0, 0, 0); stroke-opacity: 1;"/></g></g></g><g class="overplot"/><path class="xlines-above crisp" d="M52.5,221.25H455" style="fill: none; stroke-width: 0.5px; stroke: rgb(0, 0, 0); stroke-opacity: 1;"/><path class="ylines-above crisp" d="M52.75,20V221" style="fill: none; stroke-width: 0.5px; stroke: rgb(0, 0, 0); stroke-opacity: 1;"/><g class="overlines-above"/><g class="xaxislayer-above"><path class="xtick ticks crisp" d="M0,221.5v5" transform="translate(81.71000000000001,0)" style="stroke: rgb(68, 68, 68); stroke-opacity: 1; stroke-width: 0.5px;"/><path class="xtick ticks crisp" d="M0,221.5v5" transform="translate(139.14,0)" style="stroke: rgb(68, 68, 68); stroke-opacity: 1; stroke-width: 0.5px;"/><path class="xtick ticks crisp" d="M0,221.5v5" transform="translate(196.57,0)" style="stroke: rgb(68, 68, 68); stroke-opacity: 1; stroke-width: 0.5px;"/><path class="xtick ticks crisp" d="M0,221.5v5" transform="translate(254,0)" style="stroke: rgb(68, 68, 68); stroke-opacity: 1; stroke-width: 0.5px;"/><path class="xtick ticks crisp" d="M0,221.5v5" transform="translate(311.43,0)" style="stroke: rgb(68, 68, 68); stroke-opacity: 1; stroke-width: 0.5px;"/><path class="xtick ticks crisp" d="M0,221.5v5" transform="translate(368.86,0)" style="stroke: rgb(68, 68, 68); stroke-opacity: 1; stroke-width: 0.5px;"/><path class="xtick ticks crisp" d="M0,221.5v5" transform="translate(426.29,0)" style="stroke: rgb(68, 68, 68); stroke-opacity: 1; stroke-width: 0.5px;"/><g class="xtick"><text text-anchor="start" x="0" y="240.9" transform="translate(81.71000000000001,0) rotate(30,0,234.9)" style="font-family: Helvetica; font-size: 12px; fill: rgb(0, 0, 0); fill-opacity: 1; white-space: pre; opacity: 1;">canonical (t/d)</text></g><g class="xtick"><text text-anchor="start" x="0" y="240.9" transform="translate(139.14,0) rotate(30,0,234.9)" style="font-family: Helvetica; font-size: 12px; fill: rgb(0, 0, 0); fill-opacity: 1; white-space: pre; opacity: 1;">canonical (PISCES)</text></g><g class="xtick"><text text-anchor="start" x="0" y="240.9" transform="translate(196.57,0) rotate(30,0,234.9)" style="font-family: Helvetica; font-size: 12px; fill: rgb(0, 0, 0); fill-opacity: 1; white-space: pre; opacity: 1;">spliced</text></g><g class="xtick"><text text-anchor="start" x="0" y="240.9" transform="translate(254,0) rotate(30,0,234.9)" style="font-family: Helvetica; font-size: 12px; fill: rgb(0, 0, 0); fill-opacity: 1; white-space: pre; opacity: 1;">multimapped</text></g><g class="xtick"><text text-anchor="start" x="0" y="240.9" transform="translate(311.43,0) rotate(30,0,234.9)" style="font-family: Helvetica; font-size: 12px; fill: rgb(0, 0, 0); fill-opacity: 1; white-space: pre; opacity: 1;">cryptic</text></g><g class="xtick"><text text-anchor="start" x="0" y="240.9" transform="translate(368.86,0) rotate(30,0,234.9)" style="font-family: Helvetica; font-size: 12px; fill: rgb(0, 0, 0); fill-opacity: 1; white-space: pre; opacity: 1;">unmapped</text></g><g class="xtick"><text text-anchor="start" x="0" y="240.9" transform="translate(426.29,0) rotate(30,0,234.9)" style="font-family: Helvetica; font-size: 12px; fill: rgb(0, 0, 0); fill-opacity: 1; white-space: pre; opacity: 1;">contaminants</text></g></g><g class="yaxislayer-above"><path class="ytick ticks crisp" d="M52.5,0h-5" transform="translate(0,221)" style="stroke: rgb(68, 68, 68); stroke-opacity: 1; stroke-width: 0.5px;"/><path class="ytick ticks crisp" d="M52.5,0h-5" transform="translate(0,180.8)" style="stroke: rgb(68, 68, 68); stroke-opacity: 1; stroke-width: 0.5px;"/><path class="ytick ticks crisp" d="M52.5,0h-5" transform="translate(0,140.6)" style="stroke: rgb(68, 68, 68); stroke-opacity: 1; stroke-width: 0.5px;"/><path class="ytick ticks crisp" d="M52.5,0h-5" transform="translate(0,100.4)" style="stroke: rgb(68, 68, 68); stroke-opacity: 1; stroke-width: 0.5px;"/><path class="ytick ticks crisp" d="M52.5,0h-5" transform="translate(0,60.2)" style="stroke: rgb(68, 68, 68); stroke-opacity: 1; stroke-width: 0.5px;"/><path class="ytick ticks crisp" d="M52.5,0h-5" transform="translate(0,20)" style="stroke: rgb(68, 68, 68); stroke-opacity: 1; stroke-width: 0.5px;"/><g class="ytick"><text text-anchor="end" x="45.1" y="4.199999999999999" transform="translate(0,221)" style="font-family: Helvetica; font-size: 12px; fill: rgb(0, 0, 0); fill-opacity: 1; white-space: pre; opacity: 1;">0</text></g><g class="ytick"><text text-anchor="end" x="45.1" y="4.199999999999999" style="font-family: Helvetica; font-size: 12px; fill: rgb(0, 0, 0); fill-opacity: 1; white-space: pre; opacity: 1;" transform="translate(0,180.8)">0.2</text></g><g class="ytick"><text text-anchor="end" x="45.1" y="4.199999999999999" style="font-family: Helvetica; font-size: 12px; fill: rgb(0, 0, 0); fill-opacity: 1; white-space: pre; opacity: 1;" transform="translate(0,140.6)">0.4</text></g><g class="ytick"><text text-anchor="end" x="45.1" y="4.199999999999999" style="font-family: Helvetica; font-size: 12px; fill: rgb(0, 0, 0); fill-opacity: 1; white-space: pre; opacity: 1;" transform="translate(0,100.4)">0.6</text></g><g class="ytick"><text text-anchor="end" x="45.1" y="4.199999999999999" style="font-family: Helvetica; font-size: 12px; fill: rgb(0, 0, 0); fill-opacity: 1; white-space: pre; opacity: 1;" transform="translate(0,60.2)">0.8</text></g><g class="ytick"><text text-anchor="end" x="45.1" y="4.199999999999999" style="font-family: Helvetica; font-size: 12px; fill: rgb(0, 0, 0); fill-opacity: 1; white-space: pre; opacity: 1;" transform="translate(0,20)">1</text></g></g><g class="overaxes-above"/></g></g><g class="polarlayer"/><g class="smithlayer"/><g class="ternarylayer"/><g class="geolayer"/><g class="funnelarealayer"/><g class="pielayer"/><g class="iciclelayer"/><g class="treemaplayer"/><g class="sunburstlayer"/><g class="glimages"/><defs id="topdefs-265028"><g class="clips"/></defs><g class="layer-above"><g class="imagelayer"/><g class="shapelayer"/></g><g class="infolayer"><g class="g-gtitle"/><g class="g-xtitle"/><g class="g-ytitle" transform="translate(12.4560546875,0)"><text class="ytitle" transform="rotate(-90,0.5437500000000028,120.5)" x="0.5437500000000028" y="120.5" text-anchor="middle" style="font-family: Helvetica; font-size: 14px; fill: rgb(0, 0, 0); opacity: 1; font-weight: normal; white-space: pre;">Spectral Angle</text></g></g></svg>