<svg class="main-svg" xmlns="http://www.w3.org/2000/svg" xmlns:xlink="http://www.w3.org/1999/xlink" width="500" height="300" style="" viewBox="0 0 500 300"><rect x="0" y="0" width="500" height="300" style="fill: rgb(255, 255, 255); fill-opacity: 1;"/><defs id="defs-2c72db"><g class="clips"><clipPath id="clip2c72dbxyplot" class="plotclip"><rect width="402" height="201"/></clipPath><clipPath class="axesclip" id="clip2c72dbx"><rect x="53" y="0" width="402" height="300"/></clipPath><clipPath class="axesclip" id="clip2c72dby"><rect x="0" y="20" width="500" height="201"/></clipPath><clipPath class="axesclip" id="clip2c72dbxy"><rect x="53" y="20" width="402" height="201"/></clipPath></g><g class="gradients"/><g class="patterns"/></defs><g class="bglayer"><rect class="bg" x="53" y="20" width="402" height="201" style="fill: rgb(0, 0, 0); fill-opacity: 0; stroke-width: 0;"/></g><g class="layer-below"><g class="imagelayer"/><g class="shapelayer"/></g><g class="cartesianlayer"><g class="subplot xy"><g class="layer-subplot"><g class="shapelayer"/><g class="imagelayer"/></g><g class="minor-gridlayer"><g class="x"/><g class="y"/></g><g class="gridlayer"><g class="x"/><g class="y"/></g><g class="zerolinelayer"/><path class="xlines-below"/><path class="ylines-below"/><g class="overlines-below"/><g class="xaxislayer-below"/><g class="yaxislayer-below"/><g class="overaxes-below"/><g class="plot" transform="translate(53,20)" clip-path="url(#clip2c72dbxyplot)"><g class="violinlayer mlayer"><g class="trace violins" style="opacity: 1;"><path class="violin" d="M28.72,194.77Q28.72,193.54 28.72,192.93C28.72,192.32 28.72,191.7 28.72,191.09C28.72,190.48 28.72,189.86 28.72,189.25C28.72,188.63 28.73,188.02 28.73,187.4C28.73,186.79 28.73,186.17 28.73,185.56C28.73,184.95 28.74,184.33 28.75,183.72C28.75,183.11 28.76,182.49 28.76,181.88C28.77,181.27 28.77,180.65 28.78,180.04C28.79,179.42 28.79,178.81 28.8,178.19C28.81,177.58 28.81,176.96 28.82,176.35C28.83,175.74 28.83,175.12 28.84,174.51C28.85,173.9 28.85,173.28 28.86,172.67C28.87,172.05 28.87,171.44 28.88,170.82C28.89,170.21 28.89,169.59 28.9,168.98C28.91,168.37 28.91,167.75 28.92,167.14C28.93,166.53 28.94,165.91 28.95,165.3C28.96,164.68 28.97,164.07 28.98,163.45C28.99,162.84 29,162.22 29.02,161.61C29.04,161 29.06,160.38 29.08,159.77C29.1,159.16 29.12,158.54 29.14,157.93C29.16,157.32 29.18,156.7 29.2,156.09C29.22,155.47 29.24,154.86 29.26,154.24C29.28,153.63 29.29,153.01 29.31,152.4C29.33,151.79 29.34,151.17 29.36,150.56C29.37,149.95 29.39,149.33 29.4,148.72C29.42,148.1 29.43,147.49 29.45,146.87C29.47,146.26 29.48,145.64 29.5,145.03C29.52,144.42 29.54,143.8 29.56,143.19C29.58,142.58 29.61,141.96 29.63,141.35C29.65,140.73 29.68,140.12 29.7,139.5C29.72,138.89 29.75,138.27 29.77,137.66C29.8,137.05 29.82,136.43 29.85,135.82C29.87,135.21 29.9,134.59 29.92,133.98C29.94,133.36 29.97,132.75 29.99,132.13C30.01,131.52 30.04,130.9 30.06,130.29C30.09,129.68 30.11,129.06 30.14,128.45C30.17,127.84 30.2,127.22 30.24,126.61C30.28,126 30.32,125.38 30.36,124.77C30.4,124.15 30.44,123.54 30.49,122.92C30.54,122.31 30.59,121.69 30.64,121.08C30.69,120.47 30.74,119.85 30.79,119.24C30.84,118.63 30.88,118.01 30.92,117.4C30.96,116.78 31,116.17 31.04,115.55C31.07,114.94 31.1,114.32 31.13,113.71C31.16,113.1 31.18,112.48 31.21,111.87C31.24,111.26 31.26,110.64 31.29,110.03C31.32,109.41 31.34,108.8 31.37,108.18C31.4,107.57 31.43,106.95 31.46,106.34C31.49,105.73 31.52,105.11 31.56,104.5C31.6,103.89 31.64,103.27 31.68,102.66C31.72,102.05 31.77,101.43 31.81,100.82C31.85,100.2 31.89,99.59 31.94,98.97C31.99,98.36 32.04,97.74 32.09,97.13C32.14,96.52 32.19,95.9 32.24,95.29C32.29,94.68 32.34,94.06 32.39,93.45C32.44,92.83 32.48,92.22 32.52,91.6C32.56,90.99 32.61,90.37 32.65,89.76C32.69,89.15 32.72,88.53 32.76,87.92C32.8,87.31 32.84,86.69 32.88,86.08C32.92,85.46 32.97,84.85 33.02,84.23C33.07,83.62 33.14,83 33.2,82.39C33.27,81.78 33.33,81.16 33.41,80.55C33.49,79.94 33.57,79.32 33.66,78.71C33.75,78.1 33.84,77.48 33.93,76.87C34.02,76.25 34.1,75.64 34.19,75.02C34.27,74.41 34.36,73.79 34.44,73.18C34.52,72.57 34.6,71.95 34.68,71.34C34.76,70.73 34.84,70.11 34.92,69.5C35.01,68.88 35.09,68.27 35.19,67.65C35.28,67.04 35.38,66.42 35.49,65.81C35.6,65.2 35.72,64.58 35.84,63.97C35.96,63.36 36.09,62.74 36.22,62.13C36.35,61.51 36.48,60.9 36.61,60.28C36.74,59.67 36.87,59.05 37,58.44C37.13,57.83 37.26,57.21 37.38,56.6C37.5,55.99 37.61,55.37 37.72,54.76C37.83,54.14 37.94,53.53 38.05,52.91C38.16,52.3 38.26,51.68 38.37,51.07C38.48,50.46 38.59,49.84 38.7,49.23C38.81,48.62 38.92,48 39.04,47.39C39.16,46.78 39.28,46.16 39.41,45.55C39.54,44.93 39.66,44.32 39.8,43.7C39.94,43.09 40.08,42.47 40.23,41.86C40.38,41.25 40.54,40.63 40.69,40.02C40.85,39.41 41.01,38.79 41.16,38.18C41.32,37.56 41.47,36.95 41.62,36.33C41.77,35.72 41.92,35.1 42.05,34.49C42.18,33.88 42.3,33.26 42.4,32.65C42.5,32.04 42.6,31.43 42.66,30.81C42.72,30.2 42.76,29.58 42.78,28.96C42.8,28.35 42.8,27.73 42.76,27.12C42.72,26.51 42.66,25.89 42.56,25.28C42.46,24.66 42.34,24.05 42.17,23.44C42,22.82 41.79,22.21 41.55,21.6C41.3,20.98 41.02,20.36 40.7,19.75C40.38,19.13 40.01,18.52 39.62,17.91C39.23,17.29 38.8,16.68 38.36,16.07C37.91,15.45 37.43,14.84 36.96,14.23C36.48,13.61 35.98,13 35.5,12.38C35.02,11.77 34.53,11.16 34.07,10.54C33.62,9.93 33.16,9.32 32.75,8.7C32.35,8.09 31.96,7.48 31.61,6.86C31.27,6.25 30.95,5.63 30.68,5.01C30.41,4.4 30.18,3.79 29.98,3.17C29.78,2.56 29.62,1.95 29.48,1.33C29.34,0.72 29.24,0.1 29.15,-0.51C29.06,-1.12 29,-1.74 28.95,-2.35C28.9,-2.97 28.86,-3.58 28.83,-4.2C28.8,-4.81 28.79,-5.43 28.77,-6.04Q28.76,-6.65 28.74,-7.88L28.69,-7.88Q28.67,-6.65 28.66,-6.04C28.64,-5.43 28.63,-4.81 28.6,-4.2C28.57,-3.58 28.53,-2.97 28.48,-2.35C28.43,-1.74 28.37,-1.12 28.28,-0.51C28.19,0.1 28.09,0.72 27.95,1.33C27.81,1.95 27.65,2.56 27.45,3.17C27.25,3.79 27.02,4.4 26.75,5.01C26.48,5.63 26.16,6.25 25.82,6.86C25.47,7.48 25.08,8.09 24.68,8.7C24.27,9.32 23.81,9.93 23.36,10.54C22.9,11.16 22.41,11.77 21.93,12.38C21.45,13 20.95,13.61 20.47,14.23C20,14.84 19.52,15.45 19.07,16.07C18.63,16.68 18.2,17.29 17.81,17.91C17.42,18.52 17.05,19.13 16.73,19.75C16.41,20.36 16.13,20.98 15.88,21.6C15.64,22.21 15.43,22.82 15.26,23.44C15.09,24.05 14.96,24.66 14.86,25.28C14.76,25.89 14.71,26.51 14.67,27.12C14.63,27.73 14.62,28.35 14.64,28.96C14.66,29.58 14.71,30.2 14.77,30.81C14.84,31.43 14.93,32.04 15.03,32.65C15.13,33.26 15.25,33.88 15.38,34.49C15.51,35.1 15.66,35.72 15.81,36.33C15.96,36.95 16.11,37.56 16.27,38.18C16.42,38.79 16.58,39.41 16.74,40.02C16.89,40.63 17.05,41.25 17.2,41.86C17.35,42.47 17.49,43.09 17.63,43.7C17.77,44.32 17.89,44.93 18.02,45.55C18.15,46.16 18.27,46.78 18.39,47.39C18.51,48 18.62,48.62 18.73,49.23C18.84,49.84 18.94,50.46 19.05,51.07C19.16,51.68 19.27,52.3 19.38,52.91C19.49,53.53 19.59,54.14 19.7,54.76C19.81,55.37 19.93,55.99 20.05,56.6C20.17,57.21 20.3,57.83 20.43,58.44C20.56,59.05 20.69,59.67 20.82,60.28C20.95,60.9 21.08,61.51 21.21,62.13C21.34,62.74 21.47,63.36 21.59,63.97C21.71,64.58 21.83,65.2 21.94,65.81C22.05,66.42 22.15,67.04 22.24,67.65C22.33,68.27 22.41,68.88 22.5,69.5C22.58,70.11 22.67,70.73 22.75,71.34C22.83,71.95 22.91,72.57 22.99,73.18C23.07,73.79 23.16,74.41 23.24,75.02C23.33,75.64 23.41,76.25 23.5,76.87C23.59,77.48 23.68,78.1 23.77,78.71C23.86,79.32 23.94,79.94 24.02,80.55C24.1,81.16 24.16,81.78 24.23,82.39C24.29,83 24.36,83.62 24.41,84.23C24.46,84.85 24.51,85.46 24.55,86.08C24.59,86.69 24.63,87.31 24.67,87.92C24.71,88.53 24.74,89.15 24.78,89.76C24.82,90.37 24.87,90.99 24.91,91.6C24.95,92.22 24.99,92.83 25.04,93.45C25.09,94.06 25.14,94.68 25.19,95.29C25.24,95.9 25.29,96.52 25.34,97.13C25.39,97.74 25.43,98.36 25.48,98.97C25.53,99.59 25.57,100.2 25.62,100.82C25.66,101.43 25.71,102.05 25.75,102.66C25.79,103.27 25.82,103.89 25.86,104.5C25.9,105.11 25.94,105.73 25.97,106.34C26,106.95 26.03,107.57 26.06,108.18C26.09,108.8 26.11,109.41 26.14,110.03C26.16,110.64 26.18,111.26 26.21,111.87C26.24,112.48 26.27,113.1 26.3,113.71C26.33,114.32 26.36,114.94 26.39,115.55C26.42,116.17 26.46,116.78 26.5,117.4C26.54,118.01 26.59,118.63 26.64,119.24C26.69,119.85 26.74,120.47 26.79,121.08C26.84,121.69 26.89,122.31 26.94,122.92C26.99,123.54 27.03,124.15 27.07,124.77C27.11,125.38 27.15,126 27.19,126.61C27.23,127.22 27.26,127.84 27.29,128.45C27.32,129.06 27.34,129.68 27.37,130.29C27.39,130.9 27.42,131.52 27.44,132.13C27.46,132.75 27.49,133.36 27.51,133.98C27.53,134.59 27.56,135.21 27.58,135.82C27.6,136.43 27.63,137.05 27.65,137.66C27.68,138.27 27.71,138.89 27.73,139.5C27.76,140.12 27.78,140.73 27.8,141.35C27.82,141.96 27.85,142.58 27.87,143.19C27.89,143.8 27.91,144.42 27.93,145.03C27.95,145.64 27.96,146.26 27.98,146.87C28,147.49 28.01,148.1 28.03,148.72C28.04,149.33 28.06,149.95 28.07,150.56C28.09,151.17 28.1,151.79 28.12,152.4C28.14,153.01 28.15,153.63 28.17,154.24C28.19,154.86 28.21,155.47 28.23,156.09C28.25,156.7 28.27,157.32 28.29,157.93C28.31,158.54 28.33,159.16 28.35,159.77C28.37,160.38 28.38,161 28.4,161.61C28.42,162.22 28.44,162.84 28.45,163.45C28.46,164.07 28.47,164.68 28.48,165.3C28.49,165.91 28.5,166.53 28.51,167.14C28.52,167.75 28.52,168.37 28.53,168.98C28.54,169.59 28.55,170.21 28.55,170.82C28.56,171.44 28.55,172.05 28.56,172.67C28.56,173.28 28.57,173.9 28.58,174.51C28.59,175.12 28.6,175.74 28.61,176.35C28.62,176.96 28.62,177.58 28.63,178.19C28.64,178.81 28.64,179.42 28.65,180.04C28.66,180.65 28.66,181.27 28.67,181.88C28.67,182.49 28.68,183.11 28.68,183.72C28.68,184.33 28.69,184.95 28.69,185.56C28.69,186.17 28.7,186.79 28.7,187.4C28.7,188.02 28.71,188.63 28.71,189.25C28.71,189.86 28.71,190.48 28.71,191.09C28.71,191.7 28.71,192.32 28.71,192.93Q28.71,193.54 28.71,194.77Z" style="vector-effect: none; stroke-width: 0.5px; stroke: rgb(0, 0, 0); stroke-opacity: 1; fill: rgb(244, 191, 145); fill-opacity: 1;"/><path class="meanline" d="M37.96078109741211,53.41H19.459218902587892" style="fill: none; vector-effect: none; stroke-width: 0.5px; stroke-dasharray: 1px, 0.5px; stroke: rgb(0, 0, 0); stroke-opacity: 1;"/></g><g class="trace violins" style="opacity: 1;"><path class="violin" d="M86.14,178.6Q86.15,178.01 86.15,177.71C86.15,177.41 86.15,177.12 86.15,176.82C86.15,176.52 86.15,176.23 86.15,175.93C86.15,175.63 86.15,175.34 86.15,175.04C86.15,174.74 86.16,174.45 86.16,174.15C86.16,173.85 86.16,173.56 86.16,173.26C86.16,172.96 86.16,172.67 86.16,172.37C86.16,172.07 86.16,171.78 86.16,171.48C86.16,171.18 86.16,170.89 86.16,170.59C86.16,170.29 86.16,169.99 86.16,169.69C86.16,169.39 86.16,169.1 86.16,168.8C86.16,168.5 86.16,168.21 86.16,167.91C86.16,167.61 86.16,167.32 86.16,167.02C86.16,166.72 86.16,166.43 86.16,166.13C86.16,165.83 86.16,165.54 86.16,165.24C86.16,164.94 86.16,164.65 86.16,164.35C86.16,164.05 86.16,163.76 86.16,163.46C86.16,163.16 86.16,162.87 86.16,162.57C86.16,162.27 86.16,161.98 86.16,161.68C86.16,161.38 86.16,161.09 86.16,160.79C86.16,160.49 86.16,160.19 86.16,159.89C86.16,159.59 86.16,159.3 86.16,159C86.16,158.7 86.16,158.41 86.16,158.11C86.16,157.81 86.17,157.52 86.17,157.22C86.17,156.92 86.17,156.63 86.17,156.33C86.17,156.03 86.17,155.74 86.17,155.44C86.17,155.14 86.17,154.85 86.17,154.55C86.17,154.25 86.18,153.96 86.18,153.66C86.18,153.36 86.18,153.07 86.18,152.77C86.18,152.47 86.18,152.18 86.18,151.88C86.18,151.58 86.19,151.29 86.19,150.99C86.19,150.69 86.19,150.4 86.19,150.1C86.19,149.8 86.2,149.5 86.2,149.2C86.2,148.9 86.21,148.61 86.21,148.31C86.21,148.01 86.22,147.72 86.22,147.42C86.22,147.12 86.23,146.83 86.23,146.53C86.24,146.23 86.24,145.94 86.25,145.64C86.26,145.34 86.26,145.05 86.27,144.75C86.28,144.45 86.28,144.16 86.29,143.86C86.29,143.56 86.3,143.27 86.3,142.97C86.3,142.67 86.3,142.38 86.3,142.08C86.3,141.78 86.3,141.49 86.3,141.19C86.3,140.89 86.29,140.6 86.29,140.3C86.29,140 86.28,139.71 86.28,139.41C86.28,139.11 86.27,138.81 86.27,138.51C86.27,138.21 86.26,137.92 86.26,137.62C86.26,137.32 86.25,137.03 86.25,136.73C86.25,136.43 86.25,136.14 86.25,135.84C86.25,135.54 86.25,135.25 86.25,134.95C86.25,134.65 86.26,134.36 86.26,134.06C86.26,133.76 86.27,133.47 86.27,133.17C86.27,132.87 86.28,132.58 86.28,132.28C86.28,131.98 86.29,131.69 86.29,131.39C86.29,131.09 86.29,130.8 86.29,130.5C86.29,130.2 86.29,129.91 86.29,129.61C86.29,129.31 86.29,129.02 86.29,128.72C86.29,128.42 86.28,128.12 86.28,127.82C86.28,127.52 86.28,127.23 86.28,126.93C86.28,126.63 86.29,126.34 86.29,126.04C86.29,125.74 86.3,125.45 86.3,125.15C86.3,124.85 86.31,124.56 86.31,124.26C86.31,123.96 86.32,123.67 86.32,123.37C86.32,123.07 86.33,122.78 86.33,122.48C86.33,122.18 86.34,121.89 86.34,121.59C86.34,121.29 86.35,121 86.35,120.7C86.35,120.4 86.35,120.11 86.35,119.81C86.35,119.51 86.36,119.22 86.36,118.92C86.36,118.62 86.37,118.33 86.37,118.03C86.37,117.73 86.38,117.43 86.38,117.13C86.38,116.83 86.39,116.54 86.39,116.24C86.39,115.94 86.4,115.65 86.4,115.35C86.4,115.05 86.41,114.76 86.41,114.46C86.41,114.16 86.42,113.87 86.42,113.57C86.42,113.27 86.43,112.98 86.43,112.68C86.44,112.38 86.44,112.09 86.45,111.79C86.45,111.49 86.46,111.2 86.46,110.9C86.46,110.6 86.47,110.31 86.47,110.01C86.47,109.71 86.48,109.42 86.48,109.12C86.48,108.82 86.49,108.53 86.49,108.23C86.49,107.93 86.5,107.64 86.5,107.34C86.5,107.04 86.51,106.74 86.51,106.44C86.51,106.14 86.51,105.85 86.51,105.55C86.51,105.25 86.51,104.96 86.51,104.66C86.51,104.36 86.52,104.07 86.52,103.77C86.52,103.47 86.52,103.18 86.52,102.88C86.52,102.58 86.52,102.29 86.52,101.99C86.52,101.69 86.52,101.4 86.52,101.1C86.52,100.8 86.53,100.51 86.53,100.21C86.54,99.91 86.54,99.62 86.55,99.32C86.56,99.02 86.56,98.73 86.57,98.43C86.58,98.13 86.58,97.84 86.59,97.54C86.6,97.24 86.6,96.95 86.61,96.65C86.62,96.35 86.62,96.05 86.63,95.75C86.64,95.45 86.64,95.16 86.65,94.86C86.66,94.56 86.67,94.27 86.67,93.97C86.67,93.67 86.67,93.38 86.67,93.08C86.67,92.78 86.68,92.49 86.68,92.19C86.68,91.89 86.68,91.6 86.68,91.3C86.68,91 86.68,90.71 86.68,90.41C86.68,90.11 86.69,89.82 86.69,89.52C86.7,89.22 86.7,88.93 86.71,88.63C86.72,88.33 86.73,88.04 86.74,87.74C86.75,87.44 86.77,87.15 86.78,86.85C86.79,86.55 86.81,86.26 86.82,85.96C86.83,85.66 86.85,85.36 86.86,85.06C86.87,84.76 86.88,84.47 86.89,84.17C86.9,83.87 86.91,83.58 86.92,83.28C86.93,82.98 86.93,82.69 86.94,82.39C86.95,82.09 86.95,81.8 86.96,81.5C86.97,81.2 86.98,80.91 86.99,80.61C87,80.31 87.02,80.02 87.03,79.72C87.04,79.42 87.06,79.13 87.07,78.83C87.09,78.53 87.1,78.24 87.12,77.94C87.14,77.64 87.15,77.35 87.17,77.05C87.19,76.75 87.2,76.46 87.22,76.16C87.23,75.86 87.25,75.57 87.26,75.27C87.27,74.97 87.29,74.67 87.3,74.37C87.31,74.07 87.32,73.78 87.33,73.48C87.34,73.18 87.35,72.89 87.36,72.59C87.37,72.29 87.38,72 87.39,71.7C87.4,71.4 87.41,71.11 87.42,70.81C87.43,70.51 87.44,70.22 87.45,69.92C87.46,69.62 87.48,69.33 87.49,69.03C87.5,68.73 87.51,68.44 87.52,68.14C87.53,67.84 87.55,67.55 87.56,67.25C87.57,66.95 87.59,66.66 87.6,66.36C87.62,66.06 87.63,65.77 87.65,65.47C87.67,65.17 87.69,64.88 87.71,64.58C87.73,64.28 87.75,63.98 87.78,63.68C87.81,63.38 87.84,63.09 87.87,62.79C87.9,62.49 87.93,62.2 87.96,61.9C87.99,61.6 88.03,61.31 88.06,61.01C88.1,60.71 88.13,60.42 88.17,60.12C88.2,59.82 88.24,59.53 88.27,59.23C88.31,58.93 88.34,58.64 88.38,58.34C88.42,58.04 88.45,57.75 88.49,57.45C88.53,57.15 88.56,56.86 88.6,56.56C88.63,56.26 88.67,55.97 88.7,55.67C88.74,55.37 88.77,55.08 88.81,54.78C88.84,54.48 88.88,54.19 88.91,53.89C88.94,53.59 88.98,53.29 89.01,52.99C89.04,52.69 89.07,52.4 89.1,52.1C89.13,51.8 89.17,51.51 89.21,51.21C89.25,50.91 89.29,50.62 89.33,50.32C89.37,50.02 89.41,49.73 89.46,49.43C89.51,49.13 89.57,48.84 89.63,48.54C89.69,48.24 89.75,47.95 89.82,47.65C89.89,47.35 89.96,47.06 90.04,46.76C90.12,46.46 90.2,46.17 90.28,45.87C90.36,45.57 90.44,45.28 90.52,44.98C90.6,44.68 90.68,44.39 90.76,44.09C90.84,43.79 90.92,43.5 91,43.2C91.08,42.9 91.17,42.6 91.25,42.3C91.33,42 91.41,41.71 91.49,41.41C91.57,41.11 91.66,40.82 91.75,40.52C91.84,40.22 91.92,39.93 92.01,39.63C92.1,39.33 92.19,39.04 92.28,38.74C92.37,38.44 92.47,38.15 92.57,37.85C92.67,37.55 92.77,37.26 92.88,36.96C92.99,36.66 93.1,36.37 93.22,36.07C93.34,35.77 93.46,35.48 93.59,35.18C93.72,34.88 93.86,34.59 94,34.29C94.14,33.99 94.29,33.7 94.45,33.4C94.61,33.1 94.77,32.81 94.94,32.51C95.11,32.21 95.28,31.91 95.46,31.61C95.64,31.31 95.82,31.02 96,30.72C96.18,30.42 96.37,30.13 96.56,29.83C96.75,29.53 96.93,29.24 97.12,28.94C97.3,28.64 97.49,28.35 97.67,28.05C97.85,27.75 98.03,27.46 98.2,27.16C98.37,26.86 98.53,26.57 98.69,26.27C98.85,25.97 99,25.68 99.14,25.38C99.28,25.09 99.4,24.79 99.52,24.49C99.64,24.2 99.75,23.9 99.84,23.6C99.93,23.31 100,23.01 100.06,22.71C100.12,22.41 100.17,22.11 100.19,21.81C100.21,21.51 100.22,21.22 100.21,20.92C100.2,20.62 100.16,20.32 100.11,20.03C100.05,19.73 99.98,19.43 99.88,19.14C99.78,18.84 99.65,18.54 99.51,18.25C99.36,17.95 99.19,17.65 99.01,17.36C98.82,17.06 98.61,16.76 98.39,16.47C98.17,16.17 97.93,15.87 97.68,15.58C97.43,15.28 97.17,14.98 96.9,14.69C96.63,14.39 96.35,14.09 96.07,13.8C95.78,13.5 95.49,13.21 95.19,12.91C94.89,12.61 94.58,12.32 94.27,12.02C93.95,11.72 93.63,11.42 93.31,11.12C92.99,10.82 92.66,10.53 92.34,10.23C92.02,9.93 91.7,9.64 91.38,9.34C91.07,9.04 90.75,8.75 90.45,8.45C90.15,8.16 89.86,7.86 89.59,7.56C89.32,7.27 89.07,6.97 88.83,6.67C88.6,6.38 88.38,6.08 88.17,5.78C87.97,5.49 87.78,5.19 87.61,4.89C87.45,4.6 87.3,4.3 87.17,4C87.04,3.71 86.92,3.41 86.82,3.11C86.72,2.82 86.64,2.52 86.57,2.22C86.5,1.92 86.44,1.63 86.39,1.33C86.34,1.03 86.31,0.73 86.28,0.43C86.25,0.13 86.23,-0.16 86.21,-0.46C86.19,-0.76 86.19,-1.05 86.18,-1.35C86.17,-1.65 86.17,-1.94 86.16,-2.24Q86.16,-2.54 86.15,-3.13L86.14,-3.13Q86.13,-2.54 86.13,-2.24C86.12,-1.94 86.12,-1.65 86.11,-1.35C86.1,-1.05 86.09,-0.76 86.07,-0.46C86.05,-0.16 86.03,0.13 86,0.43C85.97,0.73 85.94,1.03 85.89,1.33C85.84,1.63 85.79,1.93 85.72,2.22C85.65,2.52 85.56,2.82 85.46,3.11C85.36,3.41 85.25,3.71 85.12,4C84.99,4.3 84.83,4.6 84.67,4.89C84.5,5.19 84.32,5.49 84.12,5.78C83.92,6.08 83.69,6.38 83.46,6.67C83.22,6.97 82.96,7.27 82.69,7.56C82.42,7.86 82.12,8.16 81.83,8.45C81.53,8.75 81.22,9.04 80.91,9.34C80.59,9.64 80.27,9.93 79.95,10.23C79.63,10.53 79.3,10.82 78.98,11.12C78.66,11.42 78.34,11.72 78.02,12.02C77.71,12.32 77.4,12.61 77.1,12.91C76.8,13.21 76.51,13.5 76.22,13.8C75.93,14.1 75.65,14.39 75.38,14.69C75.11,14.98 74.85,15.28 74.6,15.58C74.35,15.87 74.11,16.17 73.89,16.47C73.67,16.76 73.47,17.06 73.28,17.36C73.1,17.65 72.93,17.95 72.78,18.25C72.64,18.54 72.51,18.84 72.41,19.14C72.31,19.43 72.23,19.73 72.17,20.03C72.11,20.32 72.08,20.62 72.07,20.92C72.06,21.22 72.07,21.51 72.09,21.81C72.11,22.11 72.16,22.41 72.22,22.71C72.28,23.01 72.36,23.31 72.45,23.6C72.54,23.9 72.64,24.2 72.76,24.49C72.88,24.79 73.01,25.08 73.15,25.38C73.29,25.68 73.43,25.98 73.59,26.27C73.75,26.57 73.92,26.86 74.09,27.16C74.26,27.46 74.44,27.75 74.62,28.05C74.8,28.35 74.99,28.64 75.17,28.94C75.36,29.24 75.54,29.53 75.73,29.83C75.91,30.13 76.1,30.42 76.28,30.72C76.46,31.02 76.65,31.31 76.83,31.61C77.01,31.91 77.18,32.21 77.35,32.51C77.52,32.81 77.68,33.1 77.84,33.4C78,33.7 78.15,33.99 78.29,34.29C78.43,34.59 78.57,34.88 78.7,35.18C78.83,35.48 78.95,35.77 79.07,36.07C79.19,36.37 79.3,36.66 79.41,36.96C79.52,37.26 79.61,37.55 79.71,37.85C79.81,38.15 79.9,38.44 80,38.74C80.09,39.04 80.19,39.33 80.28,39.63C80.37,39.93 80.45,40.22 80.54,40.52C80.62,40.82 80.71,41.11 80.79,41.41C80.87,41.71 80.96,42 81.04,42.3C81.12,42.6 81.2,42.9 81.28,43.2C81.36,43.5 81.44,43.79 81.52,44.09C81.6,44.39 81.69,44.68 81.77,44.98C81.85,45.28 81.93,45.57 82.01,45.87C82.09,46.17 82.16,46.46 82.24,46.76C82.31,47.06 82.39,47.35 82.46,47.65C82.53,47.95 82.6,48.24 82.66,48.54C82.72,48.84 82.77,49.13 82.82,49.43C82.87,49.73 82.92,50.02 82.96,50.32C83,50.62 83.04,50.91 83.08,51.21C83.12,51.51 83.15,51.8 83.18,52.1C83.21,52.4 83.25,52.69 83.28,52.99C83.31,53.29 83.35,53.59 83.38,53.89C83.41,54.19 83.45,54.48 83.48,54.78C83.51,55.08 83.55,55.37 83.58,55.67C83.62,55.97 83.65,56.26 83.69,56.56C83.72,56.86 83.76,57.15 83.79,57.45C83.83,57.75 83.86,58.04 83.9,58.34C83.94,58.64 83.97,58.93 84.01,59.23C84.05,59.53 84.08,59.82 84.12,60.12C84.15,60.42 84.19,60.71 84.22,61.01C84.25,61.31 84.29,61.6 84.32,61.9C84.35,62.2 84.39,62.49 84.42,62.79C84.45,63.09 84.47,63.38 84.5,63.68C84.53,63.98 84.56,64.28 84.58,64.58C84.6,64.88 84.62,65.17 84.64,65.47C84.66,65.77 84.67,66.06 84.69,66.36C84.7,66.66 84.72,66.95 84.73,67.25C84.74,67.55 84.76,67.84 84.77,68.14C84.78,68.44 84.79,68.73 84.8,69.03C84.81,69.33 84.82,69.62 84.83,69.92C84.84,70.22 84.86,70.51 84.87,70.81C84.88,71.11 84.89,71.4 84.9,71.7C84.91,72 84.92,72.29 84.93,72.59C84.94,72.89 84.95,73.18 84.96,73.48C84.97,73.78 84.98,74.07 84.99,74.37C85,74.67 85.01,74.97 85.02,75.27C85.03,75.57 85.05,75.86 85.06,76.16C85.08,76.46 85.09,76.75 85.11,77.05C85.13,77.35 85.14,77.64 85.16,77.94C85.18,78.24 85.19,78.53 85.21,78.83C85.23,79.13 85.24,79.42 85.26,79.72C85.27,80.02 85.29,80.31 85.3,80.61C85.31,80.91 85.32,81.2 85.33,81.5C85.34,81.8 85.34,82.09 85.35,82.39C85.36,82.69 85.36,82.98 85.37,83.28C85.38,83.58 85.38,83.87 85.39,84.17C85.4,84.47 85.41,84.76 85.42,85.06C85.43,85.36 85.44,85.66 85.46,85.96C85.47,86.26 85.5,86.55 85.51,86.85C85.52,87.15 85.53,87.44 85.54,87.74C85.55,88.04 85.56,88.33 85.57,88.63C85.58,88.93 85.58,89.22 85.59,89.52C85.59,89.82 85.6,90.11 85.6,90.41C85.6,90.71 85.6,91 85.6,91.3C85.6,91.6 85.61,91.89 85.61,92.19C85.61,92.49 85.61,92.78 85.61,93.08C85.61,93.38 85.62,93.67 85.62,93.97C85.62,94.27 85.63,94.56 85.63,94.86C85.64,95.16 85.64,95.45 85.65,95.75C85.66,96.05 85.66,96.35 85.67,96.65C85.68,96.95 85.69,97.24 85.7,97.54C85.71,97.84 85.71,98.13 85.72,98.43C85.73,98.73 85.73,99.02 85.74,99.32C85.74,99.62 85.75,99.91 85.75,100.21C85.75,100.51 85.76,100.8 85.76,101.1C85.76,101.4 85.77,101.69 85.77,101.99C85.77,102.29 85.77,102.58 85.77,102.88C85.77,103.18 85.77,103.47 85.77,103.77C85.77,104.07 85.77,104.36 85.77,104.66C85.77,104.96 85.78,105.25 85.78,105.55C85.78,105.85 85.78,106.14 85.78,106.44C85.78,106.74 85.78,107.04 85.78,107.34C85.78,107.64 85.79,107.93 85.79,108.23C85.79,108.53 85.8,108.82 85.8,109.12C85.8,109.42 85.81,109.71 85.81,110.01C85.82,110.31 85.82,110.6 85.83,110.9C85.83,111.2 85.84,111.49 85.84,111.79C85.84,112.09 85.85,112.38 85.85,112.68C85.85,112.98 85.86,113.27 85.86,113.57C85.87,113.87 85.87,114.16 85.88,114.46C85.88,114.76 85.89,115.05 85.89,115.35C85.89,115.65 85.9,115.94 85.9,116.24C85.9,116.54 85.91,116.83 85.91,117.13C85.91,117.43 85.92,117.73 85.92,118.03C85.92,118.33 85.93,118.62 85.93,118.92C85.93,119.22 85.93,119.51 85.93,119.81C85.93,120.11 85.94,120.4 85.94,120.7C85.94,121 85.94,121.29 85.94,121.59C85.94,121.89 85.95,122.18 85.95,122.48C85.95,122.78 85.96,123.07 85.96,123.37C85.97,123.67 85.97,123.96 85.98,124.26C85.98,124.56 85.99,124.85 85.99,125.15C85.99,125.45 86,125.74 86,126.04C86,126.34 86,126.63 86,126.93C86,127.23 86,127.52 86,127.82C86,128.12 86,128.42 86,128.72C86,129.02 85.99,129.31 85.99,129.61C85.99,129.91 85.99,130.2 85.99,130.5C85.99,130.8 86,131.09 86,131.39C86,131.69 86.01,131.98 86.01,132.28C86.01,132.58 86.02,132.87 86.02,133.17C86.02,133.47 86.03,133.76 86.03,134.06C86.03,134.36 86.03,134.65 86.03,134.95C86.03,135.25 86.04,135.54 86.04,135.84C86.04,136.14 86.03,136.43 86.03,136.73C86.03,137.03 86.03,137.32 86.03,137.62C86.03,137.92 86.02,138.21 86.02,138.51C86.02,138.81 86.01,139.11 86.01,139.41C86.01,139.71 86,140 86,140.3C86,140.6 85.99,140.89 85.99,141.19C85.99,141.49 85.98,141.78 85.98,142.08C85.98,142.38 85.99,142.67 85.99,142.97C85.99,143.27 86,143.56 86,143.86C86.01,144.16 86.01,144.45 86.02,144.75C86.02,145.05 86.03,145.34 86.03,145.64C86.04,145.94 86.04,146.23 86.05,146.53C86.06,146.83 86.06,147.12 86.07,147.42C86.07,147.72 86.08,148.01 86.08,148.31C86.08,148.61 86.09,148.9 86.09,149.2C86.09,149.5 86.09,149.8 86.09,150.1C86.09,150.4 86.1,150.69 86.1,150.99C86.1,151.29 86.1,151.58 86.1,151.88C86.1,152.18 86.11,152.47 86.11,152.77C86.11,153.07 86.11,153.36 86.11,153.66C86.11,153.96 86.11,154.25 86.11,154.55C86.11,154.85 86.11,155.14 86.11,155.44C86.11,155.74 86.12,156.03 86.12,156.33C86.12,156.63 86.12,156.92 86.12,157.22C86.12,157.52 86.12,157.81 86.12,158.11C86.12,158.41 86.12,158.7 86.12,159C86.12,159.3 86.13,159.59 86.13,159.89C86.13,160.19 86.13,160.49 86.13,160.79C86.13,161.09 86.13,161.38 86.13,161.68C86.13,161.98 86.13,162.27 86.13,162.57C86.13,162.87 86.13,163.16 86.13,163.46C86.13,163.76 86.13,164.05 86.13,164.35C86.13,164.65 86.13,164.94 86.13,165.24C86.13,165.54 86.13,165.83 86.13,166.13C86.13,166.43 86.13,166.72 86.13,167.02C86.13,167.32 86.13,167.61 86.13,167.91C86.13,168.21 86.13,168.5 86.13,168.8C86.13,169.1 86.13,169.39 86.13,169.69C86.13,169.99 86.13,170.29 86.13,170.59C86.13,170.89 86.12,171.18 86.12,171.48C86.12,171.78 86.13,172.07 86.13,172.37C86.13,172.67 86.13,172.96 86.13,173.26C86.13,173.56 86.13,173.85 86.13,174.15C86.13,174.45 86.13,174.74 86.13,175.04C86.13,175.34 86.14,175.63 86.14,175.93C86.14,176.23 86.14,176.52 86.14,176.82C86.14,177.12 86.14,177.41 86.14,177.71Q86.14,178.01 86.14,178.6Z" style="vector-effect: none; stroke-width: 0.5px; stroke: rgb(0, 0, 0); stroke-opacity: 1; fill: rgb(236, 154, 86); fill-opacity: 1;"/><path class="meanline" d="M94.27655029296875,33.73H78.00344970703125" style="fill: none; vector-effect: none; stroke-width: 0.5px; stroke-dasharray: 1px, 0.5px; stroke: rgb(0, 0, 0); stroke-opacity: 1;"/></g><g class="trace violins" style="opacity: 1;"><path class="violin" d="M143.63,95.26Q143.66,94.31 143.68,93.83C143.7,93.35 143.73,92.87 143.76,92.39C143.79,91.91 143.82,91.44 143.85,90.96C143.88,90.48 143.92,90.01 143.95,89.53C143.98,89.05 144.01,88.57 144.04,88.09C144.07,87.61 144.09,87.14 144.11,86.66C144.13,86.18 144.15,85.71 144.16,85.23C144.17,84.75 144.18,84.27 144.18,83.79C144.18,83.31 144.18,82.84 144.18,82.36C144.18,81.88 144.17,81.4 144.16,80.92C144.15,80.44 144.14,79.97 144.12,79.49C144.1,79.01 144.08,78.54 144.05,78.06C144.02,77.58 143.99,77.1 143.96,76.62C143.93,76.14 143.89,75.67 143.86,75.19C143.83,74.71 143.8,74.24 143.77,73.76C143.74,73.28 143.72,72.8 143.7,72.32C143.68,71.84 143.67,71.37 143.66,70.89C143.65,70.41 143.65,69.93 143.65,69.45C143.65,68.97 143.67,68.5 143.68,68.02C143.69,67.54 143.71,67.07 143.73,66.59C143.75,66.11 143.78,65.63 143.81,65.15C143.84,64.67 143.87,64.2 143.9,63.72C143.93,63.24 143.95,62.77 143.97,62.29C143.99,61.81 144.01,61.33 144.01,60.85C144.01,60.37 144.01,59.9 144,59.42C143.99,58.94 143.97,58.47 143.95,57.99C143.93,57.51 143.91,57.03 143.88,56.55C143.86,56.07 143.82,55.6 143.8,55.12C143.78,54.64 143.76,54.16 143.76,53.68C143.76,53.2 143.76,52.73 143.77,52.25C143.78,51.77 143.81,51.3 143.85,50.82C143.89,50.34 143.95,49.86 144.03,49.38C144.11,48.9 144.21,48.42 144.33,47.95C144.45,47.47 144.6,46.99 144.76,46.52C144.93,46.04 145.12,45.56 145.33,45.08C145.54,44.6 145.78,44.12 146.03,43.65C146.28,43.17 146.55,42.69 146.82,42.21C147.09,41.73 147.37,41.26 147.63,40.78C147.89,40.31 148.14,39.83 148.36,39.35C148.58,38.88 148.78,38.39 148.94,37.91C149.1,37.44 149.23,36.96 149.34,36.48C149.45,36.01 149.51,35.53 149.6,35.05C149.69,34.57 149.75,34.09 149.86,33.61C149.97,33.13 150.08,32.65 150.25,32.18C150.42,31.69 150.63,31.21 150.89,30.74C151.16,30.25 151.49,29.78 151.83,29.31C152.19,28.82 152.6,28.35 153,27.88C153.41,27.4 153.86,26.92 154.28,26.44C154.7,25.96 155.13,25.49 155.51,25.01C155.88,24.54 156.25,24.07 156.55,23.58C156.84,23.11 157.1,22.63 157.28,22.14C157.46,21.67 157.59,21.19 157.64,20.71C157.69,20.23 157.68,19.74 157.61,19.27C157.53,18.79 157.38,18.31 157.18,17.84C156.97,17.35 156.68,16.88 156.37,16.41C156.04,15.92 155.65,15.44 155.25,14.97C154.83,14.48 154.37,14.01 153.9,13.54C153.42,13.06 152.91,12.59 152.41,12.11C151.9,11.63 151.39,11.15 150.88,10.67C150.38,10.19 149.87,9.72 149.38,9.24C148.9,8.77 148.43,8.29 147.99,7.81C147.56,7.34 147.13,6.86 146.75,6.37C146.38,5.9 146.04,5.43 145.73,4.94C145.43,4.47 145.17,3.99 144.94,3.5C144.72,3.03 144.53,2.55 144.37,2.07C144.22,1.6 144.1,1.12 144,0.64Q143.9,0.16 143.79,-0.8L143.36,-0.8Q143.24,0.16 143.14,0.64C143.04,1.12 142.92,1.6 142.77,2.07C142.61,2.55 142.42,3.03 142.2,3.5C141.97,3.99 141.71,4.47 141.41,4.94C141.1,5.43 140.76,5.9 140.39,6.37C140.01,6.86 139.59,7.34 139.16,7.81C138.72,8.3 138.24,8.77 137.76,9.24C137.27,9.72 136.77,10.19 136.27,10.67C135.76,11.15 135.24,11.63 134.73,12.11C134.23,12.59 133.72,13.06 133.24,13.54C132.77,14.01 132.31,14.48 131.89,14.97C131.49,15.44 131.1,15.92 130.77,16.41C130.46,16.88 130.18,17.35 129.97,17.84C129.77,18.31 129.62,18.79 129.54,19.27C129.46,19.74 129.45,20.23 129.5,20.71C129.55,21.19 129.68,21.67 129.86,22.14C130.04,22.63 130.3,23.11 130.59,23.58C130.89,24.07 131.26,24.54 131.63,25.01C132.01,25.49 132.44,25.96 132.86,26.44C133.28,26.92 133.73,27.4 134.14,27.88C134.54,28.35 134.95,28.82 135.31,29.31C135.65,29.78 135.98,30.25 136.25,30.74C136.51,31.21 136.73,31.69 136.9,32.18C137.07,32.65 137.18,33.13 137.29,33.61C137.4,34.09 137.45,34.57 137.54,35.05C137.62,35.53 137.69,36.01 137.8,36.48C137.91,36.96 138.04,37.44 138.2,37.91C138.36,38.39 138.56,38.88 138.78,39.35C139,39.83 139.26,40.31 139.52,40.78C139.78,41.26 140.06,41.73 140.32,42.21C140.59,42.69 140.86,43.17 141.11,43.65C141.36,44.12 141.6,44.6 141.81,45.08C142.02,45.56 142.21,46.04 142.38,46.52C142.54,46.99 142.69,47.47 142.81,47.95C142.93,48.42 143.03,48.9 143.11,49.38C143.19,49.86 143.25,50.34 143.29,50.82C143.33,51.3 143.36,51.77 143.37,52.25C143.38,52.73 143.38,53.2 143.38,53.68C143.38,54.16 143.36,54.64 143.34,55.12C143.32,55.6 143.29,56.07 143.27,56.55C143.24,57.03 143.21,57.51 143.19,57.99C143.17,58.47 143.15,58.94 143.14,59.42C143.13,59.9 143.13,60.37 143.13,60.85C143.13,61.33 143.15,61.81 143.17,62.29C143.19,62.77 143.22,63.24 143.25,63.72C143.28,64.2 143.3,64.67 143.33,65.15C143.36,65.63 143.39,66.11 143.41,66.59C143.43,67.07 143.46,67.54 143.47,68.02C143.48,68.5 143.49,68.97 143.49,69.45C143.49,69.93 143.49,70.41 143.48,70.89C143.47,71.37 143.46,71.84 143.44,72.32C143.42,72.8 143.4,73.28 143.37,73.76C143.34,74.24 143.31,74.71 143.28,75.19C143.25,75.67 143.21,76.14 143.18,76.62C143.15,77.1 143.12,77.58 143.09,78.06C143.06,78.54 143.04,79.01 143.02,79.49C143,79.97 142.99,80.44 142.98,80.92C142.97,81.4 142.96,81.88 142.96,82.36C142.96,82.84 142.96,83.31 142.96,83.79C142.96,84.27 142.97,84.75 142.98,85.23C142.99,85.71 143.01,86.18 143.03,86.66C143.05,87.14 143.07,87.61 143.1,88.09C143.13,88.57 143.16,89.05 143.19,89.53C143.22,90.01 143.26,90.48 143.29,90.96C143.32,91.44 143.36,91.91 143.39,92.39C143.42,92.87 143.44,93.35 143.46,93.83Q143.48,94.31 143.51,95.26Z" style="vector-effect: none; stroke-width: 0.5px; stroke: rgb(0, 0, 0); stroke-opacity: 1; fill: rgb(155, 191, 229); fill-opacity: 1;"/><path class="meanline" d="M155.3321990966797,25.23H131.8078009033203" style="fill: none; vector-effect: none; stroke-width: 0.5px; stroke-dasharray: 1px, 0.5px; stroke: rgb(0, 0, 0); stroke-opacity: 1;"/></g><g class="trace violins" style="opacity: 1;"><path class="violin" d="M201.02,99.34Q201.04,98.27 201.05,97.73C201.06,97.19 201.06,96.65 201.07,96.11C201.08,95.57 201.1,95.03 201.11,94.49C201.12,93.95 201.13,93.41 201.14,92.87C201.15,92.33 201.16,91.79 201.17,91.25C201.18,90.71 201.18,90.17 201.18,89.63C201.18,89.09 201.18,88.55 201.17,88.01C201.17,87.47 201.16,86.94 201.15,86.4C201.14,85.86 201.13,85.32 201.12,84.78C201.11,84.24 201.09,83.7 201.08,83.16C201.07,82.62 201.07,82.08 201.06,81.54C201.06,81 201.05,80.46 201.05,79.92C201.05,79.38 201.06,78.84 201.06,78.3C201.07,77.76 201.07,77.22 201.08,76.68C201.09,76.14 201.11,75.61 201.12,75.07C201.13,74.53 201.15,73.99 201.16,73.45C201.17,72.91 201.19,72.37 201.2,71.83C201.21,71.29 201.22,70.75 201.23,70.21C201.24,69.67 201.26,69.13 201.27,68.59C201.28,68.05 201.29,67.51 201.31,66.97C201.33,66.43 201.34,65.89 201.37,65.35C201.4,64.81 201.43,64.27 201.47,63.73C201.51,63.19 201.56,62.66 201.62,62.12C201.68,61.58 201.74,61.04 201.81,60.5C201.88,59.96 201.97,59.42 202.06,58.88C202.15,58.34 202.26,57.8 202.37,57.26C202.48,56.72 202.6,56.18 202.72,55.64C202.84,55.1 202.97,54.56 203.11,54.02C203.25,53.48 203.4,52.94 203.57,52.4C203.74,51.86 203.92,51.33 204.11,50.79C204.3,50.25 204.51,49.71 204.73,49.17C204.95,48.63 205.19,48.09 205.43,47.55C205.67,47.01 205.93,46.47 206.17,45.93C206.41,45.39 206.64,44.85 206.85,44.31C207.06,43.77 207.25,43.23 207.41,42.69C207.57,42.15 207.7,41.61 207.8,41.07C207.9,40.53 207.96,40 208.03,39.46C208.1,38.92 208.14,38.38 208.2,37.84C208.27,37.3 208.32,36.76 208.42,36.22C208.52,35.68 208.65,35.13 208.81,34.6C208.98,34.05 209.19,33.51 209.42,32.98C209.66,32.43 209.95,31.89 210.24,31.36C210.54,30.81 210.88,30.28 211.21,29.74C211.54,29.2 211.9,28.67 212.23,28.13C212.56,27.59 212.89,27.06 213.18,26.51C213.47,25.98 213.74,25.44 213.98,24.89C214.21,24.36 214.42,23.82 214.58,23.27C214.74,22.74 214.86,22.19 214.94,21.65C215.02,21.11 215.07,20.57 215.07,20.03C215.07,19.49 215.03,18.95 214.95,18.41C214.87,17.87 214.75,17.33 214.58,16.8C214.41,16.25 214.19,15.71 213.92,15.18C213.64,14.63 213.31,14.09 212.94,13.56C212.56,13.01 212.12,12.47 211.66,11.94C211.18,11.39 210.64,10.85 210.1,10.32C209.55,9.77 208.96,9.24 208.39,8.7C207.81,8.16 207.21,7.62 206.65,7.08C206.1,6.55 205.55,6.02 205.05,5.47C204.57,4.94 204.1,4.4 203.7,3.85C203.31,3.32 202.96,2.78 202.67,2.23C202.39,1.7 202.15,1.16 201.96,0.61C201.77,0.08 201.63,-0.47 201.51,-1.01C201.39,-1.55 201.32,-2.09 201.25,-2.63Q201.18,-3.17 201.11,-4.25L200.89,-4.25Q200.82,-3.17 200.75,-2.63C200.68,-2.09 200.61,-1.55 200.49,-1.01C200.37,-0.47 200.23,0.08 200.04,0.61C199.85,1.16 199.61,1.7 199.33,2.23C199.04,2.78 198.69,3.32 198.3,3.85C197.9,4.4 197.43,4.94 196.95,5.47C196.45,6.02 195.9,6.55 195.35,7.08C194.79,7.62 194.19,8.16 193.61,8.7C193.04,9.24 192.45,9.77 191.9,10.32C191.36,10.85 190.82,11.39 190.34,11.94C189.88,12.47 189.44,13.01 189.06,13.56C188.69,14.09 188.36,14.63 188.08,15.18C187.81,15.71 187.59,16.25 187.42,16.8C187.25,17.33 187.13,17.87 187.05,18.41C186.97,18.95 186.93,19.49 186.93,20.03C186.93,20.57 186.98,21.11 187.06,21.65C187.14,22.19 187.26,22.74 187.42,23.27C187.58,23.82 187.79,24.36 188.02,24.89C188.26,25.44 188.53,25.98 188.82,26.51C189.11,27.06 189.44,27.59 189.77,28.13C190.1,28.67 190.46,29.2 190.79,29.74C191.12,30.28 191.46,30.81 191.76,31.36C192.05,31.89 192.34,32.43 192.58,32.98C192.81,33.51 193.02,34.05 193.19,34.6C193.35,35.13 193.48,35.68 193.58,36.22C193.68,36.76 193.73,37.3 193.8,37.84C193.86,38.38 193.9,38.92 193.97,39.46C194.04,40 194.1,40.53 194.2,41.07C194.3,41.61 194.43,42.15 194.59,42.69C194.75,43.23 194.94,43.77 195.15,44.31C195.36,44.85 195.59,45.39 195.83,45.93C196.07,46.47 196.33,47.01 196.57,47.55C196.81,48.09 197.05,48.63 197.27,49.17C197.49,49.71 197.7,50.25 197.89,50.79C198.08,51.33 198.26,51.86 198.43,52.4C198.6,52.94 198.75,53.48 198.89,54.02C199.03,54.56 199.16,55.1 199.28,55.64C199.4,56.18 199.52,56.72 199.63,57.26C199.74,57.8 199.85,58.34 199.94,58.88C200.03,59.42 200.12,59.96 200.19,60.5C200.26,61.04 200.32,61.58 200.38,62.12C200.44,62.66 200.49,63.19 200.53,63.73C200.57,64.27 200.6,64.81 200.63,65.35C200.66,65.89 200.67,66.43 200.69,66.97C200.71,67.51 200.72,68.05 200.73,68.59C200.74,69.13 200.76,69.67 200.77,70.21C200.78,70.75 200.79,71.29 200.8,71.83C200.81,72.37 200.83,72.91 200.84,73.45C200.85,73.99 200.87,74.53 200.88,75.07C200.89,75.61 200.91,76.14 200.92,76.68C200.93,77.22 200.93,77.76 200.94,78.3C200.94,78.84 200.95,79.38 200.95,79.92C200.95,80.46 200.94,81 200.94,81.54C200.93,82.08 200.93,82.62 200.92,83.16C200.91,83.7 200.89,84.24 200.88,84.78C200.87,85.32 200.86,85.86 200.85,86.4C200.84,86.94 200.83,87.47 200.83,88.01C200.82,88.55 200.82,89.09 200.82,89.63C200.82,90.17 200.82,90.71 200.83,91.25C200.84,91.79 200.85,92.33 200.86,92.87C200.87,93.41 200.88,93.95 200.89,94.49C200.9,95.03 200.92,95.57 200.93,96.11C200.94,96.65 200.94,97.19 200.95,97.73Q200.96,98.27 200.98,99.34Z" style="vector-effect: none; stroke-width: 0.5px; stroke: rgb(0, 0, 0); stroke-opacity: 1; fill: rgb(138, 165, 61); fill-opacity: 1;"/><path class="meanline" d="M213.083251953125,26.69H188.916748046875" style="fill: none; vector-effect: none; stroke-width: 0.5px; stroke-dasharray: 1px, 0.5px; stroke: rgb(0, 0, 0); stroke-opacity: 1;"/></g><g class="trace violins" style="opacity: 1;"><path class="violin" d="M258.45,150.69Q258.46,149.84 258.46,149.42C258.47,149 258.47,148.57 258.48,148.15C258.49,147.72 258.5,147.3 258.51,146.87C258.52,146.45 258.52,146.02 258.53,145.6C258.54,145.18 258.54,144.75 258.55,144.33C258.55,143.91 258.56,143.48 258.56,143.06C258.56,142.63 258.56,142.21 258.55,141.78C258.55,141.36 258.54,140.93 258.53,140.51C258.52,140.09 258.52,139.66 258.51,139.24C258.5,138.82 258.49,138.39 258.48,137.97C258.47,137.54 258.47,137.12 258.46,136.69C258.46,136.27 258.45,135.84 258.45,135.42C258.45,135 258.44,134.57 258.44,134.15C258.44,133.73 258.43,133.3 258.43,132.88C258.43,132.45 258.43,132.03 258.43,131.6C258.43,131.18 258.43,130.75 258.43,130.33C258.43,129.91 258.43,129.48 258.43,129.06C258.43,128.64 258.43,128.21 258.43,127.79C258.43,127.36 258.43,126.94 258.43,126.51C258.43,126.09 258.43,125.66 258.43,125.24C258.43,124.82 258.43,124.39 258.43,123.97C258.43,123.55 258.43,123.12 258.43,122.7C258.43,122.27 258.43,121.85 258.43,121.42C258.43,121 258.43,120.57 258.43,120.15C258.43,119.73 258.43,119.3 258.43,118.88C258.43,118.46 258.43,118.03 258.43,117.61C258.43,117.19 258.43,116.76 258.43,116.34C258.43,115.91 258.43,115.49 258.43,115.06C258.43,114.64 258.43,114.21 258.43,113.79C258.43,113.37 258.43,112.94 258.43,112.52C258.43,112.1 258.43,111.67 258.43,111.25C258.43,110.82 258.43,110.4 258.43,109.97C258.43,109.55 258.43,109.12 258.43,108.7C258.43,108.28 258.43,107.85 258.43,107.43C258.43,107.01 258.43,106.58 258.43,106.16C258.43,105.73 258.44,105.31 258.44,104.88C258.44,104.46 258.45,104.03 258.45,103.61C258.46,103.19 258.46,102.76 258.47,102.34C258.48,101.92 258.48,101.49 258.49,101.07C258.5,100.64 258.51,100.22 258.52,99.79C258.53,99.37 258.54,98.94 258.55,98.52C258.56,98.1 258.56,97.67 258.57,97.25C258.57,96.83 258.58,96.4 258.58,95.98C258.58,95.55 258.59,95.13 258.59,94.7C258.59,94.28 258.59,93.85 258.59,93.43C258.59,93.01 258.59,92.58 258.59,92.16C258.59,91.74 258.59,91.31 258.59,90.89C258.59,90.46 258.59,90.04 258.59,89.61C258.59,89.19 258.59,88.76 258.59,88.34C258.59,87.92 258.58,87.49 258.58,87.07C258.58,86.65 258.58,86.22 258.58,85.8C258.58,85.37 258.58,84.95 258.58,84.52C258.58,84.1 258.59,83.67 258.59,83.25C258.59,82.83 258.59,82.4 258.59,81.98C258.59,81.56 258.6,81.13 258.6,80.71C258.6,80.28 258.6,79.86 258.61,79.43C258.61,79.01 258.62,78.58 258.63,78.16C258.64,77.74 258.65,77.31 258.67,76.89C258.69,76.47 258.71,76.04 258.73,75.62C258.75,75.19 258.78,74.77 258.81,74.34C258.84,73.92 258.88,73.49 258.91,73.07C258.95,72.65 258.98,72.22 259.02,71.8C259.06,71.38 259.1,70.95 259.13,70.53C259.16,70.1 259.19,69.68 259.22,69.25C259.24,68.83 259.26,68.4 259.28,67.98C259.3,67.56 259.31,67.13 259.32,66.71C259.33,66.29 259.33,65.86 259.33,65.44C259.33,65.01 259.33,64.59 259.33,64.16C259.33,63.74 259.33,63.31 259.33,62.89C259.33,62.47 259.34,62.04 259.34,61.62C259.35,61.2 259.35,60.77 259.36,60.35C259.37,59.92 259.38,59.5 259.39,59.07C259.4,58.65 259.42,58.22 259.44,57.8C259.46,57.38 259.48,56.95 259.5,56.53C259.53,56.11 259.55,55.68 259.59,55.26C259.63,54.83 259.67,54.41 259.73,53.98C259.78,53.56 259.85,53.13 259.92,52.71C259.99,52.29 260.08,51.86 260.17,51.44C260.26,51.02 260.37,50.59 260.48,50.17C260.59,49.74 260.71,49.31 260.83,48.89C260.96,48.46 261.09,48.04 261.23,47.62C261.37,47.2 261.51,46.77 261.65,46.35C261.79,45.93 261.93,45.5 262.06,45.08C262.19,44.66 262.33,44.24 262.45,43.81C262.57,43.39 262.69,42.96 262.79,42.53C262.89,42.11 262.98,41.68 263.07,41.26C263.16,40.84 263.25,40.41 263.35,39.99C263.45,39.57 263.55,39.14 263.68,38.72C263.81,38.29 263.95,37.86 264.13,37.44C264.31,37.01 264.52,36.59 264.75,36.17C264.99,35.74 265.27,35.32 265.56,34.9C265.86,34.47 266.19,34.05 266.52,33.63C266.86,33.2 267.22,32.77 267.58,32.35C267.94,31.92 268.31,31.51 268.66,31.08C269.01,30.66 269.35,30.24 269.67,29.81C269.98,29.39 270.3,28.97 270.57,28.54C270.84,28.12 271.09,27.69 271.3,27.26C271.51,26.84 271.69,26.42 271.84,25.99C271.99,25.57 272.11,25.15 272.21,24.72C272.31,24.3 272.37,23.88 272.42,23.45C272.47,23.03 272.49,22.6 272.5,22.17C272.51,21.75 272.5,21.32 272.47,20.9C272.44,20.48 272.39,20.05 272.31,19.63C272.23,19.2 272.14,18.78 272.01,18.36C271.87,17.93 271.71,17.5 271.5,17.08C271.29,16.65 271.03,16.22 270.74,15.81C270.43,15.38 270.08,14.95 269.7,14.54C269.3,14.11 268.86,13.69 268.41,13.27C267.95,12.84 267.45,12.41 266.96,11.99C266.46,11.56 265.95,11.15 265.45,10.72C264.96,10.3 264.47,9.88 264,9.45C263.54,9.03 263.09,8.61 262.68,8.18C262.28,7.76 261.91,7.33 261.56,6.9C261.23,6.48 260.92,6.06 260.64,5.63C260.37,5.21 260.14,4.79 259.93,4.36C259.73,3.94 259.55,3.52 259.4,3.09C259.25,2.67 259.13,2.24 259.02,1.81C258.92,1.39 258.84,0.96 258.77,0.54C258.7,0.12 258.65,-0.31 258.61,-0.73C258.57,-1.15 258.54,-1.58 258.52,-2Q258.5,-2.43 258.47,-3.28L258.39,-3.28Q258.36,-2.43 258.34,-2C258.32,-1.58 258.29,-1.15 258.25,-0.73C258.21,-0.31 258.16,0.12 258.09,0.54C258.02,0.96 257.94,1.39 257.84,1.81C257.73,2.24 257.61,2.67 257.46,3.09C257.31,3.52 257.13,3.94 256.93,4.36C256.72,4.79 256.48,5.21 256.21,5.63C255.93,6.06 255.63,6.48 255.3,6.9C254.95,7.33 254.57,7.76 254.17,8.18C253.76,8.61 253.31,9.03 252.86,9.45C252.39,9.88 251.9,10.3 251.41,10.72C250.91,11.15 250.4,11.56 249.9,11.99C249.41,12.41 248.9,12.84 248.44,13.27C247.99,13.69 247.55,14.11 247.16,14.54C246.78,14.95 246.43,15.38 246.12,15.81C245.83,16.22 245.56,16.65 245.35,17.08C245.14,17.5 244.99,17.93 244.85,18.36C244.72,18.78 244.62,19.2 244.54,19.63C244.46,20.05 244.42,20.48 244.39,20.9C244.36,21.32 244.35,21.75 244.36,22.17C244.37,22.6 244.39,23.03 244.44,23.45C244.49,23.88 244.55,24.3 244.65,24.72C244.75,25.15 244.87,25.57 245.02,25.99C245.17,26.42 245.35,26.84 245.56,27.26C245.77,27.69 246.02,28.12 246.29,28.54C246.56,28.97 246.87,29.39 247.18,29.81C247.5,30.24 247.85,30.66 248.2,31.08C248.55,31.51 248.92,31.92 249.28,32.35C249.64,32.77 250,33.2 250.34,33.63C250.67,34.05 251,34.47 251.3,34.9C251.59,35.32 251.87,35.74 252.11,36.17C252.34,36.59 252.55,37.01 252.73,37.44C252.91,37.86 253.05,38.29 253.18,38.72C253.31,39.14 253.41,39.57 253.51,39.99C253.61,40.41 253.69,40.84 253.78,41.26C253.87,41.68 253.97,42.11 254.07,42.53C254.18,42.96 254.29,43.39 254.41,43.81C254.53,44.24 254.67,44.66 254.8,45.08C254.93,45.5 255.07,45.93 255.21,46.35C255.35,46.77 255.49,47.2 255.63,47.62C255.76,48.04 255.9,48.47 256.02,48.89C256.15,49.32 256.27,49.74 256.38,50.17C256.49,50.59 256.6,51.02 256.69,51.44C256.78,51.86 256.87,52.29 256.94,52.71C257.01,53.13 257.08,53.56 257.13,53.98C257.19,54.41 257.23,54.83 257.27,55.26C257.31,55.68 257.33,56.11 257.36,56.53C257.38,56.95 257.4,57.38 257.42,57.8C257.44,58.22 257.45,58.65 257.46,59.07C257.47,59.5 257.48,59.92 257.49,60.35C257.5,60.77 257.5,61.2 257.51,61.62C257.51,62.04 257.52,62.47 257.52,62.89C257.52,63.31 257.52,63.74 257.52,64.16C257.52,64.59 257.53,65.01 257.53,65.44C257.53,65.86 257.53,66.29 257.54,66.71C257.55,67.13 257.56,67.56 257.58,67.98C257.6,68.4 257.62,68.83 257.64,69.25C257.67,69.68 257.7,70.1 257.73,70.53C257.76,70.95 257.79,71.38 257.83,71.8C257.87,72.22 257.91,72.65 257.95,73.07C257.99,73.49 258.02,73.92 258.05,74.34C258.08,74.77 258.11,75.19 258.13,75.62C258.15,76.04 258.17,76.47 258.19,76.89C258.21,77.31 258.22,77.74 258.23,78.16C258.24,78.58 258.25,79.01 258.25,79.43C258.26,79.86 258.26,80.28 258.26,80.71C258.26,81.13 258.27,81.56 258.27,81.98C258.27,82.4 258.27,82.83 258.27,83.25C258.27,83.67 258.28,84.1 258.28,84.52C258.28,84.95 258.28,85.37 258.28,85.8C258.28,86.22 258.27,86.65 258.27,87.07C258.27,87.49 258.27,87.92 258.27,88.34C258.27,88.76 258.27,89.19 258.27,89.61C258.27,90.04 258.27,90.46 258.27,90.89C258.27,91.31 258.27,91.74 258.27,92.16C258.27,92.58 258.27,93.01 258.27,93.43C258.27,93.85 258.27,94.28 258.27,94.7C258.27,95.13 258.28,95.55 258.28,95.98C258.28,96.4 258.29,96.83 258.29,97.25C258.3,97.67 258.3,98.1 258.31,98.52C258.32,98.94 258.33,99.37 258.34,99.79C258.35,100.22 258.36,100.64 258.37,101.07C258.38,101.49 258.38,101.92 258.39,102.34C258.4,102.76 258.4,103.19 258.41,103.61C258.41,104.03 258.42,104.46 258.42,104.88C258.42,105.31 258.42,105.73 258.42,106.16C258.42,106.58 258.43,107.01 258.43,107.43C258.43,107.85 258.43,108.28 258.43,108.7C258.43,109.12 258.43,109.55 258.43,109.97C258.43,110.4 258.43,110.82 258.43,111.25C258.43,111.67 258.43,112.1 258.43,112.52C258.43,112.94 258.43,113.37 258.43,113.79C258.43,114.21 258.43,114.64 258.43,115.06C258.43,115.49 258.43,115.91 258.43,116.34C258.43,116.76 258.43,117.19 258.43,117.61C258.43,118.03 258.43,118.46 258.43,118.88C258.43,119.3 258.43,119.73 258.43,120.15C258.43,120.57 258.43,121 258.43,121.42C258.43,121.85 258.43,122.27 258.43,122.7C258.43,123.12 258.43,123.55 258.43,123.97C258.43,124.39 258.43,124.82 258.43,125.24C258.43,125.66 258.43,126.09 258.43,126.51C258.43,126.94 258.43,127.36 258.43,127.79C258.43,128.21 258.43,128.64 258.43,129.06C258.43,129.48 258.43,129.91 258.43,130.33C258.43,130.75 258.43,131.18 258.43,131.6C258.43,132.03 258.42,132.45 258.42,132.88C258.42,133.3 258.42,133.73 258.42,134.15C258.42,134.57 258.41,135 258.41,135.42C258.41,135.84 258.4,136.27 258.4,136.69C258.39,137.12 258.39,137.54 258.38,137.97C258.37,138.39 258.36,138.82 258.35,139.24C258.34,139.66 258.34,140.09 258.33,140.51C258.32,140.93 258.31,141.36 258.31,141.78C258.3,142.21 258.3,142.63 258.3,143.06C258.3,143.48 258.31,143.91 258.31,144.33C258.32,144.75 258.32,145.18 258.33,145.6C258.34,146.02 258.34,146.45 258.35,146.87C258.36,147.3 258.37,147.72 258.38,148.15C258.39,148.57 258.39,149 258.4,149.42Q258.4,149.84 258.41,150.69Z" style="vector-effect: none; stroke-width: 0.5px; stroke: rgb(0, 0, 0); stroke-opacity: 1; fill: rgb(186, 105, 190); fill-opacity: 1;"/><path class="meanline" d="M270.9763488769531,27.87H245.8836511230469" style="fill: none; vector-effect: none; stroke-width: 0.5px; stroke-dasharray: 1px, 0.5px; stroke: rgb(0, 0, 0); stroke-opacity: 1;"/></g><g class="trace violins" style="opacity: 1;"><path class="violin" d="M315.91,93.99Q315.94,92.66 315.96,92C315.98,91.34 316.01,90.67 316.04,90.01C316.07,89.35 316.11,88.69 316.15,88.03C316.19,87.37 316.23,86.7 316.28,86.04C316.33,85.38 316.39,84.72 316.44,84.06C316.49,83.4 316.54,82.73 316.59,82.07C316.64,81.41 316.69,80.74 316.73,80.08C316.77,79.42 316.8,78.76 316.82,78.1C316.84,77.44 316.85,76.77 316.85,76.11C316.85,75.45 316.84,74.78 316.83,74.12C316.82,73.46 316.8,72.8 316.78,72.14C316.76,71.48 316.74,70.81 316.72,70.15C316.71,69.49 316.69,68.83 316.69,68.17C316.69,67.51 316.7,66.84 316.72,66.18C316.74,65.52 316.76,64.85 316.79,64.19C316.82,63.53 316.87,62.87 316.92,62.21C316.97,61.55 317.02,60.88 317.07,60.22C317.12,59.56 317.17,58.9 317.23,58.24C317.29,57.58 317.36,56.91 317.43,56.25C317.5,55.59 317.57,54.92 317.67,54.26C317.77,53.6 317.88,52.94 318.02,52.28C318.16,51.62 318.32,50.95 318.51,50.29C318.7,49.63 318.92,48.97 319.14,48.31C319.36,47.65 319.62,46.98 319.85,46.32C320.08,45.66 320.33,44.99 320.54,44.33C320.75,43.67 320.95,43.01 321.13,42.35C321.31,41.69 321.45,41.02 321.6,40.36C321.75,39.7 321.88,39.04 322.03,38.38C322.18,37.72 322.32,37.05 322.52,36.39C322.72,35.72 322.95,35.05 323.23,34.4C323.52,33.73 323.87,33.07 324.24,32.42C324.62,31.75 325.06,31.09 325.5,30.43C325.95,29.76 326.44,29.1 326.9,28.44C327.35,27.78 327.84,27.13 328.24,26.46C328.63,25.81 329.02,25.15 329.3,24.47C329.57,23.82 329.8,23.16 329.9,22.49C330,21.83 330.02,21.16 329.93,20.5C329.84,19.83 329.63,19.16 329.36,18.51C329.08,17.83 328.67,17.17 328.24,16.53C327.78,15.85 327.24,15.19 326.68,14.54C326.11,13.87 325.46,13.22 324.84,12.56C324.21,11.89 323.54,11.24 322.91,10.57C322.29,9.91 321.65,9.25 321.07,8.58C320.51,7.93 319.96,7.27 319.47,6.6C319,5.95 318.56,5.29 318.19,4.61C317.83,3.96 317.52,3.3 317.26,2.63C317.01,1.98 316.81,1.31 316.64,0.64C316.48,-0.02 316.36,-0.69 316.26,-1.35Q316.16,-2.01 316.05,-3.33L315.67,-3.33Q315.56,-2.01 315.46,-1.35C315.36,-0.69 315.25,-0.02 315.08,0.64C314.91,1.31 314.71,1.98 314.45,2.63C314.19,3.3 313.88,3.96 313.52,4.61C313.15,5.28 312.72,5.95 312.25,6.6C311.76,7.28 311.21,7.93 310.64,8.58C310.06,9.25 309.42,9.91 308.8,10.57C308.17,11.24 307.5,11.89 306.87,12.56C306.25,13.22 305.6,13.87 305.03,14.54C304.47,15.19 303.93,15.85 303.47,16.53C303.04,17.17 302.63,17.83 302.35,18.51C302.08,19.16 301.88,19.83 301.79,20.5C301.7,21.16 301.72,21.83 301.82,22.49C301.92,23.16 302.15,23.82 302.42,24.47C302.7,25.15 303.09,25.81 303.48,26.46C303.88,27.13 304.36,27.78 304.81,28.44C305.27,29.1 305.76,29.76 306.21,30.43C306.65,31.09 307.1,31.75 307.48,32.42C307.85,33.07 308.19,33.73 308.48,34.4C308.76,35.05 308.99,35.72 309.19,36.39C309.39,37.05 309.54,37.72 309.69,38.38C309.84,39.04 309.96,39.7 310.11,40.36C310.26,41.02 310.4,41.69 310.58,42.35C310.76,43.01 310.97,43.67 311.18,44.33C311.4,44.99 311.64,45.66 311.87,46.32C312.1,46.98 312.35,47.65 312.57,48.31C312.79,48.97 313.01,49.63 313.2,50.29C313.39,50.95 313.55,51.62 313.69,52.28C313.83,52.94 313.94,53.6 314.04,54.26C314.14,54.92 314.22,55.59 314.29,56.25C314.36,56.91 314.42,57.58 314.48,58.24C314.54,58.9 314.6,59.56 314.65,60.22C314.7,60.88 314.75,61.55 314.8,62.21C314.84,62.87 314.89,63.53 314.92,64.19C314.95,64.85 314.98,65.52 315,66.18C315.02,66.84 315.02,67.51 315.02,68.17C315.02,68.83 315,69.49 314.99,70.15C314.98,70.81 314.96,71.48 314.94,72.14C314.92,72.8 314.89,73.46 314.88,74.12C314.87,74.78 314.86,75.45 314.86,76.11C314.86,76.77 314.88,77.44 314.9,78.1C314.92,78.76 314.95,79.42 314.99,80.08C315.03,80.74 315.07,81.41 315.12,82.07C315.17,82.73 315.23,83.4 315.28,84.06C315.33,84.72 315.38,85.38 315.43,86.04C315.48,86.7 315.53,87.37 315.57,88.03C315.61,88.69 315.65,89.35 315.68,90.01C315.71,90.67 315.73,91.34 315.75,92Q315.77,92.66 315.8,93.99Z" style="vector-effect: none; stroke-width: 0.5px; stroke: rgb(0, 0, 0); stroke-opacity: 1; fill: rgb(185, 178, 194); fill-opacity: 1;"/><path class="meanline" d="M326.6244812011719,28.83H305.09551879882815" style="fill: none; vector-effect: none; stroke-width: 0.5px; stroke-dasharray: 1px, 0.5px; stroke: rgb(0, 0, 0); stroke-opacity: 1;"/></g><g class="trace violins" style="opacity: 1;"><path class="violin" d="M373.37,101.04Q373.4,100.03 373.43,99.53C373.46,99.03 373.49,98.53 373.53,98.03C373.57,97.53 373.61,97.03 373.65,96.53C373.69,96.03 373.73,95.52 373.76,95.02C373.79,94.52 373.83,94.02 373.85,93.52C373.87,93.02 373.88,92.52 373.88,92.02C373.88,91.52 373.87,91.01 373.85,90.51C373.83,90.01 373.8,89.51 373.77,89.01C373.74,88.51 373.69,88.01 373.65,87.51C373.61,87.01 373.58,86.5 373.54,86C373.51,85.5 373.47,85 373.44,84.5C373.41,84 373.39,83.5 373.37,83C373.35,82.5 373.34,81.99 373.33,81.49C373.32,80.99 373.31,80.49 373.3,79.99C373.29,79.49 373.29,78.99 373.29,78.49C373.29,77.99 373.29,77.48 373.29,76.98C373.29,76.48 373.29,75.98 373.29,75.48C373.29,74.98 373.29,74.48 373.29,73.98C373.29,73.48 373.29,72.97 373.29,72.47C373.29,71.97 373.29,71.47 373.29,70.97C373.29,70.47 373.29,69.97 373.29,69.47C373.29,68.97 373.29,68.46 373.29,67.96C373.29,67.46 373.29,66.96 373.29,66.46C373.29,65.96 373.29,65.46 373.29,64.96C373.29,64.46 373.29,63.95 373.29,63.45C373.29,62.95 373.3,62.45 373.3,61.95C373.31,61.45 373.31,60.95 373.32,60.45C373.33,59.95 373.35,59.45 373.37,58.95C373.39,58.45 373.42,57.94 373.46,57.44C373.5,56.94 373.54,56.44 373.59,55.94C373.64,55.44 373.7,54.94 373.77,54.44C373.84,53.94 373.92,53.43 373.99,52.93C374.06,52.43 374.14,51.93 374.21,51.43C374.27,50.93 374.34,50.43 374.38,49.93C374.42,49.43 374.45,48.92 374.45,48.42C374.45,47.92 374.44,47.42 374.41,46.92C374.38,46.42 374.33,45.92 374.28,45.42C374.23,44.92 374.17,44.41 374.13,43.91C374.09,43.41 374.04,42.91 374.04,42.41C374.04,41.91 374.04,41.41 374.1,40.91C374.16,40.41 374.25,39.9 374.39,39.4C374.53,38.89 374.72,38.39 374.95,37.9C375.19,37.39 375.48,36.89 375.79,36.4C376.11,35.89 376.47,35.39 376.83,34.89C377.19,34.39 377.59,33.89 377.95,33.39C378.31,32.89 378.68,32.4 379,31.89C379.32,31.39 379.61,30.89 379.88,30.38C380.14,29.88 380.37,29.38 380.59,28.88C380.81,28.38 380.99,27.88 381.2,27.38C381.41,26.88 381.62,26.37 381.86,25.87C382.1,25.36 382.37,24.86 382.66,24.37C382.96,23.86 383.29,23.37 383.62,22.87C383.96,22.36 384.33,21.86 384.68,21.36C385.03,20.86 385.4,20.37 385.72,19.86C386.04,19.37 386.35,18.87 386.6,18.36C386.84,17.87 387.05,17.36 387.18,16.85C387.3,16.36 387.38,15.85 387.36,15.35C387.34,14.85 387.23,14.34 387.04,13.85C386.84,13.33 386.53,12.82 386.18,12.34C385.8,11.82 385.31,11.32 384.81,10.84C384.27,10.32 383.66,9.83 383.05,9.34C382.42,8.83 381.75,8.34 381.11,7.84C380.47,7.34 379.81,6.84 379.2,6.33C378.61,5.84 378.03,5.34 377.5,4.83C377,4.34 376.52,3.85 376.11,3.33C375.72,2.84 375.36,2.33 375.06,1.82C374.77,1.33 374.54,0.83 374.34,0.32C374.15,-0.17 374,-0.68 373.87,-1.18C373.75,-1.68 373.66,-2.19 373.59,-2.69Q373.52,-3.19 373.43,-4.19L373.14,-4.19Q373.06,-3.19 372.99,-2.69C372.92,-2.19 372.83,-1.68 372.7,-1.18C372.57,-0.68 372.42,-0.17 372.23,0.32C372.03,0.83 371.8,1.33 371.51,1.82C371.21,2.33 370.85,2.84 370.46,3.33C370.05,3.85 369.58,4.34 369.08,4.83C368.55,5.34 367.96,5.84 367.37,6.33C366.76,6.84 366.1,7.34 365.46,7.84C364.82,8.34 364.15,8.83 363.52,9.34C362.91,9.83 362.29,10.32 361.76,10.84C361.26,11.32 360.78,11.82 360.4,12.34C360.05,12.82 359.73,13.33 359.53,13.85C359.35,14.34 359.24,14.85 359.22,15.35C359.2,15.85 359.27,16.36 359.39,16.85C359.52,17.36 359.74,17.87 359.98,18.36C360.23,18.87 360.54,19.37 360.85,19.86C361.17,20.37 361.54,20.86 361.89,21.36C362.24,21.86 362.61,22.36 362.95,22.87C363.28,23.37 363.61,23.86 363.91,24.37C364.2,24.86 364.47,25.36 364.71,25.87C364.95,26.37 365.16,26.88 365.37,27.38C365.58,27.88 365.77,28.38 365.99,28.88C366.21,29.38 366.43,29.89 366.69,30.38C366.96,30.89 367.25,31.39 367.57,31.89C367.89,32.4 368.26,32.89 368.62,33.39C368.98,33.89 369.38,34.39 369.74,34.89C370.1,35.39 370.46,35.89 370.78,36.4C371.09,36.89 371.38,37.39 371.62,37.9C371.85,38.39 372.04,38.89 372.18,39.4C372.32,39.9 372.41,40.41 372.47,40.91C372.53,41.41 372.53,41.91 372.53,42.41C372.53,42.91 372.48,43.41 372.44,43.91C372.4,44.41 372.34,44.92 372.29,45.42C372.24,45.92 372.19,46.42 372.16,46.92C372.13,47.42 372.11,47.92 372.12,48.42C372.13,48.92 372.16,49.43 372.2,49.93C372.24,50.43 372.3,50.93 372.36,51.43C372.42,51.93 372.51,52.43 372.58,52.93C372.65,53.43 372.73,53.94 372.8,54.44C372.87,54.94 372.93,55.44 372.98,55.94C373.03,56.44 373.08,56.94 373.12,57.44C373.16,57.94 373.18,58.45 373.2,58.95C373.22,59.45 373.24,59.95 373.25,60.45C373.26,60.95 373.26,61.45 373.27,61.95C373.27,62.45 373.28,62.95 373.28,63.45C373.28,63.95 373.28,64.46 373.28,64.96C373.28,65.46 373.29,65.96 373.29,66.46C373.29,66.96 373.29,67.46 373.29,67.96C373.29,68.46 373.29,68.97 373.29,69.47C373.29,69.97 373.29,70.47 373.29,70.97C373.29,71.47 373.29,71.97 373.29,72.47C373.29,72.97 373.29,73.48 373.29,73.98C373.29,74.48 373.28,74.98 373.28,75.48C373.28,75.98 373.28,76.48 373.28,76.98C373.28,77.48 373.28,77.99 373.28,78.49C373.28,78.99 373.28,79.49 373.27,79.99C373.26,80.49 373.25,80.99 373.24,81.49C373.23,81.99 373.22,82.5 373.2,83C373.18,83.5 373.16,84 373.13,84.5C373.1,85 373.06,85.5 373.03,86C372.99,86.5 372.96,87.01 372.92,87.51C372.88,88.01 372.83,88.51 372.8,89.01C372.77,89.51 372.74,90.01 372.72,90.51C372.7,91.01 372.69,91.52 372.69,92.02C372.69,92.52 372.7,93.02 372.72,93.52C372.74,94.02 372.78,94.52 372.81,95.02C372.85,95.52 372.89,96.03 372.93,96.53C372.97,97.03 373,97.53 373.04,98.03C373.07,98.53 373.11,99.03 373.14,99.53Q373.17,100.03 373.2,101.04Z" style="vector-effect: none; stroke-width: 0.5px; stroke: rgb(0, 0, 0); stroke-opacity: 1; fill: rgb(181, 174, 112); fill-opacity: 1;"/><path class="meanline" d="M384.6664123535156,21.38H361.9135876464844" style="fill: none; vector-effect: none; stroke-width: 0.5px; stroke-dasharray: 1px, 0.5px; stroke: rgb(0, 0, 0); stroke-opacity: 1;"/></g></g></g><g class="overplot"/><path class="xlines-above crisp" d="M52.5,221.25H455" style="fill: none; stroke-width: 0.5px; stroke: rgb(0, 0, 0); stroke-opacity: 1;"/><path class="ylines-above crisp" d="M52.75,20V221" style="fill: none; stroke-width: 0.5px; stroke: rgb(0, 0, 0); stroke-opacity: 1;"/><g class="overlines-above"/><g class="xaxislayer-above"><path class="xtick ticks crisp" d="M0,221.5v5" transform="translate(81.71000000000001,0)" style="stroke: rgb(68, 68, 68); stroke-opacity: 1; stroke-width: 0.5px;"/><path class="xtick ticks crisp" d="M0,221.5v5" transform="translate(139.14,0)" style="stroke: rgb(68, 68, 68); stroke-opacity: 1; stroke-width: 0.5px;"/><path class="xtick ticks crisp" d="M0,221.5v5" transform="translate(196.57,0)" style="stroke: rgb(68, 68, 68); stroke-opacity: 1; stroke-width: 0.5px;"/><path class="xtick ticks crisp" d="M0,221.5v5" transform="translate(254,0)" style="stroke: rgb(68, 68, 68); stroke-opacity: 1; stroke-width: 0.5px;"/><path class="xtick ticks crisp" d="M0,221.5v5" transform="translate(311.43,0)" style="stroke: rgb(68, 68, 68); stroke-opacity: 1; stroke-width: 0.5px;"/><path class="xtick ticks crisp" d="M0,221.5v5" transform="translate(368.86,0)" style="stroke: rgb(68, 68, 68); stroke-opacity: 1; stroke-width: 0.5px;"/><path class="xtick ticks crisp" d="M0,221.5v5" transform="translate(426.29,0)" style="stroke: rgb(68, 68, 68); stroke-opacity: 1; stroke-width: 0.5px;"/><g class="xtick"><text text-anchor="start" x="0" y="240.9" transform="translate(81.71000000000001,0) rotate(30,0,234.9)" style="font-family: Helvetica; font-size: 12px; fill: rgb(0, 0, 0); fill-opacity: 1; white-space: pre; opacity: 1;">canonical (t/d)</text></g><g class="xtick"><text text-anchor="start" x="0" y="240.9" transform="translate(139.14,0) rotate(30,0,234.9)" style="font-family: Helvetica; font-size: 12px; fill: rgb(0, 0, 0); fill-opacity: 1; white-space: pre; opacity: 1;">canonical (PISCES)</text></g><g class="xtick"><text text-anchor="start" x="0" y="240.9" transform="translate(196.57,0) rotate(30,0,234.9)" style="font-family: Helvetica; font-size: 12px; fill: rgb(0, 0, 0); fill-opacity: 1; white-space: pre; opacity: 1;">spliced</text></g><g class="xtick"><text text-anchor="start" x="0" y="240.9" transform="translate(254,0) rotate(30,0,234.9)" style="font-family: Helvetica; font-size: 12px; fill: rgb(0, 0, 0); fill-opacity: 1; white-space: pre; opacity: 1;">multimapped</text></g><g class="xtick"><text text-anchor="start" x="0" y="240.9" transform="translate(311.43,0) rotate(30,0,234.9)" style="font-family: Helvetica; font-size: 12px; fill: rgb(0, 0, 0); fill-opacity: 1; white-space: pre; opacity: 1;">cryptic</text></g><g class="xtick"><text text-anchor="start" x="0" y="240.9" transform="translate(368.86,0) rotate(30,0,234.9)" style="font-family: Helvetica; font-size: 12px; fill: rgb(0, 0, 0); fill-opacity: 1; white-space: pre; opacity: 1;">unmapped</text></g><g class="xtick"><text text-anchor="start" x="0" y="240.9" transform="translate(426.29,0) rotate(30,0,234.9)" style="font-family: Helvetica; font-size: 12px; fill: rgb(0, 0, 0); fill-opacity: 1; white-space: pre; opacity: 1;">contaminants</text></g></g><g class="yaxislayer-above"><path class="ytick ticks crisp" d="M52.5,0h-5" transform="translate(0,221)" style="stroke: rgb(68, 68, 68); stroke-opacity: 1; stroke-width: 0.5px;"/><path class="ytick ticks crisp" d="M52.5,0h-5" transform="translate(0,180.8)" style="stroke: rgb(68, 68, 68); stroke-opacity: 1; stroke-width: 0.5px;"/><path class="ytick ticks crisp" d="M52.5,0h-5" transform="translate(0,140.6)" style="stroke: rgb(68, 68, 68); stroke-opacity: 1; stroke-width: 0.5px;"/><path class="ytick ticks crisp" d="M52.5,0h-5" transform="translate(0,100.4)" style="stroke: rgb(68, 68, 68); stroke-opacity: 1; stroke-width: 0.5px;"/><path class="ytick ticks crisp" d="M52.5,0h-5" transform="translate(0,60.2)" style="stroke: rgb(68, 68, 68); stroke-opacity: 1; stroke-width: 0.5px;"/><path class="ytick ticks crisp" d="M52.5,0h-5" transform="translate(0,20)" style="stroke: rgb(68, 68, 68); stroke-opacity: 1; stroke-width: 0.5px;"/><g class="ytick"><text text-anchor="end" x="45.1" y="4.199999999999999" transform="translate(0,221)" style="font-family: Helvetica; font-size: 12px; fill: rgb(0, 0, 0); fill-opacity: 1; white-space: pre; opacity: 1;">0</text></g><g class="ytick"><text text-anchor="end" x="45.1" y="4.199999999999999" style="font-family: Helvetica; font-size: 12px; fill: rgb(0, 0, 0); fill-opacity: 1; white-space: pre; opacity: 1;" transform="translate(0,180.8)">0.2</text></g><g class="ytick"><text text-anchor="end" x="45.1" y="4.199999999999999" style="font-family: Helvetica; font-size: 12px; fill: rgb(0, 0, 0); fill-opacity: 1; white-space: pre; opacity: 1;" transform="translate(0,140.6)">0.4</text></g><g class="ytick"><text text-anchor="end" x="45.1" y="4.199999999999999" style="font-family: Helvetica; font-size: 12px; fill: rgb(0, 0, 0); fill-opacity: 1; white-space: pre; opacity: 1;" transform="translate(0,100.4)">0.6</text></g><g class="ytick"><text text-anchor="end" x="45.1" y="4.199999999999999" style="font-family: Helvetica; font-size: 12px; fill: rgb(0, 0, 0); fill-opacity: 1; white-space: pre; opacity: 1;" transform="translate(0,60.2)">0.8</text></g><g class="ytick"><text text-anchor="end" x="45.1" y="4.199999999999999" style="font-family: Helvetica; font-size: 12px; fill: rgb(0, 0, 0); fill-opacity: 1; white-space: pre; opacity: 1;" transform="translate(0,20)">1</text></g></g><g class="overaxes-above"/></g></g><g class="polarlayer"/><g class="smithlayer"/><g class="ternarylayer"/><g class="geolayer"/><g class="funnelarealayer"/><g class="pielayer"/><g class="iciclelayer"/><g class="treemaplayer"/><g class="sunburstlayer"/><g class="glimages"/><defs id="topdefs-2c72db"><g class="clips"/></defs><g class="layer-above"><g class="imagelayer"/><g class="shapelayer"/></g><g class="infolayer"><g class="g-gtitle"/><g class="g-xtitle"/><g class="g-ytitle" transform="translate(12.4560546875,0)"><text class="ytitle" transform="rotate(-90,0.5437500000000028,120.5)" x="0.5437500000000028" y="120.5" text-anchor="middle" style="font-family: Helvetica; font-size: 14px; fill: rgb(0, 0, 0); opacity: 1; font-weight: normal; white-space: pre;">Spectral Angle</text></g></g></svg>