<svg class="main-svg" xmlns="http://www.w3.org/2000/svg" xmlns:xlink="http://www.w3.org/1999/xlink" width="500" height="300" style="" viewBox="0 0 500 300"><rect x="0" y="0" width="500" height="300" style="fill: rgb(255, 255, 255); fill-opacity: 1;"/><defs id="defs-7b8b71"><g class="clips"><clipPath id="clip7b8b71xyplot" class="plotclip"><rect width="402" height="201"/></clipPath><clipPath class="axesclip" id="clip7b8b71x"><rect x="53" y="0" width="402" height="300"/></clipPath><clipPath class="axesclip" id="clip7b8b71y"><rect x="0" y="20" width="500" height="201"/></clipPath><clipPath class="axesclip" id="clip7b8b71xy"><rect x="53" y="20" width="402" height="201"/></clipPath></g><g class="gradients"/><g class="patterns"/></defs><g class="bglayer"><rect class="bg" x="53" y="20" width="402" height="201" style="fill: rgb(0, 0, 0); fill-opacity: 0; stroke-width: 0;"/></g><g class="layer-below"><g class="imagelayer"/><g class="shapelayer"/></g><g class="cartesianlayer"><g class="subplot xy"><g class="layer-subplot"><g class="shapelayer"/><g class="imagelayer"/></g><g class="minor-gridlayer"><g class="x"/><g class="y"/></g><g class="gridlayer"><g class="x"/><g class="y"/></g><g class="zerolinelayer"/><path class="xlines-below"/><path class="ylines-below"/><g class="overlines-below"/><g class="xaxislayer-below"/><g class="yaxislayer-below"/><g class="overaxes-below"/><g class="plot" transform="translate(53,20)" clip-path="url(#clip7b8b71xyplot)"><g class="violinlayer mlayer"><g class="trace violins" style="opacity: 1;"><path class="violin" d="M28.72,198.6Q28.72,197.43 28.72,196.85C28.72,196.26 28.72,195.68 28.72,195.09C28.72,194.5 28.72,193.92 28.72,193.33C28.72,192.74 28.72,192.16 28.72,191.57C28.72,190.98 28.73,190.4 28.73,189.81C28.73,189.22 28.74,188.64 28.74,188.05C28.74,187.46 28.75,186.88 28.75,186.29C28.75,185.7 28.76,185.12 28.76,184.53C28.77,183.94 28.77,183.36 28.78,182.77C28.79,182.18 28.79,181.6 28.8,181.01C28.81,180.42 28.81,179.84 28.82,179.25C28.83,178.66 28.83,178.08 28.84,177.49C28.85,176.91 28.86,176.32 28.87,175.74C28.88,175.15 28.88,174.57 28.89,173.98C28.9,173.39 28.91,172.81 28.92,172.22C28.93,171.63 28.94,171.05 28.95,170.46C28.96,169.87 28.98,169.29 28.99,168.7C29,168.11 29.01,167.53 29.02,166.94C29.03,166.35 29.05,165.77 29.06,165.18C29.07,164.59 29.08,164.01 29.09,163.42C29.1,162.83 29.12,162.25 29.14,161.66C29.15,161.07 29.16,160.49 29.18,159.9C29.2,159.31 29.22,158.73 29.24,158.14C29.26,157.55 29.29,156.97 29.31,156.38C29.33,155.8 29.36,155.21 29.38,154.63C29.41,154.04 29.43,153.46 29.46,152.87C29.48,152.28 29.51,151.7 29.53,151.11C29.55,150.52 29.58,149.94 29.6,149.35C29.62,148.76 29.64,148.18 29.66,147.59C29.68,147 29.7,146.42 29.72,145.83C29.74,145.24 29.75,144.66 29.77,144.07C29.79,143.48 29.81,142.9 29.83,142.31C29.85,141.72 29.86,141.14 29.88,140.55C29.9,139.96 29.91,139.38 29.93,138.79C29.95,138.2 29.96,137.62 29.98,137.03C30,136.45 30.02,135.86 30.04,135.28C30.06,134.69 30.08,134.11 30.1,133.52C30.12,132.93 30.15,132.35 30.18,131.76C30.21,131.17 30.23,130.59 30.26,130C30.29,129.41 30.33,128.83 30.36,128.24C30.4,127.65 30.43,127.07 30.47,126.48C30.51,125.89 30.55,125.31 30.59,124.72C30.63,124.13 30.68,123.55 30.72,122.96C30.76,122.37 30.8,121.79 30.84,121.2C30.88,120.61 30.91,120.03 30.95,119.44C30.98,118.85 31.02,118.27 31.05,117.68C31.08,117.09 31.11,116.51 31.14,115.92C31.17,115.34 31.2,114.75 31.23,114.17C31.26,113.58 31.28,113 31.3,112.41C31.33,111.82 31.35,111.24 31.38,110.65C31.4,110.06 31.42,109.48 31.45,108.89C31.48,108.3 31.51,107.72 31.54,107.13C31.57,106.54 31.6,105.96 31.63,105.37C31.66,104.78 31.7,104.2 31.74,103.61C31.78,103.02 31.83,102.44 31.87,101.85C31.92,101.26 31.96,100.68 32.01,100.09C32.06,99.5 32.11,98.92 32.16,98.33C32.21,97.74 32.27,97.16 32.33,96.57C32.38,95.99 32.44,95.4 32.49,94.82C32.54,94.23 32.59,93.65 32.64,93.06C32.69,92.47 32.73,91.89 32.78,91.3C32.82,90.71 32.87,90.13 32.91,89.54C32.95,88.95 32.99,88.37 33.03,87.78C33.07,87.19 33.11,86.61 33.15,86.02C33.19,85.43 33.23,84.85 33.27,84.26C33.31,83.67 33.36,83.09 33.41,82.5C33.46,81.91 33.51,81.33 33.57,80.74C33.63,80.15 33.69,79.57 33.76,78.98C33.83,78.39 33.9,77.81 33.98,77.22C34.06,76.63 34.14,76.05 34.23,75.46C34.32,74.88 34.41,74.29 34.51,73.71C34.61,73.12 34.72,72.54 34.83,71.95C34.94,71.36 35.06,70.78 35.18,70.19C35.3,69.6 35.44,69.02 35.57,68.43C35.7,67.84 35.84,67.26 35.97,66.67C36.11,66.08 36.24,65.5 36.38,64.91C36.51,64.32 36.65,63.74 36.78,63.15C36.91,62.56 37.03,61.98 37.15,61.39C37.27,60.8 37.38,60.22 37.49,59.63C37.6,59.04 37.69,58.46 37.79,57.87C37.89,57.28 37.98,56.7 38.08,56.11C38.17,55.52 38.26,54.94 38.36,54.35C38.45,53.77 38.55,53.18 38.65,52.6C38.75,52.01 38.86,51.43 38.97,50.84C39.09,50.25 39.21,49.67 39.34,49.08C39.47,48.49 39.61,47.91 39.76,47.32C39.91,46.73 40.06,46.15 40.22,45.56C40.38,44.97 40.56,44.39 40.73,43.8C40.9,43.21 41.07,42.63 41.24,42.04C41.4,41.45 41.57,40.87 41.72,40.28C41.87,39.69 42.02,39.11 42.15,38.52C42.27,37.94 42.38,37.35 42.47,36.76C42.56,36.17 42.64,35.59 42.69,35C42.74,34.42 42.77,33.83 42.78,33.25C42.79,32.66 42.79,32.08 42.77,31.49C42.75,30.9 42.71,30.32 42.66,29.73C42.61,29.14 42.54,28.56 42.45,27.97C42.36,27.38 42.25,26.79 42.12,26.21C41.99,25.62 41.84,25.03 41.66,24.45C41.48,23.86 41.28,23.27 41.06,22.69C40.84,22.1 40.59,21.51 40.33,20.93C40.06,20.34 39.77,19.75 39.46,19.17C39.15,18.58 38.82,17.99 38.48,17.41C38.13,16.82 37.77,16.23 37.4,15.65C37.03,15.06 36.64,14.47 36.25,13.89C35.86,13.3 35.45,12.72 35.06,12.14C34.66,11.55 34.27,10.97 33.88,10.38C33.5,9.8 33.11,9.21 32.75,8.62C32.39,8.04 32.04,7.45 31.72,6.86C31.4,6.28 31.11,5.69 30.84,5.1C30.58,4.52 30.34,3.93 30.13,3.34C29.93,2.76 29.75,2.17 29.6,1.58C29.45,1 29.33,0.41 29.23,-0.18C29.13,-0.76 29.06,-1.35 29,-1.94C28.94,-2.53 28.9,-3.11 28.86,-3.7C28.82,-4.29 28.8,-4.87 28.78,-5.46C28.76,-6.05 28.75,-6.63 28.74,-7.22Q28.73,-7.8 28.73,-8.97L28.7,-8.97Q28.69,-7.8 28.68,-7.22C28.67,-6.63 28.67,-6.05 28.65,-5.46C28.63,-4.87 28.61,-4.29 28.57,-3.7C28.53,-3.11 28.49,-2.53 28.43,-1.94C28.37,-1.35 28.3,-0.76 28.2,-0.18C28.1,0.41 27.98,1 27.83,1.58C27.68,2.17 27.5,2.76 27.3,3.34C27.09,3.93 26.85,4.52 26.59,5.1C26.32,5.69 26.03,6.28 25.71,6.86C25.39,7.45 25.04,8.04 24.68,8.62C24.32,9.21 23.93,9.8 23.55,10.38C23.16,10.97 22.77,11.55 22.37,12.14C21.98,12.72 21.57,13.3 21.18,13.89C20.79,14.47 20.4,15.06 20.03,15.65C19.66,16.23 19.3,16.82 18.95,17.41C18.61,17.99 18.28,18.58 17.97,19.17C17.66,19.75 17.37,20.34 17.1,20.93C16.83,21.51 16.58,22.1 16.36,22.69C16.14,23.27 15.95,23.86 15.77,24.45C15.6,25.03 15.44,25.62 15.31,26.21C15.18,26.79 15.07,27.38 14.98,27.97C14.89,28.56 14.83,29.14 14.77,29.73C14.72,30.32 14.67,30.9 14.65,31.49C14.63,32.08 14.62,32.66 14.64,33.25C14.66,33.83 14.69,34.42 14.74,35C14.79,35.59 14.87,36.17 14.96,36.76C15.05,37.35 15.16,37.94 15.28,38.52C15.4,39.11 15.55,39.69 15.7,40.28C15.85,40.87 16.02,41.45 16.19,42.04C16.36,42.63 16.53,43.21 16.7,43.8C16.87,44.39 17.04,44.97 17.2,45.56C17.36,46.15 17.52,46.73 17.67,47.32C17.82,47.91 17.96,48.49 18.09,49.08C18.22,49.67 18.34,50.25 18.46,50.84C18.57,51.43 18.68,52.01 18.78,52.6C18.88,53.18 18.98,53.77 19.07,54.35C19.17,54.94 19.26,55.52 19.35,56.11C19.45,56.7 19.54,57.28 19.64,57.87C19.74,58.46 19.83,59.04 19.94,59.63C20.05,60.22 20.16,60.8 20.28,61.39C20.4,61.98 20.52,62.56 20.65,63.15C20.78,63.74 20.92,64.32 21.05,64.91C21.19,65.5 21.32,66.08 21.46,66.67C21.59,67.26 21.73,67.84 21.86,68.43C21.99,69.02 22.13,69.6 22.25,70.19C22.37,70.78 22.49,71.36 22.6,71.95C22.71,72.54 22.82,73.12 22.92,73.71C23.02,74.29 23.11,74.88 23.2,75.46C23.29,76.05 23.37,76.63 23.45,77.22C23.53,77.81 23.6,78.39 23.67,78.98C23.74,79.57 23.8,80.15 23.86,80.74C23.92,81.33 23.97,81.91 24.02,82.5C24.07,83.09 24.12,83.67 24.16,84.26C24.2,84.85 24.24,85.43 24.28,86.02C24.32,86.61 24.36,87.19 24.4,87.78C24.44,88.37 24.48,88.95 24.52,89.54C24.56,90.13 24.61,90.71 24.65,91.3C24.7,91.89 24.74,92.47 24.79,93.06C24.84,93.65 24.89,94.23 24.94,94.82C24.99,95.4 25.05,95.99 25.1,96.57C25.15,97.16 25.21,97.74 25.26,98.33C25.31,98.92 25.37,99.5 25.42,100.09C25.47,100.68 25.51,101.26 25.56,101.85C25.6,102.44 25.65,103.02 25.69,103.61C25.73,104.2 25.77,104.78 25.8,105.37C25.83,105.96 25.86,106.54 25.89,107.13C25.92,107.72 25.94,108.3 25.97,108.89C26,109.48 26.02,110.06 26.05,110.65C26.08,111.24 26.1,111.82 26.13,112.41C26.15,113 26.17,113.58 26.2,114.17C26.22,114.75 26.25,115.34 26.28,115.92C26.31,116.51 26.35,117.09 26.38,117.68C26.41,118.27 26.45,118.85 26.48,119.44C26.52,120.03 26.55,120.61 26.59,121.2C26.63,121.79 26.67,122.37 26.71,122.96C26.75,123.55 26.8,124.13 26.84,124.72C26.88,125.31 26.92,125.89 26.96,126.48C27,127.07 27.03,127.65 27.07,128.24C27.1,128.83 27.14,129.41 27.17,130C27.2,130.59 27.22,131.17 27.25,131.76C27.27,132.35 27.3,132.93 27.32,133.52C27.34,134.11 27.37,134.69 27.39,135.28C27.41,135.86 27.42,136.45 27.44,137.03C27.46,137.62 27.48,138.2 27.5,138.79C27.52,139.38 27.53,139.96 27.55,140.55C27.57,141.14 27.58,141.72 27.6,142.31C27.62,142.9 27.64,143.48 27.66,144.07C27.68,144.66 27.69,145.24 27.71,145.83C27.73,146.42 27.75,147 27.77,147.59C27.79,148.18 27.81,148.76 27.83,149.35C27.85,149.94 27.88,150.52 27.9,151.11C27.92,151.7 27.95,152.28 27.97,152.87C28,153.46 28.02,154.04 28.05,154.63C28.07,155.21 28.1,155.8 28.12,156.38C28.14,156.97 28.17,157.55 28.19,158.14C28.21,158.73 28.22,159.31 28.24,159.9C28.26,160.49 28.27,161.07 28.29,161.66C28.31,162.25 28.33,162.83 28.34,163.42C28.35,164.01 28.36,164.59 28.37,165.18C28.38,165.77 28.4,166.35 28.41,166.94C28.42,167.53 28.43,168.11 28.44,168.7C28.45,169.29 28.47,169.87 28.48,170.46C28.49,171.05 28.5,171.63 28.51,172.22C28.52,172.81 28.52,173.39 28.53,173.98C28.54,174.57 28.55,175.15 28.56,175.74C28.57,176.32 28.58,176.91 28.59,177.49C28.6,178.08 28.6,178.66 28.61,179.25C28.62,179.84 28.62,180.42 28.63,181.01C28.64,181.6 28.64,182.18 28.65,182.77C28.66,183.36 28.66,183.94 28.67,184.53C28.67,185.12 28.68,185.7 28.68,186.29C28.68,186.88 28.69,187.46 28.69,188.05C28.69,188.64 28.7,189.22 28.7,189.81C28.7,190.4 28.7,190.98 28.7,191.57C28.7,192.16 28.71,192.74 28.71,193.33C28.71,193.92 28.71,194.5 28.71,195.09C28.71,195.68 28.71,196.26 28.71,196.85Q28.71,197.43 28.71,198.6Z" style="vector-effect: none; stroke-width: 0.5px; stroke: rgb(0, 0, 0); stroke-opacity: 1; fill: rgb(244, 191, 145); fill-opacity: 1;"/><path class="meanline" d="M38.254512786865234,54.99H19.165487213134767" style="fill: none; vector-effect: none; stroke-width: 0.5px; stroke-dasharray: 1px, 0.5px; stroke: rgb(0, 0, 0); stroke-opacity: 1;"/></g><g class="trace violins" style="opacity: 1;"><path class="violin" d="M86.14,193.38Q86.14,192.83 86.14,192.55C86.14,192.27 86.15,192 86.15,191.72C86.15,191.44 86.15,191.17 86.15,190.89C86.15,190.61 86.15,190.33 86.15,190.05C86.15,189.77 86.15,189.5 86.15,189.22C86.15,188.94 86.15,188.67 86.15,188.39C86.15,188.11 86.15,187.84 86.15,187.56C86.15,187.28 86.15,187 86.15,186.72C86.15,186.44 86.15,186.17 86.15,185.89C86.15,185.61 86.15,185.34 86.15,185.06C86.15,184.78 86.14,184.51 86.14,184.23C86.14,183.95 86.14,183.67 86.14,183.39C86.14,183.11 86.14,182.84 86.14,182.56C86.14,182.28 86.15,182.01 86.15,181.73C86.15,181.45 86.15,181.18 86.15,180.9C86.15,180.62 86.15,180.34 86.15,180.06C86.15,179.78 86.15,179.51 86.15,179.23C86.15,178.95 86.16,178.68 86.16,178.4C86.16,178.12 86.16,177.85 86.16,177.57C86.16,177.29 86.17,177.01 86.17,176.73C86.17,176.45 86.17,176.18 86.17,175.9C86.17,175.62 86.17,175.35 86.17,175.07C86.17,174.79 86.17,174.52 86.17,174.24C86.17,173.96 86.17,173.69 86.17,173.41C86.17,173.13 86.17,172.85 86.17,172.57C86.17,172.29 86.17,172.02 86.17,171.74C86.17,171.46 86.17,171.19 86.17,170.91C86.17,170.63 86.17,170.36 86.17,170.08C86.17,169.8 86.17,169.52 86.17,169.24C86.17,168.96 86.17,168.69 86.17,168.41C86.17,168.13 86.17,167.86 86.17,167.58C86.17,167.3 86.18,167.03 86.18,166.75C86.18,166.47 86.18,166.19 86.18,165.91C86.18,165.63 86.18,165.36 86.18,165.08C86.18,164.8 86.18,164.53 86.18,164.25C86.18,163.97 86.18,163.7 86.18,163.42C86.18,163.14 86.18,162.86 86.18,162.58C86.18,162.3 86.18,162.03 86.18,161.75C86.18,161.47 86.18,161.2 86.18,160.92C86.18,160.64 86.18,160.37 86.18,160.09C86.18,159.81 86.18,159.53 86.18,159.25C86.18,158.97 86.18,158.7 86.18,158.42C86.18,158.14 86.19,157.87 86.19,157.59C86.19,157.31 86.19,157.04 86.19,156.76C86.19,156.48 86.19,156.2 86.19,155.92C86.19,155.64 86.2,155.37 86.2,155.09C86.2,154.81 86.2,154.54 86.2,154.26C86.2,153.98 86.2,153.71 86.2,153.43C86.2,153.15 86.2,152.87 86.2,152.59C86.2,152.31 86.2,152.04 86.2,151.76C86.2,151.48 86.2,151.21 86.2,150.93C86.2,150.65 86.21,150.38 86.21,150.1C86.21,149.82 86.22,149.55 86.22,149.27C86.22,148.99 86.23,148.71 86.23,148.43C86.23,148.15 86.24,147.88 86.24,147.6C86.24,147.32 86.24,147.05 86.24,146.77C86.24,146.49 86.25,146.22 86.25,145.94C86.25,145.66 86.24,145.38 86.24,145.1C86.24,144.82 86.24,144.55 86.24,144.27C86.24,143.99 86.23,143.72 86.23,143.44C86.23,143.16 86.23,142.89 86.23,142.61C86.23,142.33 86.23,142.05 86.23,141.77C86.23,141.49 86.23,141.22 86.23,140.94C86.23,140.66 86.23,140.39 86.23,140.11C86.23,139.83 86.23,139.56 86.23,139.28C86.23,139 86.23,138.72 86.23,138.44C86.23,138.16 86.24,137.89 86.24,137.61C86.24,137.33 86.24,137.06 86.24,136.78C86.24,136.5 86.25,136.23 86.25,135.95C86.25,135.67 86.25,135.39 86.25,135.11C86.25,134.83 86.26,134.56 86.26,134.28C86.26,134 86.27,133.73 86.27,133.45C86.27,133.17 86.28,132.9 86.28,132.62C86.29,132.34 86.29,132.06 86.3,131.78C86.3,131.5 86.31,131.23 86.31,130.95C86.31,130.67 86.32,130.4 86.32,130.12C86.32,129.84 86.32,129.57 86.32,129.29C86.32,129.01 86.31,128.73 86.31,128.45C86.31,128.17 86.31,127.9 86.31,127.62C86.31,127.34 86.3,127.07 86.3,126.79C86.3,126.51 86.3,126.24 86.3,125.96C86.3,125.68 86.29,125.41 86.29,125.13C86.29,124.85 86.3,124.57 86.3,124.29C86.3,124.01 86.31,123.74 86.31,123.46C86.31,123.18 86.32,122.91 86.32,122.63C86.32,122.35 86.33,122.08 86.33,121.8C86.33,121.52 86.34,121.24 86.34,120.96C86.34,120.68 86.35,120.41 86.35,120.13C86.35,119.85 86.36,119.58 86.36,119.3C86.36,119.02 86.37,118.75 86.37,118.47C86.37,118.19 86.38,117.91 86.38,117.63C86.38,117.35 86.39,117.08 86.39,116.8C86.39,116.52 86.4,116.25 86.4,115.97C86.4,115.69 86.4,115.42 86.4,115.14C86.4,114.86 86.4,114.58 86.4,114.3C86.4,114.02 86.4,113.75 86.4,113.47C86.4,113.19 86.39,112.92 86.39,112.64C86.39,112.36 86.38,112.09 86.38,111.81C86.38,111.53 86.37,111.25 86.37,110.97C86.37,110.69 86.36,110.42 86.36,110.14C86.36,109.86 86.36,109.59 86.36,109.31C86.36,109.03 86.36,108.76 86.36,108.48C86.36,108.2 86.36,107.92 86.36,107.64C86.36,107.36 86.37,107.09 86.37,106.81C86.37,106.53 86.37,106.26 86.37,105.98C86.37,105.7 86.38,105.43 86.38,105.15C86.38,104.87 86.39,104.59 86.39,104.31C86.39,104.03 86.4,103.76 86.4,103.48C86.4,103.2 86.41,102.93 86.41,102.65C86.42,102.37 86.42,102.1 86.43,101.82C86.44,101.54 86.45,101.27 86.46,100.99C86.47,100.71 86.47,100.43 86.48,100.15C86.49,99.87 86.49,99.6 86.5,99.32C86.51,99.04 86.52,98.77 86.53,98.49C86.54,98.21 86.54,97.94 86.55,97.66C86.56,97.38 86.56,97.1 86.57,96.82C86.58,96.54 86.58,96.27 86.59,95.99C86.6,95.71 86.61,95.44 86.62,95.16C86.63,94.88 86.63,94.61 86.64,94.33C86.65,94.05 86.65,93.77 86.66,93.49C86.67,93.21 86.67,92.94 86.68,92.66C86.68,92.38 86.69,92.11 86.69,91.83C86.69,91.55 86.7,91.28 86.7,91C86.7,90.72 86.71,90.44 86.71,90.16C86.71,89.88 86.71,89.61 86.71,89.33C86.71,89.05 86.72,88.78 86.72,88.5C86.72,88.22 86.71,87.95 86.71,87.67C86.71,87.39 86.71,87.11 86.71,86.83C86.71,86.55 86.71,86.28 86.71,86C86.71,85.72 86.72,85.45 86.72,85.17C86.73,84.89 86.73,84.62 86.74,84.34C86.75,84.06 86.75,83.78 86.76,83.5C86.77,83.22 86.78,82.95 86.79,82.67C86.8,82.39 86.8,82.12 86.81,81.84C86.82,81.56 86.83,81.29 86.84,81.01C86.85,80.73 86.86,80.45 86.87,80.17C86.88,79.89 86.89,79.62 86.9,79.34C86.91,79.06 86.93,78.79 86.94,78.51C86.95,78.23 86.97,77.96 86.98,77.68C86.99,77.4 87.01,77.13 87.02,76.85C87.03,76.57 87.05,76.29 87.06,76.01C87.07,75.73 87.08,75.46 87.09,75.18C87.1,74.9 87.12,74.63 87.13,74.35C87.14,74.07 87.15,73.8 87.16,73.52C87.17,73.24 87.18,72.96 87.19,72.68C87.2,72.4 87.21,72.13 87.22,71.85C87.23,71.57 87.25,71.3 87.26,71.02C87.27,70.74 87.28,70.47 87.29,70.19C87.3,69.91 87.32,69.63 87.33,69.35C87.34,69.07 87.36,68.8 87.37,68.52C87.39,68.24 87.4,67.97 87.42,67.69C87.44,67.41 87.45,67.14 87.47,66.86C87.49,66.58 87.5,66.3 87.52,66.02C87.53,65.74 87.55,65.47 87.56,65.19C87.58,64.91 87.59,64.64 87.61,64.36C87.63,64.08 87.65,63.81 87.67,63.53C87.69,63.25 87.71,62.97 87.73,62.69C87.75,62.41 87.78,62.14 87.81,61.86C87.84,61.58 87.86,61.31 87.89,61.03C87.92,60.75 87.96,60.48 87.99,60.2C88.02,59.92 88.05,59.64 88.09,59.36C88.13,59.08 88.17,58.81 88.21,58.53C88.25,58.25 88.28,57.98 88.32,57.7C88.35,57.42 88.39,57.15 88.42,56.87C88.45,56.59 88.49,56.31 88.52,56.03C88.55,55.75 88.59,55.48 88.62,55.2C88.66,54.92 88.69,54.65 88.73,54.37C88.77,54.09 88.8,53.82 88.84,53.54C88.88,53.26 88.93,52.99 88.98,52.71C89.03,52.43 89.07,52.15 89.12,51.87C89.17,51.59 89.22,51.32 89.27,51.04C89.32,50.76 89.36,50.49 89.41,50.21C89.46,49.93 89.51,49.66 89.56,49.38C89.61,49.1 89.65,48.82 89.7,48.54C89.75,48.26 89.8,47.99 89.85,47.71C89.91,47.43 89.97,47.16 90.03,46.88C90.09,46.6 90.15,46.33 90.21,46.05C90.27,45.77 90.34,45.49 90.41,45.21C90.48,44.93 90.56,44.66 90.63,44.38C90.7,44.1 90.77,43.83 90.85,43.55C90.93,43.27 91.01,43 91.1,42.72C91.19,42.44 91.29,42.16 91.39,41.88C91.49,41.6 91.6,41.33 91.72,41.05C91.84,40.77 91.96,40.5 92.09,40.22C92.22,39.94 92.35,39.67 92.49,39.39C92.63,39.11 92.78,38.83 92.92,38.55C93.06,38.27 93.2,38 93.34,37.72C93.48,37.44 93.62,37.17 93.76,36.89C93.9,36.61 94.03,36.34 94.16,36.06C94.29,35.78 94.43,35.5 94.56,35.22C94.69,34.94 94.82,34.67 94.95,34.39C95.08,34.11 95.21,33.84 95.34,33.56C95.47,33.28 95.59,33.01 95.71,32.73C95.83,32.45 95.96,32.17 96.08,31.89C96.2,31.61 96.32,31.34 96.44,31.06C96.57,30.78 96.7,30.51 96.83,30.23C96.96,29.95 97.1,29.68 97.24,29.4C97.38,29.12 97.54,28.85 97.69,28.57C97.85,28.29 98.01,28.01 98.17,27.73C98.33,27.45 98.5,27.18 98.65,26.9C98.8,26.62 98.95,26.35 99.09,26.07C99.23,25.79 99.36,25.52 99.48,25.24C99.59,24.96 99.69,24.68 99.78,24.4C99.87,24.12 99.95,23.85 100.01,23.57C100.07,23.29 100.12,23.02 100.15,22.74C100.18,22.46 100.2,22.19 100.21,21.91C100.22,21.63 100.21,21.35 100.19,21.07C100.17,20.79 100.13,20.52 100.08,20.24C100.03,19.96 99.96,19.68 99.88,19.41C99.8,19.13 99.7,18.86 99.59,18.58C99.48,18.3 99.36,18.02 99.23,17.74C99.1,17.46 98.95,17.18 98.8,16.91C98.65,16.63 98.48,16.35 98.31,16.08C98.13,15.8 97.95,15.52 97.75,15.25C97.55,14.97 97.33,14.69 97.1,14.41C96.87,14.13 96.62,13.85 96.37,13.58C96.11,13.3 95.83,13.02 95.55,12.75C95.26,12.47 94.96,12.2 94.65,11.92C94.34,11.64 94.02,11.36 93.7,11.08C93.38,10.8 93.05,10.53 92.73,10.25C92.41,9.97 92.09,9.7 91.77,9.42C91.46,9.14 91.14,8.87 90.84,8.59C90.54,8.31 90.25,8.03 89.97,7.75C89.7,7.47 89.43,7.2 89.17,6.92C88.92,6.65 88.68,6.37 88.45,6.09C88.23,5.82 88.02,5.54 87.83,5.26C87.65,4.99 87.47,4.71 87.32,4.43C87.17,4.15 87.04,3.87 86.92,3.59C86.81,3.32 86.71,3.04 86.63,2.76C86.55,2.49 86.49,2.21 86.43,1.93C86.38,1.65 86.33,1.38 86.3,1.1C86.26,0.82 86.24,0.54 86.22,0.26C86.2,-0.02 86.19,-0.29 86.18,-0.57C86.17,-0.85 86.17,-1.12 86.16,-1.4Q86.16,-1.68 86.15,-2.23L86.14,-2.23Q86.13,-1.68 86.13,-1.4C86.12,-1.12 86.12,-0.85 86.11,-0.57C86.1,-0.29 86.08,-0.02 86.06,0.26C86.04,0.54 86.02,0.82 85.99,1.1C85.96,1.38 85.91,1.65 85.86,1.93C85.8,2.21 85.74,2.49 85.66,2.76C85.58,3.04 85.48,3.32 85.37,3.59C85.25,3.87 85.12,4.15 84.97,4.43C84.82,4.71 84.64,4.99 84.46,5.26C84.27,5.54 84.06,5.82 83.84,6.09C83.61,6.37 83.37,6.65 83.12,6.92C82.86,7.2 82.6,7.48 82.32,7.75C82.04,8.03 81.74,8.31 81.44,8.59C81.14,8.87 80.83,9.15 80.52,9.42C80.2,9.7 79.87,9.97 79.55,10.25C79.23,10.53 78.9,10.8 78.58,11.08C78.26,11.36 77.94,11.64 77.63,11.92C77.32,12.2 77.02,12.47 76.73,12.75C76.45,13.02 76.17,13.3 75.91,13.58C75.66,13.85 75.41,14.13 75.18,14.41C74.95,14.69 74.74,14.97 74.54,15.25C74.34,15.52 74.16,15.8 73.98,16.08C73.81,16.35 73.64,16.63 73.49,16.91C73.34,17.18 73.19,17.46 73.06,17.74C72.93,18.02 72.8,18.3 72.69,18.58C72.58,18.86 72.49,19.13 72.41,19.41C72.33,19.68 72.26,19.96 72.21,20.24C72.16,20.52 72.11,20.79 72.09,21.07C72.07,21.35 72.06,21.63 72.07,21.91C72.08,22.19 72.11,22.46 72.14,22.74C72.18,23.02 72.22,23.29 72.28,23.57C72.34,23.85 72.41,24.12 72.5,24.4C72.59,24.68 72.7,24.96 72.81,25.24C72.93,25.52 73.05,25.8 73.19,26.07C73.33,26.35 73.49,26.62 73.64,26.9C73.79,27.18 73.95,27.45 74.11,27.73C74.27,28.01 74.43,28.29 74.59,28.57C74.75,28.85 74.9,29.12 75.05,29.4C75.19,29.67 75.33,29.95 75.46,30.23C75.59,30.51 75.71,30.78 75.84,31.06C75.96,31.34 76.09,31.61 76.21,31.89C76.33,32.17 76.45,32.45 76.57,32.73C76.69,33.01 76.82,33.28 76.95,33.56C77.08,33.84 77.2,34.11 77.33,34.39C77.46,34.67 77.59,34.94 77.72,35.22C77.85,35.5 77.98,35.78 78.12,36.06C78.25,36.34 78.39,36.61 78.53,36.89C78.67,37.17 78.8,37.44 78.94,37.72C79.08,38 79.23,38.27 79.37,38.55C79.51,38.83 79.65,39.11 79.79,39.39C79.93,39.67 80.07,39.94 80.2,40.22C80.33,40.5 80.45,40.77 80.57,41.05C80.69,41.33 80.8,41.6 80.9,41.88C81,42.16 81.09,42.44 81.18,42.72C81.27,43 81.35,43.27 81.43,43.55C81.51,43.83 81.59,44.1 81.66,44.38C81.73,44.66 81.8,44.93 81.87,45.21C81.94,45.49 82,45.77 82.07,46.05C82.13,46.33 82.2,46.6 82.26,46.88C82.32,47.16 82.37,47.43 82.43,47.71C82.48,47.99 82.54,48.26 82.59,48.54C82.64,48.82 82.68,49.1 82.73,49.38C82.78,49.66 82.82,49.93 82.87,50.21C82.92,50.49 82.97,50.76 83.02,51.04C83.07,51.32 83.11,51.59 83.16,51.87C83.21,52.15 83.26,52.43 83.31,52.71C83.36,52.99 83.4,53.26 83.44,53.54C83.48,53.82 83.52,54.09 83.56,54.37C83.6,54.65 83.63,54.92 83.66,55.2C83.69,55.48 83.73,55.75 83.76,56.03C83.79,56.31 83.82,56.59 83.86,56.87C83.89,57.15 83.93,57.42 83.97,57.7C84.01,57.98 84.04,58.25 84.08,58.53C84.12,58.81 84.15,59.08 84.19,59.36C84.23,59.64 84.27,59.92 84.3,60.2C84.33,60.48 84.36,60.75 84.39,61.03C84.42,61.31 84.45,61.58 84.48,61.86C84.51,62.14 84.53,62.41 84.55,62.69C84.57,62.97 84.6,63.25 84.62,63.53C84.64,63.81 84.65,64.08 84.67,64.36C84.69,64.64 84.7,64.91 84.72,65.19C84.74,65.47 84.75,65.74 84.77,66.02C84.79,66.3 84.8,66.58 84.82,66.86C84.84,67.14 84.85,67.41 84.87,67.69C84.89,67.97 84.9,68.24 84.92,68.52C84.93,68.8 84.95,69.07 84.96,69.35C84.97,69.63 84.99,69.91 85,70.19C85.01,70.47 85.02,70.74 85.03,71.02C85.04,71.3 85.05,71.57 85.06,71.85C85.07,72.13 85.08,72.4 85.09,72.68C85.1,72.96 85.12,73.24 85.13,73.52C85.14,73.8 85.15,74.07 85.16,74.35C85.17,74.63 85.18,74.9 85.19,75.18C85.2,75.46 85.22,75.73 85.23,76.01C85.24,76.29 85.25,76.57 85.26,76.85C85.27,77.13 85.29,77.4 85.3,77.68C85.31,77.96 85.33,78.23 85.34,78.51C85.35,78.79 85.37,79.06 85.38,79.34C85.39,79.62 85.41,79.89 85.42,80.17C85.43,80.45 85.44,80.73 85.45,81.01C85.46,81.29 85.46,81.56 85.47,81.84C85.48,82.12 85.49,82.39 85.5,82.67C85.51,82.95 85.51,83.22 85.52,83.5C85.53,83.78 85.54,84.06 85.55,84.34C85.56,84.62 85.56,84.89 85.56,85.17C85.56,85.45 85.57,85.72 85.57,86C85.57,86.28 85.57,86.55 85.57,86.83C85.57,87.11 85.57,87.39 85.57,87.67C85.57,87.95 85.57,88.22 85.57,88.5C85.57,88.78 85.57,89.05 85.57,89.33C85.57,89.61 85.58,89.88 85.58,90.16C85.58,90.44 85.59,90.72 85.59,91C85.59,91.28 85.6,91.55 85.6,91.83C85.6,92.11 85.61,92.38 85.61,92.66C85.62,92.94 85.62,93.21 85.63,93.49C85.64,93.77 85.64,94.05 85.65,94.33C85.66,94.61 85.66,94.88 85.67,95.16C85.68,95.44 85.68,95.71 85.69,95.99C85.7,96.27 85.7,96.54 85.71,96.82C85.72,97.1 85.73,97.38 85.74,97.66C85.75,97.94 85.75,98.21 85.76,98.49C85.77,98.77 85.77,99.04 85.78,99.32C85.79,99.6 85.8,99.87 85.81,100.15C85.82,100.43 85.82,100.71 85.83,100.99C85.84,101.27 85.84,101.54 85.85,101.82C85.86,102.1 85.86,102.37 85.87,102.65C85.88,102.93 85.88,103.2 85.89,103.48C85.89,103.76 85.9,104.03 85.9,104.31C85.9,104.59 85.91,104.87 85.91,105.15C85.91,105.43 85.91,105.7 85.91,105.98C85.91,106.26 85.92,106.53 85.92,106.81C85.92,107.09 85.93,107.36 85.93,107.64C85.93,107.92 85.93,108.2 85.93,108.48C85.93,108.76 85.93,109.03 85.93,109.31C85.93,109.59 85.93,109.86 85.93,110.14C85.93,110.42 85.92,110.69 85.92,110.97C85.92,111.25 85.91,111.53 85.91,111.81C85.91,112.09 85.9,112.36 85.9,112.64C85.9,112.92 85.89,113.19 85.89,113.47C85.89,113.75 85.88,114.02 85.88,114.3C85.88,114.58 85.88,114.86 85.88,115.14C85.88,115.42 85.89,115.69 85.89,115.97C85.89,116.25 85.89,116.52 85.89,116.8C85.89,117.08 85.9,117.35 85.9,117.63C85.9,117.91 85.91,118.19 85.91,118.47C85.91,118.75 85.92,119.02 85.92,119.3C85.92,119.58 85.93,119.85 85.93,120.13C85.94,120.41 85.95,120.68 85.95,120.96C85.96,121.24 85.96,121.52 85.96,121.8C85.96,122.08 85.97,122.35 85.97,122.63C85.97,122.91 85.98,123.18 85.98,123.46C85.98,123.74 85.99,124.01 85.99,124.29C85.99,124.57 85.99,124.85 85.99,125.13C85.99,125.41 85.99,125.68 85.99,125.96C85.99,126.24 85.99,126.51 85.99,126.79C85.99,127.07 85.98,127.34 85.98,127.62C85.98,127.9 85.97,128.17 85.97,128.45C85.97,128.73 85.97,129.01 85.97,129.29C85.97,129.57 85.97,129.84 85.97,130.12C85.97,130.4 85.98,130.67 85.98,130.95C85.98,131.23 85.99,131.5 85.99,131.78C85.99,132.06 85.99,132.34 86,132.62C86,132.9 86.01,133.17 86.02,133.45C86.02,133.73 86.03,134 86.03,134.28C86.03,134.56 86.03,134.83 86.03,135.11C86.03,135.39 86.04,135.67 86.04,135.95C86.04,136.23 86.04,136.5 86.04,136.78C86.04,137.06 86.05,137.33 86.05,137.61C86.05,137.89 86.05,138.16 86.05,138.44C86.05,138.72 86.06,139 86.06,139.28C86.06,139.56 86.06,139.83 86.06,140.11C86.06,140.39 86.06,140.66 86.06,140.94C86.06,141.22 86.06,141.49 86.06,141.77C86.06,142.05 86.06,142.33 86.06,142.61C86.06,142.89 86.05,143.16 86.05,143.44C86.05,143.72 86.05,143.99 86.05,144.27C86.05,144.55 86.04,144.82 86.04,145.1C86.04,145.38 86.04,145.66 86.04,145.94C86.04,146.22 86.04,146.49 86.04,146.77C86.04,147.05 86.05,147.32 86.05,147.6C86.05,147.88 86.05,148.15 86.05,148.43C86.05,148.71 86.06,148.99 86.06,149.27C86.06,149.55 86.07,149.82 86.07,150.1C86.07,150.38 86.08,150.65 86.08,150.93C86.08,151.21 86.09,151.48 86.09,151.76C86.09,152.04 86.09,152.31 86.09,152.59C86.09,152.87 86.09,153.15 86.09,153.43C86.09,153.71 86.09,153.98 86.09,154.26C86.09,154.54 86.09,154.81 86.09,155.09C86.09,155.37 86.09,155.64 86.09,155.92C86.09,156.2 86.1,156.48 86.1,156.76C86.1,157.04 86.1,157.31 86.1,157.59C86.1,157.87 86.1,158.14 86.1,158.42C86.1,158.7 86.11,158.97 86.11,159.25C86.11,159.53 86.11,159.81 86.11,160.09C86.11,160.37 86.11,160.64 86.11,160.92C86.11,161.2 86.11,161.47 86.11,161.75C86.11,162.03 86.11,162.3 86.11,162.58C86.11,162.86 86.1,163.14 86.1,163.42C86.1,163.7 86.1,163.97 86.1,164.25C86.1,164.53 86.1,164.8 86.1,165.08C86.1,165.36 86.1,165.63 86.1,165.91C86.1,166.19 86.11,166.47 86.11,166.75C86.11,167.03 86.11,167.3 86.11,167.58C86.11,167.86 86.11,168.13 86.11,168.41C86.11,168.69 86.11,168.96 86.11,169.24C86.11,169.52 86.12,169.8 86.12,170.08C86.12,170.36 86.12,170.63 86.12,170.91C86.12,171.19 86.12,171.46 86.12,171.74C86.12,172.02 86.12,172.29 86.12,172.57C86.12,172.85 86.12,173.13 86.12,173.41C86.12,173.69 86.12,173.96 86.12,174.24C86.12,174.52 86.12,174.79 86.12,175.07C86.12,175.35 86.12,175.62 86.12,175.9C86.12,176.18 86.12,176.45 86.12,176.73C86.12,177.01 86.12,177.29 86.12,177.57C86.12,177.85 86.13,178.12 86.13,178.4C86.13,178.68 86.13,178.95 86.13,179.23C86.13,179.51 86.14,179.78 86.14,180.06C86.14,180.34 86.14,180.62 86.14,180.9C86.14,181.18 86.14,181.45 86.14,181.73C86.14,182.01 86.14,182.28 86.14,182.56C86.14,182.84 86.14,183.11 86.14,183.39C86.14,183.67 86.14,183.95 86.14,184.23C86.14,184.51 86.14,184.78 86.14,185.06C86.14,185.34 86.14,185.61 86.14,185.89C86.14,186.17 86.14,186.44 86.14,186.72C86.14,187 86.14,187.28 86.14,187.56C86.14,187.84 86.14,188.11 86.14,188.39C86.14,188.67 86.14,188.94 86.14,189.22C86.14,189.5 86.14,189.77 86.14,190.05C86.14,190.33 86.14,190.61 86.14,190.89C86.14,191.17 86.14,191.44 86.14,191.72C86.14,192 86.14,192.27 86.14,192.55Q86.14,192.83 86.14,193.38Z" style="vector-effect: none; stroke-width: 0.5px; stroke: rgb(0, 0, 0); stroke-opacity: 1; fill: rgb(236, 154, 86); fill-opacity: 1;"/><path class="meanline" d="M95.56240844726562,33.07H76.71759155273438" style="fill: none; vector-effect: none; stroke-width: 0.5px; stroke-dasharray: 1px, 0.5px; stroke: rgb(0, 0, 0); stroke-opacity: 1;"/></g><g class="trace violins" style="opacity: 1;"><path class="violin" d="M143.63,84.88Q143.65,83.89 143.67,83.39C143.69,82.9 143.71,82.4 143.73,81.91C143.75,81.41 143.78,80.92 143.81,80.42C143.84,79.93 143.87,79.43 143.89,78.94C143.91,78.44 143.93,77.95 143.94,77.45C143.95,76.95 143.97,76.46 143.97,75.96C143.97,75.47 143.97,74.97 143.96,74.48C143.95,73.98 143.94,73.49 143.92,72.99C143.9,72.49 143.88,72 143.86,71.5C143.85,71.01 143.84,70.51 143.83,70.02C143.82,69.52 143.81,69.03 143.82,68.53C143.83,68.04 143.85,67.54 143.87,67.05C143.89,66.55 143.93,66.06 143.96,65.56C144,65.06 144.04,64.57 144.08,64.07C144.12,63.58 144.18,63.08 144.22,62.59C144.27,62.09 144.31,61.6 144.35,61.1C144.39,60.61 144.43,60.11 144.46,59.62C144.49,59.12 144.52,58.63 144.53,58.13C144.54,57.63 144.55,57.14 144.55,56.64C144.55,56.15 144.54,55.65 144.53,55.16C144.52,54.66 144.5,54.17 144.49,53.67C144.48,53.17 144.47,52.68 144.47,52.18C144.47,51.69 144.48,51.19 144.51,50.7C144.54,50.2 144.59,49.7 144.66,49.21C144.73,48.71 144.82,48.22 144.92,47.73C145.02,47.23 145.14,46.74 145.26,46.24C145.38,45.74 145.52,45.25 145.64,44.75C145.76,44.26 145.88,43.76 146,43.27C146.12,42.77 146.22,42.28 146.34,41.78C146.45,41.29 146.56,40.79 146.69,40.3C146.82,39.8 146.97,39.3 147.14,38.81C147.32,38.31 147.51,37.81 147.74,37.32C147.97,36.82 148.24,36.33 148.52,35.84C148.81,35.34 149.13,34.84 149.45,34.35C149.77,33.85 150.11,33.36 150.44,32.86C150.77,32.37 151.09,31.88 151.41,31.38C151.73,30.89 152.04,30.39 152.34,29.89C152.64,29.4 152.93,28.9 153.22,28.41C153.52,27.91 153.81,27.42 154.11,26.92C154.41,26.42 154.73,25.93 155.04,25.43C155.35,24.94 155.67,24.45 155.97,23.95C156.26,23.46 156.57,22.96 156.81,22.46C157.04,21.97 157.27,21.48 157.41,20.98C157.54,20.49 157.64,19.99 157.64,19.49C157.64,18.99 157.56,18.49 157.42,18C157.27,17.5 157.04,17 156.77,16.52C156.49,16.01 156.13,15.52 155.76,15.03C155.38,14.52 154.95,14.03 154.52,13.54C154.09,13.04 153.63,12.55 153.17,12.06C152.71,11.56 152.24,11.07 151.77,10.57C151.3,10.08 150.83,9.59 150.36,9.09C149.9,8.6 149.43,8.1 148.98,7.6C148.53,7.11 148.09,6.61 147.67,6.11C147.26,5.62 146.86,5.13 146.5,4.63C146.15,4.14 145.81,3.64 145.52,3.14C145.24,2.65 144.99,2.16 144.78,1.66C144.57,1.17 144.4,0.67 144.26,0.17C144.12,-0.32 144.02,-0.82 143.93,-1.32Q143.84,-1.81 143.74,-2.8L143.4,-2.8Q143.3,-1.81 143.21,-1.32C143.12,-0.82 143.02,-0.32 142.88,0.17C142.74,0.67 142.57,1.17 142.36,1.66C142.15,2.16 141.9,2.65 141.62,3.14C141.33,3.64 140.99,4.14 140.64,4.63C140.28,5.13 139.88,5.62 139.47,6.11C139.05,6.61 138.61,7.11 138.16,7.6C137.71,8.1 137.24,8.6 136.78,9.09C136.31,9.59 135.84,10.08 135.37,10.57C134.9,11.07 134.43,11.56 133.97,12.06C133.51,12.55 133.05,13.04 132.62,13.54C132.19,14.03 131.76,14.52 131.38,15.03C131.02,15.52 130.66,16.01 130.38,16.52C130.11,17 129.87,17.5 129.72,18C129.58,18.49 129.5,18.99 129.5,19.49C129.5,19.99 129.59,20.49 129.73,20.98C129.87,21.48 130.1,21.97 130.34,22.46C130.58,22.96 130.89,23.46 131.18,23.95C131.48,24.45 131.8,24.94 132.11,25.43C132.42,25.93 132.73,26.42 133.03,26.92C133.33,27.42 133.62,27.91 133.92,28.41C134.22,28.9 134.51,29.4 134.81,29.89C135.11,30.39 135.42,30.89 135.73,31.38C136.05,31.88 136.37,32.37 136.7,32.86C137.03,33.36 137.37,33.85 137.69,34.35C138.01,34.84 138.33,35.34 138.62,35.84C138.9,36.33 139.17,36.82 139.4,37.32C139.63,37.81 139.83,38.31 140.01,38.81C140.18,39.3 140.32,39.8 140.45,40.3C140.58,40.79 140.69,41.29 140.8,41.78C140.92,42.28 141.02,42.77 141.14,43.27C141.26,43.76 141.39,44.26 141.51,44.75C141.63,45.25 141.76,45.74 141.88,46.24C142,46.74 142.13,47.23 142.23,47.73C142.33,48.22 142.41,48.71 142.48,49.21C142.55,49.7 142.6,50.2 142.63,50.7C142.66,51.19 142.67,51.69 142.67,52.18C142.67,52.68 142.66,53.17 142.65,53.67C142.64,54.17 142.62,54.66 142.61,55.16C142.6,55.65 142.59,56.15 142.59,56.64C142.59,57.14 142.6,57.63 142.61,58.13C142.62,58.63 142.65,59.12 142.68,59.62C142.71,60.11 142.75,60.61 142.79,61.1C142.83,61.6 142.88,62.09 142.93,62.59C142.97,63.08 143.02,63.58 143.06,64.07C143.1,64.57 143.15,65.06 143.19,65.56C143.22,66.06 143.25,66.55 143.27,67.05C143.29,67.54 143.31,68.04 143.32,68.53C143.33,69.03 143.33,69.52 143.32,70.02C143.31,70.51 143.29,71.01 143.28,71.5C143.26,72 143.25,72.49 143.23,72.99C143.21,73.49 143.19,73.98 143.18,74.48C143.17,74.97 143.17,75.47 143.17,75.96C143.17,76.46 143.19,76.95 143.2,77.45C143.22,77.95 143.24,78.44 143.26,78.94C143.28,79.43 143.31,79.93 143.33,80.42C143.36,80.92 143.39,81.41 143.41,81.91C143.43,82.4 143.45,82.9 143.47,83.39Q143.49,83.89 143.52,84.88Z" style="vector-effect: none; stroke-width: 0.5px; stroke: rgb(0, 0, 0); stroke-opacity: 1; fill: rgb(155, 191, 229); fill-opacity: 1;"/><path class="meanline" d="M155.76824951171875,24.28H131.37175048828124" style="fill: none; vector-effect: none; stroke-width: 0.5px; stroke-dasharray: 1px, 0.5px; stroke: rgb(0, 0, 0); stroke-opacity: 1;"/></g><g class="trace violins" style="opacity: 1;"><path class="violin" d="M201.03,91.49Q201.04,90.56 201.05,90.09C201.06,89.63 201.07,89.16 201.08,88.7C201.09,88.24 201.11,87.77 201.12,87.31C201.13,86.84 201.14,86.38 201.15,85.91C201.16,85.45 201.17,84.98 201.18,84.52C201.19,84.06 201.19,83.59 201.19,83.13C201.19,82.66 201.2,82.2 201.19,81.73C201.18,81.27 201.17,80.8 201.16,80.34C201.15,79.88 201.13,79.41 201.12,78.95C201.11,78.48 201.09,78.02 201.08,77.55C201.07,77.09 201.06,76.62 201.05,76.16C201.04,75.69 201.04,75.23 201.03,74.76C201.03,74.3 201.02,73.83 201.02,73.37C201.02,72.91 201.01,72.44 201.01,71.98C201.01,71.51 201.01,71.05 201.02,70.58C201.02,70.12 201.03,69.65 201.04,69.19C201.05,68.73 201.06,68.26 201.08,67.8C201.1,67.33 201.11,66.87 201.14,66.4C201.17,65.94 201.21,65.47 201.25,65.01C201.29,64.55 201.34,64.08 201.4,63.62C201.46,63.15 201.53,62.68 201.61,62.22C201.69,61.75 201.79,61.29 201.89,60.83C201.99,60.37 202.1,59.9 202.23,59.44C202.36,58.97 202.5,58.5 202.65,58.04C202.8,57.57 202.97,57.11 203.13,56.65C203.3,56.19 203.47,55.73 203.64,55.26C203.8,54.8 203.97,54.33 204.12,53.86C204.27,53.4 204.41,52.94 204.52,52.47C204.63,52.01 204.72,51.54 204.79,51.07C204.86,50.61 204.9,50.14 204.95,49.68C204.99,49.22 205.02,48.75 205.06,48.29C205.1,47.82 205.13,47.36 205.18,46.89C205.23,46.43 205.29,45.96 205.37,45.5C205.45,45.04 205.56,44.57 205.67,44.11C205.79,43.64 205.91,43.17 206.06,42.71C206.21,42.24 206.37,41.78 206.55,41.32C206.73,40.85 206.92,40.39 207.14,39.93C207.36,39.46 207.6,38.99 207.87,38.53C208.14,38.06 208.45,37.6 208.77,37.14C209.1,36.67 209.48,36.21 209.85,35.75C210.23,35.28 210.64,34.82 211.04,34.35C211.44,33.89 211.85,33.43 212.23,32.96C212.6,32.5 212.98,32.04 213.31,31.57C213.63,31.11 213.93,30.65 214.17,30.17C214.4,29.71 214.6,29.25 214.75,28.78C214.89,28.32 215,27.85 215.05,27.38C215.1,26.92 215.1,26.45 215.07,25.99C215.04,25.53 214.95,25.06 214.85,24.6C214.75,24.13 214.61,23.66 214.45,23.2C214.29,22.73 214.1,22.27 213.91,21.81C213.71,21.34 213.5,20.88 213.28,20.42C213.06,19.95 212.83,19.48 212.6,19.02C212.37,18.55 212.13,18.09 211.88,17.63C211.63,17.16 211.37,16.7 211.1,16.24C210.83,15.77 210.54,15.3 210.26,14.84C209.97,14.37 209.69,13.91 209.39,13.45C209.09,12.99 208.79,12.52 208.48,12.06C208.17,11.59 207.85,11.12 207.53,10.66C207.21,10.19 206.87,9.73 206.54,9.27C206.2,8.8 205.86,8.34 205.52,7.87C205.18,7.41 204.84,6.95 204.51,6.48C204.19,6.02 203.86,5.56 203.57,5.09C203.28,4.63 203,4.16 202.76,3.69C202.52,3.23 202.3,2.77 202.12,2.3C201.94,1.84 201.79,1.38 201.66,0.91C201.53,0.45 201.44,-0.02 201.36,-0.49C201.28,-0.95 201.23,-1.42 201.18,-1.88Q201.13,-2.34 201.08,-3.27L200.92,-3.27Q200.87,-2.34 200.82,-1.88C200.77,-1.42 200.72,-0.95 200.64,-0.49C200.56,-0.02 200.47,0.45 200.34,0.91C200.21,1.38 200.06,1.84 199.88,2.3C199.7,2.77 199.48,3.23 199.24,3.69C199,4.16 198.72,4.63 198.43,5.09C198.14,5.56 197.81,6.02 197.49,6.48C197.16,6.95 196.82,7.41 196.48,7.87C196.14,8.34 195.8,8.8 195.46,9.27C195.13,9.73 194.79,10.19 194.47,10.66C194.15,11.12 193.83,11.59 193.52,12.06C193.21,12.52 192.91,12.99 192.61,13.45C192.31,13.91 192.03,14.37 191.74,14.84C191.46,15.3 191.17,15.77 190.9,16.24C190.63,16.7 190.37,17.16 190.12,17.63C189.87,18.09 189.63,18.55 189.4,19.02C189.17,19.48 188.94,19.95 188.72,20.42C188.5,20.88 188.29,21.34 188.09,21.81C187.9,22.27 187.71,22.73 187.55,23.2C187.39,23.66 187.25,24.13 187.15,24.6C187.05,25.06 186.96,25.53 186.93,25.99C186.9,26.45 186.9,26.92 186.95,27.38C187,27.85 187.11,28.32 187.25,28.78C187.4,29.25 187.6,29.71 187.83,30.17C188.07,30.65 188.37,31.11 188.69,31.57C189.02,32.04 189.4,32.5 189.77,32.96C190.15,33.43 190.56,33.89 190.96,34.35C191.36,34.82 191.77,35.28 192.15,35.75C192.52,36.21 192.9,36.67 193.23,37.14C193.55,37.6 193.86,38.06 194.13,38.53C194.4,38.99 194.64,39.46 194.86,39.93C195.08,40.39 195.27,40.85 195.45,41.32C195.63,41.78 195.79,42.24 195.94,42.71C196.09,43.17 196.21,43.64 196.33,44.11C196.44,44.57 196.55,45.04 196.63,45.5C196.71,45.96 196.77,46.43 196.82,46.89C196.87,47.36 196.9,47.82 196.94,48.29C196.98,48.75 197.01,49.22 197.05,49.68C197.1,50.14 197.14,50.61 197.21,51.07C197.28,51.54 197.37,52.01 197.48,52.47C197.59,52.94 197.73,53.4 197.88,53.86C198.03,54.33 198.2,54.8 198.36,55.26C198.53,55.73 198.7,56.19 198.87,56.65C199.03,57.11 199.2,57.57 199.35,58.04C199.5,58.5 199.64,58.97 199.77,59.44C199.9,59.9 200.01,60.37 200.11,60.83C200.21,61.29 200.31,61.75 200.39,62.22C200.47,62.68 200.54,63.15 200.6,63.62C200.66,64.08 200.71,64.55 200.75,65.01C200.79,65.47 200.83,65.94 200.86,66.4C200.89,66.87 200.9,67.33 200.92,67.8C200.94,68.26 200.95,68.73 200.96,69.19C200.97,69.65 200.98,70.12 200.98,70.58C200.99,71.05 200.99,71.51 200.99,71.98C200.99,72.44 200.98,72.91 200.98,73.37C200.98,73.83 200.97,74.3 200.97,74.76C200.96,75.23 200.96,75.69 200.95,76.16C200.94,76.62 200.93,77.09 200.92,77.55C200.91,78.02 200.89,78.48 200.88,78.95C200.87,79.41 200.85,79.88 200.84,80.34C200.83,80.8 200.82,81.27 200.81,81.73C200.8,82.2 200.81,82.66 200.81,83.13C200.81,83.59 200.81,84.06 200.82,84.52C200.83,84.98 200.84,85.45 200.85,85.91C200.86,86.38 200.87,86.84 200.88,87.31C200.89,87.77 200.91,88.24 200.92,88.7C200.93,89.16 200.94,89.63 200.95,90.09Q200.96,90.56 200.97,91.49Z" style="vector-effect: none; stroke-width: 0.5px; stroke: rgb(0, 0, 0); stroke-opacity: 1; fill: rgb(138, 165, 61); fill-opacity: 1;"/><path class="meanline" d="M214.87313842773438,28.34H187.12686157226562" style="fill: none; vector-effect: none; stroke-width: 0.5px; stroke-dasharray: 1px, 0.5px; stroke: rgb(0, 0, 0); stroke-opacity: 1;"/></g><g class="trace violins" style="opacity: 1;"><path class="violin" d="M258.45,122.19Q258.46,121.4 258.46,121C258.47,120.6 258.47,120.21 258.48,119.81C258.49,119.41 258.49,119.02 258.5,118.62C258.51,118.22 258.52,117.83 258.53,117.43C258.54,117.03 258.55,116.64 258.55,116.24C258.55,115.84 258.55,115.45 258.55,115.05C258.55,114.65 258.55,114.26 258.55,113.86C258.55,113.46 258.54,113.07 258.53,112.67C258.52,112.27 258.52,111.88 258.51,111.48C258.5,111.08 258.49,110.69 258.48,110.29C258.47,109.89 258.47,109.5 258.46,109.1C258.46,108.7 258.45,108.31 258.45,107.91C258.45,107.51 258.44,107.12 258.44,106.72C258.44,106.33 258.43,105.93 258.43,105.54C258.43,105.14 258.43,104.75 258.43,104.35C258.43,103.95 258.43,103.56 258.43,103.16C258.43,102.76 258.43,102.37 258.43,101.97C258.43,101.57 258.43,101.18 258.43,100.78C258.43,100.38 258.43,99.99 258.43,99.59C258.43,99.19 258.43,98.8 258.43,98.4C258.43,98 258.43,97.61 258.43,97.21C258.43,96.81 258.43,96.42 258.43,96.02C258.43,95.62 258.43,95.23 258.43,94.83C258.43,94.43 258.43,94.04 258.43,93.64C258.43,93.24 258.43,92.85 258.43,92.45C258.43,92.05 258.43,91.66 258.43,91.26C258.43,90.86 258.43,90.47 258.43,90.07C258.43,89.67 258.43,89.28 258.43,88.88C258.43,88.49 258.43,88.09 258.43,87.7C258.43,87.3 258.44,86.91 258.44,86.51C258.44,86.11 258.44,85.72 258.44,85.32C258.44,84.92 258.45,84.53 258.46,84.13C258.47,83.73 258.47,83.34 258.48,82.94C258.49,82.54 258.5,82.15 258.51,81.75C258.52,81.35 258.53,80.96 258.54,80.56C258.55,80.16 258.57,79.77 258.58,79.37C258.59,78.97 258.6,78.58 258.61,78.18C258.62,77.78 258.63,77.39 258.64,76.99C258.65,76.59 258.65,76.2 258.66,75.8C258.67,75.4 258.67,75.01 258.68,74.61C258.69,74.21 258.69,73.82 258.7,73.42C258.71,73.02 258.71,72.63 258.72,72.23C258.73,71.84 258.73,71.44 258.74,71.05C258.75,70.65 258.76,70.26 258.77,69.86C258.78,69.46 258.79,69.07 258.8,68.67C258.81,68.27 258.82,67.88 258.83,67.48C258.84,67.08 258.84,66.69 258.85,66.29C258.86,65.89 258.86,65.5 258.87,65.1C258.88,64.7 258.89,64.31 258.9,63.91C258.92,63.51 258.93,63.12 258.96,62.72C258.99,62.32 259.02,61.93 259.06,61.53C259.1,61.13 259.15,60.74 259.2,60.34C259.26,59.94 259.32,59.55 259.39,59.15C259.46,58.75 259.53,58.36 259.61,57.96C259.69,57.56 259.77,57.17 259.85,56.77C259.93,56.37 260.02,55.98 260.11,55.58C260.2,55.18 260.29,54.79 260.39,54.39C260.49,54 260.6,53.6 260.7,53.21C260.8,52.81 260.9,52.42 261,52.02C261.1,51.62 261.2,51.23 261.29,50.83C261.38,50.43 261.47,50.04 261.55,49.64C261.63,49.24 261.7,48.85 261.76,48.45C261.82,48.05 261.87,47.66 261.92,47.26C261.97,46.86 262.01,46.47 262.06,46.07C262.11,45.67 262.15,45.28 262.2,44.88C262.25,44.48 262.3,44.09 262.37,43.69C262.44,43.29 262.51,42.9 262.6,42.5C262.69,42.1 262.79,41.7 262.92,41.31C263.05,40.91 263.19,40.51 263.36,40.12C263.54,39.72 263.75,39.32 263.97,38.93C264.2,38.53 264.46,38.13 264.73,37.74C265.01,37.34 265.31,36.95 265.62,36.56C265.94,36.16 266.28,35.77 266.61,35.37C266.95,34.97 267.29,34.58 267.63,34.18C267.97,33.78 268.31,33.39 268.63,32.99C268.95,32.6 269.26,32.2 269.55,31.8C269.83,31.41 270.11,31.01 270.35,30.61C270.59,30.22 270.8,29.82 270.99,29.42C271.18,29.03 271.34,28.63 271.48,28.23C271.62,27.84 271.73,27.44 271.83,27.04C271.93,26.65 272.01,26.25 272.09,25.85C272.17,25.45 272.23,25.06 272.29,24.66C272.35,24.26 272.4,23.87 272.44,23.47C272.47,23.07 272.5,22.68 272.5,22.28C272.5,21.88 272.47,21.48 272.41,21.09C272.35,20.69 272.27,20.29 272.15,19.9C272.03,19.5 271.87,19.11 271.7,18.72C271.53,18.32 271.33,17.92 271.12,17.53C270.91,17.13 270.68,16.73 270.44,16.34C270.2,15.94 269.96,15.54 269.7,15.15C269.44,14.75 269.16,14.35 268.87,13.96C268.57,13.56 268.25,13.16 267.92,12.77C267.58,12.37 267.23,11.97 266.86,11.58C266.48,11.18 266.09,10.78 265.69,10.39C265.29,9.99 264.87,9.6 264.46,9.2C264.06,8.8 263.65,8.41 263.26,8.01C262.88,7.62 262.49,7.22 262.14,6.82C261.8,6.43 261.46,6.03 261.16,5.63C260.87,5.24 260.59,4.84 260.34,4.44C260.1,4.05 259.89,3.65 259.7,3.25C259.52,2.86 259.35,2.47 259.22,2.07C259.09,1.68 258.99,1.28 258.9,0.88C258.81,0.49 258.74,0.09 258.68,-0.31C258.62,-0.71 258.59,-1.1 258.56,-1.5Q258.53,-1.9 258.49,-2.69L258.37,-2.69Q258.33,-1.9 258.3,-1.5C258.27,-1.1 258.23,-0.71 258.17,-0.31C258.11,0.09 258.05,0.49 257.96,0.88C257.87,1.28 257.76,1.68 257.63,2.07C257.5,2.47 257.34,2.86 257.16,3.25C256.97,3.65 256.75,4.05 256.51,4.44C256.26,4.84 255.99,5.24 255.7,5.63C255.4,6.03 255.06,6.43 254.71,6.82C254.36,7.22 253.98,7.62 253.6,8.01C253.21,8.41 252.79,8.8 252.39,9.2C251.98,9.6 251.57,9.99 251.17,10.39C250.77,10.78 250.38,11.18 250,11.58C249.63,11.97 249.27,12.37 248.93,12.77C248.6,13.16 248.29,13.56 247.99,13.96C247.7,14.35 247.43,14.75 247.16,15.15C246.9,15.54 246.65,15.94 246.41,16.34C246.18,16.73 245.95,17.13 245.74,17.53C245.53,17.92 245.33,18.32 245.16,18.72C244.99,19.11 244.83,19.5 244.71,19.9C244.59,20.29 244.51,20.69 244.45,21.09C244.39,21.48 244.36,21.88 244.36,22.28C244.36,22.68 244.39,23.07 244.42,23.47C244.45,23.87 244.5,24.26 244.56,24.66C244.62,25.06 244.69,25.45 244.77,25.85C244.85,26.25 244.93,26.65 245.03,27.04C245.13,27.44 245.24,27.84 245.38,28.23C245.52,28.63 245.67,29.03 245.86,29.42C246.05,29.82 246.27,30.22 246.51,30.61C246.75,31.01 247.02,31.41 247.3,31.8C247.59,32.2 247.91,32.6 248.23,32.99C248.55,33.39 248.89,33.78 249.23,34.18C249.57,34.58 249.92,34.97 250.25,35.37C250.58,35.77 250.91,36.16 251.23,36.56C251.54,36.95 251.85,37.34 252.13,37.74C252.4,38.13 252.66,38.53 252.89,38.93C253.11,39.32 253.31,39.72 253.49,40.12C253.66,40.51 253.81,40.91 253.94,41.31C254.07,41.7 254.17,42.1 254.26,42.5C254.35,42.9 254.42,43.29 254.49,43.69C254.56,44.09 254.61,44.48 254.66,44.88C254.71,45.28 254.75,45.67 254.8,46.07C254.85,46.47 254.89,46.86 254.94,47.26C254.99,47.66 255.04,48.05 255.1,48.45C255.16,48.85 255.23,49.24 255.31,49.64C255.39,50.04 255.47,50.43 255.56,50.83C255.65,51.23 255.75,51.62 255.85,52.02C255.95,52.42 256.06,52.81 256.16,53.21C256.26,53.6 256.36,54 256.46,54.39C256.56,54.79 256.66,55.18 256.75,55.58C256.84,55.98 256.93,56.37 257.01,56.77C257.09,57.17 257.17,57.56 257.25,57.96C257.33,58.36 257.4,58.75 257.47,59.15C257.54,59.55 257.6,59.94 257.66,60.34C257.71,60.74 257.76,61.13 257.8,61.53C257.84,61.93 257.87,62.32 257.9,62.72C257.93,63.12 257.94,63.51 257.96,63.91C257.97,64.31 257.98,64.7 257.99,65.1C258,65.5 258,65.89 258.01,66.29C258.02,66.69 258.02,67.08 258.03,67.48C258.04,67.88 258.05,68.27 258.06,68.67C258.07,69.07 258.08,69.46 258.09,69.86C258.1,70.26 258.11,70.65 258.12,71.05C258.13,71.44 258.13,71.84 258.14,72.23C258.15,72.63 258.15,73.02 258.16,73.42C258.17,73.82 258.17,74.21 258.18,74.61C258.19,75.01 258.19,75.4 258.2,75.8C258.21,76.2 258.21,76.59 258.22,76.99C258.23,77.39 258.24,77.78 258.25,78.18C258.26,78.58 258.27,78.97 258.28,79.37C258.29,79.77 258.31,80.16 258.32,80.56C258.33,80.96 258.34,81.35 258.35,81.75C258.36,82.15 258.37,82.54 258.38,82.94C258.39,83.34 258.39,83.73 258.4,84.13C258.4,84.53 258.41,84.92 258.41,85.32C258.41,85.72 258.42,86.11 258.42,86.51C258.42,86.91 258.43,87.3 258.43,87.7C258.43,88.09 258.43,88.49 258.43,88.88C258.43,89.28 258.43,89.67 258.43,90.07C258.43,90.47 258.43,90.86 258.43,91.26C258.43,91.66 258.43,92.05 258.43,92.45C258.43,92.85 258.43,93.24 258.43,93.64C258.43,94.04 258.43,94.43 258.43,94.83C258.43,95.23 258.43,95.62 258.43,96.02C258.43,96.42 258.43,96.81 258.43,97.21C258.43,97.61 258.43,98 258.43,98.4C258.43,98.8 258.43,99.19 258.43,99.59C258.43,99.99 258.43,100.38 258.43,100.78C258.43,101.18 258.43,101.57 258.43,101.97C258.43,102.37 258.43,102.76 258.43,103.16C258.43,103.56 258.43,103.95 258.43,104.35C258.43,104.75 258.42,105.14 258.42,105.54C258.42,105.93 258.42,106.33 258.42,106.72C258.42,107.12 258.41,107.51 258.41,107.91C258.41,108.31 258.4,108.7 258.4,109.1C258.39,109.5 258.39,109.89 258.38,110.29C258.37,110.69 258.36,111.08 258.35,111.48C258.34,111.88 258.34,112.27 258.33,112.67C258.32,113.07 258.32,113.46 258.31,113.86C258.31,114.26 258.3,114.65 258.3,115.05C258.3,115.45 258.31,115.84 258.31,116.24C258.32,116.64 258.32,117.03 258.33,117.43C258.34,117.83 258.34,118.22 258.35,118.62C258.36,119.02 258.37,119.41 258.38,119.81C258.39,120.21 258.39,120.6 258.4,121Q258.4,121.4 258.41,122.19Z" style="vector-effect: none; stroke-width: 0.5px; stroke: rgb(0, 0, 0); stroke-opacity: 1; fill: rgb(186, 105, 190); fill-opacity: 1;"/><path class="meanline" d="M271.7709045410156,27.27H245.0890954589844" style="fill: none; vector-effect: none; stroke-width: 0.5px; stroke-dasharray: 1px, 0.5px; stroke: rgb(0, 0, 0); stroke-opacity: 1;"/></g><g class="trace violins" style="opacity: 1;"><path class="violin" d="M315.92,70.75Q315.95,69.68 315.98,69.15C316.01,68.62 316.04,68.08 316.08,67.55C316.12,67.02 316.16,66.48 316.21,65.95C316.26,65.41 316.31,64.88 316.37,64.34C316.42,63.81 316.48,63.27 316.54,62.74C316.6,62.21 316.65,61.67 316.71,61.14C316.76,60.61 316.82,60.07 316.87,59.54C316.92,59 316.97,58.47 317.02,57.93C317.07,57.4 317.13,56.86 317.19,56.33C317.26,55.8 317.32,55.26 317.41,54.73C317.5,54.2 317.6,53.66 317.73,53.13C317.86,52.59 318.01,52.05 318.18,51.52C318.36,50.98 318.56,50.45 318.78,49.92C319.01,49.38 319.26,48.85 319.53,48.32C319.81,47.78 320.11,47.25 320.42,46.72C320.74,46.18 321.08,45.64 321.42,45.11C321.77,44.57 322.14,44.04 322.5,43.51C322.87,42.98 323.24,42.44 323.61,41.91C323.98,41.38 324.35,40.85 324.71,40.31C325.06,39.78 325.42,39.24 325.74,38.7C326.06,38.17 326.37,37.64 326.64,37.1C326.91,36.57 327.15,36.04 327.36,35.5C327.57,34.97 327.75,34.44 327.9,33.9C328.05,33.37 328.17,32.83 328.28,32.29C328.39,31.76 328.48,31.22 328.57,30.69C328.66,30.16 328.74,29.62 328.83,29.09C328.92,28.56 329.01,28.02 329.11,27.49C329.21,26.95 329.31,26.42 329.41,25.88C329.51,25.35 329.61,24.81 329.69,24.28C329.77,23.75 329.85,23.22 329.89,22.68C329.93,22.15 329.95,21.6 329.93,21.07C329.91,20.53 329.85,20 329.74,19.47C329.63,18.93 329.48,18.4 329.28,17.87C329.07,17.33 328.82,16.79 328.52,16.27C328.21,15.72 327.84,15.19 327.45,14.66C327.04,14.11 326.58,13.59 326.11,13.06C325.63,12.52 325.1,11.99 324.58,11.46C324.05,10.92 323.48,10.4 322.93,9.86C322.38,9.33 321.83,8.79 321.3,8.25C320.78,7.72 320.27,7.19 319.8,6.65C319.35,6.13 318.9,5.6 318.52,5.05C318.15,4.53 317.82,3.99 317.53,3.45C317.25,2.92 317.01,2.38 316.82,1.84C316.63,1.31 316.49,0.78 316.37,0.24Q316.25,-0.29 316.11,-1.36L315.61,-1.36Q315.46,-0.29 315.34,0.24C315.22,0.78 315.08,1.31 314.89,1.84C314.7,2.38 314.47,2.92 314.19,3.45C313.9,4 313.56,4.53 313.19,5.05C312.81,5.59 312.37,6.13 311.92,6.65C311.45,7.19 310.93,7.72 310.41,8.25C309.88,8.79 309.32,9.33 308.78,9.86C308.23,10.4 307.67,10.92 307.14,11.46C306.61,11.99 306.09,12.52 305.6,13.06C305.13,13.58 304.68,14.11 304.27,14.66C303.88,15.19 303.51,15.72 303.2,16.27C302.9,16.79 302.64,17.33 302.43,17.87C302.23,18.4 302.08,18.93 301.97,19.47C301.86,20 301.81,20.54 301.79,21.07C301.77,21.61 301.79,22.15 301.83,22.68C301.87,23.22 301.95,23.75 302.03,24.28C302.11,24.81 302.21,25.35 302.31,25.88C302.41,26.42 302.51,26.95 302.61,27.49C302.71,28.02 302.8,28.56 302.89,29.09C302.98,29.62 303.06,30.16 303.15,30.69C303.24,31.22 303.32,31.76 303.43,32.29C303.54,32.83 303.66,33.37 303.81,33.9C303.96,34.44 304.14,34.97 304.35,35.5C304.56,36.04 304.8,36.57 305.07,37.1C305.34,37.64 305.65,38.17 305.97,38.7C306.29,39.24 306.65,39.78 307,40.31C307.36,40.85 307.73,41.38 308.1,41.91C308.47,42.44 308.84,42.98 309.21,43.51C309.57,44.04 309.94,44.57 310.29,45.11C310.63,45.64 310.97,46.18 311.29,46.72C311.6,47.25 311.9,47.78 312.18,48.32C312.45,48.85 312.7,49.38 312.93,49.92C313.15,50.45 313.35,50.98 313.53,51.52C313.71,52.05 313.86,52.59 313.99,53.13C314.12,53.66 314.21,54.2 314.3,54.73C314.39,55.26 314.46,55.8 314.53,56.33C314.59,56.86 314.64,57.4 314.69,57.93C314.74,58.47 314.79,59 314.84,59.54C314.89,60.07 314.95,60.61 315,61.14C315.06,61.67 315.11,62.21 315.17,62.74C315.23,63.27 315.29,63.81 315.34,64.34C315.4,64.88 315.45,65.41 315.5,65.95C315.55,66.48 315.59,67.02 315.63,67.55C315.67,68.08 315.7,68.62 315.73,69.15Q315.76,69.68 315.79,70.75Z" style="vector-effect: none; stroke-width: 0.5px; stroke: rgb(0, 0, 0); stroke-opacity: 1; fill: rgb(185, 178, 194); fill-opacity: 1;"/><path class="meanline" d="M329.10064697265625,27.54H302.6193530273438" style="fill: none; vector-effect: none; stroke-width: 0.5px; stroke-dasharray: 1px, 0.5px; stroke: rgb(0, 0, 0); stroke-opacity: 1;"/></g><g class="trace violins" style="opacity: 1;"><path class="violin" d="M373.34,85.05Q373.36,84.12 373.38,83.66C373.4,83.2 373.42,82.74 373.44,82.28C373.47,81.82 373.5,81.36 373.53,80.9C373.56,80.44 373.6,79.98 373.63,79.52C373.66,79.06 373.69,78.6 373.72,78.14C373.75,77.68 373.78,77.21 373.8,76.75C373.82,76.29 373.83,75.83 373.85,75.37C373.86,74.91 373.88,74.45 373.89,73.99C373.9,73.53 373.9,73.07 373.91,72.61C373.92,72.15 373.93,71.69 373.93,71.23C373.94,70.77 373.94,70.3 373.94,69.84C373.94,69.38 373.95,68.92 373.95,68.46C373.96,68 373.96,67.54 373.97,67.08C373.98,66.62 373.98,66.16 374,65.7C374.02,65.24 374.04,64.78 374.07,64.32C374.1,63.86 374.14,63.4 374.18,62.94C374.23,62.48 374.28,62.01 374.34,61.55C374.4,61.09 374.48,60.63 374.55,60.17C374.63,59.71 374.71,59.25 374.79,58.79C374.87,58.33 374.96,57.87 375.04,57.41C375.12,56.95 375.19,56.49 375.25,56.03C375.31,55.57 375.37,55.1 375.41,54.64C375.45,54.18 375.48,53.72 375.49,53.26C375.5,52.8 375.5,52.34 375.49,51.88C375.48,51.42 375.45,50.96 375.43,50.5C375.41,50.04 375.38,49.58 375.36,49.12C375.34,48.66 375.33,48.2 375.33,47.74C375.33,47.28 375.34,46.81 375.37,46.35C375.4,45.89 375.44,45.43 375.5,44.97C375.56,44.51 375.64,44.05 375.72,43.59C375.8,43.13 375.9,42.67 376,42.21C376.1,41.75 376.21,41.29 376.33,40.83C376.45,40.37 376.58,39.9 376.72,39.44C376.86,38.98 377.01,38.52 377.17,38.06C377.33,37.6 377.51,37.14 377.7,36.68C377.89,36.22 378.1,35.76 378.32,35.3C378.54,34.84 378.78,34.38 379.02,33.92C379.27,33.46 379.52,33 379.79,32.54C380.06,32.07 380.34,31.61 380.64,31.15C380.94,30.69 381.26,30.23 381.59,29.77C381.93,29.31 382.29,28.85 382.66,28.39C383.03,27.93 383.43,27.47 383.82,27.01C384.2,26.55 384.6,26.1 384.97,25.63C385.33,25.17 385.7,24.71 386.01,24.24C386.31,23.79 386.59,23.33 386.8,22.86C387,22.41 387.17,21.95 387.26,21.48C387.35,21.03 387.39,20.56 387.36,20.1C387.33,19.64 387.24,19.17 387.1,18.72C386.96,18.25 386.75,17.79 386.51,17.34C386.26,16.87 385.95,16.4 385.62,15.95C385.27,15.48 384.87,15.02 384.45,14.57C384.02,14.1 383.54,13.64 383.06,13.19C382.56,12.72 382.03,12.27 381.51,11.81C380.98,11.35 380.43,10.89 379.9,10.43C379.38,9.97 378.85,9.51 378.36,9.04C377.88,8.58 377.4,8.13 376.97,7.66C376.56,7.21 376.17,6.75 375.83,6.28C375.5,5.83 375.2,5.37 374.94,4.9C374.69,4.45 374.48,3.99 374.3,3.52C374.12,3.06 373.99,2.6 373.87,2.13C373.75,1.67 373.67,1.21 373.6,0.75C373.53,0.29 373.48,-0.17 373.44,-0.63Q373.4,-1.09 373.36,-2.01L373.21,-2.01Q373.17,-1.09 373.13,-0.63C373.09,-0.17 373.04,0.29 372.97,0.75C372.9,1.21 372.82,1.67 372.7,2.13C372.58,2.6 372.45,3.06 372.27,3.52C372.09,3.99 371.88,4.45 371.63,4.9C371.37,5.37 371.08,5.83 370.75,6.28C370.41,6.75 370.01,7.21 369.6,7.66C369.17,8.13 368.7,8.59 368.22,9.04C367.72,9.51 367.19,9.97 366.67,10.43C366.14,10.89 365.6,11.35 365.07,11.81C364.55,12.27 364.02,12.72 363.52,13.19C363.04,13.64 362.55,14.1 362.12,14.57C361.7,15.02 361.31,15.48 360.96,15.95C360.63,16.4 360.31,16.87 360.06,17.34C359.82,17.79 359.61,18.25 359.47,18.72C359.33,19.17 359.25,19.64 359.22,20.1C359.19,20.56 359.22,21.03 359.31,21.48C359.4,21.95 359.58,22.41 359.78,22.86C359.99,23.33 360.27,23.79 360.56,24.24C360.87,24.71 361.24,25.17 361.6,25.63C361.97,26.1 362.37,26.55 362.75,27.01C363.14,27.47 363.54,27.93 363.91,28.39C364.28,28.85 364.64,29.31 364.98,29.77C365.31,30.23 365.63,30.69 365.93,31.15C366.23,31.61 366.51,32.07 366.78,32.54C367.05,33 367.3,33.46 367.55,33.92C367.79,34.38 368.03,34.84 368.25,35.3C368.47,35.76 368.68,36.22 368.87,36.68C369.06,37.14 369.23,37.6 369.4,38.06C369.56,38.52 369.72,38.98 369.86,39.44C370,39.9 370.12,40.37 370.24,40.83C370.36,41.29 370.47,41.75 370.57,42.21C370.67,42.67 370.78,43.13 370.86,43.59C370.94,44.05 371.01,44.51 371.07,44.97C371.13,45.43 371.17,45.89 371.2,46.35C371.23,46.81 371.24,47.28 371.24,47.74C371.24,48.2 371.23,48.66 371.21,49.12C371.19,49.58 371.16,50.04 371.14,50.5C371.12,50.96 371.09,51.42 371.08,51.88C371.07,52.34 371.07,52.8 371.08,53.26C371.09,53.72 371.12,54.18 371.16,54.64C371.2,55.1 371.26,55.57 371.32,56.03C371.38,56.49 371.46,56.95 371.54,57.41C371.62,57.87 371.7,58.33 371.78,58.79C371.86,59.25 371.94,59.71 372.02,60.17C372.09,60.63 372.17,61.09 372.23,61.55C372.29,62.01 372.34,62.48 372.39,62.94C372.43,63.4 372.47,63.86 372.5,64.32C372.53,64.78 372.55,65.24 372.57,65.7C372.59,66.16 372.59,66.62 372.6,67.08C372.61,67.54 372.61,68 372.62,68.46C372.62,68.92 372.63,69.38 372.63,69.84C372.64,70.3 372.64,70.77 372.65,71.23C372.65,71.69 372.66,72.15 372.66,72.61C372.67,73.07 372.67,73.53 372.68,73.99C372.69,74.45 372.71,74.91 372.72,75.37C372.74,75.83 372.75,76.29 372.77,76.75C372.79,77.21 372.82,77.68 372.85,78.14C372.88,78.6 372.92,79.06 372.95,79.52C372.98,79.98 373.01,80.44 373.04,80.9C373.07,81.36 373.1,81.82 373.13,82.28C373.15,82.74 373.17,83.2 373.19,83.66Q373.21,84.12 373.24,85.05Z" style="vector-effect: none; stroke-width: 0.5px; stroke: rgb(0, 0, 0); stroke-opacity: 1; fill: rgb(181, 174, 112); fill-opacity: 1;"/><path class="meanline" d="M383.9198913574219,26.89H362.66010864257817" style="fill: none; vector-effect: none; stroke-width: 0.5px; stroke-dasharray: 1px, 0.5px; stroke: rgb(0, 0, 0); stroke-opacity: 1;"/></g></g></g><g class="overplot"/><path class="xlines-above crisp" d="M52.5,221.25H455" style="fill: none; stroke-width: 0.5px; stroke: rgb(0, 0, 0); stroke-opacity: 1;"/><path class="ylines-above crisp" d="M52.75,20V221" style="fill: none; stroke-width: 0.5px; stroke: rgb(0, 0, 0); stroke-opacity: 1;"/><g class="overlines-above"/><g class="xaxislayer-above"><path class="xtick ticks crisp" d="M0,221.5v5" transform="translate(81.71000000000001,0)" style="stroke: rgb(68, 68, 68); stroke-opacity: 1; stroke-width: 0.5px;"/><path class="xtick ticks crisp" d="M0,221.5v5" transform="translate(139.14,0)" style="stroke: rgb(68, 68, 68); stroke-opacity: 1; stroke-width: 0.5px;"/><path class="xtick ticks crisp" d="M0,221.5v5" transform="translate(196.57,0)" style="stroke: rgb(68, 68, 68); stroke-opacity: 1; stroke-width: 0.5px;"/><path class="xtick ticks crisp" d="M0,221.5v5" transform="translate(254,0)" style="stroke: rgb(68, 68, 68); stroke-opacity: 1; stroke-width: 0.5px;"/><path class="xtick ticks crisp" d="M0,221.5v5" transform="translate(311.43,0)" style="stroke: rgb(68, 68, 68); stroke-opacity: 1; stroke-width: 0.5px;"/><path class="xtick ticks crisp" d="M0,221.5v5" transform="translate(368.86,0)" style="stroke: rgb(68, 68, 68); stroke-opacity: 1; stroke-width: 0.5px;"/><path class="xtick ticks crisp" d="M0,221.5v5" transform="translate(426.29,0)" style="stroke: rgb(68, 68, 68); stroke-opacity: 1; stroke-width: 0.5px;"/><g class="xtick"><text text-anchor="start" x="0" y="240.9" transform="translate(81.71000000000001,0) rotate(30,0,234.9)" style="font-family: Helvetica; font-size: 12px; fill: rgb(0, 0, 0); fill-opacity: 1; white-space: pre; opacity: 1;">canonical (t/d)</text></g><g class="xtick"><text text-anchor="start" x="0" y="240.9" transform="translate(139.14,0) rotate(30,0,234.9)" style="font-family: Helvetica; font-size: 12px; fill: rgb(0, 0, 0); fill-opacity: 1; white-space: pre; opacity: 1;">canonical (PISCES)</text></g><g class="xtick"><text text-anchor="start" x="0" y="240.9" transform="translate(196.57,0) rotate(30,0,234.9)" style="font-family: Helvetica; font-size: 12px; fill: rgb(0, 0, 0); fill-opacity: 1; white-space: pre; opacity: 1;">spliced</text></g><g class="xtick"><text text-anchor="start" x="0" y="240.9" transform="translate(254,0) rotate(30,0,234.9)" style="font-family: Helvetica; font-size: 12px; fill: rgb(0, 0, 0); fill-opacity: 1; white-space: pre; opacity: 1;">multimapped</text></g><g class="xtick"><text text-anchor="start" x="0" y="240.9" transform="translate(311.43,0) rotate(30,0,234.9)" style="font-family: Helvetica; font-size: 12px; fill: rgb(0, 0, 0); fill-opacity: 1; white-space: pre; opacity: 1;">cryptic</text></g><g class="xtick"><text text-anchor="start" x="0" y="240.9" transform="translate(368.86,0) rotate(30,0,234.9)" style="font-family: Helvetica; font-size: 12px; fill: rgb(0, 0, 0); fill-opacity: 1; white-space: pre; opacity: 1;">unmapped</text></g><g class="xtick"><text text-anchor="start" x="0" y="240.9" transform="translate(426.29,0) rotate(30,0,234.9)" style="font-family: Helvetica; font-size: 12px; fill: rgb(0, 0, 0); fill-opacity: 1; white-space: pre; opacity: 1;">contaminants</text></g></g><g class="yaxislayer-above"><path class="ytick ticks crisp" d="M52.5,0h-5" transform="translate(0,221)" style="stroke: rgb(68, 68, 68); stroke-opacity: 1; stroke-width: 0.5px;"/><path class="ytick ticks crisp" d="M52.5,0h-5" transform="translate(0,180.8)" style="stroke: rgb(68, 68, 68); stroke-opacity: 1; stroke-width: 0.5px;"/><path class="ytick ticks crisp" d="M52.5,0h-5" transform="translate(0,140.6)" style="stroke: rgb(68, 68, 68); stroke-opacity: 1; stroke-width: 0.5px;"/><path class="ytick ticks crisp" d="M52.5,0h-5" transform="translate(0,100.4)" style="stroke: rgb(68, 68, 68); stroke-opacity: 1; stroke-width: 0.5px;"/><path class="ytick ticks crisp" d="M52.5,0h-5" transform="translate(0,60.2)" style="stroke: rgb(68, 68, 68); stroke-opacity: 1; stroke-width: 0.5px;"/><path class="ytick ticks crisp" d="M52.5,0h-5" transform="translate(0,20)" style="stroke: rgb(68, 68, 68); stroke-opacity: 1; stroke-width: 0.5px;"/><g class="ytick"><text text-anchor="end" x="45.1" y="4.199999999999999" transform="translate(0,221)" style="font-family: Helvetica; font-size: 12px; fill: rgb(0, 0, 0); fill-opacity: 1; white-space: pre; opacity: 1;">0</text></g><g class="ytick"><text text-anchor="end" x="45.1" y="4.199999999999999" style="font-family: Helvetica; font-size: 12px; fill: rgb(0, 0, 0); fill-opacity: 1; white-space: pre; opacity: 1;" transform="translate(0,180.8)">0.2</text></g><g class="ytick"><text text-anchor="end" x="45.1" y="4.199999999999999" style="font-family: Helvetica; font-size: 12px; fill: rgb(0, 0, 0); fill-opacity: 1; white-space: pre; opacity: 1;" transform="translate(0,140.6)">0.4</text></g><g class="ytick"><text text-anchor="end" x="45.1" y="4.199999999999999" style="font-family: Helvetica; font-size: 12px; fill: rgb(0, 0, 0); fill-opacity: 1; white-space: pre; opacity: 1;" transform="translate(0,100.4)">0.6</text></g><g class="ytick"><text text-anchor="end" x="45.1" y="4.199999999999999" style="font-family: Helvetica; font-size: 12px; fill: rgb(0, 0, 0); fill-opacity: 1; white-space: pre; opacity: 1;" transform="translate(0,60.2)">0.8</text></g><g class="ytick"><text text-anchor="end" x="45.1" y="4.199999999999999" style="font-family: Helvetica; font-size: 12px; fill: rgb(0, 0, 0); fill-opacity: 1; white-space: pre; opacity: 1;" transform="translate(0,20)">1</text></g></g><g class="overaxes-above"/></g></g><g class="polarlayer"/><g class="smithlayer"/><g class="ternarylayer"/><g class="geolayer"/><g class="funnelarealayer"/><g class="pielayer"/><g class="iciclelayer"/><g class="treemaplayer"/><g class="sunburstlayer"/><g class="glimages"/><defs id="topdefs-7b8b71"><g class="clips"/></defs><g class="layer-above"><g class="imagelayer"/><g class="shapelayer"/></g><g class="infolayer"><g class="g-gtitle"/><g class="g-xtitle"/><g class="g-ytitle" transform="translate(12.4560546875,0)"><text class="ytitle" transform="rotate(-90,0.5437500000000028,120.5)" x="0.5437500000000028" y="120.5" text-anchor="middle" style="font-family: Helvetica; font-size: 14px; fill: rgb(0, 0, 0); opacity: 1; font-weight: normal; white-space: pre;">Spectral Angle</text></g></g></svg>