<svg class="main-svg" xmlns="http://www.w3.org/2000/svg" xmlns:xlink="http://www.w3.org/1999/xlink" width="500" height="300" style="" viewBox="0 0 500 300"><rect x="0" y="0" width="500" height="300" style="fill: rgb(255, 255, 255); fill-opacity: 1;"/><defs id="defs-7188ed"><g class="clips"><clipPath id="clip7188edxyplot" class="plotclip"><rect width="402" height="201"/></clipPath><clipPath class="axesclip" id="clip7188edx"><rect x="53" y="0" width="402" height="300"/></clipPath><clipPath class="axesclip" id="clip7188edy"><rect x="0" y="20" width="500" height="201"/></clipPath><clipPath class="axesclip" id="clip7188edxy"><rect x="53" y="20" width="402" height="201"/></clipPath></g><g class="gradients"/><g class="patterns"/></defs><g class="bglayer"><rect class="bg" x="53" y="20" width="402" height="201" style="fill: rgb(0, 0, 0); fill-opacity: 0; stroke-width: 0;"/></g><g class="layer-below"><g class="imagelayer"/><g class="shapelayer"/></g><g class="cartesianlayer"><g class="subplot xy"><g class="layer-subplot"><g class="shapelayer"/><g class="imagelayer"/></g><g class="minor-gridlayer"><g class="x"/><g class="y"/></g><g class="gridlayer"><g class="x"/><g class="y"/></g><g class="zerolinelayer"/><path class="xlines-below"/><path class="ylines-below"/><g class="overlines-below"/><g class="xaxislayer-below"/><g class="yaxislayer-below"/><g class="overaxes-below"/><g class="plot" transform="translate(53,20)" clip-path="url(#clip7188edxyplot)"><g class="violinlayer mlayer"><g class="trace violins" style="opacity: 1;"><path class="violin" d="M28.72,199.26Q28.72,198.07 28.72,197.47C28.72,196.87 28.72,196.27 28.72,195.67C28.72,195.07 28.73,194.47 28.73,193.87C28.73,193.27 28.73,192.67 28.73,192.07C28.73,191.47 28.74,190.88 28.74,190.28C28.74,189.68 28.75,189.08 28.75,188.48C28.75,187.88 28.76,187.28 28.76,186.68C28.76,186.08 28.77,185.49 28.77,184.89C28.77,184.29 28.77,183.69 28.77,183.09C28.77,182.49 28.78,181.89 28.78,181.29C28.79,180.69 28.79,180.09 28.8,179.49C28.81,178.89 28.81,178.3 28.82,177.7C28.83,177.1 28.83,176.5 28.84,175.9C28.85,175.3 28.86,174.7 28.87,174.1C28.88,173.5 28.9,172.9 28.91,172.3C28.92,171.7 28.94,171.11 28.95,170.51C28.96,169.91 28.97,169.31 28.98,168.71C28.99,168.11 28.99,167.51 29,166.91C29.01,166.31 29.01,165.72 29.02,165.12C29.03,164.52 29.03,163.92 29.04,163.32C29.04,162.72 29.05,162.12 29.05,161.52C29.06,160.92 29.06,160.32 29.07,159.72C29.08,159.12 29.09,158.53 29.1,157.93C29.11,157.33 29.13,156.73 29.15,156.13C29.17,155.53 29.19,154.93 29.21,154.33C29.23,153.73 29.25,153.14 29.27,152.54C29.29,151.94 29.32,151.34 29.35,150.74C29.38,150.14 29.41,149.54 29.44,148.94C29.47,148.34 29.49,147.74 29.52,147.14C29.55,146.54 29.58,145.95 29.61,145.35C29.64,144.75 29.66,144.15 29.69,143.55C29.72,142.95 29.75,142.35 29.78,141.75C29.81,141.15 29.83,140.56 29.86,139.96C29.89,139.36 29.91,138.76 29.94,138.16C29.96,137.56 29.99,136.96 30.01,136.36C30.03,135.76 30.05,135.16 30.07,134.56C30.09,133.96 30.1,133.37 30.11,132.77C30.13,132.17 30.14,131.57 30.16,130.97C30.17,130.37 30.19,129.77 30.2,129.17C30.21,128.57 30.22,127.97 30.24,127.37C30.26,126.77 30.28,126.18 30.3,125.58C30.32,124.98 30.35,124.38 30.38,123.78C30.41,123.18 30.44,122.58 30.47,121.98C30.5,121.38 30.54,120.79 30.57,120.19C30.61,119.59 30.64,118.99 30.68,118.39C30.72,117.79 30.75,117.19 30.79,116.59C30.83,115.99 30.87,115.39 30.91,114.79C30.95,114.19 30.99,113.6 31.03,113C31.07,112.4 31.11,111.8 31.16,111.2C31.21,110.6 31.26,110 31.31,109.4C31.36,108.8 31.41,108.21 31.46,107.61C31.51,107.01 31.55,106.41 31.6,105.81C31.65,105.21 31.7,104.61 31.74,104.01C31.78,103.41 31.81,102.81 31.85,102.21C31.88,101.61 31.92,101.02 31.95,100.42C31.98,99.82 32,99.22 32.03,98.62C32.05,98.02 32.08,97.42 32.1,96.82C32.13,96.22 32.15,95.62 32.18,95.02C32.21,94.42 32.23,93.83 32.27,93.23C32.31,92.63 32.35,92.03 32.4,91.43C32.45,90.83 32.5,90.23 32.56,89.63C32.62,89.03 32.69,88.44 32.76,87.84C32.84,87.24 32.92,86.64 33.01,86.04C33.1,85.44 33.2,84.84 33.3,84.24C33.4,83.64 33.51,83.04 33.62,82.44C33.73,81.84 33.85,81.25 33.96,80.65C34.08,80.05 34.19,79.45 34.31,78.85C34.42,78.25 34.54,77.65 34.65,77.05C34.76,76.45 34.87,75.86 34.98,75.26C35.09,74.66 35.2,74.06 35.31,73.46C35.42,72.86 35.52,72.26 35.63,71.66C35.73,71.06 35.84,70.46 35.94,69.86C36.04,69.26 36.15,68.67 36.25,68.07C36.35,67.47 36.46,66.87 36.56,66.27C36.67,65.67 36.77,65.07 36.88,64.47C36.99,63.87 37.11,63.27 37.23,62.67C37.35,62.07 37.48,61.48 37.62,60.88C37.76,60.28 37.91,59.68 38.06,59.08C38.21,58.48 38.37,57.88 38.53,57.28C38.69,56.68 38.86,56.09 39.02,55.49C39.18,54.89 39.34,54.29 39.5,53.69C39.65,53.09 39.8,52.49 39.95,51.89C40.09,51.29 40.24,50.69 40.37,50.09C40.5,49.49 40.63,48.9 40.75,48.3C40.87,47.7 40.99,47.1 41.11,46.5C41.23,45.9 41.34,45.3 41.45,44.7C41.56,44.1 41.68,43.51 41.78,42.91C41.89,42.31 41.99,41.71 42.08,41.11C42.17,40.51 42.26,39.91 42.34,39.31C42.42,38.71 42.5,38.11 42.56,37.51C42.62,36.91 42.67,36.32 42.71,35.72C42.75,35.12 42.77,34.52 42.78,33.92C42.79,33.32 42.78,32.72 42.76,32.12C42.74,31.52 42.7,30.92 42.64,30.32C42.58,29.72 42.51,29.13 42.42,28.53C42.33,27.93 42.21,27.33 42.08,26.73C41.95,26.13 41.8,25.53 41.63,24.93C41.45,24.33 41.25,23.73 41.03,23.14C40.81,22.54 40.56,21.93 40.29,21.34C40.01,20.73 39.7,20.14 39.38,19.54C39.05,18.94 38.7,18.33 38.34,17.74C37.97,17.14 37.58,16.55 37.18,15.95C36.78,15.35 36.37,14.75 35.95,14.15C35.53,13.55 35.1,12.95 34.68,12.35C34.26,11.75 33.85,11.16 33.45,10.56C33.06,9.96 32.67,9.36 32.31,8.76C31.95,8.16 31.61,7.57 31.3,6.96C31,6.37 30.72,5.76 30.47,5.16C30.23,4.57 30.02,3.97 29.84,3.37C29.66,2.77 29.52,2.17 29.39,1.57C29.27,0.97 29.17,0.37 29.09,-0.23C29.01,-0.83 28.96,-1.42 28.91,-2.02C28.86,-2.62 28.84,-3.22 28.81,-3.82C28.79,-4.42 28.77,-5.02 28.76,-5.62Q28.75,-6.22 28.73,-7.42L28.7,-7.42Q28.68,-6.22 28.67,-5.62C28.66,-5.02 28.64,-4.42 28.62,-3.82C28.59,-3.22 28.57,-2.62 28.52,-2.02C28.47,-1.42 28.42,-0.83 28.34,-0.23C28.26,0.37 28.16,0.97 28.04,1.57C27.91,2.17 27.77,2.77 27.59,3.37C27.41,3.97 27.2,4.57 26.96,5.16C26.71,5.76 26.43,6.37 26.13,6.96C25.82,7.57 25.48,8.16 25.12,8.76C24.76,9.36 24.37,9.96 23.98,10.56C23.58,11.16 23.16,11.75 22.74,12.35C22.32,12.95 21.9,13.55 21.48,14.15C21.07,14.75 20.65,15.35 20.25,15.95C19.85,16.55 19.46,17.14 19.09,17.74C18.73,18.33 18.38,18.94 18.05,19.54C17.73,20.14 17.42,20.73 17.14,21.34C16.87,21.93 16.62,22.54 16.4,23.14C16.18,23.73 15.98,24.33 15.8,24.93C15.62,25.53 15.47,26.13 15.34,26.73C15.21,27.33 15.1,27.93 15.01,28.53C14.92,29.13 14.85,29.72 14.79,30.32C14.73,30.92 14.69,31.52 14.67,32.12C14.65,32.72 14.63,33.32 14.64,33.92C14.65,34.52 14.68,35.12 14.72,35.72C14.76,36.32 14.81,36.91 14.87,37.51C14.93,38.11 15,38.71 15.08,39.31C15.16,39.91 15.26,40.51 15.35,41.11C15.45,41.71 15.54,42.31 15.65,42.91C15.75,43.51 15.87,44.1 15.98,44.7C16.09,45.3 16.21,45.9 16.32,46.5C16.44,47.1 16.55,47.7 16.67,48.3C16.79,48.9 16.93,49.49 17.06,50.09C17.19,50.69 17.33,51.29 17.47,51.89C17.62,52.49 17.78,53.09 17.93,53.69C18.09,54.29 18.24,54.89 18.4,55.49C18.56,56.09 18.73,56.68 18.89,57.28C19.05,57.88 19.22,58.48 19.37,59.08C19.52,59.68 19.67,60.28 19.81,60.88C19.95,61.48 20.08,62.07 20.2,62.67C20.32,63.27 20.44,63.87 20.55,64.47C20.66,65.07 20.76,65.67 20.87,66.27C20.97,66.87 21.08,67.47 21.18,68.07C21.28,68.67 21.39,69.26 21.49,69.86C21.59,70.46 21.7,71.06 21.8,71.66C21.91,72.26 22.01,72.86 22.12,73.46C22.23,74.06 22.33,74.66 22.44,75.26C22.55,75.86 22.67,76.45 22.78,77.05C22.89,77.65 23.01,78.25 23.12,78.85C23.24,79.45 23.35,80.05 23.47,80.65C23.58,81.25 23.7,81.84 23.81,82.44C23.92,83.04 24.03,83.64 24.13,84.24C24.23,84.84 24.33,85.44 24.42,86.04C24.51,86.64 24.58,87.24 24.66,87.84C24.73,88.44 24.81,89.03 24.87,89.63C24.93,90.23 24.98,90.83 25.03,91.43C25.08,92.03 25.12,92.63 25.16,93.23C25.2,93.83 25.22,94.42 25.25,95.02C25.28,95.62 25.3,96.22 25.33,96.82C25.35,97.42 25.38,98.02 25.4,98.62C25.43,99.22 25.45,99.82 25.48,100.42C25.51,101.02 25.55,101.61 25.58,102.21C25.62,102.81 25.65,103.41 25.69,104.01C25.73,104.61 25.78,105.21 25.83,105.81C25.88,106.41 25.92,107.01 25.97,107.61C26.02,108.21 26.07,108.8 26.12,109.4C26.17,110 26.21,110.6 26.26,111.2C26.31,111.8 26.36,112.4 26.4,113C26.44,113.6 26.48,114.19 26.52,114.79C26.56,115.39 26.6,115.99 26.64,116.59C26.68,117.19 26.71,117.79 26.75,118.39C26.79,118.99 26.82,119.59 26.86,120.19C26.89,120.79 26.93,121.38 26.96,121.98C26.99,122.58 27.02,123.18 27.05,123.78C27.08,124.38 27.11,124.98 27.13,125.58C27.15,126.18 27.16,126.77 27.18,127.37C27.2,127.97 27.21,128.57 27.23,129.17C27.24,129.77 27.26,130.37 27.27,130.97C27.29,131.57 27.3,132.17 27.32,132.77C27.33,133.37 27.34,133.96 27.36,134.56C27.38,135.16 27.4,135.76 27.42,136.36C27.44,136.96 27.47,137.56 27.49,138.16C27.52,138.76 27.54,139.36 27.57,139.96C27.6,140.56 27.62,141.15 27.65,141.75C27.68,142.35 27.7,142.95 27.73,143.55C27.76,144.15 27.79,144.75 27.82,145.35C27.85,145.95 27.88,146.54 27.91,147.14C27.94,147.74 27.96,148.34 27.99,148.94C28.02,149.54 28.05,150.14 28.08,150.74C28.11,151.34 28.13,151.94 28.15,152.54C28.17,153.14 28.2,153.73 28.22,154.33C28.24,154.93 28.26,155.53 28.28,156.13C28.3,156.73 28.32,157.33 28.33,157.93C28.34,158.53 28.35,159.12 28.36,159.72C28.37,160.32 28.37,160.92 28.38,161.52C28.38,162.12 28.39,162.72 28.39,163.32C28.4,163.92 28.4,164.52 28.41,165.12C28.41,165.72 28.41,166.31 28.42,166.91C28.43,167.51 28.44,168.11 28.45,168.71C28.46,169.31 28.47,169.91 28.48,170.51C28.49,171.11 28.51,171.7 28.52,172.3C28.53,172.9 28.55,173.5 28.56,174.1C28.57,174.7 28.58,175.3 28.59,175.9C28.6,176.5 28.6,177.1 28.61,177.7C28.62,178.3 28.63,178.89 28.63,179.49C28.64,180.09 28.64,180.69 28.64,181.29C28.64,181.89 28.65,182.49 28.65,183.09C28.65,183.69 28.66,184.29 28.66,184.89C28.66,185.49 28.67,186.08 28.67,186.68C28.67,187.28 28.68,187.88 28.68,188.48C28.68,189.08 28.69,189.68 28.69,190.28C28.69,190.88 28.69,191.47 28.69,192.07C28.69,192.67 28.7,193.27 28.7,193.87C28.7,194.47 28.71,195.07 28.71,195.67C28.71,196.27 28.71,196.87 28.71,197.47Q28.71,198.07 28.71,199.26Z" style="vector-effect: none; stroke-width: 0.5px; stroke: rgb(0, 0, 0); stroke-opacity: 1; fill: rgb(244, 191, 145); fill-opacity: 1;"/><path class="meanline" d="M39.24124526977539,54.66H18.17875473022461" style="fill: none; vector-effect: none; stroke-width: 0.5px; stroke-dasharray: 1px, 0.5px; stroke: rgb(0, 0, 0); stroke-opacity: 1;"/></g><g class="trace violins" style="opacity: 1;"><path class="violin" d="M86.14,181.67Q86.15,180.98 86.15,180.64C86.15,180.3 86.15,179.95 86.15,179.61C86.15,179.27 86.15,178.92 86.15,178.58C86.15,178.24 86.16,177.89 86.16,177.55C86.16,177.21 86.16,176.86 86.16,176.52C86.16,176.18 86.17,175.83 86.17,175.49C86.17,175.15 86.17,174.8 86.17,174.46C86.17,174.12 86.17,173.77 86.17,173.43C86.17,173.09 86.17,172.74 86.17,172.4C86.17,172.06 86.17,171.71 86.17,171.37C86.17,171.03 86.17,170.68 86.17,170.34C86.17,170 86.17,169.65 86.17,169.31C86.17,168.97 86.17,168.62 86.17,168.28C86.17,167.94 86.18,167.59 86.18,167.25C86.18,166.91 86.18,166.56 86.18,166.22C86.18,165.88 86.18,165.53 86.18,165.19C86.18,164.85 86.19,164.5 86.19,164.16C86.19,163.82 86.19,163.47 86.19,163.13C86.19,162.79 86.19,162.44 86.19,162.1C86.19,161.76 86.19,161.41 86.19,161.07C86.19,160.73 86.19,160.38 86.19,160.04C86.19,159.7 86.18,159.35 86.18,159.01C86.18,158.67 86.18,158.32 86.18,157.98C86.18,157.64 86.18,157.29 86.18,156.95C86.18,156.61 86.18,156.26 86.18,155.92C86.18,155.58 86.18,155.23 86.18,154.89C86.18,154.55 86.18,154.2 86.18,153.86C86.18,153.52 86.18,153.17 86.18,152.83C86.18,152.49 86.18,152.14 86.18,151.8C86.18,151.46 86.18,151.11 86.18,150.77C86.18,150.43 86.18,150.08 86.18,149.74C86.18,149.4 86.19,149.05 86.19,148.71C86.19,148.37 86.19,148.02 86.19,147.68C86.19,147.34 86.18,146.99 86.18,146.65C86.18,146.31 86.18,145.96 86.18,145.62C86.18,145.28 86.17,144.93 86.17,144.59C86.17,144.25 86.17,143.9 86.17,143.56C86.17,143.22 86.17,142.87 86.17,142.53C86.17,142.19 86.18,141.84 86.18,141.5C86.18,141.16 86.18,140.81 86.18,140.47C86.18,140.13 86.19,139.78 86.19,139.44C86.19,139.1 86.2,138.75 86.2,138.41C86.2,138.07 86.21,137.72 86.21,137.38C86.21,137.04 86.21,136.69 86.21,136.35C86.21,136.01 86.22,135.66 86.22,135.32C86.22,134.98 86.22,134.63 86.22,134.29C86.22,133.95 86.23,133.6 86.23,133.26C86.23,132.92 86.24,132.57 86.24,132.23C86.25,131.89 86.25,131.54 86.26,131.2C86.26,130.86 86.27,130.52 86.27,130.18C86.28,129.84 86.28,129.49 86.29,129.15C86.3,128.81 86.3,128.46 86.31,128.12C86.32,127.78 86.32,127.43 86.33,127.09C86.34,126.75 86.34,126.4 86.35,126.06C86.36,125.72 86.37,125.37 86.38,125.03C86.39,124.69 86.39,124.34 86.4,124C86.41,123.66 86.41,123.31 86.42,122.97C86.43,122.63 86.43,122.28 86.44,121.94C86.45,121.6 86.45,121.25 86.46,120.91C86.46,120.57 86.47,120.22 86.47,119.88C86.48,119.54 86.48,119.19 86.49,118.85C86.49,118.51 86.5,118.16 86.5,117.82C86.5,117.48 86.5,117.13 86.5,116.79C86.5,116.45 86.49,116.1 86.49,115.76C86.49,115.42 86.49,115.07 86.49,114.73C86.49,114.39 86.48,114.04 86.48,113.7C86.48,113.36 86.47,113.01 86.47,112.67C86.47,112.33 86.47,111.98 86.47,111.64C86.47,111.3 86.47,110.95 86.47,110.61C86.47,110.27 86.47,109.92 86.47,109.58C86.47,109.24 86.48,108.89 86.48,108.55C86.48,108.21 86.48,107.86 86.48,107.52C86.48,107.18 86.49,106.83 86.5,106.49C86.51,106.15 86.51,105.8 86.52,105.46C86.53,105.12 86.55,104.77 86.56,104.43C86.57,104.09 86.59,103.74 86.6,103.4C86.62,103.06 86.63,102.71 86.65,102.37C86.67,102.03 86.68,101.68 86.7,101.34C86.71,101 86.73,100.65 86.74,100.31C86.75,99.97 86.76,99.62 86.77,99.28C86.78,98.94 86.79,98.59 86.79,98.25C86.79,97.91 86.79,97.56 86.79,97.22C86.79,96.88 86.79,96.53 86.79,96.19C86.79,95.85 86.78,95.5 86.78,95.16C86.78,94.82 86.77,94.47 86.77,94.13C86.77,93.79 86.77,93.44 86.77,93.1C86.77,92.76 86.77,92.41 86.77,92.07C86.77,91.73 86.78,91.38 86.79,91.04C86.8,90.7 86.8,90.35 86.81,90.01C86.82,89.67 86.83,89.32 86.84,88.98C86.85,88.64 86.87,88.29 86.88,87.95C86.9,87.61 86.91,87.26 86.93,86.92C86.95,86.58 86.97,86.23 86.99,85.89C87.01,85.55 87.03,85.2 87.05,84.86C87.07,84.52 87.09,84.17 87.11,83.83C87.13,83.49 87.15,83.14 87.17,82.8C87.19,82.46 87.21,82.11 87.23,81.77C87.25,81.43 87.27,81.08 87.29,80.74C87.31,80.4 87.32,80.05 87.34,79.71C87.35,79.37 87.37,79.02 87.38,78.68C87.39,78.34 87.41,77.99 87.42,77.65C87.43,77.31 87.44,76.96 87.45,76.62C87.46,76.28 87.48,75.93 87.49,75.59C87.5,75.25 87.51,74.9 87.52,74.56C87.53,74.22 87.54,73.87 87.55,73.53C87.56,73.19 87.58,72.84 87.59,72.5C87.6,72.16 87.62,71.81 87.63,71.47C87.64,71.13 87.65,70.78 87.66,70.44C87.67,70.1 87.69,69.75 87.7,69.41C87.71,69.07 87.73,68.72 87.74,68.38C87.75,68.04 87.77,67.7 87.78,67.36C87.8,67.02 87.81,66.67 87.83,66.33C87.85,65.99 87.87,65.64 87.89,65.3C87.91,64.96 87.94,64.61 87.97,64.27C88,63.93 88.04,63.58 88.08,63.24C88.12,62.9 88.17,62.55 88.22,62.21C88.27,61.87 88.33,61.52 88.4,61.18C88.47,60.84 88.54,60.49 88.62,60.15C88.7,59.81 88.78,59.46 88.86,59.12C88.94,58.78 89.03,58.43 89.12,58.09C89.2,57.75 89.29,57.4 89.37,57.06C89.45,56.72 89.53,56.37 89.6,56.03C89.67,55.69 89.73,55.34 89.79,55C89.85,54.66 89.9,54.31 89.95,53.97C90,53.63 90.05,53.28 90.1,52.94C90.15,52.6 90.2,52.25 90.25,51.91C90.3,51.57 90.35,51.22 90.41,50.88C90.47,50.54 90.53,50.19 90.6,49.85C90.67,49.51 90.74,49.16 90.81,48.82C90.88,48.48 90.96,48.13 91.04,47.79C91.12,47.45 91.19,47.1 91.27,46.76C91.35,46.42 91.44,46.07 91.53,45.73C91.62,45.39 91.71,45.04 91.81,44.7C91.91,44.36 92.01,44.01 92.13,43.67C92.25,43.33 92.38,42.98 92.51,42.64C92.65,42.3 92.79,41.95 92.94,41.61C93.09,41.27 93.25,40.92 93.42,40.58C93.59,40.24 93.77,39.89 93.94,39.55C94.11,39.21 94.29,38.86 94.46,38.52C94.63,38.18 94.81,37.83 94.98,37.49C95.15,37.15 95.32,36.8 95.49,36.46C95.66,36.12 95.82,35.77 95.99,35.43C96.16,35.09 96.34,34.74 96.51,34.4C96.68,34.06 96.85,33.71 97.03,33.37C97.21,33.03 97.4,32.68 97.58,32.34C97.77,32 97.96,31.65 98.14,31.31C98.32,30.97 98.51,30.62 98.68,30.28C98.85,29.94 99.03,29.6 99.18,29.25C99.33,28.91 99.48,28.57 99.6,28.22C99.72,27.88 99.83,27.54 99.91,27.19C99.99,26.85 100.05,26.5 100.1,26.16C100.15,25.82 100.18,25.47 100.2,25.13C100.22,24.79 100.22,24.44 100.21,24.1C100.2,23.76 100.19,23.41 100.16,23.07C100.13,22.73 100.1,22.38 100.05,22.04C100,21.7 99.95,21.35 99.87,21.01C99.79,20.66 99.7,20.32 99.59,19.98C99.48,19.63 99.35,19.29 99.2,18.95C99.04,18.6 98.86,18.26 98.66,17.92C98.45,17.57 98.23,17.23 97.98,16.89C97.72,16.54 97.44,16.2 97.15,15.86C96.85,15.51 96.52,15.17 96.19,14.83C95.85,14.48 95.48,14.14 95.12,13.8C94.75,13.45 94.37,13.11 93.99,12.77C93.61,12.43 93.22,12.08 92.84,11.74C92.46,11.4 92.08,11.06 91.71,10.71C91.35,10.37 90.98,10.03 90.64,9.68C90.31,9.34 89.98,9 89.68,8.65C89.38,8.31 89.1,7.97 88.84,7.62C88.59,7.28 88.35,6.94 88.13,6.59C87.92,6.25 87.72,5.91 87.54,5.56C87.37,5.22 87.21,4.88 87.08,4.54C86.95,4.2 86.84,3.86 86.74,3.51C86.64,3.17 86.56,2.82 86.49,2.48C86.42,2.14 86.38,1.79 86.34,1.45C86.3,1.11 86.27,0.76 86.24,0.42C86.22,0.08 86.2,-0.27 86.19,-0.61Q86.18,-0.95 86.16,-1.64L86.12,-1.64Q86.11,-0.95 86.1,-0.61C86.09,-0.27 86.06,0.08 86.04,0.42C86.01,0.76 85.99,1.11 85.95,1.45C85.91,1.79 85.86,2.14 85.79,2.48C85.72,2.82 85.65,3.17 85.55,3.51C85.45,3.86 85.33,4.2 85.2,4.54C85.06,4.88 84.91,5.22 84.74,5.56C84.56,5.91 84.37,6.25 84.16,6.59C83.94,6.94 83.7,7.28 83.44,7.62C83.18,7.97 82.9,8.31 82.6,8.65C82.3,9 81.97,9.34 81.64,9.68C81.3,10.03 80.94,10.37 80.58,10.71C80.21,11.06 79.83,11.4 79.45,11.74C79.07,12.08 78.67,12.43 78.29,12.77C77.91,13.11 77.53,13.45 77.16,13.8C76.8,14.14 76.44,14.48 76.1,14.83C75.77,15.17 75.44,15.51 75.14,15.86C74.85,16.2 74.57,16.54 74.31,16.89C74.06,17.23 73.84,17.57 73.63,17.92C73.43,18.26 73.25,18.6 73.09,18.95C72.94,19.29 72.8,19.63 72.69,19.98C72.58,20.32 72.49,20.66 72.41,21.01C72.33,21.35 72.28,21.7 72.23,22.04C72.18,22.38 72.15,22.73 72.12,23.07C72.09,23.41 72.07,23.76 72.07,24.1C72.07,24.44 72.07,24.79 72.09,25.13C72.11,25.47 72.13,25.82 72.18,26.16C72.23,26.5 72.3,26.85 72.38,27.19C72.47,27.54 72.57,27.88 72.69,28.22C72.81,28.57 72.96,28.91 73.11,29.25C73.26,29.6 73.43,29.94 73.6,30.28C73.77,30.63 73.97,30.97 74.15,31.31C74.33,31.65 74.52,32 74.7,32.34C74.88,32.68 75.07,33.03 75.25,33.37C75.43,33.71 75.61,34.06 75.78,34.4C75.95,34.74 76.12,35.09 76.29,35.43C76.46,35.77 76.63,36.12 76.8,36.46C76.97,36.8 77.14,37.15 77.31,37.49C77.48,37.83 77.66,38.18 77.83,38.52C78,38.86 78.18,39.21 78.35,39.55C78.52,39.89 78.69,40.24 78.86,40.58C79.02,40.92 79.19,41.27 79.34,41.61C79.49,41.95 79.64,42.29 79.78,42.64C79.92,42.98 80.04,43.33 80.16,43.67C80.28,44.01 80.38,44.36 80.48,44.7C80.58,45.04 80.67,45.39 80.76,45.73C80.85,46.07 80.93,46.42 81.01,46.76C81.09,47.1 81.17,47.45 81.25,47.79C81.33,48.13 81.4,48.48 81.47,48.82C81.54,49.16 81.61,49.51 81.68,49.85C81.75,50.19 81.81,50.54 81.87,50.88C81.93,51.22 81.99,51.57 82.04,51.91C82.09,52.25 82.14,52.6 82.19,52.94C82.24,53.28 82.28,53.63 82.33,53.97C82.38,54.31 82.44,54.66 82.5,55C82.56,55.34 82.62,55.69 82.69,56.03C82.76,56.37 82.83,56.72 82.91,57.06C82.99,57.4 83.08,57.75 83.16,58.09C83.25,58.43 83.33,58.78 83.42,59.12C83.5,59.46 83.59,59.81 83.67,60.15C83.75,60.49 83.82,60.84 83.89,61.18C83.96,61.52 84.02,61.87 84.07,62.21C84.12,62.55 84.17,62.9 84.21,63.24C84.25,63.58 84.28,63.93 84.31,64.27C84.34,64.61 84.37,64.96 84.39,65.3C84.41,65.64 84.43,65.99 84.45,66.33C84.47,66.67 84.48,67.02 84.5,67.36C84.51,67.7 84.53,68.04 84.54,68.38C84.55,68.72 84.57,69.07 84.58,69.41C84.59,69.75 84.61,70.1 84.62,70.44C84.63,70.78 84.65,71.13 84.66,71.47C84.67,71.81 84.69,72.16 84.7,72.5C84.71,72.84 84.72,73.19 84.73,73.53C84.74,73.87 84.76,74.22 84.77,74.56C84.78,74.9 84.79,75.25 84.8,75.59C84.81,75.93 84.82,76.28 84.83,76.62C84.84,76.96 84.86,77.31 84.87,77.65C84.88,77.99 84.89,78.34 84.9,78.68C84.91,79.02 84.93,79.37 84.95,79.71C84.97,80.05 84.98,80.4 85,80.74C85.02,81.08 85.03,81.43 85.05,81.77C85.07,82.11 85.09,82.46 85.11,82.8C85.13,83.14 85.16,83.49 85.18,83.83C85.2,84.17 85.22,84.52 85.24,84.86C85.26,85.2 85.28,85.55 85.3,85.89C85.32,86.23 85.33,86.58 85.35,86.92C85.37,87.26 85.38,87.61 85.4,87.95C85.41,88.29 85.43,88.64 85.44,88.98C85.45,89.32 85.47,89.67 85.48,90.01C85.49,90.35 85.49,90.7 85.5,91.04C85.5,91.38 85.51,91.73 85.51,92.07C85.51,92.41 85.52,92.76 85.52,93.1C85.52,93.44 85.51,93.79 85.51,94.13C85.51,94.47 85.5,94.82 85.5,95.16C85.5,95.5 85.5,95.85 85.5,96.19C85.5,96.53 85.49,96.88 85.49,97.22C85.49,97.56 85.5,97.91 85.5,98.25C85.51,98.59 85.51,98.94 85.52,99.28C85.53,99.62 85.54,99.97 85.55,100.31C85.56,100.65 85.58,101 85.59,101.34C85.61,101.68 85.62,102.03 85.64,102.37C85.66,102.71 85.67,103.06 85.69,103.4C85.7,103.74 85.72,104.09 85.73,104.43C85.74,104.77 85.75,105.12 85.76,105.46C85.77,105.8 85.78,106.15 85.79,106.49C85.8,106.83 85.8,107.18 85.8,107.52C85.8,107.86 85.81,108.21 85.81,108.55C85.81,108.89 85.81,109.24 85.81,109.58C85.81,109.92 85.82,110.27 85.82,110.61C85.82,110.95 85.82,111.3 85.82,111.64C85.82,111.98 85.81,112.33 85.81,112.67C85.81,113.01 85.81,113.36 85.81,113.7C85.81,114.04 85.8,114.39 85.8,114.73C85.8,115.07 85.79,115.42 85.79,115.76C85.79,116.1 85.79,116.45 85.79,116.79C85.79,117.13 85.79,117.48 85.79,117.82C85.79,118.16 85.8,118.51 85.8,118.85C85.8,119.19 85.81,119.54 85.81,119.88C85.82,120.22 85.82,120.57 85.83,120.91C85.84,121.25 85.84,121.6 85.85,121.94C85.86,122.28 85.86,122.63 85.87,122.97C85.88,123.31 85.88,123.66 85.89,124C85.9,124.34 85.9,124.69 85.91,125.03C85.92,125.37 85.92,125.72 85.93,126.06C85.94,126.4 85.94,126.75 85.95,127.09C85.96,127.43 85.97,127.78 85.98,128.12C85.99,128.46 85.99,128.81 86,129.15C86,129.49 86,129.84 86.01,130.18C86.01,130.52 86.03,130.86 86.03,131.2C86.04,131.54 86.04,131.89 86.04,132.23C86.04,132.57 86.05,132.92 86.05,133.26C86.05,133.6 86.06,133.95 86.06,134.29C86.06,134.63 86.07,134.98 86.07,135.32C86.07,135.66 86.07,136.01 86.07,136.35C86.07,136.69 86.08,137.04 86.08,137.38C86.08,137.72 86.09,138.07 86.09,138.41C86.09,138.75 86.09,139.1 86.09,139.44C86.09,139.78 86.1,140.13 86.1,140.47C86.1,140.81 86.11,141.16 86.11,141.5C86.11,141.84 86.11,142.19 86.11,142.53C86.11,142.87 86.11,143.22 86.11,143.56C86.11,143.9 86.11,144.25 86.11,144.59C86.11,144.93 86.11,145.28 86.11,145.62C86.11,145.96 86.1,146.31 86.1,146.65C86.1,146.99 86.1,147.34 86.1,147.68C86.1,148.02 86.1,148.37 86.1,148.71C86.1,149.05 86.1,149.4 86.1,149.74C86.1,150.08 86.1,150.43 86.1,150.77C86.1,151.11 86.11,151.46 86.11,151.8C86.11,152.14 86.11,152.49 86.11,152.83C86.11,153.17 86.11,153.52 86.11,153.86C86.11,154.2 86.11,154.55 86.11,154.89C86.11,155.23 86.11,155.58 86.11,155.92C86.11,156.26 86.1,156.61 86.1,156.95C86.1,157.29 86.1,157.64 86.1,157.98C86.1,158.32 86.1,158.67 86.1,159.01C86.1,159.35 86.1,159.7 86.1,160.04C86.1,160.38 86.1,160.73 86.1,161.07C86.1,161.41 86.1,161.76 86.1,162.1C86.1,162.44 86.1,162.79 86.1,163.13C86.1,163.47 86.1,163.82 86.1,164.16C86.1,164.5 86.1,164.85 86.1,165.19C86.1,165.53 86.11,165.88 86.11,166.22C86.11,166.56 86.11,166.91 86.11,167.25C86.11,167.59 86.11,167.94 86.11,168.28C86.11,168.62 86.11,168.97 86.11,169.31C86.11,169.65 86.11,170 86.11,170.34C86.11,170.68 86.11,171.03 86.11,171.37C86.11,171.71 86.11,172.06 86.11,172.4C86.11,172.74 86.11,173.09 86.11,173.43C86.11,173.77 86.11,174.12 86.11,174.46C86.11,174.8 86.12,175.15 86.12,175.49C86.12,175.83 86.12,176.18 86.12,176.52C86.12,176.86 86.13,177.21 86.13,177.55C86.13,177.89 86.13,178.24 86.13,178.58C86.13,178.92 86.14,179.27 86.14,179.61C86.14,179.95 86.14,180.3 86.14,180.64Q86.14,180.98 86.14,181.67Z" style="vector-effect: none; stroke-width: 0.5px; stroke: rgb(0, 0, 0); stroke-opacity: 1; fill: rgb(236, 154, 86); fill-opacity: 1;"/><path class="meanline" d="M95.7711181640625,35.88H76.5088818359375" style="fill: none; vector-effect: none; stroke-width: 0.5px; stroke-dasharray: 1px, 0.5px; stroke: rgb(0, 0, 0); stroke-opacity: 1;"/></g><g class="trace violins" style="opacity: 1;"><path class="violin" d="M143.69,122.52Q143.75,121.41 143.79,120.85C143.83,120.3 143.88,119.74 143.93,119.19C143.98,118.64 144.05,118.08 144.1,117.53C144.16,116.97 144.21,116.42 144.26,115.86C144.31,115.31 144.36,114.75 144.39,114.2C144.42,113.65 144.44,113.09 144.44,112.54C144.44,111.98 144.43,111.43 144.4,110.87C144.37,110.32 144.33,109.76 144.28,109.21C144.23,108.66 144.17,108.1 144.11,107.55C144.05,106.99 143.99,106.44 143.94,105.88C143.89,105.33 143.84,104.77 143.8,104.22C143.76,103.67 143.73,103.11 143.7,102.56C143.67,102 143.65,101.45 143.63,100.89C143.61,100.34 143.61,99.78 143.6,99.23C143.59,98.68 143.58,98.12 143.58,97.57C143.58,97.01 143.58,96.46 143.58,95.9C143.58,95.35 143.57,94.79 143.57,94.24C143.57,93.69 143.57,93.13 143.57,92.58C143.57,92.02 143.57,91.47 143.57,90.91C143.57,90.36 143.57,89.8 143.57,89.25C143.57,88.7 143.57,88.14 143.57,87.59C143.57,87.03 143.57,86.48 143.57,85.92C143.57,85.37 143.57,84.81 143.57,84.26C143.57,83.71 143.57,83.15 143.57,82.6C143.57,82.04 143.58,81.49 143.58,80.93C143.58,80.38 143.59,79.82 143.59,79.27C143.6,78.72 143.6,78.16 143.61,77.61C143.62,77.05 143.64,76.5 143.66,75.94C143.68,75.39 143.71,74.83 143.75,74.28C143.79,73.73 143.83,73.17 143.88,72.62C143.93,72.06 144,71.51 144.07,70.95C144.14,70.4 144.22,69.84 144.29,69.29C144.37,68.74 144.45,68.18 144.52,67.63C144.6,67.07 144.67,66.52 144.74,65.96C144.8,65.41 144.86,64.85 144.91,64.3C144.96,63.75 145,63.19 145.04,62.64C145.08,62.08 145.11,61.53 145.14,60.97C145.17,60.42 145.19,59.86 145.22,59.31C145.25,58.76 145.29,58.2 145.32,57.65C145.36,57.09 145.39,56.54 145.43,55.98C145.47,55.43 145.53,54.87 145.57,54.32C145.61,53.77 145.66,53.21 145.69,52.66C145.72,52.1 145.75,51.55 145.77,50.99C145.79,50.44 145.8,49.88 145.81,49.33C145.82,48.78 145.81,48.22 145.82,47.67C145.83,47.11 145.85,46.56 145.89,46C145.93,45.45 145.97,44.89 146.04,44.34C146.11,43.79 146.2,43.23 146.3,42.68C146.4,42.12 146.51,41.56 146.64,41.01C146.77,40.45 146.9,39.9 147.07,39.35C147.24,38.79 147.42,38.24 147.65,37.69C147.89,37.13 148.16,36.56 148.5,36.02C148.86,35.45 149.29,34.9 149.77,34.36C150.28,33.79 150.88,33.24 151.49,32.7C152.12,32.13 152.84,31.59 153.5,31.03C154.16,30.48 154.87,29.94 155.46,29.37C156.01,28.83 156.58,28.3 156.95,27.71C157.28,27.18 157.56,26.61 157.64,26.04C157.72,25.5 157.62,24.92 157.45,24.38C157.26,23.81 156.88,23.26 156.51,22.72C156.12,22.15 155.62,21.6 155.16,21.05C154.69,20.49 154.17,19.95 153.7,19.39C153.23,18.84 152.77,18.29 152.34,17.73C151.92,17.18 151.53,16.62 151.15,16.06C150.78,15.51 150.43,14.96 150.08,14.4C149.74,13.85 149.41,13.3 149.09,12.74C148.77,12.19 148.45,11.63 148.14,11.07C147.83,10.52 147.52,9.97 147.22,9.41C146.93,8.86 146.64,8.31 146.37,7.75C146.1,7.2 145.84,6.64 145.6,6.08C145.37,5.53 145.15,4.98 144.96,4.42C144.77,3.87 144.61,3.32 144.47,2.76C144.33,2.21 144.2,1.65 144.1,1.09C144,0.54 143.92,-0.02 143.86,-0.57Q143.8,-1.12 143.72,-2.23L143.42,-2.23Q143.34,-1.12 143.28,-0.57C143.22,-0.02 143.14,0.54 143.04,1.09C142.94,1.65 142.82,2.21 142.68,2.76C142.54,3.32 142.37,3.87 142.18,4.42C141.99,4.98 141.77,5.53 141.54,6.08C141.31,6.64 141.05,7.2 140.78,7.75C140.51,8.31 140.22,8.86 139.92,9.41C139.62,9.97 139.31,10.52 139,11.07C138.69,11.63 138.37,12.19 138.05,12.74C137.73,13.3 137.4,13.85 137.06,14.4C136.72,14.96 136.37,15.51 136,16.06C135.62,16.62 135.22,17.18 134.8,17.73C134.37,18.29 133.91,18.84 133.44,19.39C132.97,19.95 132.45,20.49 131.98,21.05C131.52,21.6 131.02,22.15 130.63,22.72C130.26,23.26 129.89,23.81 129.7,24.38C129.52,24.92 129.42,25.5 129.5,26.04C129.58,26.61 129.87,27.18 130.2,27.71C130.57,28.3 131.14,28.83 131.69,29.37C132.28,29.94 132.99,30.48 133.65,31.03C134.31,31.59 135.03,32.13 135.66,32.7C136.26,33.24 136.86,33.79 137.37,34.36C137.85,34.9 138.28,35.45 138.64,36.02C138.98,36.56 139.26,37.13 139.5,37.69C139.73,38.24 139.9,38.79 140.07,39.35C140.24,39.9 140.37,40.45 140.5,41.01C140.63,41.56 140.75,42.12 140.85,42.68C140.95,43.23 141.03,43.79 141.1,44.34C141.17,44.89 141.22,45.45 141.26,46C141.3,46.56 141.31,47.11 141.32,47.67C141.33,48.22 141.33,48.78 141.34,49.33C141.35,49.88 141.35,50.44 141.37,50.99C141.39,51.55 141.42,52.1 141.45,52.66C141.48,53.21 141.53,53.77 141.57,54.32C141.61,54.87 141.67,55.43 141.71,55.98C141.75,56.54 141.79,57.09 141.83,57.65C141.86,58.2 141.89,58.76 141.92,59.31C141.95,59.86 141.98,60.42 142.01,60.97C142.04,61.53 142.06,62.08 142.1,62.64C142.14,63.19 142.18,63.75 142.23,64.3C142.28,64.85 142.35,65.41 142.41,65.96C142.48,66.52 142.54,67.07 142.62,67.63C142.69,68.18 142.78,68.74 142.86,69.29C142.94,69.84 143.01,70.4 143.08,70.95C143.15,71.51 143.21,72.06 143.26,72.62C143.31,73.17 143.35,73.73 143.39,74.28C143.43,74.83 143.46,75.39 143.48,75.94C143.5,76.5 143.52,77.05 143.53,77.61C143.54,78.16 143.54,78.72 143.55,79.27C143.55,79.82 143.56,80.38 143.56,80.93C143.56,81.49 143.57,82.04 143.57,82.6C143.57,83.15 143.57,83.71 143.57,84.26C143.57,84.81 143.57,85.37 143.57,85.92C143.57,86.48 143.57,87.03 143.57,87.59C143.57,88.14 143.57,88.7 143.57,89.25C143.57,89.8 143.57,90.36 143.57,90.91C143.57,91.47 143.57,92.02 143.57,92.58C143.57,93.13 143.57,93.69 143.57,94.24C143.57,94.79 143.57,95.35 143.57,95.9C143.57,96.46 143.57,97.01 143.56,97.57C143.56,98.12 143.55,98.68 143.54,99.23C143.53,99.78 143.52,100.34 143.51,100.89C143.49,101.45 143.48,102 143.45,102.56C143.42,103.11 143.39,103.67 143.35,104.22C143.31,104.77 143.25,105.33 143.2,105.88C143.15,106.44 143.09,106.99 143.03,107.55C142.98,108.1 142.92,108.66 142.87,109.21C142.82,109.76 142.77,110.32 142.74,110.87C142.71,111.43 142.7,111.98 142.7,112.54C142.7,113.09 142.72,113.65 142.75,114.2C142.78,114.75 142.83,115.31 142.88,115.86C142.93,116.42 142.99,116.97 143.05,117.53C143.11,118.08 143.17,118.64 143.22,119.19C143.27,119.74 143.32,120.3 143.36,120.85Q143.4,121.41 143.45,122.52Z" style="vector-effect: none; stroke-width: 0.5px; stroke: rgb(0, 0, 0); stroke-opacity: 1; fill: rgb(155, 191, 229); fill-opacity: 1;"/><path class="meanline" d="M153.31031799316406,31.19H133.82968200683592" style="fill: none; vector-effect: none; stroke-width: 0.5px; stroke-dasharray: 1px, 0.5px; stroke: rgb(0, 0, 0); stroke-opacity: 1;"/></g><g class="trace violins" style="opacity: 1;"><path class="violin" d="M201.05,128.81Q201.08,127.33 201.09,126.59C201.11,125.85 201.12,125.11 201.14,124.37C201.16,123.63 201.19,122.89 201.21,122.15C201.23,121.41 201.26,120.67 201.28,119.93C201.3,119.19 201.32,118.45 201.33,117.71C201.34,116.97 201.35,116.24 201.35,115.5C201.35,114.76 201.35,114.02 201.34,113.28C201.33,112.54 201.31,111.8 201.29,111.06C201.27,110.32 201.24,109.58 201.22,108.84C201.2,108.1 201.17,107.36 201.15,106.62C201.13,105.88 201.11,105.14 201.09,104.4C201.07,103.66 201.06,102.92 201.05,102.18C201.04,101.44 201.03,100.7 201.03,99.96C201.03,99.22 201.03,98.48 201.03,97.74C201.03,97 201.03,96.26 201.04,95.52C201.05,94.78 201.06,94.04 201.07,93.3C201.08,92.56 201.1,91.82 201.12,91.08C201.14,90.34 201.16,89.6 201.18,88.86C201.2,88.12 201.23,87.38 201.26,86.64C201.28,85.9 201.31,85.16 201.33,84.42C201.35,83.68 201.37,82.94 201.39,82.2C201.41,81.46 201.41,80.72 201.43,79.98C201.44,79.24 201.46,78.51 201.48,77.77C201.5,77.03 201.51,76.29 201.54,75.55C201.57,74.81 201.62,74.07 201.67,73.33C201.73,72.59 201.79,71.85 201.87,71.11C201.95,70.37 202.06,69.63 202.17,68.89C202.28,68.15 202.42,67.41 202.55,66.67C202.69,65.93 202.84,65.19 202.98,64.45C203.12,63.71 203.27,62.97 203.41,62.23C203.55,61.49 203.68,60.75 203.81,60.01C203.94,59.27 204.06,58.53 204.18,57.79C204.31,57.05 204.42,56.31 204.56,55.57C204.7,54.83 204.84,54.09 205.01,53.35C205.18,52.61 205.36,51.87 205.56,51.13C205.76,50.39 205.99,49.65 206.22,48.91C206.45,48.17 206.7,47.43 206.94,46.69C207.19,45.95 207.44,45.21 207.69,44.47C207.94,43.73 208.18,42.99 208.42,42.25C208.66,41.51 208.9,40.78 209.13,40.04C209.36,39.3 209.59,38.56 209.82,37.82C210.05,37.08 210.28,36.34 210.52,35.6C210.76,34.86 211.02,34.12 211.28,33.38C211.55,32.64 211.83,31.9 212.11,31.16C212.39,30.42 212.69,29.68 212.98,28.94C213.27,28.2 213.57,27.46 213.83,26.72C214.09,25.98 214.35,25.25 214.55,24.5C214.74,23.77 214.91,23.02 215,22.28C215.09,21.54 215.12,20.8 215.07,20.06C215.02,19.32 214.9,18.57 214.7,17.84C214.5,17.09 214.2,16.35 213.85,15.62C213.49,14.87 213.04,14.13 212.56,13.4C212.06,12.65 211.5,11.91 210.92,11.18C210.33,10.43 209.68,9.7 209.05,8.96C208.42,8.22 207.76,7.49 207.15,6.74C206.55,6.01 205.94,5.27 205.39,4.52C204.86,3.79 204.35,3.06 203.91,2.31C203.49,1.58 203.11,0.84 202.79,0.09C202.48,-0.64 202.22,-1.38 202.01,-2.13C201.8,-2.86 201.65,-3.61 201.52,-4.35Q201.39,-5.09 201.25,-6.57L200.75,-6.57Q200.61,-5.09 200.48,-4.35C200.35,-3.61 200.2,-2.86 199.99,-2.13C199.78,-1.38 199.52,-0.64 199.21,0.09C198.89,0.84 198.51,1.58 198.09,2.31C197.65,3.06 197.14,3.79 196.61,4.52C196.06,5.27 195.45,6.01 194.85,6.74C194.24,7.49 193.58,8.22 192.95,8.96C192.32,9.7 191.67,10.43 191.08,11.18C190.5,11.91 189.94,12.65 189.44,13.4C188.96,14.13 188.51,14.87 188.15,15.62C187.8,16.35 187.5,17.09 187.3,17.84C187.1,18.57 186.98,19.32 186.93,20.06C186.88,20.8 186.91,21.54 187,22.28C187.09,23.02 187.26,23.77 187.45,24.5C187.65,25.25 187.91,25.98 188.17,26.72C188.43,27.46 188.73,28.2 189.02,28.94C189.31,29.68 189.61,30.42 189.89,31.16C190.17,31.9 190.45,32.64 190.72,33.38C190.98,34.12 191.24,34.86 191.48,35.6C191.72,36.34 191.95,37.08 192.18,37.82C192.41,38.56 192.64,39.3 192.87,40.04C193.1,40.78 193.34,41.51 193.58,42.25C193.82,42.99 194.06,43.73 194.31,44.47C194.56,45.21 194.81,45.95 195.06,46.69C195.3,47.43 195.55,48.17 195.78,48.91C196.01,49.65 196.24,50.39 196.44,51.13C196.64,51.87 196.82,52.61 196.99,53.35C197.16,54.09 197.3,54.83 197.44,55.57C197.58,56.31 197.69,57.05 197.82,57.79C197.94,58.53 198.06,59.27 198.19,60.01C198.32,60.75 198.45,61.49 198.59,62.23C198.73,62.97 198.88,63.71 199.02,64.45C199.16,65.19 199.31,65.93 199.45,66.67C199.58,67.41 199.72,68.15 199.83,68.89C199.94,69.63 200.05,70.37 200.13,71.11C200.21,71.85 200.27,72.59 200.33,73.33C200.38,74.07 200.43,74.81 200.46,75.55C200.49,76.29 200.5,77.03 200.52,77.77C200.54,78.51 200.56,79.24 200.57,79.98C200.59,80.72 200.59,81.46 200.61,82.2C200.63,82.94 200.65,83.68 200.67,84.42C200.69,85.16 200.72,85.9 200.74,86.64C200.77,87.38 200.8,88.12 200.82,88.86C200.84,89.6 200.86,90.34 200.88,91.08C200.9,91.82 200.92,92.56 200.93,93.3C200.94,94.04 200.95,94.78 200.96,95.52C200.97,96.26 200.97,97 200.97,97.74C200.97,98.48 200.97,99.22 200.97,99.96C200.97,100.7 200.96,101.44 200.95,102.18C200.94,102.92 200.93,103.66 200.91,104.4C200.89,105.14 200.87,105.88 200.85,106.62C200.83,107.36 200.8,108.1 200.78,108.84C200.76,109.58 200.73,110.32 200.71,111.06C200.69,111.8 200.67,112.54 200.66,113.28C200.65,114.02 200.65,114.76 200.65,115.5C200.65,116.24 200.66,116.97 200.67,117.71C200.68,118.45 200.7,119.19 200.72,119.93C200.74,120.67 200.77,121.41 200.79,122.15C200.81,122.89 200.84,123.63 200.86,124.37C200.88,125.11 200.89,125.85 200.91,126.59Q200.92,127.33 200.95,128.81Z" style="vector-effect: none; stroke-width: 0.5px; stroke: rgb(0, 0, 0); stroke-opacity: 1; fill: rgb(138, 165, 61); fill-opacity: 1;"/><path class="meanline" d="M212.4785614013672,30.21H189.5214385986328" style="fill: none; vector-effect: none; stroke-width: 0.5px; stroke-dasharray: 1px, 0.5px; stroke: rgb(0, 0, 0); stroke-opacity: 1;"/></g><g class="trace violins" style="opacity: 1;"><path class="violin" d="M258.53,108.09Q258.58,106.7 258.62,106.01C258.66,105.32 258.71,104.62 258.77,103.93C258.83,103.23 258.89,102.54 258.96,101.84C259.03,101.15 259.11,100.45 259.19,99.76C259.26,99.07 259.34,98.37 259.41,97.68C259.47,96.99 259.54,96.29 259.58,95.6C259.63,94.9 259.66,94.21 259.68,93.51C259.7,92.82 259.69,92.12 259.69,91.43C259.69,90.74 259.67,90.04 259.65,89.35C259.63,88.66 259.6,87.96 259.58,87.27C259.56,86.57 259.54,85.88 259.53,85.18C259.52,84.49 259.51,83.79 259.5,83.1C259.49,82.41 259.49,81.71 259.48,81.02C259.47,80.32 259.47,79.63 259.46,78.93C259.45,78.24 259.44,77.54 259.43,76.85C259.42,76.16 259.41,75.46 259.4,74.77C259.39,74.08 259.39,73.38 259.39,72.69C259.39,71.99 259.41,71.3 259.43,70.6C259.45,69.91 259.48,69.21 259.53,68.52C259.58,67.83 259.64,67.13 259.72,66.44C259.8,65.75 259.89,65.05 259.99,64.36C260.1,63.66 260.22,62.96 260.35,62.27C260.48,61.57 260.63,60.88 260.77,60.19C260.91,59.5 261.05,58.8 261.18,58.11C261.31,57.42 261.44,56.73 261.55,56.03C261.66,55.34 261.74,54.64 261.83,53.94C261.91,53.25 261.99,52.55 262.06,51.86C262.13,51.17 262.19,50.47 262.26,49.78C262.34,49.08 262.41,48.38 262.51,47.69C262.61,46.99 262.72,46.3 262.87,45.61C263.02,44.91 263.19,44.22 263.4,43.53C263.61,42.83 263.86,42.14 264.15,41.45C264.44,40.75 264.78,40.05 265.15,39.36C265.53,38.66 265.95,37.97 266.39,37.28C266.84,36.58 267.32,35.89 267.8,35.2C268.28,34.5 268.79,33.82 269.26,33.12C269.72,32.43 270.19,31.74 270.59,31.03C270.98,30.35 271.35,29.66 271.64,28.95C271.92,28.27 272.16,27.57 272.3,26.87C272.44,26.18 272.51,25.48 272.5,24.79C272.49,24.09 272.4,23.39 272.24,22.7C272.08,22 271.84,21.3 271.55,20.62C271.25,19.91 270.88,19.22 270.48,18.54C270.06,17.83 269.58,17.14 269.08,16.46C268.57,15.75 267.99,15.06 267.43,14.37C266.86,13.67 266.25,12.98 265.67,12.29C265.09,11.6 264.49,10.91 263.93,10.21C263.38,9.52 262.84,8.83 262.35,8.12C261.88,7.44 261.44,6.74 261.05,6.04C260.68,5.36 260.34,4.66 260.06,3.96C259.79,3.28 259.57,2.58 259.38,1.88C259.19,1.19 259.06,0.49 258.94,-0.21C258.82,-0.9 258.75,-1.6 258.68,-2.29Q258.61,-2.98 258.54,-4.37L258.31,-4.37Q258.24,-2.98 258.18,-2.29C258.11,-1.6 258.04,-0.9 257.92,-0.21C257.8,0.49 257.67,1.19 257.48,1.88C257.29,2.58 257.06,3.27 256.79,3.96C256.51,4.66 256.18,5.36 255.81,6.04C255.42,6.75 254.97,7.44 254.5,8.12C254.01,8.83 253.48,9.52 252.93,10.21C252.37,10.91 251.77,11.6 251.19,12.29C250.61,12.98 250,13.67 249.43,14.37C248.87,15.06 248.29,15.75 247.78,16.46C247.28,17.14 246.8,17.83 246.38,18.54C245.98,19.22 245.6,19.91 245.3,20.62C245.01,21.3 244.78,22 244.62,22.7C244.47,23.39 244.37,24.09 244.36,24.79C244.35,25.48 244.42,26.18 244.56,26.87C244.7,27.57 244.93,28.27 245.21,28.95C245.5,29.66 245.88,30.35 246.27,31.03C246.67,31.74 247.14,32.43 247.6,33.12C248.07,33.82 248.57,34.51 249.05,35.2C249.53,35.89 250.01,36.58 250.46,37.28C250.9,37.97 251.32,38.66 251.7,39.36C252.07,40.05 252.41,40.75 252.71,41.45C253,42.14 253.25,42.83 253.46,43.53C253.67,44.22 253.84,44.91 253.99,45.61C254.14,46.3 254.25,46.99 254.35,47.69C254.45,48.38 254.52,49.08 254.6,49.78C254.67,50.47 254.73,51.17 254.8,51.86C254.87,52.55 254.94,53.25 255.02,53.94C255.11,54.64 255.2,55.34 255.31,56.03C255.42,56.73 255.54,57.42 255.67,58.11C255.8,58.8 255.95,59.5 256.09,60.19C256.23,60.88 256.37,61.58 256.5,62.27C256.63,62.97 256.75,63.66 256.86,64.36C256.97,65.05 257.06,65.75 257.14,66.44C257.22,67.13 257.27,67.83 257.32,68.52C257.37,69.21 257.41,69.91 257.43,70.6C257.45,71.3 257.46,71.99 257.46,72.69C257.46,73.38 257.46,74.08 257.46,74.77C257.46,75.46 257.44,76.16 257.43,76.85C257.42,77.54 257.41,78.24 257.4,78.93C257.39,79.63 257.38,80.32 257.37,81.02C257.36,81.71 257.36,82.41 257.35,83.1C257.34,83.79 257.33,84.49 257.32,85.18C257.31,85.88 257.29,86.57 257.27,87.27C257.25,87.96 257.23,88.66 257.21,89.35C257.19,90.04 257.17,90.74 257.17,91.43C257.17,92.12 257.16,92.82 257.18,93.51C257.2,94.21 257.22,94.9 257.27,95.6C257.31,96.29 257.38,96.99 257.45,97.68C257.52,98.37 257.6,99.07 257.67,99.76C257.75,100.45 257.83,101.15 257.9,101.84C257.97,102.54 258.03,103.23 258.09,103.93C258.15,104.62 258.2,105.32 258.24,106.01Q258.28,106.7 258.33,108.09Z" style="vector-effect: none; stroke-width: 0.5px; stroke: rgb(0, 0, 0); stroke-opacity: 1; fill: rgb(186, 105, 190); fill-opacity: 1;"/><path class="meanline" d="M268.7964172363281,33.79H248.0635827636719" style="fill: none; vector-effect: none; stroke-width: 0.5px; stroke-dasharray: 1px, 0.5px; stroke: rgb(0, 0, 0); stroke-opacity: 1;"/></g><g class="trace violins" style="opacity: 1;"><path class="violin" d="M316,103.48Q316.07,101.31 316.13,100.23C316.19,99.14 316.26,98.06 316.34,96.97C316.42,95.89 316.52,94.8 316.62,93.72C316.72,92.64 316.84,91.55 316.96,90.47C317.08,89.39 317.21,88.3 317.34,87.22C317.47,86.14 317.6,85.05 317.72,83.97C317.84,82.88 317.95,81.8 318.05,80.71C318.15,79.63 318.24,78.54 318.33,77.46C318.42,76.38 318.49,75.29 318.57,74.21C318.65,73.13 318.71,72.04 318.79,70.96C318.87,69.88 318.94,68.79 319.03,67.71C319.12,66.62 319.21,65.54 319.32,64.45C319.43,63.37 319.55,62.28 319.69,61.2C319.83,60.12 319.98,59.03 320.15,57.95C320.32,56.87 320.5,55.78 320.7,54.7C320.9,53.62 321.11,52.53 321.34,51.45C321.57,50.37 321.81,49.28 322.07,48.2C322.33,47.11 322.61,46.02 322.91,44.94C323.21,43.85 323.53,42.77 323.88,41.69C324.23,40.6 324.61,39.52 325,38.44C325.4,37.35 325.82,36.27 326.25,35.19C326.68,34.1 327.14,33.03 327.56,31.94C327.98,30.86 328.4,29.77 328.75,28.68C329.09,27.6 329.42,26.52 329.62,25.43C329.81,24.35 329.95,23.26 329.93,22.18C329.91,21.1 329.78,20 329.52,18.93C329.26,17.83 328.84,16.75 328.36,15.68C327.87,14.57 327.23,13.49 326.59,12.42C325.93,11.32 325.18,10.25 324.46,9.17C323.74,8.08 322.97,7.01 322.27,5.92C321.58,4.84 320.89,3.77 320.29,2.67C319.7,1.6 319.16,0.52 318.69,-0.58C318.23,-1.65 317.84,-2.74 317.52,-3.84C317.2,-4.92 316.96,-6 316.76,-7.09Q316.56,-8.17 316.3,-10.34L315.41,-10.34Q315.16,-8.17 314.96,-7.09C314.76,-6 314.51,-4.92 314.19,-3.84C313.87,-2.75 313.48,-1.65 313.03,-0.58C312.56,0.52 312.01,1.6 311.42,2.67C310.82,3.77 310.13,4.84 309.44,5.92C308.74,7.01 307.97,8.08 307.25,9.17C306.53,10.25 305.78,11.32 305.12,12.42C304.48,13.49 303.84,14.57 303.35,15.68C302.88,16.75 302.46,17.83 302.2,18.93C301.95,20 301.81,21.1 301.79,22.18C301.77,23.26 301.91,24.35 302.1,25.43C302.3,26.52 302.62,27.6 302.96,28.68C303.31,29.77 303.74,30.86 304.16,31.94C304.58,33.03 305.03,34.11 305.46,35.19C305.88,36.27 306.31,37.35 306.71,38.44C307.1,39.52 307.48,40.6 307.83,41.69C308.18,42.77 308.5,43.85 308.8,44.94C309.1,46.02 309.38,47.11 309.64,48.2C309.9,49.28 310.15,50.36 310.38,51.45C310.61,52.53 310.82,53.62 311.02,54.7C311.22,55.78 311.4,56.87 311.57,57.95C311.74,59.03 311.88,60.12 312.02,61.2C312.16,62.28 312.28,63.37 312.39,64.45C312.5,65.54 312.6,66.62 312.69,67.71C312.78,68.79 312.85,69.88 312.93,70.96C313.01,72.04 313.08,73.13 313.15,74.21C313.23,75.29 313.3,76.38 313.38,77.46C313.47,78.54 313.56,79.63 313.66,80.71C313.76,81.8 313.88,82.88 314,83.97C314.12,85.05 314.25,86.14 314.37,87.22C314.5,88.3 314.63,89.39 314.75,90.47C314.87,91.55 314.99,92.64 315.1,93.72C315.2,94.8 315.3,95.89 315.38,96.97C315.46,98.06 315.52,99.14 315.58,100.23Q315.63,101.31 315.71,103.48Z" style="vector-effect: none; stroke-width: 0.5px; stroke: rgb(0, 0, 0); stroke-opacity: 1; fill: rgb(185, 178, 194); fill-opacity: 1;"/><path class="meanline" d="M327.021240234375,33.29H304.698759765625" style="fill: none; vector-effect: none; stroke-width: 0.5px; stroke-dasharray: 1px, 0.5px; stroke: rgb(0, 0, 0); stroke-opacity: 1;"/></g><g class="trace violins" style="opacity: 1;"><path class="violin" d="M373.39,102.99Q373.44,101.76 373.48,101.15C373.52,100.54 373.56,99.93 373.61,99.32C373.66,98.71 373.71,98.09 373.76,97.48C373.81,96.87 373.87,96.25 373.92,95.64C373.96,95.03 374,94.41 374.03,93.8C374.06,93.19 374.08,92.57 374.08,91.96C374.08,91.35 374.06,90.74 374.04,90.13C374.01,89.52 373.97,88.9 373.93,88.29C373.89,87.68 373.83,87.06 373.78,86.45C373.73,85.84 373.67,85.22 373.62,84.61C373.57,84 373.53,83.38 373.49,82.77C373.45,82.16 373.42,81.55 373.4,80.94C373.37,80.33 373.36,79.71 373.34,79.1C373.33,78.49 373.32,77.87 373.31,77.26C373.3,76.65 373.3,76.03 373.3,75.42C373.3,74.81 373.29,74.19 373.29,73.58C373.29,72.97 373.29,72.35 373.29,71.74C373.29,71.13 373.29,70.52 373.29,69.91C373.29,69.3 373.29,68.68 373.29,68.07C373.29,67.46 373.29,66.84 373.29,66.23C373.29,65.62 373.29,65 373.3,64.39C373.31,63.78 373.32,63.16 373.33,62.55C373.34,61.94 373.35,61.33 373.37,60.72C373.39,60.11 373.42,59.49 373.46,58.88C373.5,58.27 373.55,57.65 373.61,57.04C373.67,56.43 373.74,55.81 373.83,55.2C373.92,54.59 374.02,53.97 374.13,53.36C374.24,52.75 374.36,52.14 374.49,51.53C374.62,50.92 374.76,50.3 374.89,49.69C375.02,49.08 375.16,48.46 375.29,47.85C375.41,47.24 375.53,46.62 375.64,46.01C375.75,45.4 375.85,44.78 375.95,44.17C376.05,43.56 376.13,42.94 376.23,42.33C376.33,41.72 376.42,41.11 376.54,40.5C376.67,39.89 376.8,39.27 376.98,38.66C377.16,38.04 377.38,37.43 377.64,36.82C377.91,36.2 378.23,35.58 378.58,34.98C378.94,34.36 379.35,33.75 379.77,33.14C380.2,32.52 380.67,31.92 381.13,31.31C381.59,30.7 382.08,30.09 382.54,29.47C382.99,28.86 383.44,28.25 383.86,27.63C384.27,27.02 384.67,26.41 385.03,25.79C385.38,25.18 385.71,24.57 386,23.95C386.28,23.34 386.54,22.73 386.74,22.11C386.94,21.51 387.12,20.9 387.22,20.28C387.32,19.67 387.39,19.05 387.36,18.44C387.33,17.82 387.23,17.2 387.05,16.6C386.86,15.98 386.58,15.36 386.25,14.76C385.9,14.13 385.46,13.52 384.99,12.92C384.5,12.29 383.93,11.69 383.37,11.09C382.8,10.47 382.18,9.86 381.59,9.25C381,8.64 380.4,8.03 379.84,7.41C379.29,6.8 378.75,6.19 378.26,5.57C377.78,4.97 377.34,4.35 376.93,3.73C376.54,3.13 376.17,2.52 375.85,1.9C375.53,1.3 375.26,0.68 375.01,0.06C374.77,-0.55 374.56,-1.16 374.38,-1.78C374.2,-2.39 374.05,-3 373.93,-3.62C373.81,-4.23 373.72,-4.85 373.64,-5.46Q373.56,-6.07 373.46,-7.3L373.11,-7.3Q373.01,-6.07 372.93,-5.46C372.85,-4.85 372.76,-4.23 372.64,-3.62C372.52,-3 372.37,-2.39 372.19,-1.78C372.01,-1.16 371.81,-0.55 371.57,0.06C371.32,0.68 371.05,1.3 370.73,1.9C370.41,2.52 370.05,3.13 369.65,3.73C369.24,4.35 368.79,4.97 368.31,5.57C367.82,6.19 367.28,6.8 366.73,7.41C366.17,8.03 365.57,8.64 364.98,9.25C364.39,9.86 363.77,10.47 363.2,11.09C362.64,11.69 362.08,12.29 361.59,12.92C361.12,13.52 360.67,14.13 360.32,14.76C359.99,15.36 359.7,15.97 359.52,16.6C359.34,17.2 359.25,17.83 359.22,18.44C359.19,19.05 359.25,19.67 359.35,20.28C359.45,20.9 359.63,21.51 359.83,22.11C360.03,22.73 360.29,23.34 360.57,23.95C360.86,24.57 361.19,25.18 361.54,25.79C361.9,26.41 362.3,27.02 362.71,27.63C363.13,28.25 363.58,28.86 364.03,29.47C364.49,30.09 364.98,30.7 365.44,31.31C365.9,31.92 366.37,32.52 366.8,33.14C367.22,33.75 367.63,34.36 367.99,34.98C368.34,35.58 368.66,36.2 368.93,36.82C369.19,37.43 369.41,38.04 369.59,38.66C369.77,39.27 369.9,39.89 370.03,40.5C370.15,41.11 370.24,41.72 370.34,42.33C370.44,42.94 370.52,43.56 370.62,44.17C370.72,44.78 370.82,45.4 370.93,46.01C371.04,46.62 371.16,47.24 371.28,47.85C371.41,48.46 371.55,49.08 371.68,49.69C371.81,50.3 371.95,50.92 372.08,51.53C372.21,52.14 372.33,52.75 372.44,53.36C372.55,53.97 372.65,54.59 372.74,55.2C372.83,55.81 372.9,56.43 372.96,57.04C373.02,57.65 373.07,58.27 373.11,58.88C373.15,59.49 373.18,60.11 373.2,60.72C373.22,61.33 373.24,61.94 373.25,62.55C373.26,63.16 373.26,63.78 373.27,64.39C373.27,65 373.28,65.62 373.28,66.23C373.28,66.84 373.28,67.46 373.28,68.07C373.28,68.68 373.28,69.3 373.28,69.91C373.28,70.52 373.28,71.13 373.28,71.74C373.28,72.35 373.28,72.97 373.28,73.58C373.28,74.19 373.28,74.81 373.28,75.42C373.28,76.03 373.27,76.65 373.26,77.26C373.25,77.87 373.24,78.49 373.23,79.1C373.21,79.71 373.2,80.33 373.17,80.94C373.15,81.55 373.12,82.16 373.08,82.77C373.04,83.38 373,84 372.95,84.61C372.9,85.22 372.84,85.84 372.79,86.45C372.74,87.06 372.68,87.68 372.64,88.29C372.6,88.9 372.56,89.52 372.53,90.13C372.51,90.74 372.49,91.35 372.49,91.96C372.49,92.57 372.51,93.19 372.54,93.8C372.57,94.41 372.61,95.03 372.65,95.64C372.7,96.25 372.76,96.87 372.81,97.48C372.86,98.09 372.91,98.71 372.96,99.32C373.01,99.93 373.05,100.54 373.09,101.15Q373.13,101.76 373.18,102.99Z" style="vector-effect: none; stroke-width: 0.5px; stroke: rgb(0, 0, 0); stroke-opacity: 1; fill: rgb(181, 174, 112); fill-opacity: 1;"/><path class="meanline" d="M385.9667663574219,24.02H360.61323364257817" style="fill: none; vector-effect: none; stroke-width: 0.5px; stroke-dasharray: 1px, 0.5px; stroke: rgb(0, 0, 0); stroke-opacity: 1;"/></g></g></g><g class="overplot"/><path class="xlines-above crisp" d="M52.5,221.25H455" style="fill: none; stroke-width: 0.5px; stroke: rgb(0, 0, 0); stroke-opacity: 1;"/><path class="ylines-above crisp" d="M52.75,20V221" style="fill: none; stroke-width: 0.5px; stroke: rgb(0, 0, 0); stroke-opacity: 1;"/><g class="overlines-above"/><g class="xaxislayer-above"><path class="xtick ticks crisp" d="M0,221.5v5" transform="translate(81.71000000000001,0)" style="stroke: rgb(68, 68, 68); stroke-opacity: 1; stroke-width: 0.5px;"/><path class="xtick ticks crisp" d="M0,221.5v5" transform="translate(139.14,0)" style="stroke: rgb(68, 68, 68); stroke-opacity: 1; stroke-width: 0.5px;"/><path class="xtick ticks crisp" d="M0,221.5v5" transform="translate(196.57,0)" style="stroke: rgb(68, 68, 68); stroke-opacity: 1; stroke-width: 0.5px;"/><path class="xtick ticks crisp" d="M0,221.5v5" transform="translate(254,0)" style="stroke: rgb(68, 68, 68); stroke-opacity: 1; stroke-width: 0.5px;"/><path class="xtick ticks crisp" d="M0,221.5v5" transform="translate(311.43,0)" style="stroke: rgb(68, 68, 68); stroke-opacity: 1; stroke-width: 0.5px;"/><path class="xtick ticks crisp" d="M0,221.5v5" transform="translate(368.86,0)" style="stroke: rgb(68, 68, 68); stroke-opacity: 1; stroke-width: 0.5px;"/><path class="xtick ticks crisp" d="M0,221.5v5" transform="translate(426.29,0)" style="stroke: rgb(68, 68, 68); stroke-opacity: 1; stroke-width: 0.5px;"/><g class="xtick"><text text-anchor="start" x="0" y="240.9" transform="translate(81.71000000000001,0) rotate(30,0,234.9)" style="font-family: Helvetica; font-size: 12px; fill: rgb(0, 0, 0); fill-opacity: 1; white-space: pre; opacity: 1;">canonical (t/d)</text></g><g class="xtick"><text text-anchor="start" x="0" y="240.9" transform="translate(139.14,0) rotate(30,0,234.9)" style="font-family: Helvetica; font-size: 12px; fill: rgb(0, 0, 0); fill-opacity: 1; white-space: pre; opacity: 1;">canonical (PISCES)</text></g><g class="xtick"><text text-anchor="start" x="0" y="240.9" transform="translate(196.57,0) rotate(30,0,234.9)" style="font-family: Helvetica; font-size: 12px; fill: rgb(0, 0, 0); fill-opacity: 1; white-space: pre; opacity: 1;">spliced</text></g><g class="xtick"><text text-anchor="start" x="0" y="240.9" transform="translate(254,0) rotate(30,0,234.9)" style="font-family: Helvetica; font-size: 12px; fill: rgb(0, 0, 0); fill-opacity: 1; white-space: pre; opacity: 1;">multimapped</text></g><g class="xtick"><text text-anchor="start" x="0" y="240.9" transform="translate(311.43,0) rotate(30,0,234.9)" style="font-family: Helvetica; font-size: 12px; fill: rgb(0, 0, 0); fill-opacity: 1; white-space: pre; opacity: 1;">cryptic</text></g><g class="xtick"><text text-anchor="start" x="0" y="240.9" transform="translate(368.86,0) rotate(30,0,234.9)" style="font-family: Helvetica; font-size: 12px; fill: rgb(0, 0, 0); fill-opacity: 1; white-space: pre; opacity: 1;">unmapped</text></g><g class="xtick"><text text-anchor="start" x="0" y="240.9" transform="translate(426.29,0) rotate(30,0,234.9)" style="font-family: Helvetica; font-size: 12px; fill: rgb(0, 0, 0); fill-opacity: 1; white-space: pre; opacity: 1;">contaminants</text></g></g><g class="yaxislayer-above"><path class="ytick ticks crisp" d="M52.5,0h-5" transform="translate(0,221)" style="stroke: rgb(68, 68, 68); stroke-opacity: 1; stroke-width: 0.5px;"/><path class="ytick ticks crisp" d="M52.5,0h-5" transform="translate(0,180.8)" style="stroke: rgb(68, 68, 68); stroke-opacity: 1; stroke-width: 0.5px;"/><path class="ytick ticks crisp" d="M52.5,0h-5" transform="translate(0,140.6)" style="stroke: rgb(68, 68, 68); stroke-opacity: 1; stroke-width: 0.5px;"/><path class="ytick ticks crisp" d="M52.5,0h-5" transform="translate(0,100.4)" style="stroke: rgb(68, 68, 68); stroke-opacity: 1; stroke-width: 0.5px;"/><path class="ytick ticks crisp" d="M52.5,0h-5" transform="translate(0,60.2)" style="stroke: rgb(68, 68, 68); stroke-opacity: 1; stroke-width: 0.5px;"/><path class="ytick ticks crisp" d="M52.5,0h-5" transform="translate(0,20)" style="stroke: rgb(68, 68, 68); stroke-opacity: 1; stroke-width: 0.5px;"/><g class="ytick"><text text-anchor="end" x="45.1" y="4.199999999999999" transform="translate(0,221)" style="font-family: Helvetica; font-size: 12px; fill: rgb(0, 0, 0); fill-opacity: 1; white-space: pre; opacity: 1;">0</text></g><g class="ytick"><text text-anchor="end" x="45.1" y="4.199999999999999" style="font-family: Helvetica; font-size: 12px; fill: rgb(0, 0, 0); fill-opacity: 1; white-space: pre; opacity: 1;" transform="translate(0,180.8)">0.2</text></g><g class="ytick"><text text-anchor="end" x="45.1" y="4.199999999999999" style="font-family: Helvetica; font-size: 12px; fill: rgb(0, 0, 0); fill-opacity: 1; white-space: pre; opacity: 1;" transform="translate(0,140.6)">0.4</text></g><g class="ytick"><text text-anchor="end" x="45.1" y="4.199999999999999" style="font-family: Helvetica; font-size: 12px; fill: rgb(0, 0, 0); fill-opacity: 1; white-space: pre; opacity: 1;" transform="translate(0,100.4)">0.6</text></g><g class="ytick"><text text-anchor="end" x="45.1" y="4.199999999999999" style="font-family: Helvetica; font-size: 12px; fill: rgb(0, 0, 0); fill-opacity: 1; white-space: pre; opacity: 1;" transform="translate(0,60.2)">0.8</text></g><g class="ytick"><text text-anchor="end" x="45.1" y="4.199999999999999" style="font-family: Helvetica; font-size: 12px; fill: rgb(0, 0, 0); fill-opacity: 1; white-space: pre; opacity: 1;" transform="translate(0,20)">1</text></g></g><g class="overaxes-above"/></g></g><g class="polarlayer"/><g class="smithlayer"/><g class="ternarylayer"/><g class="geolayer"/><g class="funnelarealayer"/><g class="pielayer"/><g class="iciclelayer"/><g class="treemaplayer"/><g class="sunburstlayer"/><g class="glimages"/><defs id="topdefs-7188ed"><g class="clips"/></defs><g class="layer-above"><g class="imagelayer"/><g class="shapelayer"/></g><g class="infolayer"><g class="g-gtitle"/><g class="g-xtitle"/><g class="g-ytitle" transform="translate(12.4560546875,0)"><text class="ytitle" transform="rotate(-90,0.5437500000000028,120.5)" x="0.5437500000000028" y="120.5" text-anchor="middle" style="font-family: Helvetica; font-size: 14px; fill: rgb(0, 0, 0); opacity: 1; font-weight: normal; white-space: pre;">Spectral Angle</text></g></g></svg>