<svg class="main-svg" xmlns="http://www.w3.org/2000/svg" xmlns:xlink="http://www.w3.org/1999/xlink" width="500" height="300" style="" viewBox="0 0 500 300"><rect x="0" y="0" width="500" height="300" style="fill: rgb(255, 255, 255); fill-opacity: 1;"/><defs id="defs-ea57b9"><g class="clips"><clipPath id="clipea57b9xyplot" class="plotclip"><rect width="402" height="201"/></clipPath><clipPath class="axesclip" id="clipea57b9x"><rect x="53" y="0" width="402" height="300"/></clipPath><clipPath class="axesclip" id="clipea57b9y"><rect x="0" y="20" width="500" height="201"/></clipPath><clipPath class="axesclip" id="clipea57b9xy"><rect x="53" y="20" width="402" height="201"/></clipPath></g><g class="gradients"/><g class="patterns"/></defs><g class="bglayer"><rect class="bg" x="53" y="20" width="402" height="201" style="fill: rgb(0, 0, 0); fill-opacity: 0; stroke-width: 0;"/></g><g class="layer-below"><g class="imagelayer"/><g class="shapelayer"/></g><g class="cartesianlayer"><g class="subplot xy"><g class="layer-subplot"><g class="shapelayer"/><g class="imagelayer"/></g><g class="minor-gridlayer"><g class="x"/><g class="y"/></g><g class="gridlayer"><g class="x"/><g class="y"/></g><g class="zerolinelayer"/><path class="xlines-below"/><path class="ylines-below"/><g class="overlines-below"/><g class="xaxislayer-below"/><g class="yaxislayer-below"/><g class="overaxes-below"/><g class="plot" transform="translate(53,20)" clip-path="url(#clipea57b9xyplot)"><g class="violinlayer mlayer"><g class="trace violins" style="opacity: 1;"><path class="violin" d="M28.72,206.87Q28.72,205.54 28.72,204.87C28.72,204.21 28.72,203.54 28.72,202.88C28.72,202.21 28.73,201.55 28.73,200.88C28.73,200.21 28.74,199.55 28.74,198.88C28.74,198.22 28.75,197.55 28.75,196.89C28.75,196.22 28.75,195.56 28.75,194.89C28.75,194.23 28.76,193.56 28.76,192.9C28.76,192.23 28.77,191.57 28.77,190.9C28.77,190.24 28.77,189.57 28.77,188.91C28.77,188.24 28.77,187.58 28.78,186.91C28.78,186.25 28.79,185.58 28.8,184.92C28.81,184.25 28.81,183.59 28.82,182.92C28.83,182.26 28.83,181.59 28.84,180.93C28.85,180.26 28.86,179.6 28.87,178.93C28.88,178.26 28.89,177.6 28.9,176.93C28.91,176.27 28.92,175.6 28.93,174.94C28.94,174.27 28.95,173.61 28.96,172.94C28.97,172.28 28.97,171.61 28.98,170.95C28.99,170.28 29,169.62 29.01,168.95C29.02,168.29 29.03,167.62 29.04,166.96C29.05,166.29 29.06,165.63 29.08,164.96C29.1,164.3 29.12,163.63 29.14,162.97C29.16,162.3 29.18,161.64 29.21,160.97C29.24,160.3 29.27,159.64 29.3,158.97C29.33,158.31 29.36,157.64 29.39,156.98C29.42,156.31 29.45,155.65 29.48,154.98C29.51,154.32 29.55,153.65 29.58,152.99C29.61,152.32 29.64,151.66 29.67,150.99C29.7,150.33 29.74,149.66 29.77,149C29.8,148.33 29.84,147.67 29.87,147C29.9,146.34 29.93,145.67 29.96,145.01C29.99,144.34 30.03,143.68 30.06,143.01C30.09,142.35 30.13,141.68 30.16,141.02C30.2,140.35 30.23,139.69 30.27,139.02C30.3,138.35 30.33,137.69 30.37,137.02C30.4,136.36 30.44,135.69 30.48,135.03C30.52,134.36 30.56,133.7 30.6,133.03C30.64,132.37 30.67,131.7 30.71,131.04C30.75,130.37 30.79,129.71 30.83,129.04C30.87,128.38 30.91,127.71 30.96,127.05C31.01,126.38 31.06,125.72 31.12,125.05C31.17,124.39 31.23,123.72 31.29,123.06C31.35,122.39 31.42,121.73 31.49,121.06C31.56,120.4 31.63,119.73 31.69,119.07C31.76,118.4 31.82,117.74 31.88,117.07C31.94,116.4 31.99,115.74 32.04,115.07C32.09,114.41 32.14,113.74 32.18,113.08C32.22,112.41 32.26,111.75 32.3,111.08C32.34,110.42 32.37,109.75 32.4,109.09C32.43,108.42 32.46,107.76 32.5,107.09C32.53,106.43 32.57,105.76 32.61,105.1C32.65,104.43 32.68,103.77 32.72,103.1C32.76,102.44 32.8,101.77 32.84,101.11C32.88,100.44 32.92,99.78 32.96,99.11C33,98.45 33.04,97.78 33.08,97.12C33.12,96.45 33.16,95.79 33.2,95.12C33.24,94.45 33.28,93.79 33.33,93.12C33.38,92.46 33.43,91.79 33.48,91.13C33.53,90.46 33.58,89.8 33.64,89.13C33.69,88.47 33.75,87.8 33.81,87.14C33.87,86.47 33.94,85.81 34,85.14C34.06,84.48 34.13,83.81 34.19,83.15C34.25,82.48 34.32,81.82 34.38,81.15C34.44,80.49 34.51,79.82 34.57,79.16C34.63,78.49 34.69,77.83 34.76,77.16C34.83,76.5 34.91,75.83 34.98,75.17C35.05,74.5 35.12,73.84 35.2,73.17C35.28,72.5 35.36,71.84 35.45,71.17C35.53,70.51 35.62,69.84 35.71,69.18C35.8,68.51 35.89,67.85 35.98,67.18C36.07,66.52 36.17,65.85 36.27,65.19C36.37,64.52 36.47,63.86 36.57,63.19C36.67,62.53 36.78,61.86 36.89,61.2C37,60.53 37.11,59.87 37.22,59.2C37.33,58.54 37.45,57.87 37.57,57.21C37.69,56.54 37.81,55.88 37.94,55.21C38.07,54.55 38.21,53.88 38.34,53.22C38.48,52.55 38.61,51.89 38.75,51.22C38.89,50.55 39.04,49.89 39.19,49.22C39.34,48.56 39.5,47.89 39.65,47.23C39.81,46.56 39.96,45.9 40.12,45.23C40.28,44.57 40.44,43.9 40.6,43.24C40.76,42.57 40.91,41.91 41.07,41.24C41.22,40.58 41.38,39.91 41.53,39.25C41.68,38.58 41.82,37.92 41.95,37.25C42.08,36.59 42.21,35.93 42.32,35.26C42.43,34.6 42.53,33.93 42.61,33.26C42.68,32.59 42.74,31.93 42.77,31.26C42.8,30.6 42.81,29.93 42.78,29.27C42.75,28.6 42.7,27.93 42.61,27.27C42.52,26.6 42.38,25.94 42.22,25.28C42.05,24.61 41.85,23.94 41.62,23.28C41.38,22.61 41.11,21.95 40.81,21.29C40.51,20.62 40.17,19.95 39.82,19.29C39.46,18.62 39.07,17.96 38.67,17.3C38.26,16.63 37.83,15.96 37.4,15.3C36.96,14.63 36.51,13.97 36.06,13.31C35.61,12.64 35.15,11.98 34.7,11.31C34.26,10.65 33.81,9.98 33.39,9.31C32.98,8.65 32.57,7.99 32.2,7.32C31.84,6.66 31.49,5.99 31.18,5.32C30.88,4.66 30.6,4 30.36,3.33C30.12,2.67 29.92,2 29.75,1.33C29.58,0.67 29.44,0.01 29.32,-0.66C29.2,-1.32 29.11,-1.99 29.04,-2.66C28.97,-3.32 28.92,-3.99 28.88,-4.65C28.84,-5.32 28.81,-5.98 28.79,-6.65Q28.77,-7.31 28.75,-8.64L28.68,-8.64Q28.66,-7.31 28.64,-6.65C28.62,-5.98 28.59,-5.32 28.55,-4.65C28.51,-3.99 28.46,-3.32 28.39,-2.66C28.32,-1.99 28.23,-1.32 28.11,-0.66C27.99,0.01 27.85,0.67 27.68,1.33C27.51,2 27.31,2.67 27.07,3.33C26.83,4 26.55,4.66 26.25,5.32C25.94,5.99 25.59,6.66 25.22,7.32C24.85,7.99 24.45,8.65 24.04,9.31C23.62,9.98 23.17,10.65 22.73,11.31C22.28,11.98 21.82,12.64 21.37,13.31C20.92,13.97 20.47,14.63 20.03,15.3C19.59,15.96 19.16,16.63 18.75,17.3C18.35,17.96 17.97,18.62 17.61,19.29C17.26,19.95 16.92,20.62 16.62,21.29C16.32,21.95 16.05,22.61 15.81,23.28C15.58,23.94 15.38,24.61 15.21,25.28C15.05,25.94 14.92,26.6 14.82,27.27C14.73,27.93 14.67,28.6 14.64,29.27C14.61,29.93 14.62,30.6 14.65,31.26C14.68,31.93 14.74,32.59 14.82,33.26C14.9,33.93 15,34.6 15.11,35.26C15.22,35.93 15.35,36.59 15.48,37.25C15.61,37.92 15.75,38.58 15.9,39.25C16.05,39.91 16.21,40.58 16.36,41.24C16.52,41.91 16.67,42.57 16.83,43.24C16.99,43.9 17.14,44.57 17.3,45.23C17.46,45.9 17.62,46.56 17.78,47.23C17.94,47.89 18.09,48.56 18.24,49.22C18.39,49.89 18.54,50.55 18.68,51.22C18.82,51.89 18.95,52.55 19.09,53.22C19.22,53.88 19.36,54.55 19.49,55.21C19.62,55.88 19.74,56.54 19.86,57.21C19.98,57.87 20.1,58.54 20.21,59.2C20.32,59.87 20.43,60.53 20.54,61.2C20.65,61.86 20.76,62.53 20.86,63.19C20.96,63.86 21.06,64.52 21.16,65.19C21.26,65.85 21.36,66.52 21.45,67.18C21.54,67.85 21.63,68.51 21.72,69.18C21.81,69.84 21.9,70.51 21.98,71.17C22.06,71.84 22.14,72.5 22.22,73.17C22.3,73.84 22.38,74.5 22.45,75.17C22.52,75.83 22.59,76.5 22.66,77.16C22.73,77.83 22.79,78.49 22.86,79.16C22.92,79.82 22.99,80.49 23.05,81.15C23.11,81.82 23.18,82.48 23.24,83.15C23.3,83.81 23.37,84.48 23.43,85.14C23.49,85.81 23.56,86.47 23.62,87.14C23.68,87.8 23.74,88.47 23.79,89.13C23.85,89.8 23.9,90.46 23.95,91.13C24,91.79 24.05,92.46 24.1,93.12C24.15,93.79 24.19,94.45 24.23,95.12C24.27,95.79 24.31,96.45 24.35,97.12C24.39,97.78 24.43,98.45 24.47,99.11C24.51,99.78 24.55,100.44 24.59,101.11C24.63,101.77 24.66,102.44 24.7,103.1C24.74,103.77 24.78,104.43 24.82,105.1C24.86,105.76 24.89,106.43 24.92,107.09C24.96,107.76 24.99,108.42 25.03,109.09C25.06,109.75 25.09,110.42 25.13,111.08C25.17,111.75 25.21,112.41 25.25,113.08C25.29,113.74 25.34,114.41 25.39,115.07C25.44,115.74 25.49,116.4 25.55,117.07C25.61,117.74 25.67,118.4 25.74,119.07C25.8,119.73 25.88,120.4 25.94,121.06C26.01,121.73 26.07,122.39 26.13,123.06C26.19,123.72 26.26,124.39 26.31,125.05C26.37,125.72 26.41,126.38 26.46,127.05C26.51,127.71 26.56,128.38 26.6,129.04C26.64,129.71 26.68,130.37 26.72,131.04C26.76,131.7 26.79,132.37 26.83,133.03C26.87,133.7 26.9,134.36 26.94,135.03C26.98,135.69 27.01,136.36 27.05,137.02C27.09,137.69 27.12,138.35 27.16,139.02C27.2,139.69 27.23,140.35 27.27,141.02C27.3,141.68 27.34,142.35 27.37,143.01C27.4,143.68 27.44,144.34 27.47,145.01C27.5,145.67 27.53,146.34 27.56,147C27.59,147.67 27.63,148.33 27.66,149C27.69,149.66 27.73,150.33 27.76,150.99C27.79,151.66 27.82,152.32 27.85,152.99C27.88,153.65 27.92,154.32 27.95,154.98C27.98,155.65 28.01,156.31 28.04,156.98C28.07,157.64 28.1,158.31 28.13,158.97C28.16,159.64 28.19,160.3 28.22,160.97C28.25,161.64 28.27,162.3 28.29,162.97C28.31,163.63 28.33,164.3 28.35,164.96C28.37,165.63 28.38,166.29 28.39,166.96C28.4,167.62 28.41,168.29 28.42,168.95C28.43,169.62 28.43,170.28 28.44,170.95C28.45,171.61 28.46,172.28 28.47,172.94C28.48,173.61 28.48,174.27 28.49,174.94C28.5,175.6 28.52,176.27 28.53,176.93C28.54,177.6 28.55,178.26 28.56,178.93C28.57,179.6 28.58,180.26 28.59,180.93C28.6,181.59 28.6,182.26 28.61,182.92C28.62,183.59 28.62,184.25 28.63,184.92C28.64,185.58 28.65,186.25 28.65,186.91C28.66,187.58 28.66,188.24 28.66,188.91C28.66,189.57 28.66,190.24 28.66,190.9C28.66,191.57 28.67,192.23 28.67,192.9C28.67,193.56 28.68,194.23 28.68,194.89C28.68,195.56 28.68,196.22 28.68,196.89C28.68,197.55 28.69,198.22 28.69,198.88C28.69,199.55 28.7,200.21 28.7,200.88C28.7,201.55 28.7,202.21 28.7,202.88C28.7,203.54 28.71,204.21 28.71,204.87Q28.71,205.54 28.71,206.87Z" style="vector-effect: none; stroke-width: 0.5px; stroke: rgb(0, 0, 0); stroke-opacity: 1; fill: rgb(244, 191, 145); fill-opacity: 1;"/><path class="meanline" d="M37.4776611328125,57.72H19.9423388671875" style="fill: none; vector-effect: none; stroke-width: 0.5px; stroke-dasharray: 1px, 0.5px; stroke: rgb(0, 0, 0); stroke-opacity: 1;"/></g><g class="trace violins" style="opacity: 1;"><path class="violin" d="M86.14,201.59Q86.14,200.94 86.14,200.62C86.14,200.3 86.15,199.97 86.15,199.65C86.15,199.32 86.15,199 86.15,198.67C86.15,198.35 86.15,198.02 86.15,197.7C86.15,197.38 86.15,197.05 86.15,196.73C86.15,196.41 86.15,196.08 86.15,195.76C86.15,195.44 86.15,195.11 86.15,194.79C86.15,194.47 86.15,194.14 86.15,193.82C86.15,193.5 86.15,193.17 86.15,192.85C86.15,192.53 86.15,192.2 86.15,191.88C86.15,191.56 86.15,191.23 86.15,190.91C86.15,190.59 86.15,190.26 86.15,189.94C86.15,189.61 86.15,189.29 86.15,188.96C86.15,188.64 86.15,188.31 86.15,187.99C86.15,187.67 86.15,187.34 86.15,187.02C86.15,186.7 86.15,186.37 86.15,186.05C86.15,185.73 86.15,185.4 86.15,185.08C86.15,184.76 86.15,184.43 86.15,184.11C86.15,183.79 86.15,183.46 86.15,183.14C86.15,182.82 86.15,182.49 86.15,182.17C86.15,181.85 86.15,181.52 86.15,181.2C86.15,180.88 86.15,180.55 86.15,180.23C86.15,179.9 86.15,179.58 86.15,179.25C86.15,178.93 86.15,178.6 86.15,178.28C86.15,177.96 86.15,177.63 86.15,177.31C86.15,176.99 86.15,176.66 86.15,176.34C86.15,176.02 86.15,175.69 86.15,175.37C86.15,175.05 86.16,174.72 86.16,174.4C86.16,174.08 86.16,173.75 86.16,173.43C86.16,173.11 86.16,172.78 86.16,172.46C86.16,172.14 86.17,171.81 86.17,171.49C86.17,171.17 86.17,170.84 86.17,170.52C86.17,170.19 86.17,169.87 86.17,169.54C86.17,169.22 86.17,168.89 86.17,168.57C86.17,168.25 86.17,167.92 86.17,167.6C86.17,167.28 86.16,166.95 86.16,166.63C86.16,166.31 86.16,165.98 86.16,165.66C86.16,165.34 86.17,165.01 86.17,164.69C86.17,164.37 86.17,164.04 86.17,163.72C86.17,163.4 86.17,163.07 86.17,162.75C86.17,162.43 86.18,162.1 86.18,161.78C86.18,161.46 86.18,161.13 86.18,160.81C86.18,160.48 86.18,160.16 86.18,159.83C86.18,159.51 86.18,159.18 86.18,158.86C86.18,158.54 86.18,158.21 86.18,157.89C86.18,157.57 86.19,157.24 86.19,156.92C86.19,156.6 86.19,156.27 86.19,155.95C86.19,155.63 86.2,155.3 86.21,154.98C86.21,154.66 86.22,154.33 86.22,154.01C86.23,153.69 86.23,153.36 86.24,153.04C86.25,152.72 86.25,152.39 86.26,152.07C86.26,151.75 86.27,151.42 86.27,151.1C86.27,150.77 86.28,150.45 86.28,150.12C86.28,149.8 86.29,149.47 86.29,149.15C86.29,148.83 86.29,148.5 86.29,148.18C86.29,147.86 86.29,147.53 86.29,147.21C86.29,146.89 86.29,146.56 86.29,146.24C86.29,145.92 86.29,145.59 86.29,145.27C86.29,144.95 86.29,144.62 86.29,144.3C86.29,143.98 86.29,143.65 86.29,143.33C86.29,143.01 86.29,142.68 86.29,142.36C86.29,142.04 86.29,141.71 86.29,141.39C86.29,141.06 86.3,140.74 86.3,140.41C86.3,140.09 86.31,139.76 86.31,139.44C86.31,139.12 86.32,138.79 86.32,138.47C86.32,138.15 86.33,137.82 86.33,137.5C86.33,137.18 86.34,136.85 86.34,136.53C86.34,136.21 86.35,135.88 86.35,135.56C86.35,135.24 86.36,134.91 86.36,134.59C86.36,134.27 86.37,133.94 86.37,133.62C86.37,133.3 86.38,132.97 86.38,132.65C86.38,132.33 86.39,132 86.39,131.68C86.39,131.35 86.4,131.03 86.4,130.7C86.4,130.38 86.41,130.05 86.41,129.73C86.42,129.41 86.42,129.08 86.43,128.76C86.43,128.44 86.44,128.11 86.44,127.79C86.45,127.47 86.45,127.14 86.46,126.82C86.46,126.5 86.47,126.17 86.47,125.85C86.47,125.53 86.48,125.2 86.48,124.88C86.49,124.56 86.49,124.23 86.5,123.91C86.5,123.59 86.51,123.26 86.51,122.94C86.52,122.62 86.53,122.29 86.53,121.97C86.54,121.64 86.54,121.32 86.54,120.99C86.54,120.67 86.55,120.34 86.55,120.02C86.55,119.7 86.55,119.37 86.55,119.05C86.55,118.73 86.55,118.4 86.55,118.08C86.55,117.76 86.55,117.43 86.55,117.11C86.55,116.79 86.54,116.46 86.54,116.14C86.54,115.82 86.54,115.49 86.54,115.17C86.54,114.85 86.54,114.52 86.54,114.2C86.54,113.88 86.54,113.55 86.54,113.23C86.54,112.91 86.54,112.58 86.54,112.26C86.54,111.93 86.54,111.61 86.54,111.28C86.54,110.96 86.55,110.63 86.55,110.31C86.56,109.99 86.56,109.66 86.57,109.34C86.57,109.02 86.58,108.69 86.58,108.37C86.59,108.05 86.59,107.72 86.6,107.4C86.61,107.08 86.62,106.75 86.63,106.43C86.64,106.11 86.65,105.78 86.66,105.46C86.67,105.14 86.68,104.81 86.69,104.49C86.7,104.17 86.71,103.84 86.72,103.52C86.73,103.2 86.74,102.87 86.75,102.55C86.76,102.22 86.76,101.9 86.76,101.57C86.76,101.25 86.77,100.92 86.77,100.6C86.77,100.28 86.77,99.95 86.77,99.63C86.77,99.31 86.76,98.98 86.76,98.66C86.76,98.34 86.77,98.01 86.77,97.69C86.78,97.37 86.78,97.04 86.79,96.72C86.8,96.4 86.8,96.07 86.81,95.75C86.82,95.43 86.83,95.1 86.84,94.78C86.85,94.46 86.86,94.13 86.87,93.81C86.88,93.48 86.89,93.16 86.89,92.83C86.89,92.51 86.89,92.18 86.89,91.86C86.89,91.54 86.89,91.21 86.89,90.89C86.89,90.57 86.88,90.24 86.88,89.92C86.87,89.6 86.87,89.27 86.86,88.95C86.86,88.63 86.85,88.3 86.85,87.98C86.85,87.66 86.85,87.33 86.85,87.01C86.85,86.69 86.85,86.36 86.86,86.04C86.87,85.72 86.88,85.39 86.89,85.07C86.9,84.75 86.93,84.42 86.94,84.1C86.96,83.77 86.96,83.45 86.98,83.12C87,82.8 87.02,82.47 87.04,82.15C87.06,81.83 87.07,81.5 87.09,81.18C87.11,80.86 87.13,80.53 87.15,80.21C87.17,79.89 87.19,79.56 87.21,79.24C87.23,78.92 87.25,78.59 87.27,78.27C87.29,77.95 87.3,77.62 87.32,77.3C87.34,76.98 87.35,76.65 87.37,76.33C87.38,76.01 87.4,75.68 87.41,75.36C87.42,75.04 87.44,74.71 87.45,74.39C87.46,74.06 87.46,73.74 87.47,73.41C87.48,73.09 87.49,72.76 87.5,72.44C87.51,72.12 87.53,71.79 87.54,71.47C87.55,71.15 87.56,70.82 87.57,70.5C87.58,70.18 87.6,69.85 87.62,69.53C87.63,69.21 87.65,68.88 87.66,68.56C87.67,68.24 87.69,67.91 87.7,67.59C87.71,67.27 87.72,66.94 87.73,66.62C87.74,66.3 87.74,65.97 87.75,65.65C87.76,65.33 87.77,65 87.78,64.68C87.79,64.35 87.8,64.03 87.81,63.7C87.82,63.38 87.84,63.05 87.86,62.73C87.88,62.41 87.9,62.08 87.93,61.76C87.96,61.44 87.99,61.11 88.02,60.79C88.05,60.47 88.09,60.14 88.13,59.82C88.16,59.5 88.2,59.17 88.23,58.85C88.27,58.53 88.3,58.2 88.34,57.88C88.38,57.56 88.41,57.23 88.45,56.91C88.48,56.59 88.52,56.26 88.55,55.94C88.59,55.62 88.62,55.29 88.66,54.97C88.7,54.64 88.74,54.32 88.78,53.99C88.82,53.67 88.85,53.34 88.89,53.02C88.93,52.7 88.96,52.37 89,52.05C89.04,51.73 89.07,51.4 89.11,51.08C89.14,50.76 89.18,50.43 89.21,50.11C89.25,49.79 89.28,49.46 89.32,49.14C89.36,48.82 89.39,48.49 89.43,48.17C89.47,47.85 89.51,47.52 89.55,47.2C89.6,46.88 89.64,46.55 89.7,46.23C89.76,45.91 89.83,45.58 89.9,45.26C89.97,44.93 90.05,44.6 90.14,44.28C90.23,43.95 90.33,43.63 90.44,43.31C90.55,42.99 90.67,42.66 90.79,42.34C90.91,42.02 91.05,41.69 91.18,41.37C91.31,41.05 91.45,40.72 91.59,40.4C91.73,40.08 91.88,39.75 92.03,39.43C92.18,39.11 92.33,38.78 92.48,38.46C92.63,38.14 92.79,37.81 92.94,37.49C93.09,37.17 93.25,36.84 93.4,36.52C93.55,36.2 93.7,35.87 93.84,35.55C93.99,35.22 94.13,34.9 94.27,34.57C94.41,34.25 94.54,33.92 94.68,33.6C94.82,33.28 94.96,32.95 95.1,32.63C95.24,32.31 95.39,31.98 95.54,31.66C95.69,31.34 95.85,31.01 96.01,30.69C96.18,30.36 96.35,30.04 96.53,29.72C96.71,29.4 96.9,29.07 97.08,28.75C97.26,28.43 97.45,28.1 97.63,27.78C97.81,27.46 97.99,27.13 98.16,26.81C98.33,26.49 98.5,26.17 98.65,25.84C98.8,25.52 98.95,25.19 99.08,24.86C99.21,24.54 99.34,24.22 99.45,23.89C99.56,23.57 99.66,23.24 99.75,22.92C99.84,22.6 99.92,22.27 99.99,21.95C100.06,21.63 100.11,21.3 100.15,20.98C100.19,20.66 100.21,20.33 100.21,20.01C100.21,19.69 100.2,19.36 100.16,19.04C100.12,18.72 100.07,18.39 99.99,18.07C99.91,17.74 99.8,17.42 99.68,17.1C99.56,16.77 99.41,16.45 99.25,16.13C99.08,15.8 98.88,15.47 98.67,15.15C98.45,14.82 98.21,14.5 97.95,14.18C97.68,13.85 97.38,13.53 97.07,13.21C96.75,12.88 96.41,12.56 96.06,12.24C95.7,11.91 95.31,11.59 94.92,11.27C94.52,10.94 94.1,10.62 93.69,10.3C93.27,9.98 92.84,9.65 92.42,9.33C92,9.01 91.58,8.69 91.18,8.36C90.78,8.04 90.39,7.72 90.02,7.39C89.66,7.07 89.32,6.75 89,6.42C88.7,6.1 88.41,5.77 88.15,5.44C87.91,5.12 87.69,4.8 87.49,4.47C87.3,4.15 87.13,3.83 86.99,3.5C86.85,3.18 86.74,2.86 86.65,2.53C86.56,2.21 86.49,1.88 86.43,1.56C86.37,1.24 86.33,0.91 86.29,0.59C86.26,0.27 86.24,-0.06 86.22,-0.38C86.2,-0.7 86.19,-1.03 86.18,-1.35Q86.17,-1.67 86.16,-2.32L86.13,-2.32Q86.12,-1.67 86.11,-1.35C86.1,-1.03 86.09,-0.7 86.07,-0.38C86.05,-0.06 86.02,0.27 85.99,0.59C85.95,0.91 85.92,1.24 85.86,1.56C85.8,1.88 85.72,2.21 85.63,2.53C85.53,2.86 85.43,3.18 85.29,3.5C85.15,3.83 84.99,4.15 84.8,4.47C84.61,4.8 84.38,5.12 84.14,5.44C83.88,5.77 83.59,6.1 83.29,6.42C82.97,6.75 82.63,7.07 82.27,7.39C81.9,7.72 81.51,8.04 81.11,8.36C80.7,8.69 80.28,9.01 79.86,9.33C79.44,9.65 79.01,9.98 78.59,10.3C78.18,10.62 77.76,10.94 77.36,11.27C76.97,11.59 76.58,11.91 76.22,12.24C75.87,12.56 75.53,12.88 75.21,13.21C74.9,13.53 74.61,13.85 74.34,14.18C74.08,14.5 73.84,14.82 73.62,15.15C73.41,15.47 73.21,15.8 73.04,16.13C72.87,16.45 72.72,16.77 72.6,17.1C72.48,17.42 72.38,17.74 72.3,18.07C72.22,18.39 72.16,18.72 72.12,19.04C72.08,19.36 72.07,19.69 72.07,20.01C72.07,20.33 72.09,20.66 72.13,20.98C72.17,21.3 72.22,21.63 72.29,21.95C72.36,22.27 72.44,22.6 72.53,22.92C72.62,23.24 72.73,23.57 72.84,23.89C72.95,24.21 73.08,24.54 73.21,24.86C73.34,25.19 73.49,25.52 73.64,25.84C73.79,26.17 73.95,26.49 74.12,26.81C74.29,27.14 74.47,27.46 74.65,27.78C74.83,28.1 75.03,28.43 75.21,28.75C75.39,29.07 75.57,29.4 75.75,29.72C75.93,30.04 76.1,30.37 76.27,30.69C76.44,31.01 76.6,31.34 76.75,31.66C76.9,31.98 77.05,32.31 77.19,32.63C77.33,32.95 77.46,33.28 77.6,33.6C77.74,33.92 77.88,34.25 78.02,34.57C78.16,34.9 78.3,35.23 78.44,35.55C78.59,35.88 78.74,36.2 78.89,36.52C79.04,36.84 79.2,37.17 79.35,37.49C79.5,37.81 79.65,38.14 79.8,38.46C79.95,38.78 80.11,39.11 80.26,39.43C80.41,39.75 80.55,40.08 80.69,40.4C80.83,40.72 80.98,41.05 81.11,41.37C81.24,41.69 81.37,42.02 81.49,42.34C81.61,42.66 81.73,42.99 81.84,43.31C81.95,43.63 82.05,43.95 82.14,44.28C82.23,44.6 82.32,44.93 82.39,45.26C82.46,45.58 82.52,45.91 82.58,46.23C82.64,46.55 82.68,46.88 82.73,47.2C82.78,47.52 82.82,47.85 82.86,48.17C82.9,48.49 82.93,48.82 82.97,49.14C83,49.46 83.04,49.79 83.07,50.11C83.11,50.43 83.14,50.76 83.18,51.08C83.22,51.4 83.25,51.73 83.29,52.05C83.33,52.37 83.36,52.7 83.4,53.02C83.44,53.34 83.47,53.67 83.51,53.99C83.55,54.32 83.58,54.64 83.62,54.97C83.66,55.29 83.69,55.62 83.73,55.94C83.77,56.26 83.8,56.59 83.84,56.91C83.88,57.23 83.91,57.56 83.95,57.88C83.98,58.2 84.02,58.53 84.05,58.85C84.09,59.17 84.12,59.5 84.16,59.82C84.19,60.14 84.23,60.47 84.26,60.79C84.29,61.11 84.32,61.44 84.35,61.76C84.38,62.08 84.41,62.41 84.43,62.73C84.45,63.05 84.47,63.38 84.48,63.7C84.49,64.03 84.5,64.35 84.51,64.68C84.52,65 84.52,65.33 84.53,65.65C84.54,65.97 84.55,66.3 84.56,66.62C84.57,66.94 84.58,67.27 84.59,67.59C84.6,67.91 84.62,68.24 84.63,68.56C84.64,68.88 84.66,69.21 84.67,69.53C84.68,69.85 84.7,70.18 84.71,70.5C84.72,70.82 84.74,71.15 84.75,71.47C84.76,71.79 84.77,72.12 84.78,72.44C84.79,72.76 84.8,73.09 84.81,73.41C84.82,73.74 84.83,74.06 84.84,74.39C84.85,74.71 84.86,75.04 84.87,75.36C84.88,75.68 84.9,76.01 84.92,76.33C84.93,76.65 84.94,76.98 84.96,77.3C84.98,77.62 85,77.95 85.02,78.27C85.04,78.59 85.06,78.92 85.08,79.24C85.1,79.56 85.12,79.89 85.14,80.21C85.16,80.53 85.17,80.86 85.19,81.18C85.21,81.5 85.23,81.83 85.25,82.15C85.27,82.47 85.28,82.8 85.3,83.12C85.32,83.45 85.33,83.77 85.35,84.1C85.36,84.42 85.38,84.75 85.39,85.07C85.4,85.39 85.41,85.72 85.42,86.04C85.43,86.36 85.44,86.69 85.44,87.01C85.44,87.33 85.44,87.66 85.44,87.98C85.44,88.3 85.43,88.63 85.43,88.95C85.42,89.27 85.42,89.6 85.41,89.92C85.41,90.24 85.4,90.57 85.4,90.89C85.4,91.21 85.39,91.54 85.39,91.86C85.39,92.18 85.4,92.51 85.4,92.83C85.41,93.16 85.41,93.48 85.42,93.81C85.43,94.13 85.43,94.46 85.44,94.78C85.45,95.1 85.46,95.43 85.47,95.75C85.48,96.07 85.49,96.4 85.5,96.72C85.51,97.04 85.52,97.37 85.52,97.69C85.52,98.01 85.52,98.34 85.52,98.66C85.52,98.98 85.52,99.31 85.52,99.63C85.52,99.95 85.52,100.28 85.52,100.6C85.52,100.92 85.52,101.25 85.52,101.57C85.52,101.9 85.53,102.22 85.54,102.55C85.55,102.87 85.55,103.2 85.56,103.52C85.57,103.84 85.58,104.17 85.59,104.49C85.6,104.81 85.62,105.14 85.63,105.46C85.64,105.78 85.65,106.11 85.66,106.43C85.67,106.75 85.67,107.08 85.68,107.4C85.69,107.72 85.69,108.05 85.7,108.37C85.71,108.69 85.71,109.02 85.72,109.34C85.72,109.66 85.73,109.99 85.73,110.31C85.73,110.63 85.74,110.96 85.74,111.28C85.74,111.61 85.75,111.93 85.75,112.26C85.75,112.58 85.75,112.91 85.75,113.23C85.75,113.55 85.75,113.88 85.75,114.2C85.75,114.52 85.75,114.85 85.75,115.17C85.75,115.49 85.74,115.82 85.74,116.14C85.74,116.46 85.74,116.79 85.74,117.11C85.74,117.43 85.74,117.76 85.74,118.08C85.74,118.4 85.74,118.73 85.74,119.05C85.74,119.37 85.74,119.7 85.74,120.02C85.74,120.34 85.75,120.67 85.75,120.99C85.75,121.32 85.76,121.64 85.76,121.97C85.76,122.29 85.77,122.62 85.77,122.94C85.78,123.26 85.78,123.59 85.79,123.91C85.79,124.23 85.8,124.56 85.8,124.88C85.81,125.2 85.81,125.53 85.82,125.85C85.82,126.17 85.83,126.5 85.83,126.82C85.83,127.14 85.84,127.47 85.84,127.79C85.85,128.11 85.85,128.44 85.86,128.76C85.86,129.08 85.87,129.41 85.87,129.73C85.88,130.05 85.89,130.38 85.89,130.7C85.9,131.03 85.9,131.35 85.9,131.68C85.9,132 85.91,132.33 85.91,132.65C85.91,132.97 85.92,133.3 85.92,133.62C85.92,133.94 85.92,134.27 85.92,134.59C85.92,134.91 85.93,135.24 85.93,135.56C85.94,135.88 85.94,136.21 85.95,136.53C85.95,136.85 85.96,137.18 85.96,137.5C85.96,137.82 85.97,138.15 85.97,138.47C85.97,138.79 85.98,139.12 85.98,139.44C85.98,139.76 85.99,140.09 85.99,140.41C85.99,140.74 85.99,141.06 85.99,141.39C85.99,141.71 86,142.04 86,142.36C86,142.68 86,143.01 86,143.33C86,143.65 86,143.98 86,144.3C86,144.62 85.99,144.95 85.99,145.27C85.99,145.59 85.99,145.92 85.99,146.24C85.99,146.56 85.99,146.89 85.99,147.21C85.99,147.53 85.99,147.86 85.99,148.18C85.99,148.5 86,148.83 86,149.15C86,149.47 86.01,149.8 86.01,150.12C86.01,150.45 86.02,150.77 86.02,151.1C86.02,151.42 86.03,151.75 86.03,152.07C86.03,152.39 86.04,152.72 86.04,153.04C86.05,153.36 86.05,153.69 86.06,154.01C86.07,154.33 86.07,154.66 86.08,154.98C86.08,155.3 86.09,155.63 86.09,155.95C86.09,156.27 86.1,156.6 86.1,156.92C86.1,157.24 86.1,157.57 86.1,157.89C86.1,158.21 86.1,158.54 86.1,158.86C86.1,159.18 86.1,159.51 86.1,159.83C86.1,160.16 86.11,160.48 86.11,160.81C86.11,161.13 86.11,161.46 86.11,161.78C86.11,162.1 86.11,162.43 86.11,162.75C86.11,163.07 86.12,163.4 86.12,163.72C86.12,164.04 86.12,164.37 86.12,164.69C86.12,165.01 86.12,165.34 86.12,165.66C86.12,165.98 86.12,166.31 86.12,166.63C86.12,166.95 86.12,167.28 86.12,167.6C86.12,167.92 86.12,168.25 86.12,168.57C86.12,168.89 86.12,169.22 86.12,169.54C86.12,169.87 86.12,170.19 86.12,170.52C86.12,170.84 86.12,171.17 86.12,171.49C86.12,171.81 86.12,172.14 86.12,172.46C86.12,172.78 86.13,173.11 86.13,173.43C86.13,173.75 86.13,174.08 86.13,174.4C86.13,174.72 86.13,175.05 86.13,175.37C86.13,175.69 86.14,176.02 86.14,176.34C86.14,176.66 86.14,176.99 86.14,177.31C86.14,177.63 86.14,177.96 86.14,178.28C86.14,178.6 86.13,178.93 86.13,179.25C86.13,179.58 86.13,179.9 86.13,180.23C86.13,180.55 86.13,180.88 86.13,181.2C86.13,181.52 86.13,181.85 86.13,182.17C86.13,182.49 86.13,182.82 86.13,183.14C86.13,183.46 86.13,183.79 86.13,184.11C86.13,184.43 86.13,184.76 86.13,185.08C86.13,185.4 86.13,185.73 86.13,186.05C86.13,186.37 86.14,186.7 86.14,187.02C86.14,187.34 86.14,187.67 86.14,187.99C86.14,188.31 86.14,188.64 86.14,188.96C86.14,189.29 86.14,189.61 86.14,189.94C86.14,190.26 86.14,190.59 86.14,190.91C86.14,191.23 86.14,191.56 86.14,191.88C86.14,192.2 86.14,192.53 86.14,192.85C86.14,193.17 86.14,193.5 86.14,193.82C86.14,194.14 86.14,194.47 86.14,194.79C86.14,195.11 86.14,195.44 86.14,195.76C86.14,196.08 86.14,196.41 86.14,196.73C86.14,197.05 86.14,197.38 86.14,197.7C86.14,198.02 86.14,198.35 86.14,198.67C86.14,199 86.14,199.32 86.14,199.65C86.14,199.97 86.14,200.3 86.14,200.62Q86.14,200.94 86.14,201.59Z" style="vector-effect: none; stroke-width: 0.5px; stroke: rgb(0, 0, 0); stroke-opacity: 1; fill: rgb(236, 154, 86); fill-opacity: 1;"/><path class="meanline" d="M94.16742706298828,34.81H78.11257293701172" style="fill: none; vector-effect: none; stroke-width: 0.5px; stroke-dasharray: 1px, 0.5px; stroke: rgb(0, 0, 0); stroke-opacity: 1;"/></g><g class="trace violins" style="opacity: 1;"><path class="violin" d="M143.69,89.51Q143.75,88.4 143.79,87.84C143.83,87.29 143.89,86.73 143.95,86.18C144.01,85.62 144.09,85.07 144.16,84.51C144.23,83.95 144.32,83.4 144.39,82.84C144.46,82.28 144.54,81.73 144.6,81.17C144.66,80.61 144.71,80.06 144.74,79.5C144.77,78.94 144.77,78.39 144.76,77.83C144.75,77.28 144.71,76.72 144.66,76.17C144.61,75.61 144.54,75.06 144.47,74.5C144.4,73.94 144.31,73.39 144.24,72.83C144.17,72.27 144.1,71.72 144.03,71.16C143.97,70.6 143.9,70.05 143.85,69.49C143.8,68.93 143.77,68.38 143.74,67.82C143.71,67.26 143.7,66.71 143.69,66.15C143.68,65.6 143.69,65.04 143.7,64.49C143.71,63.93 143.73,63.38 143.76,62.82C143.79,62.26 143.83,61.71 143.87,61.15C143.91,60.59 143.97,60.04 144.02,59.48C144.08,58.92 144.14,58.37 144.2,57.81C144.26,57.25 144.33,56.7 144.4,56.14C144.47,55.59 144.53,55.03 144.6,54.48C144.67,53.92 144.74,53.37 144.82,52.81C144.9,52.25 144.97,51.7 145.06,51.14C145.15,50.58 145.24,50.03 145.34,49.47C145.45,48.91 145.56,48.36 145.69,47.8C145.82,47.24 145.96,46.69 146.11,46.13C146.26,45.57 146.42,45.01 146.59,44.46C146.76,43.9 146.94,43.35 147.14,42.8C147.34,42.24 147.54,41.68 147.77,41.13C148,40.57 148.26,40.01 148.54,39.46C148.83,38.9 149.14,38.34 149.47,37.79C149.81,37.23 150.18,36.67 150.56,36.12C150.94,35.56 151.36,35.01 151.75,34.45C152.14,33.9 152.55,33.35 152.92,32.79C153.29,32.24 153.64,31.68 153.97,31.12C154.29,30.57 154.59,30.01 154.86,29.45C155.13,28.9 155.36,28.34 155.59,27.78C155.82,27.23 156.03,26.67 156.23,26.11C156.43,25.56 156.62,25 156.8,24.44C156.98,23.89 157.16,23.33 157.3,22.77C157.44,22.22 157.57,21.67 157.63,21.11C157.69,20.56 157.71,19.99 157.64,19.44C157.57,18.88 157.44,18.31 157.22,17.77C156.99,17.2 156.66,16.64 156.29,16.1C155.89,15.52 155.4,14.97 154.89,14.43C154.35,13.86 153.74,13.31 153.14,12.76C152.53,12.2 151.87,11.66 151.25,11.1C150.63,10.55 149.99,10 149.4,9.43C148.83,8.88 148.26,8.33 147.75,7.76C147.26,7.21 146.8,6.66 146.39,6.09C146,5.55 145.66,4.99 145.36,4.42C145.07,3.87 144.83,3.31 144.63,2.75C144.43,2.2 144.29,1.64 144.16,1.08C144.03,0.53 143.94,-0.02 143.87,-0.58Q143.8,-1.13 143.72,-2.25L143.43,-2.25Q143.34,-1.13 143.27,-0.58C143.19,-0.02 143.11,0.53 142.98,1.08C142.85,1.64 142.71,2.2 142.51,2.75C142.31,3.31 142.07,3.87 141.78,4.42C141.48,4.99 141.14,5.55 140.75,6.09C140.34,6.66 139.88,7.21 139.39,7.76C138.88,8.33 138.31,8.88 137.74,9.43C137.15,10 136.51,10.55 135.89,11.1C135.27,11.66 134.61,12.2 134,12.76C133.4,13.31 132.79,13.86 132.26,14.43C131.75,14.97 131.26,15.52 130.86,16.1C130.49,16.64 130.16,17.2 129.93,17.77C129.71,18.31 129.57,18.88 129.5,19.44C129.43,19.99 129.46,20.56 129.52,21.11C129.58,21.67 129.7,22.22 129.84,22.77C129.98,23.33 130.16,23.89 130.34,24.44C130.52,25 130.72,25.55 130.92,26.11C131.12,26.67 131.32,27.23 131.55,27.78C131.78,28.34 132.01,28.9 132.28,29.45C132.55,30.01 132.85,30.57 133.17,31.12C133.5,31.68 133.85,32.24 134.22,32.79C134.59,33.35 135,33.9 135.39,34.45C135.78,35.01 136.2,35.56 136.58,36.12C136.96,36.67 137.33,37.23 137.67,37.79C138,38.34 138.31,38.9 138.6,39.46C138.88,40.01 139.13,40.57 139.37,41.13C139.6,41.68 139.81,42.24 140.01,42.8C140.21,43.35 140.38,43.9 140.55,44.46C140.72,45.01 140.88,45.57 141.03,46.13C141.18,46.69 141.32,47.24 141.45,47.8C141.58,48.36 141.69,48.91 141.8,49.47C141.91,50.03 142,50.58 142.09,51.14C142.18,51.7 142.25,52.25 142.33,52.81C142.4,53.37 142.47,53.92 142.54,54.48C142.61,55.03 142.67,55.59 142.74,56.14C142.81,56.7 142.88,57.25 142.94,57.81C143,58.37 143.06,58.92 143.12,59.48C143.17,60.04 143.23,60.59 143.27,61.15C143.31,61.71 143.35,62.26 143.38,62.82C143.41,63.38 143.43,63.93 143.44,64.49C143.45,65.04 143.46,65.6 143.45,66.15C143.44,66.71 143.43,67.26 143.4,67.82C143.37,68.38 143.34,68.93 143.29,69.49C143.24,70.05 143.18,70.6 143.12,71.16C143.05,71.72 142.97,72.27 142.9,72.83C142.82,73.39 142.74,73.94 142.67,74.5C142.6,75.06 142.53,75.61 142.48,76.17C142.43,76.72 142.39,77.28 142.38,77.83C142.37,78.39 142.37,78.94 142.4,79.5C142.43,80.06 142.48,80.61 142.54,81.17C142.6,81.73 142.68,82.28 142.75,82.84C142.82,83.4 142.91,83.95 142.98,84.51C143.05,85.07 143.13,85.62 143.19,86.18C143.25,86.73 143.31,87.29 143.35,87.84Q143.39,88.4 143.45,89.51Z" style="vector-effect: none; stroke-width: 0.5px; stroke: rgb(0, 0, 0); stroke-opacity: 1; fill: rgb(155, 191, 229); fill-opacity: 1;"/><path class="meanline" d="M155.8321990966797,27.18H131.3078009033203" style="fill: none; vector-effect: none; stroke-width: 0.5px; stroke-dasharray: 1px, 0.5px; stroke: rgb(0, 0, 0); stroke-opacity: 1;"/></g><g class="trace violins" style="opacity: 1;"><path class="violin" d="M201.03,101.01Q201.05,100.02 201.06,99.53C201.07,99.03 201.09,98.54 201.1,98.04C201.12,97.54 201.13,97.05 201.15,96.55C201.17,96.06 201.2,95.56 201.22,95.07C201.24,94.57 201.27,94.08 201.29,93.58C201.31,93.08 201.34,92.59 201.36,92.09C201.38,91.59 201.41,91.1 201.43,90.6C201.45,90.11 201.47,89.61 201.48,89.12C201.5,88.62 201.51,88.13 201.52,87.63C201.53,87.13 201.52,86.64 201.52,86.14C201.52,85.64 201.52,85.15 201.51,84.65C201.5,84.16 201.49,83.66 201.48,83.17C201.47,82.67 201.47,82.18 201.46,81.68C201.46,81.18 201.45,80.69 201.45,80.19C201.45,79.7 201.46,79.2 201.47,78.71C201.48,78.21 201.5,77.72 201.52,77.22C201.54,76.72 201.56,76.23 201.59,75.73C201.62,75.23 201.65,74.74 201.68,74.24C201.71,73.75 201.73,73.25 201.76,72.76C201.79,72.26 201.81,71.77 201.84,71.27C201.86,70.77 201.89,70.28 201.91,69.78C201.93,69.28 201.94,68.79 201.94,68.29C201.94,67.8 201.94,67.3 201.94,66.81C201.94,66.31 201.92,65.82 201.91,65.32C201.9,64.82 201.88,64.33 201.87,63.83C201.86,63.34 201.85,62.84 201.84,62.35C201.83,61.85 201.84,61.36 201.84,60.86C201.84,60.36 201.85,59.87 201.86,59.37C201.87,58.87 201.89,58.38 201.91,57.88C201.93,57.39 201.94,56.89 201.96,56.4C201.98,55.9 201.99,55.41 202.01,54.91C202.03,54.41 202.04,53.92 202.06,53.42C202.08,52.92 202.11,52.43 202.14,51.93C202.17,51.44 202.21,50.94 202.26,50.45C202.31,49.95 202.36,49.46 202.43,48.96C202.5,48.46 202.58,47.97 202.67,47.47C202.76,46.98 202.86,46.48 202.96,45.99C203.07,45.49 203.18,45 203.3,44.5C203.42,44 203.56,43.51 203.7,43.01C203.84,42.51 203.99,42.01 204.15,41.52C204.31,41.02 204.49,40.53 204.68,40.04C204.87,39.54 205.07,39.05 205.28,38.55C205.49,38.05 205.71,37.56 205.93,37.06C206.16,36.56 206.39,36.07 206.63,35.57C206.87,35.08 207.11,34.58 207.35,34.09C207.6,33.59 207.84,33.1 208.1,32.6C208.36,32.1 208.62,31.6 208.89,31.11C209.17,30.61 209.45,30.12 209.75,29.63C210.05,29.13 210.36,28.63 210.68,28.14C211,27.64 211.34,27.15 211.67,26.65C212,26.15 212.35,25.66 212.67,25.16C212.99,24.67 213.31,24.18 213.6,23.68C213.88,23.19 214.16,22.69 214.38,22.19C214.59,21.7 214.79,21.2 214.9,20.7C215.01,20.21 215.08,19.71 215.07,19.21C215.06,18.72 214.98,18.21 214.83,17.73C214.68,17.22 214.43,16.72 214.15,16.24C213.85,15.73 213.48,15.23 213.08,14.75C212.66,14.24 212.16,13.76 211.67,13.27C211.16,12.77 210.61,12.27 210.06,11.78C209.51,11.28 208.93,10.79 208.38,10.29C207.83,9.8 207.27,9.3 206.75,8.8C206.25,8.31 205.75,7.82 205.3,7.32C204.86,6.83 204.45,6.34 204.08,5.83C203.72,5.34 203.4,4.85 203.11,4.34C202.83,3.85 202.59,3.35 202.38,2.85C202.18,2.36 202.01,1.87 201.86,1.37C201.71,0.88 201.6,0.38 201.5,-0.12C201.4,-0.61 201.34,-1.11 201.28,-1.61C201.22,-2.1 201.17,-2.6 201.14,-3.09Q201.1,-3.59 201.07,-4.58L200.93,-4.58Q200.9,-3.59 200.86,-3.09C200.83,-2.6 200.78,-2.1 200.72,-1.61C200.66,-1.11 200.6,-0.61 200.5,-0.12C200.4,0.38 200.29,0.88 200.14,1.37C199.99,1.87 199.82,2.36 199.62,2.85C199.41,3.35 199.17,3.85 198.89,4.34C198.6,4.85 198.28,5.34 197.92,5.83C197.55,6.34 197.14,6.83 196.7,7.32C196.25,7.82 195.75,8.31 195.25,8.8C194.73,9.3 194.17,9.8 193.62,10.29C193.07,10.79 192.49,11.28 191.94,11.78C191.39,12.27 190.84,12.77 190.33,13.27C189.84,13.76 189.34,14.24 188.92,14.75C188.52,15.23 188.15,15.73 187.85,16.24C187.57,16.72 187.32,17.22 187.17,17.73C187.02,18.21 186.94,18.72 186.93,19.21C186.92,19.71 186.99,20.21 187.1,20.7C187.21,21.2 187.41,21.7 187.62,22.19C187.84,22.69 188.12,23.19 188.4,23.68C188.69,24.18 189.01,24.67 189.33,25.16C189.65,25.66 190,26.15 190.33,26.65C190.66,27.15 191,27.64 191.32,28.14C191.64,28.63 191.95,29.13 192.25,29.63C192.55,30.12 192.83,30.61 193.11,31.11C193.38,31.6 193.64,32.1 193.9,32.6C194.16,33.1 194.4,33.59 194.65,34.09C194.89,34.58 195.13,35.08 195.37,35.57C195.61,36.07 195.84,36.56 196.07,37.06C196.29,37.56 196.51,38.05 196.72,38.55C196.93,39.05 197.13,39.54 197.32,40.04C197.51,40.53 197.69,41.02 197.85,41.52C198.01,42.01 198.16,42.51 198.3,43.01C198.44,43.51 198.58,44 198.7,44.5C198.82,45 198.93,45.49 199.04,45.99C199.14,46.48 199.24,46.98 199.33,47.47C199.42,47.97 199.5,48.46 199.57,48.96C199.64,49.46 199.69,49.95 199.74,50.45C199.79,50.94 199.83,51.44 199.86,51.93C199.89,52.43 199.92,52.92 199.94,53.42C199.96,53.92 199.97,54.41 199.99,54.91C200.01,55.41 200.02,55.9 200.04,56.4C200.06,56.89 200.07,57.39 200.09,57.88C200.11,58.38 200.13,58.87 200.14,59.37C200.15,59.87 200.16,60.36 200.16,60.86C200.16,61.36 200.17,61.85 200.16,62.35C200.15,62.84 200.14,63.34 200.13,63.83C200.12,64.33 200.1,64.82 200.09,65.32C200.08,65.82 200.06,66.31 200.06,66.81C200.06,67.3 200.06,67.8 200.06,68.29C200.06,68.79 200.07,69.28 200.09,69.78C200.11,70.28 200.14,70.77 200.16,71.27C200.19,71.77 200.21,72.26 200.24,72.76C200.27,73.25 200.29,73.75 200.32,74.24C200.35,74.74 200.38,75.23 200.41,75.73C200.44,76.23 200.46,76.72 200.48,77.22C200.5,77.72 200.52,78.21 200.53,78.71C200.54,79.2 200.55,79.7 200.55,80.19C200.55,80.69 200.54,81.18 200.54,81.68C200.53,82.18 200.53,82.67 200.52,83.17C200.51,83.66 200.5,84.16 200.49,84.65C200.48,85.15 200.48,85.64 200.48,86.14C200.48,86.64 200.47,87.13 200.48,87.63C200.49,88.13 200.5,88.62 200.52,89.12C200.53,89.61 200.55,90.11 200.57,90.6C200.59,91.1 200.62,91.59 200.64,92.09C200.66,92.59 200.69,93.08 200.71,93.58C200.73,94.08 200.76,94.57 200.78,95.07C200.8,95.56 200.83,96.06 200.85,96.55C200.87,97.05 200.88,97.54 200.9,98.04C200.91,98.54 200.93,99.03 200.94,99.53Q200.95,100.02 200.97,101.01Z" style="vector-effect: none; stroke-width: 0.5px; stroke: rgb(0, 0, 0); stroke-opacity: 1; fill: rgb(138, 165, 61); fill-opacity: 1;"/><path class="meanline" d="M211.52337646484375,26.87H190.47662353515625" style="fill: none; vector-effect: none; stroke-width: 0.5px; stroke-dasharray: 1px, 0.5px; stroke: rgb(0, 0, 0); stroke-opacity: 1;"/></g><g class="trace violins" style="opacity: 1;"><path class="violin" d="M258.46,147.89Q258.47,147.06 258.48,146.64C258.49,146.23 258.51,145.81 258.52,145.4C258.54,144.98 258.55,144.57 258.57,144.15C258.59,143.74 258.61,143.32 258.63,142.91C258.65,142.49 258.66,142.08 258.67,141.66C258.68,141.25 258.69,140.83 258.7,140.42C258.71,140 258.71,139.59 258.7,139.17C258.69,138.76 258.68,138.34 258.67,137.93C258.66,137.51 258.64,137.1 258.62,136.68C258.6,136.27 258.59,135.85 258.57,135.44C258.55,135.02 258.54,134.61 258.52,134.19C258.51,133.78 258.49,133.36 258.48,132.95C258.47,132.53 258.47,132.12 258.46,131.7C258.45,131.29 258.44,130.87 258.44,130.46C258.43,130.04 258.43,129.63 258.43,129.21C258.43,128.8 258.43,128.38 258.43,127.97C258.43,127.55 258.43,127.14 258.43,126.72C258.43,126.31 258.43,125.89 258.43,125.48C258.43,125.06 258.43,124.65 258.43,124.23C258.43,123.82 258.43,123.4 258.43,122.99C258.43,122.57 258.43,122.16 258.43,121.74C258.43,121.33 258.43,120.91 258.43,120.5C258.43,120.08 258.43,119.67 258.43,119.25C258.43,118.84 258.43,118.42 258.43,118.01C258.43,117.59 258.43,117.18 258.43,116.76C258.43,116.35 258.43,115.93 258.43,115.52C258.43,115.1 258.43,114.69 258.43,114.27C258.43,113.86 258.43,113.44 258.43,113.03C258.43,112.61 258.43,112.2 258.43,111.78C258.43,111.37 258.43,110.95 258.43,110.54C258.43,110.12 258.43,109.71 258.43,109.29C258.43,108.88 258.43,108.46 258.43,108.05C258.43,107.63 258.43,107.22 258.43,106.8C258.43,106.39 258.43,105.97 258.43,105.56C258.43,105.14 258.43,104.73 258.43,104.31C258.43,103.9 258.43,103.48 258.43,103.07C258.43,102.65 258.44,102.24 258.44,101.82C258.44,101.41 258.45,100.99 258.45,100.58C258.46,100.16 258.46,99.75 258.47,99.33C258.48,98.92 258.49,98.5 258.5,98.09C258.51,97.67 258.52,97.26 258.53,96.84C258.54,96.43 258.55,96.01 258.56,95.6C258.57,95.18 258.57,94.77 258.58,94.35C258.59,93.94 258.59,93.52 258.6,93.11C258.6,92.7 258.61,92.28 258.61,91.87C258.61,91.45 258.61,91.04 258.62,90.62C258.62,90.21 258.64,89.79 258.64,89.38C258.65,88.96 258.64,88.55 258.65,88.13C258.66,87.72 258.67,87.3 258.68,86.89C258.69,86.47 258.69,86.06 258.7,85.64C258.71,85.23 258.72,84.81 258.72,84.4C258.73,83.98 258.73,83.57 258.73,83.15C258.73,82.74 258.74,82.32 258.74,81.91C258.74,81.49 258.74,81.08 258.73,80.66C258.73,80.25 258.72,79.83 258.71,79.42C258.7,79 258.69,78.59 258.68,78.17C258.67,77.76 258.67,77.34 258.66,76.93C258.65,76.51 258.64,76.1 258.64,75.68C258.64,75.27 258.64,74.85 258.64,74.44C258.64,74.02 258.64,73.61 258.65,73.19C258.65,72.78 258.66,72.36 258.67,71.95C258.68,71.53 258.7,71.12 258.72,70.7C258.74,70.29 258.75,69.87 258.78,69.46C258.81,69.04 258.84,68.63 258.88,68.21C258.92,67.8 258.97,67.38 259.02,66.97C259.07,66.55 259.12,66.14 259.18,65.72C259.24,65.31 259.31,64.89 259.37,64.48C259.43,64.06 259.48,63.65 259.54,63.23C259.59,62.82 259.66,62.4 259.7,61.99C259.75,61.57 259.78,61.16 259.81,60.74C259.84,60.33 259.85,59.91 259.87,59.5C259.89,59.08 259.9,58.67 259.91,58.25C259.92,57.84 259.92,57.42 259.93,57.01C259.94,56.59 259.96,56.18 259.99,55.76C260.02,55.35 260.05,54.93 260.09,54.52C260.13,54.1 260.18,53.69 260.24,53.27C260.3,52.86 260.37,52.44 260.43,52.03C260.49,51.61 260.56,51.2 260.62,50.78C260.68,50.37 260.75,49.95 260.8,49.54C260.86,49.12 260.9,48.71 260.95,48.29C261,47.88 261.04,47.46 261.08,47.05C261.12,46.63 261.15,46.22 261.19,45.8C261.23,45.39 261.27,44.97 261.31,44.56C261.35,44.14 261.39,43.73 261.44,43.31C261.49,42.9 261.54,42.48 261.6,42.07C261.66,41.65 261.72,41.23 261.8,40.82C261.88,40.4 261.98,39.99 262.1,39.58C262.22,39.16 262.37,38.74 262.53,38.33C262.7,37.91 262.89,37.5 263.1,37.09C263.32,36.67 263.57,36.25 263.83,35.84C264.1,35.42 264.38,35.01 264.68,34.6C264.98,34.18 265.3,33.76 265.63,33.35C265.96,32.93 266.31,32.52 266.66,32.11C267.01,31.69 267.36,31.28 267.71,30.86C268.05,30.45 268.4,30.04 268.73,29.62C269.05,29.21 269.37,28.79 269.66,28.37C269.95,27.96 270.23,27.55 270.48,27.13C270.72,26.72 270.94,26.3 271.14,25.88C271.34,25.47 271.52,25.06 271.67,24.64C271.82,24.23 271.95,23.81 272.06,23.39C272.17,22.98 272.27,22.57 272.34,22.15C272.41,21.74 272.46,21.32 272.49,20.9C272.52,20.49 272.52,20.07 272.5,19.66C272.48,19.24 272.43,18.82 272.34,18.41C272.25,17.99 272.13,17.58 271.98,17.17C271.82,16.75 271.64,16.33 271.41,15.92C271.18,15.5 270.9,15.08 270.59,14.68C270.27,14.25 269.91,13.84 269.52,13.43C269.12,13.01 268.67,12.6 268.22,12.19C267.75,11.77 267.24,11.35 266.74,10.94C266.23,10.52 265.7,10.12 265.19,9.7C264.68,9.29 264.16,8.87 263.67,8.45C263.19,8.04 262.72,7.63 262.29,7.21C261.88,6.8 261.48,6.39 261.13,5.96C260.79,5.55 260.48,5.14 260.21,4.72C259.95,4.31 259.73,3.89 259.54,3.47C259.36,3.06 259.21,2.65 259.08,2.23C258.96,1.82 258.87,1.4 258.79,0.98C258.71,0.57 258.65,0.15 258.61,-0.26C258.56,-0.68 258.54,-1.09 258.52,-1.51Q258.5,-1.92 258.47,-2.75L258.39,-2.75Q258.36,-1.92 258.34,-1.51C258.31,-1.09 258.29,-0.68 258.24,-0.26C258.2,0.15 258.15,0.57 258.07,0.98C257.99,1.4 257.9,1.82 257.78,2.23C257.65,2.65 257.51,3.06 257.32,3.47C257.13,3.89 256.9,4.31 256.64,4.72C256.37,5.14 256.07,5.56 255.73,5.96C255.38,6.39 254.97,6.8 254.56,7.21C254.13,7.63 253.66,8.04 253.19,8.45C252.7,8.87 252.18,9.29 251.67,9.7C251.16,10.12 250.63,10.52 250.12,10.94C249.62,11.35 249.11,11.77 248.64,12.19C248.19,12.6 247.74,13.01 247.34,13.43C246.95,13.84 246.59,14.25 246.27,14.68C245.96,15.08 245.68,15.5 245.45,15.92C245.22,16.33 245.04,16.75 244.88,17.17C244.73,17.58 244.61,17.99 244.52,18.41C244.43,18.82 244.38,19.24 244.36,19.66C244.34,20.07 244.34,20.49 244.37,20.9C244.4,21.32 244.45,21.74 244.52,22.15C244.59,22.57 244.68,22.98 244.79,23.39C244.9,23.81 245.04,24.23 245.19,24.64C245.34,25.06 245.51,25.47 245.71,25.88C245.91,26.3 246.14,26.72 246.38,27.13C246.63,27.55 246.9,27.96 247.19,28.37C247.49,28.79 247.81,29.21 248.13,29.62C248.46,30.04 248.81,30.45 249.15,30.86C249.5,31.28 249.85,31.69 250.2,32.11C250.54,32.52 250.89,32.93 251.22,33.35C251.55,33.76 251.88,34.18 252.18,34.6C252.48,35.01 252.77,35.42 253.03,35.84C253.29,36.25 253.53,36.67 253.75,37.09C253.96,37.5 254.16,37.91 254.33,38.33C254.49,38.74 254.63,39.16 254.75,39.58C254.87,39.99 254.96,40.4 255.05,40.82C255.13,41.23 255.2,41.65 255.26,42.07C255.32,42.48 255.37,42.9 255.42,43.31C255.47,43.73 255.5,44.14 255.54,44.56C255.58,44.97 255.62,45.39 255.66,45.8C255.7,46.22 255.74,46.63 255.78,47.05C255.82,47.46 255.86,47.88 255.91,48.29C255.96,48.71 256,49.12 256.06,49.54C256.11,49.95 256.18,50.37 256.24,50.78C256.3,51.2 256.37,51.61 256.43,52.03C256.49,52.44 256.56,52.86 256.62,53.27C256.68,53.69 256.73,54.1 256.77,54.52C256.81,54.93 256.85,55.35 256.87,55.76C256.9,56.18 256.91,56.59 256.92,57.01C256.93,57.42 256.94,57.84 256.95,58.25C256.96,58.67 256.96,59.08 256.98,59.5C257,59.91 257.02,60.33 257.05,60.74C257.08,61.16 257.12,61.57 257.16,61.99C257.2,62.4 257.26,62.82 257.31,63.23C257.37,63.65 257.43,64.06 257.49,64.48C257.55,64.89 257.61,65.31 257.67,65.72C257.73,66.14 257.79,66.55 257.84,66.97C257.89,67.38 257.93,67.8 257.97,68.21C258.01,68.63 258.04,69.04 258.07,69.46C258.1,69.87 258.12,70.29 258.14,70.7C258.16,71.12 258.17,71.53 258.18,71.95C258.19,72.36 258.2,72.78 258.21,73.19C258.22,73.61 258.22,74.02 258.22,74.44C258.22,74.85 258.21,75.27 258.21,75.68C258.21,76.1 258.21,76.51 258.2,76.93C258.19,77.34 258.18,77.76 258.17,78.17C258.16,78.59 258.16,79 258.15,79.42C258.14,79.83 258.13,80.25 258.13,80.66C258.12,81.08 258.12,81.49 258.12,81.91C258.12,82.32 258.12,82.74 258.12,83.15C258.12,83.57 258.12,83.98 258.13,84.4C258.14,84.81 258.15,85.23 258.16,85.64C258.17,86.06 258.17,86.47 258.18,86.89C258.19,87.3 258.19,87.72 258.2,88.13C258.21,88.55 258.21,88.96 258.22,89.38C258.23,89.79 258.24,90.21 258.24,90.62C258.25,91.04 258.25,91.45 258.25,91.87C258.25,92.28 258.26,92.7 258.26,93.11C258.27,93.52 258.27,93.94 258.28,94.35C258.29,94.77 258.29,95.18 258.3,95.6C258.31,96.01 258.32,96.43 258.33,96.84C258.34,97.26 258.35,97.67 258.36,98.09C258.37,98.5 258.38,98.92 258.39,99.33C258.4,99.75 258.39,100.16 258.4,100.58C258.4,100.99 258.42,101.41 258.42,101.82C258.42,102.24 258.42,102.65 258.42,103.07C258.42,103.48 258.43,103.9 258.43,104.31C258.43,104.73 258.43,105.14 258.43,105.56C258.43,105.97 258.43,106.39 258.43,106.8C258.43,107.22 258.43,107.63 258.43,108.05C258.43,108.46 258.43,108.88 258.43,109.29C258.43,109.71 258.43,110.12 258.43,110.54C258.43,110.95 258.43,111.37 258.43,111.78C258.43,112.2 258.43,112.61 258.43,113.03C258.43,113.44 258.43,113.86 258.43,114.27C258.43,114.69 258.43,115.1 258.43,115.52C258.43,115.93 258.43,116.35 258.43,116.76C258.43,117.18 258.43,117.59 258.43,118.01C258.43,118.42 258.43,118.84 258.43,119.25C258.43,119.67 258.43,120.08 258.43,120.5C258.43,120.91 258.43,121.33 258.43,121.74C258.43,122.16 258.43,122.57 258.43,122.99C258.43,123.4 258.43,123.82 258.43,124.23C258.43,124.65 258.43,125.06 258.43,125.48C258.43,125.89 258.43,126.31 258.43,126.72C258.43,127.14 258.43,127.55 258.43,127.97C258.43,128.38 258.42,128.8 258.42,129.21C258.42,129.63 258.42,130.04 258.42,130.46C258.42,130.87 258.41,131.29 258.4,131.7C258.39,132.12 258.39,132.53 258.38,132.95C258.37,133.36 258.35,133.78 258.34,134.19C258.32,134.61 258.31,135.02 258.29,135.44C258.27,135.85 258.26,136.27 258.24,136.68C258.22,137.1 258.2,137.51 258.19,137.93C258.18,138.34 258.17,138.76 258.16,139.17C258.15,139.59 258.15,140 258.16,140.42C258.17,140.83 258.18,141.25 258.19,141.66C258.2,142.08 258.21,142.49 258.23,142.91C258.24,143.32 258.26,143.74 258.28,144.15C258.3,144.57 258.31,144.98 258.33,145.4C258.34,145.81 258.36,146.23 258.37,146.64Q258.38,147.06 258.4,147.89Z" style="vector-effect: none; stroke-width: 0.5px; stroke: rgb(0, 0, 0); stroke-opacity: 1; fill: rgb(186, 105, 190); fill-opacity: 1;"/><path class="meanline" d="M270.1866149902344,27.6H246.67338500976564" style="fill: none; vector-effect: none; stroke-width: 0.5px; stroke-dasharray: 1px, 0.5px; stroke: rgb(0, 0, 0); stroke-opacity: 1;"/></g><g class="trace violins" style="opacity: 1;"><path class="violin" d="M315.91,113.35Q315.94,112.02 315.96,111.35C315.98,110.68 316.01,110.01 316.03,109.34C316.06,108.67 316.08,108 316.11,107.33C316.14,106.66 316.17,106 316.19,105.33C316.21,104.66 316.24,103.99 316.25,103.32C316.26,102.65 316.27,101.98 316.27,101.31C316.27,100.64 316.27,99.98 316.26,99.31C316.25,98.64 316.22,97.97 316.2,97.3C316.18,96.63 316.16,95.96 316.14,95.29C316.12,94.62 316.09,93.96 316.08,93.29C316.06,92.62 316.05,91.95 316.05,91.28C316.05,90.61 316.05,89.94 316.07,89.27C316.09,88.6 316.12,87.94 316.15,87.27C316.18,86.6 316.23,85.93 316.27,85.26C316.32,84.59 316.37,83.92 316.42,83.25C316.47,82.58 316.53,81.92 316.58,81.25C316.63,80.58 316.67,79.91 316.71,79.24C316.74,78.57 316.77,77.9 316.79,77.23C316.81,76.56 316.82,75.9 316.83,75.23C316.84,74.56 316.85,73.89 316.86,73.22C316.87,72.55 316.88,71.88 316.9,71.21C316.92,70.54 316.94,69.88 316.97,69.21C317,68.54 317.04,67.87 317.09,67.2C317.14,66.53 317.2,65.86 317.27,65.19C317.33,64.52 317.4,63.86 317.48,63.19C317.56,62.52 317.65,61.85 317.73,61.18C317.82,60.51 317.9,59.84 317.99,59.17C318.07,58.5 318.17,57.84 318.24,57.17C318.31,56.5 318.38,55.83 318.43,55.16C318.48,54.49 318.52,53.82 318.54,53.15C318.56,52.48 318.56,51.82 318.55,51.15C318.54,50.48 318.51,49.81 318.48,49.14C318.45,48.47 318.41,47.8 318.38,47.13C318.35,46.46 318.31,45.8 318.29,45.13C318.27,44.46 318.24,43.79 318.24,43.12C318.24,42.45 318.24,41.78 318.27,41.11C318.3,40.44 318.34,39.78 318.42,39.11C318.5,38.44 318.6,37.77 318.75,37.1C318.9,36.43 319.09,35.75 319.33,35.09C319.58,34.41 319.88,33.75 320.22,33.09C320.58,32.41 320.99,31.74 321.44,31.08C321.9,30.4 322.42,29.73 322.95,29.07C323.49,28.39 324.09,27.73 324.67,27.07C325.26,26.4 325.88,25.74 326.46,25.06C327.03,24.4 327.62,23.74 328.11,23.05C328.58,22.4 329.04,21.74 329.35,21.05C329.64,20.4 329.88,19.72 329.93,19.04C329.98,18.38 329.87,17.68 329.65,17.03C329.42,16.34 328.98,15.67 328.52,15.03C328.01,14.33 327.35,13.67 326.69,13.02C326,12.33 325.22,11.68 324.48,11.01C323.74,10.34 322.96,9.69 322.24,9.01C321.54,8.35 320.85,7.69 320.24,7C319.66,6.35 319.12,5.69 318.66,5C318.22,4.35 317.83,3.67 317.51,2.99C317.2,2.33 316.97,1.66 316.77,0.98C316.57,0.32 316.44,-0.35 316.32,-1.02Q316.2,-1.69 316.07,-3.03L315.64,-3.03Q315.51,-1.69 315.4,-1.02C315.28,-0.35 315.15,0.32 314.95,0.98C314.75,1.66 314.51,2.33 314.2,2.99C313.88,3.67 313.5,4.35 313.06,5C312.6,5.69 312.05,6.35 311.47,7C310.86,7.69 310.17,8.35 309.48,9.01C308.76,9.69 307.97,10.34 307.23,11.01C306.49,11.68 305.71,12.33 305.03,13.02C304.38,13.68 303.71,14.33 303.2,15.03C302.73,15.67 302.29,16.34 302.06,17.03C301.84,17.68 301.74,18.37 301.79,19.04C301.84,19.72 302.07,20.4 302.36,21.05C302.67,21.74 303.14,22.4 303.61,23.05C304.1,23.73 304.68,24.4 305.25,25.06C305.83,25.74 306.45,26.4 307.04,27.07C307.62,27.73 308.22,28.39 308.76,29.07C309.29,29.73 309.81,30.4 310.27,31.08C310.72,31.74 311.13,32.41 311.49,33.09C311.83,33.75 312.13,34.41 312.38,35.09C312.62,35.75 312.82,36.43 312.97,37.1C313.12,37.77 313.22,38.44 313.3,39.11C313.38,39.78 313.42,40.44 313.45,41.11C313.48,41.78 313.48,42.45 313.48,43.12C313.48,43.79 313.45,44.46 313.43,45.13C313.41,45.8 313.37,46.46 313.34,47.13C313.31,47.8 313.26,48.47 313.23,49.14C313.2,49.81 313.18,50.48 313.17,51.15C313.16,51.82 313.16,52.48 313.18,53.15C313.2,53.82 313.23,54.49 313.28,55.16C313.33,55.83 313.4,56.5 313.47,57.17C313.54,57.84 313.64,58.5 313.72,59.17C313.81,59.84 313.89,60.51 313.98,61.18C314.06,61.85 314.15,62.52 314.23,63.19C314.31,63.86 314.39,64.52 314.45,65.19C314.52,65.86 314.57,66.53 314.62,67.2C314.67,67.87 314.72,68.54 314.75,69.21C314.78,69.88 314.8,70.54 314.82,71.21C314.84,71.88 314.85,72.55 314.86,73.22C314.87,73.89 314.87,74.56 314.88,75.23C314.89,75.9 314.9,76.56 314.92,77.23C314.94,77.9 314.98,78.57 315.01,79.24C315.05,79.91 315.08,80.58 315.13,81.25C315.18,81.92 315.24,82.58 315.29,83.25C315.34,83.92 315.39,84.59 315.44,85.26C315.49,85.93 315.54,86.6 315.57,87.27C315.6,87.94 315.62,88.6 315.64,89.27C315.66,89.94 315.67,90.61 315.67,91.28C315.67,91.95 315.66,92.62 315.64,93.29C315.63,93.96 315.6,94.62 315.58,95.29C315.56,95.96 315.53,96.63 315.51,97.3C315.49,97.97 315.47,98.64 315.46,99.31C315.45,99.98 315.44,100.64 315.44,101.31C315.44,101.98 315.46,102.65 315.47,103.32C315.49,103.99 315.51,104.66 315.53,105.33C315.55,106 315.58,106.66 315.61,107.33C315.64,108 315.67,108.67 315.69,109.34C315.71,110.01 315.73,110.68 315.75,111.35Q315.77,112.02 315.8,113.35Z" style="vector-effect: none; stroke-width: 0.5px; stroke: rgb(0, 0, 0); stroke-opacity: 1; fill: rgb(185, 178, 194); fill-opacity: 1;"/><path class="meanline" d="M322.91741943359375,29.11H308.8025805664063" style="fill: none; vector-effect: none; stroke-width: 0.5px; stroke-dasharray: 1px, 0.5px; stroke: rgb(0, 0, 0); stroke-opacity: 1;"/></g><g class="trace violins" style="opacity: 1;"><path class="violin" d="M373.36,111.83Q373.4,110.71 373.42,110.15C373.45,109.59 373.48,109.03 373.51,108.47C373.54,107.91 373.58,107.35 373.61,106.79C373.65,106.23 373.69,105.67 373.72,105.11C373.75,104.55 373.78,103.99 373.8,103.43C373.82,102.87 373.83,102.31 373.83,101.75C373.83,101.19 373.83,100.64 373.81,100.08C373.79,99.52 373.76,98.96 373.73,98.4C373.7,97.84 373.66,97.28 373.63,96.72C373.59,96.16 373.55,95.6 373.52,95.04C373.49,94.48 373.46,93.92 373.43,93.36C373.41,92.8 373.39,92.24 373.37,91.68C373.35,91.12 373.34,90.56 373.33,90C373.32,89.44 373.31,88.88 373.3,88.32C373.29,87.76 373.29,87.2 373.29,86.64C373.29,86.08 373.29,85.52 373.29,84.96C373.29,84.4 373.29,83.84 373.29,83.28C373.29,82.72 373.29,82.16 373.29,81.6C373.29,81.04 373.29,80.48 373.29,79.92C373.29,79.36 373.29,78.8 373.29,78.24C373.29,77.68 373.29,77.12 373.29,76.56C373.29,76 373.29,75.44 373.29,74.88C373.29,74.32 373.29,73.77 373.29,73.21C373.29,72.65 373.29,72.09 373.29,71.53C373.29,70.97 373.29,70.41 373.29,69.85C373.29,69.29 373.29,68.73 373.29,68.17C373.29,67.61 373.29,67.05 373.29,66.49C373.29,65.93 373.29,65.37 373.29,64.81C373.29,64.25 373.29,63.69 373.29,63.13C373.29,62.57 373.29,62.01 373.29,61.45C373.29,60.89 373.29,60.33 373.29,59.77C373.29,59.21 373.29,58.65 373.29,58.09C373.29,57.53 373.29,56.97 373.29,56.41C373.29,55.85 373.3,55.29 373.31,54.73C373.32,54.17 373.32,53.61 373.34,53.05C373.36,52.49 373.38,51.93 373.42,51.37C373.46,50.81 373.5,50.25 373.56,49.69C373.62,49.13 373.69,48.57 373.79,48.01C373.89,47.45 374.01,46.9 374.15,46.34C374.29,45.78 374.45,45.22 374.63,44.66C374.81,44.1 375.01,43.54 375.22,42.98C375.43,42.42 375.65,41.86 375.87,41.3C376.09,40.74 376.33,40.18 376.56,39.62C376.79,39.06 377.02,38.5 377.25,37.94C377.48,37.38 377.71,36.82 377.95,36.26C378.19,35.7 378.43,35.14 378.69,34.58C378.95,34.02 379.21,33.46 379.49,32.9C379.77,32.34 380.05,31.78 380.35,31.22C380.65,30.66 380.96,30.1 381.28,29.54C381.6,28.98 381.94,28.42 382.28,27.86C382.62,27.3 382.97,26.74 383.33,26.18C383.69,25.62 384.06,25.06 384.42,24.5C384.78,23.94 385.15,23.39 385.48,22.82C385.8,22.27 386.13,21.71 386.39,21.14C386.65,20.59 386.89,20.04 387.05,19.47C387.21,18.92 387.33,18.35 387.36,17.79C387.39,17.23 387.36,16.66 387.25,16.11C387.14,15.54 386.95,14.98 386.71,14.43C386.46,13.86 386.12,13.29 385.75,12.75C385.35,12.17 384.88,11.62 384.38,11.07C383.86,10.5 383.26,9.94 382.67,9.39C382.06,8.82 381.41,8.27 380.77,7.71C380.13,7.15 379.47,6.6 378.85,6.03C378.25,5.48 377.65,4.92 377.12,4.35C376.61,3.8 376.13,3.25 375.72,2.67C375.33,2.12 374.98,1.56 374.7,0.99C374.43,0.44 374.22,-0.12 374.04,-0.69Q373.87,-1.24 373.65,-2.37L372.92,-2.37Q372.7,-1.24 372.53,-0.69C372.35,-0.12 372.14,0.44 371.87,0.99C371.59,1.56 371.24,2.12 370.85,2.67C370.44,3.25 369.96,3.8 369.45,4.35C368.92,4.92 368.32,5.48 367.72,6.03C367.11,6.6 366.45,7.15 365.81,7.71C365.17,8.27 364.51,8.82 363.9,9.39C363.31,9.94 362.72,10.5 362.2,11.07C361.7,11.62 361.22,12.17 360.82,12.75C360.44,13.29 360.11,13.86 359.86,14.43C359.62,14.98 359.43,15.54 359.32,16.11C359.22,16.66 359.19,17.23 359.22,17.79C359.25,18.35 359.36,18.92 359.52,19.47C359.68,20.04 359.92,20.59 360.18,21.14C360.45,21.71 360.77,22.26 361.1,22.82C361.43,23.38 361.79,23.94 362.15,24.5C362.51,25.06 362.88,25.62 363.24,26.18C363.6,26.74 363.95,27.3 364.29,27.86C364.63,28.42 364.97,28.98 365.29,29.54C365.61,30.1 365.92,30.66 366.22,31.22C366.52,31.78 366.8,32.34 367.08,32.9C367.36,33.46 367.62,34.02 367.88,34.58C368.14,35.14 368.38,35.7 368.62,36.26C368.86,36.82 369.09,37.38 369.32,37.94C369.55,38.5 369.78,39.06 370.01,39.62C370.24,40.18 370.47,40.74 370.7,41.3C370.92,41.86 371.15,42.42 371.36,42.98C371.57,43.54 371.76,44.1 371.94,44.66C372.12,45.22 372.28,45.78 372.42,46.34C372.56,46.9 372.68,47.45 372.78,48.01C372.88,48.57 372.95,49.13 373.01,49.69C373.07,50.25 373.11,50.81 373.15,51.37C373.19,51.93 373.21,52.49 373.23,53.05C373.25,53.61 373.25,54.17 373.26,54.73C373.27,55.29 373.28,55.85 373.28,56.41C373.28,56.97 373.28,57.53 373.28,58.09C373.28,58.65 373.28,59.21 373.28,59.77C373.28,60.33 373.29,60.89 373.29,61.45C373.29,62.01 373.29,62.57 373.29,63.13C373.29,63.69 373.29,64.25 373.29,64.81C373.29,65.37 373.29,65.93 373.29,66.49C373.29,67.05 373.29,67.61 373.29,68.17C373.29,68.73 373.29,69.29 373.29,69.85C373.29,70.41 373.29,70.97 373.29,71.53C373.29,72.09 373.29,72.65 373.29,73.21C373.29,73.77 373.29,74.32 373.29,74.88C373.29,75.44 373.29,76 373.29,76.56C373.29,77.12 373.29,77.68 373.29,78.24C373.29,78.8 373.29,79.36 373.29,79.92C373.29,80.48 373.29,81.04 373.29,81.6C373.29,82.16 373.28,82.72 373.28,83.28C373.28,83.84 373.28,84.4 373.28,84.96C373.28,85.52 373.28,86.08 373.28,86.64C373.28,87.2 373.27,87.76 373.27,88.32C373.26,88.88 373.26,89.44 373.25,90C373.24,90.56 373.22,91.12 373.2,91.68C373.18,92.24 373.16,92.8 373.14,93.36C373.11,93.92 373.08,94.48 373.05,95.04C373.02,95.6 372.98,96.16 372.94,96.72C372.91,97.28 372.87,97.84 372.84,98.4C372.81,98.96 372.78,99.52 372.76,100.08C372.74,100.64 372.74,101.19 372.74,101.75C372.74,102.31 372.75,102.87 372.77,103.43C372.79,103.99 372.82,104.55 372.85,105.11C372.88,105.67 372.92,106.23 372.96,106.79C372.99,107.35 373.03,107.91 373.06,108.47C373.09,109.03 373.12,109.59 373.15,110.15Q373.17,110.71 373.21,111.83Z" style="vector-effect: none; stroke-width: 0.5px; stroke: rgb(0, 0, 0); stroke-opacity: 1; fill: rgb(181, 174, 112); fill-opacity: 1;"/><path class="meanline" d="M385.7812805175781,22.3H360.7987194824219" style="fill: none; vector-effect: none; stroke-width: 0.5px; stroke-dasharray: 1px, 0.5px; stroke: rgb(0, 0, 0); stroke-opacity: 1;"/></g></g></g><g class="overplot"/><path class="xlines-above crisp" d="M52.5,221.25H455" style="fill: none; stroke-width: 0.5px; stroke: rgb(0, 0, 0); stroke-opacity: 1;"/><path class="ylines-above crisp" d="M52.75,20V221" style="fill: none; stroke-width: 0.5px; stroke: rgb(0, 0, 0); stroke-opacity: 1;"/><g class="overlines-above"/><g class="xaxislayer-above"><path class="xtick ticks crisp" d="M0,221.5v5" transform="translate(81.71000000000001,0)" style="stroke: rgb(68, 68, 68); stroke-opacity: 1; stroke-width: 0.5px;"/><path class="xtick ticks crisp" d="M0,221.5v5" transform="translate(139.14,0)" style="stroke: rgb(68, 68, 68); stroke-opacity: 1; stroke-width: 0.5px;"/><path class="xtick ticks crisp" d="M0,221.5v5" transform="translate(196.57,0)" style="stroke: rgb(68, 68, 68); stroke-opacity: 1; stroke-width: 0.5px;"/><path class="xtick ticks crisp" d="M0,221.5v5" transform="translate(254,0)" style="stroke: rgb(68, 68, 68); stroke-opacity: 1; stroke-width: 0.5px;"/><path class="xtick ticks crisp" d="M0,221.5v5" transform="translate(311.43,0)" style="stroke: rgb(68, 68, 68); stroke-opacity: 1; stroke-width: 0.5px;"/><path class="xtick ticks crisp" d="M0,221.5v5" transform="translate(368.86,0)" style="stroke: rgb(68, 68, 68); stroke-opacity: 1; stroke-width: 0.5px;"/><path class="xtick ticks crisp" d="M0,221.5v5" transform="translate(426.29,0)" style="stroke: rgb(68, 68, 68); stroke-opacity: 1; stroke-width: 0.5px;"/><g class="xtick"><text text-anchor="start" x="0" y="240.9" transform="translate(81.71000000000001,0) rotate(30,0,234.9)" style="font-family: Helvetica; font-size: 12px; fill: rgb(0, 0, 0); fill-opacity: 1; white-space: pre; opacity: 1;">canonical (t/d)</text></g><g class="xtick"><text text-anchor="start" x="0" y="240.9" transform="translate(139.14,0) rotate(30,0,234.9)" style="font-family: Helvetica; font-size: 12px; fill: rgb(0, 0, 0); fill-opacity: 1; white-space: pre; opacity: 1;">canonical (PISCES)</text></g><g class="xtick"><text text-anchor="start" x="0" y="240.9" transform="translate(196.57,0) rotate(30,0,234.9)" style="font-family: Helvetica; font-size: 12px; fill: rgb(0, 0, 0); fill-opacity: 1; white-space: pre; opacity: 1;">spliced</text></g><g class="xtick"><text text-anchor="start" x="0" y="240.9" transform="translate(254,0) rotate(30,0,234.9)" style="font-family: Helvetica; font-size: 12px; fill: rgb(0, 0, 0); fill-opacity: 1; white-space: pre; opacity: 1;">multimapped</text></g><g class="xtick"><text text-anchor="start" x="0" y="240.9" transform="translate(311.43,0) rotate(30,0,234.9)" style="font-family: Helvetica; font-size: 12px; fill: rgb(0, 0, 0); fill-opacity: 1; white-space: pre; opacity: 1;">cryptic</text></g><g class="xtick"><text text-anchor="start" x="0" y="240.9" transform="translate(368.86,0) rotate(30,0,234.9)" style="font-family: Helvetica; font-size: 12px; fill: rgb(0, 0, 0); fill-opacity: 1; white-space: pre; opacity: 1;">unmapped</text></g><g class="xtick"><text text-anchor="start" x="0" y="240.9" transform="translate(426.29,0) rotate(30,0,234.9)" style="font-family: Helvetica; font-size: 12px; fill: rgb(0, 0, 0); fill-opacity: 1; white-space: pre; opacity: 1;">contaminants</text></g></g><g class="yaxislayer-above"><path class="ytick ticks crisp" d="M52.5,0h-5" transform="translate(0,221)" style="stroke: rgb(68, 68, 68); stroke-opacity: 1; stroke-width: 0.5px;"/><path class="ytick ticks crisp" d="M52.5,0h-5" transform="translate(0,180.8)" style="stroke: rgb(68, 68, 68); stroke-opacity: 1; stroke-width: 0.5px;"/><path class="ytick ticks crisp" d="M52.5,0h-5" transform="translate(0,140.6)" style="stroke: rgb(68, 68, 68); stroke-opacity: 1; stroke-width: 0.5px;"/><path class="ytick ticks crisp" d="M52.5,0h-5" transform="translate(0,100.4)" style="stroke: rgb(68, 68, 68); stroke-opacity: 1; stroke-width: 0.5px;"/><path class="ytick ticks crisp" d="M52.5,0h-5" transform="translate(0,60.2)" style="stroke: rgb(68, 68, 68); stroke-opacity: 1; stroke-width: 0.5px;"/><path class="ytick ticks crisp" d="M52.5,0h-5" transform="translate(0,20)" style="stroke: rgb(68, 68, 68); stroke-opacity: 1; stroke-width: 0.5px;"/><g class="ytick"><text text-anchor="end" x="45.1" y="4.199999999999999" transform="translate(0,221)" style="font-family: Helvetica; font-size: 12px; fill: rgb(0, 0, 0); fill-opacity: 1; white-space: pre; opacity: 1;">0</text></g><g class="ytick"><text text-anchor="end" x="45.1" y="4.199999999999999" style="font-family: Helvetica; font-size: 12px; fill: rgb(0, 0, 0); fill-opacity: 1; white-space: pre; opacity: 1;" transform="translate(0,180.8)">0.2</text></g><g class="ytick"><text text-anchor="end" x="45.1" y="4.199999999999999" style="font-family: Helvetica; font-size: 12px; fill: rgb(0, 0, 0); fill-opacity: 1; white-space: pre; opacity: 1;" transform="translate(0,140.6)">0.4</text></g><g class="ytick"><text text-anchor="end" x="45.1" y="4.199999999999999" style="font-family: Helvetica; font-size: 12px; fill: rgb(0, 0, 0); fill-opacity: 1; white-space: pre; opacity: 1;" transform="translate(0,100.4)">0.6</text></g><g class="ytick"><text text-anchor="end" x="45.1" y="4.199999999999999" style="font-family: Helvetica; font-size: 12px; fill: rgb(0, 0, 0); fill-opacity: 1; white-space: pre; opacity: 1;" transform="translate(0,60.2)">0.8</text></g><g class="ytick"><text text-anchor="end" x="45.1" y="4.199999999999999" style="font-family: Helvetica; font-size: 12px; fill: rgb(0, 0, 0); fill-opacity: 1; white-space: pre; opacity: 1;" transform="translate(0,20)">1</text></g></g><g class="overaxes-above"/></g></g><g class="polarlayer"/><g class="smithlayer"/><g class="ternarylayer"/><g class="geolayer"/><g class="funnelarealayer"/><g class="pielayer"/><g class="iciclelayer"/><g class="treemaplayer"/><g class="sunburstlayer"/><g class="glimages"/><defs id="topdefs-ea57b9"><g class="clips"/></defs><g class="layer-above"><g class="imagelayer"/><g class="shapelayer"/></g><g class="infolayer"><g class="g-gtitle"/><g class="g-xtitle"/><g class="g-ytitle" transform="translate(12.4560546875,0)"><text class="ytitle" transform="rotate(-90,0.5437500000000028,120.5)" x="0.5437500000000028" y="120.5" text-anchor="middle" style="font-family: Helvetica; font-size: 14px; fill: rgb(0, 0, 0); opacity: 1; font-weight: normal; white-space: pre;">Spectral Angle</text></g></g></svg>