<svg class="main-svg" xmlns="http://www.w3.org/2000/svg" xmlns:xlink="http://www.w3.org/1999/xlink" width="500" height="300" style="" viewBox="0 0 500 300"><rect x="0" y="0" width="500" height="300" style="fill: rgb(255, 255, 255); fill-opacity: 1;"/><defs id="defs-6971ac"><g class="clips"><clipPath id="clip6971acxyplot" class="plotclip"><rect width="433" height="232"/></clipPath><clipPath class="axesclip" id="clip6971acx"><rect x="57" y="0" width="433" height="300"/></clipPath><clipPath class="axesclip" id="clip6971acy"><rect x="0" y="20" width="500" height="232"/></clipPath><clipPath class="axesclip" id="clip6971acxy"><rect x="57" y="20" width="433" height="232"/></clipPath></g><g class="gradients"/><g class="patterns"/></defs><g class="bglayer"><rect class="bg" x="57" y="20" width="433" height="232" style="fill: rgb(0, 0, 0); fill-opacity: 0; stroke-width: 0;"/></g><g class="layer-below"><g class="imagelayer"/><g class="shapelayer"/></g><g class="cartesianlayer"><g class="subplot xy"><g class="layer-subplot"><g class="shapelayer"/><g class="imagelayer"/></g><g class="minor-gridlayer"><g class="x"/><g class="y"/></g><g class="gridlayer"><g class="x"/><g class="y"/></g><g class="zerolinelayer"><path class="yzl zl crisp" transform="translate(0,236.65)" d="M57,0h433" style="stroke: rgb(255, 255, 255); stroke-opacity: 1; stroke-width: 2px;"/></g><path class="xlines-below"/><path class="ylines-below"/><g class="overlines-below"/><g class="xaxislayer-below"/><g class="yaxislayer-below"/><g class="overaxes-below"/><g class="plot" transform="translate(57,20)" clip-path="url(#clip6971acxyplot)"><g class="scatterlayer mlayer"><g class="trace scatter tracec4f899" style="stroke-miterlimit: 2; opacity: 1;"><g class="fills"/><g class="errorbars"/><g class="lines"><path class="js-line" d="M43.3,216.65L86.6,214.53L216.5,191.75L433,175.86" style="vector-effect: none; fill: none; stroke: rgb(155, 191, 229); stroke-opacity: 1; stroke-width: 2px; opacity: 1;"/></g><g class="points"><path class="point" transform="translate(43.3,216.65)" d="M3,0A3,3 0 1,1 0,-3A3,3 0 0,1 3,0Z" style="opacity: 1; stroke-width: 0px; fill: rgb(155, 191, 229); fill-opacity: 1;"/><path class="point" transform="translate(86.6,214.53)" d="M3,0A3,3 0 1,1 0,-3A3,3 0 0,1 3,0Z" style="opacity: 1; stroke-width: 0px; fill: rgb(155, 191, 229); fill-opacity: 1;"/><path class="point" transform="translate(216.5,191.75)" d="M3,0A3,3 0 1,1 0,-3A3,3 0 0,1 3,0Z" style="opacity: 1; stroke-width: 0px; fill: rgb(155, 191, 229); fill-opacity: 1;"/><path class="point" transform="translate(433,175.86)" d="M3,0A3,3 0 1,1 0,-3A3,3 0 0,1 3,0Z" style="opacity: 1; stroke-width: 0px; fill: rgb(155, 191, 229); fill-opacity: 1;"/></g><g class="text"/></g><g class="trace scatter trace08daf2" style="stroke-miterlimit: 2; opacity: 1;"><g class="fills"/><g class="errorbars"/><g class="lines"><path class="js-line" d="M43.3,216.65L86.6,207.11L216.5,137.19L433,115.47" style="vector-effect: none; fill: none; stroke: rgb(138, 165, 61); stroke-opacity: 1; stroke-width: 2px; opacity: 1;"/></g><g class="points"><path class="point" transform="translate(43.3,216.65)" d="M3,0A3,3 0 1,1 0,-3A3,3 0 0,1 3,0Z" style="opacity: 1; stroke-width: 0px; fill: rgb(138, 165, 61); fill-opacity: 1;"/><path class="point" transform="translate(86.6,207.11)" d="M3,0A3,3 0 1,1 0,-3A3,3 0 0,1 3,0Z" style="opacity: 1; stroke-width: 0px; fill: rgb(138, 165, 61); fill-opacity: 1;"/><path class="point" transform="translate(216.5,137.19)" d="M3,0A3,3 0 1,1 0,-3A3,3 0 0,1 3,0Z" style="opacity: 1; stroke-width: 0px; fill: rgb(138, 165, 61); fill-opacity: 1;"/><path class="point" transform="translate(433,115.47)" d="M3,0A3,3 0 1,1 0,-3A3,3 0 0,1 3,0Z" style="opacity: 1; stroke-width: 0px; fill: rgb(138, 165, 61); fill-opacity: 1;"/></g><g class="text"/></g><g class="trace scatter trace417be3" style="stroke-miterlimit: 2; opacity: 1;"><g class="fills"/><g class="errorbars"/><g class="lines"><path class="js-line" d="M43.3,216.65L86.6,199.17L216.5,75.74L433,15.35" style="vector-effect: none; fill: none; stroke: rgb(186, 105, 190); stroke-opacity: 1; stroke-width: 2px; opacity: 1;"/></g><g class="points"><path class="point" transform="translate(43.3,216.65)" d="M3,0A3,3 0 1,1 0,-3A3,3 0 0,1 3,0Z" style="opacity: 1; stroke-width: 0px; fill: rgb(186, 105, 190); fill-opacity: 1;"/><path class="point" transform="translate(86.6,199.17)" d="M3,0A3,3 0 1,1 0,-3A3,3 0 0,1 3,0Z" style="opacity: 1; stroke-width: 0px; fill: rgb(186, 105, 190); fill-opacity: 1;"/><path class="point" transform="translate(216.5,75.74)" d="M3,0A3,3 0 1,1 0,-3A3,3 0 0,1 3,0Z" style="opacity: 1; stroke-width: 0px; fill: rgb(186, 105, 190); fill-opacity: 1;"/><path class="point" transform="translate(433,15.35)" d="M3,0A3,3 0 1,1 0,-3A3,3 0 0,1 3,0Z" style="opacity: 1; stroke-width: 0px; fill: rgb(186, 105, 190); fill-opacity: 1;"/></g><g class="text"/></g><g class="trace scatter trace627984" style="stroke-miterlimit: 2; opacity: 1;"><g class="fills"/><g class="errorbars"/><g class="lines"><path class="js-line" d="M43.3,216.65L86.6,213.47L216.5,192.81L433,183.81" style="vector-effect: none; fill: none; stroke: rgb(181, 174, 112); stroke-opacity: 1; stroke-width: 2px; opacity: 1;"/></g><g class="points"><path class="point" transform="translate(43.3,216.65)" d="M3,0A3,3 0 1,1 0,-3A3,3 0 0,1 3,0Z" style="opacity: 1; stroke-width: 0px; fill: rgb(181, 174, 112); fill-opacity: 1;"/><path class="point" transform="translate(86.6,213.47)" d="M3,0A3,3 0 1,1 0,-3A3,3 0 0,1 3,0Z" style="opacity: 1; stroke-width: 0px; fill: rgb(181, 174, 112); fill-opacity: 1;"/><path class="point" transform="translate(216.5,192.81)" d="M3,0A3,3 0 1,1 0,-3A3,3 0 0,1 3,0Z" style="opacity: 1; stroke-width: 0px; fill: rgb(181, 174, 112); fill-opacity: 1;"/><path class="point" transform="translate(433,183.81)" d="M3,0A3,3 0 1,1 0,-3A3,3 0 0,1 3,0Z" style="opacity: 1; stroke-width: 0px; fill: rgb(181, 174, 112); fill-opacity: 1;"/></g><g class="text"/></g><g class="trace scatter trace3c9a8f" style="stroke-miterlimit: 2; opacity: 1;"><g class="fills"/><g class="errorbars"/><g class="lines"><path class="js-line" d="M43.3,216.65L86.6,216.65L216.5,193.34L433,158.38" style="vector-effect: none; fill: none; stroke: rgb(185, 178, 194); stroke-opacity: 1; stroke-width: 2px; opacity: 1;"/></g><g class="points"><path class="point" transform="translate(43.3,216.65)" d="M3,0A3,3 0 1,1 0,-3A3,3 0 0,1 3,0Z" style="opacity: 1; stroke-width: 0px; fill: rgb(185, 178, 194); fill-opacity: 1;"/><path class="point" transform="translate(86.6,216.65)" d="M3,0A3,3 0 1,1 0,-3A3,3 0 0,1 3,0Z" style="opacity: 1; stroke-width: 0px; fill: rgb(185, 178, 194); fill-opacity: 1;"/><path class="point" transform="translate(216.5,193.34)" d="M3,0A3,3 0 1,1 0,-3A3,3 0 0,1 3,0Z" style="opacity: 1; stroke-width: 0px; fill: rgb(185, 178, 194); fill-opacity: 1;"/><path class="point" transform="translate(433,158.38)" d="M3,0A3,3 0 1,1 0,-3A3,3 0 0,1 3,0Z" style="opacity: 1; stroke-width: 0px; fill: rgb(185, 178, 194); fill-opacity: 1;"/></g><g class="text"/></g></g></g><g class="overplot"/><path class="xlines-above crisp" d="M56.5,252.25H490" style="fill: none; stroke-width: 0.5px; stroke: rgb(0, 0, 0); stroke-opacity: 1;"/><path class="ylines-above crisp" d="M56.75,20V252" style="fill: none; stroke-width: 0.5px; stroke: rgb(0, 0, 0); stroke-opacity: 1;"/><g class="overlines-above"/><g class="xaxislayer-above"><path class="xtick ticks crisp" d="M0,252.5v5" transform="translate(57,0)" style="stroke: rgb(68, 68, 68); stroke-opacity: 1; stroke-width: 0.5px;"/><path class="xtick ticks crisp" d="M0,252.5v5" transform="translate(143.6,0)" style="stroke: rgb(68, 68, 68); stroke-opacity: 1; stroke-width: 0.5px;"/><path class="xtick ticks crisp" d="M0,252.5v5" transform="translate(230.2,0)" style="stroke: rgb(68, 68, 68); stroke-opacity: 1; stroke-width: 0.5px;"/><path class="xtick ticks crisp" d="M0,252.5v5" transform="translate(316.8,0)" style="stroke: rgb(68, 68, 68); stroke-opacity: 1; stroke-width: 0.5px;"/><path class="xtick ticks crisp" d="M0,252.5v5" transform="translate(403.4,0)" style="stroke: rgb(68, 68, 68); stroke-opacity: 1; stroke-width: 0.5px;"/><path class="xtick ticks crisp" d="M0,252.5v5" transform="translate(490,0)" style="stroke: rgb(68, 68, 68); stroke-opacity: 1; stroke-width: 0.5px;"/><g class="xtick"><text text-anchor="middle" x="0" y="271.9" transform="translate(57,0)" style="font-family: Helvetica; font-size: 12px; fill: rgb(0, 0, 0); fill-opacity: 1; white-space: pre; opacity: 1;">0</text></g><g class="xtick"><text text-anchor="middle" x="0" y="271.9" style="font-family: Helvetica; font-size: 12px; fill: rgb(0, 0, 0); fill-opacity: 1; white-space: pre; opacity: 1;" transform="translate(143.6,0)">0.02</text></g><g class="xtick"><text text-anchor="middle" x="0" y="271.9" style="font-family: Helvetica; font-size: 12px; fill: rgb(0, 0, 0); fill-opacity: 1; white-space: pre; opacity: 1;" transform="translate(230.2,0)">0.04</text></g><g class="xtick"><text text-anchor="middle" x="0" y="271.9" style="font-family: Helvetica; font-size: 12px; fill: rgb(0, 0, 0); fill-opacity: 1; white-space: pre; opacity: 1;" transform="translate(316.8,0)">0.06</text></g><g class="xtick"><text text-anchor="middle" x="0" y="271.9" style="font-family: Helvetica; font-size: 12px; fill: rgb(0, 0, 0); fill-opacity: 1; white-space: pre; opacity: 1;" transform="translate(403.4,0)">0.08</text></g><g class="xtick"><text text-anchor="middle" x="0" y="271.9" style="font-family: Helvetica; font-size: 12px; fill: rgb(0, 0, 0); fill-opacity: 1; white-space: pre; opacity: 1;" transform="translate(490,0)">0.1</text></g></g><g class="yaxislayer-above"><path class="ytick ticks crisp" d="M56.5,0h-5" transform="translate(0,236.65)" style="stroke: rgb(68, 68, 68); stroke-opacity: 1; stroke-width: 0.5px;"/><path class="ytick ticks crisp" d="M56.5,0h-5" transform="translate(0,183.68)" style="stroke: rgb(68, 68, 68); stroke-opacity: 1; stroke-width: 0.5px;"/><path class="ytick ticks crisp" d="M56.5,0h-5" transform="translate(0,130.7)" style="stroke: rgb(68, 68, 68); stroke-opacity: 1; stroke-width: 0.5px;"/><path class="ytick ticks crisp" d="M56.5,0h-5" transform="translate(0,77.72999999999999)" style="stroke: rgb(68, 68, 68); stroke-opacity: 1; stroke-width: 0.5px;"/><path class="ytick ticks crisp" d="M56.5,0h-5" transform="translate(0,24.759999999999998)" style="stroke: rgb(68, 68, 68); stroke-opacity: 1; stroke-width: 0.5px;"/><g class="ytick"><text text-anchor="end" x="49.1" y="4.199999999999999" transform="translate(0,236.65)" style="font-family: Helvetica; font-size: 12px; fill: rgb(0, 0, 0); fill-opacity: 1; white-space: pre; opacity: 1;">0</text></g><g class="ytick"><text text-anchor="end" x="49.1" y="4.199999999999999" style="font-family: Helvetica; font-size: 12px; fill: rgb(0, 0, 0); fill-opacity: 1; white-space: pre; opacity: 1;" transform="translate(0,183.68)">100</text></g><g class="ytick"><text text-anchor="end" x="49.1" y="4.199999999999999" style="font-family: Helvetica; font-size: 12px; fill: rgb(0, 0, 0); fill-opacity: 1; white-space: pre; opacity: 1;" transform="translate(0,130.7)">200</text></g><g class="ytick"><text text-anchor="end" x="49.1" y="4.199999999999999" style="font-family: Helvetica; font-size: 12px; fill: rgb(0, 0, 0); fill-opacity: 1; white-space: pre; opacity: 1;" transform="translate(0,77.72999999999999)">300</text></g><g class="ytick"><text text-anchor="end" x="49.1" y="4.199999999999999" style="font-family: Helvetica; font-size: 12px; fill: rgb(0, 0, 0); fill-opacity: 1; white-space: pre; opacity: 1;" transform="translate(0,24.759999999999998)">400</text></g></g><g class="overaxes-above"/></g></g><g class="polarlayer"/><g class="smithlayer"/><g class="ternarylayer"/><g class="geolayer"/><g class="funnelarealayer"/><g class="pielayer"/><g class="iciclelayer"/><g class="treemaplayer"/><g class="sunburstlayer"/><g class="glimages"/><defs id="topdefs-6971ac"><g class="clips"/></defs><g class="layer-above"><g class="imagelayer"/><g class="shapelayer"/></g><g class="infolayer"><g class="g-gtitle"/><g class="g-xtitle" transform="translate(0,-2.4562500000000114)"><text class="xtitle" x="273.5" y="299.45625" text-anchor="middle" style="font-family: Helvetica; font-size: 14px; fill: rgb(0, 0, 0); opacity: 1; font-weight: normal; white-space: pre;">q-value</text></g><g class="g-ytitle" transform="translate(12.4560546875,0)"><text class="ytitle" transform="rotate(-90,0.5437500000000028,136)" x="0.5437500000000028" y="136" text-anchor="middle" style="font-family: Helvetica; font-size: 14px; fill: rgb(0, 0, 0); opacity: 1; font-weight: normal; white-space: pre;">peptides</text></g></g></svg>