<svg class="main-svg" xmlns="http://www.w3.org/2000/svg" xmlns:xlink="http://www.w3.org/1999/xlink" width="500" height="300" style="" viewBox="0 0 500 300"><rect x="0" y="0" width="500" height="300" style="fill: rgb(255, 255, 255); fill-opacity: 1;"/><defs id="defs-a2bffb"><g class="clips"><clipPath id="clipa2bffbxyplot" class="plotclip"><rect width="402" height="201"/></clipPath><clipPath class="axesclip" id="clipa2bffbx"><rect x="53" y="0" width="402" height="300"/></clipPath><clipPath class="axesclip" id="clipa2bffby"><rect x="0" y="20" width="500" height="201"/></clipPath><clipPath class="axesclip" id="clipa2bffbxy"><rect x="53" y="20" width="402" height="201"/></clipPath></g><g class="gradients"/><g class="patterns"/></defs><g class="bglayer"><rect class="bg" x="53" y="20" width="402" height="201" style="fill: rgb(0, 0, 0); fill-opacity: 0; stroke-width: 0;"/></g><g class="layer-below"><g class="imagelayer"/><g class="shapelayer"/></g><g class="cartesianlayer"><g class="subplot xy"><g class="layer-subplot"><g class="shapelayer"/><g class="imagelayer"/></g><g class="minor-gridlayer"><g class="x"/><g class="y"/></g><g class="gridlayer"><g class="x"/><g class="y"/></g><g class="zerolinelayer"/><path class="xlines-below"/><path class="ylines-below"/><g class="overlines-below"/><g class="xaxislayer-below"/><g class="yaxislayer-below"/><g class="overaxes-below"/><g class="plot" transform="translate(53,20)" clip-path="url(#clipa2bffbxyplot)"><g class="violinlayer mlayer"><g class="trace violins" style="opacity: 1;"><path class="violin" d="M28.72,196.47Q28.72,195.44 28.72,194.92C28.72,194.4 28.72,193.88 28.72,193.36C28.72,192.84 28.72,192.33 28.72,191.81C28.72,191.29 28.73,190.77 28.73,190.25C28.73,189.73 28.73,189.22 28.73,188.7C28.73,188.18 28.74,187.66 28.74,187.14C28.74,186.62 28.74,186.11 28.74,185.59C28.74,185.07 28.74,184.55 28.74,184.03C28.74,183.51 28.75,183 28.75,182.48C28.75,181.96 28.75,181.44 28.75,180.92C28.75,180.4 28.75,179.89 28.75,179.37C28.75,178.85 28.76,178.34 28.76,177.82C28.76,177.3 28.77,176.78 28.77,176.26C28.77,175.74 28.78,175.23 28.78,174.71C28.78,174.19 28.78,173.67 28.79,173.15C28.79,172.63 28.81,172.12 28.81,171.6C28.82,171.08 28.81,170.56 28.82,170.04C28.82,169.52 28.83,169.01 28.84,168.49C28.85,167.97 28.85,167.45 28.86,166.93C28.87,166.41 28.88,165.9 28.88,165.38C28.89,164.86 28.88,164.34 28.89,163.82C28.89,163.3 28.91,162.79 28.91,162.27C28.92,161.75 28.91,161.23 28.92,160.71C28.92,160.19 28.94,159.68 28.94,159.16C28.95,158.64 28.94,158.12 28.95,157.6C28.95,157.08 28.96,156.57 28.97,156.05C28.98,155.53 28.98,155.01 28.99,154.49C29,153.97 29.01,153.46 29.02,152.94C29.03,152.42 29.04,151.9 29.05,151.38C29.06,150.86 29.07,150.35 29.08,149.83C29.09,149.31 29.1,148.79 29.11,148.27C29.12,147.75 29.14,147.24 29.15,146.72C29.16,146.2 29.18,145.68 29.19,145.16C29.2,144.64 29.22,144.13 29.23,143.61C29.25,143.09 29.26,142.57 29.28,142.05C29.3,141.53 29.31,141.02 29.33,140.5C29.35,139.98 29.36,139.46 29.38,138.94C29.4,138.42 29.43,137.91 29.45,137.39C29.47,136.87 29.5,136.35 29.52,135.83C29.54,135.31 29.57,134.8 29.59,134.28C29.62,133.76 29.64,133.24 29.67,132.72C29.69,132.2 29.72,131.69 29.74,131.17C29.77,130.65 29.8,130.13 29.82,129.61C29.84,129.09 29.86,128.58 29.88,128.06C29.9,127.54 29.93,127.02 29.95,126.5C29.97,125.98 29.99,125.47 30.01,124.95C30.03,124.43 30.05,123.91 30.07,123.39C30.09,122.87 30.1,122.36 30.12,121.84C30.14,121.32 30.16,120.8 30.18,120.28C30.2,119.76 30.22,119.25 30.24,118.73C30.26,118.21 30.28,117.7 30.3,117.18C30.32,116.66 30.34,116.14 30.36,115.62C30.38,115.1 30.41,114.59 30.43,114.07C30.46,113.55 30.48,113.03 30.51,112.51C30.53,111.99 30.56,111.48 30.58,110.96C30.6,110.44 30.63,109.92 30.65,109.4C30.67,108.88 30.7,108.37 30.72,107.85C30.74,107.33 30.77,106.81 30.79,106.29C30.81,105.77 30.83,105.26 30.85,104.74C30.87,104.22 30.88,103.7 30.9,103.18C30.92,102.66 30.93,102.15 30.95,101.63C30.97,101.11 30.98,100.59 31,100.07C31.02,99.55 31.03,99.04 31.05,98.52C31.07,98 31.09,97.48 31.12,96.96C31.15,96.44 31.18,95.93 31.21,95.41C31.24,94.89 31.28,94.37 31.32,93.85C31.36,93.33 31.41,92.82 31.45,92.3C31.49,91.78 31.54,91.26 31.58,90.74C31.62,90.22 31.67,89.71 31.71,89.19C31.75,88.67 31.8,88.15 31.84,87.63C31.88,87.11 31.92,86.6 31.95,86.08C31.98,85.56 32.01,85.04 32.04,84.52C32.07,84 32.11,83.49 32.14,82.97C32.18,82.45 32.21,81.93 32.25,81.41C32.29,80.89 32.33,80.38 32.37,79.86C32.42,79.34 32.47,78.82 32.52,78.3C32.57,77.78 32.63,77.27 32.69,76.75C32.75,76.23 32.82,75.71 32.88,75.19C32.94,74.67 33,74.16 33.07,73.64C33.14,73.12 33.21,72.6 33.28,72.08C33.35,71.56 33.42,71.05 33.49,70.53C33.56,70.01 33.64,69.49 33.72,68.97C33.8,68.45 33.87,67.94 33.95,67.42C34.03,66.9 34.12,66.38 34.21,65.86C34.3,65.34 34.39,64.83 34.48,64.31C34.58,63.79 34.68,63.27 34.78,62.75C34.88,62.23 34.98,61.72 35.09,61.2C35.2,60.68 35.31,60.16 35.42,59.64C35.53,59.12 35.64,58.61 35.75,58.09C35.86,57.57 35.97,57.06 36.08,56.54C36.19,56.02 36.29,55.5 36.39,54.98C36.49,54.46 36.6,53.95 36.7,53.43C36.8,52.91 36.9,52.39 37,51.87C37.1,51.35 37.21,50.84 37.32,50.32C37.43,49.8 37.55,49.28 37.68,48.76C37.8,48.24 37.93,47.73 38.07,47.21C38.21,46.69 38.36,46.17 38.52,45.65C38.68,45.13 38.84,44.62 39.01,44.1C39.18,43.58 39.35,43.06 39.53,42.54C39.7,42.02 39.89,41.51 40.06,40.99C40.24,40.47 40.41,39.95 40.58,39.43C40.75,38.91 40.92,38.4 41.08,37.88C41.24,37.36 41.39,36.84 41.54,36.32C41.68,35.8 41.82,35.29 41.95,34.77C42.08,34.25 42.2,33.73 42.3,33.21C42.4,32.69 42.5,32.18 42.57,31.66C42.64,31.14 42.7,30.62 42.73,30.1C42.76,29.58 42.78,29.07 42.78,28.55C42.78,28.03 42.75,27.51 42.71,26.99C42.66,26.47 42.6,25.96 42.51,25.44C42.42,24.92 42.32,24.4 42.19,23.88C42.06,23.36 41.92,22.84 41.75,22.33C41.58,21.81 41.38,21.28 41.17,20.77C40.95,20.25 40.71,19.73 40.45,19.22C40.18,18.7 39.89,18.17 39.57,17.66C39.25,17.14 38.89,16.62 38.53,16.11C38.16,15.59 37.76,15.07 37.36,14.55C36.95,14.03 36.52,13.52 36.1,13C35.67,12.48 35.24,11.96 34.81,11.44C34.39,10.92 33.96,10.41 33.55,9.89C33.15,9.38 32.76,8.85 32.39,8.33C32.03,7.82 31.68,7.3 31.37,6.78C31.07,6.27 30.79,5.75 30.54,5.22C30.3,4.71 30.08,4.19 29.9,3.67C29.72,3.16 29.57,2.63 29.44,2.11C29.31,1.6 29.22,1.08 29.13,0.56C29.05,0.04 28.98,-0.48 28.93,-1C28.88,-1.52 28.85,-2.03 28.82,-2.55C28.79,-3.07 28.77,-3.58 28.76,-4.1Q28.74,-4.62 28.73,-5.66L28.69,-5.66Q28.68,-4.62 28.67,-4.1C28.66,-3.58 28.64,-3.07 28.61,-2.55C28.58,-2.03 28.55,-1.52 28.5,-1C28.45,-0.48 28.38,0.04 28.3,0.56C28.21,1.08 28.12,1.6 27.99,2.11C27.86,2.63 27.71,3.16 27.53,3.67C27.35,4.19 27.13,4.71 26.89,5.22C26.64,5.75 26.35,6.27 26.05,6.78C25.74,7.3 25.4,7.82 25.04,8.33C24.67,8.85 24.28,9.38 23.88,9.89C23.47,10.41 23.04,10.92 22.62,11.44C22.19,11.96 21.76,12.48 21.33,13C20.91,13.52 20.48,14.03 20.07,14.55C19.67,15.07 19.27,15.59 18.9,16.11C18.54,16.62 18.18,17.14 17.86,17.66C17.54,18.17 17.25,18.7 16.98,19.22C16.72,19.73 16.48,20.25 16.26,20.77C16.05,21.28 15.85,21.81 15.68,22.33C15.51,22.84 15.37,23.36 15.24,23.88C15.11,24.4 15.01,24.92 14.92,25.44C14.83,25.96 14.77,26.47 14.72,26.99C14.67,27.51 14.64,28.03 14.64,28.55C14.64,29.07 14.66,29.58 14.7,30.1C14.74,30.62 14.79,31.14 14.86,31.66C14.93,32.18 15.03,32.69 15.13,33.21C15.23,33.73 15.35,34.25 15.48,34.77C15.61,35.29 15.75,35.8 15.89,36.32C16.04,36.84 16.19,37.36 16.35,37.88C16.51,38.4 16.68,38.91 16.85,39.43C17.02,39.95 17.19,40.47 17.37,40.99C17.54,41.51 17.73,42.02 17.9,42.54C18.08,43.06 18.25,43.58 18.42,44.1C18.59,44.62 18.75,45.13 18.91,45.65C19.07,46.17 19.22,46.69 19.36,47.21C19.5,47.73 19.63,48.24 19.75,48.76C19.87,49.28 19.99,49.8 20.1,50.32C20.21,50.84 20.32,51.35 20.42,51.87C20.53,52.39 20.63,52.91 20.73,53.43C20.83,53.95 20.94,54.46 21.04,54.98C21.14,55.5 21.24,56.02 21.35,56.54C21.46,57.06 21.57,57.57 21.68,58.09C21.79,58.61 21.9,59.12 22.01,59.64C22.12,60.16 22.23,60.68 22.34,61.2C22.45,61.72 22.55,62.23 22.65,62.75C22.75,63.27 22.85,63.79 22.95,64.31C23.04,64.83 23.13,65.34 23.22,65.86C23.31,66.38 23.39,66.9 23.47,67.42C23.55,67.94 23.63,68.45 23.71,68.97C23.79,69.49 23.86,70.01 23.93,70.53C24,71.05 24.08,71.56 24.15,72.08C24.22,72.6 24.28,73.12 24.35,73.64C24.42,74.16 24.49,74.67 24.55,75.19C24.62,75.71 24.68,76.23 24.74,76.75C24.8,77.27 24.86,77.78 24.91,78.3C24.96,78.82 25,79.34 25.05,79.86C25.09,80.38 25.14,80.89 25.18,81.41C25.22,81.93 25.25,82.45 25.29,82.97C25.32,83.49 25.36,84 25.39,84.52C25.42,85.04 25.45,85.56 25.48,86.08C25.51,86.6 25.55,87.11 25.59,87.63C25.63,88.15 25.67,88.67 25.71,89.19C25.75,89.71 25.81,90.22 25.85,90.74C25.9,91.26 25.94,91.78 25.98,92.3C26.02,92.82 26.07,93.33 26.11,93.85C26.15,94.37 26.19,94.89 26.22,95.41C26.25,95.93 26.28,96.44 26.3,96.96C26.33,97.48 26.35,98 26.37,98.52C26.39,99.04 26.41,99.55 26.43,100.07C26.45,100.59 26.46,101.11 26.48,101.63C26.5,102.15 26.51,102.66 26.53,103.18C26.55,103.7 26.56,104.22 26.58,104.74C26.6,105.26 26.62,105.77 26.64,106.29C26.66,106.81 26.69,107.33 26.71,107.85C26.73,108.37 26.76,108.88 26.78,109.4C26.8,109.92 26.83,110.44 26.85,110.96C26.87,111.48 26.9,111.99 26.92,112.51C26.94,113.03 26.97,113.55 26.99,114.07C27.01,114.59 27.04,115.1 27.06,115.62C27.08,116.14 27.11,116.66 27.13,117.18C27.15,117.7 27.17,118.21 27.19,118.73C27.21,119.25 27.23,119.76 27.25,120.28C27.27,120.8 27.28,121.32 27.3,121.84C27.32,122.36 27.34,122.87 27.36,123.39C27.38,123.91 27.4,124.43 27.42,124.95C27.44,125.47 27.46,125.98 27.48,126.5C27.5,127.02 27.52,127.54 27.54,128.06C27.56,128.58 27.59,129.09 27.61,129.61C27.64,130.13 27.66,130.65 27.69,131.17C27.71,131.69 27.74,132.2 27.76,132.72C27.79,133.24 27.81,133.76 27.84,134.28C27.86,134.8 27.89,135.31 27.91,135.83C27.93,136.35 27.96,136.87 27.98,137.39C28,137.91 28.02,138.42 28.04,138.94C28.06,139.46 28.08,139.98 28.1,140.5C28.12,141.02 28.13,141.53 28.15,142.05C28.17,142.57 28.18,143.09 28.2,143.61C28.21,144.13 28.23,144.64 28.24,145.16C28.25,145.68 28.27,146.2 28.28,146.72C28.29,147.24 28.3,147.75 28.31,148.27C28.32,148.79 28.34,149.31 28.35,149.83C28.36,150.35 28.37,150.86 28.38,151.38C28.39,151.9 28.4,152.42 28.41,152.94C28.42,153.46 28.42,153.97 28.43,154.49C28.44,155.01 28.45,155.53 28.46,156.05C28.47,156.57 28.48,157.08 28.48,157.6C28.49,158.12 28.48,158.64 28.49,159.16C28.49,159.68 28.51,160.19 28.51,160.71C28.52,161.23 28.52,161.75 28.52,162.27C28.52,162.79 28.53,163.3 28.53,163.82C28.54,164.34 28.54,164.86 28.55,165.38C28.56,165.9 28.56,166.41 28.57,166.93C28.58,167.45 28.58,167.97 28.59,168.49C28.59,169.01 28.6,169.52 28.6,170.04C28.61,170.56 28.61,171.08 28.62,171.6C28.63,172.12 28.64,172.63 28.64,173.15C28.65,173.67 28.65,174.19 28.65,174.71C28.65,175.23 28.66,175.74 28.66,176.26C28.66,176.78 28.67,177.3 28.67,177.82C28.67,178.34 28.68,178.85 28.68,179.37C28.68,179.89 28.68,180.4 28.68,180.92C28.68,181.44 28.68,181.96 28.68,182.48C28.68,183 28.68,183.51 28.68,184.03C28.68,184.55 28.69,185.07 28.69,185.59C28.69,186.11 28.69,186.62 28.69,187.14C28.69,187.66 28.7,188.18 28.7,188.7C28.7,189.22 28.7,189.73 28.7,190.25C28.7,190.77 28.71,191.29 28.71,191.81C28.71,192.33 28.71,192.84 28.71,193.36C28.71,193.88 28.71,194.4 28.71,194.92Q28.71,195.44 28.71,196.47Z" style="vector-effect: none; stroke-width: 0.5px; stroke: rgb(0, 0, 0); stroke-opacity: 1; fill: rgb(244, 191, 145); fill-opacity: 1;"/><path class="meanline" d="M37.4694709777832,49.64H19.9505290222168" style="fill: none; vector-effect: none; stroke-width: 0.5px; stroke-dasharray: 1px, 0.5px; stroke: rgb(0, 0, 0); stroke-opacity: 1;"/></g><g class="trace violins" style="opacity: 1;"><path class="violin" d="M86.14,188.62Q86.14,188.16 86.14,187.93C86.14,187.7 86.14,187.48 86.14,187.25C86.14,187.02 86.15,186.79 86.15,186.56C86.15,186.33 86.15,186.1 86.15,185.87C86.15,185.64 86.15,185.41 86.15,185.18C86.15,184.95 86.15,184.73 86.15,184.5C86.15,184.27 86.15,184.04 86.15,183.81C86.15,183.58 86.15,183.35 86.15,183.12C86.15,182.89 86.15,182.66 86.15,182.43C86.15,182.2 86.14,181.98 86.14,181.75C86.14,181.52 86.14,181.29 86.14,181.06C86.14,180.83 86.14,180.6 86.14,180.37C86.14,180.14 86.14,179.91 86.14,179.68C86.14,179.45 86.14,179.23 86.14,179C86.14,178.77 86.14,178.54 86.14,178.31C86.14,178.08 86.14,177.85 86.14,177.62C86.14,177.39 86.14,177.16 86.14,176.93C86.14,176.7 86.14,176.48 86.14,176.25C86.14,176.02 86.14,175.79 86.14,175.56C86.14,175.33 86.14,175.1 86.14,174.87C86.14,174.64 86.15,174.41 86.15,174.18C86.15,173.95 86.15,173.73 86.15,173.5C86.15,173.27 86.15,173.04 86.15,172.81C86.15,172.58 86.15,172.35 86.15,172.12C86.15,171.89 86.15,171.67 86.15,171.44C86.15,171.21 86.15,170.98 86.15,170.75C86.15,170.52 86.15,170.29 86.15,170.06C86.15,169.83 86.16,169.6 86.16,169.37C86.16,169.14 86.16,168.92 86.16,168.69C86.16,168.46 86.15,168.23 86.15,168C86.15,167.77 86.15,167.54 86.15,167.31C86.15,167.08 86.15,166.85 86.15,166.62C86.15,166.39 86.15,166.17 86.15,165.94C86.15,165.71 86.15,165.48 86.15,165.25C86.15,165.02 86.15,164.79 86.15,164.56C86.15,164.33 86.15,164.1 86.15,163.87C86.15,163.64 86.15,163.42 86.15,163.19C86.15,162.96 86.15,162.73 86.15,162.5C86.15,162.27 86.15,162.04 86.15,161.81C86.15,161.58 86.16,161.35 86.16,161.12C86.16,160.89 86.16,160.67 86.16,160.44C86.16,160.21 86.16,159.98 86.16,159.75C86.16,159.52 86.17,159.29 86.17,159.06C86.17,158.83 86.17,158.6 86.17,158.37C86.17,158.14 86.17,157.92 86.17,157.69C86.17,157.46 86.17,157.23 86.17,157C86.17,156.77 86.17,156.54 86.17,156.31C86.17,156.08 86.18,155.85 86.18,155.62C86.18,155.39 86.18,155.17 86.18,154.94C86.18,154.71 86.19,154.48 86.19,154.25C86.19,154.02 86.19,153.79 86.19,153.56C86.19,153.33 86.19,153.1 86.19,152.87C86.19,152.64 86.19,152.42 86.19,152.19C86.19,151.96 86.19,151.73 86.19,151.5C86.19,151.27 86.19,151.04 86.19,150.81C86.19,150.58 86.19,150.35 86.19,150.12C86.19,149.89 86.19,149.67 86.19,149.44C86.19,149.21 86.19,148.98 86.19,148.75C86.19,148.52 86.18,148.29 86.18,148.06C86.18,147.83 86.18,147.6 86.18,147.37C86.18,147.14 86.18,146.92 86.18,146.69C86.18,146.46 86.18,146.23 86.18,146C86.18,145.77 86.18,145.54 86.18,145.31C86.18,145.08 86.18,144.85 86.18,144.62C86.18,144.39 86.18,144.17 86.18,143.94C86.18,143.71 86.18,143.48 86.18,143.25C86.18,143.02 86.18,142.79 86.18,142.56C86.18,142.33 86.19,142.1 86.19,141.87C86.19,141.64 86.2,141.42 86.2,141.19C86.2,140.96 86.2,140.73 86.2,140.5C86.2,140.27 86.21,140.04 86.21,139.81C86.21,139.58 86.21,139.35 86.21,139.12C86.21,138.89 86.21,138.67 86.21,138.44C86.21,138.21 86.21,137.98 86.21,137.75C86.21,137.52 86.21,137.29 86.21,137.06C86.21,136.83 86.21,136.6 86.21,136.37C86.21,136.14 86.21,135.92 86.21,135.69C86.21,135.46 86.21,135.23 86.21,135C86.21,134.77 86.22,134.54 86.22,134.31C86.22,134.08 86.22,133.85 86.22,133.62C86.22,133.39 86.23,133.17 86.23,132.94C86.23,132.71 86.23,132.48 86.23,132.25C86.23,132.02 86.24,131.79 86.24,131.56C86.24,131.33 86.24,131.1 86.24,130.87C86.24,130.64 86.25,130.42 86.25,130.19C86.25,129.96 86.26,129.73 86.26,129.5C86.26,129.27 86.27,129.04 86.27,128.81C86.27,128.58 86.27,128.35 86.27,128.12C86.27,127.89 86.28,127.67 86.28,127.44C86.28,127.21 86.29,126.98 86.29,126.75C86.29,126.52 86.29,126.29 86.29,126.06C86.29,125.83 86.29,125.6 86.29,125.37C86.29,125.14 86.28,124.92 86.28,124.69C86.28,124.46 86.27,124.23 86.27,124C86.27,123.77 86.27,123.54 86.27,123.31C86.27,123.08 86.26,122.85 86.26,122.62C86.26,122.39 86.25,122.17 86.25,121.94C86.25,121.71 86.24,121.48 86.24,121.25C86.24,121.02 86.24,120.79 86.24,120.56C86.24,120.33 86.24,120.1 86.24,119.87C86.24,119.64 86.24,119.42 86.24,119.19C86.24,118.96 86.24,118.73 86.24,118.5C86.24,118.27 86.24,118.04 86.24,117.81C86.24,117.58 86.23,117.35 86.23,117.12C86.23,116.89 86.23,116.67 86.23,116.44C86.23,116.21 86.23,115.98 86.23,115.75C86.23,115.52 86.23,115.29 86.23,115.06C86.23,114.83 86.22,114.6 86.22,114.37C86.22,114.14 86.23,113.92 86.23,113.69C86.23,113.46 86.23,113.23 86.23,113C86.23,112.77 86.23,112.54 86.23,112.31C86.23,112.08 86.24,111.85 86.24,111.62C86.24,111.39 86.25,111.17 86.25,110.94C86.26,110.71 86.26,110.48 86.27,110.25C86.27,110.02 86.28,109.79 86.28,109.56C86.28,109.33 86.28,109.1 86.29,108.87C86.29,108.64 86.31,108.42 86.31,108.19C86.32,107.96 86.32,107.73 86.32,107.5C86.32,107.27 86.33,107.04 86.33,106.81C86.33,106.58 86.34,106.35 86.34,106.12C86.34,105.89 86.35,105.67 86.35,105.44C86.35,105.21 86.36,104.98 86.36,104.75C86.36,104.52 86.37,104.29 86.37,104.06C86.37,103.83 86.38,103.6 86.38,103.37C86.38,103.14 86.38,102.92 86.38,102.69C86.38,102.46 86.39,102.23 86.39,102C86.39,101.77 86.39,101.54 86.39,101.31C86.39,101.08 86.38,100.85 86.38,100.62C86.38,100.39 86.38,100.17 86.38,99.94C86.38,99.71 86.38,99.48 86.38,99.25C86.38,99.02 86.37,98.79 86.37,98.56C86.37,98.33 86.37,98.1 86.37,97.87C86.37,97.64 86.37,97.42 86.37,97.19C86.37,96.96 86.36,96.73 86.36,96.5C86.36,96.27 86.36,96.04 86.36,95.81C86.36,95.58 86.36,95.35 86.36,95.12C86.36,94.89 86.37,94.67 86.37,94.44C86.37,94.21 86.37,93.98 86.37,93.75C86.37,93.52 86.37,93.29 86.37,93.06C86.37,92.83 86.38,92.6 86.38,92.37C86.38,92.14 86.39,91.92 86.39,91.69C86.39,91.46 86.4,91.23 86.4,91C86.4,90.77 86.41,90.54 86.41,90.31C86.41,90.08 86.42,89.85 86.42,89.62C86.42,89.39 86.43,89.17 86.43,88.94C86.44,88.71 86.44,88.48 86.45,88.25C86.45,88.02 86.46,87.79 86.46,87.56C86.47,87.33 86.47,87.1 86.48,86.87C86.48,86.64 86.49,86.42 86.49,86.19C86.5,85.96 86.5,85.73 86.51,85.5C86.51,85.27 86.52,85.04 86.52,84.81C86.52,84.58 86.53,84.35 86.53,84.12C86.53,83.89 86.54,83.67 86.54,83.44C86.54,83.21 86.54,82.98 86.54,82.75C86.54,82.52 86.55,82.29 86.55,82.06C86.55,81.83 86.55,81.6 86.55,81.37C86.55,81.14 86.56,80.92 86.56,80.69C86.56,80.46 86.56,80.23 86.56,80C86.56,79.77 86.57,79.54 86.57,79.31C86.57,79.08 86.57,78.85 86.58,78.62C86.58,78.39 86.59,78.17 86.6,77.94C86.61,77.71 86.61,77.48 86.62,77.25C86.62,77.02 86.62,76.79 86.63,76.56C86.63,76.33 86.65,76.11 86.65,75.88C86.66,75.65 86.66,75.42 86.66,75.19C86.66,74.96 86.67,74.73 86.67,74.5C86.68,74.27 86.68,74.04 86.69,73.81C86.69,73.58 86.7,73.36 86.7,73.13C86.71,72.9 86.71,72.67 86.72,72.44C86.73,72.21 86.73,71.98 86.74,71.75C86.75,71.52 86.75,71.29 86.76,71.06C86.77,70.83 86.78,70.61 86.79,70.38C86.8,70.15 86.81,69.92 86.82,69.69C86.83,69.46 86.83,69.23 86.84,69C86.85,68.77 86.85,68.54 86.86,68.31C86.87,68.08 86.88,67.86 86.89,67.63C86.9,67.4 86.91,67.17 86.92,66.94C86.93,66.71 86.94,66.48 86.95,66.25C86.96,66.02 86.97,65.79 86.99,65.56C87,65.33 87.03,65.11 87.04,64.88C87.06,64.65 87.06,64.42 87.08,64.19C87.1,63.96 87.12,63.73 87.14,63.5C87.16,63.27 87.17,63.04 87.19,62.81C87.21,62.58 87.23,62.36 87.25,62.13C87.27,61.9 87.28,61.67 87.3,61.44C87.32,61.21 87.33,60.98 87.35,60.75C87.36,60.52 87.38,60.29 87.39,60.06C87.4,59.83 87.42,59.61 87.43,59.38C87.44,59.15 87.45,58.92 87.46,58.69C87.47,58.46 87.48,58.23 87.49,58C87.5,57.77 87.51,57.54 87.53,57.31C87.54,57.08 87.56,56.86 87.58,56.63C87.6,56.4 87.62,56.17 87.64,55.94C87.66,55.71 87.69,55.48 87.71,55.25C87.74,55.02 87.76,54.79 87.79,54.56C87.81,54.33 87.84,54.11 87.86,53.88C87.88,53.65 87.91,53.42 87.93,53.19C87.95,52.96 87.97,52.73 87.99,52.5C88.01,52.27 88.02,52.04 88.04,51.81C88.06,51.58 88.08,51.36 88.1,51.13C88.12,50.9 88.15,50.67 88.17,50.44C88.2,50.21 88.22,49.98 88.25,49.75C88.28,49.52 88.31,49.29 88.35,49.06C88.38,48.83 88.42,48.61 88.46,48.38C88.5,48.15 88.54,47.92 88.59,47.69C88.64,47.46 88.69,47.23 88.74,47C88.79,46.77 88.84,46.54 88.89,46.31C88.94,46.08 89,45.86 89.06,45.63C89.12,45.4 89.17,45.17 89.23,44.94C89.29,44.71 89.34,44.48 89.4,44.25C89.46,44.02 89.52,43.79 89.58,43.56C89.64,43.33 89.7,43.11 89.76,42.88C89.82,42.65 89.87,42.42 89.93,42.19C89.99,41.96 90.06,41.73 90.12,41.5C90.18,41.27 90.24,41.04 90.3,40.81C90.36,40.58 90.43,40.36 90.49,40.13C90.55,39.9 90.62,39.67 90.68,39.44C90.74,39.21 90.81,38.98 90.87,38.75C90.93,38.52 90.99,38.29 91.06,38.06C91.12,37.83 91.19,37.61 91.26,37.38C91.33,37.15 91.41,36.92 91.48,36.69C91.56,36.46 91.63,36.23 91.71,36C91.79,35.77 91.88,35.54 91.97,35.31C92.06,35.08 92.16,34.86 92.26,34.63C92.36,34.4 92.46,34.17 92.57,33.94C92.68,33.71 92.79,33.48 92.91,33.25C93.03,33.02 93.15,32.79 93.27,32.56C93.39,32.33 93.52,32.11 93.65,31.88C93.78,31.65 93.91,31.42 94.04,31.19C94.17,30.96 94.31,30.73 94.44,30.5C94.58,30.27 94.71,30.04 94.85,29.81C94.99,29.58 95.13,29.36 95.27,29.13C95.41,28.9 95.55,28.67 95.69,28.44C95.83,28.21 95.97,27.98 96.11,27.75C96.25,27.52 96.4,27.29 96.54,27.06C96.68,26.83 96.82,26.61 96.96,26.38C97.1,26.15 97.24,25.92 97.38,25.69C97.52,25.46 97.65,25.23 97.78,25C97.91,24.77 98.04,24.54 98.16,24.31C98.28,24.08 98.4,23.86 98.51,23.63C98.62,23.4 98.71,23.17 98.81,22.94C98.9,22.71 98.99,22.48 99.08,22.25C99.16,22.02 99.24,21.79 99.32,21.56C99.4,21.33 99.48,21.11 99.55,20.88C99.62,20.65 99.69,20.42 99.76,20.19C99.83,19.96 99.89,19.73 99.95,19.5C100.01,19.27 100.06,19.04 100.1,18.81C100.14,18.58 100.17,18.36 100.19,18.13C100.21,17.9 100.21,17.67 100.21,17.44C100.21,17.21 100.19,16.98 100.16,16.75C100.13,16.52 100.09,16.29 100.04,16.06C99.99,15.83 99.93,15.61 99.85,15.38C99.77,15.15 99.68,14.92 99.58,14.69C99.48,14.46 99.36,14.23 99.23,14C99.1,13.77 98.95,13.53 98.78,13.31C98.61,13.08 98.41,12.85 98.2,12.63C97.98,12.4 97.75,12.17 97.51,11.94C97.26,11.71 96.99,11.48 96.71,11.25C96.42,11.02 96.12,10.79 95.82,10.56C95.51,10.33 95.19,10.11 94.87,9.88C94.54,9.65 94.21,9.42 93.87,9.19C93.53,8.96 93.18,8.73 92.84,8.5C92.49,8.27 92.14,8.04 91.8,7.81C91.46,7.58 91.11,7.36 90.78,7.13C90.45,6.9 90.12,6.67 89.81,6.44C89.51,6.21 89.21,5.99 88.93,5.75C88.66,5.52 88.41,5.29 88.17,5.06C87.95,4.84 87.73,4.61 87.54,4.38C87.36,4.16 87.2,3.92 87.06,3.69C86.93,3.46 86.81,3.23 86.71,3C86.61,2.77 86.54,2.54 86.47,2.31C86.41,2.08 86.36,1.86 86.32,1.63C86.28,1.4 86.25,1.17 86.23,0.94C86.21,0.71 86.2,0.48 86.19,0.25C86.18,0.02 86.17,-0.21 86.16,-0.44Q86.15,-0.67 86.15,-1.12L86.13,-1.12Q86.12,-0.67 86.12,-0.44C86.11,-0.21 86.11,0.02 86.1,0.25C86.09,0.48 86.07,0.71 86.05,0.94C86.03,1.17 86,1.4 85.96,1.63C85.92,1.86 85.88,2.08 85.82,2.31C85.76,2.54 85.68,2.77 85.58,3C85.48,3.23 85.37,3.46 85.23,3.69C85.09,3.93 84.92,4.16 84.74,4.38C84.55,4.61 84.34,4.84 84.12,5.06C83.88,5.3 83.62,5.52 83.35,5.75C83.07,5.98 82.77,6.21 82.47,6.44C82.16,6.67 81.84,6.9 81.51,7.13C81.18,7.36 80.83,7.58 80.49,7.81C80.15,8.04 79.8,8.27 79.45,8.5C79.11,8.73 78.76,8.96 78.42,9.19C78.08,9.42 77.74,9.65 77.41,9.88C77.09,10.11 76.77,10.33 76.46,10.56C76.16,10.79 75.86,11.02 75.58,11.25C75.3,11.48 75.03,11.71 74.78,11.94C74.53,12.17 74.3,12.4 74.08,12.63C73.87,12.85 73.68,13.08 73.51,13.31C73.34,13.53 73.19,13.77 73.05,14C72.92,14.23 72.8,14.46 72.7,14.69C72.6,14.92 72.52,15.15 72.44,15.38C72.37,15.61 72.3,15.83 72.25,16.06C72.2,16.29 72.16,16.52 72.13,16.75C72.1,16.98 72.08,17.21 72.07,17.44C72.06,17.67 72.07,17.9 72.09,18.13C72.11,18.36 72.14,18.58 72.18,18.81C72.22,19.04 72.27,19.27 72.33,19.5C72.39,19.73 72.45,19.96 72.52,20.19C72.59,20.42 72.67,20.65 72.74,20.88C72.81,21.11 72.88,21.33 72.96,21.56C73.04,21.79 73.12,22.02 73.2,22.25C73.29,22.48 73.37,22.71 73.47,22.94C73.57,23.17 73.67,23.4 73.78,23.63C73.89,23.86 74.01,24.08 74.13,24.31C74.25,24.54 74.38,24.77 74.51,25C74.64,25.23 74.77,25.46 74.91,25.69C75.05,25.92 75.19,26.15 75.33,26.38C75.47,26.61 75.61,26.83 75.75,27.06C75.89,27.29 76.03,27.52 76.17,27.75C76.31,27.98 76.45,28.21 76.59,28.44C76.73,28.67 76.88,28.9 77.02,29.13C77.16,29.36 77.29,29.58 77.43,29.81C77.57,30.04 77.7,30.27 77.84,30.5C77.98,30.73 78.12,30.96 78.25,31.19C78.38,31.42 78.51,31.65 78.64,31.88C78.77,32.11 78.9,32.33 79.02,32.56C79.14,32.79 79.26,33.02 79.38,33.25C79.49,33.48 79.6,33.71 79.71,33.94C79.82,34.17 79.93,34.4 80.03,34.63C80.13,34.86 80.23,35.08 80.32,35.31C80.41,35.54 80.5,35.77 80.58,36C80.66,36.23 80.74,36.46 80.81,36.69C80.88,36.92 80.95,37.15 81.02,37.38C81.09,37.61 81.16,37.83 81.23,38.06C81.3,38.29 81.36,38.52 81.42,38.75C81.48,38.98 81.55,39.21 81.61,39.44C81.67,39.67 81.74,39.9 81.8,40.13C81.86,40.36 81.93,40.58 81.99,40.81C82.05,41.04 82.11,41.27 82.17,41.5C82.23,41.73 82.29,41.96 82.35,42.19C82.41,42.42 82.47,42.65 82.53,42.88C82.59,43.11 82.65,43.33 82.71,43.56C82.77,43.79 82.82,44.02 82.88,44.25C82.94,44.48 83,44.71 83.06,44.94C83.12,45.17 83.17,45.4 83.23,45.63C83.28,45.86 83.34,46.08 83.39,46.31C83.44,46.54 83.5,46.77 83.55,47C83.6,47.23 83.64,47.46 83.69,47.69C83.73,47.92 83.78,48.15 83.82,48.38C83.86,48.61 83.91,48.83 83.94,49.06C83.98,49.29 84,49.52 84.03,49.75C84.06,49.98 84.09,50.21 84.12,50.44C84.14,50.67 84.16,50.9 84.18,51.13C84.2,51.36 84.22,51.58 84.24,51.81C84.26,52.04 84.28,52.27 84.3,52.5C84.32,52.73 84.34,52.96 84.36,53.19C84.38,53.42 84.41,53.65 84.43,53.88C84.45,54.11 84.48,54.33 84.5,54.56C84.52,54.79 84.55,55.02 84.57,55.25C84.59,55.48 84.62,55.71 84.64,55.94C84.66,56.17 84.68,56.4 84.7,56.63C84.72,56.86 84.74,57.08 84.75,57.31C84.77,57.54 84.78,57.77 84.79,58C84.8,58.23 84.82,58.46 84.83,58.69C84.84,58.92 84.85,59.15 84.86,59.38C84.87,59.61 84.88,59.83 84.89,60.06C84.9,60.29 84.92,60.52 84.93,60.75C84.95,60.98 84.96,61.21 84.98,61.44C85,61.67 85.02,61.9 85.04,62.13C85.06,62.36 85.07,62.58 85.09,62.81C85.11,63.04 85.13,63.27 85.15,63.5C85.17,63.73 85.18,63.96 85.2,64.19C85.22,64.42 85.23,64.65 85.25,64.88C85.26,65.11 85.28,65.33 85.29,65.56C85.3,65.79 85.32,66.02 85.33,66.25C85.34,66.48 85.36,66.71 85.37,66.94C85.38,67.17 85.39,67.4 85.4,67.63C85.41,67.86 85.41,68.08 85.42,68.31C85.43,68.54 85.43,68.77 85.44,69C85.45,69.23 85.46,69.46 85.47,69.69C85.48,69.92 85.49,70.15 85.5,70.38C85.51,70.61 85.51,70.83 85.52,71.06C85.53,71.29 85.54,71.52 85.55,71.75C85.56,71.98 85.56,72.21 85.57,72.44C85.58,72.67 85.58,72.9 85.59,73.13C85.59,73.36 85.6,73.58 85.6,73.81C85.6,74.04 85.61,74.27 85.61,74.5C85.62,74.73 85.62,74.96 85.63,75.19C85.63,75.42 85.64,75.65 85.64,75.88C85.64,76.11 85.65,76.33 85.65,76.56C85.66,76.79 85.66,77.02 85.67,77.25C85.68,77.48 85.68,77.71 85.69,77.94C85.69,78.17 85.7,78.39 85.7,78.62C85.71,78.85 85.72,79.08 85.72,79.31C85.72,79.54 85.72,79.77 85.72,80C85.72,80.23 85.73,80.46 85.73,80.69C85.73,80.92 85.73,81.14 85.73,81.37C85.73,81.6 85.74,81.83 85.74,82.06C85.74,82.29 85.74,82.52 85.74,82.75C85.74,82.98 85.75,83.21 85.75,83.44C85.75,83.67 85.76,83.89 85.76,84.12C85.76,84.35 85.77,84.58 85.77,84.81C85.77,85.04 85.78,85.27 85.78,85.5C85.78,85.73 85.78,85.96 85.79,86.19C85.79,86.42 85.81,86.64 85.81,86.87C85.82,87.1 85.82,87.33 85.82,87.56C85.83,87.79 85.83,88.02 85.84,88.25C85.84,88.48 85.84,88.71 85.85,88.94C85.85,89.17 85.87,89.39 85.87,89.62C85.88,89.85 85.88,90.08 85.88,90.31C85.88,90.54 85.89,90.77 85.89,91C85.89,91.23 85.9,91.46 85.9,91.69C85.9,91.92 85.91,92.14 85.91,92.37C85.91,92.6 85.91,92.83 85.91,93.06C85.91,93.29 85.92,93.52 85.92,93.75C85.92,93.98 85.92,94.21 85.92,94.44C85.92,94.67 85.92,94.89 85.92,95.12C85.92,95.35 85.92,95.58 85.92,95.81C85.92,96.04 85.92,96.27 85.92,96.5C85.92,96.73 85.92,96.96 85.92,97.19C85.92,97.42 85.92,97.64 85.92,97.87C85.92,98.1 85.91,98.33 85.91,98.56C85.91,98.79 85.91,99.02 85.91,99.25C85.91,99.48 85.9,99.71 85.9,99.94C85.9,100.17 85.9,100.39 85.9,100.62C85.9,100.85 85.9,101.08 85.9,101.31C85.9,101.54 85.9,101.77 85.9,102C85.9,102.23 85.9,102.46 85.9,102.69C85.9,102.92 85.91,103.14 85.91,103.37C85.91,103.6 85.92,103.83 85.92,104.06C85.92,104.29 85.93,104.52 85.93,104.75C85.93,104.98 85.94,105.21 85.94,105.44C85.94,105.67 85.95,105.89 85.95,106.12C85.95,106.35 85.96,106.58 85.96,106.81C85.96,107.04 85.97,107.27 85.97,107.5C85.97,107.73 85.98,107.96 85.98,108.19C85.98,108.42 85.99,108.64 85.99,108.87C86,109.1 86,109.33 86.01,109.56C86.01,109.79 86.02,110.02 86.02,110.25C86.02,110.48 86.03,110.71 86.03,110.94C86.03,111.17 86.04,111.39 86.04,111.62C86.04,111.85 86.05,112.08 86.05,112.31C86.05,112.54 86.06,112.77 86.06,113C86.06,113.23 86.06,113.46 86.06,113.69C86.06,113.92 86.06,114.14 86.06,114.37C86.06,114.6 86.06,114.83 86.06,115.06C86.06,115.29 86.06,115.52 86.06,115.75C86.06,115.98 86.05,116.21 86.05,116.44C86.05,116.67 86.05,116.89 86.05,117.12C86.05,117.35 86.05,117.58 86.05,117.81C86.05,118.04 86.05,118.27 86.05,118.5C86.05,118.73 86.05,118.96 86.05,119.19C86.05,119.42 86.05,119.64 86.05,119.87C86.05,120.1 86.04,120.33 86.04,120.56C86.04,120.79 86.04,121.02 86.04,121.25C86.04,121.48 86.04,121.71 86.04,121.94C86.04,122.17 86.03,122.39 86.03,122.62C86.03,122.85 86.02,123.08 86.02,123.31C86.02,123.54 86.01,123.77 86.01,124C86.01,124.23 86,124.46 86,124.69C86,124.92 86,125.14 86,125.37C86,125.6 86,125.83 86,126.06C86,126.29 86,126.52 86,126.75C86,126.98 86,127.21 86,127.44C86,127.67 86.01,127.89 86.01,128.12C86.01,128.35 86.02,128.58 86.02,128.81C86.02,129.04 86.03,129.27 86.03,129.5C86.03,129.73 86.04,129.96 86.04,130.19C86.04,130.42 86.05,130.64 86.05,130.87C86.05,131.1 86.05,131.33 86.05,131.56C86.05,131.79 86.05,132.02 86.05,132.25C86.05,132.48 86.06,132.71 86.06,132.94C86.06,133.17 86.06,133.39 86.06,133.62C86.06,133.85 86.07,134.08 86.07,134.31C86.07,134.54 86.07,134.77 86.07,135C86.07,135.23 86.07,135.46 86.07,135.69C86.07,135.92 86.08,136.14 86.08,136.37C86.08,136.6 86.08,136.83 86.08,137.06C86.08,137.29 86.08,137.52 86.08,137.75C86.08,137.98 86.08,138.21 86.08,138.44C86.08,138.67 86.08,138.89 86.08,139.12C86.08,139.35 86.08,139.58 86.08,139.81C86.08,140.04 86.08,140.27 86.08,140.5C86.08,140.73 86.09,140.96 86.09,141.19C86.09,141.42 86.1,141.64 86.1,141.87C86.1,142.1 86.1,142.33 86.1,142.56C86.1,142.79 86.11,143.02 86.11,143.25C86.11,143.48 86.11,143.71 86.11,143.94C86.11,144.17 86.11,144.39 86.11,144.62C86.11,144.85 86.11,145.08 86.11,145.31C86.11,145.54 86.1,145.77 86.1,146C86.1,146.23 86.1,146.46 86.1,146.69C86.1,146.92 86.1,147.14 86.1,147.37C86.1,147.6 86.1,147.83 86.1,148.06C86.1,148.29 86.1,148.52 86.1,148.75C86.1,148.98 86.1,149.21 86.1,149.44C86.1,149.67 86.1,149.89 86.1,150.12C86.1,150.35 86.09,150.58 86.09,150.81C86.09,151.04 86.09,151.27 86.09,151.5C86.09,151.73 86.09,151.96 86.09,152.19C86.09,152.42 86.09,152.64 86.09,152.87C86.09,153.1 86.1,153.33 86.1,153.56C86.1,153.79 86.1,154.02 86.1,154.25C86.1,154.48 86.1,154.71 86.1,154.94C86.1,155.17 86.11,155.39 86.11,155.62C86.11,155.85 86.11,156.08 86.11,156.31C86.11,156.54 86.11,156.77 86.11,157C86.11,157.23 86.12,157.46 86.12,157.69C86.12,157.92 86.12,158.14 86.12,158.37C86.12,158.6 86.12,158.83 86.12,159.06C86.12,159.29 86.12,159.52 86.12,159.75C86.12,159.98 86.13,160.21 86.13,160.44C86.13,160.67 86.13,160.89 86.13,161.12C86.13,161.35 86.13,161.58 86.13,161.81C86.13,162.04 86.13,162.27 86.13,162.5C86.13,162.73 86.14,162.96 86.14,163.19C86.14,163.42 86.14,163.64 86.14,163.87C86.14,164.1 86.14,164.33 86.14,164.56C86.14,164.79 86.14,165.02 86.14,165.25C86.14,165.48 86.13,165.71 86.13,165.94C86.13,166.17 86.13,166.39 86.13,166.62C86.13,166.85 86.13,167.08 86.13,167.31C86.13,167.54 86.13,167.77 86.13,168C86.13,168.23 86.13,168.46 86.13,168.69C86.13,168.92 86.13,169.14 86.13,169.37C86.13,169.6 86.13,169.83 86.13,170.06C86.13,170.29 86.13,170.52 86.13,170.75C86.13,170.98 86.13,171.21 86.13,171.44C86.13,171.67 86.14,171.89 86.14,172.12C86.14,172.35 86.14,172.58 86.14,172.81C86.14,173.04 86.14,173.27 86.14,173.5C86.14,173.73 86.14,173.95 86.14,174.18C86.14,174.41 86.14,174.64 86.14,174.87C86.14,175.1 86.14,175.33 86.14,175.56C86.14,175.79 86.14,176.02 86.14,176.25C86.14,176.48 86.14,176.7 86.14,176.93C86.14,177.16 86.14,177.39 86.14,177.62C86.14,177.85 86.14,178.08 86.14,178.31C86.14,178.54 86.14,178.77 86.14,179C86.14,179.23 86.14,179.45 86.14,179.68C86.14,179.91 86.14,180.14 86.14,180.37C86.14,180.6 86.14,180.83 86.14,181.06C86.14,181.29 86.14,181.52 86.14,181.75C86.14,181.98 86.14,182.2 86.14,182.43C86.14,182.66 86.14,182.89 86.14,183.12C86.14,183.35 86.14,183.58 86.14,183.81C86.14,184.04 86.14,184.27 86.14,184.5C86.14,184.73 86.14,184.95 86.14,185.18C86.14,185.41 86.14,185.64 86.14,185.87C86.14,186.1 86.14,186.33 86.14,186.56C86.14,186.79 86.14,187.02 86.14,187.25C86.14,187.48 86.14,187.7 86.14,187.93Q86.14,188.16 86.14,188.62Z" style="vector-effect: none; stroke-width: 0.5px; stroke: rgb(0, 0, 0); stroke-opacity: 1; fill: rgb(236, 154, 86); fill-opacity: 1;"/><path class="meanline" d="M95.62276458740234,28.55H76.65723541259766" style="fill: none; vector-effect: none; stroke-width: 0.5px; stroke-dasharray: 1px, 0.5px; stroke: rgb(0, 0, 0); stroke-opacity: 1;"/></g><g class="trace violins" style="opacity: 1;"><path class="violin" d="M143.62,94.14Q143.64,92.75 143.66,92.06C143.68,91.37 143.7,90.67 143.72,89.98C143.74,89.29 143.76,88.59 143.78,87.9C143.8,87.21 143.83,86.51 143.85,85.82C143.87,85.13 143.9,84.43 143.91,83.74C143.92,83.05 143.93,82.35 143.93,81.66C143.93,80.97 143.93,80.27 143.92,79.58C143.91,78.89 143.9,78.19 143.88,77.5C143.86,76.81 143.84,76.11 143.82,75.42C143.8,74.73 143.79,74.03 143.78,73.34C143.77,72.65 143.78,71.95 143.78,71.26C143.78,70.57 143.79,69.87 143.81,69.18C143.83,68.49 143.86,67.79 143.9,67.1C143.94,66.41 143.99,65.71 144.05,65.02C144.11,64.33 144.17,63.63 144.25,62.94C144.33,62.25 144.42,61.55 144.52,60.86C144.62,60.17 144.73,59.47 144.86,58.78C144.99,58.09 145.13,57.39 145.29,56.7C145.45,56.01 145.62,55.31 145.81,54.62C146,53.92 146.2,53.23 146.41,52.54C146.62,51.85 146.84,51.15 147.06,50.46C147.28,49.77 147.5,49.07 147.71,48.38C147.92,47.69 148.12,47 148.3,46.3C148.48,45.61 148.66,44.91 148.81,44.21C148.96,43.52 149.09,42.82 149.21,42.13C149.33,41.44 149.43,40.74 149.53,40.05C149.63,39.36 149.72,38.66 149.83,37.97C149.94,37.28 150.04,36.58 150.17,35.89C150.3,35.19 150.45,34.5 150.63,33.81C150.81,33.11 151.02,32.42 151.25,31.73C151.49,31.03 151.76,30.34 152.04,29.65C152.33,28.95 152.64,28.26 152.97,27.57C153.3,26.87 153.66,26.18 154.02,25.49C154.38,24.79 154.77,24.1 155.14,23.41C155.51,22.72 155.89,22.03 156.23,21.33C156.56,20.64 156.9,19.95 157.14,19.25C157.37,18.57 157.58,17.87 157.64,17.17C157.7,16.48 157.69,15.77 157.53,15.09C157.37,14.38 157.05,13.68 156.66,13.01C156.24,12.29 155.65,11.6 155.06,10.93C154.43,10.21 153.68,9.54 152.96,8.85C152.22,8.15 151.42,7.47 150.67,6.77C149.93,6.08 149.18,5.4 148.51,4.69C147.87,4.01 147.26,3.32 146.74,2.61C146.24,1.93 145.79,1.24 145.43,0.53C145.08,-0.15 144.81,-0.85 144.58,-1.55C144.36,-2.24 144.2,-2.93 144.07,-3.63Q143.94,-4.32 143.8,-5.71L143.35,-5.71Q143.21,-4.32 143.08,-3.63C142.95,-2.93 142.79,-2.23 142.57,-1.55C142.34,-0.85 142.06,-0.15 141.71,0.53C141.34,1.24 140.9,1.93 140.4,2.61C139.88,3.32 139.27,4.01 138.63,4.69C137.96,5.4 137.21,6.08 136.48,6.77C135.73,7.47 134.93,8.15 134.19,8.85C133.47,9.54 132.71,10.21 132.08,10.93C131.49,11.6 130.91,12.29 130.49,13.01C130.1,13.68 129.78,14.38 129.62,15.09C129.46,15.77 129.44,16.48 129.5,17.17C129.56,17.87 129.78,18.57 130.01,19.25C130.25,19.95 130.58,20.64 130.91,21.33C131.24,22.03 131.63,22.72 132,23.41C132.37,24.1 132.76,24.79 133.12,25.49C133.48,26.18 133.84,26.87 134.17,27.57C134.5,28.26 134.82,28.95 135.11,29.65C135.39,30.34 135.66,31.03 135.89,31.73C136.12,32.42 136.33,33.11 136.51,33.81C136.69,34.5 136.84,35.19 136.97,35.89C137.1,36.58 137.2,37.28 137.31,37.97C137.42,38.66 137.51,39.36 137.61,40.05C137.71,40.74 137.81,41.44 137.93,42.13C138.05,42.82 138.19,43.52 138.34,44.21C138.49,44.91 138.66,45.61 138.84,46.3C139.02,47 139.23,47.69 139.44,48.38C139.65,49.07 139.87,49.77 140.08,50.46C140.3,51.15 140.52,51.85 140.73,52.54C140.94,53.23 141.14,53.93 141.33,54.62C141.52,55.31 141.7,56 141.86,56.7C142.02,57.39 142.15,58.09 142.28,58.78C142.41,59.47 142.53,60.17 142.63,60.86C142.73,61.55 142.81,62.25 142.89,62.94C142.97,63.63 143.03,64.33 143.09,65.02C143.15,65.71 143.2,66.41 143.24,67.1C143.28,67.79 143.31,68.49 143.33,69.18C143.35,69.87 143.37,70.57 143.37,71.26C143.37,71.95 143.37,72.65 143.36,73.34C143.35,74.03 143.33,74.73 143.32,75.42C143.3,76.11 143.29,76.81 143.27,77.5C143.26,78.19 143.24,78.89 143.23,79.58C143.22,80.27 143.21,80.97 143.21,81.66C143.21,82.35 143.23,83.05 143.24,83.74C143.25,84.43 143.27,85.13 143.29,85.82C143.31,86.51 143.34,87.21 143.36,87.9C143.38,88.59 143.41,89.29 143.43,89.98C143.45,90.67 143.46,91.37 143.48,92.06Q143.49,92.75 143.52,94.14Z" style="vector-effect: none; stroke-width: 0.5px; stroke: rgb(0, 0, 0); stroke-opacity: 1; fill: rgb(155, 191, 229); fill-opacity: 1;"/><path class="meanline" d="M153.90565490722656,25.71H133.23434509277342" style="fill: none; vector-effect: none; stroke-width: 0.5px; stroke-dasharray: 1px, 0.5px; stroke: rgb(0, 0, 0); stroke-opacity: 1;"/></g><g class="trace violins" style="opacity: 1;"><path class="violin" d="M201.05,78.29Q201.07,77.35 201.09,76.88C201.11,76.41 201.13,75.94 201.15,75.47C201.18,75 201.21,74.52 201.24,74.05C201.27,73.58 201.31,73.11 201.34,72.64C201.37,72.17 201.41,71.7 201.44,71.23C201.47,70.76 201.49,70.29 201.51,69.82C201.53,69.35 201.54,68.87 201.54,68.4C201.54,67.93 201.54,67.46 201.53,66.99C201.52,66.52 201.5,66.05 201.48,65.58C201.46,65.11 201.45,64.64 201.43,64.17C201.41,63.7 201.39,63.22 201.38,62.75C201.37,62.28 201.36,61.81 201.36,61.34C201.36,60.87 201.36,60.4 201.36,59.93C201.36,59.46 201.37,58.99 201.38,58.52C201.39,58.05 201.4,57.57 201.41,57.1C201.42,56.63 201.44,56.16 201.46,55.69C201.48,55.22 201.51,54.75 201.55,54.28C201.59,53.81 201.63,53.34 201.68,52.87C201.73,52.4 201.8,51.92 201.86,51.45C201.92,50.98 201.99,50.51 202.06,50.04C202.13,49.57 202.2,49.1 202.27,48.63C202.34,48.16 202.4,47.69 202.47,47.22C202.54,46.75 202.6,46.28 202.67,45.81C202.74,45.34 202.8,44.86 202.88,44.39C202.97,43.92 203.06,43.45 203.18,42.98C203.31,42.51 203.45,42.03 203.63,41.57C203.81,41.09 204.03,40.62 204.28,40.16C204.54,39.68 204.83,39.2 205.15,38.74C205.48,38.26 205.86,37.79 206.24,37.33C206.63,36.85 207.05,36.39 207.47,35.92C207.89,35.45 208.34,34.98 208.77,34.51C209.19,34.04 209.62,33.57 210.01,33.09C210.39,32.62 210.77,32.16 211.11,31.68C211.43,31.22 211.73,30.75 212,30.27C212.26,29.81 212.5,29.34 212.7,28.86C212.9,28.39 213.06,27.92 213.22,27.44C213.37,26.97 213.5,26.5 213.63,26.03C213.76,25.56 213.87,25.09 213.99,24.62C214.11,24.15 214.22,23.68 214.33,23.21C214.44,22.74 214.54,22.26 214.64,21.79C214.73,21.32 214.83,20.85 214.9,20.38C214.97,19.91 215.04,19.44 215.07,18.97C215.1,18.5 215.11,18.03 215.07,17.56C215.03,17.09 214.95,16.61 214.83,16.14C214.7,15.66 214.53,15.19 214.31,14.73C214.08,14.25 213.8,13.78 213.48,13.32C213.15,12.84 212.76,12.37 212.35,11.91C211.92,11.43 211.45,10.95 210.97,10.49C210.47,10.01 209.93,9.55 209.39,9.08C208.84,8.61 208.27,8.14 207.72,7.67C207.17,7.2 206.61,6.74 206.08,6.26C205.57,5.79 205.05,5.32 204.59,4.84C204.15,4.38 203.73,3.91 203.36,3.43C203.01,2.97 202.69,2.5 202.43,2.02C202.18,1.56 201.97,1.09 201.8,0.61C201.63,0.14 201.51,-0.33 201.41,-0.81Q201.31,-1.28 201.19,-2.22L200.81,-2.22Q200.69,-1.28 200.59,-0.81C200.49,-0.33 200.37,0.14 200.2,0.61C200.03,1.09 199.82,1.56 199.57,2.02C199.31,2.5 198.99,2.97 198.64,3.43C198.27,3.91 197.85,4.38 197.41,4.84C196.95,5.32 196.43,5.79 195.92,6.26C195.39,6.74 194.83,7.2 194.28,7.67C193.73,8.14 193.16,8.61 192.61,9.08C192.07,9.55 191.53,10.01 191.03,10.49C190.55,10.95 190.08,11.43 189.65,11.91C189.24,12.37 188.85,12.84 188.52,13.32C188.2,13.78 187.92,14.25 187.69,14.73C187.47,15.19 187.3,15.66 187.17,16.14C187.05,16.61 186.97,17.09 186.93,17.56C186.89,18.03 186.9,18.5 186.93,18.97C186.96,19.44 187.03,19.91 187.1,20.38C187.17,20.85 187.27,21.32 187.36,21.79C187.46,22.26 187.56,22.74 187.67,23.21C187.78,23.68 187.89,24.15 188.01,24.62C188.13,25.09 188.24,25.56 188.37,26.03C188.5,26.5 188.63,26.97 188.78,27.44C188.94,27.92 189.1,28.39 189.3,28.86C189.5,29.34 189.74,29.81 190,30.27C190.27,30.75 190.57,31.22 190.89,31.68C191.23,32.16 191.61,32.62 191.99,33.09C192.38,33.57 192.81,34.04 193.23,34.51C193.66,34.98 194.11,35.45 194.53,35.92C194.95,36.39 195.37,36.85 195.76,37.33C196.14,37.79 196.52,38.26 196.85,38.74C197.17,39.2 197.46,39.68 197.72,40.16C197.97,40.62 198.19,41.09 198.37,41.57C198.55,42.03 198.69,42.51 198.82,42.98C198.94,43.45 199.03,43.92 199.12,44.39C199.2,44.86 199.26,45.34 199.33,45.81C199.4,46.28 199.46,46.75 199.53,47.22C199.6,47.69 199.66,48.16 199.73,48.63C199.8,49.1 199.87,49.57 199.94,50.04C200.01,50.51 200.08,50.98 200.14,51.45C200.2,51.92 200.27,52.4 200.32,52.87C200.37,53.34 200.41,53.81 200.45,54.28C200.49,54.75 200.52,55.22 200.54,55.69C200.56,56.16 200.58,56.63 200.59,57.1C200.6,57.57 200.61,58.05 200.62,58.52C200.63,58.99 200.64,59.46 200.64,59.93C200.64,60.4 200.64,60.87 200.64,61.34C200.64,61.81 200.63,62.28 200.62,62.75C200.61,63.22 200.59,63.7 200.57,64.17C200.55,64.64 200.54,65.11 200.52,65.58C200.5,66.05 200.48,66.52 200.47,66.99C200.46,67.46 200.46,67.93 200.46,68.4C200.46,68.87 200.47,69.35 200.49,69.82C200.51,70.29 200.53,70.76 200.56,71.23C200.59,71.7 200.63,72.17 200.66,72.64C200.69,73.11 200.73,73.58 200.76,74.05C200.79,74.52 200.82,75 200.85,75.47C200.87,75.94 200.89,76.41 200.91,76.88Q200.93,77.35 200.95,78.29Z" style="vector-effect: none; stroke-width: 0.5px; stroke: rgb(0, 0, 0); stroke-opacity: 1; fill: rgb(138, 165, 61); fill-opacity: 1;"/><path class="meanline" d="M214.24790954589844,23.56H187.75209045410156" style="fill: none; vector-effect: none; stroke-width: 0.5px; stroke-dasharray: 1px, 0.5px; stroke: rgb(0, 0, 0); stroke-opacity: 1;"/></g><g class="trace violins" style="opacity: 1;"><path class="violin" d="M258.45,119.46Q258.46,118.76 258.47,118.41C258.48,118.06 258.48,117.71 258.49,117.36C258.5,117.01 258.51,116.67 258.52,116.32C258.53,115.97 258.54,115.62 258.55,115.27C258.56,114.92 258.56,114.57 258.57,114.22C258.57,113.87 258.58,113.53 258.58,113.18C258.58,112.83 258.57,112.48 258.57,112.13C258.56,111.78 258.56,111.43 258.55,111.08C258.54,110.73 258.53,110.39 258.52,110.04C258.51,109.69 258.5,109.34 258.49,108.99C258.48,108.64 258.48,108.29 258.47,107.94C258.46,107.59 258.45,107.25 258.45,106.9C258.44,106.55 258.44,106.2 258.44,105.85C258.44,105.5 258.43,105.16 258.43,104.81C258.43,104.46 258.43,104.11 258.43,103.76C258.43,103.41 258.43,103.06 258.43,102.71C258.43,102.36 258.43,102.02 258.43,101.67C258.43,101.32 258.44,100.97 258.44,100.62C258.44,100.27 258.44,99.92 258.45,99.57C258.45,99.22 258.46,98.88 258.47,98.53C258.48,98.18 258.48,97.83 258.49,97.48C258.5,97.13 258.51,96.78 258.52,96.43C258.53,96.08 258.54,95.74 258.55,95.39C258.56,95.04 258.56,94.69 258.57,94.34C258.57,93.99 258.58,93.64 258.58,93.29C258.58,92.94 258.57,92.6 258.57,92.25C258.56,91.9 258.56,91.55 258.55,91.2C258.54,90.85 258.53,90.5 258.52,90.15C258.51,89.8 258.5,89.46 258.49,89.11C258.48,88.76 258.48,88.41 258.47,88.06C258.46,87.71 258.46,87.36 258.45,87.01C258.45,86.66 258.44,86.32 258.44,85.97C258.44,85.62 258.43,85.27 258.43,84.92C258.43,84.57 258.43,84.22 258.43,83.87C258.43,83.52 258.43,83.18 258.43,82.83C258.43,82.48 258.43,82.13 258.43,81.78C258.43,81.43 258.43,81.08 258.43,80.73C258.43,80.38 258.43,80.04 258.43,79.69C258.43,79.34 258.43,78.99 258.43,78.64C258.43,78.29 258.43,77.95 258.43,77.6C258.43,77.25 258.43,76.9 258.43,76.55C258.43,76.2 258.44,75.85 258.44,75.5C258.44,75.15 258.44,74.81 258.44,74.46C258.44,74.11 258.45,73.76 258.46,73.41C258.47,73.06 258.48,72.71 258.49,72.36C258.5,72.01 258.52,71.67 258.53,71.32C258.55,70.97 258.56,70.62 258.58,70.27C258.6,69.92 258.62,69.57 258.65,69.22C258.67,68.87 258.7,68.53 258.73,68.18C258.76,67.83 258.79,67.48 258.82,67.13C258.85,66.78 258.87,66.43 258.9,66.08C258.92,65.73 258.95,65.39 258.97,65.04C258.99,64.69 259.01,64.34 259.02,63.99C259.03,63.64 259.04,63.29 259.04,62.94C259.04,62.59 259.04,62.25 259.04,61.9C259.04,61.55 259.04,61.2 259.03,60.85C259.02,60.5 259.01,60.15 259,59.8C258.99,59.45 258.98,59.11 258.97,58.76C258.96,58.41 258.95,58.06 258.94,57.71C258.93,57.36 258.92,57.01 258.91,56.66C258.9,56.31 258.89,55.97 258.88,55.62C258.87,55.27 258.88,54.92 258.88,54.57C258.88,54.22 258.89,53.87 258.9,53.52C258.91,53.17 258.93,52.83 258.95,52.48C258.97,52.13 258.99,51.78 259.01,51.43C259.03,51.08 259.05,50.74 259.06,50.39C259.07,50.04 259.07,49.69 259.08,49.34C259.08,48.99 259.09,48.64 259.09,48.29C259.09,47.94 259.08,47.6 259.08,47.25C259.08,46.9 259.09,46.55 259.1,46.2C259.11,45.85 259.13,45.5 259.17,45.15C259.2,44.8 259.25,44.46 259.31,44.11C259.37,43.76 259.45,43.41 259.53,43.06C259.61,42.71 259.71,42.36 259.81,42.01C259.91,41.66 260.01,41.32 260.11,40.97C260.21,40.62 260.31,40.27 260.41,39.92C260.5,39.57 260.6,39.22 260.68,38.87C260.76,38.52 260.83,38.18 260.9,37.83C260.97,37.48 261.02,37.13 261.08,36.78C261.14,36.43 261.18,36.08 261.24,35.73C261.3,35.38 261.35,35.04 261.42,34.69C261.49,34.34 261.55,33.99 261.64,33.64C261.73,33.29 261.83,32.94 261.94,32.59C262.05,32.24 262.17,31.9 262.3,31.55C262.43,31.2 262.56,30.85 262.7,30.5C262.84,30.15 262.98,29.8 263.13,29.45C263.28,29.1 263.43,28.76 263.58,28.41C263.74,28.06 263.89,27.71 264.06,27.36C264.23,27.01 264.41,26.66 264.61,26.31C264.81,25.96 265.03,25.61 265.27,25.27C265.51,24.92 265.78,24.56 266.05,24.22C266.33,23.87 266.63,23.53 266.93,23.18C267.24,22.83 267.56,22.48 267.88,22.13C268.2,21.78 268.53,21.43 268.85,21.08C269.17,20.73 269.49,20.39 269.8,20.04C270.1,19.69 270.4,19.34 270.68,18.99C270.95,18.64 271.23,18.3 271.46,17.94C271.68,17.6 271.9,17.26 272.06,16.9C272.22,16.56 272.36,16.21 272.43,15.85C272.5,15.5 272.53,15.15 272.5,14.8C272.47,14.45 272.37,14.1 272.23,13.76C272.08,13.4 271.85,13.05 271.6,12.71C271.33,12.35 271,12 270.65,11.66C270.28,11.3 269.86,10.96 269.43,10.62C268.98,10.26 268.49,9.92 268,9.57C267.5,9.22 266.97,8.87 266.45,8.52C265.93,8.17 265.39,7.83 264.88,7.48C264.37,7.13 263.87,6.79 263.39,6.43C262.93,6.09 262.48,5.74 262.07,5.38C261.68,5.04 261.31,4.7 260.98,4.34C260.66,4 260.37,3.65 260.12,3.29C259.88,2.95 259.67,2.6 259.49,2.24C259.32,1.9 259.18,1.55 259.06,1.2C258.94,0.85 258.86,0.5 258.78,0.15C258.71,-0.2 258.65,-0.55 258.61,-0.9Q258.57,-1.25 258.52,-1.94L258.34,-1.94Q258.28,-1.25 258.24,-0.9C258.2,-0.55 258.15,-0.2 258.08,0.15C258.01,0.5 257.92,0.85 257.8,1.2C257.68,1.55 257.53,1.9 257.36,2.24C257.18,2.6 256.98,2.95 256.74,3.29C256.49,3.65 256.2,4 255.88,4.34C255.55,4.7 255.17,5.04 254.78,5.38C254.37,5.74 253.92,6.09 253.46,6.43C252.98,6.79 252.48,7.13 251.97,7.48C251.46,7.83 250.92,8.17 250.4,8.52C249.88,8.87 249.36,9.22 248.86,9.57C248.37,9.92 247.88,10.26 247.43,10.62C247,10.96 246.58,11.3 246.21,11.66C245.86,12 245.53,12.35 245.26,12.71C245.01,13.05 244.78,13.4 244.63,13.76C244.49,14.1 244.39,14.45 244.36,14.8C244.33,15.15 244.36,15.5 244.43,15.85C244.5,16.21 244.64,16.56 244.8,16.9C244.96,17.26 245.18,17.6 245.4,17.94C245.63,18.3 245.91,18.64 246.18,18.99C246.46,19.34 246.76,19.69 247.06,20.04C247.37,20.39 247.69,20.73 248.01,21.08C248.33,21.43 248.66,21.78 248.98,22.13C249.3,22.48 249.62,22.83 249.93,23.18C250.23,23.53 250.53,23.87 250.81,24.22C251.08,24.56 251.34,24.92 251.58,25.27C251.81,25.61 252.04,25.96 252.24,26.31C252.44,26.66 252.63,27.01 252.8,27.36C252.97,27.71 253.12,28.06 253.28,28.41C253.43,28.76 253.58,29.1 253.73,29.45C253.88,29.8 254.02,30.15 254.16,30.5C254.3,30.85 254.43,31.2 254.56,31.55C254.69,31.9 254.81,32.24 254.92,32.59C255.03,32.94 255.13,33.29 255.22,33.64C255.31,33.99 255.37,34.34 255.44,34.69C255.51,35.04 255.56,35.38 255.62,35.73C255.68,36.08 255.73,36.43 255.78,36.78C255.84,37.13 255.88,37.48 255.95,37.83C256.02,38.18 256.1,38.52 256.18,38.87C256.26,39.22 256.35,39.57 256.44,39.92C256.54,40.27 256.65,40.62 256.75,40.97C256.85,41.32 256.95,41.66 257.05,42.01C257.15,42.36 257.25,42.71 257.33,43.06C257.41,43.41 257.48,43.76 257.54,44.11C257.6,44.46 257.65,44.8 257.69,45.15C257.73,45.5 257.75,45.85 257.76,46.2C257.77,46.55 257.78,46.9 257.78,47.25C257.78,47.6 257.77,47.94 257.77,48.29C257.77,48.64 257.77,48.99 257.77,49.34C257.77,49.69 257.79,50.04 257.8,50.39C257.81,50.74 257.83,51.08 257.85,51.43C257.87,51.78 257.89,52.13 257.91,52.48C257.93,52.83 257.95,53.17 257.96,53.52C257.97,53.87 257.98,54.22 257.98,54.57C257.98,54.92 257.98,55.27 257.97,55.62C257.97,55.97 257.96,56.31 257.95,56.66C257.94,57.01 257.93,57.36 257.92,57.71C257.91,58.06 257.89,58.41 257.88,58.76C257.87,59.11 257.86,59.45 257.85,59.8C257.84,60.15 257.84,60.5 257.83,60.85C257.82,61.2 257.81,61.55 257.81,61.9C257.81,62.25 257.81,62.59 257.81,62.94C257.81,63.29 257.83,63.64 257.84,63.99C257.85,64.34 257.87,64.69 257.89,65.04C257.91,65.39 257.94,65.73 257.96,66.08C257.99,66.43 258.01,66.78 258.04,67.13C258.07,67.48 258.09,67.83 258.12,68.18C258.15,68.53 258.18,68.87 258.2,69.22C258.23,69.57 258.25,69.92 258.27,70.27C258.29,70.62 258.31,70.97 258.33,71.32C258.35,71.67 258.36,72.01 258.37,72.36C258.38,72.71 258.39,73.06 258.4,73.41C258.41,73.76 258.41,74.11 258.41,74.46C258.41,74.81 258.42,75.15 258.42,75.5C258.42,75.85 258.43,76.2 258.43,76.55C258.43,76.9 258.43,77.25 258.43,77.6C258.43,77.95 258.43,78.29 258.43,78.64C258.43,78.99 258.43,79.34 258.43,79.69C258.43,80.04 258.43,80.38 258.43,80.73C258.43,81.08 258.43,81.43 258.43,81.78C258.43,82.13 258.43,82.48 258.43,82.83C258.43,83.18 258.43,83.52 258.43,83.87C258.43,84.22 258.42,84.57 258.42,84.92C258.42,85.27 258.42,85.62 258.42,85.97C258.42,86.32 258.41,86.66 258.41,87.01C258.4,87.36 258.4,87.71 258.39,88.06C258.38,88.41 258.38,88.76 258.37,89.11C258.36,89.46 258.35,89.8 258.34,90.15C258.33,90.5 258.32,90.85 258.31,91.2C258.3,91.55 258.3,91.9 258.29,92.25C258.29,92.6 258.28,92.94 258.28,93.29C258.28,93.64 258.29,93.99 258.29,94.34C258.3,94.69 258.3,95.04 258.31,95.39C258.32,95.74 258.33,96.08 258.34,96.43C258.35,96.78 258.36,97.13 258.37,97.48C258.38,97.83 258.38,98.18 258.39,98.53C258.4,98.88 258.41,99.22 258.41,99.57C258.42,99.92 258.42,100.27 258.42,100.62C258.42,100.97 258.42,101.32 258.42,101.67C258.42,102.02 258.43,102.36 258.43,102.71C258.43,103.06 258.43,103.41 258.43,103.76C258.43,104.11 258.42,104.46 258.42,104.81C258.42,105.16 258.42,105.5 258.42,105.85C258.42,106.2 258.42,106.55 258.41,106.9C258.41,107.25 258.4,107.59 258.39,107.94C258.38,108.29 258.38,108.64 258.37,108.99C258.36,109.34 258.35,109.69 258.34,110.04C258.33,110.39 258.32,110.73 258.31,111.08C258.3,111.43 258.3,111.78 258.29,112.13C258.29,112.48 258.28,112.83 258.28,113.18C258.28,113.53 258.29,113.87 258.29,114.22C258.3,114.57 258.3,114.92 258.31,115.27C258.32,115.62 258.33,115.97 258.34,116.32C258.35,116.67 258.36,117.01 258.37,117.36C258.38,117.71 258.38,118.06 258.39,118.41Q258.4,118.76 258.41,119.46Z" style="vector-effect: none; stroke-width: 0.5px; stroke: rgb(0, 0, 0); stroke-opacity: 1; fill: rgb(186, 105, 190); fill-opacity: 1;"/><path class="meanline" d="M268.4987487792969,21.46H248.36125122070314" style="fill: none; vector-effect: none; stroke-width: 0.5px; stroke-dasharray: 1px, 0.5px; stroke: rgb(0, 0, 0); stroke-opacity: 1;"/></g><g class="trace violins" style="opacity: 1;"><path class="violin" d="M315.95,68.3Q316.01,67.52 316.04,67.13C316.08,66.74 316.11,66.35 316.16,65.96C316.21,65.57 316.27,65.18 316.33,64.79C316.39,64.4 316.45,64 316.51,63.61C316.57,63.22 316.63,62.83 316.68,62.44C316.73,62.05 316.77,61.66 316.8,61.27C316.83,60.88 316.84,60.49 316.85,60.1C316.86,59.71 316.84,59.31 316.83,58.92C316.82,58.53 316.79,58.14 316.77,57.75C316.75,57.36 316.72,56.97 316.7,56.58C316.68,56.19 316.65,55.8 316.64,55.41C316.63,55.02 316.62,54.62 316.62,54.23C316.62,53.84 316.62,53.45 316.63,53.06C316.64,52.67 316.66,52.28 316.68,51.89C316.7,51.5 316.73,51.11 316.77,50.72C316.81,50.33 316.85,49.93 316.9,49.54C316.95,49.15 317.01,48.76 317.06,48.37C317.12,47.98 317.17,47.59 317.23,47.2C317.29,46.81 317.35,46.42 317.42,46.03C317.49,45.64 317.56,45.24 317.65,44.85C317.74,44.46 317.84,44.07 317.95,43.68C318.06,43.29 318.2,42.9 318.33,42.51C318.47,42.12 318.62,41.73 318.76,41.34C318.9,40.95 319.04,40.55 319.16,40.16C319.28,39.77 319.39,39.38 319.46,38.99C319.53,38.6 319.57,38.21 319.58,37.82C319.59,37.43 319.55,37.04 319.51,36.65C319.47,36.26 319.39,35.86 319.32,35.47C319.26,35.08 319.17,34.69 319.12,34.3C319.07,33.91 319.01,33.52 319.02,33.13C319.03,32.74 319.07,32.35 319.16,31.96C319.26,31.56 319.4,31.16 319.6,30.78C319.81,30.38 320.1,29.98 320.42,29.61C320.77,29.2 321.2,28.82 321.64,28.44C322.11,28.04 322.65,27.65 323.19,27.27C323.75,26.87 324.37,26.48 324.95,26.09C325.53,25.7 326.14,25.32 326.69,24.92C327.22,24.54 327.75,24.16 328.2,23.75C328.61,23.38 329,22.99 329.28,22.58C329.53,22.21 329.74,21.8 329.85,21.4C329.95,21.02 329.97,20.62 329.93,20.23C329.89,19.84 329.75,19.44 329.6,19.06C329.45,18.66 329.23,18.28 329.01,17.89C328.78,17.49 328.52,17.1 328.26,16.71C328,16.32 327.73,15.93 327.47,15.54C327.22,15.15 326.96,14.76 326.73,14.37C326.5,13.98 326.29,13.6 326.1,13.2C325.91,12.81 325.75,12.41 325.6,12.02C325.45,11.63 325.33,11.24 325.18,10.85C325.03,10.46 324.9,10.06 324.72,9.68C324.53,9.28 324.33,8.89 324.08,8.51C323.82,8.11 323.51,7.71 323.18,7.33C322.83,6.93 322.41,6.54 322,6.16C321.57,5.76 321.1,5.38 320.65,4.99C320.2,4.6 319.74,4.22 319.31,3.82C318.9,3.43 318.49,3.04 318.13,2.64C317.8,2.26 317.49,1.87 317.23,1.47C316.99,1.09 316.78,0.7 316.61,0.3Q316.45,-0.08 316.23,-0.87L315.49,-0.87Q315.27,-0.08 315.11,0.3C314.94,0.7 314.74,1.09 314.49,1.47C314.23,1.87 313.91,2.26 313.58,2.64C313.23,3.04 312.82,3.44 312.41,3.82C311.98,4.22 311.51,4.6 311.06,4.99C310.61,5.38 310.15,5.76 309.72,6.16C309.31,6.54 308.9,6.93 308.54,7.33C308.2,7.71 307.89,8.11 307.63,8.51C307.38,8.89 307.18,9.28 307,9.68C306.82,10.06 306.69,10.46 306.54,10.85C306.39,11.24 306.27,11.63 306.12,12.02C305.96,12.41 305.8,12.81 305.61,13.2C305.42,13.59 305.21,13.98 304.98,14.37C304.75,14.76 304.49,15.15 304.24,15.54C303.98,15.93 303.71,16.32 303.45,16.71C303.2,17.1 302.94,17.49 302.71,17.89C302.49,18.28 302.26,18.66 302.11,19.06C301.96,19.44 301.83,19.84 301.79,20.23C301.75,20.62 301.77,21.02 301.87,21.4C301.98,21.8 302.19,22.21 302.44,22.58C302.72,22.99 303.11,23.38 303.52,23.75C303.96,24.16 304.49,24.54 305.02,24.92C305.57,25.32 306.19,25.7 306.77,26.09C307.35,26.48 307.96,26.87 308.52,27.27C309.06,27.65 309.6,28.03 310.08,28.44C310.52,28.82 310.94,29.2 311.29,29.61C311.61,29.99 311.9,30.38 312.11,30.78C312.31,31.16 312.46,31.56 312.56,31.96C312.65,32.34 312.68,32.74 312.69,33.13C312.7,33.52 312.65,33.91 312.6,34.3C312.55,34.69 312.47,35.08 312.4,35.47C312.33,35.86 312.24,36.26 312.2,36.65C312.16,37.04 312.13,37.43 312.14,37.82C312.15,38.21 312.18,38.6 312.25,38.99C312.32,39.38 312.43,39.77 312.55,40.16C312.67,40.55 312.82,40.95 312.96,41.34C313.1,41.73 313.26,42.12 313.39,42.51C313.52,42.9 313.65,43.29 313.76,43.68C313.87,44.07 313.97,44.46 314.06,44.85C314.15,45.24 314.22,45.64 314.29,46.03C314.36,46.42 314.42,46.81 314.48,47.2C314.54,47.59 314.6,47.98 314.66,48.37C314.72,48.76 314.77,49.15 314.82,49.54C314.87,49.93 314.9,50.33 314.94,50.72C314.98,51.11 315.01,51.5 315.04,51.89C315.06,52.28 315.08,52.67 315.09,53.06C315.1,53.45 315.1,53.84 315.1,54.23C315.1,54.62 315.08,55.02 315.07,55.41C315.06,55.8 315.04,56.19 315.02,56.58C315,56.97 314.96,57.36 314.94,57.75C314.92,58.14 314.89,58.53 314.88,58.92C314.87,59.31 314.85,59.71 314.86,60.1C314.87,60.49 314.88,60.88 314.91,61.27C314.94,61.66 314.98,62.05 315.03,62.44C315.08,62.83 315.14,63.22 315.2,63.61C315.26,64 315.33,64.4 315.39,64.79C315.45,65.18 315.5,65.57 315.55,65.96C315.6,66.35 315.64,66.74 315.68,67.13Q315.71,67.52 315.76,68.3Z" style="vector-effect: none; stroke-width: 0.5px; stroke: rgb(0, 0, 0); stroke-opacity: 1; fill: rgb(185, 178, 194); fill-opacity: 1;"/><path class="meanline" d="M329.5295715332031,22.17H302.1904284667969" style="fill: none; vector-effect: none; stroke-width: 0.5px; stroke-dasharray: 1px, 0.5px; stroke: rgb(0, 0, 0); stroke-opacity: 1;"/></g><g class="trace violins" style="opacity: 1;"><path class="violin" d="M373.35,60.22Q373.38,59.45 373.41,59.06C373.44,58.67 373.47,58.28 373.51,57.89C373.55,57.5 373.59,57.11 373.64,56.72C373.69,56.33 373.76,55.94 373.82,55.55C373.88,55.16 373.95,54.77 374.02,54.38C374.09,53.99 374.16,53.61 374.23,53.22C374.3,52.83 374.37,52.44 374.44,52.05C374.5,51.66 374.56,51.27 374.62,50.88C374.67,50.49 374.72,50.1 374.77,49.71C374.81,49.32 374.86,48.94 374.89,48.55C374.92,48.16 374.95,47.77 374.97,47.38C374.99,46.99 375,46.6 375.01,46.21C375.02,45.82 375.02,45.43 375.02,45.04C375.02,44.65 375.01,44.26 375.01,43.87C375.01,43.48 375,43.1 375.01,42.71C375.02,42.32 375.04,41.93 375.07,41.54C375.1,41.15 375.14,40.76 375.2,40.37C375.26,39.98 375.34,39.59 375.42,39.2C375.51,38.81 375.6,38.42 375.71,38.03C375.82,37.64 375.95,37.26 376.09,36.87C376.23,36.48 376.38,36.09 376.54,35.7C376.7,35.31 376.88,34.92 377.07,34.53C377.26,34.14 377.48,33.75 377.7,33.36C377.93,32.97 378.17,32.59 378.42,32.2C378.67,31.81 378.94,31.42 379.21,31.03C379.48,30.64 379.76,30.25 380.04,29.86C380.32,29.47 380.62,29.08 380.91,28.69C381.2,28.3 381.5,27.91 381.8,27.52C382.1,27.13 382.4,26.75 382.71,26.36C383.02,25.97 383.33,25.58 383.64,25.19C383.95,24.8 384.27,24.41 384.57,24.02C384.87,23.63 385.17,23.24 385.45,22.85C385.72,22.46 385.99,22.08 386.22,21.68C386.44,21.3 386.65,20.91 386.82,20.52C386.98,20.14 387.12,19.74 387.21,19.35C387.3,18.96 387.35,18.57 387.36,18.18C387.37,17.79 387.33,17.4 387.26,17.01C387.19,16.62 387.08,16.23 386.94,15.85C386.79,15.45 386.6,15.06 386.38,14.68C386.15,14.28 385.88,13.89 385.59,13.51C385.29,13.11 384.95,12.72 384.59,12.34C384.22,11.94 383.81,11.55 383.39,11.17C382.96,10.78 382.5,10.39 382.04,10.01C381.57,9.62 381.08,9.23 380.6,8.84C380.12,8.45 379.63,8.06 379.15,7.67C378.68,7.28 378.21,6.9 377.77,6.5C377.35,6.12 376.94,5.73 376.56,5.33C376.2,4.95 375.86,4.57 375.56,4.17C375.27,3.79 375.01,3.4 374.78,3C374.56,2.62 374.38,2.23 374.22,1.83C374.07,1.45 373.95,1.05 373.84,0.66C373.74,0.28 373.66,-0.11 373.59,-0.5C373.52,-0.89 373.48,-1.28 373.44,-1.67Q373.4,-2.06 373.36,-2.84L373.21,-2.84Q373.17,-2.06 373.13,-1.67C373.09,-1.28 373.04,-0.89 372.98,-0.5C372.91,-0.11 372.84,0.28 372.74,0.66C372.63,1.05 372.51,1.44 372.35,1.83C372.19,2.23 372.01,2.62 371.79,3C371.56,3.4 371.3,3.79 371.01,4.17C370.71,4.57 370.37,4.95 370.01,5.33C369.63,5.73 369.22,6.12 368.8,6.5C368.36,6.9 367.9,7.28 367.43,7.67C366.95,8.06 366.45,8.45 365.97,8.84C365.49,9.23 365,9.62 364.53,10.01C364.07,10.39 363.61,10.78 363.18,11.17C362.76,11.55 362.35,11.94 361.98,12.34C361.62,12.72 361.28,13.11 360.98,13.51C360.69,13.89 360.42,14.28 360.19,14.68C359.97,15.06 359.78,15.45 359.63,15.85C359.49,16.23 359.38,16.62 359.31,17.01C359.24,17.4 359.21,17.79 359.22,18.18C359.23,18.57 359.28,18.96 359.37,19.35C359.46,19.74 359.59,20.14 359.75,20.52C359.91,20.91 360.13,21.3 360.35,21.68C360.58,22.08 360.86,22.46 361.13,22.85C361.41,23.24 361.71,23.63 362.01,24.02C362.31,24.41 362.62,24.8 362.93,25.19C363.24,25.58 363.55,25.97 363.86,26.36C364.17,26.75 364.48,27.13 364.78,27.52C365.08,27.91 365.38,28.3 365.67,28.69C365.96,29.08 366.25,29.47 366.53,29.86C366.81,30.25 367.1,30.64 367.37,31.03C367.64,31.42 367.9,31.81 368.15,32.2C368.4,32.59 368.64,32.97 368.87,33.36C369.09,33.75 369.31,34.14 369.5,34.53C369.69,34.92 369.86,35.31 370.03,35.7C370.19,36.09 370.35,36.48 370.49,36.87C370.63,37.26 370.75,37.64 370.86,38.03C370.97,38.42 371.06,38.81 371.15,39.2C371.23,39.59 371.31,39.98 371.37,40.37C371.43,40.76 371.47,41.15 371.5,41.54C371.53,41.93 371.55,42.32 371.56,42.71C371.57,43.1 371.56,43.48 371.56,43.87C371.56,44.26 371.56,44.65 371.56,45.04C371.56,45.43 371.55,45.82 371.56,46.21C371.57,46.6 371.58,46.99 371.6,47.38C371.62,47.77 371.65,48.16 371.68,48.55C371.71,48.94 371.76,49.32 371.8,49.71C371.85,50.1 371.89,50.49 371.95,50.88C372.01,51.27 372.08,51.66 372.14,52.05C372.21,52.44 372.27,52.83 372.34,53.22C372.41,53.61 372.48,53.99 372.55,54.38C372.62,54.77 372.69,55.16 372.75,55.55C372.81,55.94 372.88,56.33 372.93,56.72C372.98,57.11 373.02,57.5 373.06,57.89C373.1,58.28 373.13,58.67 373.16,59.06Q373.19,59.45 373.22,60.22Z" style="vector-effect: none; stroke-width: 0.5px; stroke: rgb(0, 0, 0); stroke-opacity: 1; fill: rgb(181, 174, 112); fill-opacity: 1;"/><path class="meanline" d="M386.1614685058594,21.78H360.41853149414067" style="fill: none; vector-effect: none; stroke-width: 0.5px; stroke-dasharray: 1px, 0.5px; stroke: rgb(0, 0, 0); stroke-opacity: 1;"/></g></g></g><g class="overplot"/><path class="xlines-above crisp" d="M52.5,221.25H455" style="fill: none; stroke-width: 0.5px; stroke: rgb(0, 0, 0); stroke-opacity: 1;"/><path class="ylines-above crisp" d="M52.75,20V221" style="fill: none; stroke-width: 0.5px; stroke: rgb(0, 0, 0); stroke-opacity: 1;"/><g class="overlines-above"/><g class="xaxislayer-above"><path class="xtick ticks crisp" d="M0,221.5v5" transform="translate(81.71000000000001,0)" style="stroke: rgb(68, 68, 68); stroke-opacity: 1; stroke-width: 0.5px;"/><path class="xtick ticks crisp" d="M0,221.5v5" transform="translate(139.14,0)" style="stroke: rgb(68, 68, 68); stroke-opacity: 1; stroke-width: 0.5px;"/><path class="xtick ticks crisp" d="M0,221.5v5" transform="translate(196.57,0)" style="stroke: rgb(68, 68, 68); stroke-opacity: 1; stroke-width: 0.5px;"/><path class="xtick ticks crisp" d="M0,221.5v5" transform="translate(254,0)" style="stroke: rgb(68, 68, 68); stroke-opacity: 1; stroke-width: 0.5px;"/><path class="xtick ticks crisp" d="M0,221.5v5" transform="translate(311.43,0)" style="stroke: rgb(68, 68, 68); stroke-opacity: 1; stroke-width: 0.5px;"/><path class="xtick ticks crisp" d="M0,221.5v5" transform="translate(368.86,0)" style="stroke: rgb(68, 68, 68); stroke-opacity: 1; stroke-width: 0.5px;"/><path class="xtick ticks crisp" d="M0,221.5v5" transform="translate(426.29,0)" style="stroke: rgb(68, 68, 68); stroke-opacity: 1; stroke-width: 0.5px;"/><g class="xtick"><text text-anchor="start" x="0" y="240.9" transform="translate(81.71000000000001,0) rotate(30,0,234.9)" style="font-family: Helvetica; font-size: 12px; fill: rgb(0, 0, 0); fill-opacity: 1; white-space: pre; opacity: 1;">canonical (t/d)</text></g><g class="xtick"><text text-anchor="start" x="0" y="240.9" transform="translate(139.14,0) rotate(30,0,234.9)" style="font-family: Helvetica; font-size: 12px; fill: rgb(0, 0, 0); fill-opacity: 1; white-space: pre; opacity: 1;">canonical (PISCES)</text></g><g class="xtick"><text text-anchor="start" x="0" y="240.9" transform="translate(196.57,0) rotate(30,0,234.9)" style="font-family: Helvetica; font-size: 12px; fill: rgb(0, 0, 0); fill-opacity: 1; white-space: pre; opacity: 1;">spliced</text></g><g class="xtick"><text text-anchor="start" x="0" y="240.9" transform="translate(254,0) rotate(30,0,234.9)" style="font-family: Helvetica; font-size: 12px; fill: rgb(0, 0, 0); fill-opacity: 1; white-space: pre; opacity: 1;">multimapped</text></g><g class="xtick"><text text-anchor="start" x="0" y="240.9" transform="translate(311.43,0) rotate(30,0,234.9)" style="font-family: Helvetica; font-size: 12px; fill: rgb(0, 0, 0); fill-opacity: 1; white-space: pre; opacity: 1;">cryptic</text></g><g class="xtick"><text text-anchor="start" x="0" y="240.9" transform="translate(368.86,0) rotate(30,0,234.9)" style="font-family: Helvetica; font-size: 12px; fill: rgb(0, 0, 0); fill-opacity: 1; white-space: pre; opacity: 1;">unmapped</text></g><g class="xtick"><text text-anchor="start" x="0" y="240.9" transform="translate(426.29,0) rotate(30,0,234.9)" style="font-family: Helvetica; font-size: 12px; fill: rgb(0, 0, 0); fill-opacity: 1; white-space: pre; opacity: 1;">contaminants</text></g></g><g class="yaxislayer-above"><path class="ytick ticks crisp" d="M52.5,0h-5" transform="translate(0,221)" style="stroke: rgb(68, 68, 68); stroke-opacity: 1; stroke-width: 0.5px;"/><path class="ytick ticks crisp" d="M52.5,0h-5" transform="translate(0,180.8)" style="stroke: rgb(68, 68, 68); stroke-opacity: 1; stroke-width: 0.5px;"/><path class="ytick ticks crisp" d="M52.5,0h-5" transform="translate(0,140.6)" style="stroke: rgb(68, 68, 68); stroke-opacity: 1; stroke-width: 0.5px;"/><path class="ytick ticks crisp" d="M52.5,0h-5" transform="translate(0,100.4)" style="stroke: rgb(68, 68, 68); stroke-opacity: 1; stroke-width: 0.5px;"/><path class="ytick ticks crisp" d="M52.5,0h-5" transform="translate(0,60.2)" style="stroke: rgb(68, 68, 68); stroke-opacity: 1; stroke-width: 0.5px;"/><path class="ytick ticks crisp" d="M52.5,0h-5" transform="translate(0,20)" style="stroke: rgb(68, 68, 68); stroke-opacity: 1; stroke-width: 0.5px;"/><g class="ytick"><text text-anchor="end" x="45.1" y="4.199999999999999" transform="translate(0,221)" style="font-family: Helvetica; font-size: 12px; fill: rgb(0, 0, 0); fill-opacity: 1; white-space: pre; opacity: 1;">0</text></g><g class="ytick"><text text-anchor="end" x="45.1" y="4.199999999999999" style="font-family: Helvetica; font-size: 12px; fill: rgb(0, 0, 0); fill-opacity: 1; white-space: pre; opacity: 1;" transform="translate(0,180.8)">0.2</text></g><g class="ytick"><text text-anchor="end" x="45.1" y="4.199999999999999" style="font-family: Helvetica; font-size: 12px; fill: rgb(0, 0, 0); fill-opacity: 1; white-space: pre; opacity: 1;" transform="translate(0,140.6)">0.4</text></g><g class="ytick"><text text-anchor="end" x="45.1" y="4.199999999999999" style="font-family: Helvetica; font-size: 12px; fill: rgb(0, 0, 0); fill-opacity: 1; white-space: pre; opacity: 1;" transform="translate(0,100.4)">0.6</text></g><g class="ytick"><text text-anchor="end" x="45.1" y="4.199999999999999" style="font-family: Helvetica; font-size: 12px; fill: rgb(0, 0, 0); fill-opacity: 1; white-space: pre; opacity: 1;" transform="translate(0,60.2)">0.8</text></g><g class="ytick"><text text-anchor="end" x="45.1" y="4.199999999999999" style="font-family: Helvetica; font-size: 12px; fill: rgb(0, 0, 0); fill-opacity: 1; white-space: pre; opacity: 1;" transform="translate(0,20)">1</text></g></g><g class="overaxes-above"/></g></g><g class="polarlayer"/><g class="smithlayer"/><g class="ternarylayer"/><g class="geolayer"/><g class="funnelarealayer"/><g class="pielayer"/><g class="iciclelayer"/><g class="treemaplayer"/><g class="sunburstlayer"/><g class="glimages"/><defs id="topdefs-a2bffb"><g class="clips"/></defs><g class="layer-above"><g class="imagelayer"/><g class="shapelayer"/></g><g class="infolayer"><g class="g-gtitle"/><g class="g-xtitle"/><g class="g-ytitle" transform="translate(12.4560546875,0)"><text class="ytitle" transform="rotate(-90,0.5437500000000028,120.5)" x="0.5437500000000028" y="120.5" text-anchor="middle" style="font-family: Helvetica; font-size: 14px; fill: rgb(0, 0, 0); opacity: 1; font-weight: normal; white-space: pre;">Spectral Angle</text></g></g></svg>