<svg class="main-svg" xmlns="http://www.w3.org/2000/svg" xmlns:xlink="http://www.w3.org/1999/xlink" width="500" height="300" style="" viewBox="0 0 500 300"><rect x="0" y="0" width="500" height="300" style="fill: rgb(255, 255, 255); fill-opacity: 1;"/><defs id="defs-c36204"><g class="clips"><clipPath id="clipc36204xyplot" class="plotclip"><rect width="402" height="201"/></clipPath><clipPath class="axesclip" id="clipc36204x"><rect x="53" y="0" width="402" height="300"/></clipPath><clipPath class="axesclip" id="clipc36204y"><rect x="0" y="20" width="500" height="201"/></clipPath><clipPath class="axesclip" id="clipc36204xy"><rect x="53" y="20" width="402" height="201"/></clipPath></g><g class="gradients"/><g class="patterns"/></defs><g class="bglayer"><rect class="bg" x="53" y="20" width="402" height="201" style="fill: rgb(0, 0, 0); fill-opacity: 0; stroke-width: 0;"/></g><g class="layer-below"><g class="imagelayer"/><g class="shapelayer"/></g><g class="cartesianlayer"><g class="subplot xy"><g class="layer-subplot"><g class="shapelayer"/><g class="imagelayer"/></g><g class="minor-gridlayer"><g class="x"/><g class="y"/></g><g class="gridlayer"><g class="x"/><g class="y"/></g><g class="zerolinelayer"/><path class="xlines-below"/><path class="ylines-below"/><g class="overlines-below"/><g class="xaxislayer-below"/><g class="yaxislayer-below"/><g class="overaxes-below"/><g class="plot" transform="translate(53,20)" clip-path="url(#clipc36204xyplot)"><g class="violinlayer mlayer"><g class="trace violins" style="opacity: 1;"><path class="violin" d="M28.72,198.68Q28.72,197.81 28.72,197.37C28.72,196.93 28.72,196.5 28.72,196.06C28.72,195.63 28.72,195.19 28.72,194.76C28.72,194.32 28.72,193.89 28.72,193.45C28.72,193.01 28.73,192.58 28.73,192.14C28.73,191.7 28.73,191.27 28.73,190.83C28.73,190.4 28.73,189.96 28.73,189.53C28.73,189.09 28.74,188.66 28.74,188.22C28.74,187.78 28.74,187.35 28.74,186.91C28.74,186.47 28.74,186.04 28.74,185.6C28.74,185.17 28.75,184.73 28.75,184.3C28.75,183.86 28.75,183.43 28.75,182.99C28.75,182.55 28.76,182.12 28.76,181.68C28.76,181.25 28.76,180.81 28.76,180.38C28.76,179.94 28.77,179.51 28.77,179.07C28.77,178.63 28.77,178.2 28.77,177.76C28.77,177.32 28.77,176.89 28.77,176.45C28.77,176.02 28.78,175.58 28.78,175.15C28.78,174.71 28.78,174.28 28.78,173.84C28.78,173.4 28.79,172.97 28.79,172.53C28.79,172.09 28.8,171.66 28.8,171.22C28.8,170.79 28.8,170.35 28.8,169.92C28.8,169.48 28.81,169.05 28.82,168.61C28.82,168.17 28.83,167.74 28.83,167.3C28.83,166.86 28.84,166.43 28.84,165.99C28.84,165.56 28.85,165.12 28.85,164.69C28.85,164.25 28.86,163.82 28.86,163.38C28.87,162.94 28.87,162.51 28.88,162.07C28.88,161.63 28.88,161.2 28.89,160.76C28.89,160.33 28.9,159.89 28.91,159.46C28.92,159.02 28.92,158.59 28.93,158.15C28.94,157.71 28.95,157.28 28.96,156.84C28.97,156.41 28.98,155.97 28.99,155.54C29,155.1 29,154.67 29.01,154.23C29.02,153.79 29.02,153.36 29.03,152.92C29.04,152.48 29.05,152.05 29.05,151.61C29.05,151.18 29.05,150.74 29.05,150.31C29.05,149.87 29.06,149.44 29.06,149C29.06,148.56 29.07,148.13 29.07,147.69C29.07,147.25 29.07,146.82 29.08,146.38C29.09,145.95 29.1,145.51 29.11,145.08C29.12,144.64 29.13,144.21 29.14,143.77C29.15,143.33 29.17,142.9 29.19,142.46C29.2,142.02 29.22,141.59 29.23,141.15C29.24,140.72 29.26,140.28 29.27,139.85C29.28,139.41 29.29,138.98 29.3,138.54C29.31,138.1 29.32,137.67 29.33,137.23C29.34,136.79 29.34,136.36 29.35,135.92C29.36,135.49 29.37,135.05 29.37,134.62C29.38,134.18 29.38,133.75 29.38,133.31C29.39,132.87 29.39,132.44 29.4,132C29.41,131.56 29.41,131.13 29.42,130.69C29.43,130.26 29.43,129.82 29.44,129.39C29.45,128.95 29.46,128.52 29.47,128.08C29.48,127.64 29.49,127.21 29.5,126.77C29.51,126.34 29.52,125.9 29.53,125.47C29.54,125.03 29.56,124.6 29.57,124.16C29.58,123.72 29.6,123.29 29.61,122.85C29.62,122.41 29.63,121.98 29.64,121.54C29.65,121.11 29.67,120.67 29.68,120.24C29.69,119.8 29.7,119.37 29.71,118.93C29.72,118.49 29.72,118.06 29.73,117.62C29.74,117.18 29.75,116.75 29.76,116.31C29.77,115.88 29.77,115.44 29.78,115.01C29.79,114.57 29.79,114.14 29.8,113.7C29.8,113.26 29.8,112.83 29.81,112.39C29.82,111.95 29.83,111.52 29.84,111.08C29.85,110.65 29.87,110.21 29.88,109.78C29.9,109.34 29.91,108.91 29.93,108.47C29.95,108.03 29.98,107.6 30,107.16C30.03,106.72 30.05,106.29 30.08,105.85C30.11,105.42 30.15,104.98 30.18,104.55C30.22,104.11 30.25,103.68 30.29,103.24C30.32,102.8 30.36,102.37 30.39,101.93C30.42,101.49 30.46,101.06 30.49,100.62C30.52,100.19 30.54,99.75 30.57,99.32C30.6,98.88 30.62,98.45 30.65,98.01C30.68,97.57 30.7,97.14 30.73,96.7C30.76,96.27 30.79,95.83 30.81,95.4C30.84,94.96 30.86,94.53 30.88,94.09C30.9,93.65 30.93,93.22 30.95,92.78C30.98,92.34 31,91.91 31.03,91.47C31.06,91.04 31.08,90.6 31.11,90.17C31.14,89.73 31.17,89.3 31.2,88.86C31.23,88.42 31.26,87.99 31.3,87.55C31.34,87.11 31.38,86.68 31.42,86.24C31.46,85.81 31.5,85.37 31.55,84.94C31.6,84.5 31.66,84.07 31.71,83.63C31.77,83.19 31.82,82.76 31.88,82.32C31.94,81.88 32.01,81.45 32.08,81.01C32.15,80.58 32.23,80.14 32.3,79.71C32.37,79.27 32.44,78.84 32.51,78.4C32.58,77.96 32.65,77.53 32.72,77.09C32.79,76.65 32.85,76.22 32.92,75.78C32.98,75.35 33.05,74.91 33.11,74.48C33.17,74.04 33.22,73.61 33.27,73.17C33.32,72.73 33.38,72.3 33.43,71.86C33.48,71.43 33.52,70.99 33.57,70.56C33.62,70.12 33.67,69.69 33.72,69.25C33.77,68.81 33.82,68.38 33.87,67.94C33.92,67.5 33.98,67.07 34.04,66.63C34.1,66.2 34.16,65.76 34.23,65.33C34.3,64.89 34.37,64.46 34.45,64.02C34.53,63.58 34.61,63.15 34.7,62.71C34.79,62.27 34.88,61.84 34.98,61.4C35.08,60.97 35.18,60.53 35.28,60.1C35.39,59.66 35.5,59.23 35.61,58.79C35.72,58.35 35.84,57.92 35.95,57.48C36.07,57.04 36.18,56.61 36.3,56.17C36.42,55.74 36.53,55.3 36.65,54.87C36.77,54.43 36.88,54 37,53.56C37.12,53.12 37.24,52.69 37.36,52.25C37.48,51.81 37.6,51.38 37.72,50.94C37.84,50.51 37.97,50.07 38.1,49.64C38.23,49.2 38.36,48.77 38.49,48.33C38.62,47.89 38.75,47.46 38.89,47.02C39.03,46.58 39.17,46.15 39.31,45.71C39.46,45.28 39.61,44.84 39.76,44.41C39.91,43.97 40.07,43.54 40.23,43.1C40.39,42.66 40.54,42.23 40.7,41.79C40.85,41.36 41.02,40.93 41.16,40.49C41.3,40.06 41.44,39.62 41.56,39.18C41.68,38.74 41.79,38.31 41.89,37.87C41.98,37.43 42.06,37 42.13,36.56C42.2,36.13 42.26,35.69 42.31,35.26C42.36,34.82 42.4,34.39 42.44,33.95C42.48,33.51 42.51,33.08 42.55,32.64C42.58,32.2 42.62,31.77 42.65,31.33C42.68,30.9 42.72,30.46 42.74,30.03C42.76,29.59 42.78,29.16 42.78,28.72C42.78,28.28 42.79,27.85 42.77,27.41C42.75,26.97 42.73,26.53 42.68,26.1C42.63,25.66 42.57,25.23 42.48,24.8C42.39,24.36 42.28,23.92 42.15,23.49C42.02,23.05 41.87,22.61 41.7,22.18C41.53,21.74 41.32,21.3 41.11,20.87C40.89,20.43 40.65,20 40.4,19.57C40.14,19.13 39.87,18.69 39.59,18.26C39.3,17.82 39,17.38 38.69,16.95C38.38,16.51 38.06,16.07 37.73,15.64C37.4,15.2 37.06,14.77 36.72,14.34C36.38,13.9 36.03,13.47 35.68,13.03C35.33,12.59 34.98,12.16 34.64,11.72C34.3,11.29 33.96,10.86 33.63,10.42C33.3,9.99 32.98,9.55 32.67,9.11C32.37,8.68 32.07,8.24 31.79,7.8C31.52,7.37 31.26,6.93 31.02,6.49C30.79,6.06 30.57,5.63 30.37,5.19C30.17,4.76 30,4.32 29.84,3.88C29.69,3.45 29.55,3.01 29.44,2.57C29.33,2.14 29.24,1.7 29.16,1.26C29.08,0.83 29.02,0.39 28.97,-0.04C28.92,-0.48 28.88,-0.91 28.85,-1.35C28.82,-1.79 28.8,-2.22 28.78,-2.66C28.76,-3.1 28.76,-3.53 28.75,-3.97Q28.74,-4.4 28.73,-5.27L28.7,-5.27Q28.69,-4.4 28.68,-3.97C28.67,-3.53 28.67,-3.1 28.65,-2.66C28.63,-2.22 28.61,-1.79 28.58,-1.35C28.55,-0.91 28.51,-0.48 28.46,-0.04C28.41,0.39 28.35,0.83 28.27,1.26C28.19,1.7 28.09,2.14 27.98,2.57C27.87,3.01 27.74,3.45 27.59,3.88C27.44,4.32 27.26,4.76 27.06,5.19C26.86,5.63 26.64,6.06 26.41,6.49C26.17,6.93 25.91,7.37 25.64,7.8C25.36,8.24 25.06,8.68 24.76,9.11C24.45,9.55 24.13,9.99 23.8,10.42C23.47,10.86 23.12,11.29 22.78,11.72C22.44,12.16 22.09,12.59 21.75,13.03C21.4,13.47 21.05,13.9 20.71,14.34C20.37,14.77 20.03,15.2 19.7,15.64C19.37,16.07 19.05,16.51 18.74,16.95C18.43,17.38 18.13,17.82 17.84,18.26C17.56,18.69 17.29,19.13 17.03,19.57C16.78,20 16.54,20.43 16.32,20.87C16.11,21.3 15.9,21.74 15.73,22.18C15.56,22.61 15.41,23.05 15.28,23.49C15.15,23.92 15.04,24.36 14.95,24.8C14.86,25.23 14.8,25.66 14.75,26.1C14.7,26.53 14.68,26.97 14.66,27.41C14.64,27.85 14.64,28.28 14.64,28.72C14.64,29.16 14.67,29.59 14.69,30.03C14.71,30.46 14.75,30.9 14.78,31.33C14.81,31.77 14.85,32.2 14.88,32.64C14.92,33.08 14.95,33.51 14.99,33.95C15.03,34.39 15.07,34.82 15.12,35.26C15.17,35.69 15.23,36.13 15.3,36.56C15.37,37 15.45,37.43 15.54,37.87C15.64,38.31 15.75,38.74 15.87,39.18C15.99,39.62 16.13,40.06 16.27,40.49C16.41,40.93 16.58,41.36 16.73,41.79C16.89,42.23 17.04,42.66 17.2,43.1C17.36,43.54 17.52,43.97 17.67,44.41C17.82,44.84 17.98,45.28 18.12,45.71C18.27,46.15 18.4,46.58 18.54,47.02C18.68,47.46 18.81,47.89 18.94,48.33C19.07,48.77 19.2,49.2 19.33,49.64C19.46,50.07 19.58,50.51 19.7,50.94C19.82,51.38 19.95,51.81 20.07,52.25C20.19,52.69 20.31,53.12 20.43,53.56C20.55,54 20.66,54.43 20.78,54.87C20.9,55.3 21.01,55.74 21.13,56.17C21.25,56.61 21.36,57.04 21.48,57.48C21.59,57.92 21.71,58.35 21.82,58.79C21.93,59.23 22.04,59.66 22.15,60.1C22.25,60.53 22.35,60.97 22.45,61.4C22.55,61.84 22.64,62.27 22.73,62.71C22.82,63.15 22.9,63.58 22.98,64.02C23.06,64.46 23.13,64.89 23.2,65.33C23.27,65.76 23.33,66.2 23.39,66.63C23.45,67.07 23.51,67.5 23.56,67.94C23.61,68.38 23.66,68.81 23.71,69.25C23.76,69.69 23.81,70.12 23.86,70.56C23.91,70.99 23.95,71.43 24,71.86C24.05,72.3 24.11,72.73 24.16,73.17C24.21,73.61 24.26,74.04 24.32,74.48C24.38,74.91 24.44,75.35 24.5,75.78C24.56,76.22 24.63,76.65 24.7,77.09C24.77,77.53 24.85,77.96 24.92,78.4C24.99,78.84 25.06,79.27 25.13,79.71C25.2,80.14 25.28,80.58 25.35,81.01C25.42,81.45 25.49,81.88 25.55,82.32C25.61,82.76 25.66,83.19 25.72,83.63C25.77,84.07 25.83,84.5 25.88,84.94C25.93,85.37 25.97,85.81 26.01,86.24C26.05,86.68 26.09,87.11 26.13,87.55C26.17,87.99 26.2,88.42 26.23,88.86C26.26,89.3 26.29,89.73 26.32,90.17C26.35,90.6 26.37,91.04 26.4,91.47C26.43,91.91 26.45,92.34 26.48,92.78C26.5,93.22 26.53,93.65 26.55,94.09C26.57,94.53 26.59,94.96 26.62,95.4C26.64,95.83 26.68,96.27 26.7,96.7C26.73,97.14 26.74,97.57 26.77,98.01C26.8,98.45 26.83,98.88 26.86,99.32C26.89,99.75 26.91,100.19 26.94,100.62C26.97,101.06 27.01,101.49 27.04,101.93C27.07,102.37 27.11,102.8 27.14,103.24C27.18,103.68 27.21,104.11 27.25,104.55C27.28,104.98 27.32,105.42 27.35,105.85C27.38,106.29 27.4,106.72 27.43,107.16C27.45,107.6 27.48,108.03 27.5,108.47C27.52,108.91 27.53,109.34 27.55,109.78C27.56,110.21 27.58,110.65 27.59,111.08C27.6,111.52 27.6,111.95 27.61,112.39C27.62,112.83 27.62,113.26 27.63,113.7C27.64,114.14 27.64,114.57 27.65,115.01C27.66,115.44 27.66,115.88 27.67,116.31C27.68,116.75 27.69,117.18 27.7,117.62C27.71,118.06 27.71,118.49 27.72,118.93C27.73,119.37 27.74,119.8 27.75,120.24C27.76,120.67 27.78,121.11 27.79,121.54C27.8,121.98 27.81,122.41 27.82,122.85C27.83,123.29 27.85,123.72 27.86,124.16C27.87,124.6 27.89,125.03 27.9,125.47C27.91,125.9 27.92,126.34 27.93,126.77C27.94,127.21 27.95,127.64 27.96,128.08C27.97,128.52 27.98,128.95 27.99,129.39C28,129.82 28,130.26 28.01,130.69C28.02,131.13 28.02,131.56 28.03,132C28.04,132.44 28.04,132.87 28.05,133.31C28.05,133.75 28.05,134.18 28.06,134.62C28.06,135.05 28.07,135.49 28.08,135.92C28.09,136.36 28.09,136.79 28.1,137.23C28.11,137.67 28.12,138.1 28.13,138.54C28.14,138.98 28.15,139.41 28.16,139.85C28.17,140.28 28.19,140.72 28.2,141.15C28.21,141.59 28.23,142.02 28.24,142.46C28.25,142.9 28.27,143.33 28.28,143.77C28.29,144.21 28.31,144.64 28.32,145.08C28.33,145.51 28.33,145.95 28.34,146.38C28.35,146.82 28.35,147.25 28.36,147.69C28.36,148.13 28.37,148.56 28.37,149C28.37,149.44 28.37,149.87 28.37,150.31C28.37,150.74 28.38,151.18 28.38,151.61C28.38,152.05 28.39,152.48 28.39,152.92C28.4,153.36 28.4,153.79 28.41,154.23C28.42,154.67 28.43,155.1 28.44,155.54C28.45,155.97 28.46,156.41 28.47,156.84C28.48,157.28 28.48,157.71 28.49,158.15C28.5,158.59 28.51,159.02 28.52,159.46C28.53,159.89 28.54,160.33 28.54,160.76C28.55,161.2 28.55,161.63 28.55,162.07C28.55,162.51 28.56,162.94 28.56,163.38C28.57,163.82 28.57,164.25 28.58,164.69C28.58,165.12 28.59,165.56 28.59,165.99C28.59,166.43 28.6,166.86 28.6,167.3C28.6,167.74 28.61,168.17 28.61,168.61C28.61,169.05 28.62,169.48 28.62,169.92C28.62,170.35 28.63,170.79 28.63,171.22C28.63,171.66 28.64,172.09 28.64,172.53C28.64,172.97 28.65,173.4 28.65,173.84C28.65,174.28 28.65,174.71 28.65,175.15C28.65,175.58 28.65,176.02 28.65,176.45C28.65,176.89 28.66,177.32 28.66,177.76C28.66,178.2 28.66,178.63 28.66,179.07C28.66,179.51 28.67,179.94 28.67,180.38C28.67,180.81 28.67,181.25 28.67,181.68C28.67,182.12 28.68,182.55 28.68,182.99C28.68,183.43 28.68,183.86 28.68,184.3C28.68,184.73 28.68,185.17 28.68,185.6C28.68,186.04 28.69,186.47 28.69,186.91C28.69,187.35 28.69,187.78 28.69,188.22C28.69,188.66 28.69,189.09 28.69,189.53C28.69,189.96 28.7,190.4 28.7,190.83C28.7,191.27 28.7,191.7 28.7,192.14C28.7,192.58 28.71,193.01 28.71,193.45C28.71,193.89 28.71,194.32 28.71,194.76C28.71,195.19 28.71,195.63 28.71,196.06C28.71,196.5 28.71,196.93 28.71,197.37Q28.71,197.81 28.71,198.68Z" style="vector-effect: none; stroke-width: 0.5px; stroke: rgb(0, 0, 0); stroke-opacity: 1; fill: rgb(244, 191, 145); fill-opacity: 1;"/><path class="meanline" d="M38.724395751953125,47.55H18.695604248046877" style="fill: none; vector-effect: none; stroke-width: 0.5px; stroke-dasharray: 1px, 0.5px; stroke: rgb(0, 0, 0); stroke-opacity: 1;"/></g><g class="trace violins" style="opacity: 1;"><path class="violin" d="M86.14,186.16Q86.14,185.61 86.14,185.33C86.14,185.05 86.15,184.78 86.15,184.5C86.15,184.22 86.15,183.95 86.15,183.67C86.15,183.39 86.15,183.12 86.15,182.84C86.15,182.56 86.15,182.29 86.15,182.01C86.15,181.73 86.15,181.45 86.15,181.17C86.15,180.89 86.16,180.62 86.16,180.34C86.16,180.06 86.16,179.79 86.16,179.51C86.16,179.23 86.16,178.96 86.16,178.68C86.16,178.4 86.17,178.13 86.17,177.85C86.17,177.57 86.17,177.3 86.17,177.02C86.17,176.74 86.17,176.47 86.17,176.19C86.17,175.91 86.17,175.64 86.17,175.36C86.17,175.08 86.17,174.81 86.17,174.53C86.17,174.25 86.16,173.98 86.16,173.7C86.16,173.42 86.16,173.15 86.16,172.87C86.16,172.59 86.16,172.31 86.16,172.03C86.16,171.75 86.17,171.48 86.17,171.2C86.17,170.92 86.17,170.65 86.17,170.37C86.17,170.09 86.17,169.82 86.17,169.54C86.17,169.26 86.17,168.99 86.17,168.71C86.17,168.43 86.17,168.16 86.17,167.88C86.17,167.6 86.17,167.33 86.17,167.05C86.17,166.77 86.17,166.5 86.17,166.22C86.17,165.94 86.17,165.67 86.17,165.39C86.17,165.11 86.17,164.84 86.17,164.56C86.17,164.28 86.17,164 86.17,163.72C86.17,163.44 86.17,163.17 86.17,162.89C86.17,162.61 86.17,162.34 86.17,162.06C86.17,161.78 86.17,161.51 86.17,161.23C86.17,160.95 86.17,160.68 86.17,160.4C86.17,160.12 86.18,159.85 86.18,159.57C86.18,159.29 86.18,159.02 86.18,158.74C86.18,158.46 86.18,158.19 86.18,157.91C86.18,157.63 86.18,157.36 86.18,157.08C86.18,156.8 86.18,156.53 86.18,156.25C86.18,155.97 86.18,155.69 86.18,155.41C86.18,155.13 86.18,154.86 86.18,154.58C86.18,154.3 86.18,154.03 86.18,153.75C86.18,153.47 86.19,153.2 86.19,152.92C86.19,152.64 86.19,152.37 86.19,152.09C86.19,151.81 86.19,151.54 86.19,151.26C86.19,150.98 86.2,150.71 86.2,150.43C86.2,150.15 86.2,149.88 86.2,149.6C86.2,149.32 86.2,149.05 86.2,148.77C86.2,148.49 86.2,148.22 86.2,147.94C86.2,147.66 86.21,147.38 86.21,147.1C86.21,146.82 86.21,146.55 86.21,146.27C86.21,145.99 86.21,145.72 86.21,145.44C86.21,145.16 86.22,144.89 86.22,144.61C86.22,144.33 86.22,144.06 86.22,143.78C86.22,143.5 86.22,143.23 86.22,142.95C86.22,142.67 86.23,142.4 86.23,142.12C86.23,141.84 86.23,141.57 86.23,141.29C86.23,141.01 86.23,140.74 86.23,140.46C86.23,140.18 86.23,139.91 86.23,139.63C86.23,139.35 86.23,139.07 86.23,138.79C86.23,138.51 86.23,138.24 86.23,137.96C86.23,137.68 86.23,137.41 86.23,137.13C86.23,136.85 86.24,136.58 86.24,136.3C86.24,136.02 86.25,135.75 86.25,135.47C86.25,135.19 86.26,134.92 86.26,134.64C86.26,134.36 86.26,134.09 86.26,133.81C86.26,133.53 86.27,133.26 86.27,132.98C86.27,132.7 86.28,132.43 86.28,132.15C86.28,131.87 86.29,131.6 86.29,131.32C86.29,131.04 86.29,130.76 86.29,130.48C86.29,130.2 86.3,129.93 86.3,129.65C86.3,129.37 86.3,129.1 86.3,128.82C86.3,128.54 86.3,128.27 86.3,127.99C86.3,127.71 86.31,127.44 86.31,127.16C86.31,126.88 86.31,126.61 86.31,126.33C86.31,126.05 86.31,125.78 86.31,125.5C86.31,125.22 86.32,124.95 86.32,124.67C86.32,124.39 86.32,124.12 86.32,123.84C86.32,123.56 86.31,123.29 86.31,123.01C86.31,122.73 86.31,122.45 86.31,122.17C86.31,121.89 86.31,121.62 86.31,121.34C86.31,121.06 86.31,120.79 86.31,120.51C86.31,120.23 86.31,119.96 86.31,119.68C86.31,119.4 86.32,119.13 86.32,118.85C86.32,118.57 86.33,118.3 86.33,118.02C86.33,117.74 86.34,117.47 86.34,117.19C86.35,116.91 86.35,116.64 86.36,116.36C86.37,116.08 86.37,115.81 86.38,115.53C86.39,115.25 86.4,114.98 86.4,114.7C86.41,114.42 86.41,114.14 86.41,113.86C86.41,113.58 86.42,113.31 86.42,113.03C86.42,112.75 86.42,112.48 86.42,112.2C86.42,111.92 86.43,111.65 86.43,111.37C86.43,111.09 86.43,110.82 86.43,110.54C86.43,110.26 86.43,109.99 86.43,109.71C86.43,109.43 86.43,109.16 86.43,108.88C86.43,108.6 86.44,108.33 86.44,108.05C86.45,107.77 86.45,107.5 86.46,107.22C86.46,106.94 86.47,106.67 86.47,106.39C86.48,106.11 86.48,105.83 86.49,105.55C86.49,105.27 86.5,105 86.5,104.72C86.5,104.44 86.51,104.17 86.51,103.89C86.51,103.61 86.52,103.34 86.52,103.06C86.52,102.78 86.53,102.51 86.53,102.23C86.53,101.95 86.54,101.68 86.54,101.4C86.55,101.12 86.55,100.85 86.56,100.57C86.57,100.29 86.57,100.02 86.58,99.74C86.59,99.46 86.59,99.19 86.6,98.91C86.61,98.63 86.62,98.36 86.63,98.08C86.64,97.8 86.64,97.52 86.65,97.24C86.66,96.96 86.66,96.69 86.67,96.41C86.68,96.13 86.68,95.86 86.69,95.58C86.69,95.3 86.7,95.03 86.7,94.75C86.7,94.47 86.71,94.2 86.71,93.92C86.71,93.64 86.71,93.37 86.71,93.09C86.71,92.81 86.71,92.54 86.71,92.26C86.71,91.98 86.71,91.71 86.71,91.43C86.71,91.15 86.71,90.88 86.71,90.6C86.71,90.32 86.71,90.05 86.71,89.77C86.71,89.49 86.72,89.22 86.72,88.94C86.73,88.66 86.73,88.38 86.74,88.1C86.75,87.82 86.76,87.55 86.77,87.27C86.78,86.99 86.78,86.72 86.79,86.44C86.8,86.16 86.82,85.89 86.83,85.61C86.84,85.33 86.85,85.06 86.86,84.78C86.87,84.5 86.88,84.23 86.89,83.95C86.9,83.67 86.91,83.4 86.92,83.12C86.93,82.84 86.94,82.57 86.95,82.29C86.96,82.01 86.98,81.74 86.99,81.46C87.01,81.18 87.02,80.91 87.04,80.63C87.06,80.35 87.08,80.07 87.1,79.79C87.12,79.51 87.14,79.24 87.16,78.96C87.18,78.68 87.21,78.41 87.23,78.13C87.25,77.85 87.26,77.58 87.28,77.3C87.3,77.02 87.31,76.75 87.33,76.47C87.34,76.19 87.36,75.92 87.37,75.64C87.38,75.36 87.4,75.09 87.41,74.81C87.42,74.53 87.43,74.26 87.44,73.98C87.45,73.7 87.47,73.43 87.49,73.15C87.51,72.87 87.53,72.6 87.55,72.32C87.57,72.04 87.59,71.76 87.62,71.48C87.65,71.2 87.69,70.93 87.72,70.65C87.76,70.37 87.79,70.1 87.83,69.82C87.87,69.54 87.91,69.27 87.95,68.99C87.99,68.71 88.03,68.44 88.07,68.16C88.11,67.88 88.15,67.61 88.18,67.33C88.21,67.05 88.24,66.78 88.27,66.5C88.29,66.22 88.31,65.95 88.33,65.67C88.35,65.39 88.36,65.12 88.38,64.84C88.4,64.56 88.42,64.29 88.43,64.01C88.45,63.73 88.45,63.45 88.47,63.17C88.49,62.89 88.51,62.62 88.53,62.34C88.55,62.06 88.58,61.79 88.61,61.51C88.64,61.23 88.67,60.96 88.7,60.68C88.74,60.4 88.78,60.13 88.82,59.85C88.86,59.57 88.91,59.3 88.95,59.02C89,58.74 89.04,58.47 89.09,58.19C89.14,57.91 89.19,57.64 89.24,57.36C89.29,57.08 89.34,56.81 89.39,56.53C89.44,56.25 89.5,55.98 89.55,55.7C89.61,55.42 89.66,55.14 89.72,54.86C89.78,54.58 89.83,54.31 89.89,54.03C89.95,53.75 90,53.48 90.06,53.2C90.12,52.92 90.19,52.65 90.25,52.37C90.32,52.09 90.38,51.82 90.45,51.54C90.52,51.26 90.59,50.99 90.67,50.71C90.75,50.43 90.83,50.16 90.91,49.88C90.99,49.6 91.08,49.33 91.16,49.05C91.25,48.77 91.33,48.5 91.42,48.22C91.51,47.94 91.6,47.67 91.68,47.39C91.77,47.11 91.84,46.83 91.93,46.55C92.01,46.27 92.1,46 92.19,45.72C92.28,45.44 92.36,45.17 92.45,44.89C92.54,44.61 92.62,44.34 92.71,44.06C92.8,43.78 92.89,43.51 92.98,43.23C93.07,42.95 93.17,42.68 93.26,42.4C93.36,42.12 93.45,41.85 93.55,41.57C93.65,41.29 93.75,41.02 93.86,40.74C93.97,40.46 94.08,40.19 94.19,39.91C94.3,39.63 94.42,39.36 94.53,39.08C94.64,38.8 94.75,38.52 94.87,38.24C94.98,37.96 95.1,37.69 95.22,37.41C95.34,37.13 95.46,36.86 95.58,36.58C95.7,36.3 95.83,36.03 95.96,35.75C96.09,35.47 96.22,35.2 96.36,34.92C96.5,34.64 96.64,34.37 96.79,34.09C96.94,33.81 97.09,33.54 97.24,33.26C97.39,32.98 97.53,32.71 97.68,32.43C97.82,32.15 97.97,31.88 98.11,31.6C98.25,31.32 98.39,31.05 98.52,30.77C98.65,30.49 98.77,30.21 98.89,29.93C99.01,29.65 99.12,29.38 99.22,29.1C99.32,28.82 99.42,28.55 99.51,28.27C99.6,27.99 99.68,27.72 99.75,27.44C99.82,27.16 99.88,26.89 99.94,26.61C99.99,26.33 100.04,26.06 100.08,25.78C100.12,25.5 100.15,25.23 100.17,24.95C100.19,24.67 100.2,24.4 100.21,24.12C100.22,23.84 100.22,23.57 100.21,23.29C100.2,23.01 100.18,22.74 100.15,22.46C100.12,22.18 100.09,21.9 100.04,21.62C99.99,21.34 99.92,21.07 99.85,20.79C99.77,20.51 99.69,20.24 99.59,19.96C99.49,19.68 99.39,19.4 99.27,19.13C99.15,18.85 99.02,18.57 98.88,18.3C98.74,18.02 98.58,17.74 98.41,17.47C98.24,17.19 98.06,16.91 97.87,16.64C97.67,16.36 97.46,16.08 97.24,15.81C97.01,15.53 96.77,15.25 96.53,14.98C96.28,14.7 96.02,14.43 95.76,14.15C95.49,13.87 95.22,13.59 94.95,13.31C94.68,13.03 94.41,12.76 94.15,12.48C93.89,12.2 93.63,11.93 93.38,11.65C93.13,11.37 92.88,11.1 92.63,10.82C92.39,10.54 92.15,10.27 91.91,9.99C91.68,9.71 91.45,9.44 91.22,9.16C90.99,8.88 90.76,8.61 90.53,8.33C90.3,8.05 90.08,7.78 89.86,7.5C89.64,7.22 89.42,6.95 89.21,6.67C89,6.39 88.79,6.12 88.59,5.84C88.39,5.56 88.2,5.28 88.02,5C87.85,4.73 87.68,4.45 87.53,4.17C87.38,3.9 87.23,3.62 87.11,3.34C86.99,3.07 86.89,2.79 86.79,2.51C86.7,2.24 86.61,1.96 86.54,1.68C86.47,1.41 86.43,1.13 86.38,0.85C86.34,0.57 86.3,0.3 86.27,0.02C86.24,-0.26 86.23,-0.53 86.21,-0.81C86.19,-1.09 86.18,-1.36 86.17,-1.64C86.16,-1.92 86.16,-2.19 86.16,-2.47Q86.16,-2.75 86.15,-3.3L86.14,-3.3Q86.13,-2.75 86.13,-2.47C86.12,-2.19 86.12,-1.92 86.11,-1.64C86.1,-1.36 86.1,-1.09 86.08,-0.81C86.06,-0.53 86.04,-0.26 86.01,0.02C85.98,0.3 85.95,0.57 85.91,0.85C85.86,1.13 85.81,1.4 85.74,1.68C85.67,1.96 85.59,2.24 85.5,2.51C85.4,2.79 85.29,3.07 85.17,3.34C85.05,3.62 84.91,3.9 84.76,4.17C84.61,4.45 84.44,4.72 84.26,5C84.08,5.28 83.89,5.56 83.69,5.84C83.49,6.12 83.29,6.4 83.08,6.67C82.87,6.95 82.64,7.22 82.42,7.5C82.2,7.78 81.97,8.05 81.75,8.33C81.52,8.61 81.3,8.88 81.07,9.16C80.84,9.44 80.6,9.71 80.37,9.99C80.13,10.27 79.9,10.54 79.66,10.82C79.42,11.1 79.16,11.37 78.91,11.65C78.65,11.93 78.39,12.2 78.13,12.48C77.87,12.76 77.6,13.03 77.33,13.31C77.06,13.59 76.79,13.87 76.53,14.15C76.27,14.43 76.01,14.7 75.76,14.98C75.52,15.25 75.28,15.53 75.05,15.81C74.83,16.08 74.62,16.36 74.42,16.64C74.23,16.91 74.04,17.19 73.87,17.47C73.7,17.74 73.55,18.02 73.41,18.3C73.27,18.57 73.14,18.85 73.02,19.13C72.9,19.4 72.79,19.68 72.69,19.96C72.59,20.23 72.51,20.51 72.44,20.79C72.37,21.07 72.3,21.34 72.25,21.62C72.2,21.9 72.16,22.18 72.13,22.46C72.1,22.74 72.09,23.01 72.08,23.29C72.07,23.57 72.06,23.84 72.07,24.12C72.08,24.4 72.1,24.67 72.12,24.95C72.14,25.23 72.17,25.5 72.21,25.78C72.25,26.06 72.3,26.33 72.35,26.61C72.41,26.89 72.47,27.16 72.54,27.44C72.61,27.72 72.69,27.99 72.78,28.27C72.87,28.55 72.96,28.82 73.06,29.1C73.16,29.38 73.27,29.65 73.39,29.93C73.51,30.21 73.64,30.49 73.77,30.77C73.9,31.05 74.03,31.32 74.17,31.6C74.31,31.88 74.45,32.15 74.6,32.43C74.75,32.71 74.9,32.98 75.05,33.26C75.2,33.54 75.34,33.81 75.49,34.09C75.63,34.37 75.78,34.64 75.92,34.92C76.06,35.2 76.2,35.47 76.33,35.75C76.46,36.03 76.59,36.3 76.71,36.58C76.83,36.86 76.95,37.13 77.07,37.41C77.19,37.69 77.31,37.96 77.42,38.24C77.54,38.52 77.65,38.8 77.76,39.08C77.87,39.36 77.99,39.63 78.1,39.91C78.21,40.19 78.31,40.46 78.42,40.74C78.52,41.02 78.63,41.29 78.73,41.57C78.83,41.85 78.93,42.12 79.03,42.4C79.13,42.68 79.22,42.95 79.31,43.23C79.4,43.51 79.48,43.78 79.57,44.06C79.66,44.34 79.75,44.61 79.84,44.89C79.93,45.17 80.01,45.44 80.09,45.72C80.18,46 80.26,46.27 80.35,46.55C80.44,46.83 80.52,47.11 80.61,47.39C80.7,47.67 80.78,47.94 80.87,48.22C80.95,48.5 81.04,48.77 81.12,49.05C81.2,49.33 81.29,49.6 81.37,49.88C81.45,50.16 81.53,50.43 81.61,50.71C81.69,50.99 81.76,51.26 81.83,51.54C81.9,51.82 81.97,52.09 82.04,52.37C82.11,52.65 82.17,52.92 82.23,53.2C82.29,53.48 82.34,53.75 82.4,54.03C82.46,54.31 82.52,54.58 82.57,54.86C82.63,55.14 82.68,55.42 82.73,55.7C82.78,55.98 82.84,56.25 82.89,56.53C82.94,56.81 83,57.08 83.05,57.36C83.1,57.64 83.15,57.91 83.2,58.19C83.25,58.47 83.29,58.74 83.34,59.02C83.38,59.3 83.43,59.57 83.47,59.85C83.51,60.13 83.54,60.4 83.58,60.68C83.61,60.96 83.65,61.23 83.68,61.51C83.71,61.79 83.74,62.06 83.76,62.34C83.78,62.62 83.79,62.89 83.81,63.17C83.83,63.45 83.84,63.73 83.86,64.01C83.87,64.29 83.89,64.56 83.9,64.84C83.92,65.12 83.93,65.39 83.95,65.67C83.97,65.95 83.99,66.22 84.02,66.5C84.05,66.78 84.08,67.05 84.11,67.33C84.14,67.61 84.18,67.88 84.22,68.16C84.26,68.44 84.3,68.71 84.34,68.99C84.38,69.27 84.42,69.54 84.46,69.82C84.5,70.1 84.54,70.37 84.57,70.65C84.6,70.93 84.63,71.2 84.66,71.48C84.69,71.76 84.72,72.04 84.74,72.32C84.76,72.6 84.78,72.87 84.8,73.15C84.82,73.43 84.83,73.7 84.84,73.98C84.85,74.26 84.87,74.53 84.88,74.81C84.89,75.09 84.9,75.36 84.91,75.64C84.92,75.92 84.94,76.19 84.95,76.47C84.97,76.75 84.98,77.02 85,77.3C85.02,77.58 85.04,77.85 85.06,78.13C85.08,78.41 85.1,78.68 85.12,78.96C85.14,79.24 85.17,79.51 85.19,79.79C85.21,80.07 85.22,80.35 85.24,80.63C85.26,80.91 85.27,81.18 85.29,81.46C85.3,81.74 85.32,82.01 85.33,82.29C85.34,82.57 85.36,82.84 85.37,83.12C85.38,83.4 85.39,83.67 85.4,83.95C85.41,84.23 85.42,84.5 85.43,84.78C85.44,85.06 85.45,85.33 85.46,85.61C85.47,85.89 85.48,86.16 85.49,86.44C85.5,86.72 85.51,86.99 85.52,87.27C85.53,87.55 85.53,87.82 85.54,88.1C85.55,88.38 85.55,88.66 85.56,88.94C85.56,89.22 85.57,89.49 85.57,89.77C85.57,90.05 85.58,90.32 85.58,90.6C85.58,90.88 85.58,91.15 85.58,91.43C85.58,91.71 85.58,91.98 85.58,92.26C85.58,92.54 85.57,92.81 85.57,93.09C85.57,93.37 85.58,93.64 85.58,93.92C85.58,94.2 85.58,94.47 85.58,94.75C85.58,95.03 85.59,95.3 85.59,95.58C85.6,95.86 85.6,96.13 85.61,96.41C85.62,96.69 85.62,96.96 85.63,97.24C85.64,97.52 85.65,97.8 85.66,98.08C85.67,98.36 85.67,98.63 85.68,98.91C85.69,99.19 85.69,99.46 85.7,99.74C85.71,100.02 85.72,100.29 85.73,100.57C85.74,100.85 85.74,101.12 85.74,101.4C85.75,101.68 85.75,101.95 85.76,102.23C85.76,102.51 85.77,102.78 85.77,103.06C85.77,103.34 85.78,103.61 85.78,103.89C85.78,104.17 85.79,104.44 85.79,104.72C85.79,105 85.8,105.27 85.8,105.55C85.8,105.83 85.8,106.11 85.81,106.39C85.81,106.67 85.82,106.94 85.83,107.22C85.83,107.5 85.84,107.77 85.84,108.05C85.84,108.33 85.85,108.6 85.85,108.88C85.85,109.16 85.86,109.43 85.86,109.71C85.86,109.99 85.86,110.26 85.86,110.54C85.86,110.82 85.86,111.09 85.86,111.37C85.86,111.65 85.86,111.92 85.86,112.2C85.86,112.48 85.87,112.75 85.87,113.03C85.87,113.31 85.87,113.58 85.87,113.86C85.87,114.14 85.88,114.42 85.89,114.7C85.89,114.98 85.9,115.25 85.9,115.53C85.91,115.81 85.91,116.08 85.92,116.36C85.93,116.64 85.93,116.91 85.94,117.19C85.95,117.47 85.95,117.74 85.96,118.02C85.96,118.3 85.97,118.57 85.97,118.85C85.97,119.13 85.97,119.4 85.97,119.68C85.97,119.96 85.98,120.23 85.98,120.51C85.98,120.79 85.98,121.06 85.98,121.34C85.98,121.62 85.97,121.89 85.97,122.17C85.97,122.45 85.97,122.73 85.97,123.01C85.97,123.29 85.97,123.56 85.97,123.84C85.97,124.12 85.97,124.39 85.97,124.67C85.97,124.95 85.97,125.22 85.97,125.5C85.97,125.78 85.97,126.05 85.97,126.33C85.97,126.61 85.98,126.88 85.98,127.16C85.98,127.44 85.98,127.71 85.98,127.99C85.98,128.27 85.98,128.54 85.98,128.82C85.98,129.1 85.99,129.37 85.99,129.65C85.99,129.93 85.99,130.2 85.99,130.48C85.99,130.76 86,131.04 86,131.32C86,131.6 86,131.87 86,132.15C86,132.43 86.01,132.7 86.01,132.98C86.01,133.26 86.02,133.53 86.02,133.81C86.02,134.09 86.03,134.36 86.03,134.64C86.03,134.92 86.04,135.19 86.04,135.47C86.04,135.75 86.05,136.02 86.05,136.3C86.05,136.58 86.05,136.85 86.05,137.13C86.05,137.41 86.06,137.68 86.06,137.96C86.06,138.24 86.06,138.51 86.06,138.79C86.06,139.07 86.06,139.35 86.06,139.63C86.06,139.91 86.06,140.18 86.06,140.46C86.06,140.74 86.06,141.01 86.06,141.29C86.06,141.57 86.06,141.84 86.06,142.12C86.06,142.4 86.06,142.67 86.06,142.95C86.06,143.23 86.06,143.5 86.06,143.78C86.06,144.06 86.07,144.33 86.07,144.61C86.07,144.89 86.07,145.16 86.07,145.44C86.07,145.72 86.08,145.99 86.08,146.27C86.08,146.55 86.08,146.82 86.08,147.1C86.08,147.38 86.08,147.66 86.08,147.94C86.08,148.22 86.08,148.49 86.08,148.77C86.08,149.05 86.09,149.32 86.09,149.6C86.09,149.88 86.09,150.15 86.09,150.43C86.09,150.71 86.09,150.98 86.09,151.26C86.09,151.54 86.1,151.81 86.1,152.09C86.1,152.37 86.1,152.64 86.1,152.92C86.1,153.2 86.1,153.47 86.1,153.75C86.1,154.03 86.11,154.3 86.11,154.58C86.11,154.86 86.11,155.13 86.11,155.41C86.11,155.69 86.11,155.97 86.11,156.25C86.11,156.53 86.11,156.8 86.11,157.08C86.11,157.36 86.11,157.63 86.11,157.91C86.11,158.19 86.11,158.46 86.11,158.74C86.11,159.02 86.11,159.29 86.11,159.57C86.11,159.85 86.11,160.12 86.11,160.4C86.11,160.68 86.11,160.95 86.11,161.23C86.11,161.51 86.12,161.78 86.12,162.06C86.12,162.34 86.12,162.61 86.12,162.89C86.12,163.17 86.12,163.44 86.12,163.72C86.12,164 86.12,164.28 86.12,164.56C86.12,164.84 86.12,165.11 86.12,165.39C86.12,165.67 86.12,165.94 86.12,166.22C86.12,166.5 86.12,166.77 86.12,167.05C86.12,167.33 86.12,167.6 86.12,167.88C86.12,168.16 86.12,168.43 86.12,168.71C86.12,168.99 86.12,169.26 86.12,169.54C86.12,169.82 86.12,170.09 86.12,170.37C86.12,170.65 86.12,170.92 86.12,171.2C86.12,171.48 86.12,171.75 86.12,172.03C86.12,172.31 86.12,172.59 86.12,172.87C86.12,173.15 86.12,173.42 86.12,173.7C86.12,173.98 86.12,174.25 86.12,174.53C86.12,174.81 86.12,175.08 86.12,175.36C86.12,175.64 86.12,175.91 86.12,176.19C86.12,176.47 86.12,176.74 86.12,177.02C86.12,177.3 86.12,177.57 86.12,177.85C86.12,178.13 86.12,178.4 86.12,178.68C86.12,178.96 86.12,179.23 86.12,179.51C86.12,179.79 86.13,180.06 86.13,180.34C86.13,180.62 86.13,180.89 86.13,181.17C86.13,181.45 86.13,181.73 86.13,182.01C86.13,182.29 86.14,182.56 86.14,182.84C86.14,183.12 86.14,183.39 86.14,183.67C86.14,183.95 86.14,184.22 86.14,184.5C86.14,184.78 86.14,185.05 86.14,185.33Q86.14,185.61 86.14,186.16Z" style="vector-effect: none; stroke-width: 0.5px; stroke: rgb(0, 0, 0); stroke-opacity: 1; fill: rgb(236, 154, 86); fill-opacity: 1;"/><path class="meanline" d="M96.30522918701172,35.03H75.97477081298828" style="fill: none; vector-effect: none; stroke-width: 0.5px; stroke-dasharray: 1px, 0.5px; stroke: rgb(0, 0, 0); stroke-opacity: 1;"/></g><g class="trace violins" style="opacity: 1;"><path class="violin" d="M143.62,109.96Q143.65,108.33 143.67,107.52C143.69,106.71 143.71,105.89 143.74,105.08C143.77,104.27 143.8,103.45 143.83,102.64C143.87,101.83 143.91,101.01 143.95,100.2C144,99.39 144.05,98.57 144.1,97.76C144.15,96.95 144.19,96.13 144.24,95.32C144.29,94.51 144.33,93.69 144.38,92.88C144.42,92.07 144.47,91.25 144.51,90.44C144.55,89.63 144.58,88.81 144.61,88C144.64,87.19 144.66,86.37 144.69,85.56C144.72,84.75 144.74,83.93 144.77,83.12C144.8,82.31 144.83,81.49 144.86,80.68C144.89,79.87 144.93,79.05 144.97,78.24C145.01,77.43 145.05,76.61 145.11,75.8C145.17,74.99 145.23,74.17 145.31,73.36C145.39,72.55 145.48,71.73 145.6,70.92C145.72,70.11 145.86,69.29 146.02,68.48C146.18,67.66 146.36,66.85 146.55,66.04C146.74,65.22 146.97,64.41 147.18,63.6C147.39,62.79 147.61,61.97 147.81,61.16C148.01,60.35 148.19,59.54 148.36,58.72C148.52,57.91 148.67,57.09 148.8,56.28C148.93,55.47 149.03,54.65 149.14,53.84C149.25,53.03 149.35,52.21 149.48,51.4C149.61,50.59 149.74,49.77 149.91,48.96C150.08,48.14 150.26,47.33 150.48,46.52C150.7,45.7 150.95,44.89 151.21,44.08C151.47,43.26 151.76,42.45 152.04,41.64C152.32,40.83 152.6,40.01 152.88,39.2C153.15,38.39 153.43,37.57 153.69,36.76C153.95,35.95 154.2,35.13 154.45,34.32C154.7,33.51 154.95,32.69 155.2,31.88C155.45,31.07 155.72,30.25 155.97,29.44C156.22,28.62 156.49,27.81 156.72,26.99C156.95,26.18 157.2,25.37 157.35,24.55C157.5,23.74 157.63,22.92 157.64,22.11C157.65,21.3 157.6,20.47 157.43,19.67C157.26,18.85 156.97,18.03 156.62,17.23C156.26,16.4 155.78,15.59 155.29,14.79C154.78,13.96 154.19,13.16 153.61,12.35C153.02,11.53 152.39,10.72 151.79,9.91C151.19,9.1 150.58,8.29 150.01,7.47C149.45,6.66 148.91,5.85 148.41,5.03C147.92,4.22 147.45,3.41 147.03,2.59C146.62,1.79 146.25,0.97 145.92,0.15C145.6,-0.66 145.32,-1.47 145.08,-2.29C144.84,-3.1 144.64,-3.91 144.47,-4.73C144.3,-5.54 144.18,-6.35 144.07,-7.17C143.96,-7.98 143.89,-8.8 143.83,-9.61Q143.77,-10.42 143.69,-12.05L143.45,-12.05Q143.37,-10.42 143.31,-9.61C143.25,-8.8 143.18,-7.98 143.07,-7.17C142.96,-6.35 142.84,-5.54 142.67,-4.73C142.5,-3.91 142.31,-3.1 142.07,-2.29C141.83,-1.47 141.54,-0.66 141.22,0.15C140.89,0.97 140.52,1.79 140.11,2.59C139.69,3.41 139.23,4.23 138.74,5.03C138.24,5.85 137.69,6.66 137.13,7.47C136.56,8.29 135.95,9.1 135.35,9.91C134.75,10.72 134.12,11.53 133.53,12.35C132.95,13.16 132.36,13.96 131.85,14.79C131.36,15.59 130.88,16.4 130.52,17.23C130.18,18.03 129.89,18.85 129.72,19.67C129.55,20.47 129.49,21.3 129.5,22.11C129.51,22.92 129.65,23.74 129.8,24.55C129.95,25.37 130.19,26.18 130.42,26.99C130.65,27.81 130.93,28.62 131.18,29.44C131.43,30.25 131.69,31.07 131.94,31.88C132.19,32.69 132.44,33.51 132.69,34.32C132.94,35.13 133.19,35.95 133.45,36.76C133.71,37.57 133.98,38.39 134.26,39.2C134.54,40.01 134.83,40.83 135.11,41.64C135.39,42.45 135.67,43.26 135.93,44.08C136.19,44.89 136.44,45.7 136.66,46.52C136.88,47.33 137.07,48.14 137.24,48.96C137.41,49.77 137.53,50.59 137.66,51.4C137.79,52.21 137.89,53.03 138,53.84C138.12,54.65 138.22,55.47 138.35,56.28C138.48,57.09 138.62,57.91 138.78,58.72C138.95,59.54 139.14,60.35 139.34,61.16C139.54,61.97 139.76,62.79 139.97,63.6C140.18,64.41 140.4,65.23 140.59,66.04C140.78,66.85 140.97,67.66 141.13,68.48C141.29,69.29 141.42,70.11 141.54,70.92C141.66,71.73 141.75,72.55 141.83,73.36C141.91,74.17 141.97,74.99 142.03,75.8C142.09,76.61 142.14,77.43 142.18,78.24C142.22,79.05 142.25,79.87 142.28,80.68C142.31,81.49 142.34,82.31 142.37,83.12C142.4,83.93 142.42,84.75 142.45,85.56C142.48,86.37 142.5,87.19 142.53,88C142.56,88.81 142.6,89.63 142.64,90.44C142.68,91.25 142.72,92.07 142.76,92.88C142.8,93.69 142.85,94.51 142.9,95.32C142.95,96.13 143,96.95 143.05,97.76C143.1,98.57 143.15,99.39 143.19,100.2C143.23,101.01 143.27,101.83 143.31,102.64C143.35,103.45 143.38,104.27 143.41,105.08C143.44,105.89 143.46,106.71 143.48,107.52Q143.5,108.33 143.52,109.96Z" style="vector-effect: none; stroke-width: 0.5px; stroke: rgb(0, 0, 0); stroke-opacity: 1; fill: rgb(155, 191, 229); fill-opacity: 1;"/><path class="meanline" d="M154.7421417236328,33.37H132.39785827636717" style="fill: none; vector-effect: none; stroke-width: 0.5px; stroke-dasharray: 1px, 0.5px; stroke: rgb(0, 0, 0); stroke-opacity: 1;"/></g><g class="trace violins" style="opacity: 1;"><path class="violin" d="M201.03,88.02Q201.04,86.93 201.05,86.38C201.06,85.83 201.07,85.28 201.08,84.73C201.09,84.18 201.11,83.64 201.12,83.09C201.13,82.54 201.15,82 201.16,81.45C201.18,80.9 201.2,80.35 201.21,79.8C201.22,79.25 201.23,78.71 201.24,78.16C201.25,77.61 201.26,77.06 201.27,76.51C201.28,75.96 201.28,75.42 201.29,74.87C201.3,74.32 201.3,73.78 201.31,73.23C201.32,72.68 201.33,72.13 201.35,71.58C201.36,71.03 201.38,70.49 201.4,69.94C201.42,69.39 201.45,68.85 201.49,68.3C201.53,67.75 201.57,67.2 201.63,66.65C201.68,66.1 201.75,65.56 201.82,65.01C201.89,64.46 201.97,63.91 202.06,63.36C202.14,62.81 202.24,62.27 202.33,61.72C202.42,61.17 202.51,60.63 202.59,60.08C202.67,59.53 202.75,58.98 202.83,58.43C202.91,57.88 202.98,57.34 203.05,56.79C203.13,56.24 203.19,55.69 203.28,55.14C203.36,54.59 203.45,54.05 203.56,53.5C203.67,52.95 203.78,52.41 203.92,51.86C204.06,51.31 204.22,50.76 204.4,50.21C204.58,49.66 204.78,49.11 204.99,48.57C205.2,48.02 205.44,47.48 205.67,46.93C205.91,46.38 206.16,45.83 206.4,45.28C206.64,44.73 206.89,44.19 207.13,43.64C207.36,43.09 207.6,42.54 207.81,41.99C208.02,41.44 208.22,40.9 208.41,40.35C208.59,39.81 208.76,39.26 208.92,38.71C209.08,38.16 209.23,37.61 209.39,37.06C209.55,36.51 209.7,35.97 209.88,35.42C210.06,34.87 210.25,34.32 210.47,33.77C210.69,33.22 210.94,32.67 211.19,32.13C211.45,31.58 211.73,31.04 212,30.49C212.27,29.94 212.56,29.39 212.82,28.84C213.08,28.29 213.33,27.75 213.56,27.2C213.78,26.66 213.99,26.11 214.17,25.56C214.35,25.01 214.5,24.46 214.63,23.91C214.76,23.37 214.87,22.82 214.94,22.27C215.01,21.72 215.07,21.17 215.07,20.62C215.07,20.07 215.05,19.52 214.97,18.98C214.89,18.43 214.75,17.88 214.56,17.34C214.37,16.78 214.11,16.23 213.81,15.69C213.5,15.13 213.11,14.59 212.7,14.05C212.28,13.49 211.8,12.95 211.31,12.41C210.81,11.85 210.27,11.31 209.73,10.76C209.19,10.21 208.63,9.67 208.08,9.12C207.54,8.57 206.98,8.02 206.46,7.47C205.95,6.93 205.44,6.39 204.98,5.83C204.54,5.29 204.11,4.75 203.74,4.19C203.38,3.65 203.05,3.1 202.77,2.54C202.5,2 202.26,1.45 202.06,0.9C201.87,0.36 201.73,-0.2 201.6,-0.75C201.48,-1.29 201.39,-1.84 201.31,-2.39C201.24,-2.94 201.19,-3.48 201.15,-4.03Q201.11,-4.58 201.07,-5.68L200.93,-5.68Q200.89,-4.58 200.85,-4.03C200.81,-3.48 200.76,-2.94 200.69,-2.39C200.61,-1.84 200.52,-1.29 200.4,-0.75C200.27,-0.2 200.13,0.36 199.94,0.9C199.74,1.45 199.5,2 199.23,2.54C198.95,3.1 198.62,3.65 198.26,4.19C197.89,4.75 197.46,5.29 197.02,5.83C196.56,6.39 196.05,6.93 195.54,7.47C195.02,8.02 194.46,8.57 193.92,9.12C193.37,9.67 192.81,10.21 192.27,10.76C191.73,11.31 191.19,11.85 190.69,12.41C190.2,12.95 189.72,13.49 189.3,14.05C188.89,14.59 188.5,15.13 188.19,15.69C187.89,16.23 187.63,16.78 187.44,17.34C187.25,17.88 187.11,18.43 187.03,18.98C186.95,19.52 186.93,20.07 186.93,20.62C186.93,21.17 186.99,21.72 187.06,22.27C187.13,22.82 187.24,23.37 187.37,23.91C187.5,24.46 187.65,25.01 187.83,25.56C188.01,26.11 188.22,26.66 188.44,27.2C188.67,27.75 188.92,28.29 189.18,28.84C189.44,29.39 189.73,29.94 190,30.49C190.27,31.04 190.55,31.58 190.81,32.13C191.06,32.67 191.31,33.22 191.53,33.77C191.75,34.32 191.94,34.87 192.12,35.42C192.3,35.97 192.45,36.51 192.61,37.06C192.77,37.61 192.92,38.16 193.08,38.71C193.24,39.26 193.41,39.81 193.59,40.35C193.78,40.9 193.98,41.44 194.19,41.99C194.4,42.54 194.64,43.09 194.87,43.64C195.11,44.19 195.36,44.73 195.6,45.28C195.84,45.83 196.09,46.38 196.33,46.93C196.56,47.48 196.8,48.02 197.01,48.57C197.22,49.11 197.42,49.66 197.6,50.21C197.78,50.76 197.94,51.31 198.08,51.86C198.22,52.41 198.33,52.95 198.44,53.5C198.55,54.05 198.64,54.59 198.72,55.14C198.81,55.69 198.87,56.24 198.95,56.79C199.02,57.34 199.09,57.88 199.17,58.43C199.25,58.98 199.33,59.53 199.41,60.08C199.49,60.63 199.58,61.17 199.67,61.72C199.76,62.27 199.86,62.81 199.94,63.36C200.03,63.91 200.11,64.46 200.18,65.01C200.25,65.56 200.32,66.1 200.37,66.65C200.43,67.2 200.47,67.75 200.51,68.3C200.55,68.85 200.58,69.39 200.6,69.94C200.62,70.49 200.64,71.03 200.65,71.58C200.67,72.13 200.68,72.68 200.69,73.23C200.7,73.78 200.7,74.32 200.71,74.87C200.72,75.42 200.72,75.96 200.73,76.51C200.74,77.06 200.75,77.61 200.76,78.16C200.77,78.71 200.78,79.25 200.79,79.8C200.8,80.35 200.82,80.9 200.84,81.45C200.85,82 200.87,82.54 200.88,83.09C200.89,83.64 200.91,84.18 200.92,84.73C200.93,85.28 200.94,85.83 200.95,86.38Q200.96,86.93 200.97,88.02Z" style="vector-effect: none; stroke-width: 0.5px; stroke: rgb(0, 0, 0); stroke-opacity: 1; fill: rgb(138, 165, 61); fill-opacity: 1;"/><path class="meanline" d="M213.31834411621094,27.76H188.68165588378906" style="fill: none; vector-effect: none; stroke-width: 0.5px; stroke-dasharray: 1px, 0.5px; stroke: rgb(0, 0, 0); stroke-opacity: 1;"/></g><g class="trace violins" style="opacity: 1;"><path class="violin" d="M258.47,110.06Q258.49,109.09 258.5,108.6C258.51,108.11 258.52,107.62 258.54,107.13C258.56,106.64 258.58,106.16 258.6,105.67C258.62,105.18 258.63,104.69 258.65,104.2C258.66,103.71 258.68,103.23 258.69,102.74C258.7,102.25 258.71,101.76 258.71,101.27C258.71,100.78 258.7,100.3 258.69,99.81C258.68,99.32 258.68,98.83 258.66,98.34C258.65,97.85 258.62,97.37 258.6,96.88C258.58,96.39 258.57,95.9 258.55,95.41C258.53,94.92 258.51,94.44 258.5,93.95C258.49,93.46 258.48,92.97 258.47,92.48C258.46,91.99 258.45,91.51 258.45,91.02C258.44,90.53 258.44,90.04 258.44,89.55C258.44,89.06 258.43,88.58 258.43,88.09C258.43,87.6 258.43,87.11 258.43,86.62C258.43,86.13 258.44,85.65 258.44,85.16C258.44,84.67 258.44,84.18 258.45,83.69C258.45,83.2 258.46,82.72 258.47,82.23C258.48,81.74 258.49,81.25 258.51,80.76C258.52,80.27 258.54,79.79 258.56,79.3C258.58,78.81 258.6,78.32 258.63,77.83C258.66,77.34 258.69,76.86 258.72,76.37C258.75,75.88 258.79,75.4 258.82,74.91C258.85,74.42 258.88,73.93 258.92,73.44C258.96,72.95 259,72.47 259.04,71.98C259.08,71.49 259.12,71 259.16,70.51C259.2,70.02 259.24,69.54 259.28,69.05C259.32,68.56 259.35,68.07 259.38,67.58C259.41,67.09 259.43,66.61 259.44,66.12C259.45,65.63 259.45,65.14 259.45,64.65C259.45,64.16 259.43,63.68 259.42,63.19C259.41,62.7 259.39,62.21 259.38,61.72C259.37,61.23 259.35,60.75 259.35,60.26C259.35,59.77 259.36,59.28 259.38,58.79C259.4,58.3 259.44,57.82 259.48,57.33C259.52,56.84 259.58,56.35 259.64,55.86C259.7,55.37 259.78,54.89 259.85,54.4C259.92,53.91 259.99,53.42 260.05,52.93C260.11,52.44 260.17,51.96 260.23,51.47C260.29,50.98 260.34,50.49 260.39,50C260.44,49.51 260.49,49.03 260.55,48.54C260.61,48.05 260.67,47.56 260.75,47.07C260.83,46.58 260.91,46.1 261.02,45.61C261.13,45.12 261.26,44.63 261.41,44.14C261.56,43.65 261.72,43.16 261.91,42.68C262.1,42.19 262.32,41.7 262.55,41.21C262.78,40.72 263.04,40.23 263.3,39.75C263.57,39.26 263.86,38.77 264.15,38.28C264.44,37.79 264.74,37.31 265.02,36.82C265.3,36.33 265.58,35.84 265.85,35.35C266.11,34.86 266.37,34.38 266.61,33.89C266.85,33.4 267.06,32.91 267.28,32.42C267.5,31.93 267.7,31.44 267.93,30.96C268.16,30.47 268.39,29.98 268.64,29.5C268.9,29.01 269.18,28.52 269.47,28.03C269.76,27.54 270.09,27.06 270.4,26.57C270.71,26.08 271.05,25.6 271.33,25.1C271.61,24.62 271.89,24.14 272.09,23.64C272.28,23.16 272.45,22.66 272.5,22.17C272.55,21.69 272.53,21.19 272.41,20.71C272.29,20.21 272.05,19.71 271.76,19.24C271.45,18.73 271.03,18.25 270.6,17.78C270.14,17.27 269.59,16.79 269.05,16.31C268.49,15.81 267.89,15.34 267.31,14.85C266.73,14.36 266.13,13.88 265.56,13.38C265.01,12.9 264.46,12.42 263.96,11.92C263.48,11.44 263.02,10.95 262.61,10.45C262.22,9.97 261.85,9.49 261.53,8.99C261.22,8.51 260.94,8.02 260.69,7.52C260.45,7.04 260.23,6.55 260.04,6.06C259.85,5.58 259.7,5.08 259.55,4.59C259.41,4.1 259.28,3.62 259.17,3.13C259.06,2.64 258.98,2.15 258.9,1.66C258.82,1.17 258.75,0.69 258.7,0.2C258.65,-0.29 258.61,-0.78 258.58,-1.27Q258.55,-1.76 258.5,-2.73L258.36,-2.73Q258.31,-1.76 258.28,-1.27C258.25,-0.78 258.21,-0.29 258.16,0.2C258.11,0.69 258.04,1.17 257.96,1.66C257.88,2.15 257.79,2.64 257.68,3.13C257.57,3.62 257.45,4.11 257.31,4.59C257.16,5.08 257,5.57 256.81,6.06C256.62,6.55 256.41,7.04 256.17,7.52C255.92,8.02 255.64,8.51 255.33,8.99C255.01,9.49 254.64,9.97 254.25,10.45C253.84,10.95 253.38,11.44 252.9,11.92C252.4,12.42 251.85,12.9 251.3,13.38C250.73,13.88 250.13,14.36 249.55,14.85C248.97,15.34 248.37,15.81 247.81,16.31C247.27,16.79 246.72,17.27 246.26,17.78C245.83,18.25 245.41,18.73 245.1,19.24C244.81,19.71 244.57,20.21 244.45,20.71C244.33,21.19 244.31,21.69 244.36,22.17C244.41,22.66 244.57,23.16 244.76,23.64C244.95,24.14 245.24,24.62 245.52,25.1C245.8,25.6 246.14,26.08 246.45,26.57C246.76,27.06 247.09,27.54 247.38,28.03C247.67,28.52 247.95,29.01 248.21,29.5C248.47,29.98 248.7,30.47 248.93,30.96C249.16,31.44 249.36,31.93 249.58,32.42C249.8,32.91 250.01,33.4 250.25,33.89C250.49,34.38 250.74,34.87 251,35.35C251.27,35.84 251.56,36.33 251.84,36.82C252.13,37.31 252.42,37.79 252.71,38.28C252.99,38.77 253.28,39.26 253.55,39.75C253.81,40.23 254.08,40.72 254.31,41.21C254.54,41.69 254.75,42.19 254.94,42.68C255.13,43.16 255.3,43.65 255.45,44.14C255.6,44.63 255.72,45.12 255.83,45.61C255.94,46.1 256.03,46.58 256.11,47.07C256.19,47.56 256.25,48.05 256.31,48.54C256.37,49.03 256.42,49.51 256.47,50C256.52,50.49 256.57,50.98 256.63,51.47C256.69,51.96 256.75,52.44 256.81,52.93C256.87,53.42 256.94,53.91 257.01,54.4C257.08,54.89 257.15,55.37 257.21,55.86C257.27,56.35 257.33,56.84 257.38,57.33C257.42,57.82 257.46,58.3 257.48,58.79C257.5,59.28 257.51,59.77 257.51,60.26C257.51,60.75 257.49,61.23 257.48,61.72C257.47,62.21 257.45,62.7 257.44,63.19C257.43,63.68 257.41,64.16 257.41,64.65C257.41,65.14 257.41,65.63 257.42,66.12C257.43,66.61 257.45,67.09 257.48,67.58C257.51,68.07 257.54,68.56 257.58,69.05C257.62,69.54 257.66,70.02 257.7,70.51C257.74,71 257.78,71.49 257.82,71.98C257.86,72.47 257.89,72.95 257.93,73.44C257.97,73.93 258,74.42 258.04,74.91C258.07,75.4 258.11,75.88 258.14,76.37C258.17,76.86 258.2,77.34 258.22,77.83C258.25,78.32 258.27,78.81 258.29,79.3C258.31,79.79 258.33,80.27 258.35,80.76C258.37,81.25 258.38,81.74 258.39,82.23C258.4,82.72 258.41,83.2 258.41,83.69C258.42,84.18 258.42,84.67 258.42,85.16C258.42,85.65 258.42,86.13 258.42,86.62C258.42,87.11 258.42,87.6 258.42,88.09C258.42,88.58 258.42,89.06 258.42,89.55C258.42,90.04 258.42,90.53 258.41,91.02C258.41,91.51 258.4,91.99 258.39,92.48C258.38,92.97 258.37,93.46 258.36,93.95C258.35,94.44 258.33,94.92 258.31,95.41C258.29,95.9 258.28,96.39 258.26,96.88C258.24,97.37 258.22,97.85 258.2,98.34C258.18,98.83 258.17,99.32 258.16,99.81C258.15,100.3 258.15,100.78 258.15,101.27C258.15,101.76 258.15,102.25 258.16,102.74C258.17,103.23 258.18,103.71 258.2,104.2C258.22,104.69 258.24,105.18 258.26,105.67C258.28,106.16 258.29,106.64 258.31,107.13C258.33,107.62 258.35,108.11 258.36,108.6Q258.37,109.09 258.39,110.06Z" style="vector-effect: none; stroke-width: 0.5px; stroke: rgb(0, 0, 0); stroke-opacity: 1; fill: rgb(186, 105, 190); fill-opacity: 1;"/><path class="meanline" d="M269.0642395019531,28.73H247.7957604980469" style="fill: none; vector-effect: none; stroke-width: 0.5px; stroke-dasharray: 1px, 0.5px; stroke: rgb(0, 0, 0); stroke-opacity: 1;"/></g><g class="trace violins" style="opacity: 1;"><path class="violin" d="M315.93,86.19Q315.97,84.8 316,84.11C316.03,83.41 316.07,82.72 316.12,82.02C316.16,81.33 316.21,80.63 316.27,79.94C316.33,79.24 316.4,78.55 316.47,77.85C316.54,77.16 316.62,76.46 316.7,75.77C316.78,75.07 316.86,74.38 316.94,73.68C317.02,72.99 317.1,72.29 317.18,71.6C317.26,70.9 317.34,70.21 317.42,69.51C317.5,68.82 317.58,68.12 317.66,67.43C317.74,66.73 317.81,66.04 317.89,65.34C317.96,64.65 318.05,63.95 318.11,63.26C318.18,62.56 318.23,61.87 318.28,61.17C318.33,60.48 318.38,59.78 318.43,59.09C318.48,58.4 318.51,57.7 318.58,57.01C318.65,56.31 318.72,55.61 318.83,54.92C318.94,54.22 319.07,53.53 319.24,52.84C319.42,52.14 319.63,51.44 319.89,50.75C320.15,50.05 320.46,49.36 320.8,48.67C321.15,47.97 321.54,47.27 321.95,46.58C322.37,45.88 322.82,45.19 323.28,44.5C323.74,43.8 324.23,43.11 324.7,42.41C325.17,41.72 325.65,41.03 326.08,40.33C326.5,39.64 326.92,38.95 327.27,38.24C327.61,37.56 327.93,36.86 328.17,36.16C328.4,35.47 328.57,34.77 328.7,34.07C328.82,33.38 328.89,32.69 328.93,31.99C328.97,31.3 328.96,30.6 328.97,29.9C328.98,29.21 328.97,28.51 328.99,27.82C329.01,27.12 329.05,26.42 329.11,25.73C329.18,25.03 329.28,24.34 329.38,23.65C329.48,22.96 329.63,22.27 329.72,21.57C329.81,20.88 329.92,20.18 329.93,19.48C329.94,18.79 329.92,18.09 329.79,17.4C329.65,16.7 329.42,15.99 329.11,15.31C328.78,14.6 328.33,13.91 327.84,13.23C327.32,12.51 326.69,11.82 326.06,11.14C325.4,10.43 324.67,9.75 323.97,9.06C323.27,8.36 322.53,7.68 321.85,6.97C321.19,6.28 320.54,5.6 319.96,4.89C319.41,4.21 318.88,3.51 318.44,2.8C318.02,2.12 317.65,1.43 317.35,0.72C317.06,0.04 316.84,-0.67 316.65,-1.37Q316.47,-2.06 316.24,-3.45L315.48,-3.45Q315.25,-2.06 315.07,-1.37C314.88,-0.67 314.65,0.04 314.36,0.72C314.06,1.43 313.7,2.12 313.28,2.8C312.84,3.51 312.32,4.21 311.76,4.89C311.18,5.6 310.52,6.28 309.86,6.97C309.18,7.67 308.44,8.36 307.74,9.06C307.04,9.75 306.31,10.43 305.66,11.14C305.03,11.82 304.39,12.51 303.87,13.23C303.38,13.91 302.93,14.6 302.6,15.31C302.29,15.99 302.06,16.7 301.93,17.4C301.8,18.09 301.78,18.79 301.79,19.48C301.8,20.18 301.91,20.88 302,21.57C302.09,22.27 302.23,22.96 302.33,23.65C302.43,24.34 302.53,25.03 302.6,25.73C302.67,26.42 302.71,27.12 302.73,27.82C302.75,28.51 302.74,29.21 302.75,29.9C302.76,30.6 302.74,31.3 302.78,31.99C302.82,32.69 302.88,33.38 303.01,34.07C303.14,34.77 303.32,35.47 303.55,36.16C303.79,36.86 304.1,37.56 304.44,38.24C304.79,38.95 305.22,39.64 305.64,40.33C306.07,41.03 306.55,41.72 307.01,42.41C307.48,43.11 307.97,43.8 308.43,44.5C308.89,45.19 309.35,45.88 309.77,46.58C310.18,47.27 310.57,47.97 310.92,48.67C311.26,49.36 311.57,50.05 311.83,50.75C312.09,51.44 312.3,52.14 312.48,52.84C312.65,53.53 312.78,54.22 312.89,54.92C313,55.61 313.06,56.31 313.13,57.01C313.2,57.7 313.24,58.4 313.29,59.09C313.34,59.78 313.38,60.48 313.43,61.17C313.48,61.87 313.54,62.56 313.61,63.26C313.67,63.95 313.75,64.65 313.82,65.34C313.89,66.04 313.97,66.73 314.05,67.43C314.13,68.12 314.21,68.82 314.29,69.51C314.37,70.21 314.45,70.9 314.53,71.6C314.61,72.29 314.7,72.99 314.78,73.68C314.86,74.38 314.94,75.07 315.02,75.77C315.1,76.46 315.17,77.16 315.24,77.85C315.31,78.55 315.38,79.24 315.44,79.94C315.5,80.63 315.56,81.33 315.6,82.02C315.65,82.72 315.68,83.41 315.71,84.11Q315.74,84.8 315.78,86.19Z" style="vector-effect: none; stroke-width: 0.5px; stroke: rgb(0, 0, 0); stroke-opacity: 1; fill: rgb(185, 178, 194); fill-opacity: 1;"/><path class="meanline" d="M328.97113037109375,29.8H302.7488696289063" style="fill: none; vector-effect: none; stroke-width: 0.5px; stroke-dasharray: 1px, 0.5px; stroke: rgb(0, 0, 0); stroke-opacity: 1;"/></g><g class="trace violins" style="opacity: 1;"><path class="violin" d="M373.4,69.42Q373.46,68.21 373.5,67.61C373.54,67.01 373.6,66.4 373.65,65.8C373.71,65.2 373.77,64.59 373.83,63.99C373.89,63.39 373.97,62.78 374.03,62.18C374.09,61.58 374.15,60.97 374.2,60.37C374.25,59.76 374.29,59.16 374.32,58.55C374.35,57.95 374.37,57.34 374.38,56.74C374.39,56.14 374.39,55.53 374.39,54.93C374.39,54.33 374.38,53.72 374.39,53.12C374.4,52.52 374.4,51.91 374.43,51.31C374.46,50.71 374.49,50.1 374.55,49.5C374.61,48.89 374.7,48.28 374.81,47.68C374.93,47.07 375.07,46.47 375.24,45.87C375.41,45.26 375.62,44.66 375.85,44.06C376.09,43.45 376.37,42.85 376.66,42.25C376.96,41.64 377.29,41.04 377.62,40.44C377.95,39.83 378.31,39.23 378.65,38.62C378.98,38.02 379.32,37.42 379.63,36.81C379.93,36.21 380.22,35.61 380.47,35C380.71,34.4 380.91,33.8 381.09,33.19C381.27,32.59 381.4,31.99 381.53,31.38C381.66,30.78 381.74,30.17 381.85,29.57C381.97,28.96 382.07,28.35 382.22,27.75C382.37,27.14 382.54,26.54 382.76,25.94C382.99,25.33 383.26,24.73 383.57,24.13C383.88,23.52 384.26,22.92 384.63,22.32C385,21.71 385.42,21.12 385.78,20.51C386.13,19.91 386.51,19.32 386.78,18.7C387.04,18.11 387.28,17.49 387.36,16.88C387.44,16.28 387.42,15.66 387.29,15.07C387.15,14.45 386.86,13.84 386.51,13.26C386.13,12.63 385.6,12.04 385.07,11.45C384.5,10.83 383.84,10.24 383.19,9.64C382.52,9.03 381.8,8.44 381.11,7.83C380.43,7.23 379.73,6.63 379.09,6.01C378.47,5.42 377.86,4.82 377.32,4.2C376.81,3.61 376.33,3.01 375.91,2.39C375.51,1.8 375.16,1.19 374.87,0.58C374.59,-0.01 374.36,-0.62 374.17,-1.23C373.98,-1.83 373.85,-2.43 373.74,-3.04Q373.63,-3.64 373.5,-4.86L373.07,-4.86Q372.94,-3.64 372.83,-3.04C372.72,-2.43 372.59,-1.83 372.4,-1.23C372.21,-0.62 371.98,-0.01 371.7,0.58C371.41,1.19 371.07,1.8 370.67,2.39C370.25,3.01 369.77,3.61 369.25,4.2C368.71,4.82 368.1,5.42 367.48,6.01C366.84,6.63 366.14,7.23 365.46,7.83C364.77,8.44 364.05,9.03 363.38,9.64C362.73,10.24 362.07,10.83 361.5,11.45C360.97,12.04 360.44,12.63 360.06,13.26C359.71,13.84 359.42,14.45 359.28,15.07C359.15,15.66 359.14,16.28 359.22,16.88C359.3,17.49 359.53,18.11 359.79,18.7C360.06,19.32 360.44,19.91 360.8,20.51C361.16,21.12 361.58,21.71 361.95,22.32C362.31,22.92 362.69,23.52 363,24.13C363.3,24.73 363.58,25.33 363.81,25.94C364.03,26.54 364.2,27.14 364.35,27.75C364.5,28.35 364.6,28.96 364.72,29.57C364.84,30.17 364.92,30.78 365.05,31.38C365.18,31.99 365.31,32.59 365.48,33.19C365.66,33.8 365.86,34.4 366.1,35C366.35,35.61 366.64,36.21 366.94,36.81C367.25,37.42 367.59,38.02 367.92,38.62C368.26,39.23 368.62,39.83 368.95,40.44C369.28,41.04 369.61,41.64 369.91,42.25C370.2,42.85 370.48,43.45 370.72,44.06C370.96,44.66 371.17,45.26 371.34,45.87C371.51,46.47 371.65,47.07 371.76,47.68C371.87,48.28 371.96,48.89 372.02,49.5C372.08,50.1 372.11,50.71 372.14,51.31C372.17,51.91 372.17,52.52 372.18,53.12C372.19,53.72 372.18,54.33 372.18,54.93C372.18,55.53 372.18,56.14 372.19,56.74C372.2,57.34 372.22,57.95 372.25,58.55C372.28,59.16 372.32,59.76 372.37,60.37C372.42,60.97 372.48,61.58 372.54,62.18C372.6,62.78 372.68,63.39 372.74,63.99C372.8,64.59 372.86,65.2 372.92,65.8C372.97,66.4 373.03,67.01 373.07,67.61Q373.11,68.21 373.17,69.42Z" style="vector-effect: none; stroke-width: 0.5px; stroke: rgb(0, 0, 0); stroke-opacity: 1; fill: rgb(181, 174, 112); fill-opacity: 1;"/><path class="meanline" d="M384.1201171875,23.15H362.45988281250004" style="fill: none; vector-effect: none; stroke-width: 0.5px; stroke-dasharray: 1px, 0.5px; stroke: rgb(0, 0, 0); stroke-opacity: 1;"/></g></g></g><g class="overplot"/><path class="xlines-above crisp" d="M52.5,221.25H455" style="fill: none; stroke-width: 0.5px; stroke: rgb(0, 0, 0); stroke-opacity: 1;"/><path class="ylines-above crisp" d="M52.75,20V221" style="fill: none; stroke-width: 0.5px; stroke: rgb(0, 0, 0); stroke-opacity: 1;"/><g class="overlines-above"/><g class="xaxislayer-above"><path class="xtick ticks crisp" d="M0,221.5v5" transform="translate(81.71000000000001,0)" style="stroke: rgb(68, 68, 68); stroke-opacity: 1; stroke-width: 0.5px;"/><path class="xtick ticks crisp" d="M0,221.5v5" transform="translate(139.14,0)" style="stroke: rgb(68, 68, 68); stroke-opacity: 1; stroke-width: 0.5px;"/><path class="xtick ticks crisp" d="M0,221.5v5" transform="translate(196.57,0)" style="stroke: rgb(68, 68, 68); stroke-opacity: 1; stroke-width: 0.5px;"/><path class="xtick ticks crisp" d="M0,221.5v5" transform="translate(254,0)" style="stroke: rgb(68, 68, 68); stroke-opacity: 1; stroke-width: 0.5px;"/><path class="xtick ticks crisp" d="M0,221.5v5" transform="translate(311.43,0)" style="stroke: rgb(68, 68, 68); stroke-opacity: 1; stroke-width: 0.5px;"/><path class="xtick ticks crisp" d="M0,221.5v5" transform="translate(368.86,0)" style="stroke: rgb(68, 68, 68); stroke-opacity: 1; stroke-width: 0.5px;"/><path class="xtick ticks crisp" d="M0,221.5v5" transform="translate(426.29,0)" style="stroke: rgb(68, 68, 68); stroke-opacity: 1; stroke-width: 0.5px;"/><g class="xtick"><text text-anchor="start" x="0" y="240.9" transform="translate(81.71000000000001,0) rotate(30,0,234.9)" style="font-family: Helvetica; font-size: 12px; fill: rgb(0, 0, 0); fill-opacity: 1; white-space: pre; opacity: 1;">canonical (t/d)</text></g><g class="xtick"><text text-anchor="start" x="0" y="240.9" transform="translate(139.14,0) rotate(30,0,234.9)" style="font-family: Helvetica; font-size: 12px; fill: rgb(0, 0, 0); fill-opacity: 1; white-space: pre; opacity: 1;">canonical (PISCES)</text></g><g class="xtick"><text text-anchor="start" x="0" y="240.9" transform="translate(196.57,0) rotate(30,0,234.9)" style="font-family: Helvetica; font-size: 12px; fill: rgb(0, 0, 0); fill-opacity: 1; white-space: pre; opacity: 1;">spliced</text></g><g class="xtick"><text text-anchor="start" x="0" y="240.9" transform="translate(254,0) rotate(30,0,234.9)" style="font-family: Helvetica; font-size: 12px; fill: rgb(0, 0, 0); fill-opacity: 1; white-space: pre; opacity: 1;">multimapped</text></g><g class="xtick"><text text-anchor="start" x="0" y="240.9" transform="translate(311.43,0) rotate(30,0,234.9)" style="font-family: Helvetica; font-size: 12px; fill: rgb(0, 0, 0); fill-opacity: 1; white-space: pre; opacity: 1;">cryptic</text></g><g class="xtick"><text text-anchor="start" x="0" y="240.9" transform="translate(368.86,0) rotate(30,0,234.9)" style="font-family: Helvetica; font-size: 12px; fill: rgb(0, 0, 0); fill-opacity: 1; white-space: pre; opacity: 1;">unmapped</text></g><g class="xtick"><text text-anchor="start" x="0" y="240.9" transform="translate(426.29,0) rotate(30,0,234.9)" style="font-family: Helvetica; font-size: 12px; fill: rgb(0, 0, 0); fill-opacity: 1; white-space: pre; opacity: 1;">contaminants</text></g></g><g class="yaxislayer-above"><path class="ytick ticks crisp" d="M52.5,0h-5" transform="translate(0,221)" style="stroke: rgb(68, 68, 68); stroke-opacity: 1; stroke-width: 0.5px;"/><path class="ytick ticks crisp" d="M52.5,0h-5" transform="translate(0,180.8)" style="stroke: rgb(68, 68, 68); stroke-opacity: 1; stroke-width: 0.5px;"/><path class="ytick ticks crisp" d="M52.5,0h-5" transform="translate(0,140.6)" style="stroke: rgb(68, 68, 68); stroke-opacity: 1; stroke-width: 0.5px;"/><path class="ytick ticks crisp" d="M52.5,0h-5" transform="translate(0,100.4)" style="stroke: rgb(68, 68, 68); stroke-opacity: 1; stroke-width: 0.5px;"/><path class="ytick ticks crisp" d="M52.5,0h-5" transform="translate(0,60.2)" style="stroke: rgb(68, 68, 68); stroke-opacity: 1; stroke-width: 0.5px;"/><path class="ytick ticks crisp" d="M52.5,0h-5" transform="translate(0,20)" style="stroke: rgb(68, 68, 68); stroke-opacity: 1; stroke-width: 0.5px;"/><g class="ytick"><text text-anchor="end" x="45.1" y="4.199999999999999" transform="translate(0,221)" style="font-family: Helvetica; font-size: 12px; fill: rgb(0, 0, 0); fill-opacity: 1; white-space: pre; opacity: 1;">0</text></g><g class="ytick"><text text-anchor="end" x="45.1" y="4.199999999999999" style="font-family: Helvetica; font-size: 12px; fill: rgb(0, 0, 0); fill-opacity: 1; white-space: pre; opacity: 1;" transform="translate(0,180.8)">0.2</text></g><g class="ytick"><text text-anchor="end" x="45.1" y="4.199999999999999" style="font-family: Helvetica; font-size: 12px; fill: rgb(0, 0, 0); fill-opacity: 1; white-space: pre; opacity: 1;" transform="translate(0,140.6)">0.4</text></g><g class="ytick"><text text-anchor="end" x="45.1" y="4.199999999999999" style="font-family: Helvetica; font-size: 12px; fill: rgb(0, 0, 0); fill-opacity: 1; white-space: pre; opacity: 1;" transform="translate(0,100.4)">0.6</text></g><g class="ytick"><text text-anchor="end" x="45.1" y="4.199999999999999" style="font-family: Helvetica; font-size: 12px; fill: rgb(0, 0, 0); fill-opacity: 1; white-space: pre; opacity: 1;" transform="translate(0,60.2)">0.8</text></g><g class="ytick"><text text-anchor="end" x="45.1" y="4.199999999999999" style="font-family: Helvetica; font-size: 12px; fill: rgb(0, 0, 0); fill-opacity: 1; white-space: pre; opacity: 1;" transform="translate(0,20)">1</text></g></g><g class="overaxes-above"/></g></g><g class="polarlayer"/><g class="smithlayer"/><g class="ternarylayer"/><g class="geolayer"/><g class="funnelarealayer"/><g class="pielayer"/><g class="iciclelayer"/><g class="treemaplayer"/><g class="sunburstlayer"/><g class="glimages"/><defs id="topdefs-c36204"><g class="clips"/></defs><g class="layer-above"><g class="imagelayer"/><g class="shapelayer"/></g><g class="infolayer"><g class="g-gtitle"/><g class="g-xtitle"/><g class="g-ytitle" transform="translate(12.4560546875,0)"><text class="ytitle" transform="rotate(-90,0.5437500000000028,120.5)" x="0.5437500000000028" y="120.5" text-anchor="middle" style="font-family: Helvetica; font-size: 14px; fill: rgb(0, 0, 0); opacity: 1; font-weight: normal; white-space: pre;">Spectral Angle</text></g></g></svg>