<svg class="main-svg" xmlns="http://www.w3.org/2000/svg" xmlns:xlink="http://www.w3.org/1999/xlink" width="500" height="300" style="" viewBox="0 0 500 300"><rect x="0" y="0" width="500" height="300" style="fill: rgb(255, 255, 255); fill-opacity: 1;"/><defs id="defs-915e00"><g class="clips"><clipPath id="clip915e00xyplot" class="plotclip"><rect width="417" height="205"/></clipPath><clipPath class="axesclip" id="clip915e00x"><rect x="49" y="0" width="417" height="300"/></clipPath><clipPath class="axesclip" id="clip915e00y"><rect x="0" y="20" width="500" height="205"/></clipPath><clipPath class="axesclip" id="clip915e00xy"><rect x="49" y="20" width="417" height="205"/></clipPath></g><g class="gradients"/><g class="patterns"/></defs><g class="bglayer"><rect class="bg" x="49" y="20" width="417" height="205" style="fill: rgb(0, 0, 0); fill-opacity: 0; stroke-width: 0;"/></g><g class="layer-below"><g class="imagelayer"/><g class="shapelayer"/></g><g class="cartesianlayer"><g class="subplot xy"><g class="layer-subplot"><g class="shapelayer"/><g class="imagelayer"/></g><g class="minor-gridlayer"><g class="x"/><g class="y"/></g><g class="gridlayer"><g class="x"/><g class="y"/></g><g class="zerolinelayer"/><path class="xlines-below"/><path class="ylines-below"/><g class="overlines-below"/><g class="xaxislayer-below"/><g class="yaxislayer-below"/><g class="overaxes-below"/><g class="plot" transform="translate(49,20)" clip-path="url(#clip915e00xyplot)"><g class="violinlayer mlayer"><g class="trace violins" style="opacity: 1;"><path class="violin" d="M29.79,202.77Q29.79,201.64 29.79,201.08C29.79,200.52 29.8,199.95 29.8,199.39C29.8,198.82 29.8,198.26 29.8,197.69C29.8,197.13 29.81,196.56 29.81,196C29.81,195.44 29.81,194.87 29.81,194.31C29.81,193.74 29.82,193.18 29.82,192.61C29.82,192.05 29.82,191.48 29.82,190.92C29.82,190.36 29.81,189.79 29.81,189.23C29.81,188.66 29.81,188.1 29.81,187.53C29.81,186.97 29.81,186.4 29.81,185.84C29.81,185.28 29.81,184.71 29.81,184.15C29.81,183.58 29.81,183.02 29.81,182.45C29.81,181.89 29.82,181.32 29.82,180.76C29.83,180.2 29.83,179.63 29.84,179.07C29.85,178.51 29.85,177.94 29.86,177.38C29.87,176.81 29.87,176.25 29.88,175.68C29.89,175.12 29.89,174.55 29.9,173.99C29.91,173.43 29.92,172.86 29.92,172.3C29.93,171.73 29.93,171.17 29.93,170.6C29.93,170.04 29.94,169.47 29.94,168.91C29.94,168.35 29.95,167.78 29.95,167.22C29.95,166.65 29.95,166.09 29.95,165.52C29.95,164.96 29.96,164.39 29.97,163.83C29.98,163.27 29.98,162.7 29.99,162.14C30,161.57 30.02,161.01 30.03,160.44C30.04,159.88 30.05,159.31 30.07,158.75C30.09,158.19 30.11,157.62 30.13,157.06C30.15,156.49 30.16,155.93 30.18,155.36C30.19,154.8 30.21,154.23 30.22,153.67C30.23,153.11 30.25,152.54 30.26,151.98C30.27,151.42 30.28,150.85 30.28,150.29C30.29,149.72 30.29,149.16 30.29,148.59C30.29,148.03 30.29,147.46 30.29,146.9C30.29,146.34 30.29,145.77 30.29,145.21C30.29,144.64 30.28,144.08 30.28,143.51C30.28,142.95 30.28,142.38 30.28,141.82C30.28,141.26 30.28,140.69 30.28,140.13C30.28,139.56 30.28,139 30.28,138.43C30.28,137.87 30.29,137.3 30.3,136.74C30.31,136.18 30.33,135.61 30.34,135.05C30.36,134.48 30.37,133.92 30.39,133.35C30.41,132.79 30.44,132.22 30.47,131.66C30.5,131.1 30.54,130.53 30.57,129.97C30.6,129.41 30.64,128.84 30.67,128.28C30.7,127.71 30.74,127.15 30.77,126.58C30.8,126.02 30.83,125.45 30.86,124.89C30.89,124.33 30.92,123.76 30.94,123.2C30.96,122.63 30.98,122.07 31,121.5C31.02,120.94 31.03,120.37 31.04,119.81C31.05,119.25 31.07,118.68 31.08,118.12C31.09,117.55 31.11,116.99 31.12,116.42C31.13,115.86 31.15,115.29 31.16,114.73C31.18,114.17 31.19,113.6 31.21,113.04C31.23,112.47 31.25,111.91 31.27,111.34C31.29,110.78 31.31,110.21 31.34,109.65C31.37,109.09 31.4,108.52 31.44,107.96C31.48,107.39 31.52,106.83 31.56,106.26C31.6,105.7 31.65,105.13 31.7,104.57C31.75,104.01 31.82,103.44 31.88,102.88C31.94,102.32 32.01,101.75 32.08,101.19C32.15,100.62 32.21,100.06 32.28,99.49C32.35,98.93 32.42,98.36 32.49,97.8C32.56,97.24 32.62,96.67 32.68,96.11C32.74,95.54 32.81,94.98 32.87,94.41C32.93,93.85 32.98,93.28 33.04,92.72C33.1,92.16 33.16,91.59 33.22,91.03C33.28,90.46 33.34,89.9 33.4,89.33C33.46,88.77 33.52,88.2 33.58,87.64C33.65,87.08 33.72,86.51 33.79,85.95C33.86,85.38 33.94,84.82 34.02,84.25C34.1,83.69 34.19,83.12 34.29,82.56C34.39,82 34.5,81.43 34.62,80.87C34.74,80.3 34.88,79.73 35.02,79.17C35.16,78.6 35.32,78.04 35.48,77.48C35.64,76.92 35.81,76.35 35.98,75.79C36.15,75.23 36.32,74.66 36.48,74.1C36.64,73.53 36.8,72.97 36.96,72.4C37.12,71.84 37.27,71.27 37.42,70.71C37.57,70.15 37.7,69.58 37.84,69.02C37.98,68.45 38.11,67.89 38.25,67.32C38.39,66.76 38.52,66.19 38.66,65.63C38.8,65.07 38.94,64.5 39.09,63.94C39.24,63.37 39.39,62.81 39.54,62.24C39.69,61.68 39.85,61.11 40.01,60.55C40.17,59.99 40.33,59.42 40.49,58.86C40.65,58.29 40.81,57.73 40.97,57.16C41.13,56.6 41.29,56.03 41.44,55.47C41.59,54.91 41.73,54.34 41.87,53.78C42.01,53.21 42.14,52.65 42.27,52.08C42.4,51.52 42.52,50.95 42.64,50.39C42.76,49.83 42.88,49.26 42.99,48.7C43.1,48.14 43.21,47.57 43.32,47.01C43.43,46.44 43.54,45.88 43.65,45.31C43.75,44.75 43.86,44.18 43.95,43.62C44.04,43.06 44.13,42.5 44.2,41.93C44.27,41.37 44.32,40.8 44.35,40.23C44.38,39.67 44.39,39.1 44.38,38.54C44.37,37.98 44.33,37.41 44.28,36.85C44.23,36.28 44.15,35.71 44.06,35.15C43.97,34.58 43.87,34.02 43.75,33.46C43.63,32.9 43.49,32.33 43.35,31.77C43.21,31.2 43.06,30.63 42.9,30.07C42.74,29.5 42.58,28.94 42.41,28.38C42.24,27.82 42.06,27.25 41.88,26.69C41.7,26.13 41.51,25.56 41.31,25C41.11,24.43 40.91,23.86 40.7,23.3C40.49,22.73 40.27,22.17 40.05,21.61C39.83,21.05 39.6,20.48 39.36,19.92C39.12,19.35 38.87,18.78 38.61,18.22C38.35,17.65 38.08,17.09 37.8,16.53C37.52,15.97 37.23,15.4 36.94,14.84C36.65,14.27 36.34,13.7 36.04,13.14C35.73,12.57 35.42,12.01 35.11,11.45C34.8,10.89 34.48,10.33 34.17,9.76C33.86,9.2 33.55,8.63 33.26,8.06C32.97,7.5 32.69,6.94 32.42,6.37C32.16,5.81 31.9,5.25 31.67,4.68C31.44,4.12 31.24,3.55 31.06,2.98C30.88,2.42 30.72,1.86 30.59,1.29C30.46,0.73 30.35,0.16 30.26,-0.4C30.17,-0.96 30.11,-1.53 30.05,-2.09C29.99,-2.66 29.95,-3.22 29.92,-3.79C29.89,-4.35 29.87,-4.92 29.85,-5.48Q29.83,-6.04 29.81,-7.17L29.76,-7.17Q29.74,-6.04 29.72,-5.48C29.7,-4.92 29.68,-4.35 29.65,-3.79C29.62,-3.22 29.59,-2.65 29.53,-2.09C29.47,-1.52 29.4,-0.96 29.31,-0.4C29.22,0.16 29.11,0.73 28.98,1.29C28.85,1.86 28.69,2.42 28.51,2.98C28.33,3.55 28.12,4.12 27.9,4.68C27.67,5.25 27.42,5.81 27.16,6.37C26.89,6.94 26.6,7.5 26.31,8.06C26.02,8.63 25.71,9.2 25.4,9.76C25.09,10.33 24.78,10.89 24.47,11.45C24.16,12.01 23.84,12.57 23.53,13.14C23.22,13.7 22.92,14.27 22.63,14.84C22.34,15.4 22.05,15.97 21.77,16.53C21.49,17.09 21.22,17.65 20.96,18.22C20.7,18.78 20.45,19.35 20.21,19.92C19.97,20.48 19.74,21.05 19.52,21.61C19.3,22.17 19.08,22.73 18.87,23.3C18.66,23.86 18.46,24.43 18.26,25C18.06,25.56 17.87,26.13 17.69,26.69C17.51,27.25 17.33,27.82 17.16,28.38C16.99,28.94 16.83,29.5 16.67,30.07C16.51,30.63 16.36,31.2 16.22,31.77C16.08,32.33 15.95,32.9 15.83,33.46C15.71,34.02 15.6,34.58 15.51,35.15C15.42,35.71 15.34,36.28 15.29,36.85C15.24,37.41 15.2,37.98 15.19,38.54C15.18,39.1 15.19,39.67 15.22,40.23C15.25,40.8 15.31,41.36 15.38,41.93C15.45,42.49 15.53,43.06 15.62,43.62C15.71,44.18 15.82,44.75 15.92,45.31C16.03,45.88 16.14,46.44 16.25,47.01C16.36,47.57 16.47,48.14 16.58,48.7C16.69,49.26 16.81,49.83 16.93,50.39C17.05,50.95 17.17,51.52 17.3,52.08C17.43,52.65 17.56,53.21 17.7,53.78C17.84,54.34 17.98,54.91 18.13,55.47C18.28,56.03 18.44,56.6 18.6,57.16C18.76,57.73 18.92,58.29 19.08,58.86C19.24,59.42 19.4,59.99 19.56,60.55C19.72,61.11 19.88,61.68 20.03,62.24C20.18,62.81 20.33,63.37 20.48,63.94C20.63,64.5 20.77,65.07 20.91,65.63C21.05,66.19 21.18,66.76 21.32,67.32C21.46,67.89 21.59,68.45 21.73,69.02C21.87,69.58 22.01,70.15 22.16,70.71C22.31,71.27 22.46,71.84 22.61,72.4C22.77,72.97 22.93,73.53 23.09,74.1C23.25,74.66 23.42,75.23 23.59,75.79C23.76,76.35 23.93,76.92 24.09,77.48C24.25,78.04 24.41,78.6 24.55,79.17C24.69,79.73 24.83,80.3 24.95,80.87C25.07,81.43 25.18,82 25.28,82.56C25.38,83.12 25.47,83.69 25.55,84.25C25.63,84.82 25.71,85.38 25.78,85.95C25.85,86.51 25.92,87.08 25.99,87.64C26.06,88.2 26.12,88.77 26.18,89.33C26.24,89.9 26.3,90.46 26.36,91.03C26.42,91.59 26.47,92.16 26.53,92.72C26.59,93.28 26.65,93.85 26.71,94.41C26.77,94.98 26.83,95.54 26.89,96.11C26.95,96.67 27.02,97.24 27.09,97.8C27.16,98.36 27.22,98.93 27.29,99.49C27.36,100.06 27.43,100.62 27.5,101.19C27.57,101.75 27.63,102.32 27.69,102.88C27.75,103.44 27.81,104.01 27.87,104.57C27.92,105.13 27.98,105.7 28.02,106.26C28.07,106.83 28.1,107.39 28.14,107.96C28.17,108.52 28.2,109.09 28.23,109.65C28.26,110.21 28.28,110.78 28.3,111.34C28.32,111.91 28.34,112.47 28.36,113.04C28.38,113.6 28.39,114.17 28.41,114.73C28.43,115.29 28.45,115.86 28.46,116.42C28.47,116.99 28.48,117.55 28.49,118.12C28.5,118.68 28.52,119.25 28.53,119.81C28.55,120.37 28.56,120.94 28.58,121.5C28.6,122.07 28.62,122.63 28.64,123.2C28.66,123.76 28.68,124.33 28.71,124.89C28.74,125.45 28.77,126.02 28.8,126.58C28.83,127.15 28.87,127.71 28.91,128.28C28.94,128.84 28.98,129.41 29.01,129.97C29.04,130.53 29.07,131.1 29.1,131.66C29.13,132.22 29.16,132.79 29.18,133.35C29.2,133.92 29.22,134.48 29.24,135.05C29.25,135.61 29.26,136.18 29.27,136.74C29.28,137.3 29.29,137.87 29.29,138.43C29.3,139 29.3,139.56 29.3,140.13C29.3,140.69 29.29,141.26 29.29,141.82C29.29,142.38 29.29,142.95 29.29,143.51C29.29,144.08 29.28,144.64 29.28,145.21C29.28,145.77 29.28,146.34 29.28,146.9C29.28,147.46 29.28,148.03 29.28,148.59C29.28,149.16 29.28,149.72 29.29,150.29C29.29,150.85 29.3,151.42 29.31,151.98C29.32,152.54 29.34,153.11 29.35,153.67C29.36,154.23 29.38,154.8 29.39,155.36C29.41,155.93 29.42,156.49 29.44,157.06C29.46,157.62 29.48,158.19 29.5,158.75C29.52,159.31 29.53,159.88 29.54,160.44C29.55,161.01 29.57,161.57 29.58,162.14C29.59,162.7 29.59,163.27 29.6,163.83C29.61,164.39 29.62,164.96 29.62,165.52C29.63,166.09 29.63,166.65 29.63,167.22C29.63,167.78 29.63,168.35 29.63,168.91C29.63,169.47 29.64,170.04 29.64,170.6C29.64,171.17 29.64,171.73 29.65,172.3C29.65,172.86 29.66,173.43 29.67,173.99C29.68,174.55 29.68,175.12 29.69,175.68C29.7,176.25 29.7,176.81 29.71,177.38C29.72,177.94 29.72,178.51 29.73,179.07C29.74,179.63 29.74,180.2 29.75,180.76C29.75,181.32 29.76,181.89 29.76,182.45C29.76,183.02 29.77,183.58 29.77,184.15C29.77,184.71 29.77,185.28 29.77,185.84C29.77,186.4 29.76,186.97 29.76,187.53C29.76,188.1 29.76,188.66 29.76,189.23C29.76,189.79 29.76,190.36 29.76,190.92C29.76,191.48 29.75,192.05 29.75,192.61C29.75,193.18 29.76,193.74 29.76,194.31C29.76,194.87 29.76,195.44 29.76,196C29.76,196.56 29.77,197.13 29.77,197.69C29.77,198.26 29.77,198.82 29.77,199.39C29.77,199.95 29.78,200.52 29.78,201.08Q29.78,201.64 29.78,202.77Z" style="vector-effect: none; stroke-width: 0.5px; stroke: rgb(0, 0, 0); stroke-opacity: 1; fill: rgb(244, 191, 145); fill-opacity: 1;"/><path class="meanline" d="M42.32935333251953,51.82H17.250646667480467" style="fill: none; vector-effect: none; stroke-width: 0.5px; stroke-dasharray: 1px, 0.5px; stroke: rgb(0, 0, 0); stroke-opacity: 1;"/></g><g class="trace violins" style="opacity: 1;"><path class="violin" d="M89.36,172.25Q89.36,171.62 89.36,171.3C89.36,170.99 89.36,170.67 89.36,170.36C89.36,170.05 89.36,169.73 89.36,169.42C89.36,169.1 89.37,168.79 89.37,168.47C89.37,168.16 89.37,167.84 89.37,167.53C89.37,167.21 89.37,166.9 89.37,166.58C89.37,166.27 89.37,165.95 89.37,165.64C89.37,165.33 89.37,165.01 89.37,164.7C89.37,164.38 89.37,164.07 89.37,163.75C89.37,163.44 89.37,163.12 89.37,162.81C89.37,162.49 89.37,162.18 89.37,161.86C89.37,161.55 89.37,161.23 89.37,160.92C89.37,160.6 89.37,160.29 89.37,159.97C89.37,159.66 89.36,159.34 89.36,159.03C89.36,158.72 89.36,158.4 89.36,158.09C89.36,157.77 89.36,157.46 89.36,157.14C89.36,156.83 89.37,156.51 89.37,156.2C89.37,155.88 89.37,155.57 89.37,155.25C89.37,154.94 89.37,154.62 89.37,154.31C89.37,154 89.38,153.68 89.38,153.37C89.38,153.05 89.39,152.74 89.39,152.42C89.39,152.11 89.39,151.79 89.39,151.48C89.39,151.16 89.39,150.85 89.39,150.53C89.39,150.22 89.39,149.9 89.39,149.59C89.39,149.28 89.39,148.96 89.39,148.65C89.39,148.33 89.39,148.02 89.39,147.7C89.39,147.39 89.39,147.07 89.39,146.76C89.39,146.44 89.39,146.13 89.39,145.81C89.39,145.5 89.4,145.18 89.4,144.87C89.4,144.56 89.4,144.24 89.4,143.93C89.4,143.61 89.4,143.3 89.4,142.98C89.4,142.67 89.4,142.35 89.4,142.04C89.4,141.72 89.4,141.41 89.4,141.09C89.4,140.78 89.4,140.46 89.4,140.15C89.4,139.83 89.41,139.52 89.41,139.2C89.41,138.89 89.41,138.57 89.41,138.26C89.41,137.95 89.41,137.63 89.41,137.32C89.41,137 89.42,136.69 89.42,136.37C89.42,136.06 89.42,135.74 89.42,135.43C89.42,135.11 89.43,134.8 89.43,134.48C89.43,134.17 89.43,133.85 89.43,133.54C89.43,133.23 89.44,132.91 89.44,132.6C89.44,132.28 89.45,131.97 89.45,131.65C89.45,131.34 89.46,131.02 89.46,130.71C89.46,130.39 89.47,130.08 89.47,129.76C89.47,129.45 89.48,129.13 89.48,128.82C89.48,128.51 89.48,128.19 89.48,127.88C89.48,127.56 89.48,127.25 89.48,126.93C89.48,126.62 89.48,126.3 89.48,125.99C89.48,125.67 89.48,125.36 89.48,125.04C89.48,124.73 89.49,124.41 89.49,124.1C89.49,123.79 89.49,123.47 89.49,123.16C89.49,122.84 89.49,122.53 89.5,122.21C89.5,121.9 89.52,121.58 89.52,121.27C89.53,120.95 89.53,120.64 89.53,120.32C89.53,120.01 89.53,119.69 89.53,119.38C89.53,119.06 89.54,118.75 89.54,118.43C89.54,118.12 89.54,117.8 89.54,117.49C89.54,117.18 89.54,116.86 89.54,116.55C89.54,116.23 89.54,115.92 89.54,115.6C89.54,115.29 89.54,114.97 89.54,114.66C89.54,114.34 89.55,114.03 89.55,113.71C89.55,113.4 89.55,113.08 89.55,112.77C89.55,112.46 89.55,112.14 89.55,111.83C89.55,111.51 89.55,111.2 89.55,110.88C89.55,110.57 89.54,110.25 89.54,109.94C89.54,109.62 89.54,109.31 89.54,108.99C89.54,108.68 89.54,108.36 89.54,108.05C89.54,107.74 89.55,107.42 89.55,107.11C89.55,106.79 89.55,106.48 89.56,106.16C89.56,105.85 89.57,105.53 89.58,105.22C89.59,104.9 89.6,104.59 89.61,104.27C89.62,103.96 89.63,103.64 89.64,103.33C89.65,103.02 89.65,102.7 89.66,102.39C89.67,102.07 89.68,101.76 89.69,101.44C89.7,101.13 89.7,100.81 89.7,100.5C89.7,100.18 89.7,99.87 89.7,99.55C89.7,99.24 89.7,98.92 89.7,98.61C89.7,98.3 89.7,97.98 89.7,97.67C89.7,97.35 89.71,97.04 89.71,96.72C89.71,96.41 89.71,96.09 89.72,95.78C89.73,95.46 89.74,95.15 89.75,94.83C89.76,94.52 89.77,94.2 89.78,93.89C89.79,93.57 89.8,93.26 89.81,92.94C89.82,92.63 89.83,92.31 89.84,92C89.85,91.69 89.86,91.37 89.87,91.06C89.88,90.74 89.88,90.43 89.89,90.11C89.9,89.8 89.9,89.48 89.91,89.17C89.92,88.85 89.93,88.54 89.94,88.22C89.95,87.91 89.96,87.59 89.97,87.28C89.98,86.97 90,86.65 90.02,86.34C90.04,86.02 90.06,85.71 90.08,85.39C90.1,85.08 90.13,84.76 90.15,84.45C90.18,84.13 90.2,83.82 90.23,83.5C90.26,83.19 90.29,82.87 90.32,82.56C90.35,82.25 90.39,81.93 90.42,81.62C90.45,81.3 90.48,80.99 90.51,80.67C90.54,80.36 90.57,80.04 90.59,79.73C90.61,79.41 90.63,79.1 90.65,78.78C90.66,78.47 90.67,78.15 90.68,77.84C90.69,77.53 90.69,77.21 90.69,76.9C90.69,76.58 90.69,76.27 90.69,75.95C90.69,75.64 90.68,75.32 90.68,75.01C90.68,74.69 90.67,74.38 90.67,74.06C90.67,73.75 90.68,73.43 90.68,73.12C90.69,72.8 90.69,72.49 90.7,72.17C90.71,71.86 90.72,71.54 90.73,71.23C90.74,70.92 90.76,70.6 90.78,70.29C90.8,69.97 90.82,69.66 90.85,69.34C90.87,69.03 90.9,68.71 90.93,68.4C90.96,68.08 90.99,67.77 91.02,67.45C91.05,67.14 91.09,66.82 91.12,66.51C91.16,66.2 91.19,65.88 91.23,65.57C91.27,65.25 91.31,64.94 91.35,64.62C91.39,64.31 91.43,63.99 91.47,63.68C91.51,63.36 91.55,63.05 91.59,62.73C91.63,62.42 91.68,62.1 91.73,61.79C91.78,61.48 91.84,61.16 91.89,60.85C91.95,60.53 92,60.22 92.06,59.9C92.12,59.59 92.18,59.27 92.24,58.96C92.3,58.64 92.36,58.33 92.43,58.01C92.49,57.7 92.56,57.38 92.63,57.07C92.7,56.76 92.77,56.44 92.84,56.13C92.91,55.81 92.98,55.5 93.05,55.18C93.12,54.87 93.18,54.55 93.25,54.24C93.32,53.92 93.39,53.61 93.45,53.29C93.51,52.98 93.57,52.66 93.63,52.35C93.69,52.03 93.75,51.72 93.81,51.4C93.87,51.09 93.92,50.77 93.97,50.46C94.02,50.15 94.07,49.83 94.12,49.52C94.17,49.2 94.23,48.89 94.29,48.57C94.35,48.26 94.41,47.94 94.48,47.63C94.55,47.31 94.62,46.99 94.7,46.68C94.78,46.36 94.87,46.05 94.96,45.74C95.05,45.43 95.15,45.11 95.26,44.8C95.37,44.48 95.49,44.16 95.61,43.85C95.73,43.53 95.86,43.22 95.99,42.91C96.13,42.59 96.27,42.27 96.42,41.96C96.57,41.64 96.72,41.33 96.89,41.02C97.06,40.7 97.25,40.39 97.43,40.08C97.62,39.76 97.8,39.44 98,39.13C98.2,38.81 98.41,38.5 98.61,38.19C98.81,37.87 99.02,37.56 99.22,37.24C99.42,36.93 99.63,36.61 99.83,36.3C100.03,35.99 100.23,35.68 100.42,35.36C100.61,35.05 100.81,34.73 100.99,34.41C101.17,34.1 101.35,33.79 101.52,33.47C101.69,33.16 101.86,32.84 102.02,32.52C102.18,32.21 102.34,31.9 102.48,31.58C102.62,31.27 102.75,30.96 102.87,30.64C102.99,30.33 103.11,30.01 103.21,29.69C103.31,29.38 103.39,29.07 103.47,28.75C103.54,28.44 103.61,28.12 103.66,27.8C103.71,27.49 103.75,27.17 103.79,26.86C103.83,26.54 103.86,26.23 103.88,25.91C103.9,25.6 103.92,25.28 103.93,24.97C103.94,24.66 103.95,24.34 103.95,24.03C103.95,23.71 103.94,23.4 103.92,23.08C103.9,22.77 103.87,22.45 103.82,22.14C103.77,21.82 103.71,21.5 103.62,21.19C103.53,20.87 103.42,20.56 103.3,20.25C103.17,19.93 103.03,19.62 102.87,19.31C102.71,18.99 102.53,18.67 102.34,18.36C102.15,18.04 101.95,17.73 101.74,17.42C101.53,17.1 101.32,16.78 101.09,16.47C100.86,16.15 100.63,15.84 100.38,15.53C100.13,15.21 99.87,14.9 99.6,14.59C99.33,14.27 99.06,13.95 98.77,13.64C98.48,13.32 98.17,13.01 97.86,12.7C97.55,12.38 97.23,12.06 96.9,11.75C96.57,11.43 96.23,11.12 95.9,10.81C95.57,10.5 95.23,10.19 94.9,9.87C94.57,9.56 94.25,9.24 93.94,8.92C93.63,8.61 93.33,8.3 93.04,7.98C92.76,7.67 92.48,7.35 92.22,7.03C91.97,6.72 91.73,6.41 91.51,6.09C91.29,5.78 91.09,5.46 90.91,5.14C90.73,4.83 90.57,4.52 90.43,4.2C90.29,3.89 90.17,3.58 90.06,3.26C89.95,2.95 89.87,2.63 89.79,2.31C89.72,2 89.66,1.69 89.61,1.37C89.56,1.06 89.53,0.74 89.5,0.42C89.47,0.11 89.45,-0.21 89.43,-0.52C89.41,-0.83 89.4,-1.15 89.39,-1.46C89.38,-1.78 89.38,-2.09 89.37,-2.41Q89.37,-2.72 89.36,-3.35L89.35,-3.35Q89.34,-2.72 89.34,-2.41C89.33,-2.09 89.33,-1.78 89.32,-1.46C89.31,-1.15 89.3,-0.83 89.28,-0.52C89.26,-0.21 89.25,0.11 89.22,0.42C89.19,0.74 89.15,1.05 89.1,1.37C89.05,1.68 88.99,2 88.92,2.31C88.85,2.63 88.76,2.95 88.66,3.26C88.55,3.58 88.43,3.89 88.29,4.2C88.15,4.52 87.99,4.83 87.81,5.14C87.63,5.46 87.43,5.78 87.21,6.09C86.99,6.41 86.74,6.72 86.49,7.03C86.23,7.35 85.95,7.67 85.67,7.98C85.38,8.3 85.08,8.61 84.77,8.92C84.46,9.24 84.14,9.56 83.81,9.87C83.48,10.19 83.14,10.5 82.81,10.81C82.48,11.12 82.15,11.43 81.82,11.75C81.5,12.06 81.17,12.38 80.86,12.7C80.55,13.01 80.24,13.32 79.95,13.64C79.66,13.95 79.38,14.27 79.11,14.59C78.84,14.9 78.59,15.21 78.34,15.53C78.1,15.84 77.86,16.15 77.63,16.47C77.4,16.78 77.18,17.1 76.97,17.42C76.76,17.73 76.56,18.04 76.37,18.36C76.18,18.67 76.01,18.99 75.85,19.31C75.69,19.62 75.54,19.93 75.41,20.25C75.29,20.56 75.19,20.87 75.1,21.19C75.01,21.5 74.94,21.82 74.89,22.14C74.84,22.45 74.81,22.77 74.79,23.08C74.77,23.4 74.76,23.71 74.76,24.03C74.76,24.34 74.77,24.66 74.78,24.97C74.79,25.28 74.82,25.6 74.84,25.91C74.87,26.23 74.89,26.54 74.93,26.86C74.97,27.17 75.01,27.49 75.06,27.8C75.11,28.12 75.18,28.44 75.25,28.75C75.33,29.07 75.41,29.38 75.51,29.69C75.61,30.01 75.72,30.33 75.84,30.64C75.96,30.96 76.1,31.27 76.24,31.58C76.38,31.89 76.53,32.21 76.69,32.52C76.85,32.84 77.02,33.16 77.19,33.47C77.36,33.79 77.55,34.1 77.73,34.41C77.91,34.73 78.1,35.05 78.29,35.36C78.48,35.68 78.68,35.99 78.88,36.3C79.08,36.61 79.29,36.93 79.49,37.24C79.7,37.56 79.91,37.87 80.11,38.19C80.31,38.5 80.51,38.81 80.71,39.13C80.91,39.44 81.1,39.76 81.29,40.08C81.47,40.39 81.65,40.7 81.82,41.02C81.99,41.33 82.15,41.64 82.3,41.96C82.45,42.27 82.59,42.59 82.73,42.91C82.86,43.22 82.99,43.53 83.11,43.85C83.23,44.16 83.34,44.48 83.45,44.8C83.56,45.11 83.65,45.43 83.75,45.74C83.84,46.05 83.94,46.36 84.02,46.68C84.1,46.99 84.17,47.31 84.24,47.63C84.31,47.94 84.37,48.26 84.43,48.57C84.49,48.89 84.54,49.2 84.59,49.52C84.64,49.83 84.7,50.15 84.75,50.46C84.8,50.77 84.86,51.09 84.91,51.4C84.97,51.72 85.02,52.03 85.08,52.35C85.14,52.66 85.21,52.98 85.27,53.29C85.34,53.61 85.4,53.92 85.47,54.24C85.54,54.55 85.6,54.87 85.67,55.18C85.74,55.5 85.8,55.81 85.87,56.13C85.94,56.44 86.01,56.76 86.08,57.07C86.15,57.38 86.21,57.7 86.28,58.01C86.35,58.33 86.42,58.64 86.48,58.96C86.54,59.27 86.6,59.59 86.66,59.9C86.72,60.22 86.78,60.53 86.83,60.85C86.88,61.16 86.93,61.48 86.98,61.79C87.03,62.1 87.08,62.42 87.12,62.73C87.17,63.05 87.21,63.36 87.25,63.68C87.29,63.99 87.33,64.31 87.37,64.62C87.41,64.94 87.44,65.25 87.48,65.57C87.52,65.88 87.55,66.2 87.59,66.51C87.62,66.82 87.66,67.14 87.69,67.45C87.72,67.77 87.75,68.08 87.78,68.4C87.81,68.71 87.84,69.03 87.86,69.34C87.89,69.66 87.91,69.97 87.93,70.29C87.95,70.6 87.96,70.92 87.98,71.23C87.99,71.54 88.01,71.86 88.02,72.17C88.03,72.49 88.04,72.8 88.04,73.12C88.04,73.43 88.04,73.75 88.04,74.06C88.04,74.38 88.04,74.69 88.04,75.01C88.04,75.32 88.03,75.64 88.03,75.95C88.03,76.27 88.02,76.58 88.02,76.9C88.02,77.21 88.02,77.53 88.03,77.84C88.04,78.15 88.05,78.47 88.07,78.78C88.09,79.1 88.11,79.41 88.13,79.73C88.15,80.04 88.17,80.36 88.2,80.67C88.23,80.99 88.27,81.3 88.3,81.62C88.33,81.93 88.36,82.25 88.39,82.56C88.42,82.87 88.45,83.19 88.48,83.5C88.51,83.82 88.53,84.13 88.56,84.45C88.59,84.76 88.62,85.08 88.64,85.39C88.66,85.71 88.68,86.02 88.7,86.34C88.72,86.65 88.73,86.97 88.74,87.28C88.75,87.59 88.77,87.91 88.78,88.22C88.79,88.54 88.8,88.85 88.81,89.17C88.82,89.48 88.82,89.8 88.83,90.11C88.84,90.43 88.84,90.74 88.85,91.06C88.86,91.37 88.86,91.69 88.87,92C88.88,92.31 88.89,92.63 88.9,92.94C88.91,93.26 88.93,93.57 88.94,93.89C88.95,94.2 88.96,94.52 88.97,94.83C88.98,95.15 88.98,95.46 88.99,95.78C89,96.09 89.01,96.41 89.01,96.72C89.01,97.04 89.01,97.35 89.01,97.67C89.01,97.98 89.01,98.3 89.01,98.61C89.01,98.92 89.01,99.24 89.01,99.55C89.01,99.87 89.02,100.18 89.02,100.5C89.02,100.81 89.03,101.13 89.03,101.44C89.04,101.76 89.04,102.07 89.05,102.39C89.06,102.7 89.07,103.02 89.08,103.33C89.09,103.64 89.1,103.96 89.11,104.27C89.12,104.59 89.12,104.9 89.13,105.22C89.14,105.53 89.15,105.85 89.15,106.16C89.16,106.48 89.16,106.79 89.16,107.11C89.16,107.42 89.17,107.74 89.17,108.05C89.17,108.36 89.17,108.68 89.17,108.99C89.17,109.31 89.17,109.62 89.17,109.94C89.17,110.25 89.17,110.57 89.17,110.88C89.17,111.2 89.17,111.51 89.17,111.83C89.17,112.14 89.17,112.46 89.17,112.77C89.17,113.08 89.17,113.4 89.17,113.71C89.17,114.03 89.17,114.34 89.17,114.66C89.17,114.97 89.17,115.29 89.17,115.6C89.17,115.92 89.17,116.23 89.17,116.55C89.17,116.86 89.18,117.18 89.18,117.49C89.18,117.8 89.18,118.12 89.18,118.43C89.18,118.75 89.18,119.06 89.18,119.38C89.18,119.69 89.19,120.01 89.19,120.32C89.19,120.64 89.2,120.95 89.2,121.27C89.2,121.58 89.21,121.9 89.21,122.21C89.21,122.53 89.22,122.84 89.22,123.16C89.22,123.47 89.23,123.79 89.23,124.1C89.23,124.41 89.23,124.73 89.23,125.04C89.23,125.36 89.23,125.67 89.23,125.99C89.23,126.3 89.23,126.62 89.23,126.93C89.23,127.25 89.23,127.56 89.23,127.88C89.23,128.19 89.24,128.51 89.24,128.82C89.24,129.13 89.25,129.45 89.25,129.76C89.25,130.08 89.25,130.39 89.25,130.71C89.25,131.02 89.26,131.34 89.26,131.65C89.26,131.97 89.27,132.28 89.27,132.6C89.27,132.91 89.28,133.23 89.28,133.54C89.28,133.85 89.29,134.17 89.29,134.48C89.29,134.8 89.29,135.11 89.29,135.43C89.29,135.74 89.3,136.06 89.3,136.37C89.3,136.69 89.3,137 89.3,137.32C89.3,137.63 89.3,137.95 89.3,138.26C89.3,138.57 89.31,138.89 89.31,139.2C89.31,139.52 89.31,139.83 89.31,140.15C89.31,140.46 89.31,140.78 89.31,141.09C89.31,141.41 89.31,141.72 89.31,142.04C89.31,142.35 89.32,142.67 89.32,142.98C89.32,143.3 89.32,143.61 89.32,143.93C89.32,144.24 89.32,144.56 89.32,144.87C89.32,145.18 89.32,145.5 89.32,145.81C89.32,146.13 89.32,146.44 89.32,146.76C89.32,147.07 89.32,147.39 89.32,147.7C89.32,148.02 89.32,148.33 89.32,148.65C89.32,148.96 89.32,149.28 89.32,149.59C89.32,149.9 89.32,150.22 89.32,150.53C89.32,150.85 89.33,151.16 89.33,151.48C89.33,151.79 89.33,152.11 89.33,152.42C89.33,152.74 89.33,153.05 89.33,153.37C89.33,153.68 89.34,154 89.34,154.31C89.34,154.62 89.34,154.94 89.34,155.25C89.34,155.57 89.35,155.88 89.35,156.2C89.35,156.51 89.35,156.83 89.35,157.14C89.35,157.46 89.35,157.77 89.35,158.09C89.35,158.4 89.35,158.72 89.35,159.03C89.35,159.34 89.35,159.66 89.35,159.97C89.35,160.29 89.35,160.6 89.35,160.92C89.35,161.23 89.34,161.55 89.34,161.86C89.34,162.18 89.34,162.49 89.34,162.81C89.34,163.12 89.34,163.44 89.34,163.75C89.34,164.07 89.34,164.38 89.34,164.7C89.34,165.01 89.34,165.33 89.34,165.64C89.34,165.95 89.34,166.27 89.34,166.58C89.34,166.9 89.35,167.21 89.35,167.53C89.35,167.84 89.35,168.16 89.35,168.47C89.35,168.79 89.35,169.1 89.35,169.42C89.35,169.73 89.35,170.05 89.35,170.36C89.35,170.67 89.35,170.99 89.35,171.3Q89.35,171.62 89.36,172.25Z" style="vector-effect: none; stroke-width: 0.5px; stroke: rgb(0, 0, 0); stroke-opacity: 1; fill: rgb(236, 154, 86); fill-opacity: 1;"/><path class="meanline" d="M101.0768051147461,34.26H77.6431948852539" style="fill: none; vector-effect: none; stroke-width: 0.5px; stroke-dasharray: 1px, 0.5px; stroke: rgb(0, 0, 0); stroke-opacity: 1;"/></g><g class="trace violins" style="opacity: 1;"><path class="violin" d="M149.11,98.01Q149.19,96.9 149.25,96.35C149.31,95.8 149.38,95.24 149.46,94.69C149.54,94.14 149.63,93.58 149.72,93.03C149.8,92.48 149.89,91.92 149.97,91.37C150.04,90.82 150.12,90.26 150.17,89.71C150.22,89.16 150.25,88.6 150.25,88.05C150.25,87.5 150.24,86.94 150.2,86.39C150.16,85.84 150.09,85.28 150.02,84.73C149.95,84.18 149.85,83.62 149.77,83.07C149.69,82.52 149.6,81.96 149.52,81.41C149.44,80.86 149.36,80.31 149.3,79.76C149.23,79.21 149.18,78.65 149.13,78.1C149.09,77.55 149.06,76.99 149.03,76.44C149.01,75.89 148.99,75.33 148.98,74.78C148.97,74.23 148.96,73.67 148.95,73.12C148.94,72.57 148.94,72.01 148.94,71.46C148.94,70.91 148.93,70.35 148.93,69.8C148.93,69.25 148.93,68.69 148.93,68.14C148.93,67.59 148.93,67.03 148.93,66.48C148.93,65.93 148.93,65.37 148.93,64.82C148.93,64.27 148.93,63.72 148.93,63.17C148.93,62.62 148.93,62.06 148.93,61.51C148.93,60.96 148.94,60.4 148.94,59.85C148.95,59.3 148.95,58.74 148.96,58.19C148.97,57.64 148.98,57.08 149,56.53C149.02,55.98 149.05,55.42 149.09,54.87C149.13,54.32 149.17,53.76 149.23,53.21C149.29,52.66 149.37,52.1 149.46,51.55C149.55,51 149.66,50.44 149.78,49.89C149.9,49.34 150.03,48.78 150.17,48.23C150.31,47.68 150.46,47.12 150.61,46.57C150.76,46.02 150.92,45.47 151.08,44.92C151.24,44.37 151.4,43.81 151.57,43.26C151.74,42.71 151.91,42.15 152.11,41.6C152.31,41.04 152.51,40.49 152.75,39.94C152.99,39.38 153.26,38.83 153.55,38.28C153.84,37.72 154.17,37.17 154.5,36.62C154.83,36.06 155.19,35.51 155.54,34.96C155.88,34.41 156.24,33.86 156.57,33.3C156.9,32.75 157.22,32.2 157.54,31.64C157.85,31.09 158.14,30.53 158.46,29.98C158.78,29.42 159.11,28.87 159.47,28.32C159.84,27.76 160.24,27.22 160.64,26.67C161.05,26.11 161.51,25.57 161.91,25.01C162.3,24.46 162.74,23.92 163.01,23.35C163.26,22.81 163.5,22.25 163.52,21.69C163.54,21.14 163.39,20.55 163.13,20.03C162.83,19.44 162.29,18.89 161.74,18.37C161.12,17.78 160.32,17.25 159.56,16.71C158.76,16.14 157.86,15.61 157.02,15.05C156.19,14.5 155.33,13.96 154.56,13.39C153.84,12.85 153.13,12.31 152.52,11.73C151.96,11.2 151.43,10.65 151.01,10.08C150.62,9.55 150.3,8.99 150.04,8.42Q149.79,7.88 149.46,6.76L148.39,6.76Q148.07,7.88 147.82,8.42C147.56,8.99 147.23,9.55 146.84,10.08C146.42,10.65 145.9,11.2 145.34,11.73C144.73,12.31 144.02,12.85 143.29,13.39C142.52,13.96 141.67,14.5 140.84,15.05C140,15.61 139.1,16.14 138.29,16.71C137.53,17.25 136.74,17.78 136.12,18.37C135.57,18.89 135.03,19.44 134.73,20.03C134.47,20.55 134.31,21.14 134.33,21.69C134.35,22.25 134.59,22.81 134.85,23.35C135.12,23.92 135.56,24.46 135.95,25.01C136.35,25.57 136.81,26.11 137.22,26.67C137.62,27.22 138.02,27.76 138.39,28.32C138.75,28.87 139.07,29.42 139.39,29.98C139.71,30.53 140,31.09 140.32,31.64C140.64,32.19 140.96,32.75 141.29,33.3C141.62,33.86 141.98,34.41 142.32,34.96C142.67,35.51 143.03,36.06 143.36,36.62C143.69,37.17 144.02,37.72 144.31,38.28C144.6,38.83 144.86,39.38 145.1,39.94C145.34,40.49 145.54,41.04 145.74,41.6C145.94,42.15 146.11,42.71 146.28,43.26C146.45,43.81 146.61,44.37 146.77,44.92C146.93,45.47 147.09,46.02 147.24,46.57C147.39,47.12 147.55,47.68 147.69,48.23C147.83,48.78 147.96,49.34 148.08,49.89C148.2,50.44 148.31,51 148.4,51.55C148.49,52.1 148.56,52.66 148.62,53.21C148.68,53.76 148.73,54.32 148.77,54.87C148.81,55.42 148.83,55.98 148.85,56.53C148.87,57.08 148.89,57.64 148.9,58.19C148.91,58.74 148.92,59.3 148.92,59.85C148.92,60.4 148.92,60.96 148.92,61.51C148.92,62.06 148.93,62.62 148.93,63.17C148.93,63.72 148.93,64.27 148.93,64.82C148.93,65.37 148.93,65.93 148.93,66.48C148.93,67.03 148.93,67.59 148.93,68.14C148.93,68.69 148.93,69.25 148.93,69.8C148.93,70.35 148.92,70.91 148.92,71.46C148.92,72.01 148.92,72.57 148.91,73.12C148.9,73.67 148.89,74.23 148.88,74.78C148.86,75.33 148.85,75.89 148.82,76.44C148.79,76.99 148.76,77.55 148.72,78.1C148.68,78.65 148.62,79.21 148.56,79.76C148.5,80.31 148.42,80.86 148.34,81.41C148.26,81.96 148.16,82.52 148.08,83.07C148,83.62 147.91,84.18 147.84,84.73C147.77,85.28 147.7,85.84 147.66,86.39C147.62,86.94 147.61,87.5 147.61,88.05C147.61,88.6 147.64,89.16 147.69,89.71C147.74,90.26 147.82,90.82 147.89,91.37C147.97,91.92 148.06,92.48 148.14,93.03C148.22,93.58 148.31,94.14 148.39,94.69C148.47,95.24 148.54,95.8 148.6,96.35Q148.66,96.9 148.75,98.01Z" style="vector-effect: none; stroke-width: 0.5px; stroke: rgb(0, 0, 0); stroke-opacity: 1; fill: rgb(155, 191, 229); fill-opacity: 1;"/><path class="meanline" d="M158.95947265625,29.13H138.90052734375" style="fill: none; vector-effect: none; stroke-width: 0.5px; stroke-dasharray: 1px, 0.5px; stroke: rgb(0, 0, 0); stroke-opacity: 1;"/></g><g class="trace violins" style="opacity: 1;"><path class="violin" d="M208.54,125.86Q208.56,124.53 208.58,123.87C208.6,123.21 208.62,122.54 208.64,121.88C208.66,121.22 208.68,120.56 208.7,119.9C208.72,119.24 208.74,118.57 208.76,117.91C208.78,117.25 208.8,116.59 208.81,115.93C208.82,115.27 208.83,114.6 208.83,113.94C208.83,113.28 208.83,112.61 208.82,111.95C208.81,111.29 208.79,110.63 208.77,109.97C208.75,109.31 208.73,108.64 208.71,107.98C208.69,107.32 208.67,106.65 208.66,105.99C208.65,105.33 208.63,104.67 208.63,104.01C208.63,103.35 208.63,102.68 208.64,102.02C208.65,101.36 208.67,100.69 208.7,100.03C208.73,99.37 208.76,98.71 208.8,98.05C208.84,97.39 208.88,96.72 208.92,96.06C208.96,95.4 209,94.73 209.04,94.07C209.07,93.41 209.11,92.75 209.13,92.09C209.15,91.43 209.16,90.76 209.16,90.1C209.16,89.44 209.15,88.77 209.13,88.11C209.11,87.45 209.07,86.79 209.03,86.13C208.99,85.47 208.95,84.8 208.91,84.14C208.87,83.48 208.84,82.82 208.81,82.16C208.78,81.5 208.76,80.83 208.75,80.17C208.74,79.51 208.75,78.84 208.77,78.18C208.79,77.52 208.83,76.86 208.88,76.2C208.93,75.54 209.01,74.87 209.09,74.21C209.18,73.55 209.27,72.88 209.39,72.22C209.51,71.56 209.65,70.9 209.79,70.24C209.93,69.58 210.1,68.91 210.25,68.25C210.4,67.59 210.56,66.92 210.71,66.26C210.85,65.6 211,64.94 211.12,64.28C211.24,63.62 211.34,62.95 211.42,62.29C211.5,61.63 211.56,60.96 211.6,60.3C211.64,59.64 211.66,58.98 211.68,58.32C211.7,57.66 211.7,56.99 211.71,56.33C211.72,55.67 211.73,55.01 211.75,54.35C211.78,53.69 211.81,53.02 211.86,52.36C211.91,51.7 211.98,51.03 212.06,50.37C212.14,49.71 212.23,49.05 212.35,48.39C212.47,47.73 212.6,47.06 212.76,46.4C212.92,45.73 213.11,45.07 213.33,44.41C213.55,43.74 213.81,43.08 214.1,42.43C214.4,41.76 214.74,41.09 215.12,40.44C215.51,39.77 215.94,39.1 216.39,38.45C216.86,37.78 217.38,37.13 217.89,36.47C218.41,35.8 218.96,35.15 219.47,34.48C219.98,33.82 220.51,33.16 220.96,32.49C221.4,31.84 221.82,31.19 222.15,30.51C222.46,29.86 222.73,29.19 222.89,28.52C223.04,27.87 223.11,27.2 223.1,26.54C223.09,25.88 222.97,25.21 222.83,24.55C222.69,23.88 222.46,23.22 222.24,22.56C222.01,21.89 221.74,21.24 221.48,20.58C221.22,19.92 220.95,19.25 220.67,18.59C220.39,17.93 220.12,17.26 219.82,16.6C219.52,15.94 219.21,15.27 218.86,14.62C218.5,13.95 218.12,13.28 217.7,12.63C217.27,11.96 216.8,11.3 216.31,10.64C215.82,9.97 215.28,9.32 214.76,8.66C214.24,8 213.7,7.34 213.19,6.67C212.69,6.01 212.19,5.35 211.75,4.68C211.32,4.03 210.92,3.37 210.58,2.7C210.25,2.05 209.96,1.38 209.72,0.71C209.49,0.05 209.3,-0.61 209.15,-1.28Q209,-1.94 208.82,-3.26L208.18,-3.26Q208,-1.94 207.85,-1.28C207.7,-0.61 207.51,0.05 207.28,0.71C207.04,1.38 206.75,2.05 206.42,2.7C206.08,3.37 205.68,4.03 205.25,4.68C204.81,5.35 204.31,6.01 203.81,6.67C203.3,7.34 202.76,8 202.24,8.66C201.72,9.32 201.18,9.97 200.69,10.64C200.2,11.3 199.73,11.96 199.3,12.63C198.88,13.28 198.5,13.95 198.14,14.62C197.79,15.27 197.48,15.94 197.18,16.6C196.88,17.26 196.61,17.93 196.33,18.59C196.05,19.25 195.78,19.92 195.52,20.58C195.26,21.24 194.99,21.89 194.76,22.56C194.54,23.22 194.31,23.88 194.17,24.55C194.03,25.21 193.91,25.88 193.9,26.54C193.89,27.2 193.96,27.87 194.11,28.52C194.27,29.19 194.54,29.86 194.85,30.51C195.18,31.19 195.6,31.84 196.04,32.49C196.49,33.16 197.02,33.82 197.53,34.48C198.04,35.15 198.59,35.8 199.11,36.47C199.62,37.13 200.14,37.78 200.61,38.45C201.06,39.1 201.49,39.77 201.88,40.44C202.26,41.09 202.6,41.76 202.9,42.43C203.19,43.08 203.45,43.74 203.67,44.41C203.89,45.07 204.08,45.73 204.24,46.4C204.4,47.06 204.53,47.73 204.65,48.39C204.77,49.05 204.86,49.71 204.94,50.37C205.02,51.03 205.09,51.7 205.14,52.36C205.19,53.02 205.22,53.69 205.25,54.35C205.27,55.01 205.28,55.67 205.29,56.33C205.3,56.99 205.3,57.66 205.32,58.32C205.34,58.98 205.36,59.64 205.4,60.3C205.44,60.96 205.5,61.63 205.58,62.29C205.66,62.95 205.76,63.62 205.88,64.28C206,64.94 206.15,65.6 206.29,66.26C206.44,66.92 206.6,67.59 206.75,68.25C206.9,68.91 207.07,69.58 207.21,70.24C207.35,70.9 207.49,71.56 207.61,72.22C207.73,72.88 207.82,73.55 207.91,74.21C207.99,74.87 208.07,75.54 208.12,76.2C208.17,76.86 208.21,77.52 208.23,78.18C208.25,78.84 208.26,79.51 208.25,80.17C208.24,80.83 208.22,81.5 208.19,82.16C208.16,82.82 208.13,83.48 208.09,84.14C208.05,84.8 208.01,85.47 207.97,86.13C207.93,86.79 207.89,87.45 207.87,88.11C207.85,88.77 207.84,89.44 207.84,90.1C207.84,90.76 207.85,91.43 207.87,92.09C207.89,92.75 207.93,93.41 207.96,94.07C208,94.73 208.04,95.4 208.08,96.06C208.12,96.72 208.16,97.39 208.2,98.05C208.24,98.71 208.27,99.37 208.3,100.03C208.33,100.69 208.35,101.36 208.36,102.02C208.37,102.68 208.37,103.35 208.37,104.01C208.37,104.67 208.35,105.33 208.34,105.99C208.33,106.65 208.31,107.32 208.29,107.98C208.27,108.64 208.25,109.31 208.23,109.97C208.21,110.63 208.19,111.29 208.18,111.95C208.17,112.61 208.17,113.28 208.17,113.94C208.17,114.6 208.18,115.27 208.19,115.93C208.2,116.59 208.22,117.25 208.24,117.91C208.26,118.57 208.28,119.24 208.3,119.9C208.32,120.56 208.34,121.22 208.36,121.88C208.38,122.54 208.4,123.21 208.42,123.87Q208.44,124.53 208.46,125.86Z" style="vector-effect: none; stroke-width: 0.5px; stroke: rgb(0, 0, 0); stroke-opacity: 1; fill: rgb(138, 165, 61); fill-opacity: 1;"/><path class="meanline" d="M221.43484497070312,31.77H195.56515502929688" style="fill: none; vector-effect: none; stroke-width: 0.5px; stroke-dasharray: 1px, 0.5px; stroke: rgb(0, 0, 0); stroke-opacity: 1;"/></g><g class="trace violins" style="opacity: 1;"><path class="violin" d="M268.23,79.63Q268.31,77.96 268.37,77.13C268.43,76.3 268.5,75.46 268.58,74.63C268.66,73.8 268.76,72.96 268.86,72.13C268.97,71.3 269.09,70.46 269.21,69.63C269.33,68.8 269.47,67.96 269.6,67.13C269.73,66.3 269.86,65.46 269.99,64.63C270.12,63.8 270.25,62.96 270.37,62.13C270.49,61.3 270.6,60.46 270.72,59.63C270.84,58.8 270.95,57.96 271.08,57.13C271.21,56.3 271.34,55.46 271.5,54.63C271.66,53.79 271.83,52.96 272.05,52.13C272.27,51.29 272.53,50.46 272.84,49.63C273.16,48.79 273.52,47.95 273.93,47.13C274.35,46.29 274.83,45.45 275.33,44.63C275.84,43.79 276.41,42.96 276.97,42.13C277.54,41.29 278.15,40.47 278.71,39.63C279.27,38.8 279.84,37.98 280.33,37.13C280.81,36.31 281.27,35.48 281.63,34.63C281.97,33.81 282.27,32.97 282.44,32.13C282.61,31.31 282.69,30.46 282.67,29.63C282.65,28.8 282.5,27.95 282.31,27.13C282.11,26.29 281.8,25.45 281.48,24.63C281.15,23.79 280.74,22.97 280.34,22.14C279.94,21.3 279.5,20.47 279.08,19.64C278.66,18.81 278.22,17.98 277.81,17.14C277.4,16.31 277,15.47 276.6,14.64C276.21,13.81 275.82,12.97 275.44,12.14C275.06,11.31 274.68,10.47 274.3,9.64C273.93,8.81 273.55,7.97 273.19,7.14C272.83,6.31 272.47,5.48 272.13,4.64C271.79,3.81 271.46,2.98 271.15,2.14C270.85,1.31 270.56,0.48 270.3,-0.36C270.04,-1.19 269.81,-2.02 269.6,-2.86C269.39,-3.69 269.22,-4.52 269.06,-5.36C268.91,-6.19 268.78,-7.03 268.67,-7.86C268.56,-8.69 268.47,-9.53 268.4,-10.36Q268.33,-11.19 268.24,-12.86L267.9,-12.86Q267.81,-11.19 267.74,-10.36C267.67,-9.53 267.59,-8.69 267.48,-7.86C267.37,-7.03 267.24,-6.19 267.08,-5.36C266.92,-4.52 266.75,-3.69 266.54,-2.86C266.33,-2.02 266.1,-1.19 265.84,-0.36C265.58,0.48 265.29,1.31 264.99,2.14C264.69,2.98 264.36,3.81 264.02,4.64C263.68,5.48 263.31,6.31 262.95,7.14C262.59,7.97 262.21,8.81 261.84,9.64C261.47,10.47 261.09,11.31 260.71,12.14C260.33,12.97 259.94,13.81 259.54,14.64C259.14,15.47 258.74,16.31 258.33,17.14C257.92,17.97 257.49,18.81 257.07,19.64C256.65,20.47 256.2,21.3 255.8,22.14C255.4,22.97 254.99,23.79 254.66,24.63C254.34,25.45 254.03,26.29 253.83,27.13C253.64,27.95 253.5,28.8 253.48,29.63C253.46,30.46 253.53,31.31 253.7,32.13C253.87,32.97 254.17,33.81 254.51,34.63C254.87,35.48 255.33,36.31 255.81,37.13C256.3,37.98 256.88,38.8 257.44,39.63C258,40.47 258.61,41.29 259.17,42.13C259.73,42.96 260.3,43.79 260.81,44.63C261.31,45.45 261.8,46.29 262.22,47.13C262.63,47.95 263,48.79 263.31,49.63C263.62,50.46 263.87,51.29 264.09,52.13C264.31,52.96 264.49,53.79 264.65,54.63C264.81,55.46 264.93,56.3 265.06,57.13C265.19,57.96 265.3,58.8 265.42,59.63C265.54,60.46 265.65,61.3 265.77,62.13C265.89,62.96 266.02,63.8 266.15,64.63C266.28,65.46 266.41,66.3 266.54,67.13C266.67,67.96 266.81,68.8 266.93,69.63C267.05,70.46 267.17,71.3 267.28,72.13C267.39,72.96 267.49,73.8 267.57,74.63C267.65,75.46 267.72,76.3 267.78,77.13Q267.84,77.96 267.91,79.63Z" style="vector-effect: none; stroke-width: 0.5px; stroke: rgb(0, 0, 0); stroke-opacity: 1; fill: rgb(186, 105, 190); fill-opacity: 1;"/><path class="meanline" d="M282.6722412109375,30H253.4677587890625" style="fill: none; vector-effect: none; stroke-width: 0.5px; stroke-dasharray: 1px, 0.5px; stroke: rgb(0, 0, 0); stroke-opacity: 1;"/></g><g class="trace violins" style="opacity: 1;"><path class="violin" d="M327.84,159.77Q327.94,157 328,155.61C328.07,154.22 328.15,152.84 328.23,151.45C328.32,150.06 328.42,148.68 328.51,147.29C328.6,145.9 328.71,144.52 328.79,143.13C328.87,141.74 328.95,140.36 329,138.97C329.05,137.58 329.08,136.2 329.08,134.81C329.08,133.42 329.05,132.04 329.01,130.65C328.96,129.26 328.89,127.88 328.81,126.49C328.73,125.11 328.63,123.72 328.54,122.34C328.45,120.95 328.35,119.57 328.26,118.18C328.17,116.79 328.09,115.41 328.02,114.02C327.95,112.63 327.9,111.25 327.85,109.86C327.81,108.47 327.78,107.09 327.75,105.7C327.72,104.31 327.7,102.93 327.69,101.54C327.68,100.15 327.68,98.77 327.68,97.38C327.68,95.99 327.69,94.61 327.7,93.22C327.71,91.83 327.72,90.45 327.76,89.06C327.79,87.68 327.84,86.29 327.91,84.91C327.98,83.52 328.06,82.14 328.18,80.75C328.31,79.36 328.46,77.97 328.66,76.59C328.86,75.2 329.1,73.81 329.4,72.43C329.7,71.04 330.05,69.65 330.45,68.27C330.85,66.88 331.3,65.49 331.79,64.11C332.28,62.72 332.83,61.33 333.39,59.95C333.95,58.56 334.55,57.18 335.14,55.79C335.73,54.4 336.34,53.02 336.92,51.63C337.5,50.25 338.08,48.86 338.6,47.47C339.12,46.09 339.61,44.71 340.04,43.32C340.46,41.94 340.84,40.55 341.15,39.16C341.46,37.78 341.71,36.39 341.89,35C342.07,33.62 342.19,32.23 342.24,30.84C342.29,29.45 342.28,28.06 342.19,26.68C342.1,25.29 341.95,23.9 341.72,22.52C341.49,21.13 341.18,19.74 340.8,18.36C340.41,16.96 339.93,15.58 339.4,14.2C338.86,12.8 338.23,11.42 337.59,10.04C336.94,8.65 336.23,7.27 335.54,5.88C334.85,4.5 334.13,3.12 333.47,1.73C332.82,0.35 332.18,-1.03 331.62,-2.43C331.07,-3.81 330.56,-5.19 330.14,-6.59C329.72,-7.97 329.38,-9.36 329.09,-10.75C328.8,-12.13 328.58,-13.52 328.4,-14.91Q328.22,-16.29 328.01,-19.07L327.28,-19.07Q327.06,-16.29 326.88,-14.91C326.7,-13.52 326.49,-12.13 326.2,-10.75C325.91,-9.36 325.56,-7.97 325.14,-6.59C324.71,-5.19 324.21,-3.81 323.66,-2.43C323.1,-1.03 322.46,0.35 321.81,1.73C321.16,3.12 320.44,4.5 319.75,5.88C319.06,7.27 318.34,8.65 317.69,10.04C317.05,11.42 316.42,12.8 315.88,14.2C315.35,15.58 314.88,16.96 314.49,18.36C314.11,19.74 313.79,21.13 313.56,22.52C313.33,23.9 313.18,25.29 313.1,26.68C313.02,28.06 313,29.45 313.05,30.84C313.1,32.23 313.21,33.62 313.39,35C313.57,36.39 313.82,37.78 314.13,39.16C314.44,40.55 314.83,41.94 315.25,43.32C315.68,44.71 316.17,46.09 316.69,47.47C317.21,48.86 317.79,50.25 318.36,51.63C318.94,53.02 319.55,54.4 320.14,55.79C320.73,57.18 321.33,58.56 321.89,59.95C322.45,61.33 323,62.72 323.49,64.11C323.98,65.49 324.44,66.88 324.84,68.27C325.24,69.65 325.58,71.04 325.88,72.43C326.18,73.81 326.42,75.2 326.62,76.59C326.82,77.97 326.97,79.36 327.1,80.75C327.23,82.14 327.31,83.52 327.38,84.91C327.45,86.29 327.49,87.68 327.52,89.06C327.56,90.45 327.58,91.83 327.59,93.22C327.6,94.61 327.61,95.99 327.61,97.38C327.61,98.77 327.6,100.15 327.59,101.54C327.58,102.93 327.57,104.31 327.54,105.7C327.51,107.09 327.48,108.47 327.43,109.86C327.38,111.25 327.33,112.63 327.26,114.02C327.19,115.41 327.11,116.79 327.03,118.18C326.94,119.57 326.84,120.95 326.75,122.34C326.66,123.72 326.55,125.11 326.47,126.49C326.39,127.88 326.32,129.26 326.27,130.65C326.23,132.04 326.2,133.42 326.2,134.81C326.2,136.2 326.24,137.58 326.29,138.97C326.34,140.36 326.42,141.74 326.5,143.13C326.58,144.52 326.69,145.9 326.78,147.29C326.87,148.68 326.97,150.06 327.06,151.45C327.14,152.84 327.22,154.22 327.29,155.61Q327.35,157 327.45,159.77Z" style="vector-effect: none; stroke-width: 0.5px; stroke: rgb(0, 0, 0); stroke-opacity: 1; fill: rgb(185, 178, 194); fill-opacity: 1;"/><path class="meanline" d="M341.647216796875,36.63H313.632783203125" style="fill: none; vector-effect: none; stroke-width: 0.5px; stroke-dasharray: 1px, 0.5px; stroke: rgb(0, 0, 0); stroke-opacity: 1;"/></g><g class="trace violins" style="opacity: 1;"><path class="violin" d="M387.31,66.21Q387.35,65.14 387.38,64.6C387.41,64.07 387.45,63.53 387.49,63C387.53,62.46 387.58,61.93 387.62,61.39C387.66,60.86 387.71,60.32 387.75,59.79C387.79,59.25 387.84,58.72 387.87,58.18C387.9,57.65 387.92,57.11 387.94,56.58C387.96,56.04 387.97,55.51 387.98,54.97C387.99,54.44 387.98,53.9 387.99,53.37C388,52.84 388,52.3 388.02,51.77C388.04,51.23 388.06,50.7 388.1,50.16C388.14,49.63 388.19,49.09 388.26,48.56C388.33,48.02 388.41,47.48 388.51,46.95C388.61,46.41 388.73,45.88 388.86,45.35C388.99,44.81 389.13,44.27 389.29,43.74C389.45,43.2 389.63,42.67 389.81,42.14C390,41.6 390.2,41.06 390.4,40.53C390.6,39.99 390.82,39.46 391.03,38.93C391.24,38.4 391.45,37.87 391.65,37.33C391.85,36.8 392.04,36.26 392.21,35.72C392.38,35.19 392.54,34.66 392.69,34.12C392.84,33.59 392.96,33.05 393.09,32.51C393.22,31.98 393.33,31.44 393.48,30.91C393.63,30.37 393.78,29.83 393.97,29.3C394.17,28.76 394.38,28.22 394.65,27.7C394.93,27.15 395.26,26.61 395.62,26.09C396,25.54 396.44,25.02 396.89,24.49C397.35,23.95 397.86,23.42 398.35,22.89C398.84,22.35 399.37,21.83 399.82,21.28C400.26,20.76 400.7,20.23 401.03,19.68C401.34,19.16 401.62,18.62 401.75,18.07C401.87,17.55 401.9,16.99 401.81,16.47C401.71,15.92 401.46,15.37 401.16,14.86C400.83,14.3 400.36,13.78 399.88,13.26C399.36,12.7 398.74,12.18 398.13,11.65C397.49,11.1 396.8,10.58 396.13,10.05C395.46,9.52 394.77,8.99 394.12,8.45C393.49,7.92 392.87,7.39 392.3,6.84C391.76,6.32 391.24,5.79 390.79,5.24C390.36,4.72 389.97,4.18 389.63,3.63C389.31,3.11 389.04,2.57 388.8,2.03C388.57,1.5 388.38,0.96 388.22,0.42C388.06,-0.11 387.94,-0.64 387.83,-1.18C387.72,-1.71 387.65,-2.25 387.58,-2.79C387.51,-3.32 387.45,-3.86 387.41,-4.39Q387.37,-4.92 387.32,-5.99L387.11,-5.99Q387.05,-4.92 387.01,-4.39C386.97,-3.86 386.92,-3.32 386.85,-2.79C386.78,-2.25 386.71,-1.71 386.6,-1.18C386.49,-0.64 386.37,-0.11 386.21,0.42C386.05,0.96 385.86,1.5 385.63,2.03C385.39,2.57 385.12,3.11 384.8,3.63C384.46,4.18 384.07,4.72 383.64,5.24C383.19,5.79 382.67,6.32 382.13,6.84C381.56,7.39 380.94,7.92 380.31,8.45C379.66,8.99 378.97,9.52 378.3,10.05C377.63,10.58 376.94,11.1 376.3,11.65C375.69,12.18 375.07,12.7 374.55,13.26C374.07,13.78 373.6,14.3 373.27,14.86C372.97,15.37 372.72,15.92 372.62,16.47C372.53,16.99 372.56,17.55 372.68,18.07C372.81,18.62 373.08,19.16 373.39,19.68C373.72,20.23 374.17,20.76 374.61,21.28C375.07,21.83 375.59,22.35 376.08,22.89C376.57,23.42 377.08,23.95 377.54,24.49C377.99,25.02 378.43,25.54 378.81,26.09C379.17,26.61 379.5,27.15 379.78,27.7C380.05,28.22 380.27,28.76 380.46,29.3C380.65,29.83 380.79,30.37 380.94,30.91C381.09,31.44 381.21,31.98 381.34,32.51C381.47,33.05 381.59,33.59 381.74,34.12C381.89,34.66 382.05,35.19 382.22,35.72C382.39,36.26 382.58,36.8 382.78,37.33C382.98,37.87 383.19,38.4 383.4,38.93C383.61,39.46 383.83,39.99 384.03,40.53C384.23,41.06 384.43,41.6 384.62,42.14C384.8,42.67 384.98,43.2 385.14,43.74C385.3,44.27 385.44,44.81 385.57,45.35C385.7,45.88 385.81,46.41 385.91,46.95C386.01,47.48 386.1,48.02 386.17,48.56C386.24,49.09 386.29,49.63 386.33,50.16C386.37,50.7 386.39,51.23 386.41,51.77C386.43,52.3 386.43,52.84 386.44,53.37C386.45,53.9 386.44,54.44 386.45,54.97C386.46,55.51 386.46,56.04 386.48,56.58C386.5,57.11 386.53,57.65 386.56,58.18C386.59,58.72 386.63,59.25 386.67,59.79C386.71,60.32 386.77,60.86 386.81,61.39C386.86,61.93 386.9,62.46 386.94,63C386.98,63.53 387.02,64.07 387.05,64.6Q387.08,65.14 387.12,66.21Z" style="vector-effect: none; stroke-width: 0.5px; stroke: rgb(0, 0, 0); stroke-opacity: 1; fill: rgb(181, 174, 112); fill-opacity: 1;"/><path class="meanline" d="M399.0133972167969,22.18H375.4066027832031" style="fill: none; vector-effect: none; stroke-width: 0.5px; stroke-dasharray: 1px, 0.5px; stroke: rgb(0, 0, 0); stroke-opacity: 1;"/></g></g></g><g class="overplot"/><path class="xlines-above crisp" d="M48.5,225.25H466" style="fill: none; stroke-width: 0.5px; stroke: rgb(0, 0, 0); stroke-opacity: 1;"/><path class="ylines-above crisp" d="M48.75,20V225" style="fill: none; stroke-width: 0.5px; stroke: rgb(0, 0, 0); stroke-opacity: 1;"/><g class="overlines-above"/><g class="xaxislayer-above"><path class="xtick ticks crisp" d="M0,225.5v5" transform="translate(78.78999999999999,0)" style="stroke: rgb(68, 68, 68); stroke-opacity: 1; stroke-width: 0.5px;"/><path class="xtick ticks crisp" d="M0,225.5v5" transform="translate(138.36,0)" style="stroke: rgb(68, 68, 68); stroke-opacity: 1; stroke-width: 0.5px;"/><path class="xtick ticks crisp" d="M0,225.5v5" transform="translate(197.93,0)" style="stroke: rgb(68, 68, 68); stroke-opacity: 1; stroke-width: 0.5px;"/><path class="xtick ticks crisp" d="M0,225.5v5" transform="translate(257.5,0)" style="stroke: rgb(68, 68, 68); stroke-opacity: 1; stroke-width: 0.5px;"/><path class="xtick ticks crisp" d="M0,225.5v5" transform="translate(317.07,0)" style="stroke: rgb(68, 68, 68); stroke-opacity: 1; stroke-width: 0.5px;"/><path class="xtick ticks crisp" d="M0,225.5v5" transform="translate(376.64,0)" style="stroke: rgb(68, 68, 68); stroke-opacity: 1; stroke-width: 0.5px;"/><path class="xtick ticks crisp" d="M0,225.5v5" transform="translate(436.21,0)" style="stroke: rgb(68, 68, 68); stroke-opacity: 1; stroke-width: 0.5px;"/><g class="xtick"><text text-anchor="start" x="0" y="244.9" transform="translate(78.78999999999999,0) rotate(30,0,238.9)" style="font-family: Helvetica; font-size: 12px; fill: rgb(0, 0, 0); fill-opacity: 1; white-space: pre; opacity: 1;">canonical (t/d)</text></g><g class="xtick"><text text-anchor="start" x="0" y="244.9" transform="translate(138.36,0) rotate(30,0,238.9)" style="font-family: Helvetica; font-size: 12px; fill: rgb(0, 0, 0); fill-opacity: 1; white-space: pre; opacity: 1;">canonical (PISCES)</text></g><g class="xtick"><text text-anchor="start" x="0" y="244.9" transform="translate(197.93,0) rotate(30,0,238.9)" style="font-family: Helvetica; font-size: 12px; fill: rgb(0, 0, 0); fill-opacity: 1; white-space: pre; opacity: 1;">spliced</text></g><g class="xtick"><text text-anchor="start" x="0" y="244.9" transform="translate(257.5,0) rotate(30,0,238.9)" style="font-family: Helvetica; font-size: 12px; fill: rgb(0, 0, 0); fill-opacity: 1; white-space: pre; opacity: 1;">multimapped</text></g><g class="xtick"><text text-anchor="start" x="0" y="244.9" transform="translate(317.07,0) rotate(30,0,238.9)" style="font-family: Helvetica; font-size: 12px; fill: rgb(0, 0, 0); fill-opacity: 1; white-space: pre; opacity: 1;">cryptic</text></g><g class="xtick"><text text-anchor="start" x="0" y="244.9" transform="translate(376.64,0) rotate(30,0,238.9)" style="font-family: Helvetica; font-size: 12px; fill: rgb(0, 0, 0); fill-opacity: 1; white-space: pre; opacity: 1;">unmapped</text></g><g class="xtick"><text text-anchor="start" x="0" y="244.9" transform="translate(436.21,0) rotate(30,0,238.9)" style="font-family: Helvetica; font-size: 12px; fill: rgb(0, 0, 0); fill-opacity: 1; white-space: pre; opacity: 1;">contaminants</text></g></g><g class="yaxislayer-above"><path class="ytick ticks crisp" d="M48.5,0h-5" transform="translate(0,225)" style="stroke: rgb(68, 68, 68); stroke-opacity: 1; stroke-width: 0.5px;"/><path class="ytick ticks crisp" d="M48.5,0h-5" transform="translate(0,184)" style="stroke: rgb(68, 68, 68); stroke-opacity: 1; stroke-width: 0.5px;"/><path class="ytick ticks crisp" d="M48.5,0h-5" transform="translate(0,143)" style="stroke: rgb(68, 68, 68); stroke-opacity: 1; stroke-width: 0.5px;"/><path class="ytick ticks crisp" d="M48.5,0h-5" transform="translate(0,102)" style="stroke: rgb(68, 68, 68); stroke-opacity: 1; stroke-width: 0.5px;"/><path class="ytick ticks crisp" d="M48.5,0h-5" transform="translate(0,61)" style="stroke: rgb(68, 68, 68); stroke-opacity: 1; stroke-width: 0.5px;"/><path class="ytick ticks crisp" d="M48.5,0h-5" transform="translate(0,20)" style="stroke: rgb(68, 68, 68); stroke-opacity: 1; stroke-width: 0.5px;"/><g class="ytick"><text text-anchor="end" x="41.1" y="4.199999999999999" transform="translate(0,225)" style="font-family: Helvetica; font-size: 12px; fill: rgb(0, 0, 0); fill-opacity: 1; white-space: pre; opacity: 1;">0</text></g><g class="ytick"><text text-anchor="end" x="41.1" y="4.199999999999999" style="font-family: Helvetica; font-size: 12px; fill: rgb(0, 0, 0); fill-opacity: 1; white-space: pre; opacity: 1;" transform="translate(0,184)">0.2</text></g><g class="ytick"><text text-anchor="end" x="41.1" y="4.199999999999999" style="font-family: Helvetica; font-size: 12px; fill: rgb(0, 0, 0); fill-opacity: 1; white-space: pre; opacity: 1;" transform="translate(0,143)">0.4</text></g><g class="ytick"><text text-anchor="end" x="41.1" y="4.199999999999999" style="font-family: Helvetica; font-size: 12px; fill: rgb(0, 0, 0); fill-opacity: 1; white-space: pre; opacity: 1;" transform="translate(0,102)">0.6</text></g><g class="ytick"><text text-anchor="end" x="41.1" y="4.199999999999999" style="font-family: Helvetica; font-size: 12px; fill: rgb(0, 0, 0); fill-opacity: 1; white-space: pre; opacity: 1;" transform="translate(0,61)">0.8</text></g><g class="ytick"><text text-anchor="end" x="41.1" y="4.199999999999999" style="font-family: Helvetica; font-size: 12px; fill: rgb(0, 0, 0); fill-opacity: 1; white-space: pre; opacity: 1;" transform="translate(0,20)">1</text></g></g><g class="overaxes-above"/></g></g><g class="polarlayer"/><g class="smithlayer"/><g class="ternarylayer"/><g class="geolayer"/><g class="funnelarealayer"/><g class="pielayer"/><g class="iciclelayer"/><g class="treemaplayer"/><g class="sunburstlayer"/><g class="glimages"/><defs id="topdefs-915e00"><g class="clips"/></defs><g class="layer-above"><g class="imagelayer"/><g class="shapelayer"/></g><g class="infolayer"><g class="g-gtitle"/><g class="g-xtitle"/><g class="g-ytitle" transform="translate(13.1435546875,0)"><text class="ytitle" transform="rotate(-90,-0.14374999999999716,122.5)" x="-0.14374999999999716" y="122.5" text-anchor="middle" style="font-family: Helvetica; font-size: 14px; fill: rgb(0, 0, 0); opacity: 1; font-weight: normal; white-space: pre;">Spectral Angle</text></g></g></svg>