<svg class="main-svg" xmlns="http://www.w3.org/2000/svg" xmlns:xlink="http://www.w3.org/1999/xlink" width="500" height="300" style="" viewBox="0 0 500 300"><rect x="0" y="0" width="500" height="300" style="fill: rgb(255, 255, 255); fill-opacity: 1;"/><defs id="defs-04e990"><g class="clips"><clipPath id="clip04e990xyplot" class="plotclip"><rect width="402" height="201"/></clipPath><clipPath class="axesclip" id="clip04e990x"><rect x="53" y="0" width="402" height="300"/></clipPath><clipPath class="axesclip" id="clip04e990y"><rect x="0" y="20" width="500" height="201"/></clipPath><clipPath class="axesclip" id="clip04e990xy"><rect x="53" y="20" width="402" height="201"/></clipPath></g><g class="gradients"/><g class="patterns"/></defs><g class="bglayer"><rect class="bg" x="53" y="20" width="402" height="201" style="fill: rgb(0, 0, 0); fill-opacity: 0; stroke-width: 0;"/></g><g class="layer-below"><g class="imagelayer"/><g class="shapelayer"/></g><g class="cartesianlayer"><g class="subplot xy"><g class="layer-subplot"><g class="shapelayer"/><g class="imagelayer"/></g><g class="minor-gridlayer"><g class="x"/><g class="y"/></g><g class="gridlayer"><g class="x"/><g class="y"/></g><g class="zerolinelayer"/><path class="xlines-below"/><path class="ylines-below"/><g class="overlines-below"/><g class="xaxislayer-below"/><g class="yaxislayer-below"/><g class="overaxes-below"/><g class="plot" transform="translate(53,20)" clip-path="url(#clip04e990xyplot)"><g class="violinlayer mlayer"><g class="trace violins" style="opacity: 1;"><path class="violin" d="M28.71,200.58Q28.72,199.57 28.72,199.07C28.72,198.57 28.72,198.06 28.72,197.56C28.72,197.06 28.72,196.55 28.72,196.05C28.72,195.55 28.72,195.04 28.72,194.54C28.72,194.04 28.72,193.53 28.72,193.03C28.72,192.53 28.73,192.02 28.73,191.52C28.73,191.02 28.73,190.52 28.73,190.02C28.73,189.52 28.74,189.01 28.74,188.51C28.74,188.01 28.74,187.5 28.74,187C28.74,186.5 28.75,185.99 28.75,185.49C28.75,184.99 28.76,184.48 28.76,183.98C28.76,183.48 28.77,182.97 28.77,182.47C28.77,181.97 28.78,181.46 28.78,180.96C28.79,180.46 28.79,179.95 28.8,179.45C28.8,178.95 28.81,178.44 28.81,177.94C28.82,177.44 28.82,176.93 28.83,176.43C28.84,175.93 28.84,175.42 28.85,174.92C28.85,174.42 28.86,173.91 28.86,173.41C28.87,172.91 28.87,172.4 28.88,171.9C28.89,171.4 28.89,170.89 28.9,170.39C28.91,169.89 28.91,169.38 28.92,168.88C28.93,168.38 28.94,167.87 28.95,167.37C28.96,166.87 28.97,166.36 28.98,165.86C28.99,165.36 28.99,164.85 29,164.35C29.01,163.85 29.02,163.34 29.03,162.84C29.04,162.34 29.04,161.83 29.05,161.33C29.05,160.83 29.06,160.32 29.06,159.82C29.07,159.32 29.07,158.81 29.08,158.31C29.09,157.81 29.09,157.3 29.1,156.8C29.11,156.3 29.11,155.79 29.12,155.29C29.13,154.79 29.14,154.28 29.15,153.78C29.16,153.28 29.18,152.77 29.19,152.27C29.2,151.77 29.22,151.26 29.23,150.76C29.24,150.26 29.26,149.75 29.27,149.25C29.28,148.75 29.3,148.24 29.31,147.74C29.32,147.24 29.34,146.73 29.35,146.23C29.36,145.73 29.38,145.22 29.39,144.72C29.4,144.22 29.41,143.71 29.42,143.21C29.43,142.71 29.44,142.2 29.45,141.7C29.46,141.2 29.48,140.69 29.49,140.19C29.5,139.69 29.51,139.18 29.52,138.68C29.53,138.18 29.54,137.67 29.55,137.17C29.56,136.67 29.58,136.16 29.59,135.66C29.6,135.16 29.61,134.65 29.63,134.15C29.65,133.65 29.67,133.14 29.69,132.64C29.71,132.14 29.73,131.63 29.75,131.13C29.77,130.63 29.8,130.12 29.82,129.62C29.84,129.12 29.87,128.61 29.89,128.11C29.91,127.61 29.93,127.11 29.95,126.61C29.97,126.11 29.98,125.6 30,125.1C30.02,124.6 30.03,124.09 30.05,123.59C30.07,123.09 30.08,122.58 30.1,122.08C30.12,121.58 30.13,121.07 30.15,120.57C30.17,120.07 30.19,119.56 30.21,119.06C30.23,118.56 30.26,118.05 30.28,117.55C30.3,117.05 30.33,116.54 30.35,116.04C30.37,115.54 30.4,115.03 30.42,114.53C30.45,114.03 30.47,113.52 30.5,113.02C30.53,112.52 30.55,112.01 30.58,111.51C30.6,111.01 30.63,110.5 30.65,110C30.67,109.5 30.7,108.99 30.72,108.49C30.74,107.99 30.77,107.48 30.79,106.98C30.81,106.48 30.83,105.97 30.85,105.47C30.87,104.97 30.88,104.46 30.9,103.96C30.92,103.46 30.93,102.95 30.95,102.45C30.97,101.95 30.99,101.44 31.01,100.94C31.03,100.44 31.05,99.93 31.07,99.43C31.09,98.93 31.12,98.42 31.15,97.92C31.18,97.42 31.21,96.91 31.24,96.41C31.27,95.91 31.31,95.4 31.35,94.9C31.39,94.4 31.42,93.89 31.46,93.39C31.5,92.89 31.55,92.38 31.59,91.88C31.63,91.38 31.68,90.87 31.72,90.37C31.76,89.87 31.8,89.36 31.85,88.86C31.9,88.36 31.95,87.85 32,87.35C32.05,86.85 32.1,86.34 32.15,85.84C32.2,85.34 32.25,84.83 32.3,84.33C32.35,83.83 32.41,83.32 32.46,82.82C32.51,82.32 32.56,81.81 32.61,81.31C32.66,80.81 32.72,80.3 32.77,79.8C32.82,79.3 32.88,78.79 32.93,78.29C32.99,77.79 33.04,77.28 33.1,76.78C33.16,76.28 33.22,75.77 33.28,75.27C33.34,74.77 33.41,74.26 33.48,73.76C33.55,73.26 33.61,72.75 33.68,72.25C33.75,71.75 33.82,71.24 33.89,70.74C33.96,70.24 34.03,69.73 34.1,69.23C34.17,68.73 34.24,68.22 34.31,67.72C34.38,67.22 34.46,66.71 34.53,66.21C34.61,65.71 34.68,65.2 34.76,64.7C34.84,64.2 34.91,63.69 35,63.19C35.08,62.69 35.18,62.19 35.27,61.69C35.37,61.19 35.47,60.68 35.57,60.18C35.67,59.68 35.78,59.17 35.88,58.67C35.99,58.17 36.09,57.66 36.2,57.16C36.31,56.66 36.43,56.15 36.54,55.65C36.66,55.15 36.77,54.64 36.89,54.14C37.01,53.64 37.12,53.13 37.25,52.63C37.38,52.13 37.51,51.62 37.65,51.12C37.79,50.62 37.92,50.11 38.07,49.61C38.22,49.11 38.38,48.6 38.53,48.1C38.68,47.6 38.84,47.09 38.99,46.59C39.15,46.09 39.31,45.58 39.46,45.08C39.61,44.58 39.76,44.07 39.9,43.57C40.04,43.07 40.18,42.56 40.31,42.06C40.44,41.56 40.56,41.05 40.68,40.55C40.8,40.05 40.91,39.54 41.02,39.04C41.13,38.54 41.23,38.03 41.34,37.53C41.44,37.03 41.55,36.52 41.65,36.02C41.75,35.52 41.86,35.01 41.96,34.51C42.06,34.01 42.16,33.5 42.25,33C42.34,32.5 42.43,31.99 42.5,31.49C42.57,30.99 42.64,30.48 42.69,29.98C42.74,29.48 42.77,28.97 42.78,28.47C42.79,27.97 42.8,27.46 42.78,26.96C42.76,26.46 42.72,25.95 42.66,25.45C42.6,24.95 42.52,24.44 42.42,23.94C42.32,23.43 42.2,22.93 42.06,22.43C41.92,21.92 41.75,21.42 41.56,20.92C41.37,20.41 41.16,19.91 40.92,19.41C40.68,18.9 40.4,18.4 40.11,17.9C39.81,17.39 39.48,16.89 39.13,16.39C38.78,15.88 38.4,15.38 38.01,14.88C37.62,14.37 37.2,13.87 36.79,13.37C36.38,12.87 35.95,12.36 35.53,11.86C35.11,11.36 34.69,10.86 34.29,10.35C33.89,9.85 33.5,9.35 33.13,8.84C32.77,8.34 32.41,7.84 32.09,7.33C31.77,6.83 31.47,6.33 31.2,5.82C30.93,5.32 30.69,4.82 30.47,4.31C30.26,3.81 30.08,3.31 29.91,2.8C29.75,2.3 29.6,1.8 29.48,1.29C29.36,0.79 29.27,0.28 29.19,-0.22C29.11,-0.72 29.04,-1.22 28.99,-1.72C28.93,-2.22 28.89,-2.73 28.86,-3.23C28.83,-3.73 28.81,-4.24 28.79,-4.74C28.77,-5.24 28.76,-5.75 28.75,-6.25Q28.74,-6.75 28.73,-7.76L28.7,-7.76Q28.69,-6.75 28.68,-6.25C28.67,-5.75 28.66,-5.24 28.64,-4.74C28.62,-4.24 28.59,-3.73 28.56,-3.23C28.53,-2.73 28.49,-2.22 28.44,-1.72C28.39,-1.22 28.32,-0.72 28.24,-0.22C28.16,0.28 28.06,0.79 27.94,1.29C27.82,1.8 27.68,2.3 27.52,2.8C27.35,3.31 27.16,3.81 26.95,4.31C26.73,4.82 26.49,5.32 26.23,5.82C25.96,6.33 25.66,6.83 25.34,7.33C25.02,7.84 24.66,8.34 24.3,8.84C23.93,9.35 23.54,9.85 23.14,10.35C22.74,10.86 22.32,11.36 21.9,11.86C21.48,12.36 21.05,12.87 20.64,13.37C20.23,13.87 19.81,14.37 19.42,14.88C19.03,15.38 18.65,15.88 18.3,16.39C17.95,16.89 17.62,17.39 17.32,17.9C17.03,18.4 16.75,18.9 16.51,19.41C16.27,19.91 16.06,20.41 15.87,20.92C15.68,21.42 15.51,21.92 15.37,22.43C15.23,22.93 15.11,23.43 15.01,23.94C14.91,24.44 14.83,24.95 14.77,25.45C14.71,25.95 14.67,26.46 14.65,26.96C14.63,27.46 14.63,27.97 14.64,28.47C14.65,28.97 14.69,29.48 14.74,29.98C14.79,30.48 14.86,30.99 14.93,31.49C15,31.99 15.09,32.5 15.18,33C15.27,33.5 15.37,34.01 15.47,34.51C15.57,35.01 15.67,35.52 15.77,36.02C15.87,36.52 15.97,37.03 16.08,37.53C16.19,38.03 16.3,38.54 16.41,39.04C16.52,39.54 16.63,40.05 16.75,40.55C16.87,41.05 16.99,41.56 17.12,42.06C17.25,42.56 17.39,43.07 17.53,43.57C17.67,44.07 17.82,44.58 17.97,45.08C18.12,45.58 18.28,46.09 18.43,46.59C18.59,47.09 18.74,47.6 18.9,48.1C19.05,48.6 19.21,49.11 19.36,49.61C19.51,50.11 19.64,50.62 19.78,51.12C19.92,51.62 20.05,52.13 20.18,52.63C20.31,53.13 20.42,53.64 20.54,54.14C20.66,54.64 20.77,55.15 20.89,55.65C21,56.15 21.12,56.66 21.23,57.16C21.34,57.66 21.44,58.17 21.55,58.67C21.65,59.17 21.76,59.68 21.86,60.18C21.96,60.68 22.05,61.19 22.15,61.69C22.24,62.19 22.34,62.69 22.43,63.19C22.52,63.69 22.59,64.2 22.67,64.7C22.75,65.2 22.82,65.71 22.9,66.21C22.97,66.71 23.05,67.22 23.12,67.72C23.19,68.22 23.26,68.73 23.33,69.23C23.4,69.73 23.47,70.24 23.54,70.74C23.61,71.24 23.68,71.75 23.75,72.25C23.82,72.75 23.88,73.26 23.95,73.76C24.02,74.26 24.09,74.77 24.15,75.27C24.21,75.77 24.27,76.28 24.33,76.78C24.39,77.28 24.44,77.79 24.5,78.29C24.55,78.79 24.61,79.3 24.66,79.8C24.71,80.3 24.77,80.81 24.82,81.31C24.87,81.81 24.92,82.32 24.97,82.82C25.02,83.32 25.08,83.83 25.13,84.33C25.18,84.83 25.23,85.34 25.28,85.84C25.33,86.34 25.38,86.85 25.43,87.35C25.48,87.85 25.52,88.36 25.57,88.86C25.62,89.36 25.66,89.87 25.71,90.37C25.75,90.87 25.8,91.38 25.84,91.88C25.88,92.38 25.93,92.89 25.97,93.39C26.01,93.89 26.04,94.4 26.08,94.9C26.12,95.4 26.16,95.91 26.19,96.41C26.22,96.91 26.25,97.42 26.28,97.92C26.31,98.42 26.34,98.93 26.36,99.43C26.38,99.93 26.4,100.44 26.42,100.94C26.44,101.44 26.46,101.95 26.48,102.45C26.5,102.95 26.51,103.46 26.53,103.96C26.55,104.46 26.56,104.97 26.58,105.47C26.6,105.97 26.62,106.48 26.64,106.98C26.66,107.48 26.68,107.99 26.7,108.49C26.72,108.99 26.75,109.5 26.78,110C26.8,110.5 26.83,111.01 26.85,111.51C26.88,112.01 26.9,112.52 26.93,113.02C26.96,113.52 26.98,114.03 27.01,114.53C27.03,115.03 27.06,115.54 27.08,116.04C27.1,116.54 27.13,117.05 27.15,117.55C27.17,118.05 27.2,118.56 27.22,119.06C27.24,119.56 27.26,120.07 27.28,120.57C27.3,121.07 27.31,121.58 27.33,122.08C27.35,122.58 27.36,123.09 27.38,123.59C27.4,124.09 27.41,124.6 27.43,125.1C27.45,125.6 27.46,126.11 27.48,126.61C27.5,127.11 27.52,127.61 27.54,128.11C27.56,128.61 27.59,129.12 27.61,129.62C27.63,130.12 27.66,130.63 27.68,131.13C27.7,131.63 27.72,132.14 27.74,132.64C27.76,133.14 27.77,133.65 27.79,134.15C27.81,134.65 27.82,135.16 27.84,135.66C27.85,136.16 27.87,136.67 27.88,137.17C27.89,137.67 27.9,138.18 27.91,138.68C27.92,139.18 27.93,139.69 27.94,140.19C27.95,140.69 27.96,141.2 27.97,141.7C27.98,142.2 28,142.71 28.01,143.21C28.02,143.71 28.03,144.22 28.04,144.72C28.05,145.22 28.07,145.73 28.08,146.23C28.09,146.73 28.1,147.24 28.11,147.74C28.12,148.24 28.14,148.75 28.16,149.25C28.17,149.75 28.19,150.26 28.2,150.76C28.21,151.26 28.23,151.77 28.24,152.27C28.25,152.77 28.27,153.28 28.28,153.78C28.29,154.28 28.3,154.79 28.31,155.29C28.32,155.79 28.32,156.3 28.33,156.8C28.34,157.3 28.34,157.81 28.35,158.31C28.35,158.81 28.36,159.32 28.36,159.82C28.37,160.32 28.37,160.83 28.38,161.33C28.39,161.83 28.39,162.34 28.4,162.84C28.41,163.34 28.42,163.85 28.43,164.35C28.44,164.85 28.44,165.36 28.45,165.86C28.46,166.36 28.47,166.87 28.48,167.37C28.49,167.87 28.49,168.38 28.5,168.88C28.51,169.38 28.52,169.89 28.53,170.39C28.54,170.89 28.54,171.4 28.55,171.9C28.56,172.4 28.56,172.91 28.57,173.41C28.57,173.91 28.58,174.42 28.58,174.92C28.59,175.42 28.59,175.93 28.6,176.43C28.61,176.93 28.61,177.44 28.62,177.94C28.62,178.44 28.63,178.95 28.63,179.45C28.63,179.95 28.64,180.46 28.64,180.96C28.65,181.46 28.65,181.97 28.66,182.47C28.66,182.97 28.67,183.48 28.67,183.98C28.67,184.48 28.68,184.99 28.68,185.49C28.68,185.99 28.69,186.5 28.69,187C28.69,187.5 28.69,188.01 28.69,188.51C28.69,189.01 28.7,189.52 28.7,190.02C28.7,190.52 28.7,191.02 28.7,191.52C28.7,192.02 28.71,192.53 28.71,193.03C28.71,193.53 28.71,194.04 28.71,194.54C28.71,195.04 28.71,195.55 28.71,196.05C28.71,196.55 28.71,197.06 28.71,197.56C28.71,198.06 28.71,198.57 28.71,199.07Q28.71,199.57 28.71,200.58Z" style="vector-effect: none; stroke-width: 0.5px; stroke: rgb(0, 0, 0); stroke-opacity: 1; fill: rgb(244, 191, 145); fill-opacity: 1;"/><path class="meanline" d="M37.873966217041016,50.3H19.546033782958986" style="fill: none; vector-effect: none; stroke-width: 0.5px; stroke-dasharray: 1px, 0.5px; stroke: rgb(0, 0, 0); stroke-opacity: 1;"/></g><g class="trace violins" style="opacity: 1;"><path class="violin" d="M86.14,187.44Q86.14,186.89 86.14,186.62C86.14,186.35 86.15,186.07 86.15,185.8C86.15,185.53 86.15,185.25 86.15,184.98C86.15,184.71 86.15,184.44 86.15,184.17C86.15,183.9 86.16,183.62 86.16,183.35C86.16,183.08 86.16,182.8 86.16,182.53C86.16,182.26 86.17,181.98 86.17,181.71C86.17,181.44 86.17,181.16 86.17,180.89C86.17,180.62 86.17,180.35 86.17,180.08C86.17,179.81 86.17,179.53 86.17,179.26C86.17,178.99 86.17,178.71 86.17,178.44C86.17,178.17 86.16,177.89 86.16,177.62C86.16,177.35 86.16,177.08 86.16,176.81C86.16,176.54 86.15,176.26 86.15,175.99C86.15,175.72 86.15,175.44 86.15,175.17C86.15,174.9 86.15,174.62 86.15,174.35C86.15,174.08 86.15,173.8 86.15,173.53C86.15,173.26 86.15,172.99 86.15,172.72C86.15,172.45 86.15,172.17 86.15,171.9C86.15,171.63 86.15,171.35 86.15,171.08C86.15,170.81 86.15,170.53 86.15,170.26C86.15,169.99 86.15,169.72 86.15,169.45C86.15,169.18 86.16,168.9 86.16,168.63C86.16,168.36 86.16,168.08 86.16,167.81C86.16,167.54 86.16,167.26 86.16,166.99C86.16,166.72 86.17,166.44 86.17,166.17C86.17,165.9 86.18,165.63 86.18,165.36C86.18,165.09 86.18,164.81 86.18,164.54C86.18,164.27 86.19,163.99 86.19,163.72C86.19,163.45 86.19,163.17 86.19,162.9C86.19,162.63 86.19,162.36 86.19,162.09C86.19,161.82 86.19,161.54 86.19,161.27C86.19,161 86.19,160.72 86.19,160.45C86.19,160.18 86.19,159.9 86.19,159.63C86.19,159.36 86.19,159.08 86.19,158.81C86.19,158.54 86.2,158.27 86.2,158C86.2,157.73 86.2,157.45 86.2,157.18C86.2,156.91 86.2,156.63 86.2,156.36C86.2,156.09 86.2,155.81 86.2,155.54C86.2,155.27 86.2,155 86.2,154.73C86.2,154.46 86.2,154.18 86.2,153.91C86.2,153.64 86.2,153.36 86.2,153.09C86.2,152.82 86.2,152.54 86.2,152.27C86.2,152 86.2,151.72 86.2,151.45C86.2,151.18 86.2,150.91 86.2,150.64C86.2,150.37 86.2,150.09 86.2,149.82C86.2,149.55 86.21,149.27 86.21,149C86.21,148.73 86.22,148.45 86.22,148.18C86.22,147.91 86.22,147.64 86.22,147.37C86.22,147.1 86.23,146.82 86.23,146.55C86.23,146.28 86.24,146 86.24,145.73C86.24,145.46 86.24,145.18 86.24,144.91C86.24,144.64 86.24,144.36 86.24,144.09C86.24,143.82 86.25,143.55 86.25,143.28C86.25,143.01 86.25,142.73 86.25,142.46C86.25,142.19 86.25,141.91 86.25,141.64C86.25,141.37 86.24,141.09 86.24,140.82C86.24,140.55 86.24,140.28 86.24,140.01C86.24,139.74 86.23,139.46 86.23,139.19C86.23,138.92 86.23,138.64 86.23,138.37C86.23,138.1 86.23,137.82 86.23,137.55C86.23,137.28 86.23,137 86.23,136.73C86.23,136.46 86.24,136.19 86.24,135.92C86.24,135.65 86.24,135.37 86.24,135.1C86.24,134.83 86.25,134.55 86.25,134.28C86.25,134.01 86.26,133.73 86.26,133.46C86.26,133.19 86.27,132.92 86.27,132.65C86.27,132.38 86.28,132.1 86.28,131.83C86.28,131.56 86.29,131.28 86.29,131.01C86.29,130.74 86.3,130.46 86.3,130.19C86.3,129.92 86.31,129.64 86.31,129.37C86.31,129.1 86.31,128.83 86.31,128.56C86.31,128.29 86.32,128.01 86.32,127.74C86.32,127.47 86.32,127.19 86.32,126.92C86.32,126.65 86.32,126.37 86.32,126.1C86.32,125.83 86.32,125.56 86.32,125.29C86.32,125.02 86.32,124.74 86.32,124.47C86.32,124.2 86.33,123.92 86.33,123.65C86.33,123.38 86.33,123.1 86.33,122.83C86.33,122.56 86.33,122.28 86.33,122.01C86.33,121.74 86.33,121.47 86.33,121.2C86.33,120.93 86.34,120.65 86.34,120.38C86.34,120.11 86.34,119.83 86.34,119.56C86.34,119.29 86.34,119.01 86.34,118.74C86.34,118.47 86.35,118.2 86.35,117.93C86.35,117.66 86.35,117.38 86.35,117.11C86.35,116.84 86.35,116.56 86.35,116.29C86.35,116.02 86.36,115.74 86.36,115.47C86.36,115.2 86.36,114.92 86.36,114.65C86.36,114.38 86.37,114.11 86.37,113.84C86.37,113.57 86.37,113.29 86.37,113.02C86.37,112.75 86.38,112.47 86.38,112.2C86.39,111.93 86.39,111.65 86.4,111.38C86.4,111.11 86.41,110.84 86.41,110.57C86.42,110.3 86.42,110.02 86.43,109.75C86.44,109.48 86.44,109.2 86.45,108.93C86.46,108.66 86.46,108.38 86.47,108.11C86.48,107.84 86.49,107.56 86.5,107.29C86.51,107.02 86.51,106.75 86.52,106.48C86.53,106.21 86.54,105.93 86.55,105.66C86.56,105.39 86.56,105.11 86.57,104.84C86.57,104.57 86.58,104.29 86.58,104.02C86.58,103.75 86.58,103.48 86.58,103.21C86.58,102.94 86.57,102.66 86.57,102.39C86.57,102.12 86.56,101.84 86.56,101.57C86.56,101.3 86.55,101.02 86.55,100.75C86.55,100.48 86.54,100.2 86.54,99.93C86.54,99.66 86.54,99.39 86.54,99.12C86.54,98.85 86.55,98.57 86.56,98.3C86.57,98.03 86.57,97.75 86.58,97.48C86.59,97.21 86.6,96.93 86.61,96.66C86.62,96.39 86.62,96.12 86.63,95.85C86.64,95.58 86.65,95.3 86.66,95.03C86.67,94.76 86.67,94.48 86.67,94.21C86.67,93.94 86.68,93.66 86.68,93.39C86.68,93.12 86.68,92.84 86.68,92.57C86.68,92.3 86.68,92.03 86.68,91.76C86.68,91.49 86.68,91.21 86.68,90.94C86.68,90.67 86.69,90.39 86.69,90.12C86.69,89.85 86.7,89.57 86.7,89.3C86.7,89.03 86.71,88.76 86.71,88.49C86.72,88.22 86.72,87.94 86.73,87.67C86.74,87.4 86.75,87.12 86.76,86.85C86.77,86.58 86.78,86.3 86.79,86.03C86.8,85.76 86.81,85.48 86.82,85.21C86.83,84.94 86.84,84.67 86.85,84.4C86.86,84.13 86.87,83.85 86.88,83.58C86.89,83.31 86.89,83.03 86.9,82.76C86.91,82.49 86.91,82.21 86.92,81.94C86.92,81.67 86.93,81.4 86.93,81.13C86.93,80.86 86.93,80.58 86.93,80.31C86.93,80.04 86.94,79.76 86.94,79.49C86.94,79.22 86.94,78.94 86.94,78.67C86.94,78.4 86.95,78.12 86.96,77.85C86.97,77.58 86.97,77.31 86.98,77.04C86.99,76.77 87.01,76.49 87.02,76.22C87.03,75.95 87.05,75.67 87.06,75.4C87.07,75.13 87.09,74.85 87.1,74.58C87.11,74.31 87.12,74.04 87.13,73.77C87.14,73.5 87.14,73.22 87.15,72.95C87.15,72.68 87.16,72.4 87.16,72.13C87.16,71.86 87.17,71.58 87.17,71.31C87.17,71.04 87.17,70.76 87.18,70.49C87.18,70.22 87.19,69.95 87.2,69.68C87.21,69.41 87.22,69.13 87.24,68.86C87.26,68.59 87.28,68.31 87.3,68.04C87.32,67.77 87.34,67.49 87.37,67.22C87.39,66.95 87.42,66.68 87.45,66.41C87.48,66.14 87.51,65.86 87.54,65.59C87.57,65.32 87.6,65.04 87.63,64.77C87.66,64.5 87.68,64.22 87.71,63.95C87.74,63.68 87.76,63.4 87.79,63.13C87.82,62.86 87.85,62.59 87.87,62.32C87.89,62.05 87.91,61.77 87.93,61.5C87.95,61.23 87.97,60.95 87.99,60.68C88.01,60.41 88.03,60.13 88.05,59.86C88.07,59.59 88.09,59.32 88.11,59.05C88.13,58.78 88.15,58.5 88.18,58.23C88.21,57.96 88.24,57.68 88.27,57.41C88.3,57.14 88.34,56.86 88.38,56.59C88.42,56.32 88.46,56.04 88.51,55.77C88.55,55.5 88.6,55.23 88.65,54.96C88.7,54.69 88.76,54.41 88.81,54.14C88.86,53.87 88.92,53.59 88.97,53.32C89.02,53.05 89.07,52.77 89.13,52.5C89.19,52.23 89.25,51.96 89.31,51.69C89.37,51.42 89.44,51.14 89.5,50.87C89.57,50.6 89.63,50.32 89.7,50.05C89.77,49.78 89.84,49.5 89.91,49.23C89.98,48.96 90.05,48.68 90.13,48.41C90.2,48.14 90.28,47.87 90.36,47.6C90.44,47.33 90.51,47.05 90.59,46.78C90.67,46.51 90.75,46.23 90.83,45.96C90.91,45.69 91,45.41 91.09,45.14C91.17,44.87 91.26,44.6 91.34,44.33C91.43,44.06 91.51,43.78 91.6,43.51C91.69,43.24 91.77,42.96 91.86,42.69C91.95,42.42 92.03,42.14 92.12,41.87C92.21,41.6 92.3,41.32 92.39,41.05C92.48,40.78 92.58,40.51 92.68,40.24C92.78,39.97 92.89,39.69 93,39.42C93.11,39.15 93.23,38.87 93.35,38.6C93.47,38.33 93.6,38.05 93.73,37.78C93.86,37.51 94,37.24 94.13,36.97C94.27,36.7 94.4,36.42 94.54,36.15C94.68,35.88 94.82,35.6 94.96,35.33C95.1,35.06 95.25,34.78 95.39,34.51C95.53,34.24 95.67,33.96 95.82,33.69C95.97,33.42 96.12,33.15 96.27,32.88C96.42,32.61 96.56,32.33 96.71,32.06C96.86,31.79 97.01,31.51 97.15,31.24C97.29,30.97 97.43,30.69 97.56,30.42C97.69,30.15 97.82,29.88 97.95,29.61C98.08,29.34 98.21,29.06 98.33,28.79C98.45,28.52 98.57,28.24 98.69,27.97C98.8,27.7 98.91,27.42 99.02,27.15C99.12,26.88 99.23,26.6 99.32,26.33C99.41,26.06 99.5,25.79 99.58,25.52C99.66,25.25 99.72,24.97 99.78,24.7C99.84,24.43 99.89,24.15 99.94,23.88C99.98,23.61 100.02,23.33 100.05,23.06C100.08,22.79 100.12,22.52 100.14,22.25C100.16,21.98 100.18,21.7 100.19,21.43C100.2,21.16 100.21,20.88 100.21,20.61C100.21,20.34 100.21,20.06 100.19,19.79C100.17,19.52 100.14,19.24 100.09,18.97C100.04,18.7 99.98,18.43 99.91,18.16C99.83,17.89 99.75,17.61 99.64,17.34C99.53,17.06 99.41,16.79 99.27,16.52C99.13,16.24 98.96,15.97 98.79,15.7C98.61,15.42 98.42,15.16 98.21,14.89C98,14.61 97.77,14.34 97.53,14.07C97.29,13.79 97.03,13.52 96.76,13.25C96.49,12.97 96.21,12.7 95.92,12.43C95.63,12.15 95.32,11.88 95.02,11.61C94.72,11.34 94.41,11.07 94.11,10.8C93.8,10.53 93.49,10.25 93.19,9.98C92.89,9.71 92.6,9.43 92.3,9.16C92.01,8.89 91.71,8.61 91.42,8.34C91.14,8.07 90.86,7.8 90.59,7.53C90.32,7.26 90.06,6.99 89.8,6.71C89.55,6.44 89.3,6.17 89.06,5.89C88.83,5.62 88.61,5.35 88.4,5.07C88.2,4.8 88.01,4.53 87.83,4.25C87.66,3.98 87.49,3.71 87.35,3.44C87.21,3.17 87.08,2.9 86.97,2.62C86.86,2.35 86.77,2.07 86.69,1.8C86.61,1.53 86.54,1.25 86.48,0.98C86.42,0.71 86.38,0.44 86.34,0.17C86.3,-0.1 86.27,-0.38 86.25,-0.65C86.23,-0.92 86.21,-1.2 86.2,-1.47C86.19,-1.74 86.18,-2.02 86.17,-2.29Q86.16,-2.56 86.15,-3.11L86.13,-3.11Q86.13,-2.56 86.12,-2.29C86.11,-2.02 86.1,-1.74 86.09,-1.47C86.07,-1.2 86.05,-0.92 86.03,-0.65C86.01,-0.38 85.99,-0.1 85.95,0.17C85.91,0.44 85.87,0.71 85.81,0.98C85.75,1.25 85.68,1.53 85.6,1.8C85.52,2.08 85.42,2.35 85.31,2.62C85.2,2.9 85.07,3.17 84.93,3.44C84.79,3.71 84.63,3.98 84.46,4.25C84.28,4.53 84.08,4.8 83.88,5.07C83.67,5.35 83.45,5.62 83.22,5.89C82.99,6.17 82.74,6.44 82.49,6.71C82.23,6.99 81.97,7.26 81.7,7.53C81.43,7.8 81.14,8.07 80.86,8.34C80.57,8.61 80.28,8.89 79.99,9.16C79.69,9.43 79.39,9.71 79.09,9.98C78.79,10.25 78.48,10.53 78.18,10.8C77.87,11.07 77.56,11.34 77.26,11.61C76.96,11.88 76.66,12.15 76.37,12.43C76.08,12.7 75.8,12.97 75.53,13.25C75.26,13.52 75,13.79 74.75,14.07C74.51,14.34 74.28,14.61 74.07,14.89C73.86,15.16 73.67,15.42 73.49,15.7C73.32,15.97 73.16,16.24 73.02,16.52C72.88,16.79 72.75,17.06 72.64,17.34C72.53,17.61 72.45,17.89 72.37,18.16C72.3,18.43 72.24,18.7 72.19,18.97C72.15,19.24 72.12,19.52 72.1,19.79C72.08,20.06 72.07,20.34 72.07,20.61C72.07,20.88 72.08,21.16 72.09,21.43C72.1,21.7 72.13,21.98 72.15,22.25C72.17,22.52 72.2,22.79 72.23,23.06C72.26,23.33 72.31,23.61 72.35,23.88C72.4,24.15 72.44,24.43 72.5,24.7C72.56,24.97 72.63,25.25 72.71,25.52C72.79,25.79 72.88,26.06 72.97,26.33C73.06,26.6 73.17,26.88 73.27,27.15C73.38,27.42 73.49,27.7 73.6,27.97C73.72,28.24 73.84,28.52 73.96,28.79C74.08,29.06 74.2,29.34 74.33,29.61C74.46,29.88 74.6,30.15 74.73,30.42C74.87,30.69 75,30.97 75.14,31.24C75.28,31.51 75.42,31.79 75.57,32.06C75.72,32.33 75.87,32.61 76.02,32.88C76.17,33.15 76.31,33.42 76.46,33.69C76.61,33.96 76.75,34.24 76.9,34.51C77.04,34.78 77.19,35.06 77.33,35.33C77.47,35.6 77.61,35.88 77.75,36.15C77.89,36.42 78.02,36.7 78.16,36.97C78.29,37.24 78.43,37.51 78.56,37.78C78.69,38.05 78.82,38.33 78.94,38.6C79.06,38.87 79.18,39.15 79.29,39.42C79.4,39.69 79.51,39.97 79.61,40.24C79.71,40.51 79.8,40.78 79.89,41.05C79.98,41.32 80.07,41.6 80.16,41.87C80.25,42.14 80.33,42.42 80.42,42.69C80.51,42.96 80.59,43.24 80.68,43.51C80.77,43.78 80.85,44.06 80.94,44.33C81.03,44.6 81.12,44.87 81.2,45.14C81.29,45.41 81.37,45.69 81.45,45.96C81.53,46.23 81.61,46.51 81.69,46.78C81.77,47.05 81.85,47.33 81.93,47.6C82.01,47.87 82.08,48.14 82.15,48.41C82.22,48.68 82.3,48.96 82.37,49.23C82.44,49.5 82.51,49.78 82.58,50.05C82.65,50.32 82.72,50.6 82.79,50.87C82.85,51.14 82.91,51.42 82.97,51.69C83.03,51.96 83.09,52.23 83.15,52.5C83.21,52.77 83.26,53.05 83.32,53.32C83.37,53.59 83.43,53.87 83.48,54.14C83.53,54.41 83.59,54.69 83.64,54.96C83.69,55.23 83.74,55.5 83.78,55.77C83.83,56.04 83.87,56.32 83.91,56.59C83.95,56.86 83.99,57.14 84.02,57.41C84.05,57.68 84.08,57.96 84.11,58.23C84.14,58.5 84.16,58.78 84.18,59.05C84.2,59.32 84.22,59.59 84.24,59.86C84.26,60.13 84.28,60.41 84.3,60.68C84.32,60.95 84.33,61.23 84.35,61.5C84.37,61.77 84.4,62.05 84.42,62.32C84.44,62.59 84.47,62.86 84.49,63.13C84.52,63.4 84.54,63.68 84.57,63.95C84.6,64.22 84.63,64.5 84.66,64.77C84.69,65.04 84.72,65.32 84.75,65.59C84.78,65.86 84.8,66.14 84.83,66.41C84.86,66.68 84.89,66.95 84.92,67.22C84.95,67.49 84.97,67.77 84.99,68.04C85.01,68.31 85.02,68.59 85.04,68.86C85.05,69.13 85.07,69.41 85.08,69.68C85.09,69.95 85.1,70.22 85.11,70.49C85.12,70.76 85.12,71.04 85.12,71.31C85.12,71.58 85.13,71.86 85.13,72.13C85.13,72.4 85.14,72.68 85.14,72.95C85.15,73.22 85.15,73.5 85.16,73.77C85.17,74.04 85.18,74.31 85.19,74.58C85.2,74.85 85.21,75.13 85.22,75.4C85.23,75.67 85.26,75.95 85.27,76.22C85.28,76.49 85.29,76.77 85.3,77.04C85.31,77.31 85.32,77.58 85.33,77.85C85.34,78.12 85.34,78.4 85.34,78.67C85.34,78.94 85.35,79.22 85.35,79.49C85.35,79.76 85.35,80.04 85.35,80.31C85.35,80.58 85.35,80.86 85.35,81.13C85.35,81.4 85.36,81.67 85.36,81.94C85.37,82.21 85.37,82.49 85.38,82.76C85.39,83.03 85.4,83.31 85.41,83.58C85.42,83.85 85.43,84.13 85.44,84.4C85.45,84.67 85.46,84.94 85.47,85.21C85.48,85.48 85.49,85.76 85.5,86.03C85.51,86.3 85.52,86.58 85.53,86.85C85.54,87.12 85.54,87.4 85.55,87.67C85.56,87.94 85.56,88.22 85.57,88.49C85.58,88.76 85.59,89.03 85.59,89.3C85.6,89.57 85.6,89.85 85.6,90.12C85.6,90.39 85.6,90.67 85.6,90.94C85.6,91.21 85.61,91.49 85.61,91.76C85.61,92.03 85.61,92.3 85.61,92.57C85.61,92.84 85.61,93.12 85.61,93.39C85.61,93.66 85.62,93.94 85.62,94.21C85.62,94.48 85.63,94.76 85.63,95.03C85.64,95.3 85.64,95.58 85.65,95.85C85.66,96.12 85.67,96.39 85.68,96.66C85.69,96.93 85.7,97.21 85.71,97.48C85.72,97.75 85.72,98.03 85.73,98.3C85.73,98.57 85.74,98.85 85.74,99.12C85.74,99.39 85.75,99.66 85.75,99.93C85.75,100.2 85.74,100.48 85.74,100.75C85.74,101.02 85.73,101.3 85.73,101.57C85.72,101.84 85.72,102.12 85.71,102.39C85.71,102.66 85.7,102.94 85.7,103.21C85.7,103.48 85.7,103.75 85.7,104.02C85.7,104.29 85.71,104.57 85.72,104.84C85.73,105.11 85.73,105.39 85.74,105.66C85.75,105.93 85.75,106.21 85.76,106.48C85.77,106.75 85.78,107.02 85.79,107.29C85.8,107.56 85.8,107.84 85.81,108.11C85.82,108.38 85.82,108.66 85.83,108.93C85.84,109.2 85.84,109.48 85.85,109.75C85.86,110.02 85.86,110.3 85.87,110.57C85.88,110.84 85.89,111.11 85.89,111.38C85.9,111.65 85.9,111.93 85.9,112.2C85.9,112.47 85.91,112.75 85.91,113.02C85.91,113.29 85.92,113.57 85.92,113.84C85.92,114.11 85.93,114.38 85.93,114.65C85.93,114.92 85.93,115.2 85.93,115.47C85.93,115.74 85.93,116.02 85.93,116.29C85.93,116.56 85.93,116.84 85.93,117.11C85.93,117.38 85.94,117.66 85.94,117.93C85.94,118.2 85.94,118.47 85.94,118.74C85.94,119.01 85.95,119.29 85.95,119.56C85.95,119.83 85.95,120.11 85.95,120.38C85.95,120.65 85.95,120.93 85.95,121.2C85.95,121.47 85.96,121.74 85.96,122.01C85.96,122.28 85.96,122.56 85.96,122.83C85.96,123.1 85.96,123.38 85.96,123.65C85.96,123.92 85.96,124.2 85.96,124.47C85.96,124.74 85.96,125.02 85.96,125.29C85.96,125.56 85.96,125.83 85.96,126.1C85.96,126.37 85.97,126.65 85.97,126.92C85.97,127.19 85.97,127.47 85.97,127.74C85.97,128.01 85.97,128.29 85.97,128.56C85.97,128.83 85.98,129.1 85.98,129.37C85.98,129.64 85.98,129.92 85.98,130.19C85.98,130.46 85.99,130.74 85.99,131.01C85.99,131.28 86,131.56 86,131.83C86,132.1 86.01,132.38 86.01,132.65C86.01,132.92 86.02,133.19 86.02,133.46C86.02,133.73 86.03,134.01 86.03,134.28C86.03,134.55 86.04,134.83 86.04,135.1C86.04,135.37 86.05,135.65 86.05,135.92C86.05,136.19 86.05,136.46 86.05,136.73C86.05,137 86.06,137.28 86.06,137.55C86.06,137.82 86.05,138.1 86.05,138.37C86.05,138.64 86.05,138.92 86.05,139.19C86.05,139.46 86.05,139.74 86.05,140.01C86.05,140.28 86.04,140.55 86.04,140.82C86.04,141.09 86.04,141.37 86.04,141.64C86.04,141.91 86.04,142.19 86.04,142.46C86.04,142.73 86.04,143.01 86.04,143.28C86.04,143.55 86.04,143.82 86.04,144.09C86.04,144.36 86.05,144.64 86.05,144.91C86.05,145.18 86.05,145.46 86.05,145.73C86.05,146 86.05,146.28 86.05,146.55C86.05,146.82 86.06,147.1 86.06,147.37C86.06,147.64 86.07,147.91 86.07,148.18C86.07,148.45 86.07,148.73 86.07,149C86.07,149.27 86.08,149.55 86.08,149.82C86.08,150.09 86.09,150.37 86.09,150.64C86.09,150.91 86.09,151.18 86.09,151.45C86.09,151.72 86.09,152 86.09,152.27C86.09,152.54 86.09,152.82 86.09,153.09C86.09,153.36 86.09,153.64 86.09,153.91C86.09,154.18 86.08,154.46 86.08,154.73C86.08,155 86.08,155.27 86.08,155.54C86.08,155.81 86.08,156.09 86.08,156.36C86.08,156.63 86.09,156.91 86.09,157.18C86.09,157.45 86.09,157.73 86.09,158C86.09,158.27 86.09,158.54 86.09,158.81C86.09,159.08 86.09,159.36 86.09,159.63C86.09,159.9 86.09,160.18 86.09,160.45C86.09,160.72 86.09,161 86.09,161.27C86.09,161.54 86.09,161.82 86.09,162.09C86.09,162.36 86.09,162.63 86.09,162.9C86.09,163.17 86.1,163.45 86.1,163.72C86.1,163.99 86.1,164.27 86.1,164.54C86.1,164.81 86.11,165.09 86.11,165.36C86.11,165.63 86.11,165.9 86.11,166.17C86.11,166.44 86.12,166.72 86.12,166.99C86.12,167.26 86.13,167.54 86.13,167.81C86.13,168.08 86.13,168.36 86.13,168.63C86.13,168.9 86.13,169.18 86.13,169.45C86.13,169.72 86.14,169.99 86.14,170.26C86.14,170.53 86.14,170.81 86.14,171.08C86.14,171.35 86.14,171.63 86.14,171.9C86.14,172.17 86.14,172.45 86.14,172.72C86.14,172.99 86.14,173.26 86.14,173.53C86.14,173.8 86.14,174.08 86.14,174.35C86.14,174.62 86.14,174.9 86.14,175.17C86.14,175.44 86.13,175.72 86.13,175.99C86.13,176.26 86.13,176.54 86.13,176.81C86.13,177.08 86.12,177.35 86.12,177.62C86.12,177.89 86.12,178.17 86.12,178.44C86.12,178.71 86.12,178.99 86.12,179.26C86.12,179.53 86.11,179.81 86.11,180.08C86.11,180.35 86.11,180.62 86.11,180.89C86.11,181.16 86.12,181.44 86.12,181.71C86.12,181.98 86.12,182.26 86.12,182.53C86.12,182.8 86.13,183.08 86.13,183.35C86.13,183.62 86.13,183.9 86.13,184.17C86.13,184.44 86.14,184.71 86.14,184.98C86.14,185.25 86.14,185.53 86.14,185.8C86.14,186.07 86.14,186.35 86.14,186.62Q86.14,186.89 86.14,187.44Z" style="vector-effect: none; stroke-width: 0.5px; stroke: rgb(0, 0, 0); stroke-opacity: 1; fill: rgb(236, 154, 86); fill-opacity: 1;"/><path class="meanline" d="M96.28089904785156,32.86H75.99910095214844" style="fill: none; vector-effect: none; stroke-width: 0.5px; stroke-dasharray: 1px, 0.5px; stroke: rgb(0, 0, 0); stroke-opacity: 1;"/></g><g class="trace violins" style="opacity: 1;"><path class="violin" d="M143.64,96.62Q143.67,95.25 143.69,94.57C143.71,93.89 143.74,93.2 143.77,92.52C143.8,91.84 143.84,91.16 143.87,90.48C143.9,89.8 143.94,89.11 143.97,88.43C144,87.75 144.03,87.07 144.05,86.39C144.07,85.71 144.08,85.02 144.09,84.34C144.1,83.66 144.1,82.97 144.1,82.29C144.1,81.61 144.08,80.93 144.08,80.25C144.07,79.57 144.07,78.88 144.07,78.2C144.07,77.52 144.08,76.84 144.09,76.16C144.1,75.48 144.13,74.79 144.16,74.11C144.19,73.43 144.23,72.74 144.28,72.06C144.33,71.38 144.39,70.7 144.45,70.02C144.51,69.34 144.57,68.65 144.64,67.97C144.7,67.29 144.78,66.61 144.84,65.93C144.9,65.25 144.96,64.56 145.01,63.88C145.06,63.2 145.12,62.51 145.16,61.83C145.2,61.15 145.23,60.47 145.26,59.79C145.29,59.11 145.32,58.42 145.35,57.74C145.38,57.06 145.41,56.38 145.46,55.7C145.51,55.02 145.57,54.33 145.67,53.65C145.77,52.96 145.89,52.28 146.06,51.6C146.23,50.91 146.43,50.24 146.67,49.56C146.91,48.87 147.19,48.19 147.49,47.51C147.79,46.82 148.13,46.15 148.46,45.47C148.8,44.79 149.16,44.1 149.5,43.42C149.84,42.74 150.19,42.05 150.52,41.37C150.85,40.69 151.18,40.01 151.5,39.33C151.82,38.65 152.13,37.96 152.44,37.28C152.75,36.6 153.06,35.92 153.37,35.24C153.68,34.56 153.99,33.87 154.3,33.19C154.61,32.51 154.94,31.82 155.25,31.14C155.56,30.46 155.88,29.78 156.16,29.1C156.44,28.42 156.72,27.74 156.94,27.05C157.16,26.38 157.35,25.7 157.47,25.01C157.59,24.33 157.66,23.64 157.64,22.96C157.62,22.28 157.53,21.58 157.36,20.91C157.19,20.22 156.91,19.54 156.6,18.87C156.27,18.17 155.86,17.49 155.42,16.82C154.97,16.13 154.45,15.46 153.93,14.78C153.4,14.09 152.84,13.41 152.29,12.73C151.74,12.05 151.17,11.37 150.63,10.68C150.1,10 149.56,9.33 149.06,8.64C148.57,7.96 148.1,7.28 147.67,6.59C147.25,5.92 146.84,5.24 146.48,4.55C146.13,3.88 145.8,3.19 145.52,2.5C145.24,1.82 145.01,1.14 144.8,0.45C144.6,-0.23 144.42,-0.91 144.28,-1.59C144.14,-2.27 144.04,-2.96 143.95,-3.64Q143.86,-4.32 143.76,-5.68L143.38,-5.68Q143.28,-4.32 143.19,-3.64C143.1,-2.96 143,-2.27 142.86,-1.59C142.72,-0.91 142.55,-0.23 142.35,0.45C142.14,1.14 141.9,1.82 141.62,2.5C141.34,3.19 141.01,3.88 140.66,4.55C140.3,5.24 139.89,5.92 139.47,6.59C139.04,7.28 138.57,7.96 138.08,8.64C137.58,9.33 137.05,10 136.52,10.68C135.98,11.37 135.41,12.05 134.86,12.73C134.31,13.41 133.74,14.09 133.21,14.78C132.69,15.45 132.17,16.13 131.72,16.82C131.28,17.49 130.87,18.17 130.54,18.87C130.23,19.54 129.96,20.22 129.79,20.91C129.62,21.58 129.52,22.28 129.5,22.96C129.48,23.64 129.55,24.33 129.67,25.01C129.79,25.7 129.98,26.38 130.2,27.05C130.42,27.74 130.71,28.42 130.99,29.1C131.27,29.78 131.58,30.46 131.89,31.14C132.2,31.82 132.53,32.51 132.84,33.19C133.15,33.87 133.46,34.56 133.77,35.24C134.08,35.92 134.39,36.6 134.7,37.28C135.01,37.96 135.32,38.65 135.64,39.33C135.96,40.01 136.29,40.69 136.62,41.37C136.96,42.05 137.31,42.74 137.65,43.42C137.99,44.1 138.35,44.79 138.68,45.47C139.01,46.15 139.35,46.82 139.65,47.51C139.95,48.19 140.23,48.87 140.47,49.56C140.71,50.24 140.91,50.91 141.08,51.6C141.25,52.28 141.37,52.96 141.47,53.65C141.57,54.33 141.63,55.02 141.68,55.7C141.73,56.38 141.76,57.06 141.79,57.74C141.82,58.42 141.85,59.11 141.88,59.79C141.91,60.47 141.95,61.15 141.99,61.83C142.03,62.51 142.08,63.2 142.13,63.88C142.18,64.56 142.25,65.25 142.31,65.93C142.37,66.61 142.44,67.29 142.5,67.97C142.56,68.65 142.63,69.34 142.69,70.02C142.75,70.7 142.81,71.38 142.86,72.06C142.91,72.74 142.96,73.43 142.99,74.11C143.02,74.79 143.05,75.48 143.06,76.16C143.07,76.84 143.08,77.52 143.08,78.2C143.08,78.88 143.07,79.57 143.06,80.25C143.06,80.93 143.05,81.61 143.05,82.29C143.05,82.97 143.04,83.66 143.05,84.34C143.06,85.02 143.08,85.71 143.1,86.39C143.12,87.07 143.15,87.75 143.18,88.43C143.21,89.11 143.24,89.8 143.27,90.48C143.3,91.16 143.34,91.84 143.37,92.52C143.4,93.2 143.43,93.89 143.45,94.57Q143.47,95.25 143.5,96.62Z" style="vector-effect: none; stroke-width: 0.5px; stroke: rgb(0, 0, 0); stroke-opacity: 1; fill: rgb(155, 191, 229); fill-opacity: 1;"/><path class="meanline" d="M156.0722198486328,29.31H131.06778015136717" style="fill: none; vector-effect: none; stroke-width: 0.5px; stroke-dasharray: 1px, 0.5px; stroke: rgb(0, 0, 0); stroke-opacity: 1;"/></g><g class="trace violins" style="opacity: 1;"><path class="violin" d="M201.05,110.63Q201.07,109.56 201.09,109.03C201.11,108.5 201.13,107.97 201.15,107.44C201.17,106.91 201.2,106.38 201.22,105.85C201.25,105.32 201.28,104.78 201.3,104.25C201.32,103.72 201.34,103.19 201.35,102.66C201.36,102.13 201.37,101.59 201.37,101.06C201.37,100.53 201.36,100 201.35,99.47C201.34,98.94 201.32,98.4 201.3,97.87C201.28,97.34 201.25,96.81 201.23,96.28C201.21,95.75 201.18,95.21 201.16,94.68C201.14,94.15 201.12,93.62 201.1,93.09C201.08,92.56 201.06,92.02 201.05,91.49C201.04,90.96 201.04,90.43 201.03,89.9C201.02,89.37 201.01,88.83 201.01,88.3C201.01,87.77 201.01,87.24 201.01,86.71C201.01,86.18 201.01,85.64 201.01,85.11C201.01,84.58 201.02,84.05 201.03,83.52C201.04,82.99 201.04,82.45 201.05,81.92C201.06,81.39 201.07,80.86 201.09,80.33C201.11,79.8 201.13,79.26 201.15,78.73C201.17,78.2 201.21,77.67 201.23,77.14C201.26,76.61 201.28,76.07 201.3,75.54C201.32,75.01 201.34,74.48 201.36,73.95C201.38,73.42 201.39,72.88 201.4,72.35C201.41,71.82 201.4,71.29 201.4,70.76C201.4,70.23 201.39,69.69 201.39,69.16C201.39,68.63 201.38,68.1 201.38,67.57C201.38,67.04 201.38,66.5 201.39,65.97C201.39,65.44 201.4,64.91 201.41,64.38C201.42,63.85 201.44,63.31 201.45,62.78C201.46,62.25 201.48,61.72 201.49,61.19C201.51,60.66 201.52,60.12 201.54,59.59C201.56,59.06 201.57,58.53 201.59,58C201.61,57.47 201.64,56.93 201.67,56.4C201.7,55.87 201.73,55.34 201.77,54.81C201.81,54.28 201.85,53.74 201.9,53.21C201.95,52.68 202,52.15 202.06,51.62C202.12,51.09 202.18,50.55 202.25,50.02C202.32,49.49 202.39,48.96 202.48,48.43C202.57,47.9 202.66,47.36 202.77,46.83C202.88,46.3 203.01,45.77 203.16,45.24C203.31,44.7 203.48,44.17 203.67,43.64C203.86,43.11 204.08,42.58 204.32,42.05C204.56,41.52 204.84,40.99 205.12,40.46C205.41,39.92 205.72,39.39 206.04,38.86C206.37,38.33 206.71,37.8 207.06,37.27C207.41,36.74 207.77,36.2 208.12,35.67C208.47,35.14 208.82,34.61 209.17,34.08C209.52,33.55 209.86,33.01 210.2,32.48C210.54,31.95 210.87,31.42 211.19,30.89C211.51,30.36 211.81,29.83 212.1,29.29C212.39,28.76 212.67,28.23 212.92,27.7C213.17,27.17 213.41,26.64 213.62,26.1C213.83,25.57 214.02,25.04 214.19,24.51C214.36,23.98 214.5,23.44 214.63,22.91C214.75,22.38 214.87,21.85 214.94,21.32C215.01,20.79 215.07,20.25 215.07,19.72C215.07,19.19 215.05,18.66 214.96,18.13C214.87,17.59 214.73,17.05 214.54,16.53C214.34,15.99 214.08,15.46 213.78,14.94C213.47,14.4 213.09,13.86 212.69,13.34C212.28,12.8 211.82,12.27 211.35,11.75C210.87,11.21 210.36,10.68 209.85,10.15C209.34,9.62 208.81,9.09 208.3,8.56C207.79,8.03 207.28,7.5 206.79,6.96C206.31,6.43 205.84,5.91 205.4,5.37C204.97,4.84 204.56,4.31 204.18,3.77C203.82,3.25 203.48,2.72 203.18,2.18C202.89,1.66 202.63,1.12 202.4,0.58C202.18,0.06 202,-0.47 201.84,-1.01C201.69,-1.54 201.57,-2.08 201.47,-2.61C201.37,-3.14 201.3,-3.67 201.24,-4.2Q201.18,-4.73 201.11,-5.8L200.89,-5.8Q200.82,-4.73 200.76,-4.2C200.7,-3.67 200.63,-3.14 200.53,-2.61C200.43,-2.08 200.31,-1.54 200.16,-1.01C200,-0.47 199.82,0.06 199.6,0.58C199.37,1.12 199.11,1.66 198.82,2.18C198.52,2.72 198.18,3.25 197.82,3.77C197.44,4.31 197.03,4.84 196.6,5.37C196.16,5.91 195.69,6.43 195.21,6.96C194.72,7.5 194.21,8.03 193.7,8.56C193.19,9.09 192.66,9.62 192.15,10.15C191.64,10.68 191.13,11.21 190.65,11.75C190.18,12.27 189.72,12.8 189.31,13.34C188.91,13.86 188.53,14.4 188.22,14.94C187.92,15.46 187.66,15.99 187.46,16.53C187.27,17.05 187.13,17.59 187.04,18.13C186.95,18.66 186.93,19.19 186.93,19.72C186.93,20.25 186.99,20.79 187.06,21.32C187.13,21.85 187.25,22.38 187.37,22.91C187.5,23.44 187.64,23.98 187.81,24.51C187.98,25.04 188.17,25.57 188.38,26.1C188.59,26.64 188.83,27.17 189.08,27.7C189.33,28.23 189.61,28.76 189.9,29.29C190.19,29.83 190.49,30.36 190.81,30.89C191.13,31.42 191.46,31.95 191.8,32.48C192.14,33.01 192.48,33.55 192.83,34.08C193.18,34.61 193.53,35.14 193.88,35.67C194.23,36.2 194.59,36.74 194.94,37.27C195.29,37.8 195.63,38.33 195.96,38.86C196.28,39.39 196.59,39.92 196.88,40.46C197.16,40.99 197.44,41.52 197.68,42.05C197.92,42.58 198.14,43.11 198.33,43.64C198.52,44.17 198.69,44.7 198.84,45.24C198.99,45.77 199.12,46.3 199.23,46.83C199.34,47.36 199.43,47.9 199.52,48.43C199.61,48.96 199.68,49.49 199.75,50.02C199.82,50.55 199.88,51.09 199.94,51.62C200,52.15 200.05,52.68 200.1,53.21C200.15,53.74 200.19,54.28 200.23,54.81C200.27,55.34 200.3,55.87 200.33,56.4C200.36,56.93 200.39,57.47 200.41,58C200.43,58.53 200.44,59.06 200.46,59.59C200.48,60.12 200.49,60.66 200.51,61.19C200.52,61.72 200.54,62.25 200.55,62.78C200.56,63.31 200.58,63.85 200.59,64.38C200.6,64.91 200.61,65.44 200.61,65.97C200.62,66.5 200.62,67.04 200.62,67.57C200.62,68.1 200.61,68.63 200.61,69.16C200.61,69.69 200.6,70.23 200.6,70.76C200.6,71.29 200.59,71.82 200.6,72.35C200.61,72.88 200.62,73.42 200.64,73.95C200.66,74.48 200.68,75.01 200.7,75.54C200.72,76.07 200.74,76.61 200.77,77.14C200.79,77.67 200.83,78.2 200.85,78.73C200.87,79.26 200.89,79.8 200.91,80.33C200.93,80.86 200.94,81.39 200.95,81.92C200.96,82.45 200.96,82.99 200.97,83.52C200.98,84.05 200.99,84.58 200.99,85.11C200.99,85.64 200.99,86.18 200.99,86.71C200.99,87.24 200.99,87.77 200.99,88.3C200.99,88.83 200.98,89.37 200.97,89.9C200.96,90.43 200.96,90.96 200.95,91.49C200.94,92.02 200.92,92.56 200.9,93.09C200.88,93.62 200.86,94.15 200.84,94.68C200.82,95.21 200.79,95.75 200.77,96.28C200.75,96.81 200.72,97.34 200.7,97.87C200.68,98.4 200.66,98.94 200.65,99.47C200.64,100 200.63,100.53 200.63,101.06C200.63,101.59 200.64,102.13 200.65,102.66C200.66,103.19 200.68,103.72 200.7,104.25C200.72,104.78 200.75,105.32 200.78,105.85C200.8,106.38 200.83,106.91 200.85,107.44C200.87,107.97 200.89,108.5 200.91,109.03Q200.93,109.56 200.95,110.63Z" style="vector-effect: none; stroke-width: 0.5px; stroke: rgb(0, 0, 0); stroke-opacity: 1; fill: rgb(138, 165, 61); fill-opacity: 1;"/><path class="meanline" d="M214.06497192382812,24.89H187.93502807617188" style="fill: none; vector-effect: none; stroke-width: 0.5px; stroke-dasharray: 1px, 0.5px; stroke: rgb(0, 0, 0); stroke-opacity: 1;"/></g><g class="trace violins" style="opacity: 1;"><path class="violin" d="M258.53,86.13Q258.58,84.98 258.62,84.4C258.66,83.82 258.71,83.25 258.77,82.67C258.83,82.1 258.89,81.52 258.96,80.95C259.03,80.37 259.11,79.8 259.18,79.22C259.25,78.65 259.33,78.07 259.39,77.5C259.45,76.92 259.5,76.35 259.54,75.77C259.58,75.2 259.61,74.62 259.62,74.05C259.63,73.47 259.61,72.9 259.6,72.32C259.59,71.74 259.55,71.17 259.53,70.59C259.51,70.02 259.48,69.44 259.46,68.87C259.44,68.29 259.42,67.72 259.42,67.14C259.42,66.57 259.43,65.99 259.44,65.42C259.45,64.84 259.48,64.27 259.5,63.69C259.52,63.12 259.55,62.54 259.58,61.97C259.61,61.39 259.64,60.82 259.67,60.24C259.7,59.66 259.72,59.09 259.76,58.51C259.8,57.94 259.85,57.36 259.91,56.79C259.97,56.21 260.05,55.63 260.14,55.06C260.24,54.48 260.35,53.91 260.48,53.34C260.61,52.76 260.76,52.18 260.91,51.61C261.06,51.03 261.24,50.46 261.39,49.89C261.55,49.31 261.69,48.74 261.84,48.16C261.98,47.59 262.12,47.01 262.26,46.44C262.4,45.86 262.53,45.28 262.68,44.71C262.84,44.13 262.99,43.55 263.19,42.98C263.4,42.4 263.63,41.83 263.91,41.26C264.19,40.68 264.52,40.1 264.88,39.53C265.25,38.95 265.66,38.38 266.08,37.81C266.5,37.23 266.96,36.66 267.4,36.08C267.84,35.51 268.29,34.94 268.7,34.36C269.1,33.79 269.49,33.21 269.84,32.63C270.18,32.06 270.51,31.48 270.79,30.9C271.06,30.33 271.3,29.76 271.51,29.18C271.72,28.61 271.9,28.03 272.04,27.45C272.18,26.88 272.29,26.31 272.37,25.73C272.45,25.16 272.5,24.58 272.5,24C272.5,23.43 272.46,22.85 272.37,22.28C272.28,21.7 272.15,21.12 271.97,20.55C271.79,19.97 271.55,19.39 271.28,18.82C271.01,18.24 270.68,17.67 270.34,17.1C269.99,16.52 269.61,15.94 269.23,15.37C268.84,14.79 268.42,14.22 268.02,13.65C267.61,13.07 267.21,12.5 266.8,11.92C266.4,11.35 265.99,10.78 265.59,10.2C265.19,9.63 264.81,9.05 264.42,8.47C264.04,7.9 263.65,7.33 263.28,6.75C262.91,6.18 262.55,5.6 262.2,5.02C261.86,4.45 261.51,3.87 261.2,3.29C260.89,2.72 260.6,2.15 260.34,1.57C260.08,1 259.85,0.42 259.65,-0.16C259.45,-0.73 259.29,-1.3 259.15,-1.88C259.01,-2.45 258.91,-3.03 258.82,-3.61Q258.73,-4.18 258.62,-5.33L258.24,-5.33Q258.13,-4.18 258.04,-3.61C257.95,-3.03 257.85,-2.45 257.71,-1.88C257.57,-1.3 257.41,-0.73 257.21,-0.16C257.01,0.42 256.78,1 256.52,1.57C256.26,2.15 255.97,2.72 255.66,3.29C255.35,3.87 255,4.45 254.66,5.02C254.31,5.6 253.95,6.18 253.58,6.75C253.21,7.33 252.83,7.9 252.44,8.47C252.05,9.05 251.66,9.63 251.26,10.2C250.86,10.78 250.46,11.35 250.06,11.92C249.65,12.5 249.24,13.07 248.83,13.65C248.43,14.22 248.02,14.79 247.63,15.37C247.25,15.94 246.87,16.52 246.52,17.1C246.18,17.67 245.85,18.24 245.58,18.82C245.31,19.39 245.07,19.97 244.89,20.55C244.71,21.12 244.57,21.7 244.48,22.28C244.39,22.85 244.36,23.43 244.36,24C244.36,24.58 244.4,25.16 244.48,25.73C244.56,26.31 244.68,26.88 244.82,27.45C244.97,28.03 245.14,28.61 245.35,29.18C245.56,29.76 245.8,30.33 246.07,30.9C246.35,31.48 246.67,32.06 247.01,32.63C247.36,33.21 247.76,33.79 248.16,34.36C248.57,34.94 249.02,35.51 249.45,36.08C249.89,36.66 250.34,37.23 250.77,37.81C251.19,38.38 251.61,38.95 251.98,39.53C252.34,40.1 252.67,40.68 252.95,41.26C253.23,41.83 253.46,42.4 253.67,42.98C253.87,43.55 254.02,44.13 254.18,44.71C254.33,45.28 254.46,45.86 254.6,46.44C254.74,47.01 254.87,47.59 255.01,48.16C255.16,48.74 255.31,49.31 255.47,49.89C255.62,50.46 255.79,51.04 255.94,51.61C256.09,52.19 256.25,52.76 256.38,53.34C256.51,53.91 256.62,54.48 256.72,55.06C256.81,55.63 256.89,56.21 256.95,56.79C257.01,57.36 257.05,57.94 257.09,58.51C257.13,59.09 257.16,59.66 257.19,60.24C257.22,60.82 257.25,61.39 257.28,61.97C257.31,62.54 257.34,63.12 257.36,63.69C257.38,64.27 257.41,64.84 257.42,65.42C257.43,65.99 257.43,66.57 257.43,67.14C257.43,67.72 257.42,68.29 257.4,68.87C257.38,69.44 257.34,70.02 257.32,70.59C257.29,71.17 257.26,71.74 257.25,72.32C257.24,72.9 257.23,73.47 257.24,74.05C257.25,74.62 257.27,75.2 257.31,75.77C257.35,76.35 257.41,76.92 257.47,77.5C257.53,78.07 257.61,78.65 257.68,79.22C257.75,79.8 257.83,80.37 257.9,80.95C257.97,81.52 258.04,82.1 258.09,82.67C258.15,83.25 258.19,83.82 258.23,84.4Q258.27,84.98 258.33,86.13Z" style="vector-effect: none; stroke-width: 0.5px; stroke: rgb(0, 0, 0); stroke-opacity: 1; fill: rgb(186, 105, 190); fill-opacity: 1;"/><path class="meanline" d="M271.8041076660156,28.31H245.0558923339844" style="fill: none; vector-effect: none; stroke-width: 0.5px; stroke-dasharray: 1px, 0.5px; stroke: rgb(0, 0, 0); stroke-opacity: 1;"/></g><g class="trace violins" style="opacity: 1;"><path class="violin" d="M316.07,88.09Q316.18,85.95 316.26,84.88C316.34,83.81 316.44,82.73 316.55,81.66C316.66,80.59 316.79,79.52 316.94,78.45C317.09,77.38 317.26,76.31 317.43,75.24C317.6,74.17 317.79,73.09 317.98,72.02C318.17,70.95 318.36,69.88 318.57,68.81C318.78,67.74 318.98,66.66 319.22,65.59C319.46,64.52 319.7,63.45 319.99,62.38C320.28,61.31 320.6,60.23 320.98,59.17C321.37,58.09 321.81,57.01 322.29,55.95C322.78,54.87 323.34,53.8 323.91,52.74C324.48,51.66 325.12,50.6 325.71,49.52C326.29,48.45 326.91,47.39 327.42,46.31C327.91,45.25 328.39,44.19 328.72,43.1C329.04,42.04 329.27,40.96 329.4,39.88C329.53,38.81 329.52,37.74 329.49,36.67C329.46,35.6 329.31,34.52 329.22,33.45C329.13,32.38 329.01,31.31 328.97,30.24C328.93,29.17 328.94,28.1 329,27.03C329.06,25.96 329.23,24.88 329.36,23.81C329.49,22.74 329.71,21.67 329.8,20.6C329.89,19.53 329.99,18.45 329.93,17.38C329.87,16.31 329.7,15.22 329.41,14.17C329.11,13.08 328.65,12.01 328.13,10.96C327.59,9.87 326.89,8.8 326.21,7.74C325.51,6.66 324.71,5.6 323.97,4.53C323.23,3.46 322.46,2.39 321.76,1.31C321.08,0.25 320.41,-0.81 319.83,-1.9C319.27,-2.96 318.77,-4.03 318.34,-5.11C317.92,-6.17 317.58,-7.25 317.29,-8.33C317.01,-9.39 316.8,-10.47 316.62,-11.54Q316.44,-12.61 316.23,-14.76L315.49,-14.76Q315.28,-12.61 315.1,-11.54C314.92,-10.47 314.71,-9.39 314.43,-8.33C314.14,-7.25 313.8,-6.17 313.38,-5.11C312.95,-4.03 312.44,-2.96 311.88,-1.9C311.3,-0.82 310.64,0.25 309.96,1.31C309.26,2.39 308.48,3.46 307.74,4.53C307,5.6 306.21,6.66 305.51,7.74C304.83,8.8 304.13,9.87 303.59,10.96C303.07,12.01 302.6,13.08 302.3,14.17C302.01,15.22 301.85,16.31 301.79,17.38C301.73,18.45 301.83,19.53 301.92,20.6C302.01,21.67 302.23,22.74 302.36,23.81C302.49,24.88 302.65,25.96 302.71,27.03C302.77,28.1 302.79,29.17 302.75,30.24C302.71,31.31 302.58,32.38 302.49,33.45C302.4,34.52 302.26,35.6 302.23,36.67C302.2,37.74 302.18,38.82 302.31,39.88C302.44,40.96 302.67,42.04 303,43.1C303.33,44.19 303.81,45.25 304.3,46.31C304.8,47.39 305.42,48.45 306,49.52C306.59,50.6 307.23,51.66 307.8,52.74C308.37,53.81 308.94,54.87 309.43,55.95C309.91,57.01 310.35,58.09 310.73,59.17C311.11,60.23 311.43,61.31 311.72,62.38C312.01,63.45 312.25,64.52 312.49,65.59C312.73,66.66 312.93,67.74 313.14,68.81C313.35,69.88 313.55,70.95 313.74,72.02C313.93,73.09 314.12,74.17 314.29,75.24C314.46,76.31 314.62,77.38 314.77,78.45C314.92,79.52 315.05,80.59 315.17,81.66C315.28,82.73 315.38,83.81 315.46,84.88Q315.54,85.95 315.65,88.09Z" style="vector-effect: none; stroke-width: 0.5px; stroke: rgb(0, 0, 0); stroke-opacity: 1; fill: rgb(185, 178, 194); fill-opacity: 1;"/><path class="meanline" d="M328.99017333984375,30.67H302.7298266601563" style="fill: none; vector-effect: none; stroke-width: 0.5px; stroke-dasharray: 1px, 0.5px; stroke: rgb(0, 0, 0); stroke-opacity: 1;"/></g><g class="trace violins" style="opacity: 1;"><path class="violin" d="M373.53,50.69Q373.67,49.56 373.76,49C373.86,48.44 373.97,47.88 374.1,47.32C374.23,46.76 374.4,46.19 374.56,45.63C374.72,45.07 374.91,44.5 375.08,43.94C375.25,43.38 375.44,42.82 375.58,42.25C375.72,41.69 375.85,41.13 375.94,40.56C376.03,40 376.09,39.43 376.12,38.87C376.15,38.31 376.13,37.74 376.11,37.18C376.09,36.62 376.03,36.05 376.02,35.49C376.01,34.93 376,34.36 376.05,33.8C376.1,33.23 376.19,32.66 376.35,32.11C376.52,31.54 376.76,30.98 377.05,30.43C377.35,29.85 377.73,29.29 378.14,28.74C378.56,28.16 379.06,27.61 379.55,27.05C380.05,26.48 380.58,25.92 381.1,25.36C381.62,24.8 382.15,24.24 382.65,23.67C383.14,23.11 383.63,22.55 384.09,21.98C384.54,21.42 384.98,20.86 385.37,20.29C385.75,19.74 386.11,19.17 386.41,18.6C386.7,18.05 386.97,17.48 387.13,16.91C387.28,16.36 387.39,15.79 387.36,15.23C387.33,14.66 387.17,14.08 386.93,13.54C386.67,12.95 386.24,12.39 385.78,11.85C385.27,11.26 384.61,10.71 383.96,10.16C383.27,9.58 382.49,9.03 381.74,8.47C380.98,7.9 380.18,7.35 379.44,6.78C378.73,6.23 378.01,5.67 377.38,5.09C376.79,4.54 376.24,3.98 375.77,3.4C375.34,2.86 374.95,2.29 374.65,1.71Q374.36,1.16 373.97,0.02L372.61,0.02Q372.21,1.16 371.92,1.71C371.61,2.29 371.23,2.86 370.8,3.4C370.33,3.98 369.78,4.54 369.19,5.09C368.56,5.67 367.85,6.23 367.14,6.78C366.4,7.35 365.6,7.9 364.84,8.47C364.09,9.03 363.3,9.58 362.61,10.16C361.96,10.71 361.3,11.26 360.79,11.85C360.33,12.39 359.9,12.95 359.64,13.54C359.4,14.08 359.25,14.66 359.22,15.23C359.19,15.79 359.29,16.36 359.44,16.91C359.6,17.48 359.87,18.05 360.16,18.6C360.46,19.18 360.83,19.73 361.21,20.29C361.6,20.86 362.03,21.42 362.48,21.98C362.94,22.55 363.43,23.11 363.92,23.67C364.42,24.24 364.95,24.8 365.47,25.36C365.99,25.92 366.52,26.48 367.02,27.05C367.51,27.61 368,28.16 368.43,28.74C368.84,29.29 369.23,29.85 369.53,30.43C369.82,30.98 370.05,31.54 370.22,32.11C370.38,32.66 370.48,33.23 370.53,33.8C370.58,34.36 370.56,34.93 370.55,35.49C370.54,36.05 370.48,36.62 370.46,37.18C370.44,37.74 370.42,38.31 370.45,38.87C370.48,39.43 370.54,40 370.63,40.56C370.72,41.13 370.86,41.69 371,42.25C371.14,42.82 371.32,43.38 371.49,43.94C371.66,44.5 371.86,45.06 372.02,45.63C372.18,46.19 372.34,46.76 372.47,47.32C372.6,47.88 372.72,48.44 372.82,49Q372.91,49.56 373.04,50.69Z" style="vector-effect: none; stroke-width: 0.5px; stroke: rgb(0, 0, 0); stroke-opacity: 1; fill: rgb(181, 174, 112); fill-opacity: 1;"/><path class="meanline" d="M385.8460998535156,19.57H360.7339001464844" style="fill: none; vector-effect: none; stroke-width: 0.5px; stroke-dasharray: 1px, 0.5px; stroke: rgb(0, 0, 0); stroke-opacity: 1;"/></g></g></g><g class="overplot"/><path class="xlines-above crisp" d="M52.5,221.25H455" style="fill: none; stroke-width: 0.5px; stroke: rgb(0, 0, 0); stroke-opacity: 1;"/><path class="ylines-above crisp" d="M52.75,20V221" style="fill: none; stroke-width: 0.5px; stroke: rgb(0, 0, 0); stroke-opacity: 1;"/><g class="overlines-above"/><g class="xaxislayer-above"><path class="xtick ticks crisp" d="M0,221.5v5" transform="translate(81.71000000000001,0)" style="stroke: rgb(68, 68, 68); stroke-opacity: 1; stroke-width: 0.5px;"/><path class="xtick ticks crisp" d="M0,221.5v5" transform="translate(139.14,0)" style="stroke: rgb(68, 68, 68); stroke-opacity: 1; stroke-width: 0.5px;"/><path class="xtick ticks crisp" d="M0,221.5v5" transform="translate(196.57,0)" style="stroke: rgb(68, 68, 68); stroke-opacity: 1; stroke-width: 0.5px;"/><path class="xtick ticks crisp" d="M0,221.5v5" transform="translate(254,0)" style="stroke: rgb(68, 68, 68); stroke-opacity: 1; stroke-width: 0.5px;"/><path class="xtick ticks crisp" d="M0,221.5v5" transform="translate(311.43,0)" style="stroke: rgb(68, 68, 68); stroke-opacity: 1; stroke-width: 0.5px;"/><path class="xtick ticks crisp" d="M0,221.5v5" transform="translate(368.86,0)" style="stroke: rgb(68, 68, 68); stroke-opacity: 1; stroke-width: 0.5px;"/><path class="xtick ticks crisp" d="M0,221.5v5" transform="translate(426.29,0)" style="stroke: rgb(68, 68, 68); stroke-opacity: 1; stroke-width: 0.5px;"/><g class="xtick"><text text-anchor="start" x="0" y="240.9" transform="translate(81.71000000000001,0) rotate(30,0,234.9)" style="font-family: Helvetica; font-size: 12px; fill: rgb(0, 0, 0); fill-opacity: 1; white-space: pre; opacity: 1;">canonical (t/d)</text></g><g class="xtick"><text text-anchor="start" x="0" y="240.9" transform="translate(139.14,0) rotate(30,0,234.9)" style="font-family: Helvetica; font-size: 12px; fill: rgb(0, 0, 0); fill-opacity: 1; white-space: pre; opacity: 1;">canonical (PISCES)</text></g><g class="xtick"><text text-anchor="start" x="0" y="240.9" transform="translate(196.57,0) rotate(30,0,234.9)" style="font-family: Helvetica; font-size: 12px; fill: rgb(0, 0, 0); fill-opacity: 1; white-space: pre; opacity: 1;">spliced</text></g><g class="xtick"><text text-anchor="start" x="0" y="240.9" transform="translate(254,0) rotate(30,0,234.9)" style="font-family: Helvetica; font-size: 12px; fill: rgb(0, 0, 0); fill-opacity: 1; white-space: pre; opacity: 1;">multimapped</text></g><g class="xtick"><text text-anchor="start" x="0" y="240.9" transform="translate(311.43,0) rotate(30,0,234.9)" style="font-family: Helvetica; font-size: 12px; fill: rgb(0, 0, 0); fill-opacity: 1; white-space: pre; opacity: 1;">cryptic</text></g><g class="xtick"><text text-anchor="start" x="0" y="240.9" transform="translate(368.86,0) rotate(30,0,234.9)" style="font-family: Helvetica; font-size: 12px; fill: rgb(0, 0, 0); fill-opacity: 1; white-space: pre; opacity: 1;">unmapped</text></g><g class="xtick"><text text-anchor="start" x="0" y="240.9" transform="translate(426.29,0) rotate(30,0,234.9)" style="font-family: Helvetica; font-size: 12px; fill: rgb(0, 0, 0); fill-opacity: 1; white-space: pre; opacity: 1;">contaminants</text></g></g><g class="yaxislayer-above"><path class="ytick ticks crisp" d="M52.5,0h-5" transform="translate(0,221)" style="stroke: rgb(68, 68, 68); stroke-opacity: 1; stroke-width: 0.5px;"/><path class="ytick ticks crisp" d="M52.5,0h-5" transform="translate(0,180.8)" style="stroke: rgb(68, 68, 68); stroke-opacity: 1; stroke-width: 0.5px;"/><path class="ytick ticks crisp" d="M52.5,0h-5" transform="translate(0,140.6)" style="stroke: rgb(68, 68, 68); stroke-opacity: 1; stroke-width: 0.5px;"/><path class="ytick ticks crisp" d="M52.5,0h-5" transform="translate(0,100.4)" style="stroke: rgb(68, 68, 68); stroke-opacity: 1; stroke-width: 0.5px;"/><path class="ytick ticks crisp" d="M52.5,0h-5" transform="translate(0,60.2)" style="stroke: rgb(68, 68, 68); stroke-opacity: 1; stroke-width: 0.5px;"/><path class="ytick ticks crisp" d="M52.5,0h-5" transform="translate(0,20)" style="stroke: rgb(68, 68, 68); stroke-opacity: 1; stroke-width: 0.5px;"/><g class="ytick"><text text-anchor="end" x="45.1" y="4.199999999999999" transform="translate(0,221)" style="font-family: Helvetica; font-size: 12px; fill: rgb(0, 0, 0); fill-opacity: 1; white-space: pre; opacity: 1;">0</text></g><g class="ytick"><text text-anchor="end" x="45.1" y="4.199999999999999" style="font-family: Helvetica; font-size: 12px; fill: rgb(0, 0, 0); fill-opacity: 1; white-space: pre; opacity: 1;" transform="translate(0,180.8)">0.2</text></g><g class="ytick"><text text-anchor="end" x="45.1" y="4.199999999999999" style="font-family: Helvetica; font-size: 12px; fill: rgb(0, 0, 0); fill-opacity: 1; white-space: pre; opacity: 1;" transform="translate(0,140.6)">0.4</text></g><g class="ytick"><text text-anchor="end" x="45.1" y="4.199999999999999" style="font-family: Helvetica; font-size: 12px; fill: rgb(0, 0, 0); fill-opacity: 1; white-space: pre; opacity: 1;" transform="translate(0,100.4)">0.6</text></g><g class="ytick"><text text-anchor="end" x="45.1" y="4.199999999999999" style="font-family: Helvetica; font-size: 12px; fill: rgb(0, 0, 0); fill-opacity: 1; white-space: pre; opacity: 1;" transform="translate(0,60.2)">0.8</text></g><g class="ytick"><text text-anchor="end" x="45.1" y="4.199999999999999" style="font-family: Helvetica; font-size: 12px; fill: rgb(0, 0, 0); fill-opacity: 1; white-space: pre; opacity: 1;" transform="translate(0,20)">1</text></g></g><g class="overaxes-above"/></g></g><g class="polarlayer"/><g class="smithlayer"/><g class="ternarylayer"/><g class="geolayer"/><g class="funnelarealayer"/><g class="pielayer"/><g class="iciclelayer"/><g class="treemaplayer"/><g class="sunburstlayer"/><g class="glimages"/><defs id="topdefs-04e990"><g class="clips"/></defs><g class="layer-above"><g class="imagelayer"/><g class="shapelayer"/></g><g class="infolayer"><g class="g-gtitle"/><g class="g-xtitle"/><g class="g-ytitle" transform="translate(12.4560546875,0)"><text class="ytitle" transform="rotate(-90,0.5437500000000028,120.5)" x="0.5437500000000028" y="120.5" text-anchor="middle" style="font-family: Helvetica; font-size: 14px; fill: rgb(0, 0, 0); opacity: 1; font-weight: normal; white-space: pre;">Spectral Angle</text></g></g></svg>