<svg class="main-svg" xmlns="http://www.w3.org/2000/svg" xmlns:xlink="http://www.w3.org/1999/xlink" width="500" height="300" style="" viewBox="0 0 500 300"><rect x="0" y="0" width="500" height="300" style="fill: rgb(255, 255, 255); fill-opacity: 1;"/><defs id="defs-76563e"><g class="clips"><clipPath id="clip76563exyplot" class="plotclip"><rect width="417" height="205"/></clipPath><clipPath class="axesclip" id="clip76563ex"><rect x="49" y="0" width="417" height="300"/></clipPath><clipPath class="axesclip" id="clip76563ey"><rect x="0" y="20" width="500" height="205"/></clipPath><clipPath class="axesclip" id="clip76563exy"><rect x="49" y="20" width="417" height="205"/></clipPath></g><g class="gradients"/><g class="patterns"/></defs><g class="bglayer"><rect class="bg" x="49" y="20" width="417" height="205" style="fill: rgb(0, 0, 0); fill-opacity: 0; stroke-width: 0;"/></g><g class="layer-below"><g class="imagelayer"/><g class="shapelayer"/></g><g class="cartesianlayer"><g class="subplot xy"><g class="layer-subplot"><g class="shapelayer"/><g class="imagelayer"/></g><g class="minor-gridlayer"><g class="x"/><g class="y"/></g><g class="gridlayer"><g class="x"/><g class="y"/></g><g class="zerolinelayer"/><path class="xlines-below"/><path class="ylines-below"/><g class="overlines-below"/><g class="xaxislayer-below"/><g class="yaxislayer-below"/><g class="overaxes-below"/><g class="plot" transform="translate(49,20)" clip-path="url(#clip76563exyplot)"><g class="violinlayer mlayer"><g class="trace violins" style="opacity: 1;"><path class="violin" d="M29.79,199.93Q29.79,199.05 29.79,198.61C29.79,198.17 29.79,197.72 29.79,197.28C29.79,196.84 29.79,196.4 29.79,195.96C29.79,195.52 29.8,195.07 29.8,194.63C29.8,194.19 29.8,193.75 29.8,193.31C29.8,192.87 29.8,192.42 29.8,191.98C29.8,191.54 29.8,191.1 29.8,190.66C29.8,190.22 29.81,189.78 29.81,189.34C29.81,188.9 29.81,188.45 29.81,188.01C29.81,187.57 29.82,187.13 29.82,186.69C29.82,186.25 29.83,185.8 29.83,185.36C29.83,184.92 29.83,184.48 29.83,184.04C29.83,183.6 29.84,183.16 29.84,182.72C29.84,182.28 29.85,181.83 29.85,181.39C29.85,180.95 29.85,180.51 29.85,180.07C29.85,179.63 29.85,179.18 29.85,178.74C29.85,178.3 29.85,177.86 29.85,177.42C29.85,176.98 29.85,176.53 29.85,176.09C29.85,175.65 29.86,175.21 29.86,174.77C29.86,174.33 29.86,173.89 29.86,173.45C29.86,173.01 29.86,172.56 29.86,172.12C29.86,171.68 29.87,171.24 29.87,170.8C29.87,170.36 29.88,169.91 29.88,169.47C29.88,169.03 29.88,168.59 29.88,168.15C29.88,167.71 29.89,167.26 29.9,166.82C29.9,166.38 29.91,165.94 29.91,165.5C29.92,165.06 29.93,164.62 29.93,164.18C29.94,163.74 29.93,163.29 29.94,162.85C29.94,162.41 29.96,161.97 29.96,161.53C29.97,161.09 29.97,160.64 29.97,160.2C29.97,159.76 29.98,159.32 29.98,158.88C29.98,158.44 29.99,158 29.99,157.56C29.99,157.12 29.99,156.67 29.99,156.23C29.99,155.79 29.99,155.35 29.99,154.91C29.99,154.47 29.99,154.02 29.99,153.58C29.99,153.14 30,152.7 30,152.26C30,151.82 30,151.37 30,150.93C30,150.49 30.01,150.05 30.01,149.61C30.02,149.17 30.02,148.73 30.03,148.29C30.04,147.85 30.04,147.4 30.05,146.96C30.06,146.52 30.06,146.08 30.07,145.64C30.08,145.2 30.1,144.75 30.11,144.31C30.12,143.87 30.13,143.43 30.14,142.99C30.15,142.55 30.17,142.11 30.18,141.67C30.19,141.23 30.2,140.78 30.21,140.34C30.22,139.9 30.23,139.46 30.24,139.02C30.25,138.58 30.26,138.13 30.27,137.69C30.28,137.25 30.28,136.81 30.28,136.37C30.28,135.93 30.28,135.48 30.28,135.04C30.28,134.6 30.28,134.16 30.28,133.72C30.28,133.28 30.28,132.84 30.28,132.4C30.28,131.96 30.27,131.51 30.27,131.07C30.27,130.63 30.28,130.19 30.28,129.75C30.28,129.31 30.28,128.86 30.29,128.42C30.3,127.98 30.31,127.54 30.32,127.1C30.33,126.66 30.34,126.21 30.35,125.77C30.36,125.33 30.37,124.89 30.38,124.45C30.39,124.01 30.41,123.57 30.42,123.13C30.43,122.69 30.45,122.24 30.46,121.8C30.47,121.36 30.48,120.92 30.49,120.48C30.5,120.04 30.52,119.59 30.53,119.15C30.54,118.71 30.56,118.27 30.57,117.83C30.58,117.39 30.6,116.95 30.61,116.51C30.63,116.07 30.65,115.62 30.66,115.18C30.67,114.74 30.68,114.3 30.69,113.86C30.7,113.42 30.72,112.97 30.73,112.53C30.74,112.09 30.74,111.65 30.75,111.21C30.76,110.77 30.76,110.32 30.77,109.88C30.78,109.44 30.78,109 30.79,108.56C30.8,108.12 30.82,107.68 30.83,107.24C30.84,106.8 30.85,106.35 30.87,105.91C30.89,105.47 30.91,105.03 30.93,104.59C30.95,104.15 30.98,103.7 31,103.26C31.02,102.82 31.05,102.38 31.07,101.94C31.1,101.5 31.12,101.05 31.15,100.61C31.18,100.17 31.21,99.73 31.23,99.29C31.25,98.85 31.27,98.41 31.29,97.97C31.31,97.53 31.32,97.08 31.34,96.64C31.35,96.2 31.37,95.76 31.38,95.32C31.39,94.88 31.4,94.43 31.41,93.99C31.42,93.55 31.42,93.11 31.43,92.67C31.44,92.23 31.44,91.79 31.45,91.35C31.46,90.91 31.47,90.46 31.48,90.02C31.49,89.58 31.51,89.14 31.52,88.7C31.54,88.26 31.55,87.81 31.57,87.37C31.59,86.93 31.61,86.49 31.63,86.05C31.65,85.61 31.67,85.16 31.69,84.72C31.71,84.28 31.72,83.84 31.74,83.4C31.76,82.96 31.77,82.52 31.79,82.08C31.81,81.64 31.82,81.19 31.84,80.75C31.86,80.31 31.88,79.87 31.9,79.43C31.92,78.99 31.95,78.54 31.98,78.1C32.01,77.66 32.04,77.22 32.07,76.78C32.1,76.34 32.14,75.9 32.18,75.46C32.22,75.02 32.26,74.57 32.3,74.13C32.34,73.69 32.39,73.25 32.44,72.81C32.49,72.37 32.53,71.92 32.58,71.48C32.63,71.04 32.67,70.6 32.72,70.16C32.77,69.72 32.82,69.27 32.87,68.83C32.92,68.39 32.98,67.95 33.04,67.51C33.1,67.07 33.16,66.63 33.22,66.19C33.28,65.75 33.35,65.3 33.42,64.86C33.49,64.42 33.56,63.98 33.64,63.54C33.72,63.1 33.8,62.65 33.88,62.21C33.96,61.77 34.05,61.33 34.13,60.89C34.21,60.45 34.29,60 34.37,59.56C34.45,59.12 34.53,58.68 34.6,58.24C34.67,57.8 34.74,57.36 34.81,56.92C34.88,56.48 34.95,56.03 35.02,55.59C35.09,55.15 35.15,54.71 35.21,54.27C35.28,53.83 35.34,53.38 35.41,52.94C35.48,52.5 35.56,52.06 35.64,51.62C35.72,51.18 35.8,50.74 35.89,50.3C35.98,49.86 36.08,49.41 36.19,48.97C36.3,48.53 36.42,48.09 36.54,47.65C36.66,47.21 36.79,46.76 36.92,46.32C37.05,45.88 37.19,45.44 37.33,45C37.48,44.56 37.63,44.11 37.79,43.67C37.95,43.23 38.12,42.79 38.29,42.35C38.46,41.91 38.64,41.47 38.82,41.03C39,40.59 39.2,40.14 39.39,39.7C39.58,39.26 39.78,38.82 39.97,38.38C40.16,37.94 40.36,37.49 40.55,37.05C40.74,36.61 40.92,36.17 41.1,35.73C41.28,35.29 41.44,34.85 41.61,34.41C41.77,33.97 41.94,33.52 42.09,33.08C42.24,32.64 42.39,32.2 42.53,31.76C42.67,31.32 42.82,30.87 42.95,30.43C43.08,29.99 43.2,29.55 43.32,29.11C43.44,28.67 43.55,28.22 43.66,27.78C43.77,27.34 43.87,26.9 43.96,26.46C44.05,26.02 44.13,25.58 44.19,25.14C44.25,24.7 44.31,24.25 44.34,23.81C44.37,23.37 44.39,22.93 44.38,22.49C44.37,22.05 44.33,21.6 44.25,21.16C44.17,20.72 44.06,20.27 43.91,19.84C43.75,19.39 43.56,18.94 43.32,18.51C43.08,18.06 42.78,17.62 42.46,17.19C42.13,16.74 41.75,16.3 41.35,15.87C40.94,15.42 40.48,14.98 40.03,14.54C39.57,14.09 39.08,13.66 38.59,13.22C38.1,12.78 37.59,12.33 37.1,11.89C36.61,11.45 36.13,11.01 35.66,10.57C35.2,10.13 34.75,9.7 34.33,9.25C33.92,8.82 33.54,8.37 33.18,7.92C32.84,7.49 32.51,7.05 32.22,6.6C31.94,6.17 31.69,5.72 31.46,5.27C31.24,4.83 31.05,4.4 30.88,3.95C30.72,3.51 30.59,3.07 30.47,2.62C30.36,2.18 30.27,1.74 30.19,1.3C30.11,0.86 30.06,0.42 30.01,-0.02C29.96,-0.46 29.93,-0.91 29.9,-1.35C29.87,-1.79 29.85,-2.23 29.84,-2.67C29.82,-3.11 29.82,-3.56 29.81,-4Q29.8,-4.44 29.8,-5.32L29.77,-5.32Q29.77,-4.44 29.76,-4C29.75,-3.56 29.75,-3.11 29.73,-2.67C29.72,-2.23 29.7,-1.79 29.67,-1.35C29.64,-0.91 29.61,-0.46 29.56,-0.02C29.51,0.42 29.46,0.86 29.38,1.3C29.3,1.74 29.21,2.18 29.1,2.62C28.98,3.07 28.85,3.51 28.69,3.95C28.53,4.4 28.34,4.84 28.12,5.27C27.9,5.72 27.64,6.17 27.36,6.6C27.07,7.05 26.75,7.49 26.4,7.92C26.04,8.37 25.65,8.81 25.24,9.25C24.82,9.7 24.37,10.13 23.91,10.57C23.44,11.01 22.96,11.45 22.47,11.89C21.98,12.33 21.47,12.78 20.98,13.22C20.49,13.66 20,14.09 19.54,14.54C19.09,14.98 18.63,15.42 18.22,15.87C17.82,16.3 17.44,16.74 17.11,17.19C16.79,17.62 16.49,18.06 16.25,18.51C16.01,18.94 15.82,19.39 15.66,19.84C15.51,20.27 15.4,20.72 15.32,21.16C15.24,21.6 15.2,22.05 15.19,22.49C15.18,22.93 15.2,23.37 15.23,23.81C15.26,24.25 15.32,24.7 15.38,25.14C15.44,25.58 15.52,26.02 15.61,26.46C15.7,26.9 15.8,27.34 15.91,27.78C16.02,28.22 16.13,28.67 16.25,29.11C16.37,29.55 16.5,29.99 16.63,30.43C16.76,30.87 16.9,31.32 17.04,31.76C17.18,32.2 17.33,32.64 17.48,33.08C17.63,33.52 17.8,33.97 17.96,34.41C18.13,34.85 18.29,35.29 18.47,35.73C18.65,36.17 18.83,36.61 19.02,37.05C19.21,37.49 19.41,37.94 19.6,38.38C19.79,38.82 19.99,39.26 20.18,39.7C20.37,40.14 20.56,40.59 20.75,41.03C20.93,41.47 21.12,41.91 21.29,42.35C21.46,42.79 21.62,43.23 21.78,43.67C21.94,44.11 22.09,44.56 22.24,45C22.38,45.44 22.52,45.88 22.65,46.32C22.78,46.76 22.92,47.21 23.04,47.65C23.16,48.09 23.27,48.53 23.38,48.97C23.49,49.41 23.59,49.86 23.68,50.3C23.77,50.74 23.85,51.18 23.93,51.62C24.01,52.06 24.09,52.5 24.16,52.94C24.23,53.38 24.29,53.83 24.36,54.27C24.42,54.71 24.48,55.15 24.55,55.59C24.62,56.03 24.69,56.48 24.76,56.92C24.83,57.36 24.9,57.8 24.97,58.24C25.04,58.68 25.12,59.12 25.2,59.56C25.28,60 25.37,60.45 25.45,60.89C25.53,61.33 25.61,61.77 25.69,62.21C25.77,62.65 25.85,63.1 25.93,63.54C26.01,63.98 26.08,64.42 26.15,64.86C26.22,65.3 26.29,65.75 26.35,66.19C26.41,66.63 26.47,67.07 26.53,67.51C26.59,67.95 26.65,68.39 26.7,68.83C26.75,69.27 26.8,69.72 26.85,70.16C26.9,70.6 26.94,71.04 26.99,71.48C27.04,71.92 27.08,72.37 27.13,72.81C27.18,73.25 27.23,73.69 27.27,74.13C27.31,74.57 27.35,75.02 27.39,75.46C27.43,75.9 27.47,76.34 27.5,76.78C27.53,77.22 27.56,77.66 27.59,78.1C27.62,78.54 27.65,78.99 27.67,79.43C27.69,79.87 27.71,80.31 27.73,80.75C27.75,81.19 27.76,81.64 27.78,82.08C27.8,82.52 27.81,82.96 27.83,83.4C27.85,83.84 27.86,84.28 27.88,84.72C27.9,85.16 27.92,85.61 27.94,86.05C27.96,86.49 27.98,86.93 28,87.37C28.02,87.81 28.03,88.26 28.05,88.7C28.06,89.14 28.08,89.58 28.09,90.02C28.1,90.46 28.11,90.91 28.12,91.35C28.13,91.79 28.13,92.23 28.14,92.67C28.15,93.11 28.15,93.55 28.16,93.99C28.17,94.43 28.18,94.88 28.19,95.32C28.2,95.76 28.22,96.2 28.23,96.64C28.25,97.08 28.26,97.53 28.28,97.97C28.3,98.41 28.33,98.85 28.35,99.29C28.37,99.73 28.4,100.17 28.42,100.61C28.45,101.05 28.47,101.5 28.5,101.94C28.53,102.38 28.56,102.82 28.58,103.26C28.6,103.7 28.62,104.15 28.64,104.59C28.66,105.03 28.68,105.47 28.7,105.91C28.72,106.35 28.74,106.8 28.75,107.24C28.76,107.68 28.77,108.12 28.78,108.56C28.79,109 28.79,109.44 28.8,109.88C28.81,110.32 28.81,110.77 28.82,111.21C28.83,111.65 28.84,112.09 28.85,112.53C28.86,112.97 28.87,113.42 28.88,113.86C28.89,114.3 28.91,114.74 28.92,115.18C28.93,115.62 28.95,116.07 28.96,116.51C28.97,116.95 28.99,117.39 29,117.83C29.01,118.27 29.03,118.71 29.04,119.15C29.05,119.59 29.07,120.04 29.08,120.48C29.09,120.92 29.1,121.36 29.11,121.8C29.12,122.24 29.14,122.69 29.15,123.13C29.16,123.57 29.18,124.01 29.19,124.45C29.2,124.89 29.21,125.33 29.22,125.77C29.23,126.21 29.25,126.66 29.26,127.1C29.27,127.54 29.28,127.98 29.28,128.42C29.29,128.86 29.29,129.31 29.29,129.75C29.29,130.19 29.3,130.63 29.3,131.07C29.3,131.51 29.3,131.96 29.3,132.4C29.3,132.84 29.29,133.28 29.29,133.72C29.29,134.16 29.29,134.6 29.29,135.04C29.29,135.48 29.29,135.93 29.29,136.37C29.29,136.81 29.29,137.25 29.3,137.69C29.31,138.13 29.32,138.58 29.33,139.02C29.34,139.46 29.35,139.9 29.36,140.34C29.37,140.78 29.38,141.23 29.39,141.67C29.4,142.11 29.42,142.55 29.43,142.99C29.44,143.43 29.46,143.87 29.47,144.31C29.48,144.75 29.49,145.2 29.5,145.64C29.51,146.08 29.51,146.52 29.52,146.96C29.53,147.4 29.53,147.85 29.54,148.29C29.55,148.73 29.55,149.17 29.56,149.61C29.56,150.05 29.57,150.49 29.57,150.93C29.57,151.37 29.57,151.82 29.57,152.26C29.57,152.7 29.58,153.14 29.58,153.58C29.58,154.02 29.58,154.47 29.58,154.91C29.58,155.35 29.58,155.79 29.58,156.23C29.58,156.67 29.59,157.12 29.59,157.56C29.59,158 29.59,158.44 29.59,158.88C29.59,159.32 29.6,159.76 29.6,160.2C29.6,160.64 29.6,161.09 29.61,161.53C29.61,161.97 29.63,162.41 29.63,162.85C29.64,163.29 29.63,163.74 29.64,164.18C29.64,164.62 29.65,165.06 29.66,165.5C29.67,165.94 29.68,166.38 29.68,166.82C29.69,167.26 29.69,167.71 29.69,168.15C29.69,168.59 29.7,169.03 29.7,169.47C29.7,169.91 29.7,170.36 29.7,170.8C29.7,171.24 29.71,171.68 29.71,172.12C29.71,172.56 29.71,173.01 29.71,173.45C29.71,173.89 29.72,174.33 29.72,174.77C29.72,175.21 29.72,175.65 29.72,176.09C29.72,176.53 29.72,176.98 29.72,177.42C29.72,177.86 29.72,178.3 29.72,178.74C29.72,179.18 29.72,179.63 29.72,180.07C29.72,180.51 29.73,180.95 29.73,181.39C29.73,181.83 29.73,182.28 29.73,182.72C29.73,183.16 29.74,183.6 29.74,184.04C29.74,184.48 29.75,184.92 29.75,185.36C29.75,185.8 29.75,186.25 29.75,186.69C29.75,187.13 29.76,187.57 29.76,188.01C29.76,188.45 29.76,188.9 29.76,189.34C29.76,189.78 29.77,190.22 29.77,190.66C29.77,191.1 29.77,191.54 29.77,191.98C29.77,192.42 29.77,192.87 29.77,193.31C29.77,193.75 29.78,194.19 29.78,194.63C29.78,195.07 29.78,195.52 29.78,195.96C29.78,196.4 29.78,196.84 29.78,197.28C29.78,197.72 29.78,198.17 29.78,198.61Q29.78,199.05 29.78,199.93Z" style="vector-effect: none; stroke-width: 0.5px; stroke: rgb(0, 0, 0); stroke-opacity: 1; fill: rgb(244, 191, 145); fill-opacity: 1;"/><path class="meanline" d="M38.04024124145508,43H21.53975875854492" style="fill: none; vector-effect: none; stroke-width: 0.5px; stroke-dasharray: 1px, 0.5px; stroke: rgb(0, 0, 0); stroke-opacity: 1;"/></g><g class="trace violins" style="opacity: 1;"><path class="violin" d="M89.36,186.29Q89.36,185.78 89.36,185.53C89.36,185.28 89.36,185.03 89.36,184.78C89.36,184.53 89.36,184.27 89.36,184.02C89.36,183.77 89.36,183.52 89.36,183.27C89.36,183.02 89.37,182.76 89.37,182.51C89.37,182.26 89.37,182.01 89.37,181.76C89.37,181.51 89.37,181.25 89.37,181C89.37,180.75 89.36,180.49 89.36,180.24C89.36,179.99 89.36,179.74 89.36,179.49C89.36,179.24 89.36,178.98 89.36,178.73C89.36,178.48 89.36,178.23 89.36,177.98C89.36,177.73 89.36,177.47 89.36,177.22C89.36,176.97 89.36,176.72 89.36,176.47C89.36,176.22 89.36,175.96 89.36,175.71C89.36,175.46 89.36,175.21 89.36,174.96C89.36,174.71 89.36,174.45 89.36,174.2C89.36,173.95 89.36,173.7 89.36,173.45C89.36,173.2 89.37,172.94 89.37,172.69C89.37,172.44 89.37,172.19 89.37,171.94C89.37,171.69 89.37,171.43 89.37,171.18C89.37,170.93 89.37,170.68 89.37,170.43C89.37,170.18 89.37,169.92 89.37,169.67C89.37,169.42 89.37,169.17 89.37,168.92C89.37,168.67 89.37,168.41 89.37,168.16C89.37,167.91 89.37,167.66 89.37,167.41C89.37,167.16 89.37,166.9 89.37,166.65C89.37,166.4 89.37,166.14 89.37,165.89C89.37,165.64 89.37,165.39 89.37,165.14C89.37,164.89 89.37,164.63 89.37,164.38C89.37,164.13 89.37,163.88 89.37,163.63C89.37,163.38 89.37,163.12 89.37,162.87C89.37,162.62 89.37,162.37 89.37,162.12C89.37,161.87 89.38,161.61 89.38,161.36C89.38,161.11 89.39,160.86 89.39,160.61C89.39,160.36 89.4,160.1 89.4,159.85C89.4,159.6 89.41,159.35 89.41,159.1C89.41,158.85 89.42,158.59 89.42,158.34C89.42,158.09 89.42,157.84 89.42,157.59C89.42,157.34 89.42,157.08 89.42,156.83C89.42,156.58 89.42,156.33 89.42,156.08C89.42,155.83 89.41,155.57 89.41,155.32C89.41,155.07 89.41,154.82 89.41,154.57C89.41,154.32 89.4,154.06 89.4,153.81C89.4,153.56 89.4,153.31 89.4,153.06C89.4,152.81 89.39,152.55 89.39,152.3C89.39,152.05 89.4,151.79 89.4,151.54C89.4,151.29 89.4,151.04 89.4,150.79C89.4,150.54 89.41,150.28 89.41,150.03C89.41,149.78 89.42,149.53 89.42,149.28C89.42,149.03 89.43,148.77 89.43,148.52C89.43,148.27 89.44,148.02 89.44,147.77C89.44,147.52 89.44,147.26 89.44,147.01C89.44,146.76 89.45,146.51 89.45,146.26C89.45,146.01 89.45,145.75 89.45,145.5C89.45,145.25 89.45,145 89.45,144.75C89.45,144.5 89.44,144.24 89.44,143.99C89.44,143.74 89.43,143.49 89.43,143.24C89.43,142.99 89.43,142.73 89.43,142.48C89.43,142.23 89.42,141.98 89.42,141.73C89.42,141.48 89.41,141.22 89.41,140.97C89.41,140.72 89.4,140.47 89.4,140.22C89.4,139.97 89.4,139.71 89.4,139.46C89.4,139.21 89.4,138.96 89.4,138.71C89.4,138.46 89.4,138.2 89.4,137.95C89.4,137.7 89.41,137.45 89.41,137.2C89.41,136.95 89.42,136.69 89.42,136.44C89.42,136.19 89.43,135.93 89.43,135.68C89.43,135.43 89.44,135.18 89.44,134.93C89.44,134.68 89.44,134.42 89.44,134.17C89.44,133.92 89.45,133.67 89.45,133.42C89.45,133.17 89.45,132.91 89.45,132.66C89.45,132.41 89.45,132.16 89.45,131.91C89.45,131.66 89.45,131.4 89.45,131.15C89.45,130.9 89.45,130.65 89.45,130.4C89.45,130.15 89.45,129.89 89.45,129.64C89.45,129.39 89.45,129.14 89.45,128.89C89.45,128.64 89.45,128.38 89.45,128.13C89.45,127.88 89.45,127.63 89.45,127.38C89.45,127.13 89.44,126.87 89.44,126.62C89.44,126.37 89.44,126.12 89.44,125.87C89.44,125.62 89.45,125.36 89.45,125.11C89.45,124.86 89.45,124.61 89.45,124.36C89.45,124.11 89.45,123.85 89.45,123.6C89.45,123.35 89.46,123.1 89.46,122.85C89.46,122.6 89.47,122.34 89.47,122.09C89.47,121.84 89.47,121.58 89.47,121.33C89.47,121.08 89.48,120.83 89.48,120.58C89.48,120.33 89.48,120.07 89.48,119.82C89.48,119.57 89.48,119.32 89.48,119.07C89.48,118.82 89.49,118.56 89.49,118.31C89.49,118.06 89.49,117.81 89.49,117.56C89.49,117.31 89.49,117.05 89.5,116.8C89.5,116.55 89.52,116.3 89.52,116.05C89.53,115.8 89.53,115.54 89.53,115.29C89.53,115.04 89.54,114.79 89.54,114.54C89.54,114.29 89.55,114.03 89.55,113.78C89.55,113.53 89.55,113.28 89.55,113.03C89.55,112.78 89.55,112.52 89.55,112.27C89.55,112.02 89.54,111.77 89.54,111.52C89.54,111.27 89.54,111.01 89.54,110.76C89.54,110.51 89.53,110.26 89.53,110.01C89.53,109.76 89.54,109.5 89.54,109.25C89.54,109 89.55,108.75 89.55,108.5C89.55,108.25 89.56,107.99 89.56,107.74C89.57,107.49 89.57,107.23 89.58,106.98C89.58,106.73 89.59,106.48 89.59,106.23C89.59,105.98 89.59,105.72 89.59,105.47C89.59,105.22 89.58,104.97 89.58,104.72C89.58,104.47 89.58,104.21 89.57,103.96C89.57,103.71 89.55,103.46 89.55,103.21C89.54,102.96 89.54,102.7 89.54,102.45C89.54,102.2 89.53,101.95 89.53,101.7C89.53,101.45 89.52,101.19 89.52,100.94C89.52,100.69 89.52,100.44 89.52,100.19C89.52,99.94 89.52,99.68 89.52,99.43C89.52,99.18 89.53,98.93 89.53,98.68C89.53,98.43 89.53,98.17 89.53,97.92C89.53,97.67 89.54,97.42 89.54,97.17C89.54,96.92 89.54,96.66 89.54,96.41C89.54,96.16 89.54,95.91 89.54,95.66C89.54,95.41 89.54,95.15 89.54,94.9C89.54,94.65 89.55,94.4 89.55,94.15C89.55,93.9 89.55,93.64 89.55,93.39C89.55,93.14 89.56,92.88 89.57,92.63C89.58,92.38 89.58,92.13 89.59,91.88C89.6,91.63 89.6,91.37 89.61,91.12C89.62,90.87 89.62,90.62 89.63,90.37C89.64,90.12 89.64,89.86 89.65,89.61C89.65,89.36 89.66,89.11 89.66,88.86C89.66,88.61 89.66,88.35 89.67,88.1C89.67,87.85 89.69,87.6 89.69,87.35C89.7,87.1 89.7,86.84 89.7,86.59C89.7,86.34 89.71,86.09 89.71,85.84C89.71,85.59 89.71,85.33 89.71,85.08C89.71,84.83 89.72,84.58 89.72,84.33C89.72,84.08 89.73,83.82 89.73,83.57C89.73,83.32 89.74,83.07 89.74,82.82C89.74,82.57 89.75,82.31 89.75,82.06C89.75,81.81 89.76,81.56 89.76,81.31C89.77,81.06 89.77,80.8 89.78,80.55C89.78,80.3 89.79,80.05 89.79,79.8C89.79,79.55 89.79,79.29 89.79,79.04C89.79,78.79 89.8,78.54 89.8,78.29C89.8,78.04 89.8,77.78 89.8,77.53C89.8,77.28 89.8,77.02 89.8,76.77C89.8,76.52 89.8,76.27 89.8,76.02C89.8,75.77 89.8,75.51 89.8,75.26C89.8,75.01 89.81,74.76 89.81,74.51C89.81,74.26 89.81,74 89.82,73.75C89.82,73.5 89.84,73.25 89.84,73C89.85,72.75 89.84,72.49 89.85,72.24C89.85,71.99 89.86,71.74 89.87,71.49C89.88,71.24 89.89,70.98 89.9,70.73C89.91,70.48 89.92,70.23 89.93,69.98C89.94,69.73 89.95,69.47 89.97,69.22C89.98,68.97 90,68.72 90.02,68.47C90.04,68.22 90.05,67.96 90.07,67.71C90.09,67.46 90.11,67.21 90.13,66.96C90.15,66.71 90.16,66.45 90.18,66.2C90.2,65.95 90.22,65.7 90.24,65.45C90.26,65.2 90.27,64.94 90.28,64.69C90.29,64.44 90.31,64.19 90.32,63.94C90.33,63.69 90.35,63.43 90.36,63.18C90.37,62.93 90.38,62.67 90.39,62.42C90.4,62.17 90.42,61.92 90.43,61.67C90.45,61.42 90.46,61.16 90.48,60.91C90.5,60.66 90.52,60.41 90.54,60.16C90.56,59.91 90.58,59.65 90.6,59.4C90.62,59.15 90.65,58.9 90.68,58.65C90.71,58.4 90.74,58.14 90.77,57.89C90.8,57.64 90.83,57.39 90.86,57.14C90.89,56.89 90.92,56.63 90.95,56.38C90.98,56.13 91.01,55.88 91.03,55.63C91.05,55.38 91.07,55.12 91.09,54.87C91.11,54.62 91.13,54.37 91.14,54.12C91.15,53.87 91.16,53.61 91.17,53.36C91.18,53.11 91.2,52.86 91.21,52.61C91.23,52.36 91.24,52.1 91.26,51.85C91.28,51.6 91.3,51.35 91.33,51.1C91.36,50.85 91.4,50.59 91.44,50.34C91.48,50.09 91.53,49.84 91.58,49.59C91.63,49.34 91.69,49.08 91.74,48.83C91.8,48.58 91.85,48.32 91.91,48.07C91.97,47.82 92.03,47.57 92.08,47.32C92.13,47.07 92.18,46.81 92.23,46.56C92.28,46.31 92.33,46.06 92.37,45.81C92.42,45.56 92.46,45.3 92.5,45.05C92.54,44.8 92.58,44.55 92.62,44.3C92.66,44.05 92.7,43.79 92.75,43.54C92.79,43.29 92.84,43.04 92.89,42.79C92.94,42.54 92.98,42.28 93.04,42.03C93.09,41.78 93.16,41.53 93.22,41.28C93.28,41.03 93.35,40.77 93.42,40.52C93.49,40.27 93.57,40.02 93.65,39.77C93.73,39.52 93.81,39.26 93.9,39.01C93.99,38.76 94.08,38.51 94.18,38.26C94.28,38.01 94.38,37.75 94.48,37.5C94.59,37.25 94.7,37 94.81,36.75C94.92,36.5 95.04,36.24 95.16,35.99C95.28,35.74 95.4,35.49 95.53,35.24C95.66,34.99 95.8,34.73 95.94,34.48C96.08,34.23 96.22,33.98 96.37,33.73C96.52,33.48 96.67,33.22 96.82,32.97C96.97,32.72 97.13,32.46 97.29,32.21C97.45,31.96 97.6,31.71 97.76,31.46C97.92,31.21 98.07,30.95 98.23,30.7C98.39,30.45 98.54,30.2 98.7,29.95C98.86,29.7 99.01,29.44 99.17,29.19C99.33,28.94 99.48,28.69 99.64,28.44C99.8,28.19 99.97,27.93 100.13,27.68C100.29,27.43 100.45,27.18 100.61,26.93C100.77,26.68 100.94,26.42 101.1,26.17C101.26,25.92 101.42,25.67 101.57,25.42C101.72,25.17 101.88,24.91 102.02,24.66C102.16,24.41 102.3,24.16 102.43,23.91C102.56,23.66 102.68,23.4 102.8,23.15C102.92,22.9 103.03,22.65 103.13,22.4C103.23,22.15 103.33,21.89 103.42,21.64C103.51,21.39 103.6,21.14 103.67,20.89C103.74,20.64 103.8,20.38 103.85,20.13C103.9,19.88 103.94,19.63 103.95,19.38C103.96,19.13 103.96,18.87 103.93,18.62C103.9,18.37 103.86,18.11 103.78,17.86C103.7,17.61 103.59,17.36 103.47,17.11C103.34,16.85 103.19,16.6 103.02,16.35C102.84,16.09 102.64,15.85 102.43,15.6C102.21,15.34 101.98,15.09 101.74,14.84C101.49,14.58 101.21,14.34 100.94,14.09C100.66,13.84 100.37,13.58 100.07,13.33C99.77,13.08 99.45,12.83 99.13,12.58C98.81,12.33 98.48,12.07 98.15,11.82C97.82,11.57 97.48,11.32 97.14,11.07C96.8,10.82 96.46,10.56 96.12,10.31C95.78,10.06 95.44,9.81 95.1,9.56C94.77,9.31 94.44,9.05 94.12,8.8C93.81,8.55 93.5,8.3 93.21,8.05C92.92,7.8 92.64,7.55 92.38,7.29C92.13,7.04 91.88,6.8 91.66,6.54C91.44,6.29 91.24,6.04 91.06,5.78C90.88,5.53 90.71,5.29 90.57,5.03C90.43,4.78 90.31,4.53 90.2,4.27C90.09,4.02 89.99,3.76 89.91,3.51C89.83,3.26 89.77,3.01 89.71,2.76C89.65,2.51 89.61,2.25 89.57,2C89.53,1.75 89.5,1.5 89.48,1.25C89.46,1 89.45,0.74 89.43,0.49C89.42,0.24 89.4,-0.01 89.39,-0.26C89.38,-0.51 89.38,-0.77 89.37,-1.02Q89.37,-1.27 89.36,-1.77L89.35,-1.77Q89.34,-1.27 89.34,-1.02C89.33,-0.77 89.33,-0.51 89.32,-0.26C89.31,-0.01 89.3,0.24 89.29,0.49C89.27,0.74 89.26,1 89.23,1.25C89.21,1.5 89.18,1.75 89.14,2C89.1,2.25 89.06,2.51 89,2.76C88.94,3.01 88.88,3.26 88.8,3.51C88.72,3.76 88.63,4.02 88.52,4.27C88.41,4.53 88.28,4.78 88.14,5.03C88,5.28 87.84,5.53 87.66,5.78C87.48,6.04 87.27,6.29 87.05,6.54C86.83,6.8 86.58,7.04 86.33,7.29C86.07,7.55 85.8,7.8 85.51,8.05C85.22,8.31 84.9,8.55 84.59,8.8C84.27,9.05 83.94,9.31 83.61,9.56C83.28,9.81 82.94,10.06 82.6,10.31C82.26,10.56 81.91,10.82 81.57,11.07C81.23,11.32 80.89,11.57 80.56,11.82C80.23,12.07 79.9,12.33 79.58,12.58C79.26,12.83 78.95,13.08 78.65,13.33C78.35,13.58 78.05,13.83 77.77,14.09C77.5,14.34 77.23,14.58 76.98,14.84C76.74,15.09 76.5,15.34 76.28,15.6C76.07,15.85 75.88,16.09 75.7,16.35C75.53,16.6 75.37,16.85 75.24,17.11C75.12,17.36 75.02,17.61 74.94,17.86C74.86,18.11 74.81,18.37 74.78,18.62C74.75,18.87 74.75,19.13 74.76,19.38C74.77,19.63 74.81,19.88 74.86,20.13C74.91,20.38 74.98,20.64 75.05,20.89C75.12,21.14 75.2,21.39 75.29,21.64C75.38,21.89 75.49,22.15 75.59,22.4C75.69,22.65 75.8,22.9 75.91,23.15C76.03,23.4 76.15,23.66 76.28,23.91C76.41,24.16 76.56,24.41 76.7,24.66C76.84,24.91 76.99,25.17 77.14,25.42C77.29,25.67 77.45,25.92 77.61,26.17C77.77,26.42 77.94,26.68 78.1,26.93C78.26,27.18 78.43,27.43 78.59,27.68C78.75,27.93 78.91,28.19 79.07,28.44C79.23,28.69 79.39,28.94 79.55,29.19C79.71,29.44 79.85,29.7 80.01,29.95C80.16,30.2 80.32,30.45 80.48,30.7C80.64,30.95 80.79,31.21 80.95,31.46C81.11,31.71 81.26,31.96 81.42,32.21C81.58,32.46 81.74,32.72 81.89,32.97C82.04,33.22 82.19,33.48 82.34,33.73C82.49,33.98 82.64,34.23 82.78,34.48C82.92,34.73 83.05,34.99 83.18,35.24C83.31,35.49 83.44,35.74 83.56,35.99C83.68,36.24 83.8,36.5 83.91,36.75C84.02,37 84.13,37.25 84.23,37.5C84.34,37.75 84.44,38.01 84.54,38.26C84.64,38.51 84.72,38.76 84.81,39.01C84.9,39.26 84.99,39.52 85.07,39.77C85.15,40.02 85.22,40.27 85.29,40.52C85.36,40.77 85.43,41.03 85.49,41.28C85.55,41.53 85.61,41.78 85.67,42.03C85.73,42.28 85.78,42.54 85.83,42.79C85.88,43.04 85.92,43.29 85.96,43.54C86,43.79 86.05,44.05 86.09,44.3C86.13,44.55 86.17,44.8 86.21,45.05C86.25,45.3 86.29,45.56 86.34,45.81C86.38,46.06 86.43,46.31 86.48,46.56C86.53,46.81 86.58,47.07 86.64,47.32C86.69,47.57 86.76,47.82 86.81,48.07C86.87,48.32 86.92,48.58 86.97,48.83C87.02,49.08 87.08,49.34 87.13,49.59C87.18,49.84 87.23,50.09 87.27,50.34C87.31,50.59 87.35,50.85 87.38,51.1C87.41,51.35 87.44,51.6 87.46,51.85C87.48,52.1 87.5,52.36 87.51,52.61C87.52,52.86 87.53,53.11 87.54,53.36C87.55,53.61 87.56,53.87 87.58,54.12C87.59,54.37 87.61,54.62 87.63,54.87C87.65,55.12 87.67,55.38 87.69,55.63C87.71,55.88 87.74,56.13 87.77,56.38C87.8,56.63 87.82,56.89 87.85,57.14C87.88,57.39 87.92,57.64 87.95,57.89C87.98,58.14 88,58.4 88.03,58.65C88.06,58.9 88.09,59.15 88.11,59.4C88.14,59.65 88.16,59.91 88.18,60.16C88.2,60.41 88.22,60.66 88.24,60.91C88.26,61.16 88.27,61.42 88.28,61.67C88.29,61.92 88.31,62.17 88.32,62.42C88.33,62.67 88.35,62.93 88.36,63.18C88.37,63.43 88.38,63.69 88.39,63.94C88.4,64.19 88.42,64.44 88.43,64.69C88.45,64.94 88.46,65.2 88.48,65.45C88.5,65.7 88.51,65.95 88.53,66.2C88.55,66.45 88.57,66.71 88.59,66.96C88.61,67.21 88.62,67.46 88.64,67.71C88.66,67.96 88.68,68.22 88.7,68.47C88.72,68.72 88.73,68.97 88.74,69.22C88.75,69.47 88.77,69.73 88.78,69.98C88.79,70.23 88.8,70.48 88.81,70.73C88.82,70.98 88.83,71.24 88.84,71.49C88.85,71.74 88.85,71.99 88.86,72.24C88.87,72.49 88.87,72.75 88.88,73C88.88,73.25 88.89,73.5 88.89,73.75C88.9,74 88.91,74.26 88.91,74.51C88.91,74.76 88.91,75.01 88.91,75.26C88.91,75.51 88.92,75.77 88.92,76.02C88.92,76.27 88.92,76.52 88.92,76.77C88.92,77.02 88.92,77.28 88.92,77.53C88.92,77.78 88.92,78.04 88.92,78.29C88.92,78.54 88.92,78.79 88.92,79.04C88.92,79.29 88.93,79.55 88.93,79.8C88.93,80.05 88.94,80.3 88.94,80.55C88.94,80.8 88.95,81.06 88.95,81.31C88.95,81.56 88.96,81.81 88.96,82.06C88.96,82.31 88.97,82.57 88.97,82.82C88.97,83.07 88.98,83.32 88.98,83.57C88.98,83.82 88.99,84.08 88.99,84.33C88.99,84.58 89,84.83 89,85.08C89,85.33 89.01,85.59 89.01,85.84C89.01,86.09 89.02,86.34 89.02,86.59C89.02,86.84 89.03,87.1 89.03,87.35C89.03,87.6 89.04,87.85 89.04,88.1C89.04,88.35 89.04,88.61 89.05,88.86C89.05,89.11 89.06,89.36 89.07,89.61C89.08,89.86 89.08,90.12 89.09,90.37C89.1,90.62 89.1,90.87 89.11,91.12C89.12,91.37 89.12,91.63 89.13,91.88C89.14,92.13 89.15,92.38 89.15,92.63C89.16,92.88 89.16,93.14 89.16,93.39C89.16,93.64 89.17,93.9 89.17,94.15C89.17,94.4 89.17,94.65 89.17,94.9C89.17,95.15 89.17,95.41 89.17,95.66C89.17,95.91 89.17,96.16 89.17,96.41C89.17,96.66 89.18,96.92 89.18,97.17C89.18,97.42 89.18,97.67 89.18,97.92C89.18,98.17 89.19,98.43 89.19,98.68C89.19,98.93 89.19,99.18 89.19,99.43C89.19,99.68 89.19,99.94 89.19,100.19C89.19,100.44 89.19,100.69 89.19,100.94C89.19,101.19 89.18,101.45 89.18,101.7C89.18,101.95 89.17,102.2 89.17,102.45C89.17,102.7 89.16,102.96 89.16,103.21C89.16,103.46 89.15,103.71 89.15,103.96C89.15,104.21 89.14,104.47 89.14,104.72C89.14,104.97 89.13,105.22 89.13,105.47C89.13,105.72 89.13,105.98 89.13,106.23C89.13,106.48 89.14,106.73 89.14,106.98C89.14,107.23 89.15,107.49 89.15,107.74C89.15,107.99 89.15,108.25 89.16,108.5C89.16,108.75 89.18,109 89.18,109.25C89.18,109.5 89.18,109.76 89.18,110.01C89.18,110.26 89.18,110.51 89.18,110.76C89.18,111.01 89.17,111.27 89.17,111.52C89.17,111.77 89.17,112.02 89.17,112.27C89.17,112.52 89.17,112.78 89.17,113.03C89.17,113.28 89.17,113.53 89.17,113.78C89.17,114.03 89.18,114.29 89.18,114.54C89.18,114.79 89.19,115.04 89.19,115.29C89.19,115.54 89.2,115.8 89.2,116.05C89.2,116.3 89.21,116.55 89.21,116.8C89.21,117.05 89.22,117.31 89.22,117.56C89.22,117.81 89.23,118.06 89.23,118.31C89.23,118.56 89.23,118.82 89.23,119.07C89.23,119.32 89.23,119.57 89.23,119.82C89.23,120.07 89.24,120.33 89.24,120.58C89.24,120.83 89.24,121.08 89.24,121.33C89.24,121.58 89.25,121.84 89.25,122.09C89.25,122.34 89.25,122.6 89.25,122.85C89.25,123.1 89.26,123.35 89.26,123.6C89.26,123.85 89.27,124.11 89.27,124.36C89.27,124.61 89.27,124.86 89.27,125.11C89.27,125.36 89.27,125.62 89.27,125.87C89.27,126.12 89.27,126.37 89.27,126.62C89.27,126.87 89.27,127.13 89.27,127.38C89.27,127.63 89.27,127.88 89.27,128.13C89.27,128.38 89.26,128.64 89.26,128.89C89.26,129.14 89.26,129.39 89.26,129.64C89.26,129.89 89.26,130.15 89.26,130.4C89.26,130.65 89.26,130.9 89.26,131.15C89.26,131.4 89.26,131.66 89.26,131.91C89.26,132.16 89.26,132.41 89.26,132.66C89.26,132.91 89.27,133.17 89.27,133.42C89.27,133.67 89.27,133.92 89.27,134.17C89.27,134.42 89.28,134.68 89.28,134.93C89.28,135.18 89.29,135.43 89.29,135.68C89.29,135.93 89.3,136.19 89.3,136.44C89.3,136.69 89.3,136.95 89.3,137.2C89.3,137.45 89.31,137.7 89.31,137.95C89.31,138.2 89.31,138.46 89.31,138.71C89.31,138.96 89.31,139.21 89.31,139.46C89.31,139.71 89.31,139.97 89.31,140.22C89.31,140.47 89.31,140.72 89.31,140.97C89.31,141.22 89.3,141.48 89.3,141.73C89.3,141.98 89.29,142.23 89.29,142.48C89.29,142.73 89.28,142.99 89.28,143.24C89.28,143.49 89.27,143.74 89.27,143.99C89.27,144.24 89.27,144.5 89.27,144.75C89.27,145 89.26,145.25 89.26,145.5C89.26,145.75 89.26,146.01 89.26,146.26C89.26,146.51 89.27,146.76 89.27,147.01C89.27,147.26 89.28,147.52 89.28,147.77C89.28,148.02 89.29,148.27 89.29,148.52C89.29,148.77 89.3,149.03 89.3,149.28C89.3,149.53 89.31,149.78 89.31,150.03C89.31,150.28 89.31,150.54 89.31,150.79C89.31,151.04 89.32,151.29 89.32,151.54C89.32,151.79 89.32,152.05 89.32,152.3C89.32,152.55 89.32,152.81 89.32,153.06C89.32,153.31 89.31,153.56 89.31,153.81C89.31,154.06 89.31,154.32 89.31,154.57C89.31,154.82 89.3,155.07 89.3,155.32C89.3,155.57 89.3,155.83 89.3,156.08C89.3,156.33 89.29,156.58 89.29,156.83C89.29,157.08 89.29,157.34 89.29,157.59C89.29,157.84 89.3,158.09 89.3,158.34C89.3,158.59 89.3,158.85 89.3,159.1C89.3,159.35 89.31,159.6 89.31,159.85C89.31,160.1 89.32,160.36 89.32,160.61C89.32,160.86 89.33,161.11 89.33,161.36C89.33,161.61 89.34,161.87 89.34,162.12C89.34,162.37 89.34,162.62 89.34,162.87C89.34,163.12 89.35,163.38 89.35,163.63C89.35,163.88 89.35,164.13 89.35,164.38C89.35,164.63 89.35,164.89 89.35,165.14C89.35,165.39 89.35,165.64 89.35,165.89C89.35,166.14 89.35,166.4 89.35,166.65C89.35,166.9 89.35,167.16 89.35,167.41C89.35,167.66 89.35,167.91 89.35,168.16C89.35,168.41 89.35,168.67 89.35,168.92C89.35,169.17 89.35,169.42 89.35,169.67C89.35,169.92 89.35,170.18 89.35,170.43C89.35,170.68 89.35,170.93 89.35,171.18C89.35,171.43 89.35,171.69 89.35,171.94C89.35,172.19 89.35,172.44 89.35,172.69C89.35,172.94 89.35,173.2 89.35,173.45C89.35,173.7 89.35,173.95 89.35,174.2C89.35,174.45 89.35,174.71 89.35,174.96C89.35,175.21 89.36,175.46 89.36,175.71C89.36,175.96 89.36,176.22 89.36,176.47C89.36,176.72 89.36,176.97 89.36,177.22C89.36,177.47 89.35,177.73 89.35,177.98C89.35,178.23 89.35,178.48 89.35,178.73C89.35,178.98 89.35,179.24 89.35,179.49C89.35,179.74 89.35,179.99 89.35,180.24C89.35,180.49 89.35,180.75 89.35,181C89.35,181.25 89.35,181.51 89.35,181.76C89.35,182.01 89.35,182.26 89.35,182.51C89.35,182.76 89.35,183.02 89.35,183.27C89.35,183.52 89.35,183.77 89.35,184.02C89.35,184.27 89.35,184.53 89.35,184.78C89.35,185.03 89.35,185.28 89.35,185.53Q89.35,185.78 89.36,186.29Z" style="vector-effect: none; stroke-width: 0.5px; stroke: rgb(0, 0, 0); stroke-opacity: 1; fill: rgb(236, 154, 86); fill-opacity: 1;"/><path class="meanline" d="M98.92935180664062,29.58H79.79064819335937" style="fill: none; vector-effect: none; stroke-width: 0.5px; stroke-dasharray: 1px, 0.5px; stroke: rgb(0, 0, 0); stroke-opacity: 1;"/></g><g class="trace violins" style="opacity: 1;"><path class="violin" d="M148.97,104.99Q149,103.97 149.01,103.46C149.03,102.95 149.04,102.43 149.06,101.92C149.08,101.41 149.11,100.89 149.13,100.38C149.15,99.87 149.17,99.36 149.19,98.85C149.21,98.34 149.23,97.82 149.24,97.31C149.25,96.8 149.26,96.28 149.26,95.77C149.26,95.26 149.26,94.75 149.25,94.24C149.24,93.73 149.22,93.21 149.2,92.7C149.18,92.19 149.16,91.67 149.14,91.16C149.12,90.65 149.09,90.14 149.07,89.63C149.05,89.12 149.04,88.6 149.02,88.09C149.01,87.58 148.99,87.07 148.98,86.56C148.97,86.05 148.96,85.53 148.95,85.02C148.94,84.51 148.94,83.99 148.94,83.48C148.94,82.97 148.93,82.46 148.93,81.95C148.93,81.44 148.93,80.92 148.93,80.41C148.93,79.9 148.93,79.38 148.93,78.87C148.93,78.36 148.93,77.85 148.93,77.34C148.93,76.83 148.93,76.31 148.93,75.8C148.93,75.29 148.93,74.77 148.93,74.26C148.93,73.75 148.93,73.24 148.93,72.73C148.93,72.22 148.93,71.7 148.93,71.19C148.93,70.68 148.94,70.17 148.94,69.66C148.95,69.15 148.95,68.63 148.96,68.12C148.97,67.61 148.98,67.09 149,66.58C149.02,66.07 149.04,65.56 149.07,65.05C149.1,64.54 149.13,64.02 149.17,63.51C149.21,63 149.26,62.48 149.31,61.97C149.36,61.46 149.42,60.95 149.47,60.44C149.52,59.93 149.58,59.41 149.63,58.9C149.68,58.39 149.74,57.87 149.79,57.36C149.84,56.85 149.89,56.34 149.93,55.83C149.97,55.32 150.01,54.8 150.05,54.29C150.09,53.78 150.14,53.27 150.18,52.76C150.22,52.25 150.26,51.73 150.31,51.22C150.36,50.71 150.41,50.19 150.47,49.68C150.53,49.17 150.58,48.66 150.65,48.15C150.72,47.64 150.79,47.12 150.87,46.61C150.96,46.1 151.05,45.58 151.16,45.07C151.27,44.56 151.4,44.05 151.55,43.54C151.7,43.02 151.88,42.51 152.07,42C152.26,41.48 152.48,40.97 152.71,40.46C152.94,39.95 153.19,39.44 153.43,38.93C153.68,38.42 153.93,37.9 154.18,37.39C154.42,36.88 154.67,36.36 154.9,35.85C155.13,35.34 155.36,34.83 155.58,34.32C155.8,33.81 156.01,33.29 156.24,32.78C156.47,32.27 156.71,31.76 156.98,31.25C157.26,30.73 157.56,30.22 157.88,29.71C158.21,29.19 158.58,28.68 158.96,28.17C159.35,27.65 159.79,27.15 160.2,26.64C160.62,26.13 161.06,25.62 161.45,25.1C161.83,24.59 162.22,24.09 162.53,23.56C162.82,23.06 163.1,22.55 163.27,22.03C163.43,21.53 163.52,21 163.52,20.49C163.52,19.98 163.42,19.45 163.24,18.95C163.05,18.42 162.75,17.91 162.41,17.42C162.05,16.89 161.59,16.38 161.12,15.88C160.62,15.35 160.05,14.85 159.49,14.35C158.91,13.83 158.29,13.32 157.69,12.81C157.09,12.3 156.46,11.79 155.87,11.27C155.29,10.76 154.72,10.26 154.19,9.74C153.68,9.24 153.18,8.73 152.74,8.2C152.31,7.7 151.92,7.18 151.57,6.66C151.23,6.16 150.93,5.65 150.67,5.13C150.42,4.63 150.2,4.11 150.02,3.59C149.84,3.08 149.69,2.57 149.57,2.05C149.45,1.54 149.37,1.03 149.29,0.52C149.21,0.01 149.16,-0.51 149.11,-1.02Q149.07,-1.53 149.02,-2.55L148.84,-2.55Q148.78,-1.53 148.74,-1.02C148.69,-0.51 148.64,0.01 148.57,0.52C148.49,1.03 148.41,1.54 148.29,2.05C148.17,2.57 148.02,3.08 147.84,3.59C147.66,4.11 147.44,4.63 147.19,5.13C146.93,5.65 146.63,6.16 146.29,6.66C145.94,7.18 145.54,7.7 145.11,8.2C144.66,8.72 144.17,9.24 143.66,9.74C143.13,10.26 142.55,10.76 141.98,11.27C141.39,11.79 140.77,12.3 140.17,12.81C139.57,13.32 138.95,13.83 138.37,14.35C137.81,14.85 137.24,15.35 136.74,15.88C136.27,16.38 135.81,16.89 135.45,17.42C135.11,17.91 134.81,18.42 134.62,18.95C134.44,19.45 134.33,19.98 134.33,20.49C134.33,21 134.43,21.53 134.59,22.03C134.76,22.55 135.04,23.06 135.33,23.56C135.64,24.09 136.03,24.59 136.41,25.1C136.8,25.62 137.25,26.13 137.66,26.64C138.07,27.15 138.5,27.65 138.89,28.17C139.27,28.68 139.65,29.19 139.98,29.71C140.3,30.22 140.6,30.73 140.87,31.25C141.14,31.76 141.37,32.27 141.61,32.78C141.84,33.29 142.05,33.81 142.28,34.32C142.5,34.83 142.73,35.34 142.96,35.85C143.19,36.36 143.44,36.88 143.68,37.39C143.93,37.9 144.18,38.42 144.43,38.93C144.67,39.44 144.92,39.95 145.15,40.46C145.38,40.97 145.6,41.48 145.79,42C145.98,42.51 146.16,43.02 146.31,43.54C146.46,44.05 146.59,44.56 146.7,45.07C146.81,45.58 146.9,46.1 146.99,46.61C147.07,47.12 147.14,47.64 147.21,48.15C147.28,48.66 147.34,49.17 147.39,49.68C147.45,50.19 147.49,50.71 147.54,51.22C147.59,51.73 147.64,52.25 147.68,52.76C147.72,53.27 147.76,53.78 147.8,54.29C147.84,54.8 147.88,55.32 147.93,55.83C147.97,56.34 148.02,56.85 148.07,57.36C148.12,57.87 148.17,58.39 148.22,58.9C148.27,59.41 148.33,59.93 148.39,60.44C148.44,60.95 148.5,61.46 148.55,61.97C148.6,62.48 148.64,63 148.68,63.51C148.72,64.02 148.76,64.54 148.79,65.05C148.82,65.56 148.83,66.07 148.85,66.58C148.87,67.09 148.88,67.61 148.89,68.12C148.9,68.63 148.9,69.15 148.91,69.66C148.91,70.17 148.92,70.68 148.92,71.19C148.92,71.7 148.93,72.22 148.93,72.73C148.93,73.24 148.93,73.75 148.93,74.26C148.93,74.77 148.93,75.29 148.93,75.8C148.93,76.31 148.93,76.83 148.93,77.34C148.93,77.85 148.93,78.36 148.93,78.87C148.93,79.38 148.93,79.9 148.93,80.41C148.93,80.92 148.92,81.44 148.92,81.95C148.92,82.46 148.92,82.97 148.92,83.48C148.92,83.99 148.91,84.51 148.9,85.02C148.89,85.53 148.89,86.05 148.88,86.56C148.87,87.07 148.85,87.58 148.84,88.09C148.82,88.6 148.81,89.12 148.79,89.63C148.77,90.14 148.74,90.65 148.72,91.16C148.7,91.67 148.68,92.19 148.66,92.7C148.64,93.21 148.62,93.73 148.61,94.24C148.6,94.75 148.6,95.26 148.6,95.77C148.6,96.28 148.61,96.8 148.62,97.31C148.63,97.82 148.64,98.34 148.66,98.85C148.68,99.36 148.71,99.87 148.73,100.38C148.75,100.89 148.77,101.41 148.79,101.92C148.81,102.43 148.83,102.95 148.85,103.46Q148.86,103.97 148.88,104.99Z" style="vector-effect: none; stroke-width: 0.5px; stroke: rgb(0, 0, 0); stroke-opacity: 1; fill: rgb(155, 191, 229); fill-opacity: 1;"/><path class="meanline" d="M160.93716430664062,25.75H136.9228356933594" style="fill: none; vector-effect: none; stroke-width: 0.5px; stroke-dasharray: 1px, 0.5px; stroke: rgb(0, 0, 0); stroke-opacity: 1;"/></g><g class="trace violins" style="opacity: 1;"><path class="violin" d="M208.54,170.43Q208.57,169.4 208.58,168.88C208.6,168.36 208.61,167.85 208.63,167.33C208.65,166.81 208.67,166.3 208.69,165.78C208.71,165.26 208.73,164.75 208.75,164.23C208.77,163.71 208.79,163.2 208.8,162.68C208.81,162.16 208.82,161.65 208.82,161.13C208.82,160.61 208.81,160.1 208.8,159.58C208.79,159.06 208.78,158.55 208.76,158.03C208.74,157.51 208.72,157 208.7,156.48C208.68,155.96 208.65,155.45 208.63,154.93C208.61,154.41 208.59,153.9 208.58,153.38C208.57,152.86 208.56,152.35 208.55,151.83C208.54,151.31 208.53,150.8 208.52,150.28C208.51,149.76 208.51,149.25 208.51,148.73C208.51,148.21 208.5,147.7 208.5,147.18C208.5,146.66 208.5,146.15 208.5,145.63C208.5,145.11 208.5,144.6 208.5,144.08C208.5,143.56 208.5,143.05 208.5,142.53C208.5,142.01 208.5,141.5 208.5,140.98C208.5,140.46 208.5,139.95 208.5,139.43C208.5,138.91 208.5,138.4 208.5,137.88C208.5,137.36 208.5,136.85 208.5,136.33C208.5,135.81 208.5,135.3 208.5,134.78C208.5,134.26 208.5,133.75 208.5,133.23C208.5,132.71 208.5,132.2 208.5,131.68C208.5,131.16 208.5,130.65 208.5,130.13C208.5,129.61 208.5,129.1 208.5,128.58C208.5,128.06 208.5,127.55 208.5,127.03C208.5,126.51 208.5,126 208.5,125.48C208.5,124.96 208.5,124.45 208.5,123.93C208.5,123.41 208.5,122.9 208.5,122.38C208.5,121.86 208.5,121.35 208.5,120.83C208.5,120.31 208.5,119.8 208.5,119.28C208.5,118.76 208.5,118.25 208.5,117.73C208.5,117.21 208.5,116.7 208.5,116.18C208.5,115.66 208.5,115.15 208.5,114.63C208.5,114.11 208.5,113.6 208.5,113.08C208.5,112.56 208.5,112.04 208.5,111.52C208.5,111 208.5,110.49 208.5,109.97C208.5,109.45 208.5,108.94 208.5,108.42C208.5,107.9 208.5,107.39 208.5,106.87C208.5,106.35 208.5,105.84 208.5,105.32C208.5,104.8 208.5,104.29 208.5,103.77C208.5,103.25 208.5,102.74 208.5,102.22C208.5,101.7 208.5,101.19 208.5,100.67C208.5,100.15 208.5,99.64 208.5,99.12C208.5,98.6 208.5,98.09 208.5,97.57C208.5,97.05 208.5,96.54 208.5,96.02C208.5,95.5 208.5,94.99 208.5,94.47C208.5,93.95 208.5,93.44 208.5,92.92C208.5,92.4 208.5,91.89 208.5,91.37C208.5,90.85 208.5,90.34 208.5,89.82C208.5,89.3 208.5,88.79 208.5,88.27C208.5,87.75 208.5,87.24 208.5,86.72C208.5,86.2 208.5,85.69 208.5,85.17C208.5,84.65 208.5,84.14 208.5,83.62C208.5,83.1 208.5,82.59 208.5,82.07C208.5,81.55 208.5,81.04 208.5,80.52C208.5,80 208.5,79.49 208.5,78.97C208.5,78.45 208.5,77.94 208.5,77.42C208.5,76.9 208.5,76.39 208.5,75.87C208.5,75.35 208.5,74.84 208.5,74.32C208.5,73.8 208.5,73.29 208.5,72.77C208.5,72.25 208.51,71.74 208.51,71.22C208.51,70.7 208.51,70.19 208.51,69.67C208.51,69.15 208.52,68.64 208.53,68.12C208.54,67.6 208.55,67.09 208.57,66.57C208.59,66.05 208.61,65.54 208.64,65.02C208.67,64.5 208.71,63.99 208.75,63.47C208.79,62.95 208.84,62.44 208.9,61.92C208.96,61.4 209.02,60.89 209.09,60.37C209.16,59.85 209.23,59.34 209.3,58.82C209.37,58.3 209.45,57.79 209.53,57.27C209.61,56.75 209.68,56.24 209.76,55.72C209.84,55.2 209.92,54.69 210,54.17C210.09,53.65 210.17,53.14 210.27,52.62C210.37,52.1 210.48,51.59 210.6,51.07C210.72,50.55 210.84,50.04 210.98,49.52C211.12,49 211.27,48.49 211.42,47.97C211.57,47.45 211.73,46.94 211.87,46.42C212.01,45.9 212.16,45.39 212.28,44.87C212.4,44.35 212.51,43.84 212.6,43.32C212.69,42.8 212.76,42.29 212.81,41.77C212.86,41.25 212.88,40.74 212.91,40.22C212.94,39.7 212.95,39.19 212.97,38.67C212.99,38.15 213,37.64 213.05,37.12C213.1,36.6 213.15,36.08 213.25,35.57C213.35,35.05 213.47,34.53 213.63,34.02C213.79,33.5 213.99,32.98 214.22,32.47C214.46,31.95 214.74,31.43 215.03,30.92C215.33,30.4 215.67,29.88 216.01,29.37C216.36,28.85 216.74,28.33 217.12,27.82C217.51,27.3 217.91,26.79 218.31,26.27C218.71,25.75 219.13,25.24 219.53,24.72C219.93,24.2 220.35,23.69 220.73,23.17C221.11,22.66 221.49,22.15 221.82,21.62C222.13,21.11 222.44,20.6 222.66,20.07C222.87,19.56 223.04,19.04 223.1,18.52C223.15,18.01 223.12,17.48 223,16.97C222.87,16.44 222.63,15.92 222.33,15.42C222.01,14.88 221.57,14.37 221.12,13.87C220.64,13.34 220.07,12.83 219.5,12.32C218.91,11.79 218.27,11.28 217.64,10.77C217.01,10.25 216.35,9.74 215.73,9.22C215.12,8.71 214.49,8.2 213.92,7.67C213.37,7.16 212.83,6.65 212.34,6.12C211.87,5.61 211.43,5.1 211.04,4.57C210.67,4.07 210.35,3.55 210.07,3.02C209.8,2.51 209.57,1.99 209.39,1.47C209.21,0.96 209.08,0.44 208.97,-0.08Q208.86,-0.59 208.72,-1.63L208.28,-1.63Q208.14,-0.59 208.03,-0.08C207.92,0.44 207.79,0.96 207.61,1.47C207.43,1.99 207.2,2.51 206.93,3.02C206.65,3.55 206.33,4.07 205.96,4.57C205.57,5.1 205.13,5.61 204.66,6.12C204.17,6.65 203.63,7.16 203.08,7.67C202.51,8.2 201.88,8.71 201.27,9.22C200.65,9.74 199.99,10.25 199.36,10.77C198.73,11.28 198.09,11.79 197.5,12.32C196.93,12.83 196.36,13.34 195.88,13.87C195.43,14.37 194.99,14.88 194.67,15.42C194.37,15.92 194.13,16.44 194,16.97C193.88,17.48 193.85,18.01 193.9,18.52C193.96,19.04 194.13,19.56 194.34,20.07C194.56,20.6 194.87,21.11 195.18,21.62C195.51,22.15 195.89,22.66 196.27,23.17C196.65,23.69 197.07,24.2 197.47,24.72C197.87,25.24 198.29,25.75 198.69,26.27C199.09,26.79 199.49,27.3 199.88,27.82C200.26,28.33 200.64,28.85 200.99,29.37C201.33,29.88 201.67,30.4 201.97,30.92C202.26,31.43 202.54,31.95 202.78,32.47C203.01,32.98 203.21,33.5 203.37,34.02C203.53,34.53 203.65,35.05 203.75,35.57C203.85,36.08 203.9,36.6 203.95,37.12C204,37.64 204.01,38.15 204.03,38.67C204.05,39.19 204.06,39.7 204.09,40.22C204.12,40.74 204.14,41.25 204.19,41.77C204.24,42.29 204.31,42.8 204.4,43.32C204.49,43.84 204.6,44.35 204.72,44.87C204.84,45.39 204.99,45.9 205.13,46.42C205.27,46.94 205.43,47.45 205.58,47.97C205.73,48.49 205.88,49 206.02,49.52C206.16,50.04 206.28,50.55 206.4,51.07C206.52,51.59 206.63,52.1 206.73,52.62C206.83,53.14 206.91,53.65 207,54.17C207.08,54.69 207.16,55.2 207.24,55.72C207.32,56.24 207.39,56.75 207.47,57.27C207.55,57.79 207.63,58.3 207.7,58.82C207.77,59.34 207.84,59.85 207.91,60.37C207.98,60.89 208.04,61.4 208.1,61.92C208.16,62.44 208.21,62.95 208.25,63.47C208.29,63.99 208.33,64.5 208.36,65.02C208.39,65.54 208.41,66.05 208.43,66.57C208.45,67.09 208.46,67.6 208.47,68.12C208.48,68.64 208.49,69.15 208.49,69.67C208.49,70.19 208.49,70.7 208.49,71.22C208.49,71.74 208.5,72.25 208.5,72.77C208.5,73.29 208.5,73.8 208.5,74.32C208.5,74.84 208.5,75.35 208.5,75.87C208.5,76.39 208.5,76.9 208.5,77.42C208.5,77.94 208.5,78.45 208.5,78.97C208.5,79.49 208.5,80 208.5,80.52C208.5,81.04 208.5,81.55 208.5,82.07C208.5,82.59 208.5,83.1 208.5,83.62C208.5,84.14 208.5,84.65 208.5,85.17C208.5,85.69 208.5,86.2 208.5,86.72C208.5,87.24 208.5,87.75 208.5,88.27C208.5,88.79 208.5,89.3 208.5,89.82C208.5,90.34 208.5,90.85 208.5,91.37C208.5,91.89 208.5,92.4 208.5,92.92C208.5,93.44 208.5,93.95 208.5,94.47C208.5,94.99 208.5,95.5 208.5,96.02C208.5,96.54 208.5,97.05 208.5,97.57C208.5,98.09 208.5,98.6 208.5,99.12C208.5,99.64 208.5,100.15 208.5,100.67C208.5,101.19 208.5,101.7 208.5,102.22C208.5,102.74 208.5,103.25 208.5,103.77C208.5,104.29 208.5,104.8 208.5,105.32C208.5,105.84 208.5,106.35 208.5,106.87C208.5,107.39 208.5,107.9 208.5,108.42C208.5,108.94 208.5,109.45 208.5,109.97C208.5,110.49 208.5,111 208.5,111.52C208.5,112.04 208.5,112.56 208.5,113.08C208.5,113.6 208.5,114.11 208.5,114.63C208.5,115.15 208.5,115.66 208.5,116.18C208.5,116.7 208.5,117.21 208.5,117.73C208.5,118.25 208.5,118.76 208.5,119.28C208.5,119.8 208.5,120.31 208.5,120.83C208.5,121.35 208.5,121.86 208.5,122.38C208.5,122.9 208.5,123.41 208.5,123.93C208.5,124.45 208.5,124.96 208.5,125.48C208.5,126 208.5,126.51 208.5,127.03C208.5,127.55 208.5,128.06 208.5,128.58C208.5,129.1 208.5,129.61 208.5,130.13C208.5,130.65 208.5,131.16 208.5,131.68C208.5,132.2 208.5,132.71 208.5,133.23C208.5,133.75 208.5,134.26 208.5,134.78C208.5,135.3 208.5,135.81 208.5,136.33C208.5,136.85 208.5,137.36 208.5,137.88C208.5,138.4 208.5,138.91 208.5,139.43C208.5,139.95 208.5,140.46 208.5,140.98C208.5,141.5 208.5,142.01 208.5,142.53C208.5,143.05 208.5,143.56 208.5,144.08C208.5,144.6 208.5,145.11 208.5,145.63C208.5,146.15 208.5,146.66 208.5,147.18C208.5,147.7 208.49,148.21 208.49,148.73C208.49,149.25 208.49,149.76 208.48,150.28C208.47,150.8 208.46,151.31 208.45,151.83C208.44,152.35 208.43,152.86 208.42,153.38C208.41,153.9 208.39,154.41 208.37,154.93C208.35,155.45 208.32,155.96 208.3,156.48C208.28,157 208.26,157.51 208.24,158.03C208.22,158.55 208.21,159.06 208.2,159.58C208.19,160.1 208.18,160.61 208.18,161.13C208.18,161.65 208.19,162.16 208.2,162.68C208.21,163.2 208.23,163.71 208.25,164.23C208.27,164.75 208.29,165.26 208.31,165.78C208.33,166.3 208.35,166.81 208.37,167.33C208.39,167.85 208.4,168.36 208.42,168.88Q208.43,169.4 208.46,170.43Z" style="vector-effect: none; stroke-width: 0.5px; stroke: rgb(0, 0, 0); stroke-opacity: 1; fill: rgb(138, 165, 61); fill-opacity: 1;"/><path class="meanline" d="M218.7332305908203,25.73H198.2667694091797" style="fill: none; vector-effect: none; stroke-width: 0.5px; stroke-dasharray: 1px, 0.5px; stroke: rgb(0, 0, 0); stroke-opacity: 1;"/></g><g class="trace violins" style="opacity: 1;"><path class="violin" d="M268.11,62.44Q268.13,61.59 268.14,61.17C268.15,60.75 268.17,60.32 268.19,59.9C268.21,59.47 268.23,59.05 268.26,58.62C268.29,58.2 268.32,57.77 268.35,57.35C268.38,56.93 268.42,56.5 268.46,56.08C268.5,55.66 268.54,55.23 268.58,54.81C268.62,54.38 268.67,53.96 268.71,53.53C268.75,53.11 268.8,52.68 268.84,52.26C268.89,51.84 268.92,51.41 268.98,50.99C269.04,50.56 269.1,50.13 269.18,49.71C269.26,49.28 269.34,48.86 269.44,48.44C269.54,48.01 269.66,47.59 269.8,47.17C269.94,46.74 270.09,46.32 270.26,45.9C270.43,45.47 270.61,45.04 270.8,44.62C270.99,44.19 271.19,43.77 271.38,43.35C271.57,42.93 271.76,42.5 271.95,42.08C272.13,41.66 272.32,41.24 272.49,40.81C272.66,40.39 272.82,39.96 272.97,39.53C273.12,39.11 273.25,38.68 273.38,38.26C273.51,37.84 273.64,37.41 273.76,36.99C273.88,36.56 273.99,36.14 274.12,35.71C274.24,35.29 274.37,34.86 274.51,34.44C274.65,34.02 274.79,33.59 274.95,33.17C275.11,32.74 275.29,32.32 275.47,31.9C275.66,31.47 275.86,31.04 276.06,30.62C276.27,30.19 276.49,29.77 276.7,29.35C276.92,28.93 277.13,28.5 277.35,28.08C277.57,27.66 277.79,27.23 278.02,26.81C278.25,26.38 278.47,25.95 278.71,25.53C278.95,25.1 279.2,24.68 279.45,24.26C279.71,23.83 279.98,23.41 280.24,22.99C280.51,22.57 280.78,22.15 281.04,21.72C281.3,21.3 281.56,20.87 281.78,20.44C282,20.02 282.22,19.6 282.37,19.17C282.51,18.75 282.64,18.33 282.67,17.9C282.7,17.48 282.68,17.04 282.57,16.62C282.46,16.19 282.25,15.76 281.99,15.35C281.71,14.91 281.33,14.49 280.92,14.08C280.48,13.64 279.95,13.22 279.42,12.81C278.86,12.37 278.24,11.95 277.63,11.53C277.01,11.1 276.36,10.69 275.74,10.26C275.13,9.84 274.52,9.42 273.94,8.99C273.39,8.57 272.84,8.16 272.35,7.72C271.88,7.31 271.43,6.88 271.04,6.44C270.67,6.03 270.34,5.6 270.04,5.17C269.76,4.76 269.51,4.33 269.3,3.9C269.1,3.48 268.94,3.05 268.8,2.62C268.66,2.2 268.56,1.78 268.47,1.35C268.38,0.93 268.33,0.5 268.28,0.08Q268.23,-0.34 268.17,-1.19L267.97,-1.19Q267.92,-0.34 267.87,0.08C267.82,0.5 267.76,0.93 267.67,1.35C267.58,1.78 267.48,2.2 267.34,2.62C267.2,3.05 267.04,3.48 266.84,3.9C266.63,4.33 266.39,4.76 266.11,5.17C265.81,5.6 265.47,6.03 265.1,6.44C264.71,6.88 264.27,7.31 263.8,7.72C263.31,8.16 262.76,8.58 262.21,8.99C261.63,9.42 261.01,9.84 260.4,10.26C259.78,10.69 259.13,11.1 258.51,11.53C257.9,11.95 257.28,12.37 256.72,12.81C256.19,13.22 255.66,13.64 255.22,14.08C254.81,14.49 254.43,14.91 254.15,15.35C253.89,15.76 253.69,16.19 253.58,16.62C253.47,17.04 253.45,17.48 253.48,17.9C253.51,18.33 253.64,18.75 253.78,19.17C253.93,19.6 254.14,20.02 254.36,20.44C254.58,20.87 254.85,21.3 255.11,21.72C255.37,22.15 255.65,22.57 255.91,22.99C256.17,23.41 256.44,23.84 256.69,24.26C256.94,24.68 257.19,25.1 257.43,25.53C257.67,25.95 257.9,26.38 258.13,26.81C258.36,27.23 258.57,27.66 258.79,28.08C259.01,28.5 259.23,28.93 259.45,29.35C259.66,29.77 259.88,30.19 260.08,30.62C260.28,31.04 260.48,31.47 260.67,31.9C260.85,32.32 261.03,32.74 261.19,33.17C261.35,33.59 261.5,34.01 261.64,34.44C261.78,34.86 261.9,35.29 262.02,35.71C262.14,36.14 262.26,36.56 262.38,36.99C262.5,37.41 262.63,37.84 262.76,38.26C262.89,38.68 263.03,39.11 263.18,39.53C263.33,39.96 263.48,40.39 263.65,40.81C263.82,41.24 264.01,41.66 264.19,42.08C264.38,42.5 264.57,42.93 264.76,43.35C264.95,43.77 265.15,44.19 265.34,44.62C265.53,45.04 265.71,45.47 265.88,45.9C266.05,46.32 266.2,46.74 266.34,47.17C266.48,47.59 266.59,48.01 266.7,48.44C266.8,48.86 266.89,49.28 266.97,49.71C267.05,50.13 267.1,50.56 267.16,50.99C267.22,51.41 267.26,51.84 267.31,52.26C267.36,52.68 267.4,53.11 267.44,53.53C267.48,53.96 267.52,54.38 267.56,54.81C267.6,55.23 267.64,55.66 267.68,56.08C267.72,56.5 267.76,56.93 267.79,57.35C267.82,57.77 267.85,58.2 267.88,58.62C267.91,59.05 267.94,59.47 267.96,59.9C267.98,60.32 268,60.75 268.01,61.17Q268.02,61.59 268.04,62.44Z" style="vector-effect: none; stroke-width: 0.5px; stroke: rgb(0, 0, 0); stroke-opacity: 1; fill: rgb(186, 105, 190); fill-opacity: 1;"/><path class="meanline" d="M279.739501953125,23.79H256.400498046875" style="fill: none; vector-effect: none; stroke-width: 0.5px; stroke-dasharray: 1px, 0.5px; stroke: rgb(0, 0, 0); stroke-opacity: 1;"/></g><g class="trace violins" style="opacity: 1;"><path class="violin" d="M327.7,105.21Q327.73,103.66 327.75,102.89C327.77,102.12 327.79,101.34 327.81,100.57C327.83,99.8 327.86,99.02 327.89,98.25C327.92,97.48 327.95,96.7 327.97,95.93C327.99,95.16 328.01,94.38 328.03,93.61C328.04,92.84 328.06,92.06 328.06,91.29C328.06,90.51 328.06,89.74 328.05,88.96C328.04,88.19 328.03,87.41 328.02,86.64C328.01,85.87 327.99,85.09 327.98,84.32C327.97,83.55 327.96,82.77 327.97,82C327.98,81.23 327.99,80.45 328.02,79.68C328.05,78.91 328.1,78.13 328.15,77.36C328.2,76.59 328.27,75.81 328.34,75.04C328.41,74.27 328.5,73.49 328.58,72.72C328.66,71.95 328.74,71.17 328.82,70.4C328.9,69.62 328.97,68.85 329.04,68.07C329.1,67.3 329.16,66.52 329.21,65.75C329.26,64.98 329.29,64.2 329.33,63.43C329.37,62.66 329.39,61.88 329.43,61.11C329.47,60.34 329.51,59.56 329.57,58.79C329.63,58.02 329.71,57.24 329.81,56.47C329.91,55.7 330.03,54.92 330.17,54.15C330.31,53.37 330.48,52.6 330.65,51.83C330.82,51.06 331.02,50.28 331.21,49.51C331.4,48.73 331.61,47.96 331.81,47.18C332.01,46.41 332.22,45.63 332.43,44.86C332.64,44.09 332.86,43.31 333.08,42.54C333.3,41.77 333.53,40.99 333.77,40.22C334.01,39.45 334.25,38.67 334.51,37.9C334.77,37.12 335.04,36.35 335.32,35.58C335.61,34.8 335.9,34.03 336.22,33.26C336.54,32.48 336.88,31.71 337.24,30.94C337.6,30.16 337.98,29.39 338.37,28.62C338.76,27.84 339.18,27.07 339.58,26.29C339.98,25.52 340.41,24.75 340.77,23.97C341.12,23.2 341.48,22.43 341.73,21.65C341.97,20.89 342.19,20.11 342.24,19.33C342.29,18.56 342.25,17.77 342.06,17.01C341.87,16.22 341.5,15.44 341.07,14.69C340.61,13.89 339.98,13.12 339.34,12.37C338.67,11.58 337.87,10.82 337.11,10.05C336.34,9.27 335.5,8.5 334.73,7.72C333.97,6.95 333.21,6.19 332.53,5.4C331.88,4.64 331.27,3.87 330.75,3.08C330.25,2.32 329.81,1.55 329.45,0.76C329.1,0 328.83,-0.78 328.61,-1.56C328.39,-2.33 328.25,-3.1 328.12,-3.88Q328,-4.65 327.86,-6.2L327.43,-6.2Q327.29,-4.65 327.17,-3.88C327.04,-3.1 326.9,-2.33 326.68,-1.56C326.46,-0.78 326.18,0 325.83,0.76C325.47,1.55 325.04,2.32 324.54,3.08C324.02,3.87 323.4,4.64 322.75,5.4C322.07,6.19 321.31,6.95 320.55,7.72C319.78,8.5 318.94,9.27 318.17,10.05C317.41,10.82 316.62,11.58 315.95,12.37C315.31,13.12 314.68,13.89 314.22,14.69C313.79,15.44 313.42,16.22 313.23,17.01C313.04,17.77 313,18.56 313.05,19.33C313.1,20.11 313.31,20.89 313.55,21.65C313.8,22.43 314.17,23.2 314.52,23.97C314.88,24.75 315.3,25.52 315.7,26.29C316.1,27.07 316.53,27.84 316.92,28.62C317.31,29.39 317.69,30.16 318.05,30.94C318.41,31.71 318.75,32.48 319.07,33.26C319.39,34.03 319.68,34.8 319.97,35.58C320.25,36.35 320.52,37.12 320.78,37.9C321.04,38.67 321.28,39.45 321.52,40.22C321.76,40.99 321.99,41.77 322.21,42.54C322.43,43.31 322.64,44.09 322.85,44.86C323.06,45.63 323.28,46.41 323.48,47.18C323.69,47.96 323.89,48.73 324.08,49.51C324.27,50.28 324.47,51.06 324.64,51.83C324.81,52.6 324.98,53.37 325.12,54.15C325.26,54.92 325.38,55.7 325.48,56.47C325.58,57.24 325.66,58.02 325.72,58.79C325.78,59.56 325.82,60.34 325.86,61.11C325.9,61.88 325.92,62.66 325.96,63.43C326,64.2 326.03,64.98 326.08,65.75C326.13,66.52 326.18,67.3 326.24,68.07C326.3,68.85 326.38,69.62 326.46,70.4C326.54,71.17 326.63,71.95 326.71,72.72C326.79,73.49 326.88,74.27 326.95,75.04C327.02,75.81 327.09,76.59 327.14,77.36C327.19,78.13 327.23,78.91 327.26,79.68C327.29,80.45 327.3,81.23 327.31,82C327.32,82.77 327.32,83.55 327.31,84.32C327.3,85.09 327.28,85.87 327.27,86.64C327.26,87.41 327.24,88.19 327.23,88.96C327.22,89.74 327.22,90.51 327.22,91.29C327.22,92.06 327.24,92.84 327.25,93.61C327.27,94.38 327.29,95.16 327.31,95.93C327.33,96.7 327.36,97.48 327.39,98.25C327.42,99.02 327.44,99.8 327.47,100.57C327.49,101.34 327.52,102.12 327.54,102.89Q327.56,103.66 327.59,105.21Z" style="vector-effect: none; stroke-width: 0.5px; stroke: rgb(0, 0, 0); stroke-opacity: 1; fill: rgb(185, 178, 194); fill-opacity: 1;"/><path class="meanline" d="M338.57318115234375,28.22H316.7068188476562" style="fill: none; vector-effect: none; stroke-width: 0.5px; stroke-dasharray: 1px, 0.5px; stroke: rgb(0, 0, 0); stroke-opacity: 1;"/></g><g class="trace violins" style="opacity: 1;"><path class="violin" d="M387.52,55.13Q387.7,53.81 387.83,53.16C387.96,52.5 388.12,51.84 388.32,51.19C388.52,50.53 388.77,49.87 389.04,49.22C389.32,48.56 389.64,47.9 389.97,47.25C390.31,46.59 390.68,45.94 391.04,45.28C391.4,44.63 391.78,43.98 392.12,43.32C392.46,42.67 392.78,42.01 393.07,41.35C393.35,40.7 393.61,40.04 393.84,39.38C394.07,38.73 394.25,38.07 394.44,37.41C394.63,36.75 394.79,36.1 394.97,35.44C395.16,34.78 395.33,34.12 395.55,33.47C395.77,32.81 396.02,32.15 396.28,31.5C396.55,30.84 396.84,30.18 397.14,29.53C397.44,28.87 397.76,28.22 398.07,27.57C398.38,26.91 398.7,26.26 398.99,25.6C399.28,24.95 399.56,24.29 399.82,23.63C400.08,22.98 400.32,22.32 400.55,21.66C400.77,21.01 400.99,20.35 401.17,19.69C401.35,19.04 401.52,18.38 401.63,17.72C401.74,17.07 401.82,16.4 401.81,15.75C401.8,15.09 401.72,14.43 401.54,13.79C401.35,13.12 401.05,12.45 400.67,11.82C400.26,11.14 399.71,10.49 399.14,9.85C398.53,9.17 397.81,8.53 397.1,7.88C396.37,7.21 395.56,6.57 394.81,5.91C394.06,5.26 393.3,4.61 392.6,3.94C391.93,3.3 391.27,2.65 390.71,1.97C390.18,1.33 389.7,0.67 389.3,0C388.92,-0.64 388.61,-1.29 388.35,-1.96Q388.1,-2.61 387.78,-3.93L386.65,-3.93Q386.33,-2.61 386.08,-1.96C385.82,-1.29 385.51,-0.64 385.13,0C384.73,0.67 384.24,1.33 383.71,1.97C383.15,2.65 382.5,3.3 381.83,3.94C381.14,4.61 380.37,5.26 379.62,5.91C378.87,6.57 378.06,7.21 377.33,7.88C376.62,8.53 375.89,9.17 375.28,9.85C374.71,10.49 374.17,11.14 373.76,11.82C373.38,12.45 373.08,13.12 372.89,13.79C372.71,14.43 372.63,15.09 372.62,15.75C372.61,16.4 372.69,17.07 372.8,17.72C372.91,18.38 373.08,19.04 373.26,19.69C373.44,20.35 373.66,21.01 373.88,21.66C374.11,22.32 374.35,22.98 374.61,23.63C374.87,24.29 375.15,24.95 375.44,25.6C375.73,26.26 376.04,26.92 376.35,27.57C376.66,28.23 376.99,28.87 377.29,29.53C377.59,30.18 377.88,30.84 378.15,31.5C378.41,32.15 378.66,32.81 378.88,33.47C379.1,34.12 379.27,34.78 379.46,35.44C379.64,36.1 379.8,36.75 379.99,37.41C380.18,38.07 380.36,38.73 380.59,39.38C380.82,40.04 381.08,40.7 381.36,41.35C381.65,42.01 381.97,42.67 382.31,43.32C382.65,43.98 383.03,44.63 383.39,45.28C383.75,45.94 384.12,46.59 384.46,47.25C384.79,47.9 385.11,48.56 385.39,49.22C385.66,49.87 385.91,50.53 386.11,51.19C386.31,51.84 386.47,52.5 386.6,53.16Q386.73,53.81 386.91,55.13Z" style="vector-effect: none; stroke-width: 0.5px; stroke: rgb(0, 0, 0); stroke-opacity: 1; fill: rgb(181, 174, 112); fill-opacity: 1;"/><path class="meanline" d="M400.29449462890625,22.38H374.1255053710937" style="fill: none; vector-effect: none; stroke-width: 0.5px; stroke-dasharray: 1px, 0.5px; stroke: rgb(0, 0, 0); stroke-opacity: 1;"/></g></g></g><g class="overplot"/><path class="xlines-above crisp" d="M48.5,225.25H466" style="fill: none; stroke-width: 0.5px; stroke: rgb(0, 0, 0); stroke-opacity: 1;"/><path class="ylines-above crisp" d="M48.75,20V225" style="fill: none; stroke-width: 0.5px; stroke: rgb(0, 0, 0); stroke-opacity: 1;"/><g class="overlines-above"/><g class="xaxislayer-above"><path class="xtick ticks crisp" d="M0,225.5v5" transform="translate(78.78999999999999,0)" style="stroke: rgb(68, 68, 68); stroke-opacity: 1; stroke-width: 0.5px;"/><path class="xtick ticks crisp" d="M0,225.5v5" transform="translate(138.36,0)" style="stroke: rgb(68, 68, 68); stroke-opacity: 1; stroke-width: 0.5px;"/><path class="xtick ticks crisp" d="M0,225.5v5" transform="translate(197.93,0)" style="stroke: rgb(68, 68, 68); stroke-opacity: 1; stroke-width: 0.5px;"/><path class="xtick ticks crisp" d="M0,225.5v5" transform="translate(257.5,0)" style="stroke: rgb(68, 68, 68); stroke-opacity: 1; stroke-width: 0.5px;"/><path class="xtick ticks crisp" d="M0,225.5v5" transform="translate(317.07,0)" style="stroke: rgb(68, 68, 68); stroke-opacity: 1; stroke-width: 0.5px;"/><path class="xtick ticks crisp" d="M0,225.5v5" transform="translate(376.64,0)" style="stroke: rgb(68, 68, 68); stroke-opacity: 1; stroke-width: 0.5px;"/><path class="xtick ticks crisp" d="M0,225.5v5" transform="translate(436.21,0)" style="stroke: rgb(68, 68, 68); stroke-opacity: 1; stroke-width: 0.5px;"/><g class="xtick"><text text-anchor="start" x="0" y="244.9" transform="translate(78.78999999999999,0) rotate(30,0,238.9)" style="font-family: Helvetica; font-size: 12px; fill: rgb(0, 0, 0); fill-opacity: 1; white-space: pre; opacity: 1;">canonical (t/d)</text></g><g class="xtick"><text text-anchor="start" x="0" y="244.9" transform="translate(138.36,0) rotate(30,0,238.9)" style="font-family: Helvetica; font-size: 12px; fill: rgb(0, 0, 0); fill-opacity: 1; white-space: pre; opacity: 1;">canonical (PISCES)</text></g><g class="xtick"><text text-anchor="start" x="0" y="244.9" transform="translate(197.93,0) rotate(30,0,238.9)" style="font-family: Helvetica; font-size: 12px; fill: rgb(0, 0, 0); fill-opacity: 1; white-space: pre; opacity: 1;">spliced</text></g><g class="xtick"><text text-anchor="start" x="0" y="244.9" transform="translate(257.5,0) rotate(30,0,238.9)" style="font-family: Helvetica; font-size: 12px; fill: rgb(0, 0, 0); fill-opacity: 1; white-space: pre; opacity: 1;">multimapped</text></g><g class="xtick"><text text-anchor="start" x="0" y="244.9" transform="translate(317.07,0) rotate(30,0,238.9)" style="font-family: Helvetica; font-size: 12px; fill: rgb(0, 0, 0); fill-opacity: 1; white-space: pre; opacity: 1;">cryptic</text></g><g class="xtick"><text text-anchor="start" x="0" y="244.9" transform="translate(376.64,0) rotate(30,0,238.9)" style="font-family: Helvetica; font-size: 12px; fill: rgb(0, 0, 0); fill-opacity: 1; white-space: pre; opacity: 1;">unmapped</text></g><g class="xtick"><text text-anchor="start" x="0" y="244.9" transform="translate(436.21,0) rotate(30,0,238.9)" style="font-family: Helvetica; font-size: 12px; fill: rgb(0, 0, 0); fill-opacity: 1; white-space: pre; opacity: 1;">contaminants</text></g></g><g class="yaxislayer-above"><path class="ytick ticks crisp" d="M48.5,0h-5" transform="translate(0,225)" style="stroke: rgb(68, 68, 68); stroke-opacity: 1; stroke-width: 0.5px;"/><path class="ytick ticks crisp" d="M48.5,0h-5" transform="translate(0,184)" style="stroke: rgb(68, 68, 68); stroke-opacity: 1; stroke-width: 0.5px;"/><path class="ytick ticks crisp" d="M48.5,0h-5" transform="translate(0,143)" style="stroke: rgb(68, 68, 68); stroke-opacity: 1; stroke-width: 0.5px;"/><path class="ytick ticks crisp" d="M48.5,0h-5" transform="translate(0,102)" style="stroke: rgb(68, 68, 68); stroke-opacity: 1; stroke-width: 0.5px;"/><path class="ytick ticks crisp" d="M48.5,0h-5" transform="translate(0,61)" style="stroke: rgb(68, 68, 68); stroke-opacity: 1; stroke-width: 0.5px;"/><path class="ytick ticks crisp" d="M48.5,0h-5" transform="translate(0,20)" style="stroke: rgb(68, 68, 68); stroke-opacity: 1; stroke-width: 0.5px;"/><g class="ytick"><text text-anchor="end" x="41.1" y="4.199999999999999" transform="translate(0,225)" style="font-family: Helvetica; font-size: 12px; fill: rgb(0, 0, 0); fill-opacity: 1; white-space: pre; opacity: 1;">0</text></g><g class="ytick"><text text-anchor="end" x="41.1" y="4.199999999999999" style="font-family: Helvetica; font-size: 12px; fill: rgb(0, 0, 0); fill-opacity: 1; white-space: pre; opacity: 1;" transform="translate(0,184)">0.2</text></g><g class="ytick"><text text-anchor="end" x="41.1" y="4.199999999999999" style="font-family: Helvetica; font-size: 12px; fill: rgb(0, 0, 0); fill-opacity: 1; white-space: pre; opacity: 1;" transform="translate(0,143)">0.4</text></g><g class="ytick"><text text-anchor="end" x="41.1" y="4.199999999999999" style="font-family: Helvetica; font-size: 12px; fill: rgb(0, 0, 0); fill-opacity: 1; white-space: pre; opacity: 1;" transform="translate(0,102)">0.6</text></g><g class="ytick"><text text-anchor="end" x="41.1" y="4.199999999999999" style="font-family: Helvetica; font-size: 12px; fill: rgb(0, 0, 0); fill-opacity: 1; white-space: pre; opacity: 1;" transform="translate(0,61)">0.8</text></g><g class="ytick"><text text-anchor="end" x="41.1" y="4.199999999999999" style="font-family: Helvetica; font-size: 12px; fill: rgb(0, 0, 0); fill-opacity: 1; white-space: pre; opacity: 1;" transform="translate(0,20)">1</text></g></g><g class="overaxes-above"/></g></g><g class="polarlayer"/><g class="smithlayer"/><g class="ternarylayer"/><g class="geolayer"/><g class="funnelarealayer"/><g class="pielayer"/><g class="iciclelayer"/><g class="treemaplayer"/><g class="sunburstlayer"/><g class="glimages"/><defs id="topdefs-76563e"><g class="clips"/></defs><g class="layer-above"><g class="imagelayer"/><g class="shapelayer"/></g><g class="infolayer"><g class="g-gtitle"/><g class="g-xtitle"/><g class="g-ytitle" transform="translate(13.1435546875,0)"><text class="ytitle" transform="rotate(-90,-0.14374999999999716,122.5)" x="-0.14374999999999716" y="122.5" text-anchor="middle" style="font-family: Helvetica; font-size: 14px; fill: rgb(0, 0, 0); opacity: 1; font-weight: normal; white-space: pre;">Spectral Angle</text></g></g></svg>