<svg class="main-svg" xmlns="http://www.w3.org/2000/svg" xmlns:xlink="http://www.w3.org/1999/xlink" width="500" height="300" style="" viewBox="0 0 500 300"><rect x="0" y="0" width="500" height="300" style="fill: rgb(255, 255, 255); fill-opacity: 1;"/><defs id="defs-e77a60"><g class="clips"><clipPath id="clipe77a60xyplot" class="plotclip"><rect width="417" height="205"/></clipPath><clipPath class="axesclip" id="clipe77a60x"><rect x="49" y="0" width="417" height="300"/></clipPath><clipPath class="axesclip" id="clipe77a60y"><rect x="0" y="20" width="500" height="205"/></clipPath><clipPath class="axesclip" id="clipe77a60xy"><rect x="49" y="20" width="417" height="205"/></clipPath></g><g class="gradients"/><g class="patterns"/></defs><g class="bglayer"><rect class="bg" x="49" y="20" width="417" height="205" style="fill: rgb(0, 0, 0); fill-opacity: 0; stroke-width: 0;"/></g><g class="layer-below"><g class="imagelayer"/><g class="shapelayer"/></g><g class="cartesianlayer"><g class="subplot xy"><g class="layer-subplot"><g class="shapelayer"/><g class="imagelayer"/></g><g class="minor-gridlayer"><g class="x"/><g class="y"/></g><g class="gridlayer"><g class="x"/><g class="y"/></g><g class="zerolinelayer"/><path class="xlines-below"/><path class="ylines-below"/><g class="overlines-below"/><g class="xaxislayer-below"/><g class="yaxislayer-below"/><g class="overaxes-below"/><g class="plot" transform="translate(49,20)" clip-path="url(#clipe77a60xyplot)"><g class="violinlayer mlayer"><g class="trace violins" style="opacity: 1;"><path class="violin" d="M29.79,199.64Q29.79,198.4 29.79,197.78C29.79,197.16 29.8,196.55 29.8,195.93C29.8,195.31 29.8,194.69 29.8,194.07C29.8,193.45 29.81,192.84 29.81,192.22C29.82,191.6 29.82,190.98 29.83,190.36C29.83,189.74 29.84,189.13 29.84,188.51C29.85,187.89 29.85,187.27 29.86,186.65C29.87,186.03 29.87,185.42 29.88,184.8C29.89,184.18 29.89,183.56 29.9,182.94C29.91,182.32 29.91,181.71 29.92,181.09C29.93,180.47 29.93,179.85 29.94,179.23C29.95,178.61 29.95,178 29.96,177.38C29.97,176.76 29.98,176.14 29.99,175.52C30,174.9 30,174.29 30.01,173.67C30.02,173.05 30.03,172.43 30.04,171.81C30.05,171.19 30.07,170.58 30.08,169.96C30.1,169.34 30.11,168.72 30.13,168.1C30.15,167.48 30.16,166.87 30.18,166.25C30.2,165.63 30.22,165.01 30.25,164.39C30.28,163.77 30.31,163.16 30.34,162.54C30.37,161.92 30.39,161.3 30.42,160.68C30.45,160.06 30.48,159.45 30.51,158.83C30.54,158.21 30.56,157.59 30.59,156.97C30.61,156.35 30.64,155.74 30.66,155.12C30.68,154.5 30.71,153.88 30.73,153.26C30.75,152.64 30.76,152.03 30.77,151.41C30.78,150.79 30.8,150.17 30.81,149.55C30.82,148.93 30.83,148.32 30.84,147.7C30.85,147.08 30.86,146.46 30.87,145.84C30.88,145.22 30.89,144.61 30.9,143.99C30.91,143.37 30.92,142.75 30.94,142.13C30.96,141.51 30.98,140.9 31,140.28C31.02,139.66 31.04,139.04 31.06,138.42C31.08,137.8 31.1,137.19 31.12,136.57C31.14,135.95 31.17,135.33 31.2,134.71C31.22,134.09 31.25,133.48 31.27,132.86C31.29,132.24 31.31,131.62 31.34,131C31.36,130.38 31.39,129.77 31.42,129.15C31.45,128.53 31.47,127.92 31.5,127.3C31.53,126.68 31.57,126.06 31.6,125.44C31.63,124.82 31.67,124.21 31.7,123.59C31.74,122.97 31.77,122.35 31.81,121.73C31.85,121.11 31.9,120.5 31.94,119.88C31.98,119.26 32.03,118.64 32.07,118.02C32.11,117.4 32.16,116.79 32.2,116.17C32.24,115.55 32.29,114.93 32.33,114.31C32.37,113.69 32.42,113.08 32.46,112.46C32.5,111.84 32.54,111.22 32.59,110.6C32.63,109.98 32.68,109.37 32.73,108.75C32.78,108.13 32.82,107.51 32.87,106.89C32.92,106.27 32.97,105.66 33.02,105.04C33.07,104.42 33.12,103.8 33.18,103.18C33.23,102.56 33.29,101.95 33.35,101.33C33.41,100.71 33.47,100.09 33.53,99.47C33.59,98.85 33.65,98.24 33.71,97.62C33.77,97 33.83,96.38 33.9,95.76C33.96,95.14 34.03,94.53 34.1,93.91C34.17,93.29 34.23,92.67 34.3,92.05C34.37,91.43 34.44,90.82 34.51,90.2C34.58,89.58 34.65,88.96 34.72,88.34C34.79,87.72 34.87,87.11 34.94,86.49C35.02,85.87 35.09,85.25 35.17,84.63C35.24,84.01 35.31,83.4 35.39,82.78C35.47,82.16 35.55,81.54 35.63,80.92C35.71,80.3 35.78,79.69 35.86,79.07C35.94,78.45 36.02,77.83 36.1,77.21C36.18,76.59 36.26,75.98 36.34,75.36C36.42,74.74 36.51,74.12 36.6,73.5C36.69,72.88 36.79,72.27 36.88,71.65C36.98,71.03 37.07,70.41 37.17,69.79C37.27,69.17 37.38,68.56 37.48,67.94C37.58,67.32 37.68,66.7 37.78,66.08C37.88,65.46 37.98,64.85 38.08,64.23C38.18,63.61 38.27,62.99 38.37,62.37C38.46,61.75 38.56,61.14 38.65,60.52C38.75,59.9 38.84,59.28 38.94,58.66C39.04,58.04 39.13,57.43 39.24,56.81C39.35,56.19 39.47,55.57 39.59,54.95C39.71,54.33 39.84,53.72 39.98,53.1C40.12,52.48 40.26,51.86 40.42,51.24C40.58,50.62 40.75,50.01 40.92,49.39C41.09,48.77 41.27,48.15 41.45,47.53C41.63,46.91 41.82,46.3 42,45.68C42.18,45.06 42.37,44.44 42.55,43.82C42.72,43.2 42.89,42.59 43.05,41.97C43.21,41.35 43.36,40.73 43.5,40.11C43.64,39.49 43.76,38.88 43.87,38.26C43.98,37.64 44.07,37.02 44.15,36.4C44.22,35.78 44.28,35.17 44.32,34.55C44.36,33.93 44.39,33.31 44.38,32.69C44.37,32.07 44.34,31.46 44.29,30.84C44.23,30.22 44.16,29.6 44.05,28.98C43.94,28.36 43.79,27.74 43.62,27.13C43.45,26.51 43.25,25.88 43.02,25.27C42.79,24.65 42.53,24.03 42.25,23.42C41.97,22.8 41.66,22.17 41.34,21.56C41.02,20.94 40.67,20.32 40.31,19.71C39.95,19.09 39.57,18.47 39.18,17.85C38.79,17.23 38.39,16.62 37.99,16C37.59,15.38 37.18,14.76 36.77,14.14C36.36,13.52 35.94,12.91 35.54,12.29C35.14,11.67 34.75,11.05 34.37,10.43C33.99,9.81 33.62,9.2 33.27,8.58C32.93,7.97 32.6,7.34 32.31,6.72C32.02,6.11 31.76,5.49 31.52,4.87C31.29,4.26 31.08,3.63 30.9,3.01C30.73,2.4 30.58,1.78 30.46,1.16C30.34,0.54 30.24,-0.08 30.16,-0.7C30.08,-1.32 30.03,-1.93 29.98,-2.55C29.93,-3.17 29.91,-3.79 29.88,-4.41C29.86,-5.03 29.84,-5.64 29.83,-6.26Q29.82,-6.88 29.8,-8.12L29.77,-8.12Q29.75,-6.88 29.74,-6.26C29.73,-5.64 29.71,-5.03 29.69,-4.41C29.66,-3.79 29.64,-3.17 29.59,-2.55C29.54,-1.93 29.49,-1.32 29.41,-0.7C29.33,-0.08 29.23,0.54 29.11,1.16C28.99,1.78 28.84,2.4 28.67,3.01C28.49,3.63 28.28,4.26 28.05,4.87C27.81,5.49 27.55,6.11 27.26,6.72C26.97,7.34 26.64,7.97 26.3,8.58C25.96,9.2 25.59,9.82 25.21,10.43C24.83,11.05 24.43,11.67 24.03,12.29C23.63,12.91 23.21,13.52 22.8,14.14C22.39,14.76 21.98,15.38 21.58,16C21.18,16.62 20.78,17.23 20.39,17.85C20.01,18.47 19.63,19.09 19.27,19.71C18.91,20.32 18.56,20.94 18.23,21.56C17.91,22.17 17.6,22.8 17.32,23.42C17.04,24.03 16.78,24.65 16.55,25.27C16.32,25.88 16.12,26.51 15.95,27.13C15.78,27.74 15.64,28.36 15.53,28.98C15.42,29.6 15.34,30.22 15.28,30.84C15.22,31.46 15.2,32.07 15.19,32.69C15.18,33.31 15.21,33.93 15.25,34.55C15.29,35.17 15.35,35.78 15.42,36.4C15.5,37.02 15.59,37.64 15.7,38.26C15.81,38.88 15.93,39.49 16.07,40.11C16.21,40.73 16.36,41.35 16.52,41.97C16.68,42.59 16.85,43.2 17.02,43.82C17.2,44.44 17.39,45.06 17.57,45.68C17.75,46.3 17.94,46.91 18.12,47.53C18.3,48.15 18.48,48.77 18.65,49.39C18.82,50.01 18.99,50.62 19.15,51.24C19.31,51.86 19.45,52.48 19.59,53.1C19.73,53.72 19.86,54.33 19.98,54.95C20.1,55.57 20.22,56.19 20.33,56.81C20.44,57.43 20.54,58.04 20.64,58.66C20.74,59.28 20.83,59.9 20.92,60.52C21.01,61.14 21.11,61.75 21.2,62.37C21.3,62.99 21.39,63.61 21.49,64.23C21.59,64.85 21.69,65.46 21.79,66.08C21.89,66.7 21.99,67.32 22.09,67.94C22.19,68.56 22.3,69.17 22.4,69.79C22.5,70.41 22.6,71.03 22.7,71.65C22.79,72.27 22.88,72.88 22.97,73.5C23.06,74.12 23.15,74.74 23.23,75.36C23.31,75.98 23.39,76.59 23.47,77.21C23.55,77.83 23.63,78.45 23.71,79.07C23.79,79.69 23.86,80.3 23.94,80.92C24.02,81.54 24.1,82.16 24.18,82.78C24.26,83.4 24.34,84.01 24.41,84.63C24.49,85.25 24.56,85.87 24.63,86.49C24.7,87.11 24.78,87.72 24.85,88.34C24.92,88.96 24.99,89.58 25.06,90.2C25.13,90.82 25.2,91.43 25.27,92.05C25.34,92.67 25.4,93.29 25.47,93.91C25.54,94.53 25.61,95.14 25.67,95.76C25.74,96.38 25.8,97 25.86,97.62C25.92,98.24 25.99,98.85 26.05,99.47C26.11,100.09 26.16,100.71 26.22,101.33C26.28,101.95 26.34,102.56 26.39,103.18C26.45,103.8 26.5,104.42 26.55,105.04C26.6,105.66 26.65,106.27 26.7,106.89C26.75,107.51 26.8,108.13 26.85,108.75C26.9,109.37 26.94,109.98 26.98,110.6C27.02,111.22 27.07,111.84 27.11,112.46C27.15,113.08 27.2,113.69 27.24,114.31C27.28,114.93 27.33,115.55 27.37,116.17C27.41,116.79 27.46,117.4 27.5,118.02C27.54,118.64 27.59,119.26 27.63,119.88C27.67,120.5 27.72,121.11 27.76,121.73C27.8,122.35 27.83,122.97 27.87,123.59C27.91,124.21 27.95,124.82 27.98,125.44C28.01,126.06 28.04,126.68 28.07,127.3C28.1,127.92 28.12,128.53 28.15,129.15C28.18,129.77 28.21,130.38 28.23,131C28.26,131.62 28.27,132.24 28.3,132.86C28.32,133.48 28.36,134.09 28.38,134.71C28.41,135.33 28.43,135.95 28.45,136.57C28.47,137.19 28.5,137.8 28.52,138.42C28.54,139.04 28.56,139.66 28.58,140.28C28.6,140.9 28.62,141.51 28.63,142.13C28.65,142.75 28.66,143.37 28.67,143.99C28.68,144.61 28.69,145.22 28.7,145.84C28.71,146.46 28.72,147.08 28.73,147.7C28.74,148.32 28.75,148.93 28.76,149.55C28.77,150.17 28.78,150.79 28.8,151.41C28.81,152.03 28.83,152.64 28.85,153.26C28.87,153.88 28.89,154.5 28.91,155.12C28.93,155.74 28.96,156.35 28.98,156.97C29.01,157.59 29.03,158.21 29.06,158.83C29.09,159.45 29.12,160.06 29.15,160.68C29.18,161.3 29.21,161.92 29.24,162.54C29.27,163.16 29.3,163.77 29.32,164.39C29.35,165.01 29.37,165.63 29.39,166.25C29.41,166.87 29.43,167.48 29.45,168.1C29.47,168.72 29.48,169.34 29.49,169.96C29.5,170.58 29.52,171.19 29.53,171.81C29.54,172.43 29.55,173.05 29.56,173.67C29.57,174.29 29.57,174.9 29.58,175.52C29.59,176.14 29.6,176.76 29.61,177.38C29.62,178 29.62,178.61 29.63,179.23C29.64,179.85 29.64,180.47 29.65,181.09C29.66,181.71 29.66,182.32 29.67,182.94C29.68,183.56 29.68,184.18 29.69,184.8C29.7,185.42 29.7,186.03 29.71,186.65C29.72,187.27 29.72,187.89 29.73,188.51C29.74,189.13 29.75,189.74 29.75,190.36C29.76,190.98 29.76,191.6 29.76,192.22C29.76,192.84 29.77,193.45 29.77,194.07C29.77,194.69 29.78,195.31 29.78,195.93C29.78,196.55 29.78,197.16 29.78,197.78Q29.78,198.4 29.78,199.64Z" style="vector-effect: none; stroke-width: 0.5px; stroke: rgb(0, 0, 0); stroke-opacity: 1; fill: rgb(244, 191, 145); fill-opacity: 1;"/><path class="meanline" d="M39.25615692138672,56.72H20.32384307861328" style="fill: none; vector-effect: none; stroke-width: 0.5px; stroke-dasharray: 1px, 0.5px; stroke: rgb(0, 0, 0); stroke-opacity: 1;"/></g><g class="trace violins" style="opacity: 1;"><path class="violin" d="M89.36,189.67Q89.36,189.02 89.36,188.7C89.36,188.38 89.36,188.05 89.36,187.73C89.36,187.4 89.36,187.08 89.36,186.75C89.36,186.43 89.37,186.1 89.37,185.78C89.37,185.46 89.37,185.13 89.37,184.81C89.37,184.49 89.37,184.16 89.37,183.84C89.37,183.51 89.37,183.19 89.37,182.86C89.37,182.54 89.37,182.21 89.37,181.89C89.37,181.57 89.37,181.24 89.37,180.92C89.37,180.6 89.37,180.27 89.37,179.95C89.37,179.62 89.37,179.3 89.37,178.97C89.37,178.65 89.37,178.32 89.37,178C89.37,177.68 89.37,177.35 89.37,177.03C89.37,176.71 89.37,176.38 89.37,176.06C89.37,175.74 89.37,175.41 89.37,175.09C89.37,174.76 89.36,174.44 89.36,174.11C89.36,173.79 89.36,173.46 89.36,173.14C89.36,172.82 89.36,172.49 89.36,172.17C89.36,171.85 89.36,171.52 89.36,171.2C89.36,170.87 89.37,170.55 89.37,170.22C89.37,169.9 89.37,169.57 89.37,169.25C89.37,168.93 89.38,168.6 89.38,168.28C89.38,167.96 89.39,167.63 89.39,167.31C89.39,166.98 89.4,166.66 89.4,166.33C89.4,166.01 89.41,165.68 89.41,165.36C89.41,165.04 89.42,164.71 89.42,164.39C89.42,164.07 89.42,163.74 89.42,163.42C89.42,163.09 89.43,162.77 89.43,162.44C89.43,162.12 89.43,161.79 89.43,161.47C89.43,161.15 89.44,160.82 89.44,160.5C89.44,160.18 89.45,159.85 89.45,159.53C89.45,159.2 89.45,158.88 89.45,158.55C89.45,158.23 89.45,157.9 89.45,157.58C89.45,157.26 89.45,156.93 89.45,156.61C89.45,156.29 89.45,155.96 89.45,155.64C89.45,155.31 89.45,154.99 89.45,154.66C89.45,154.34 89.45,154.01 89.45,153.69C89.45,153.37 89.45,153.04 89.45,152.72C89.45,152.4 89.46,152.07 89.46,151.75C89.46,151.43 89.47,151.1 89.47,150.78C89.47,150.45 89.48,150.13 89.48,149.8C89.48,149.48 89.49,149.15 89.49,148.83C89.49,148.51 89.49,148.18 89.49,147.86C89.49,147.54 89.5,147.21 89.5,146.89C89.5,146.56 89.5,146.24 89.5,145.91C89.5,145.59 89.49,145.26 89.49,144.94C89.49,144.62 89.49,144.29 89.49,143.97C89.49,143.65 89.5,143.32 89.5,143C89.5,142.67 89.5,142.35 89.5,142.02C89.5,141.7 89.51,141.37 89.51,141.05C89.51,140.73 89.52,140.4 89.52,140.08C89.52,139.76 89.52,139.43 89.52,139.11C89.52,138.78 89.53,138.46 89.53,138.13C89.53,137.81 89.53,137.48 89.53,137.16C89.53,136.84 89.54,136.51 89.54,136.19C89.54,135.87 89.54,135.54 89.54,135.22C89.54,134.89 89.54,134.57 89.54,134.24C89.54,133.92 89.55,133.59 89.55,133.27C89.56,132.95 89.56,132.62 89.57,132.3C89.58,131.98 89.58,131.65 89.59,131.33C89.6,131.01 89.61,130.68 89.62,130.36C89.63,130.03 89.64,129.71 89.65,129.38C89.66,129.06 89.68,128.73 89.69,128.41C89.7,128.09 89.71,127.76 89.72,127.44C89.73,127.12 89.74,126.79 89.74,126.47C89.75,126.14 89.75,125.82 89.75,125.49C89.75,125.17 89.75,124.84 89.75,124.52C89.75,124.2 89.74,123.87 89.74,123.55C89.74,123.23 89.73,122.9 89.73,122.58C89.72,122.25 89.72,121.93 89.71,121.6C89.7,121.28 89.69,120.95 89.69,120.63C89.69,120.31 89.69,119.98 89.69,119.66C89.69,119.34 89.69,119.01 89.69,118.69C89.69,118.36 89.69,118.04 89.7,117.71C89.7,117.39 89.71,117.06 89.72,116.74C89.73,116.42 89.73,116.09 89.74,115.77C89.75,115.45 89.75,115.12 89.76,114.8C89.77,114.47 89.78,114.15 89.79,113.82C89.8,113.5 89.8,113.17 89.81,112.85C89.82,112.53 89.82,112.2 89.83,111.88C89.84,111.56 89.85,111.23 89.86,110.91C89.87,110.58 89.87,110.26 89.88,109.93C89.89,109.61 89.9,109.28 89.91,108.96C89.92,108.64 89.92,108.31 89.93,107.99C89.93,107.67 89.94,107.34 89.94,107.02C89.95,106.7 89.96,106.37 89.96,106.05C89.97,105.72 89.97,105.4 89.97,105.07C89.97,104.75 89.98,104.42 89.98,104.1C89.98,103.78 89.98,103.45 89.99,103.13C90,102.81 90.01,102.48 90.02,102.16C90.03,101.83 90.04,101.51 90.05,101.18C90.06,100.86 90.06,100.53 90.07,100.21C90.08,99.89 90.09,99.56 90.1,99.24C90.11,98.92 90.11,98.59 90.12,98.27C90.13,97.94 90.13,97.62 90.14,97.29C90.15,96.97 90.15,96.64 90.16,96.32C90.16,96 90.17,95.67 90.17,95.35C90.17,95.03 90.18,94.7 90.18,94.38C90.18,94.05 90.19,93.73 90.19,93.4C90.19,93.08 90.2,92.75 90.2,92.43C90.21,92.11 90.21,91.78 90.22,91.46C90.23,91.14 90.23,90.81 90.24,90.49C90.25,90.16 90.26,89.84 90.27,89.51C90.28,89.19 90.3,88.86 90.31,88.54C90.33,88.22 90.34,87.89 90.36,87.57C90.38,87.25 90.4,86.92 90.42,86.6C90.44,86.28 90.46,85.95 90.48,85.63C90.5,85.3 90.52,84.98 90.54,84.65C90.56,84.33 90.58,84 90.6,83.68C90.62,83.36 90.63,83.03 90.65,82.71C90.66,82.39 90.68,82.06 90.69,81.74C90.71,81.41 90.72,81.09 90.74,80.76C90.75,80.44 90.77,80.11 90.78,79.79C90.8,79.47 90.81,79.14 90.83,78.82C90.85,78.5 90.86,78.17 90.88,77.85C90.9,77.52 90.92,77.2 90.94,76.87C90.96,76.55 90.98,76.22 91,75.9C91.02,75.58 91.05,75.25 91.07,74.93C91.09,74.61 91.11,74.28 91.13,73.96C91.15,73.63 91.16,73.31 91.18,72.98C91.2,72.66 91.22,72.33 91.23,72.01C91.24,71.69 91.25,71.36 91.26,71.04C91.27,70.72 91.29,70.39 91.3,70.07C91.32,69.74 91.33,69.42 91.35,69.09C91.37,68.77 91.39,68.44 91.42,68.12C91.45,67.8 91.48,67.47 91.51,67.15C91.54,66.83 91.58,66.5 91.61,66.18C91.65,65.85 91.68,65.53 91.72,65.2C91.76,64.88 91.79,64.55 91.83,64.23C91.87,63.91 91.9,63.58 91.94,63.26C91.97,62.94 92.01,62.61 92.04,62.29C92.08,61.97 92.11,61.64 92.15,61.32C92.19,60.99 92.23,60.67 92.27,60.34C92.31,60.02 92.36,59.69 92.41,59.37C92.46,59.05 92.52,58.72 92.57,58.4C92.63,58.08 92.68,57.75 92.74,57.43C92.8,57.1 92.87,56.78 92.93,56.45C92.99,56.13 93.05,55.8 93.11,55.48C93.17,55.16 93.23,54.83 93.29,54.51C93.35,54.19 93.41,53.86 93.47,53.54C93.53,53.21 93.59,52.89 93.66,52.56C93.73,52.24 93.8,51.91 93.87,51.59C93.95,51.27 94.03,50.94 94.11,50.62C94.2,50.3 94.29,49.97 94.38,49.65C94.47,49.32 94.57,49 94.67,48.67C94.77,48.35 94.88,48.02 94.98,47.7C95.09,47.38 95.19,47.05 95.3,46.73C95.41,46.41 95.53,46.08 95.65,45.76C95.77,45.43 95.9,45.1 96.03,44.78C96.16,44.45 96.3,44.13 96.45,43.81C96.6,43.49 96.75,43.16 96.91,42.84C97.07,42.52 97.24,42.19 97.4,41.87C97.57,41.55 97.73,41.22 97.9,40.9C98.07,40.57 98.24,40.25 98.4,39.92C98.56,39.6 98.71,39.27 98.86,38.95C99.01,38.63 99.15,38.3 99.28,37.98C99.41,37.66 99.53,37.34 99.65,37.01C99.77,36.69 99.88,36.36 99.99,36.03C100.1,35.71 100.22,35.38 100.33,35.06C100.45,34.74 100.56,34.41 100.68,34.09C100.8,33.77 100.93,33.44 101.07,33.12C101.21,32.79 101.35,32.47 101.5,32.14C101.64,31.82 101.79,31.49 101.94,31.17C102.09,30.85 102.25,30.52 102.39,30.2C102.53,29.88 102.67,29.56 102.8,29.23C102.93,28.91 103.06,28.58 103.17,28.25C103.28,27.93 103.38,27.6 103.47,27.28C103.56,26.96 103.64,26.63 103.7,26.31C103.76,25.99 103.81,25.66 103.85,25.34C103.89,25.01 103.92,24.69 103.94,24.36C103.96,24.04 103.95,23.71 103.95,23.39C103.95,23.07 103.94,22.74 103.92,22.42C103.9,22.1 103.86,21.77 103.83,21.45C103.79,21.12 103.76,20.8 103.71,20.47C103.66,20.15 103.6,19.82 103.53,19.5C103.46,19.18 103.37,18.85 103.27,18.53C103.17,18.2 103.06,17.88 102.92,17.56C102.78,17.23 102.61,16.91 102.43,16.59C102.24,16.26 102.04,15.93 101.82,15.61C101.59,15.28 101.33,14.96 101.07,14.64C100.8,14.31 100.51,13.99 100.22,13.67C99.92,13.34 99.6,13.02 99.28,12.7C98.96,12.37 98.63,12.04 98.3,11.72C97.97,11.39 97.63,11.07 97.3,10.75C96.96,10.43 96.63,10.1 96.29,9.78C95.96,9.46 95.62,9.14 95.29,8.81C94.96,8.49 94.63,8.16 94.31,7.83C93.99,7.51 93.68,7.19 93.38,6.86C93.08,6.54 92.79,6.22 92.51,5.89C92.24,5.57 91.98,5.25 91.74,4.92C91.5,4.6 91.27,4.27 91.07,3.94C90.87,3.62 90.7,3.3 90.54,2.97C90.38,2.65 90.24,2.33 90.12,2C90,1.68 89.91,1.36 89.83,1.03C89.75,0.71 89.69,0.38 89.63,0.05C89.58,-0.27 89.53,-0.6 89.5,-0.92C89.47,-1.24 89.45,-1.57 89.43,-1.89C89.41,-2.21 89.4,-2.54 89.39,-2.86Q89.38,-3.18 89.37,-3.83L89.34,-3.83Q89.33,-3.18 89.32,-2.86C89.31,-2.54 89.31,-2.21 89.29,-1.89C89.27,-1.57 89.24,-1.24 89.21,-0.92C89.18,-0.6 89.14,-0.27 89.09,0.05C89.04,0.38 88.97,0.71 88.89,1.03C88.81,1.36 88.71,1.68 88.59,2C88.47,2.33 88.34,2.65 88.18,2.97C88.02,3.3 87.84,3.62 87.64,3.94C87.44,4.27 87.22,4.6 86.98,4.92C86.74,5.25 86.47,5.57 86.2,5.89C85.92,6.22 85.64,6.54 85.34,6.86C85.04,7.19 84.72,7.51 84.4,7.83C84.08,8.16 83.76,8.49 83.43,8.81C83.1,9.14 82.76,9.46 82.42,9.78C82.08,10.1 81.75,10.43 81.41,10.75C81.08,11.07 80.74,11.39 80.41,11.72C80.08,12.04 79.75,12.37 79.43,12.7C79.11,13.02 78.8,13.34 78.5,13.67C78.2,13.99 77.91,14.31 77.64,14.64C77.38,14.96 77.13,15.28 76.9,15.61C76.68,15.93 76.47,16.26 76.28,16.59C76.1,16.91 75.94,17.23 75.8,17.56C75.66,17.88 75.54,18.2 75.44,18.53C75.34,18.85 75.26,19.18 75.19,19.5C75.12,19.82 75.06,20.15 75.01,20.47C74.96,20.8 74.92,21.12 74.88,21.45C74.85,21.77 74.82,22.1 74.8,22.42C74.78,22.74 74.76,23.07 74.76,23.39C74.76,23.71 74.76,24.04 74.78,24.36C74.8,24.69 74.82,25.01 74.86,25.34C74.9,25.66 74.96,25.99 75.02,26.31C75.08,26.63 75.15,26.96 75.24,27.28C75.33,27.61 75.44,27.93 75.55,28.25C75.66,28.58 75.78,28.91 75.91,29.23C76.04,29.56 76.19,29.88 76.33,30.2C76.47,30.52 76.62,30.85 76.77,31.17C76.92,31.49 77.07,31.81 77.22,32.14C77.36,32.46 77.5,32.79 77.64,33.12C77.77,33.44 77.9,33.77 78.03,34.09C78.15,34.41 78.27,34.74 78.39,35.06C78.5,35.38 78.61,35.71 78.72,36.03C78.83,36.36 78.94,36.69 79.06,37.01C79.18,37.34 79.3,37.66 79.43,37.98C79.56,38.3 79.7,38.63 79.85,38.95C80,39.27 80.15,39.6 80.31,39.92C80.47,40.25 80.64,40.57 80.81,40.9C80.98,41.22 81.15,41.55 81.32,41.87C81.49,42.19 81.65,42.52 81.81,42.84C81.97,43.16 82.11,43.49 82.26,43.81C82.4,44.13 82.55,44.45 82.68,44.78C82.81,45.1 82.94,45.43 83.06,45.76C83.18,46.08 83.3,46.41 83.41,46.73C83.52,47.05 83.63,47.38 83.74,47.7C83.85,48.02 83.95,48.35 84.05,48.67C84.15,49 84.25,49.32 84.34,49.65C84.43,49.97 84.52,50.3 84.6,50.62C84.68,50.94 84.76,51.27 84.84,51.59C84.91,51.91 84.98,52.24 85.05,52.56C85.12,52.89 85.18,53.21 85.24,53.54C85.3,53.86 85.36,54.19 85.42,54.51C85.48,54.83 85.54,55.16 85.6,55.48C85.66,55.8 85.72,56.13 85.78,56.45C85.84,56.78 85.91,57.1 85.97,57.43C86.03,57.75 86.09,58.08 86.15,58.4C86.21,58.72 86.26,59.05 86.31,59.37C86.36,59.69 86.41,60.02 86.45,60.34C86.49,60.67 86.52,60.99 86.56,61.32C86.6,61.64 86.63,61.97 86.67,62.29C86.71,62.61 86.74,62.94 86.78,63.26C86.81,63.58 86.84,63.91 86.88,64.23C86.92,64.55 86.96,64.88 87,65.2C87.04,65.53 87.07,65.85 87.11,66.18C87.14,66.5 87.18,66.83 87.21,67.15C87.24,67.47 87.26,67.8 87.29,68.12C87.31,68.44 87.34,68.77 87.36,69.09C87.38,69.42 87.39,69.74 87.41,70.07C87.42,70.39 87.44,70.72 87.45,71.04C87.46,71.36 87.48,71.69 87.49,72.01C87.5,72.33 87.51,72.66 87.53,72.98C87.55,73.31 87.57,73.63 87.59,73.96C87.61,74.28 87.63,74.61 87.65,74.93C87.67,75.25 87.69,75.58 87.71,75.9C87.73,76.22 87.75,76.55 87.77,76.87C87.79,77.2 87.81,77.52 87.83,77.85C87.85,78.17 87.87,78.5 87.89,78.82C87.91,79.14 87.92,79.47 87.94,79.79C87.95,80.11 87.97,80.44 87.98,80.76C87.99,81.09 88,81.41 88.02,81.74C88.03,82.06 88.05,82.39 88.07,82.71C88.09,83.03 88.1,83.36 88.12,83.68C88.14,84 88.16,84.33 88.18,84.65C88.2,84.98 88.22,85.3 88.24,85.63C88.26,85.95 88.28,86.28 88.3,86.6C88.32,86.92 88.33,87.25 88.35,87.57C88.37,87.89 88.38,88.22 88.4,88.54C88.41,88.86 88.43,89.19 88.44,89.51C88.45,89.84 88.46,90.16 88.47,90.49C88.48,90.81 88.49,91.14 88.5,91.46C88.51,91.78 88.51,92.11 88.51,92.43C88.52,92.75 88.53,93.08 88.53,93.4C88.54,93.73 88.54,94.05 88.54,94.38C88.54,94.7 88.55,95.03 88.55,95.35C88.55,95.67 88.56,96 88.56,96.32C88.56,96.64 88.57,96.97 88.57,97.29C88.58,97.62 88.58,97.94 88.59,98.27C88.6,98.59 88.6,98.92 88.61,99.24C88.62,99.56 88.63,99.89 88.64,100.21C88.65,100.53 88.66,100.86 88.67,101.18C88.68,101.51 88.69,101.83 88.7,102.16C88.71,102.48 88.71,102.81 88.72,103.13C88.73,103.45 88.73,103.78 88.74,104.1C88.74,104.42 88.75,104.75 88.75,105.07C88.75,105.4 88.76,105.72 88.76,106.05C88.76,106.37 88.77,106.7 88.77,107.02C88.78,107.34 88.78,107.67 88.79,107.99C88.8,108.31 88.8,108.64 88.81,108.96C88.82,109.28 88.82,109.61 88.83,109.93C88.84,110.26 88.85,110.58 88.86,110.91C88.87,111.23 88.87,111.56 88.88,111.88C88.89,112.2 88.89,112.53 88.9,112.85C88.91,113.17 88.92,113.5 88.93,113.82C88.94,114.15 88.94,114.47 88.95,114.8C88.96,115.12 88.97,115.45 88.98,115.77C88.99,116.09 88.99,116.42 89,116.74C89.01,117.06 89.02,117.39 89.02,117.71C89.03,118.04 89.03,118.36 89.03,118.69C89.03,119.01 89.03,119.34 89.03,119.66C89.03,119.98 89.02,120.31 89.02,120.63C89.02,120.95 89.01,121.28 89.01,121.6C89,121.93 89,122.25 88.99,122.58C88.98,122.9 88.98,123.23 88.97,123.55C88.97,123.87 88.96,124.2 88.96,124.52C88.96,124.84 88.96,125.17 88.96,125.49C88.96,125.82 88.96,126.14 88.97,126.47C88.97,126.79 88.98,127.12 88.99,127.44C89,127.76 89.02,128.09 89.03,128.41C89.04,128.73 89.05,129.06 89.06,129.38C89.07,129.71 89.09,130.03 89.1,130.36C89.11,130.68 89.12,131.01 89.13,131.33C89.14,131.65 89.14,131.98 89.15,132.3C89.15,132.62 89.16,132.95 89.16,133.27C89.16,133.59 89.17,133.92 89.17,134.24C89.17,134.57 89.18,134.89 89.18,135.22C89.18,135.54 89.18,135.87 89.18,136.19C89.18,136.51 89.18,136.84 89.18,137.16C89.18,137.48 89.18,137.81 89.18,138.13C89.18,138.46 89.19,138.78 89.19,139.11C89.19,139.43 89.2,139.76 89.2,140.08C89.2,140.4 89.2,140.73 89.2,141.05C89.2,141.37 89.21,141.7 89.21,142.02C89.21,142.35 89.22,142.67 89.22,143C89.22,143.32 89.22,143.65 89.22,143.97C89.22,144.29 89.22,144.62 89.22,144.94C89.22,145.26 89.22,145.59 89.22,145.91C89.22,146.24 89.22,146.56 89.22,146.89C89.22,147.21 89.22,147.54 89.22,147.86C89.22,148.18 89.23,148.51 89.23,148.83C89.23,149.15 89.23,149.48 89.23,149.8C89.23,150.13 89.24,150.45 89.24,150.78C89.24,151.1 89.25,151.43 89.25,151.75C89.25,152.07 89.26,152.4 89.26,152.72C89.26,153.04 89.26,153.37 89.26,153.69C89.26,154.01 89.26,154.34 89.26,154.66C89.26,154.99 89.26,155.31 89.26,155.64C89.26,155.96 89.26,156.29 89.26,156.61C89.26,156.93 89.26,157.26 89.26,157.58C89.26,157.9 89.26,158.23 89.26,158.55C89.26,158.88 89.27,159.2 89.27,159.53C89.27,159.85 89.27,160.18 89.27,160.5C89.27,160.82 89.28,161.15 89.28,161.47C89.28,161.79 89.29,162.12 89.29,162.44C89.29,162.77 89.29,163.09 89.29,163.42C89.29,163.74 89.3,164.07 89.3,164.39C89.3,164.71 89.31,165.04 89.31,165.36C89.31,165.68 89.32,166.01 89.32,166.33C89.32,166.66 89.33,166.98 89.33,167.31C89.33,167.63 89.33,167.96 89.33,168.28C89.33,168.6 89.34,168.93 89.34,169.25C89.34,169.57 89.35,169.9 89.35,170.22C89.35,170.55 89.35,170.87 89.35,171.2C89.35,171.52 89.35,171.85 89.35,172.17C89.35,172.49 89.35,172.82 89.35,173.14C89.35,173.46 89.35,173.79 89.35,174.11C89.35,174.44 89.35,174.76 89.35,175.09C89.35,175.41 89.35,175.74 89.35,176.06C89.35,176.38 89.34,176.71 89.34,177.03C89.34,177.35 89.34,177.68 89.34,178C89.34,178.32 89.34,178.65 89.34,178.97C89.34,179.3 89.34,179.62 89.34,179.95C89.34,180.27 89.34,180.6 89.34,180.92C89.34,181.24 89.34,181.57 89.34,181.89C89.34,182.21 89.34,182.54 89.34,182.86C89.34,183.19 89.34,183.51 89.34,183.84C89.34,184.16 89.35,184.49 89.35,184.81C89.35,185.13 89.35,185.46 89.35,185.78C89.35,186.1 89.35,186.43 89.35,186.75C89.35,187.08 89.35,187.4 89.35,187.73C89.35,188.05 89.35,188.38 89.35,188.7Q89.35,189.02 89.36,189.67Z" style="vector-effect: none; stroke-width: 0.5px; stroke: rgb(0, 0, 0); stroke-opacity: 1; fill: rgb(236, 154, 86); fill-opacity: 1;"/><path class="meanline" d="M99.79373931884766,36.61H78.92626068115234" style="fill: none; vector-effect: none; stroke-width: 0.5px; stroke-dasharray: 1px, 0.5px; stroke: rgb(0, 0, 0); stroke-opacity: 1;"/></g><g class="trace violins" style="opacity: 1;"><path class="violin" d="M148.97,143.11Q148.99,141.6 149,140.85C149.02,140.1 149.04,139.34 149.06,138.59C149.08,137.84 149.11,137.09 149.13,136.34C149.16,135.59 149.18,134.83 149.21,134.08C149.24,133.33 149.27,132.57 149.3,131.82C149.33,131.07 149.36,130.31 149.38,129.56C149.4,128.81 149.42,128.06 149.43,127.31C149.44,126.56 149.45,125.8 149.45,125.05C149.45,124.3 149.46,123.54 149.45,122.79C149.44,122.04 149.43,121.29 149.42,120.54C149.41,119.79 149.4,119.03 149.39,118.28C149.38,117.53 149.36,116.77 149.35,116.02C149.34,115.27 149.33,114.51 149.32,113.76C149.31,113.01 149.3,112.26 149.29,111.51C149.28,110.76 149.28,110 149.28,109.25C149.28,108.5 149.28,107.74 149.29,106.99C149.3,106.24 149.32,105.49 149.34,104.74C149.36,103.99 149.39,103.23 149.42,102.48C149.45,101.73 149.48,100.97 149.51,100.22C149.54,99.47 149.58,98.71 149.62,97.96C149.65,97.21 149.69,96.46 149.72,95.71C149.75,94.96 149.78,94.2 149.81,93.45C149.84,92.7 149.88,91.94 149.91,91.19C149.95,90.44 149.98,89.68 150.02,88.93C150.06,88.18 150.11,87.43 150.16,86.68C150.21,85.93 150.27,85.17 150.32,84.42C150.37,83.67 150.43,82.91 150.48,82.16C150.52,81.41 150.56,80.66 150.59,79.91C150.62,79.16 150.64,78.4 150.64,77.65C150.64,76.9 150.63,76.14 150.62,75.39C150.61,74.64 150.57,73.88 150.55,73.13C150.53,72.38 150.5,71.63 150.49,70.88C150.48,70.13 150.46,69.37 150.47,68.62C150.48,67.87 150.5,67.11 150.55,66.36C150.6,65.61 150.67,64.86 150.76,64.11C150.86,63.36 150.97,62.6 151.12,61.85C151.27,61.09 151.44,60.34 151.64,59.59C151.84,58.83 152.07,58.08 152.32,57.33C152.57,56.58 152.85,55.83 153.14,55.08C153.43,54.32 153.75,53.57 154.07,52.82C154.39,52.06 154.73,51.31 155.07,50.56C155.41,49.81 155.76,49.05 156.12,48.3C156.48,47.55 156.84,46.8 157.22,46.05C157.6,45.3 157.99,44.54 158.38,43.79C158.77,43.04 159.17,42.28 159.55,41.53C159.93,40.78 160.33,40.04 160.68,39.28C161.03,38.53 161.37,37.78 161.66,37.02C161.95,36.27 162.21,35.52 162.43,34.76C162.65,34.01 162.82,33.26 162.97,32.5C163.12,31.75 163.23,31 163.32,30.25C163.41,29.5 163.47,28.74 163.5,27.99C163.53,27.24 163.54,26.48 163.52,25.73C163.5,24.98 163.46,24.23 163.36,23.48C163.26,22.72 163.13,21.97 162.93,21.22C162.73,20.46 162.47,19.7 162.15,18.96C161.82,18.19 161.41,17.44 160.97,16.7C160.51,15.94 159.99,15.19 159.44,14.45C158.88,13.69 158.25,12.94 157.64,12.19C157.02,11.43 156.38,10.69 155.76,9.93C155.15,9.18 154.53,8.44 153.96,7.68C153.41,6.94 152.87,6.19 152.39,5.42C151.93,4.68 151.5,3.92 151.14,3.16C150.79,2.42 150.49,1.66 150.24,0.9C150,0.16 149.81,-0.6 149.65,-1.35C149.49,-2.1 149.38,-2.86 149.29,-3.61Q149.2,-4.36 149.09,-5.87L148.76,-5.87Q148.66,-4.36 148.57,-3.61C148.48,-2.85 148.37,-2.1 148.21,-1.35C148.05,-0.6 147.86,0.16 147.62,0.9C147.37,1.66 147.07,2.42 146.72,3.16C146.36,3.92 145.93,4.68 145.47,5.42C144.99,6.19 144.45,6.94 143.9,7.68C143.33,8.44 142.71,9.18 142.1,9.93C141.48,10.69 140.83,11.43 140.21,12.19C139.6,12.94 138.98,13.69 138.42,14.45C137.87,15.19 137.34,15.93 136.88,16.7C136.44,17.44 136.04,18.19 135.71,18.96C135.39,19.7 135.13,20.46 134.93,21.22C134.73,21.97 134.6,22.72 134.5,23.48C134.4,24.23 134.35,24.98 134.33,25.73C134.31,26.48 134.33,27.24 134.36,27.99C134.39,28.74 134.45,29.5 134.54,30.25C134.63,31 134.74,31.75 134.89,32.5C135.04,33.26 135.21,34.01 135.43,34.76C135.65,35.52 135.91,36.27 136.2,37.02C136.49,37.78 136.83,38.53 137.18,39.28C137.53,40.04 137.92,40.78 138.3,41.53C138.68,42.28 139.09,43.04 139.48,43.79C139.87,44.54 140.26,45.3 140.64,46.05C141.02,46.8 141.38,47.55 141.74,48.3C142.1,49.05 142.45,49.81 142.79,50.56C143.13,51.31 143.47,52.06 143.79,52.82C144.11,53.57 144.42,54.33 144.71,55.08C145,55.83 145.29,56.58 145.54,57.33C145.79,58.08 146.02,58.83 146.22,59.59C146.42,60.34 146.59,61.09 146.74,61.85C146.89,62.6 147.01,63.36 147.1,64.11C147.19,64.86 147.25,65.61 147.3,66.36C147.35,67.11 147.38,67.87 147.39,68.62C147.4,69.37 147.39,70.13 147.37,70.88C147.35,71.63 147.32,72.38 147.3,73.13C147.28,73.88 147.25,74.64 147.24,75.39C147.23,76.14 147.22,76.9 147.22,77.65C147.22,78.4 147.23,79.16 147.26,79.91C147.29,80.66 147.34,81.41 147.38,82.16C147.43,82.91 147.48,83.67 147.53,84.42C147.58,85.17 147.64,85.93 147.69,86.68C147.74,87.43 147.79,88.18 147.83,88.93C147.87,89.68 147.91,90.44 147.95,91.19C147.99,91.94 148.02,92.7 148.05,93.45C148.08,94.2 148.11,94.96 148.14,95.71C148.17,96.46 148.21,97.21 148.24,97.96C148.27,98.71 148.31,99.47 148.34,100.22C148.37,100.97 148.41,101.73 148.44,102.48C148.47,103.23 148.5,103.99 148.52,104.74C148.54,105.49 148.56,106.24 148.57,106.99C148.58,107.74 148.58,108.5 148.58,109.25C148.58,110 148.58,110.76 148.57,111.51C148.56,112.26 148.55,113.01 148.54,113.76C148.53,114.51 148.51,115.27 148.5,116.02C148.49,116.77 148.48,117.53 148.47,118.28C148.46,119.03 148.44,119.79 148.43,120.54C148.42,121.29 148.41,122.04 148.41,122.79C148.41,123.54 148.41,124.3 148.41,125.05C148.41,125.8 148.42,126.56 148.43,127.31C148.44,128.06 148.46,128.81 148.48,129.56C148.5,130.31 148.53,131.07 148.56,131.82C148.59,132.57 148.61,133.33 148.64,134.08C148.67,134.83 148.7,135.59 148.73,136.34C148.76,137.09 148.78,137.84 148.8,138.59C148.82,139.34 148.83,140.1 148.85,140.85Q148.86,141.6 148.89,143.11Z" style="vector-effect: none; stroke-width: 0.5px; stroke: rgb(0, 0, 0); stroke-opacity: 1; fill: rgb(155, 191, 229); fill-opacity: 1;"/><path class="meanline" d="M161.96426391601562,36.2H135.8957360839844" style="fill: none; vector-effect: none; stroke-width: 0.5px; stroke-dasharray: 1px, 0.5px; stroke: rgb(0, 0, 0); stroke-opacity: 1;"/></g><g class="trace violins" style="opacity: 1;"><path class="violin" d="M208.54,122.42Q208.56,120.53 208.58,119.58C208.59,118.64 208.61,117.69 208.63,116.75C208.65,115.8 208.67,114.86 208.7,113.91C208.73,112.96 208.76,112.02 208.79,111.07C208.82,110.12 208.85,109.18 208.88,108.23C208.91,107.29 208.94,106.34 208.97,105.4C209,104.45 209.04,103.51 209.08,102.56C209.12,101.61 209.17,100.67 209.21,99.72C209.26,98.77 209.3,97.83 209.35,96.88C209.4,95.94 209.46,94.99 209.51,94.05C209.56,93.1 209.61,92.16 209.65,91.21C209.69,90.26 209.73,89.32 209.76,88.37C209.79,87.42 209.81,86.48 209.83,85.53C209.85,84.58 209.85,83.64 209.86,82.69C209.87,81.75 209.87,80.8 209.88,79.86C209.89,78.91 209.9,77.97 209.93,77.02C209.96,76.07 209.99,75.13 210.04,74.18C210.09,73.23 210.16,72.29 210.25,71.34C210.33,70.4 210.43,69.45 210.55,68.51C210.67,67.56 210.8,66.62 210.95,65.67C211.1,64.72 211.28,63.78 211.46,62.83C211.65,61.88 211.85,60.93 212.06,59.99C212.27,59.04 212.51,58.1 212.74,57.16C212.97,56.21 213.21,55.27 213.45,54.32C213.68,53.37 213.92,52.43 214.15,51.48C214.38,50.53 214.61,49.59 214.83,48.64C215.05,47.7 215.25,46.75 215.46,45.81C215.67,44.86 215.87,43.92 216.08,42.97C216.29,42.02 216.5,41.07 216.74,40.13C216.99,39.18 217.25,38.23 217.55,37.29C217.85,36.34 218.18,35.4 218.54,34.46C218.9,33.51 219.31,32.56 219.71,31.62C220.11,30.67 220.56,29.73 220.96,28.78C221.35,27.84 221.76,26.9 222.08,25.94C222.39,25 222.68,24.05 222.85,23.1C223.02,22.16 223.12,21.21 223.1,20.27C223.08,19.32 222.93,18.36 222.7,17.43C222.46,16.47 222.09,15.52 221.67,14.59C221.23,13.63 220.68,12.68 220.11,11.75C219.53,10.79 218.86,9.86 218.2,8.92C217.54,7.97 216.82,7.03 216.15,6.08C215.48,5.14 214.81,4.2 214.19,3.24C213.58,2.3 212.99,1.36 212.47,0.4C211.96,-0.53 211.48,-1.47 211.08,-2.43C210.69,-3.36 210.35,-4.32 210.07,-5.27C209.79,-6.21 209.57,-7.16 209.38,-8.11C209.19,-9.05 209.06,-10 208.95,-10.95Q208.84,-11.89 208.71,-13.78L208.29,-13.78Q208.16,-11.89 208.05,-10.95C207.94,-10 207.81,-9.05 207.62,-8.11C207.43,-7.16 207.21,-6.21 206.93,-5.27C206.65,-4.32 206.31,-3.36 205.92,-2.43C205.52,-1.47 205.04,-0.53 204.53,0.4C204.01,1.36 203.42,2.3 202.81,3.24C202.19,4.2 201.52,5.14 200.85,6.08C200.18,7.03 199.46,7.97 198.8,8.92C198.14,9.86 197.47,10.79 196.89,11.75C196.32,12.68 195.77,13.63 195.33,14.59C194.91,15.52 194.54,16.47 194.3,17.43C194.07,18.36 193.92,19.32 193.9,20.27C193.88,21.21 193.98,22.16 194.15,23.1C194.32,24.05 194.61,25 194.92,25.94C195.24,26.9 195.65,27.84 196.04,28.78C196.44,29.73 196.89,30.67 197.29,31.62C197.69,32.56 198.1,33.51 198.46,34.46C198.82,35.4 199.15,36.34 199.45,37.29C199.75,38.23 200.01,39.18 200.26,40.13C200.5,41.07 200.71,42.02 200.92,42.97C201.13,43.92 201.33,44.86 201.54,45.81C201.75,46.75 201.95,47.7 202.17,48.64C202.39,49.59 202.62,50.53 202.85,51.48C203.08,52.43 203.32,53.37 203.55,54.32C203.79,55.27 204.03,56.21 204.26,57.16C204.49,58.1 204.73,59.04 204.94,59.99C205.15,60.93 205.35,61.88 205.54,62.83C205.72,63.78 205.9,64.72 206.05,65.67C206.2,66.62 206.33,67.56 206.45,68.51C206.57,69.45 206.67,70.4 206.75,71.34C206.84,72.29 206.91,73.23 206.96,74.18C207.01,75.13 207.04,76.07 207.07,77.02C207.1,77.97 207.11,78.91 207.12,79.86C207.13,80.8 207.13,81.75 207.14,82.69C207.15,83.64 207.15,84.58 207.17,85.53C207.19,86.48 207.21,87.42 207.24,88.37C207.27,89.32 207.31,90.26 207.35,91.21C207.39,92.16 207.44,93.1 207.49,94.05C207.54,94.99 207.6,95.94 207.65,96.88C207.7,97.83 207.74,98.77 207.79,99.72C207.83,100.67 207.88,101.61 207.92,102.56C207.96,103.51 208,104.45 208.03,105.4C208.06,106.34 208.09,107.29 208.12,108.23C208.15,109.18 208.18,110.12 208.21,111.07C208.24,112.02 208.27,112.96 208.3,113.91C208.33,114.86 208.35,115.8 208.37,116.75C208.39,117.69 208.41,118.64 208.42,119.58Q208.44,120.53 208.46,122.42Z" style="vector-effect: none; stroke-width: 0.5px; stroke: rgb(0, 0, 0); stroke-opacity: 1; fill: rgb(138, 165, 61); fill-opacity: 1;"/><path class="meanline" d="M219.64222717285156,31.78H197.35777282714844" style="fill: none; vector-effect: none; stroke-width: 0.5px; stroke-dasharray: 1px, 0.5px; stroke: rgb(0, 0, 0); stroke-opacity: 1;"/></g><g class="trace violins" style="opacity: 1;"><path class="violin" d="M268.15,102.18Q268.19,100.56 268.22,99.75C268.25,98.94 268.28,98.13 268.31,97.32C268.35,96.51 268.39,95.7 268.43,94.89C268.47,94.08 268.51,93.27 268.54,92.46C268.57,91.65 268.61,90.84 268.63,90.03C268.65,89.22 268.67,88.42 268.68,87.61C268.69,86.8 268.68,85.99 268.67,85.18C268.66,84.37 268.64,83.56 268.62,82.75C268.6,81.94 268.58,81.13 268.57,80.32C268.56,79.51 268.56,78.7 268.57,77.89C268.58,77.08 268.6,76.27 268.64,75.46C268.68,74.65 268.73,73.85 268.79,73.04C268.85,72.23 268.92,71.42 269,70.61C269.08,69.8 269.17,68.99 269.25,68.18C269.33,67.37 269.42,66.56 269.5,65.75C269.58,64.94 269.67,64.13 269.75,63.32C269.83,62.51 269.91,61.7 270,60.89C270.09,60.08 270.18,59.27 270.3,58.46C270.42,57.65 270.55,56.85 270.71,56.04C270.87,55.23 271.05,54.42 271.25,53.61C271.45,52.8 271.69,51.99 271.93,51.18C272.17,50.37 272.44,49.56 272.7,48.75C272.96,47.94 273.23,47.13 273.49,46.32C273.75,45.51 274.01,44.7 274.28,43.89C274.54,43.08 274.8,42.28 275.08,41.47C275.36,40.66 275.65,39.84 275.97,39.04C276.3,38.22 276.65,37.41 277.04,36.61C277.43,35.79 277.87,34.99 278.32,34.18C278.77,33.37 279.27,32.56 279.73,31.75C280.19,30.94 280.67,30.14 281.07,29.32C281.46,28.52 281.85,27.71 282.12,26.89C282.38,26.09 282.59,25.28 282.67,24.47C282.75,23.67 282.73,22.84 282.62,22.04C282.51,21.22 282.28,20.41 282,19.61C281.71,18.79 281.33,17.98 280.92,17.18C280.5,16.36 280,15.55 279.49,14.75C278.97,13.93 278.4,13.12 277.83,12.32C277.25,11.51 276.63,10.71 276.04,9.9C275.44,9.09 274.84,8.28 274.26,7.47C273.69,6.66 273.11,5.86 272.59,5.04C272.08,4.24 271.58,3.43 271.15,2.61C270.73,1.81 270.34,1 270.01,0.18C269.69,-0.62 269.42,-1.43 269.2,-2.25C268.98,-3.05 268.81,-3.87 268.67,-4.68Q268.53,-5.48 268.36,-7.1L267.78,-7.1Q267.61,-5.48 267.47,-4.68C267.33,-3.87 267.16,-3.05 266.94,-2.25C266.72,-1.43 266.45,-0.62 266.13,0.18C265.8,1 265.41,1.81 264.99,2.61C264.56,3.43 264.07,4.24 263.56,5.04C263.04,5.86 262.46,6.66 261.89,7.47C261.31,8.28 260.7,9.09 260.1,9.9C259.51,10.71 258.9,11.51 258.32,12.32C257.75,13.12 257.18,13.93 256.66,14.75C256.15,15.55 255.64,16.36 255.22,17.18C254.81,17.98 254.43,18.79 254.14,19.61C253.86,20.41 253.63,21.22 253.52,22.04C253.41,22.84 253.4,23.67 253.48,24.47C253.56,25.28 253.76,26.09 254.02,26.89C254.29,27.71 254.68,28.52 255.07,29.32C255.47,30.14 255.96,30.94 256.42,31.75C256.88,32.56 257.38,33.37 257.83,34.18C258.27,34.99 258.71,35.79 259.1,36.61C259.49,37.41 259.84,38.22 260.17,39.04C260.49,39.84 260.78,40.66 261.06,41.47C261.34,42.28 261.61,43.08 261.87,43.89C262.14,44.7 262.39,45.51 262.65,46.32C262.91,47.13 263.19,47.94 263.45,48.75C263.71,49.56 263.97,50.37 264.21,51.18C264.45,51.99 264.69,52.8 264.89,53.61C265.09,54.42 265.27,55.23 265.43,56.04C265.59,56.85 265.72,57.65 265.84,58.46C265.96,59.27 266.06,60.08 266.15,60.89C266.24,61.7 266.32,62.51 266.4,63.32C266.48,64.13 266.56,64.94 266.64,65.75C266.72,66.56 266.81,67.37 266.89,68.18C266.97,68.99 267.06,69.8 267.14,70.61C267.22,71.42 267.3,72.23 267.36,73.04C267.42,73.85 267.47,74.65 267.51,75.46C267.55,76.27 267.57,77.08 267.58,77.89C267.59,78.7 267.58,79.51 267.57,80.32C267.56,81.13 267.54,81.94 267.52,82.75C267.51,83.56 267.49,84.37 267.48,85.18C267.47,85.99 267.46,86.8 267.47,87.61C267.48,88.42 267.49,89.22 267.51,90.03C267.53,90.84 267.57,91.65 267.6,92.46C267.63,93.27 267.67,94.08 267.71,94.89C267.75,95.7 267.79,96.51 267.83,97.32C267.86,98.13 267.89,98.94 267.92,99.75Q267.95,100.56 267.99,102.18Z" style="vector-effect: none; stroke-width: 0.5px; stroke: rgb(0, 0, 0); stroke-opacity: 1; fill: rgb(186, 105, 190); fill-opacity: 1;"/><path class="meanline" d="M281.0455627441406,29.37H255.09443725585936" style="fill: none; vector-effect: none; stroke-width: 0.5px; stroke-dasharray: 1px, 0.5px; stroke: rgb(0, 0, 0); stroke-opacity: 1;"/></g><g class="trace violins" style="opacity: 1;"><path class="violin" d="M327.84,74.68Q327.95,73.28 328.04,72.58C328.13,71.88 328.23,71.18 328.37,70.48C328.51,69.78 328.67,69.08 328.86,68.38C329.05,67.68 329.27,66.98 329.5,66.28C329.73,65.58 329.99,64.89 330.24,64.19C330.49,63.49 330.77,62.79 331.01,62.09C331.25,61.39 331.49,60.69 331.67,59.99C331.85,59.29 332.01,58.59 332.11,57.89C332.21,57.19 332.26,56.49 332.26,55.79C332.26,55.09 332.21,54.39 332.14,53.69C332.07,52.99 331.95,52.29 331.84,51.59C331.74,50.89 331.59,50.2 331.51,49.5C331.43,48.8 331.35,48.1 331.34,47.4C331.33,46.7 331.35,46 331.44,45.3C331.53,44.6 331.69,43.89 331.9,43.2C332.12,42.49 332.41,41.79 332.74,41.1C333.08,40.39 333.5,39.69 333.94,39C334.39,38.29 334.91,37.59 335.43,36.9C335.96,36.19 336.53,35.5 337.07,34.8C337.61,34.1 338.17,33.42 338.68,32.71C339.18,32.02 339.66,31.32 340.08,30.61C340.48,29.92 340.86,29.22 341.16,28.51C341.45,27.82 341.69,27.12 341.87,26.41C342.05,25.72 342.17,25.01 342.23,24.31C342.29,23.61 342.3,22.91 342.24,22.21C342.18,21.51 342.06,20.8 341.86,20.11C341.66,19.4 341.38,18.7 341.04,18.02C340.68,17.3 340.22,16.6 339.72,15.92C339.2,15.2 338.6,14.51 337.98,13.82C337.34,13.11 336.64,12.42 335.96,11.72C335.28,11.02 334.56,10.33 333.9,9.62C333.25,8.93 332.61,8.23 332.03,7.52C331.48,6.83 330.95,6.13 330.5,5.42C330.07,4.74 329.68,4.04 329.36,3.33C329.05,2.64 328.8,1.94 328.6,1.23C328.4,0.54 328.26,-0.17 328.14,-0.87Q328.02,-1.57 327.88,-2.97L327.41,-2.97Q327.27,-1.57 327.15,-0.87C327.03,-0.17 326.88,0.54 326.68,1.23C326.47,1.94 326.23,2.64 325.92,3.33C325.6,4.04 325.22,4.74 324.79,5.42C324.34,6.14 323.81,6.83 323.25,7.52C322.67,8.23 322.03,8.93 321.38,9.62C320.72,10.33 320.01,11.02 319.33,11.72C318.65,12.42 317.95,13.11 317.31,13.82C316.69,14.51 316.08,15.2 315.56,15.92C315.07,16.6 314.61,17.3 314.25,18.02C313.91,18.7 313.62,19.4 313.42,20.11C313.22,20.8 313.11,21.51 313.05,22.21C312.99,22.91 313,23.61 313.06,24.31C313.12,25.01 313.24,25.72 313.42,26.41C313.6,27.12 313.84,27.82 314.13,28.51C314.43,29.22 314.8,29.92 315.2,30.61C315.62,31.32 316.1,32.02 316.6,32.71C317.11,33.42 317.67,34.1 318.21,34.8C318.75,35.5 319.32,36.19 319.85,36.9C320.37,37.59 320.88,38.29 321.34,39C321.78,39.69 322.2,40.39 322.55,41.1C322.88,41.79 323.17,42.49 323.39,43.2C323.6,43.89 323.75,44.6 323.84,45.3C323.93,46 323.96,46.7 323.95,47.4C323.94,48.1 323.85,48.8 323.77,49.5C323.69,50.2 323.55,50.89 323.45,51.59C323.35,52.29 323.22,52.99 323.15,53.69C323.08,54.39 323.02,55.09 323.02,55.79C323.02,56.49 323.07,57.19 323.17,57.89C323.27,58.59 323.43,59.29 323.61,59.99C323.8,60.69 324.04,61.39 324.28,62.09C324.52,62.79 324.79,63.49 325.04,64.19C325.29,64.89 325.56,65.58 325.79,66.28C326.02,66.98 326.24,67.68 326.43,68.38C326.62,69.08 326.77,69.78 326.91,70.48C327.04,71.18 327.15,71.88 327.24,72.58Q327.33,73.28 327.44,74.68Z" style="vector-effect: none; stroke-width: 0.5px; stroke: rgb(0, 0, 0); stroke-opacity: 1; fill: rgb(185, 178, 194); fill-opacity: 1;"/><path class="meanline" d="M340.4696350097656,29.92H314.81036499023435" style="fill: none; vector-effect: none; stroke-width: 0.5px; stroke-dasharray: 1px, 0.5px; stroke: rgb(0, 0, 0); stroke-opacity: 1;"/></g><g class="trace violins" style="opacity: 1;"><path class="violin" d="M387.31,148.47Q387.37,146.97 387.4,146.22C387.44,145.47 387.48,144.72 387.52,143.97C387.56,143.22 387.61,142.47 387.66,141.72C387.71,140.97 387.76,140.22 387.8,139.47C387.84,138.72 387.88,137.97 387.91,137.22C387.93,136.47 387.95,135.72 387.95,134.97C387.95,134.22 387.94,133.47 387.92,132.72C387.9,131.97 387.86,131.22 387.82,130.47C387.78,129.72 387.73,128.97 387.68,128.22C387.63,127.47 387.59,126.72 387.54,125.97C387.5,125.22 387.45,124.47 387.41,123.72C387.37,122.97 387.34,122.22 387.32,121.47C387.3,120.72 387.28,119.97 387.27,119.22C387.26,118.47 387.25,117.72 387.24,116.97C387.23,116.22 387.22,115.47 387.22,114.72C387.22,113.97 387.22,113.22 387.22,112.47C387.22,111.72 387.22,110.97 387.22,110.22C387.22,109.47 387.21,108.72 387.21,107.97C387.21,107.22 387.21,106.47 387.21,105.72C387.21,104.97 387.21,104.22 387.21,103.47C387.21,102.72 387.21,101.97 387.21,101.22C387.21,100.47 387.21,99.72 387.21,98.97C387.21,98.22 387.21,97.47 387.21,96.72C387.21,95.97 387.21,95.22 387.21,94.47C387.21,93.72 387.21,92.97 387.21,92.22C387.21,91.47 387.21,90.72 387.21,89.97C387.21,89.22 387.22,88.47 387.22,87.72C387.22,86.97 387.22,86.22 387.22,85.47C387.22,84.72 387.22,83.97 387.22,83.22C387.22,82.47 387.23,81.72 387.24,80.97C387.25,80.22 387.26,79.47 387.27,78.72C387.29,77.97 387.31,77.22 387.33,76.47C387.36,75.72 387.38,74.97 387.42,74.22C387.46,73.47 387.51,72.72 387.55,71.97C387.6,71.22 387.64,70.47 387.69,69.72C387.74,68.97 387.8,68.22 387.84,67.47C387.88,66.72 387.92,65.97 387.95,65.22C387.98,64.47 388,63.72 388.01,62.97C388.02,62.22 388.02,61.47 388.03,60.72C388.04,59.97 388.03,59.22 388.05,58.47C388.07,57.72 388.09,56.97 388.15,56.22C388.21,55.47 388.28,54.72 388.39,53.97C388.5,53.22 388.65,52.47 388.83,51.72C389.01,50.97 389.22,50.21 389.47,49.47C389.72,48.71 390.01,47.96 390.33,47.22C390.65,46.46 391,45.71 391.38,44.97C391.76,44.21 392.18,43.46 392.62,42.72C393.07,41.96 393.55,41.22 394.04,40.47C394.53,39.72 395.05,38.97 395.55,38.22C396.05,37.47 396.58,36.73 397.05,35.97C397.51,35.23 397.96,34.48 398.34,33.72C398.71,32.98 399.04,32.23 399.3,31.47C399.56,30.73 399.74,29.97 399.91,29.22C400.07,28.47 400.17,27.72 400.29,26.97C400.41,26.22 400.5,25.47 400.62,24.72C400.74,23.97 400.88,23.22 401.03,22.47C401.18,21.72 401.37,20.97 401.5,20.22C401.63,19.47 401.78,18.72 401.81,17.97C401.84,17.22 401.82,16.46 401.66,15.72C401.5,14.96 401.21,14.2 400.83,13.47C400.43,12.69 399.86,11.95 399.27,11.22C398.65,10.45 397.91,9.71 397.19,8.97C396.45,8.21 395.63,7.48 394.88,6.72C394.14,5.98 393.38,5.23 392.7,4.47C392.04,3.73 391.41,2.99 390.86,2.22C390.34,1.48 389.87,0.73 389.47,-0.04C389.09,-0.78 388.78,-1.53 388.52,-2.29C388.27,-3.03 388.08,-3.79 387.92,-4.54C387.76,-5.29 387.66,-6.04 387.57,-6.79Q387.48,-7.54 387.38,-9.04L387.05,-9.04Q386.95,-7.54 386.86,-6.79C386.77,-6.04 386.67,-5.29 386.51,-4.54C386.35,-3.79 386.17,-3.03 385.91,-2.29C385.65,-1.53 385.33,-0.78 384.95,-0.04C384.55,0.73 384.09,1.48 383.57,2.22C383.02,2.99 382.39,3.73 381.73,4.47C381.05,5.24 380.28,5.97 379.54,6.72C378.79,7.47 377.98,8.21 377.24,8.97C376.52,9.71 375.77,10.45 375.15,11.22C374.57,11.95 374,12.69 373.6,13.47C373.22,14.2 372.93,14.96 372.77,15.72C372.61,16.46 372.59,17.22 372.62,17.97C372.65,18.72 372.8,19.47 372.93,20.22C373.06,20.97 373.25,21.72 373.4,22.47C373.55,23.22 373.69,23.97 373.81,24.72C373.93,25.47 374.02,26.22 374.14,26.97C374.26,27.72 374.35,28.47 374.51,29.22C374.67,29.97 374.86,30.73 375.12,31.47C375.39,32.23 375.72,32.98 376.09,33.72C376.47,34.48 376.92,35.23 377.38,35.97C377.85,36.73 378.37,37.47 378.87,38.22C379.37,38.97 379.9,39.72 380.39,40.47C380.88,41.22 381.36,41.96 381.81,42.72C382.25,43.46 382.67,44.21 383.05,44.97C383.43,45.71 383.78,46.46 384.1,47.22C384.41,47.96 384.7,48.71 384.95,49.47C385.2,50.22 385.42,50.97 385.6,51.72C385.78,52.47 385.93,53.22 386.04,53.97C386.15,54.72 386.22,55.47 386.28,56.22C386.34,56.97 386.36,57.72 386.38,58.47C386.4,59.22 386.39,59.97 386.4,60.72C386.41,61.47 386.41,62.22 386.42,62.97C386.43,63.72 386.45,64.47 386.48,65.22C386.51,65.97 386.55,66.72 386.59,67.47C386.63,68.22 386.68,68.97 386.73,69.72C386.78,70.47 386.83,71.22 386.88,71.97C386.93,72.72 386.97,73.47 387.01,74.22C387.05,74.97 387.07,75.72 387.1,76.47C387.12,77.22 387.14,77.97 387.16,78.72C387.17,79.47 387.18,80.22 387.19,80.97C387.2,81.72 387.2,82.47 387.2,83.22C387.2,83.97 387.21,84.72 387.21,85.47C387.21,86.22 387.21,86.97 387.21,87.72C387.21,88.47 387.21,89.22 387.21,89.97C387.21,90.72 387.21,91.47 387.21,92.22C387.21,92.97 387.21,93.72 387.21,94.47C387.21,95.22 387.21,95.97 387.21,96.72C387.21,97.47 387.21,98.22 387.21,98.97C387.21,99.72 387.21,100.47 387.21,101.22C387.21,101.97 387.21,102.72 387.21,103.47C387.21,104.22 387.21,104.97 387.21,105.72C387.21,106.47 387.21,107.22 387.21,107.97C387.21,108.72 387.21,109.47 387.21,110.22C387.21,110.97 387.21,111.72 387.21,112.47C387.21,113.22 387.2,113.97 387.2,114.72C387.2,115.47 387.2,116.22 387.19,116.97C387.18,117.72 387.17,118.47 387.16,119.22C387.14,119.97 387.12,120.72 387.1,121.47C387.08,122.22 387.05,122.97 387.02,123.72C386.98,124.47 386.93,125.22 386.89,125.97C386.84,126.72 386.8,127.47 386.75,128.22C386.7,128.97 386.65,129.72 386.61,130.47C386.57,131.22 386.53,131.97 386.51,132.72C386.49,133.47 386.47,134.22 386.47,134.97C386.47,135.72 386.49,136.47 386.52,137.22C386.55,137.97 386.59,138.72 386.63,139.47C386.67,140.22 386.72,140.97 386.77,141.72C386.82,142.47 386.87,143.22 386.91,143.97C386.95,144.72 387,145.47 387.03,146.22Q387.06,146.97 387.11,148.47Z" style="vector-effect: none; stroke-width: 0.5px; stroke: rgb(0, 0, 0); stroke-opacity: 1; fill: rgb(181, 174, 112); fill-opacity: 1;"/><path class="meanline" d="M400.25225830078125,27.21H374.1677416992187" style="fill: none; vector-effect: none; stroke-width: 0.5px; stroke-dasharray: 1px, 0.5px; stroke: rgb(0, 0, 0); stroke-opacity: 1;"/></g></g></g><g class="overplot"/><path class="xlines-above crisp" d="M48.5,225.25H466" style="fill: none; stroke-width: 0.5px; stroke: rgb(0, 0, 0); stroke-opacity: 1;"/><path class="ylines-above crisp" d="M48.75,20V225" style="fill: none; stroke-width: 0.5px; stroke: rgb(0, 0, 0); stroke-opacity: 1;"/><g class="overlines-above"/><g class="xaxislayer-above"><path class="xtick ticks crisp" d="M0,225.5v5" transform="translate(78.78999999999999,0)" style="stroke: rgb(68, 68, 68); stroke-opacity: 1; stroke-width: 0.5px;"/><path class="xtick ticks crisp" d="M0,225.5v5" transform="translate(138.36,0)" style="stroke: rgb(68, 68, 68); stroke-opacity: 1; stroke-width: 0.5px;"/><path class="xtick ticks crisp" d="M0,225.5v5" transform="translate(197.93,0)" style="stroke: rgb(68, 68, 68); stroke-opacity: 1; stroke-width: 0.5px;"/><path class="xtick ticks crisp" d="M0,225.5v5" transform="translate(257.5,0)" style="stroke: rgb(68, 68, 68); stroke-opacity: 1; stroke-width: 0.5px;"/><path class="xtick ticks crisp" d="M0,225.5v5" transform="translate(317.07,0)" style="stroke: rgb(68, 68, 68); stroke-opacity: 1; stroke-width: 0.5px;"/><path class="xtick ticks crisp" d="M0,225.5v5" transform="translate(376.64,0)" style="stroke: rgb(68, 68, 68); stroke-opacity: 1; stroke-width: 0.5px;"/><path class="xtick ticks crisp" d="M0,225.5v5" transform="translate(436.21,0)" style="stroke: rgb(68, 68, 68); stroke-opacity: 1; stroke-width: 0.5px;"/><g class="xtick"><text text-anchor="start" x="0" y="244.9" transform="translate(78.78999999999999,0) rotate(30,0,238.9)" style="font-family: Helvetica; font-size: 12px; fill: rgb(0, 0, 0); fill-opacity: 1; white-space: pre; opacity: 1;">canonical (t/d)</text></g><g class="xtick"><text text-anchor="start" x="0" y="244.9" transform="translate(138.36,0) rotate(30,0,238.9)" style="font-family: Helvetica; font-size: 12px; fill: rgb(0, 0, 0); fill-opacity: 1; white-space: pre; opacity: 1;">canonical (PISCES)</text></g><g class="xtick"><text text-anchor="start" x="0" y="244.9" transform="translate(197.93,0) rotate(30,0,238.9)" style="font-family: Helvetica; font-size: 12px; fill: rgb(0, 0, 0); fill-opacity: 1; white-space: pre; opacity: 1;">spliced</text></g><g class="xtick"><text text-anchor="start" x="0" y="244.9" transform="translate(257.5,0) rotate(30,0,238.9)" style="font-family: Helvetica; font-size: 12px; fill: rgb(0, 0, 0); fill-opacity: 1; white-space: pre; opacity: 1;">multimapped</text></g><g class="xtick"><text text-anchor="start" x="0" y="244.9" transform="translate(317.07,0) rotate(30,0,238.9)" style="font-family: Helvetica; font-size: 12px; fill: rgb(0, 0, 0); fill-opacity: 1; white-space: pre; opacity: 1;">cryptic</text></g><g class="xtick"><text text-anchor="start" x="0" y="244.9" transform="translate(376.64,0) rotate(30,0,238.9)" style="font-family: Helvetica; font-size: 12px; fill: rgb(0, 0, 0); fill-opacity: 1; white-space: pre; opacity: 1;">unmapped</text></g><g class="xtick"><text text-anchor="start" x="0" y="244.9" transform="translate(436.21,0) rotate(30,0,238.9)" style="font-family: Helvetica; font-size: 12px; fill: rgb(0, 0, 0); fill-opacity: 1; white-space: pre; opacity: 1;">contaminants</text></g></g><g class="yaxislayer-above"><path class="ytick ticks crisp" d="M48.5,0h-5" transform="translate(0,225)" style="stroke: rgb(68, 68, 68); stroke-opacity: 1; stroke-width: 0.5px;"/><path class="ytick ticks crisp" d="M48.5,0h-5" transform="translate(0,184)" style="stroke: rgb(68, 68, 68); stroke-opacity: 1; stroke-width: 0.5px;"/><path class="ytick ticks crisp" d="M48.5,0h-5" transform="translate(0,143)" style="stroke: rgb(68, 68, 68); stroke-opacity: 1; stroke-width: 0.5px;"/><path class="ytick ticks crisp" d="M48.5,0h-5" transform="translate(0,102)" style="stroke: rgb(68, 68, 68); stroke-opacity: 1; stroke-width: 0.5px;"/><path class="ytick ticks crisp" d="M48.5,0h-5" transform="translate(0,61)" style="stroke: rgb(68, 68, 68); stroke-opacity: 1; stroke-width: 0.5px;"/><path class="ytick ticks crisp" d="M48.5,0h-5" transform="translate(0,20)" style="stroke: rgb(68, 68, 68); stroke-opacity: 1; stroke-width: 0.5px;"/><g class="ytick"><text text-anchor="end" x="41.1" y="4.199999999999999" transform="translate(0,225)" style="font-family: Helvetica; font-size: 12px; fill: rgb(0, 0, 0); fill-opacity: 1; white-space: pre; opacity: 1;">0</text></g><g class="ytick"><text text-anchor="end" x="41.1" y="4.199999999999999" style="font-family: Helvetica; font-size: 12px; fill: rgb(0, 0, 0); fill-opacity: 1; white-space: pre; opacity: 1;" transform="translate(0,184)">0.2</text></g><g class="ytick"><text text-anchor="end" x="41.1" y="4.199999999999999" style="font-family: Helvetica; font-size: 12px; fill: rgb(0, 0, 0); fill-opacity: 1; white-space: pre; opacity: 1;" transform="translate(0,143)">0.4</text></g><g class="ytick"><text text-anchor="end" x="41.1" y="4.199999999999999" style="font-family: Helvetica; font-size: 12px; fill: rgb(0, 0, 0); fill-opacity: 1; white-space: pre; opacity: 1;" transform="translate(0,102)">0.6</text></g><g class="ytick"><text text-anchor="end" x="41.1" y="4.199999999999999" style="font-family: Helvetica; font-size: 12px; fill: rgb(0, 0, 0); fill-opacity: 1; white-space: pre; opacity: 1;" transform="translate(0,61)">0.8</text></g><g class="ytick"><text text-anchor="end" x="41.1" y="4.199999999999999" style="font-family: Helvetica; font-size: 12px; fill: rgb(0, 0, 0); fill-opacity: 1; white-space: pre; opacity: 1;" transform="translate(0,20)">1</text></g></g><g class="overaxes-above"/></g></g><g class="polarlayer"/><g class="smithlayer"/><g class="ternarylayer"/><g class="geolayer"/><g class="funnelarealayer"/><g class="pielayer"/><g class="iciclelayer"/><g class="treemaplayer"/><g class="sunburstlayer"/><g class="glimages"/><defs id="topdefs-e77a60"><g class="clips"/></defs><g class="layer-above"><g class="imagelayer"/><g class="shapelayer"/></g><g class="infolayer"><g class="g-gtitle"/><g class="g-xtitle"/><g class="g-ytitle" transform="translate(13.1435546875,0)"><text class="ytitle" transform="rotate(-90,-0.14374999999999716,122.5)" x="-0.14374999999999716" y="122.5" text-anchor="middle" style="font-family: Helvetica; font-size: 14px; fill: rgb(0, 0, 0); opacity: 1; font-weight: normal; white-space: pre;">Spectral Angle</text></g></g></svg>