<svg class="main-svg" xmlns="http://www.w3.org/2000/svg" xmlns:xlink="http://www.w3.org/1999/xlink" width="500" height="300" style="" viewBox="0 0 500 300"><rect x="0" y="0" width="500" height="300" style="fill: rgb(255, 255, 255); fill-opacity: 1;"/><defs id="defs-8f1f1a"><g class="clips"><clipPath id="clip8f1f1axyplot" class="plotclip"><rect width="438" height="232"/></clipPath><clipPath class="axesclip" id="clip8f1f1ax"><rect x="53" y="0" width="438" height="300"/></clipPath><clipPath class="axesclip" id="clip8f1f1ay"><rect x="0" y="20" width="500" height="232"/></clipPath><clipPath class="axesclip" id="clip8f1f1axy"><rect x="53" y="20" width="438" height="232"/></clipPath></g><g class="gradients"/><g class="patterns"/></defs><g class="bglayer"><rect class="bg" x="53" y="20" width="438" height="232" style="fill: rgb(0, 0, 0); fill-opacity: 0; stroke-width: 0;"/></g><g class="layer-below"><g class="imagelayer"/><g class="shapelayer"/></g><g class="cartesianlayer"><g class="subplot xy"><g class="layer-subplot"><g class="shapelayer"/><g class="imagelayer"/></g><g class="minor-gridlayer"><g class="x"/><g class="y"/></g><g class="gridlayer"><g class="x"/><g class="y"/></g><g class="zerolinelayer"><path class="yzl zl crisp" transform="translate(0,236.65)" d="M53,0h438" style="stroke: rgb(255, 255, 255); stroke-opacity: 1; stroke-width: 2px;"/></g><path class="xlines-below"/><path class="ylines-below"/><g class="overlines-below"/><g class="xaxislayer-below"/><g class="yaxislayer-below"/><g class="overaxes-below"/><g class="plot" transform="translate(53,20)" clip-path="url(#clip8f1f1axyplot)"><g class="scatterlayer mlayer"><g class="trace scatter tracedfcefd" style="stroke-miterlimit: 2; opacity: 1;"><g class="fills"/><g class="errorbars"/><g class="lines"><path class="js-line" d="M43.8,216.65L87.6,198.8L219,79.81L438,15.35" style="vector-effect: none; fill: none; stroke: rgb(155, 191, 229); stroke-opacity: 1; stroke-width: 2px; opacity: 1;"/></g><g class="points"><path class="point" transform="translate(43.8,216.65)" d="M3,0A3,3 0 1,1 0,-3A3,3 0 0,1 3,0Z" style="opacity: 1; stroke-width: 0px; fill: rgb(155, 191, 229); fill-opacity: 1;"/><path class="point" transform="translate(87.6,198.8)" d="M3,0A3,3 0 1,1 0,-3A3,3 0 0,1 3,0Z" style="opacity: 1; stroke-width: 0px; fill: rgb(155, 191, 229); fill-opacity: 1;"/><path class="point" transform="translate(219,79.81)" d="M3,0A3,3 0 1,1 0,-3A3,3 0 0,1 3,0Z" style="opacity: 1; stroke-width: 0px; fill: rgb(155, 191, 229); fill-opacity: 1;"/><path class="point" transform="translate(438,15.35)" d="M3,0A3,3 0 1,1 0,-3A3,3 0 0,1 3,0Z" style="opacity: 1; stroke-width: 0px; fill: rgb(155, 191, 229); fill-opacity: 1;"/></g><g class="text"/></g><g class="trace scatter tracea2893d" style="stroke-miterlimit: 2; opacity: 1;"><g class="fills"/><g class="errorbars"/><g class="lines"><path class="js-line" d="M43.8,216.65L87.6,195.83L219,126.41L438,99.64" style="vector-effect: none; fill: none; stroke: rgb(138, 165, 61); stroke-opacity: 1; stroke-width: 2px; opacity: 1;"/></g><g class="points"><path class="point" transform="translate(43.8,216.65)" d="M3,0A3,3 0 1,1 0,-3A3,3 0 0,1 3,0Z" style="opacity: 1; stroke-width: 0px; fill: rgb(138, 165, 61); fill-opacity: 1;"/><path class="point" transform="translate(87.6,195.83)" d="M3,0A3,3 0 1,1 0,-3A3,3 0 0,1 3,0Z" style="opacity: 1; stroke-width: 0px; fill: rgb(138, 165, 61); fill-opacity: 1;"/><path class="point" transform="translate(219,126.41)" d="M3,0A3,3 0 1,1 0,-3A3,3 0 0,1 3,0Z" style="opacity: 1; stroke-width: 0px; fill: rgb(138, 165, 61); fill-opacity: 1;"/><path class="point" transform="translate(438,99.64)" d="M3,0A3,3 0 1,1 0,-3A3,3 0 0,1 3,0Z" style="opacity: 1; stroke-width: 0px; fill: rgb(138, 165, 61); fill-opacity: 1;"/></g><g class="text"/></g><g class="trace scatter tracebd433f" style="stroke-miterlimit: 2; opacity: 1;"><g class="fills"/><g class="errorbars"/><g class="lines"><path class="js-line" d="M43.8,216.65L87.6,204.75L219,171.04L438,150.21" style="vector-effect: none; fill: none; stroke: rgb(186, 105, 190); stroke-opacity: 1; stroke-width: 2px; opacity: 1;"/></g><g class="points"><path class="point" transform="translate(43.8,216.65)" d="M3,0A3,3 0 1,1 0,-3A3,3 0 0,1 3,0Z" style="opacity: 1; stroke-width: 0px; fill: rgb(186, 105, 190); fill-opacity: 1;"/><path class="point" transform="translate(87.6,204.75)" d="M3,0A3,3 0 1,1 0,-3A3,3 0 0,1 3,0Z" style="opacity: 1; stroke-width: 0px; fill: rgb(186, 105, 190); fill-opacity: 1;"/><path class="point" transform="translate(219,171.04)" d="M3,0A3,3 0 1,1 0,-3A3,3 0 0,1 3,0Z" style="opacity: 1; stroke-width: 0px; fill: rgb(186, 105, 190); fill-opacity: 1;"/><path class="point" transform="translate(438,150.21)" d="M3,0A3,3 0 1,1 0,-3A3,3 0 0,1 3,0Z" style="opacity: 1; stroke-width: 0px; fill: rgb(186, 105, 190); fill-opacity: 1;"/></g><g class="text"/></g><g class="trace scatter trace7c3515" style="stroke-miterlimit: 2; opacity: 1;"><g class="fills"/><g class="errorbars"/><g class="lines"><path class="js-line" d="M43.8,216.65L87.6,210.7L219,178.97L438,165.09" style="vector-effect: none; fill: none; stroke: rgb(181, 174, 112); stroke-opacity: 1; stroke-width: 2px; opacity: 1;"/></g><g class="points"><path class="point" transform="translate(43.8,216.65)" d="M3,0A3,3 0 1,1 0,-3A3,3 0 0,1 3,0Z" style="opacity: 1; stroke-width: 0px; fill: rgb(181, 174, 112); fill-opacity: 1;"/><path class="point" transform="translate(87.6,210.7)" d="M3,0A3,3 0 1,1 0,-3A3,3 0 0,1 3,0Z" style="opacity: 1; stroke-width: 0px; fill: rgb(181, 174, 112); fill-opacity: 1;"/><path class="point" transform="translate(219,178.97)" d="M3,0A3,3 0 1,1 0,-3A3,3 0 0,1 3,0Z" style="opacity: 1; stroke-width: 0px; fill: rgb(181, 174, 112); fill-opacity: 1;"/><path class="point" transform="translate(438,165.09)" d="M3,0A3,3 0 1,1 0,-3A3,3 0 0,1 3,0Z" style="opacity: 1; stroke-width: 0px; fill: rgb(181, 174, 112); fill-opacity: 1;"/></g><g class="text"/></g><g class="trace scatter tracee002f9" style="stroke-miterlimit: 2; opacity: 1;"><g class="fills"/><g class="errorbars"/><g class="lines"><path class="js-line" d="M43.8,216.65L87.6,211.69L219,186.9L438,166.08" style="vector-effect: none; fill: none; stroke: rgb(185, 178, 194); stroke-opacity: 1; stroke-width: 2px; opacity: 1;"/></g><g class="points"><path class="point" transform="translate(43.8,216.65)" d="M3,0A3,3 0 1,1 0,-3A3,3 0 0,1 3,0Z" style="opacity: 1; stroke-width: 0px; fill: rgb(185, 178, 194); fill-opacity: 1;"/><path class="point" transform="translate(87.6,211.69)" d="M3,0A3,3 0 1,1 0,-3A3,3 0 0,1 3,0Z" style="opacity: 1; stroke-width: 0px; fill: rgb(185, 178, 194); fill-opacity: 1;"/><path class="point" transform="translate(219,186.9)" d="M3,0A3,3 0 1,1 0,-3A3,3 0 0,1 3,0Z" style="opacity: 1; stroke-width: 0px; fill: rgb(185, 178, 194); fill-opacity: 1;"/><path class="point" transform="translate(438,166.08)" d="M3,0A3,3 0 1,1 0,-3A3,3 0 0,1 3,0Z" style="opacity: 1; stroke-width: 0px; fill: rgb(185, 178, 194); fill-opacity: 1;"/></g><g class="text"/></g></g></g><g class="overplot"/><path class="xlines-above crisp" d="M52.5,252.25H491" style="fill: none; stroke-width: 0.5px; stroke: rgb(0, 0, 0); stroke-opacity: 1;"/><path class="ylines-above crisp" d="M52.75,20V252" style="fill: none; stroke-width: 0.5px; stroke: rgb(0, 0, 0); stroke-opacity: 1;"/><g class="overlines-above"/><g class="xaxislayer-above"><path class="xtick ticks crisp" d="M0,252.5v5" transform="translate(53,0)" style="stroke: rgb(68, 68, 68); stroke-opacity: 1; stroke-width: 0.5px;"/><path class="xtick ticks crisp" d="M0,252.5v5" transform="translate(140.6,0)" style="stroke: rgb(68, 68, 68); stroke-opacity: 1; stroke-width: 0.5px;"/><path class="xtick ticks crisp" d="M0,252.5v5" transform="translate(228.2,0)" style="stroke: rgb(68, 68, 68); stroke-opacity: 1; stroke-width: 0.5px;"/><path class="xtick ticks crisp" d="M0,252.5v5" transform="translate(315.8,0)" style="stroke: rgb(68, 68, 68); stroke-opacity: 1; stroke-width: 0.5px;"/><path class="xtick ticks crisp" d="M0,252.5v5" transform="translate(403.4,0)" style="stroke: rgb(68, 68, 68); stroke-opacity: 1; stroke-width: 0.5px;"/><path class="xtick ticks crisp" d="M0,252.5v5" transform="translate(491,0)" style="stroke: rgb(68, 68, 68); stroke-opacity: 1; stroke-width: 0.5px;"/><g class="xtick"><text text-anchor="middle" x="0" y="271.9" transform="translate(53,0)" style="font-family: Helvetica; font-size: 12px; fill: rgb(0, 0, 0); fill-opacity: 1; white-space: pre; opacity: 1;">0</text></g><g class="xtick"><text text-anchor="middle" x="0" y="271.9" style="font-family: Helvetica; font-size: 12px; fill: rgb(0, 0, 0); fill-opacity: 1; white-space: pre; opacity: 1;" transform="translate(140.6,0)">0.02</text></g><g class="xtick"><text text-anchor="middle" x="0" y="271.9" style="font-family: Helvetica; font-size: 12px; fill: rgb(0, 0, 0); fill-opacity: 1; white-space: pre; opacity: 1;" transform="translate(228.2,0)">0.04</text></g><g class="xtick"><text text-anchor="middle" x="0" y="271.9" style="font-family: Helvetica; font-size: 12px; fill: rgb(0, 0, 0); fill-opacity: 1; white-space: pre; opacity: 1;" transform="translate(315.8,0)">0.06</text></g><g class="xtick"><text text-anchor="middle" x="0" y="271.9" style="font-family: Helvetica; font-size: 12px; fill: rgb(0, 0, 0); fill-opacity: 1; white-space: pre; opacity: 1;" transform="translate(403.4,0)">0.08</text></g><g class="xtick"><text text-anchor="middle" x="0" y="271.9" style="font-family: Helvetica; font-size: 12px; fill: rgb(0, 0, 0); fill-opacity: 1; white-space: pre; opacity: 1;" transform="translate(491,0)">0.1</text></g></g><g class="yaxislayer-above"><path class="ytick ticks crisp" d="M52.5,0h-5" transform="translate(0,236.65)" style="stroke: rgb(68, 68, 68); stroke-opacity: 1; stroke-width: 0.5px;"/><path class="ytick ticks crisp" d="M52.5,0h-5" transform="translate(0,187.07)" style="stroke: rgb(68, 68, 68); stroke-opacity: 1; stroke-width: 0.5px;"/><path class="ytick ticks crisp" d="M52.5,0h-5" transform="translate(0,137.49)" style="stroke: rgb(68, 68, 68); stroke-opacity: 1; stroke-width: 0.5px;"/><path class="ytick ticks crisp" d="M52.5,0h-5" transform="translate(0,87.91)" style="stroke: rgb(68, 68, 68); stroke-opacity: 1; stroke-width: 0.5px;"/><path class="ytick ticks crisp" d="M52.5,0h-5" transform="translate(0,38.32)" style="stroke: rgb(68, 68, 68); stroke-opacity: 1; stroke-width: 0.5px;"/><g class="ytick"><text text-anchor="end" x="45.1" y="4.199999999999999" transform="translate(0,236.65)" style="font-family: Helvetica; font-size: 12px; fill: rgb(0, 0, 0); fill-opacity: 1; white-space: pre; opacity: 1;">0</text></g><g class="ytick"><text text-anchor="end" x="45.1" y="4.199999999999999" style="font-family: Helvetica; font-size: 12px; fill: rgb(0, 0, 0); fill-opacity: 1; white-space: pre; opacity: 1;" transform="translate(0,187.07)">50</text></g><g class="ytick"><text text-anchor="end" x="45.1" y="4.199999999999999" style="font-family: Helvetica; font-size: 12px; fill: rgb(0, 0, 0); fill-opacity: 1; white-space: pre; opacity: 1;" transform="translate(0,137.49)">100</text></g><g class="ytick"><text text-anchor="end" x="45.1" y="4.199999999999999" style="font-family: Helvetica; font-size: 12px; fill: rgb(0, 0, 0); fill-opacity: 1; white-space: pre; opacity: 1;" transform="translate(0,87.91)">150</text></g><g class="ytick"><text text-anchor="end" x="45.1" y="4.199999999999999" style="font-family: Helvetica; font-size: 12px; fill: rgb(0, 0, 0); fill-opacity: 1; white-space: pre; opacity: 1;" transform="translate(0,38.32)">200</text></g></g><g class="overaxes-above"/></g></g><g class="polarlayer"/><g class="smithlayer"/><g class="ternarylayer"/><g class="geolayer"/><g class="funnelarealayer"/><g class="pielayer"/><g class="iciclelayer"/><g class="treemaplayer"/><g class="sunburstlayer"/><g class="glimages"/><defs id="topdefs-8f1f1a"><g class="clips"/></defs><g class="layer-above"><g class="imagelayer"/><g class="shapelayer"/></g><g class="infolayer"><g class="g-gtitle"/><g class="g-xtitle" transform="translate(0,-2.4562500000000114)"><text class="xtitle" x="272" y="299.45625" text-anchor="middle" style="font-family: Helvetica; font-size: 14px; fill: rgb(0, 0, 0); opacity: 1; font-weight: normal; white-space: pre;">q-value</text></g><g class="g-ytitle" transform="translate(12.4716796875,0)"><text class="ytitle" transform="rotate(-90,0.5281250000000028,136)" x="0.5281250000000028" y="136" text-anchor="middle" style="font-family: Helvetica; font-size: 14px; fill: rgb(0, 0, 0); opacity: 1; font-weight: normal; white-space: pre;">peptides</text></g></g></svg>